<svg xmlns="http://www.w3.org/2000/svg" xmlns:xlink="http://www.w3.org/1999/xlink" width="124.774" height="105.474" viewBox="0 0 124.774 105.474">
  <defs>
    <clipPath id="clip-path">
      <rect id="Rectangle_398" data-name="Rectangle 398" width="124.774" height="105.474" fill="none"/>
    </clipPath>
  </defs>
  <g id="Group_256" data-name="Group 256" clip-path="url(#clip-path)">
    <path id="Path_1387" data-name="Path 1387" d="M3.936,38.941A11.988,11.988,0,0,0,6,37.512a63.786,63.786,0,0,1,7.3-5.637l.873-.556.4-.318h0l.079-.079c.318.159.318-.079.4-.238l.079-.159.556-.4v.079l.079-.079L16,29.97l.318.079v-.238a12.893,12.893,0,0,0,1.588-1.429,4.716,4.716,0,0,1,.873.079l-.079.159a10.25,10.25,0,0,0-.4,1.667v.238l-.318.159-.556.159c-.318.079.079.715-.079,1.032l-.4-.159c-.079.318-.079.635-.238.794h-.556c-.079.318,0,1.27.318.953.4-.476.556-.873.873-1.27a3.373,3.373,0,0,1-.794,1.35c-.238.238-.873.4-1.112.715a5.107,5.107,0,0,1-.794,1.905c-2.144,1.747-3.255,4.049-5.716,5.319-.4.318-.635.715-1.112.873-1.508.715-1.747,2.858-3.811,2.779,0,0,.079.794-1.508-.159s-1.985-1.747-.953-2.938a37.529,37.529,0,0,0,2.382-3.1m114.725,66.532-.079-.079v.079a60.119,60.119,0,0,0-6.352-3.255l-.794-.4-1.191-.794c-.556-.4-1.191-.873-1.826-1.35-.873-.635-2.223-.794-3.732-1.508-.238-.079,0-.476-.556-.635a27.927,27.927,0,0,1-3.1-1.27c-.476-.159-1.032-.953-1.588-1.112-1.112-.476-4.129-1.191-2.461-.476,2.461,1.191,4.129,1.826,6.352,2.858-2.064-.794-4.129-1.747-6.51-2.858-1.588-.635-3.493-1.747-5.478-2.461-2.7-.873-5.637-1.588-8.813-2.938-11.909-5-22.548-8.813-33.981-12.624-2.223-.556-4.208-1.032-6.113-1.588C34.979,73,26.008,73.319,19.815,71.255c-4.128-1.35-11.83-1.588-8.178-.794-3.414-.715-5.8-1.032-7.7-1.35a3.668,3.668,0,0,1-1.508.556c-.556,0-1.191-.556-2.144-2.779-.953-2.144.794-1.747.794-1.747l2.858.079c4.128.476,10.4.953,14.053,1.508,10.877,2.064,20.96,2.541,31.52,6.034,5.24,1.826,10.559,3.732,15.958,5.955,10,4.128,18.9,7.86,28.423,11.989,1.508.715,2.938,1.35,4.367,1.985L100.4,93.8l.159.159-.079-.079.476.238a4.026,4.026,0,0,0,1.747.953l.635.238c.953.476,1.826,1.032,2.779,1.588l-.238-.079.476.238,1.191.715.556.476a.875.875,0,0,0,.715.238c2.779,1.747,5.558,3.414,8.5,5.4,0,0,.794.715,1.35,1.27M54.669,40.132l.4.238.159.079.079.159-.238-.159-.159.159.079.318-.079-.318-.238-.476-.556-.476a1.722,1.722,0,0,1,.556.476M18.545,26.953l-.159.238.159-.238.079-.159v-.079H18.7v.079l.159.159Zm.635-.635v.238h-.238Zm1.429,1.112-.4,1.35c-.318.4-.476.794-.873,1.27-.238.318-.318-.715-.238-.953h.556c.159-.159.159-.476.238-.794l.4.159c.159-.318-.238-1.032.079-1.032l.556-.159Zm.953-2.223a.957.957,0,0,1-.953.318l.238.238-.318-.079c.079-.318.159-.556.635-.476v-.238l.4.238.079-.159ZM47.127,36.4l-.556-.556-.794-1.112c-.4-.556-1.429-.556-2.3-1.112-.159-.079.318-.4-.079-.556a10.147,10.147,0,0,1-1.826-1.112c-.318-.159-.238-.873-.556-1.032-.635-.4-2.62-1.112-1.747-.4,1.27,1.032,2.223,1.667,3.414,2.62a23.943,23.943,0,0,1-3.573-2.62,25.549,25.549,0,0,0-2.541-2.541c-1.032-.715-2.223-1.35-3.335-2.144a43.508,43.508,0,0,1-.159,6.431c-.079,3.97-1.35,7.86-1.35,11.909,0,1.985-.079,3.89-.159,5.8,0,1.27-.476,3.255.318,4.446l.4-.476c-1.032,3.652.079,5.161-1.985,6.987a2.282,2.282,0,0,1-3.732-1.35c-.159-2.3-.476-6.828,0-9.21,1.35-6.272.4-11.909.953-18.181.318-3.1.476-6.272.556-9.607,0-.4.079-.794.079-1.191,0-.556-.079-1.112-.079-1.667-.079-4.128-.556-8.1-.476-12.306,2.858-.079,4.446-.238,4.525,2.858.079,2.223-1.508,4.684-1.112,6.828s3.414,4.049,5,5.637c1.27,1.191,2.541,2.461,3.732,3.652l.079.079,1.985,1.985,1.032,1.032.079.079v-.079l.238.238c0,.4.4.635.794.873l.318.238,1.35,1.35-.159-.079-.159.238-.318-.238.238.4.159-.159.238.159.635.556.159.476.476.159c1.35,1.35,2.779,2.62,4.367,4.049a4.562,4.562,0,0,1,.556,1.35l-.4-.318v.079A36.658,36.658,0,0,0,47.6,36.639Zm8.416,6.749-3.176-1.985c-1.191-.953-2.064-1.508-3.414-2.62-.873-.715,1.112,0,1.747.4.318.159.238.873.556,1.032a10.147,10.147,0,0,0,1.826,1.112c.318.079-.079.476.079.556.873.556,1.905.635,2.3,1.112l.794,1.112Zm.556-1.588-.159-.476.635.635ZM86.9,26.714a16.98,16.98,0,0,0-.476,2.144v.318l-.238.238-.635.159c-.318.079.079.953-.079,1.35L85,30.684c-.079.4,0,.794-.238,1.032h-.635c-.079.4,0,1.667.318,1.27.4-.635.635-1.112.953-1.667a3.647,3.647,0,0,1-.873,1.747c-.318.318-.953.476-1.27.953A5.511,5.511,0,0,1,82.3,36.48c-4.208,4.684-8.416,9.289-13.735,12.465-2.541,1.508-6.51,1.191-8.416-1.35-.476-.635-1.27-.953-1.667-1.667-.635-1.191,1.667-.556,2.3-.556a6.85,6.85,0,0,0,2.223-.318,11.651,11.651,0,0,0,4.287-1.588,23.47,23.47,0,0,0,2.064-1.905c.794-.635,1.747-1.191,2.541-1.747a33.268,33.268,0,0,0,4.287-3.89,31.612,31.612,0,0,0,3.1-3.414c.715-.953,1.826-2.382,3.017-2.779l.079-.159c.318.159.4-.079.476-.238l.079-.159.635-.556V28.7l-.079.238h.238l-.238-.238.079-.159.318-.238.318.079v-.318a19.8,19.8,0,0,0,1.826-1.826,3.449,3.449,0,0,1,1.032.159Zm-.159-2.144-.238.318.238-.318.079-.238v-.079l.079-.079-.079.159.238.238Zm.715-.873v.318l-.318-.079Zm1.588,1.508-.476,1.747c-.318.556-.556,1.032-.953,1.667-.318.4-.4-.873-.318-1.27h.635c.238-.238.159-.635.238-1.032l.476.238c.159-.4-.238-1.35.079-1.35l.635-.159Zm1.112-2.938a1.236,1.236,0,0,1-1.112.476l.238.318-.318-.159c.079-.4.159-.794.715-.635v-.318l.476.318.079-.238Zm34.06,17.7c-1.429-.953-2.938-1.985-4.367-2.858L119.3,36.8l-.635-.715-.953-1.35c-.4-.715-1.667-.715-2.62-1.429-.159-.079.318-.556-.079-.715a7.937,7.937,0,0,1-2.064-1.429c-.4-.159-.238-1.112-.635-1.27-.794-.476-2.938-1.429-1.985-.476,1.508,1.35,2.541,2.144,3.89,3.335a29.948,29.948,0,0,1-4.049-3.335c-.873-.873-1.747-2.3-2.938-3.335-1.191-.873-2.541-1.667-3.89-2.7a73.045,73.045,0,0,1-.159,8.336,47.6,47.6,0,0,1,0,4.764,37.279,37.279,0,0,0,.238,7.3c.159,2.223.794,22.469.159,24.533a14.612,14.612,0,0,0-.318,3.255,22.484,22.484,0,0,1-.635,3.176c-.159.794-.238,1.588-.318,2.382-.159,1.826-.318,3.573-.4,5.4a5.739,5.739,0,0,1-1.588,3.89c-.159.159-3.1,2.3-4.287-1.747-.159-3.017-.635-8.813-.079-11.909.635-3.97.635-25.486.635-29.535,0-1.985-.079-3.97,0-5.955a25.156,25.156,0,0,1,.556-5.478c.079-.635-.238-1.985.238-2.461l.159.556c0-.556-.4-1.985.318-2.144l.079-.318a1.182,1.182,0,0,1,.318.715c-.476-1.27-.079-2.858-.238-4.208H97.86a3.242,3.242,0,0,1,.079-1.508V22.9a5.2,5.2,0,0,1,.4-2.461,2.031,2.031,0,0,0-.159-1.667c-.159.318-.318.318-.476.476,2.779-3.1-6.59-20.166,1.905-19.213,4.843.556,1.667,8.178,2.064,11.274.635,5.319,5.8,9.369,9.13,13.1l2.3,2.62,1.112,1.35.079.159v-.079l.318.318c0,.476.476.794.873,1.112h.476l1.588,1.747-.159-.079.318.238.715.715.238.556.476.238c1.588,1.747,3.176,3.414,5,5.24a6.578,6.578,0,0,1,.635,1.826Z" transform="translate(0 0)" fill="#fff"/>
  </g>
</svg>
