<svg xmlns="http://www.w3.org/2000/svg" width="748" height="1" viewBox="0 0 748 1">
  <path id="Line_24" data-name="Line 24" d="M748,.5h-3v-1h3Zm-5,0h-3v-1h3Zm-5,0h-3v-1h3Zm-5,0h-3v-1h3Zm-5,0h-3v-1h3Zm-5,0h-3v-1h3Zm-5,0h-3v-1h3Zm-5,0h-3v-1h3Zm-5,0h-3v-1h3Zm-5,0h-3v-1h3Zm-5,0h-3v-1h3Zm-5,0h-3v-1h3Zm-5,0h-3v-1h3Zm-5,0h-3v-1h3Zm-5,0h-3v-1h3Zm-5,0h-3v-1h3Zm-5,0h-3v-1h3Zm-5,0h-3v-1h3Zm-5,0h-3v-1h3Zm-5,0h-3v-1h3Zm-5,0h-3v-1h3Zm-5,0h-3v-1h3Zm-5,0h-3v-1h3Zm-5,0h-3v-1h3Zm-5,0h-3v-1h3Zm-5,0h-3v-1h3Zm-5,0h-3v-1h3Zm-5,0h-3v-1h3Zm-5,0h-3v-1h3Zm-5,0h-3v-1h3Zm-5,0h-3v-1h3Zm-5,0h-3v-1h3Zm-5,0h-3v-1h3Zm-5,0h-3v-1h3Zm-5,0h-3v-1h3Zm-5,0h-3v-1h3Zm-5,0h-3v-1h3Zm-5,0h-3v-1h3Zm-5,0h-3v-1h3Zm-5,0h-3v-1h3Zm-5,0h-3v-1h3Zm-5,0h-3v-1h3Zm-5,0h-3v-1h3Zm-5,0h-3v-1h3Zm-5,0h-3v-1h3Zm-5,0h-3v-1h3Zm-5,0h-3v-1h3Zm-5,0h-3v-1h3Zm-5,0h-3v-1h3Zm-5,0h-3v-1h3Zm-5,0h-3v-1h3Zm-5,0h-3v-1h3Zm-5,0h-3v-1h3Zm-5,0h-3v-1h3Zm-5,0h-3v-1h3Zm-5,0h-3v-1h3Zm-5,0h-3v-1h3Zm-5,0h-3v-1h3Zm-5,0h-3v-1h3Zm-5,0h-3v-1h3Zm-5,0h-3v-1h3Zm-5,0h-3v-1h3Zm-5,0h-3v-1h3Zm-5,0h-3v-1h3Zm-5,0h-3v-1h3Zm-5,0h-3v-1h3Zm-5,0h-3v-1h3Zm-5,0h-3v-1h3Zm-5,0h-3v-1h3Zm-5,0h-3v-1h3Zm-5,0h-3v-1h3Zm-5,0h-3v-1h3Zm-5,0h-3v-1h3Zm-5,0h-3v-1h3Zm-5,0h-3v-1h3Zm-5,0h-3v-1h3Zm-5,0h-3v-1h3Zm-5,0h-3v-1h3Zm-5,0h-3v-1h3Zm-5,0h-3v-1h3Zm-5,0h-3v-1h3Zm-5,0h-3v-1h3Zm-5,0h-3v-1h3Zm-5,0h-3v-1h3Zm-5,0h-3v-1h3Zm-5,0h-3v-1h3Zm-5,0h-3v-1h3Zm-5,0h-3v-1h3Zm-5,0h-3v-1h3Zm-5,0h-3v-1h3Zm-5,0h-3v-1h3Zm-5,0h-3v-1h3Zm-5,0h-3v-1h3Zm-5,0h-3v-1h3Zm-5,0h-3v-1h3Zm-5,0h-3v-1h3Zm-5,0h-3v-1h3Zm-5,0h-3v-1h3Zm-5,0h-3v-1h3Zm-5,0h-3v-1h3Zm-5,0h-3v-1h3Zm-5,0h-3v-1h3Zm-5,0h-3v-1h3Zm-5,0h-3v-1h3Zm-5,0h-3v-1h3Zm-5,0h-3v-1h3Zm-5,0h-3v-1h3Zm-5,0h-3v-1h3Zm-5,0h-3v-1h3Zm-5,0h-3v-1h3Zm-5,0h-3v-1h3Zm-5,0h-3v-1h3Zm-5,0h-3v-1h3Zm-5,0h-3v-1h3Zm-5,0h-3v-1h3Zm-5,0h-3v-1h3Zm-5,0h-3v-1h3Zm-5,0h-3v-1h3Zm-5,0h-3v-1h3Zm-5,0h-3v-1h3Zm-5,0h-3v-1h3Zm-5,0h-3v-1h3Zm-5,0h-3v-1h3Zm-5,0h-3v-1h3Zm-5,0h-3v-1h3Zm-5,0h-3v-1h3Zm-5,0h-3v-1h3Zm-5,0h-3v-1h3Zm-5,0h-3v-1h3Zm-5,0h-3v-1h3Zm-5,0H95v-1h3Zm-5,0H90v-1h3Zm-5,0H85v-1h3Zm-5,0H80v-1h3Zm-5,0H75v-1h3Zm-5,0H70v-1h3Zm-5,0H65v-1h3Zm-5,0H60v-1h3Zm-5,0H55v-1h3Zm-5,0H50v-1h3Zm-5,0H45v-1h3Zm-5,0H40v-1h3Zm-5,0H35v-1h3Zm-5,0H30v-1h3Zm-5,0H25v-1h3Zm-5,0H20v-1h3Zm-5,0H15v-1h3Zm-5,0H10v-1h3ZM8,.5H5v-1H8ZM3,.5H0v-1H3Z" transform="translate(0 0.5)" fill="#7577c9"/>
</svg>
