<svg id="Group_2" data-name="Group 2" xmlns="http://www.w3.org/2000/svg" width="512" height="512" viewBox="0 0 512 512">
  <path id="Path_2" data-name="Path 2" d="M526.677,543.649c-8.758-4.943-18.232-10.12-26.732-13.912l-3.475-1.608-4.919-3.228c-2.418-1.831-4.942-3.8-7.819-5.682-3.71-2.677-9.427-3.2-15.732-6.269-1.01-.376-.106-1.949-2.219-2.665-4.637-2.148-9-3.146-13.219-5.342-2.137-.622-4.461-4.074-6.563-4.672-4.778-2.054-17.563-5.107-10.5-1.972,10.507,4.884,17.492,7.748,26.884,12.209-8.605-3.487-17.5-7.267-27.659-12.163-6.574-2.818-14.933-7.384-23.092-10.531-11.505-3.733-24.032-6.786-37.45-12.3-50.517-21.273-95.516-37.321-143.849-53.557-9.439-2.442-17.927-4.191-25.781-6.586-31.639-8.594-69.758-7.443-95.95-16.142-17.539-5.717-50.2-6.809-34.644-3.228C59.476,392.8,49.521,391.735,41.4,390.1V492.134A64.16,64.16,0,0,0,105.415,556.1H489.4a63.737,63.737,0,0,0,37.709-12.444l-.446-.282ZM489.4,44.1H105.415A64.165,64.165,0,0,0,41.4,108.1V261.8a62.109,62.109,0,0,0,8.7-6.21A315.794,315.794,0,0,1,80.96,231.814l3.686-2.5,1.808-1.268.305.023-.235-.047.434-.329c1.221.5,1.456-.164,1.714-.927l.282-.5,2.383-1.69.023.27.2-.435.974-.775,1.174.164-.07-1a73.931,73.931,0,0,0,6.8-5.976,12.85,12.85,0,0,1,3.6.458l-.352.634.164.164a38.836,38.836,0,0,0-1.831,6.938l-.117.939-1.033.775-2.348.611c-1.2.188.329,3.087-.364,4.473l-1.691-.622c-.305,1.244-.211,2.606-.928,3.275l-2.418.071c-.317,1.244.047,5.435,1.186,4.168,1.561-1.949,2.278-3.545,3.557-5.365a12.656,12.656,0,0,1-3.287,5.811c-1.127,1.033-3.545,1.643-4.614,3.17-1.01,2.653-1.244,6.034-3.5,8.194-9.1,7.478-13.689,17.164-24.2,22.611-1.714,1.338-2.794,2.9-4.567,3.7-6.48,3.017-7.467,12.186-16.307,11.869v85.091c17.621,2.113,44.025,3.909,59.345,6.387,45.985,7.9,88.871,10.2,133.541,24.783,22.247,7.619,44.682,15.86,67.692,25.381,42.5,17.446,79.878,33.142,120.5,50.81,6.234,2.935,12.456,5.612,18.42,8.57l9.087,4.8.763.587-.352-.352,2.172,1.139c1.456,1.726,4.438,2.947,7.5,4.191l2.559,1.174c3.968,2.055,7.877,4.532,11.763,6.821l-.845-.376,1.843.939,5.165,3.041,2.5,2.1a5.238,5.238,0,0,0,3.017,1.127c11.646,7.255,23.621,14.464,36.03,22.822,0,0,3.346,3.005,5.67,5.389A63.883,63.883,0,0,0,553.4,492.134V108.1A64.16,64.16,0,0,0,489.4,44.1ZM256.178,266.822l1.737,1.162.587.2.481.552-1.068-.751-.81.657-.927-1.82-2.512-2.1A7.771,7.771,0,0,1,256.178,266.822ZM103.172,211.058l.317-.728-.023-.305.164-.141-.141.446v.035l.728.693Zm2.559-2.747.082.963-1.162-.117Zm5.964,4.743-1.714,5.776c-1.28,1.832-2.054,3.381-3.592,5.353-1.045,1.256-1.479-2.935-1.162-4.179l2.407-.012c.787-.716.646-2.125.916-3.322l1.737.658c.681-1.409-.869-4.332.376-4.5l2.336-.646Zm4.262-9.533-.164-.082c-.716,1.01-1.8,1.655-3.863,1.55l.916,1.033-1.233-.493c.211-1.244.54-2.442,2.642-2.008l-.117-1.021,1.655.939.352-.658.094.023Zm108.195,47.511-2.442-2.43-3.369-4.579c-1.55-2.254-6.21-2.324-9.744-4.79-.7-.258,1.209-1.784-.164-2.3-2.782-1.632-5.565-2.665-7.7-4.59-1.4-.528-.974-3.722-2.372-4.273-2.782-1.62-11-4.708-7.431-1.7,5.436,4.485,9.357,7.1,14.3,11.047a104.064,104.064,0,0,1-15-10.965c-3.217-2.935-6.551-7.6-10.836-10.871-4.5-2.888-9.462-5.577-14.252-8.969a228.972,228.972,0,0,1-.657,27.3c-.176,16.917-5.788,33.388-5.623,50.352.106,8.265-.446,16.471-.587,24.689-.07,5.518-2.078,13.947,1.2,18.8l1.561-2.125c-4.449,15.591.352,21.859-8.535,29.713-.622.6-11.388,7.361-15.908-5.858-.517-9.791-2.125-28.763-.082-38.965,5.764-26.556,1.773-50.552,4.179-76.861,1.174-13.16,1.961-26.626,2.383-40.608.023-1.726.211-3.452.282-5.177,0-2.324-.282-4.625-.305-6.9-.493-17.528-2.313-34.187-2-52.019,12.268-.211,18.666-.916,19.171,12.08.4,9.345-6.433,19.758-4.637,28.951,1.784,9.227,14.346,17.293,21.273,23.9,5.295,5.119,10.6,10.249,15.767,15.544l.317.317,8.523,8.523,4.309,4.332.2.481-.047-.317,1.045,1.021c.023,1.585,1.691,2.677,3.381,3.757l1.362,1.01,5.753,5.682-.587-.294-.364-.247-1.35-.857.892,1.737.787-.634,1.057.728,2.571,2.442.751,1.878,1.937.775c5.835,5.53,11.9,11.188,18.5,17.047,0,0,2.266,4.1,2.442,5.882l-1.691-1.244-.07.211c-5.177-3.287-10.883-6.75-16-9.5Zm35.654,28.645-13.5-8.241c-4.966-3.874-8.864-6.539-14.334-11.012-3.569-3.005,4.673.094,7.431,1.714,1.4.5,1.01,3.733,2.383,4.25,2.148,1.949,4.884,2.982,7.69,4.625,1.362.493-.481,2.008.164,2.289,3.557,2.477,8.218,2.524,9.721,4.79l3.428,4.555Zm2.477-6.656-.8-1.89,2.747,2.618Zm130.454-63.137a69.99,69.99,0,0,0-2.054,9l-.129,1.3-1.139.939-2.677.81c-1.339.27.352,4.074-.411,5.846l-1.925-.845c-.329,1.6-.153,3.369-1.033,4.32l-2.794.059c-.352,1.585.117,6.985,1.4,5.365,1.761-2.547,2.583-4.579,4.062-6.938a17.685,17.685,0,0,1-3.757,7.514c-1.3,1.35-4.038,2.078-5.259,4.132-1.1,3.416-1.444,7.831-3.956,10.578-17.774,19.23-35.466,38.718-58.159,52.207-10.589,6.257-27.413,5.06-35.619-5.6-2.043-2.665-5.53-4.156-7.115-7.173-2.712-5.13,7.115-2.477,9.7-2.313a31.089,31.089,0,0,0,9.58-1.28c6.528-1.632,12.62-2.829,18.267-6.68,3.358-2.266,5.565-5.459,8.664-8.007,3.428-2.853,7.255-4.954,10.836-7.549,6.586-4.766,12.3-10.683,18.173-16.318a144.686,144.686,0,0,0,13.078-14.487c3.182-4.05,7.76-10.2,12.808-11.834l.282-.528c1.4.657,1.644-.2,1.949-1.127l.317-.681,2.688-2.277.023.423-.317.927H379.4l-.869-.916.211-.6,1.2-.986,1.28.176-.094-1.28a84.666,84.666,0,0,0,7.666-7.69,13.221,13.221,0,0,1,4.2.564l-.423.8Zm-.763-9.063.27-.9v-.352l.258-.211-.258.563.916.951Zm2.9-3.569.07,1.3-1.315-.223Zm6.8,6.187-1.914,7.443c-1.491,2.395-2.3,4.438-4.015,6.985-1.28,1.608-1.749-3.8-1.444-5.377l2.782-.035c.869-.939.7-2.759,1.056-4.356l1.937.9c.74-1.855-.986-5.635.411-5.882l2.641-.834Zm4.837-12.35-.223-.176a4.077,4.077,0,0,1-4.332,2.031l1.033,1.338-1.444-.622c.293-1.585.6-3.217,3.041-2.571l-.153-1.338,1.855,1.162.411-.822.094.059ZM550.732,266l-.059.258c-5.94-4.25-12.4-8.676-18.3-12.256l-2.43-1.491-2.818-3.146-3.921-5.846c-1.726-2.97-7.044-3.052-11.071-6.21-.775-.329,1.338-2.348-.211-3.041-3.2-2.09-6.328-3.416-8.758-5.94-1.573-.693-1.115-4.849-2.665-5.53-3.2-2.066-12.62-6.128-8.535-2.137,6.234,5.776,10.66,9.192,16.365,14.217a112.432,112.432,0,0,1-17.105-14.217c-3.745-3.792-7.549-9.779-12.409-14.053-5.154-3.733-10.766-7.173-16.307-11.587a321.011,321.011,0,0,1-.622,35.349c-.047,7.349.61,13.877.012,20.028-.927,10.319.129,20.756.974,31.1.728,9.286,3.346,95.1.669,104.051-1.374,4.426-.916,9.192-1.444,13.818-.481,4.543-1.714,8.9-2.536,13.442a89.258,89.258,0,0,0-1.209,10.237c-.517,7.631-1.268,15.215-1.831,22.869-.505,6.539-2.266,11.939-6.8,16.518-.657.763-12.961,9.591-18.138-7.5-.61-12.738-2.548-37.309-.258-50.564,2.818-16.706,2.653-108.089,2.653-125.147,0-8.429-.164-16.882-.059-25.311a119.971,119.971,0,0,1,2.219-23.269c.517-2.747-.963-8.429,1.162-10.272l.528,2.383c-.082-2.442-1.655-8.429,1.2-9.016l.2-1.374c.317.47.6.857.822,1.268-1.1-5.06.035-11.024-.634-16.154l-.6-.082a13.677,13.677,0,0,1,.446-6.351l.094,1.89a20.673,20.673,0,0,1,1.737-10.519c.552-2.066.552-5.271-.528-7.1-.552,1.2-1.374,1.385-1.855,1.89,11.681-13.266-27.906-85.279,8.065-81.381,20.463,2.207,7.173,34.785,8.746,47.652,2.735,22.541,24.619,39.6,38.695,55.565l9.744,11.094,4.872,5.577.258.622-.035-.411,1.2,1.338c.023,2.019,1.925,3.44,3.815,4.837l1.6,1.315,6.574,7.314-.728-.352,1.245.951,2.9,3.146.88,2.418,2.2.986c6.715,7.244,13.56,14.546,21.132,22.083,0,0,2.571,5.342,2.818,7.654ZM440.048,213.629a11.822,11.822,0,0,0,.47,1.738A3.745,3.745,0,0,0,440.048,213.629Z" transform="translate(-41.397 -44.105)" fill="#e69641"/>
</svg>
