<?xml version="1.0" encoding="utf-8"?>
<!-- Generator: Adobe Illustrator 25.4.2, SVG Export Plug-In . SVG Version: 6.00 Build 0)  -->
<svg version="1.1" id="Layer_1" xmlns="http://www.w3.org/2000/svg" xmlns:xlink="http://www.w3.org/1999/xlink" x="0px" y="0px"
	 viewBox="0 0 1925.8 275.4" style="enable-background:new 0 0 1925.8 275.4;" xml:space="preserve">
<style type="text/css">
	.st0{fill:#272775;}
	.st1{fill:#FFFFFF;}
	.st2{clip-path:url(#SVGID_00000026882656940223808700000013326643904956887735_);fill:#CCCCFF;}
</style>
<g id="Layer_1_00000021840791356304830620000003041286381685158316_">
	<path class="st0" d="M-2054.4,721L-2054.4,721L-2054.4,721z"/>
	<path class="st1" d="M1442.2,244.3c-66.3,0-137.9-9.2-205.1-19.5C937.6,179,629.9,67.4,460,47.9C201.5,18.2,20.9,123.8,0.2,136.6
		c-0.4,0.3,0.1,138.5,0.1,138.5l1924.7,0.2l0.2-208c0,0-108.6,95.8-190.4,130.7c-146.8,39.6-155.1,43.8-260.6,46.7"/>
	<g id="Group_512" transform="translate(0 -0.61)">
		<g>
			<g>
				<defs>
					<rect id="SVGID_1_" x="0.7" y="0.6" width="1925.1" height="245.9"/>
				</defs>
				<clipPath id="SVGID_00000147209352317516615750000009083617964300265614_">
					<use xlink:href="#SVGID_1_"  style="overflow:visible;"/>
				</clipPath>
				<path style="clip-path:url(#SVGID_00000147209352317516615750000009083617964300265614_);fill:#CCCCFF;" d="M1924.7,23
					c-46.3,58-102.4,109.1-170.4,148.2c-81.7,47-176,68.6-272.2,73.8c-74.1,1.3-157.4-6.6-235.9-17.9l0,0
					C937.3,173.4,625.8,24,460.8,5.1C196.3-25,1.1,87.7,1.1,87.7L1,138.8c0,0,182.3-120.8,460.5-89.2
					c171.3,19.4,480.2,131.7,780.4,177c77.8,13.3,161.1,21.6,236.2,18.7c-0.9,0-1.8,0.1-2.8,0.1c95.9-1.8,189-16,267.7-50.2
					c80.6-35,130.9-74.5,181.7-121.7l1.1-1V21.6L1924.7,23z"/>
			</g>
		</g>
	</g>
</g>
<g id="Layer_2_00000089539017659190646940000012870026417524339101_">
</g>
</svg>
