<svg enable-background="new 20.9 17.5 739.6 52.8" viewBox="20.9 17.5 739.6 52.8" xmlns="http://www.w3.org/2000/svg"><path d="m177.9 17.5h2.7v2.9c0 2.1-1.1 3.2-3.4 3.2h-2.7v-2.9c.1-2.1 1.2-3.2 3.4-3.2zm-3.3 14.1c0-2.1 1.1-3.2 3.4-3.2h2.7v30.5h-2.7c-2.2 0-3.4-1.1-3.4-3.2z"/><path d="m196 52.7c.8.7 1.7 1 2.9 1v2.8c0 1.4-.6 2.2-1.9 2.5-1 .3-2 .2-3.1-.4-1.6-.8-2.9-1.9-3.8-3.4-1.1-1.7-1.6-3.7-1.6-6.2v-28.3c0-2.1 1.1-3.2 3.4-3.2h2.7v31.6c0 1.6.5 2.8 1.4 3.6z"/><path d="m227.2 31c3 2.5 4.5 5.5 4.5 9.1v18.8h-1.8c-1.5 0-2.6-.8-3.4-2.5-2.5 2.4-5.9 3.4-9.4 3.4-3.9 0-7.3-1.2-10.1-3.5-3-2.5-4.5-5.5-4.5-9.1v-7.1c0-3.6 1.5-6.7 4.5-9.1 2.8-2.3 6.2-3.5 10.1-3.5 3.8 0 7.2 1.2 10.1 3.5zm-10.1 2.5c-2.5 0-4.5.7-6.2 2.2-1.5 1.3-2.3 2.7-2.3 4.4v7.1c0 1.7.8 3.2 2.3 4.4 1.7 1.4 3.8 2.1 6.2 2.1s4.5-.7 6.2-2.1c1.5-1.3 2.3-2.7 2.3-4.4v-7.1c0-1.7-.8-3.2-2.3-4.4-1.7-1.5-3.7-2.2-6.2-2.2z"/><path d="m275.3 31.6c0-2.1 1.1-3.2 3.4-3.2h2.7v18.8c0 3.9-1.1 7-3.2 9.2-2.2 2.3-5.2 3.4-9 3.4s-6.9-1.3-9.2-3.9c-2.3 2.6-5.4 3.9-9.2 3.9s-6.8-1.1-9-3.4c-2.2-2.2-3.2-5.3-3.2-9.2v-15.6c0-2.1 1.1-3.2 3.4-3.2h2.7v18.8c0 2.3.5 4 1.6 5 1 1 2.5 1.6 4.6 1.6 1.9 0 3.4-.5 4.4-1.6 1.1-1.2 1.7-2.8 1.7-4.9v-15.7c0-2.1 1.1-3.2 3.4-3.2h2.7v18.8c0 2.1.6 3.7 1.7 4.9 1.1 1.1 2.6 1.6 4.4 1.6 2.1 0 3.6-.5 4.6-1.6s1.6-2.7 1.6-5z"/><path d="m315.2 28.4-11.9 33.5c-.3.8-.6 1.5-.9 2.3-.2.7-.5 1.3-1 2-.8 1.3-2 2.3-3.4 3-1.1.5-2.2.6-3.1.4-1.2-.3-1.8-1.1-1.8-2.5v-2.8c.7 0 1.4-.2 2-.5.8-.4 1.3-.8 1.5-1.5l1.2-3.1c-1.9-.5-3.1-1.4-3.7-2.9l-8.9-25.1c-.3-.8-.3-1.4 0-1.9s.8-.8 1.7-.8h3.8l8.9 25.2h.1l8.2-22.9c.5-1.5 1.6-2.3 3.2-2.3z"/><path d="m339.9 29c1.5.8 2.8 1.9 3.8 3.2 1.1 1.6 1.7 3.4 1.7 5.3.1 1.6-.3 3.1-1 4.5-.7 1.1-1.5 2.1-2.6 2.9s-2.3 1.4-3.7 1.7c-1.2.4-2.5.5-4 .5h-7.3c-.5 0-.9 0-1.1-.1-.4-.1-.8-.3-1-.5v2.5c0 1.4.7 2.6 2.2 3.4 1.2.7 2.6 1.1 4.1 1.2 1.4.2 2.9.1 4.4-.3 1.1-.2 2-.7 2.9-1.3.2-.2.5-.4.8-.7.9-1.1 2.1-1.3 3.6-.5l2.9 1.4c-.5 1.3-1.3 2.4-2.3 3.4-1.4 1.4-3.1 2.5-5.2 3.1-1.8.7-3.8 1-5.9 1-1.8 0-3.4-.2-4.7-.5-1.7-.4-3.1-1-4.4-1.9-1.5-1-2.6-2.3-3.4-4-.7-1.6-1.1-3.3-1.1-5.2v-9.9c0-1.5.4-3 1-4.4 1-2.2 2.8-3.8 5.1-4.9 2.1-1 4.4-1.5 7.1-1.5 2.7.1 5.6.4 8.1 1.6zm-2.3 11.4c1-.5 1.5-1.4 1.7-2.5.1-1.1-.3-2.1-1.1-2.8-1.2-1-2.9-1.3-4.4-1.5-1.7-.1-3.3.1-4.6.4s-2.3.8-3.1 1.4c-.9.8-1.4 1.7-1.4 2.9v2.9h10c1.1-.1 2.2-.4 2.9-.8z"/><path d="m350.9 39.1c0-3.6 1.1-6.4 3.5-8.3 1.9-1.6 4.2-2.4 6.9-2.4h4v2.7c0 2.2-1 3.4-3.1 3.4h-.8c-1.1 0-2 .4-2.9 1-1 .8-1.4 2-1.4 3.6v19.8h-2.7c-2.2 0-3.4-1.1-3.4-3.2z"/><path d="m404.8 35.1c-1-1-2.5-1.6-4.6-1.6-1.9 0-3.4.5-4.4 1.7-1.1 1.3-1.7 2.9-1.7 4.9v18.8h-2.7c-2.2 0-3.4-1.1-3.4-3.2v-15.6c0-2-.5-3.7-1.7-4.9-1.1-1.1-2.6-1.7-4.4-1.7-2.1 0-3.7.5-4.6 1.6-1 1.1-1.6 2.8-1.6 5v18.8h-2.7c-2.2 0-3.4-1.1-3.4-3.2v-15.6c0-3.8 1.1-6.9 3.2-9.2 2.2-2.3 5.2-3.5 9-3.5 3.2 0 5.8 1 8 2.8.3.2.7.6 1.2 1.1.4-.4.8-.8 1.1-1.1 2.1-1.9 4.8-2.8 8-2.8 3.8 0 6.8 1.1 9 3.5 2.2 2.3 3.2 5.3 3.2 9.2v18.8h-2.7c-2.2 0-3.4-1.1-3.4-3.2v-15.6c.1-2.2-.4-3.9-1.4-5z"/><path d="m442.9 31c3 2.5 4.5 5.5 4.5 9.1v18.8h-1.8c-1.5 0-2.6-.8-3.4-2.5-2.5 2.4-5.9 3.4-9.4 3.4-3.9 0-7.3-1.2-10.1-3.5-3-2.5-4.5-5.5-4.5-9.1v-7.1c0-3.6 1.5-6.7 4.5-9.1 2.8-2.3 6.2-3.5 10.1-3.5s7.3 1.2 10.1 3.5zm-10 2.5c-2.5 0-4.5.7-6.2 2.2-1.5 1.3-2.3 2.7-2.3 4.4v7.1c0 1.7.8 3.2 2.3 4.4 1.7 1.4 3.8 2.1 6.2 2.1s4.5-.7 6.2-2.1c1.5-1.3 2.3-2.7 2.3-4.4v-7.1c0-1.7-.8-3.2-2.3-4.4-1.7-1.5-3.8-2.2-6.2-2.2z"/><path d="m454.3 39.1c0-3.6 1.1-6.4 3.5-8.3 1.9-1.6 4.2-2.4 6.9-2.4h4v2.7c0 2.2-1 3.4-3.1 3.4h-.8c-1.1 0-2 .4-2.9 1-1 .8-1.4 2-1.4 3.6v19.8h-2.7c-2.2 0-3.4-1.1-3.4-3.2v-16.6z"/><path d="m473.5 20.7c0-2.1 1.1-3.2 3.4-3.2h2.7v23.6h2.2c1.2 0 2.3.1 3.1-1.1l5.7-9.4c.9-1.4 2.2-2.2 3.7-2.2h4.7l-7.3 11.9c-.4.7-.8 1.3-1.2 1.7 2 .9 3.5 2.6 4.6 5l5.2 11.9h-3.9c-1.8 0-3-.7-3.5-1.9l-3.3-7.6c-.7-1.5-1.8-2.3-3.4-2.3h-6.5v11.8h-2.7c-2.2 0-3.4-1.1-3.4-3.2z"/><path d="m525.1 29c1.5.8 2.8 1.9 3.8 3.2 1.1 1.6 1.7 3.4 1.7 5.3.1 1.6-.3 3.1-1 4.5-.7 1.1-1.5 2.1-2.6 2.9s-2.3 1.4-3.7 1.7c-1.2.4-2.5.5-4 .5h-7.3c-.5 0-.9 0-1.1-.1-.4-.1-.8-.3-1-.5v2.5c0 1.4.7 2.6 2.2 3.4 1.2.7 2.6 1.1 4.1 1.2 1.4.2 2.9.1 4.4-.3 1.1-.2 2-.7 2.9-1.3.2-.2.5-.4.8-.7.9-1.1 2.1-1.3 3.6-.5l2.9 1.4c-.5 1.3-1.3 2.4-2.3 3.4-1.4 1.4-3.1 2.5-5.2 3.1-1.8.7-3.8 1-5.9 1-1.8 0-3.4-.2-4.7-.5-1.7-.4-3.1-1-4.4-1.9-1.5-1-2.6-2.3-3.4-4-.7-1.6-1.1-3.3-1.1-5.2v-9.9c0-1.5.4-3 1-4.4 1-2.2 2.8-3.8 5.1-4.9 2.1-1 4.4-1.5 7.1-1.5 2.7.1 5.6.4 8.1 1.6zm-2.2 11.4c1-.5 1.5-1.4 1.7-2.5.1-1.1-.3-2.1-1.1-2.8-1.2-1-2.9-1.3-4.4-1.5-1.7-.1-3.3.1-4.6.4s-2.3.8-3.1 1.4c-.9.8-1.4 1.7-1.4 2.9v2.9h10c1.1-.1 2.1-.4 2.9-.8z"/><path d="m549.6 28.4v2.7c0 2.2-1.1 3.4-3.2 3.4h-4v14.6c0 1.6.5 2.8 1.4 3.6.8.7 1.7 1 2.8 1v2.8c0 1.4-.6 2.2-1.8 2.5-1 .3-2 .2-3.1-.4-1.6-.8-2.9-1.9-3.8-3.4-1-1.7-1.6-3.7-1.6-6.2v-28.3c0-2.1 1.1-3.2 3.3-3.2h2.8v10.9z"/><path d="m558 17.5h2.7v2.9c0 2.1-1.1 3.2-3.4 3.2h-2.7v-2.9c.1-2.1 1.2-3.2 3.4-3.2zm-3.3 14.1c0-2.1 1.1-3.2 3.4-3.2h2.7v30.5h-2.8c-2.2 0-3.4-1.1-3.4-3.2v-24.1z"/><path d="m572.4 30.9c2.7-2.3 5.9-3.4 9.6-3.4s7 1.1 9.7 3.4c2.8 2.5 4.3 5.3 4.3 8.7v19.3h-2.7c-2.2 0-3.4-1.1-3.4-3.2v-16.1c0-1.6-.7-2.9-2.1-4.1-1.6-1.3-3.5-2-5.8-2s-4.2.7-5.8 2c-1.4 1.1-2.1 2.5-2.1 4.1v19.3h-2.7c-2.2 0-3.4-1.1-3.4-3.2v-16.1c.1-3.4 1.5-6.3 4.4-8.7z"/><path d="m626.5 31c3 2.5 4.5 5.5 4.5 9.1v18.5c0 1.9-.4 3.5-1.1 5-1.5 3.1-4.5 5-7.6 5.9-1.6.5-3.4.7-5.3.7-1.6 0-3.2-.2-4.7-.5-1.4-.3-2.3-.8-2.8-1.6-.4-.6-.4-1.4-.1-2.5l.5-2.4c1.4.6 3.1 1 5.3 1 2 .1 3.8-.2 5.3-.6 2.9-.8 4.4-2.5 4.4-5.2v-1.2c-2.5 1.6-5.3 2.4-8.5 2.4-3.9 0-7.3-1.2-10.1-3.5-3-2.5-4.5-5.5-4.5-9.1v-7.1c0-3.6 1.5-6.7 4.5-9.1 2.8-2.3 6.2-3.5 10.1-3.5 3.9.2 7.3 1.4 10.1 3.7zm-10 2.5c-2.5 0-4.5.7-6.2 2.2-1.5 1.3-2.3 2.7-2.3 4.4v7.1c0 1.7.8 3.2 2.3 4.4 1.7 1.4 3.8 2.1 6.2 2.1s4.5-.7 6.2-2.1c1.5-1.3 2.3-2.7 2.3-4.4v-7.1c0-1.7-.8-3.2-2.3-4.4-1.7-1.5-3.8-2.2-6.2-2.2z"/><path d="m641.8 52.1h2.7v3.7c0 2.1-1.1 3.2-3.4 3.2h-2.7v-3.7c0-2.1 1.2-3.2 3.4-3.2z"/><path d="m651 39.6c0-3.4 1.4-6.3 4.3-8.7 2.7-2.3 5.9-3.4 9.6-3.4s7 1.1 9.7 3.4c1.6 1.4 2.8 2.9 3.5 4.8l-2.6 1.4c-1.6.8-2.9.5-4-.7-.4-.4-.6-.7-.8-.8-1.6-1.3-3.5-2-5.8-2s-4.2.7-5.8 2c-1.4 1.2-2.1 2.6-2.1 4.1v8.2c0 1.6.7 2.9 2.1 4.1 1.6 1.3 3.5 1.9 5.8 1.9s4.2-.7 5.8-1.9c.2-.2.4-.4.8-.8 1.1-1.3 2.4-1.5 4-.7l2.6 1.4c-.7 1.9-1.9 3.4-3.5 4.8-2.7 2.2-5.9 3.4-9.7 3.4s-7-1.1-9.6-3.4c-2.9-2.3-4.3-5.3-4.3-8.7z"/><path d="m707.2 31c3 2.5 4.5 5.5 4.5 9.1v7.1c0 3.6-1.5 6.6-4.5 9.1-2.8 2.3-6.2 3.5-10.1 3.5s-7.3-1.2-10.1-3.5c-3-2.5-4.5-5.5-4.5-9.1v-7.1c0-3.6 1.5-6.7 4.5-9.1 2.8-2.3 6.2-3.5 10.1-3.5s7.3 1.2 10.1 3.5zm-10 2.5c-2.5 0-4.5.7-6.2 2.2-1.5 1.3-2.3 2.7-2.3 4.4v7.1c0 1.7.8 3.2 2.3 4.4 1.7 1.4 3.8 2.1 6.2 2.1 2.5 0 4.5-.7 6.2-2.1 1.5-1.3 2.3-2.7 2.3-4.4v-7.1c0-1.7-.8-3.2-2.3-4.4-1.7-1.5-3.8-2.2-6.2-2.2z"/><path d="m752.9 35.1c-1-1-2.5-1.6-4.6-1.6-1.9 0-3.4.5-4.4 1.7-1.1 1.3-1.7 2.9-1.7 4.9v18.8h-2.7c-2.2 0-3.4-1.1-3.4-3.2v-15.6c0-2-.5-3.7-1.7-4.9-1.1-1.1-2.6-1.7-4.4-1.7-2.1 0-3.7.5-4.6 1.6-1 1.1-1.6 2.8-1.6 5v18.8h-2.8c-2.2 0-3.4-1.1-3.4-3.2v-15.6c0-3.8 1.1-6.9 3.2-9.2 2.2-2.3 5.2-3.5 9-3.5 3.2 0 5.8 1 8 2.8.3.2.7.6 1.2 1.1.4-.4.8-.8 1.1-1.1 2.1-1.9 4.8-2.8 8-2.8 3.8 0 6.8 1.1 9 3.5 2.2 2.3 3.2 5.3 3.2 9.2v18.8h-2.7c-2.2 0-3.4-1.1-3.4-3.2v-15.6c.3-2.2-.3-3.9-1.3-5z"/><path d="m32.8 39.9c0-2.6-.2-5.2-3.2-5.2-1.8 0-3 .7-3 2.7 0 2.2 1.4 3.1 3.1 4.2 1.8 1.1 5.1 3.3 6.6 4.8 1.9 1.8 2.5 3.6 2.5 6.1 0 5.5-3.7 8.4-9 8.4-6.6 0-8.9-3.7-8.9-8.9v-2.1h5.5v1.7c-.1 2.8.7 4.9 3.4 4.9 2.3 0 3.4-1.2 3.4-3.4 0-1.7-.8-2.9-2.2-3.9-2.8-2.2-6.4-3.8-8.6-6.7-.9-1.3-1.4-2.9-1.4-4.5 0-5 2.8-7.7 8.6-7.7 8.7 0 8.5 6.7 8.5 9.6z"/><path d="m44.9 60.2v-29.2h5.5v29.3h-5.5z"/><path d="m55.3 31h18.2v4.3h-6.4v25h-5.5v-25h-6.4z"/><path d="m78.2 60.2v-29.2h15.4v4.3h-9.9v7.4h9.1v4.3h-9.1v9h9.9v4.3h-15.4z"/><path d="m110.6 60.2v-29.2h8.8c2.3 0 4.6.2 6.2 2.1 1.2 1.6 1.4 3.3 1.4 5.3 0 2.5-.5 5-3.5 6.1v.1c3.1.4 4.3 3 4.3 6.8 0 1.2-.1 2.4-.4 3.6-1.2 3.7-3.3 5.3-7.2 5.3zm6.5-17.4c1.3 0 3 .1 3.9-1 .5-.7.6-1.8.6-3.2 0-2.2-.5-3.3-3-3.4h-2.5v7.5h1zm.1 13.2c1.1 0 2.3.1 3.3-.3 1.5-.7 1.7-2.6 1.7-4.1 0-3.2-.6-4.5-4-4.5h-2.1v8.9z"/><path d="m140.8 38.7c.6 1.4 1.1 2.9 1.3 4.5h.1c.4-2.3 1.1-3.9 1.8-5.5l2.6-6.6h6l-7.7 16.8v12.4h-5.5v-12.5l-7.6-16.8h6z"/></svg>