<?xml version="1.0" encoding="utf-8"?>
<!-- Generator: Adobe Illustrator 26.0.2, SVG Export Plug-In . SVG Version: 6.00 Build 0)  -->
<svg version="1.1" id="Layer_1" xmlns="http://www.w3.org/2000/svg" xmlns:xlink="http://www.w3.org/1999/xlink" x="0px" y="0px"
	 width="1920.6px" height="149.6px" viewBox="0 0 1920.6 149.6" enable-background="new 0 0 1920.6 149.6" xml:space="preserve">
<path fill="#FFFFFF" d="M1693.1,109.5C1327.7,192,712.3,51.9,444.3,35.8C237.7,23.5,60.1,58.8,0.1,80.7l0.1,68.9h1920.2l-0.2-123.1
	C1868.6,55.8,1776.6,90.6,1693.1,109.5z"/>
<path fill="#CCCCFF" d="M1892.4,28.1c-50.3,25.2-113.8,47.7-194.1,64.1h0C1325.6,168.8,711.4,18.9,443.5,2.9
	c-33-2-64.6-2.9-94.6-2.9h-4.8C189.1,0.2,75.9,23,26.7,35c-15.1,3.7-24.2,6.4-26.6,7.1L0,81.1c0,0,9.3-3.2,26.7-8
	c58.9-16,211.1-49.6,417.7-37.2c267.9,16,884.8,156.2,1248.7,73.6c82.8-18.8,148-42.7,199.3-68.4c9.9-5,19.3-10,28.2-15V13
	C1911.7,18.1,1902.3,23.2,1892.4,28.1z"/>
</svg>
