<svg xmlns="http://www.w3.org/2000/svg" width="241.153" height="52.5" viewBox="0 0 241.153 52.5">
  <g id="Group_327" data-name="Group 327" transform="translate(2038.547 13809.587)">
    <g id="Group_2" data-name="Group 2" transform="translate(-2038.547 -13809.587)">
      <path id="Path_2" data-name="Path 2" d="M91.157,95.328c-.9-.507-1.869-1.038-2.741-1.426l-.356-.165-.5-.331c-.248-.188-.507-.39-.8-.583a16.125,16.125,0,0,0-1.613-.643c-.1-.039-.011-.2-.228-.273-.476-.22-.923-.323-1.355-.548-.219-.064-.457-.418-.673-.479-.49-.211-1.8-.524-1.076-.2,1.077.5,1.794.795,2.757,1.252-.882-.358-1.795-.745-2.836-1.247-.674-.289-1.531-.757-2.368-1.08-1.18-.383-2.464-.7-3.84-1.262-5.18-2.181-9.794-3.827-14.75-5.492-.968-.25-1.838-.43-2.644-.675-3.244-.881-7.153-.763-9.839-1.655-1.8-.586-5.147-.7-3.552-.331-1.485-.327-2.506-.437-3.339-.6V90.045A6.579,6.579,0,0,0,47.961,96.6H87.335A6.536,6.536,0,0,0,91.2,95.329l-.046-.029ZM87.335,44.105H47.961A6.579,6.579,0,0,0,41.4,50.667v15.76a6.37,6.37,0,0,0,.892-.637,32.383,32.383,0,0,1,3.165-2.438l.378-.256.185-.13.031,0-.024,0,.045-.034c.125.052.149-.017.176-.1l.029-.052.244-.173,0,.028.02-.045.1-.079.12.017-.007-.1a7.584,7.584,0,0,0,.7-.613,1.318,1.318,0,0,1,.37.047l-.036.065.017.017a3.983,3.983,0,0,0-.188.711l-.012.1-.106.079-.241.063c-.123.019.034.317-.037.459l-.173-.064c-.031.128-.022.267-.1.336l-.248.007c-.033.128,0,.557.122.427.16-.2.234-.364.365-.55a1.3,1.3,0,0,1-.337.6c-.116.106-.364.169-.473.325a2.054,2.054,0,0,1-.359.84c-.933.767-1.4,1.76-2.481,2.318a2.59,2.59,0,0,1-.468.379c-.664.309-.766,1.25-1.672,1.217V77.91c1.807.217,4.514.4,6.085.655,4.715.81,9.113,1.046,13.693,2.541,2.281.781,4.582,1.626,6.941,2.6,4.358,1.789,8.191,3.4,12.356,5.21.639.3,1.277.575,1.889.879l.932.492.078.06-.036-.036.223.117a2.1,2.1,0,0,0,.769.43l.262.12c.407.211.808.465,1.206.7l-.087-.039.189.1.53.312.256.215a.537.537,0,0,0,.309.116c1.194.744,2.422,1.483,3.694,2.34,0,0,.343.308.581.553A6.55,6.55,0,0,0,93.9,90.045V50.667A6.579,6.579,0,0,0,87.335,44.105ZM63.42,66.942l.178.119.06.02.049.057-.11-.077-.083.067-.1-.187-.258-.215A.8.8,0,0,1,63.42,66.942ZM47.731,61.224l.032-.075,0-.031.017-.014-.014.046v0l.075.071Zm.262-.282.008.1-.119-.012Zm.612.486-.176.592c-.131.188-.211.347-.368.549-.107.129-.152-.3-.119-.429h.247c.081-.073.066-.218.094-.341l.178.067c.07-.144-.089-.444.039-.461l.24-.066Zm.437-.978-.017-.008a.407.407,0,0,1-.4.159l.094.106-.126-.051c.022-.128.055-.25.271-.206l-.012-.1.17.1.036-.067.01,0Zm11.094,4.872-.25-.249-.345-.469c-.159-.231-.637-.238-1-.491-.072-.026.124-.183-.017-.236a4.721,4.721,0,0,1-.79-.471c-.143-.054-.1-.382-.243-.438-.285-.166-1.128-.483-.762-.175.557.46.959.728,1.466,1.133A10.671,10.671,0,0,1,56.657,62.8a15.571,15.571,0,0,0-1.111-1.115c-.461-.3-.97-.572-1.461-.92a23.478,23.478,0,0,1-.067,2.8C54,65.3,53.424,66.99,53.441,68.73c.011.847-.046,1.689-.06,2.532-.007.566-.213,1.43.123,1.927l.16-.218c-.456,1.6.036,2.241-.875,3.047a1,1,0,0,1-1.631-.6,20.316,20.316,0,0,1-.008-4c.591-2.723.182-5.184.429-7.881.12-1.349.2-2.73.244-4.164,0-.177.022-.354.029-.531,0-.238-.029-.474-.031-.708-.051-1.8-.237-3.505-.2-5.334,1.258-.022,1.914-.094,1.966,1.239.041.958-.66,2.026-.475,2.969s1.471,1.773,2.181,2.451c.543.525,1.087,1.051,1.617,1.594l.033.032.874.874.442.444.02.049,0-.032.107.1c0,.163.173.274.347.385l.14.1.59.583-.06-.03-.037-.025-.138-.088.091.178.081-.065.108.075.264.25.077.193.2.079c.6.567,1.221,1.147,1.9,1.748a2.56,2.56,0,0,1,.25.6l-.173-.128L62,66.411c-.531-.337-1.116-.692-1.641-.974Zm3.656,2.937-1.384-.845c-.509-.4-.909-.671-1.47-1.129-.366-.308.479.01.762.176.143.052.1.383.244.436a4.591,4.591,0,0,0,.788.474c.14.051-.049.206.017.235.365.254.843.259,1,.491l.352.467Zm.254-.683-.082-.194.282.268ZM77.423,61.1a7.176,7.176,0,0,0-.211.923l-.013.134-.117.1-.274.083c-.137.028.036.418-.042.6l-.2-.087c-.034.164-.016.345-.106.443l-.286.006c-.036.163.012.716.143.55.181-.261.265-.469.417-.711a1.813,1.813,0,0,1-.385.77c-.134.138-.414.213-.539.424a2.835,2.835,0,0,1-.406,1.085,27.767,27.767,0,0,1-5.964,5.353,2.93,2.93,0,0,1-3.652-.574c-.209-.273-.567-.426-.73-.736-.278-.526.73-.254.994-.237a3.188,3.188,0,0,0,.982-.131,5.464,5.464,0,0,0,1.873-.685c.344-.232.571-.56.888-.821.351-.293.744-.508,1.111-.774a18.148,18.148,0,0,0,1.863-1.673,14.833,14.833,0,0,0,1.341-1.485,3.474,3.474,0,0,1,1.313-1.213l.029-.054c.143.067.169-.02.2-.116l.033-.07.276-.234,0,.043-.033.1h.122l-.089-.094.022-.061.123-.1.131.018-.01-.131a8.681,8.681,0,0,0,.786-.788,1.356,1.356,0,0,1,.431.058l-.043.082Zm-.078-.929.028-.093v-.036l.026-.022-.026.058.094.1Zm.3-.366.007.134-.135-.023Zm.7.634-.2.763c-.153.246-.236.455-.412.716-.131.165-.179-.39-.148-.551l.285,0c.089-.1.072-.283.108-.447l.2.093c.076-.19-.1-.578.042-.6l.271-.085Zm.5-1.266-.023-.018a.418.418,0,0,1-.444.208l.106.137-.148-.064c.03-.163.061-.33.312-.264l-.016-.137.19.119.042-.084.01.006Zm14.789,7.681-.006.026c-.609-.436-1.271-.89-1.877-1.257l-.249-.153-.289-.323-.4-.6c-.177-.3-.722-.313-1.135-.637-.079-.034.137-.241-.022-.312a4.83,4.83,0,0,1-.9-.609c-.161-.071-.114-.5-.273-.567-.329-.212-1.294-.628-.875-.219.639.592,1.093.943,1.678,1.458a11.529,11.529,0,0,1-1.754-1.458c-.384-.389-.774-1-1.272-1.441-.528-.383-1.1-.736-1.672-1.188a32.916,32.916,0,0,1-.064,3.625c0,.754.063,1.423,0,2.054a18.717,18.717,0,0,0,.1,3.189c.075.952.343,9.752.069,10.669a7.675,7.675,0,0,0-.148,1.417c-.049.466-.176.912-.26,1.378a9.153,9.153,0,0,0-.124,1.05c-.053.782-.13,1.56-.188,2.345a2.525,2.525,0,0,1-.7,1.694c-.067.078-1.329.984-1.86-.769a30.166,30.166,0,0,1-.026-5.185c.289-1.713.272-11.083.272-12.832,0-.864-.017-1.731-.006-2.6a12.3,12.3,0,0,1,.228-2.386c.053-.282-.1-.864.119-1.053l.054.244c-.008-.25-.17-.864.123-.925l.02-.141c.033.048.061.088.084.13-.113-.519,0-1.13-.065-1.656l-.061-.008a1.4,1.4,0,0,1,.046-.651l.01.194a2.12,2.12,0,0,1,.178-1.079,1.086,1.086,0,0,0-.054-.728c-.057.123-.141.142-.19.194,1.2-1.36-2.861-8.744.827-8.345,2.1.226.736,3.567.9,4.886.28,2.311,2.524,4.06,3.968,5.7l1,1.138.5.572.026.064,0-.042.123.137c0,.207.2.353.391.5l.164.135.674.75-.075-.036.128.1.3.323.09.248.225.1c.689.743,1.39,1.491,2.167,2.264a3.846,3.846,0,0,1,.289.785Zm-11.349-5.37a1.212,1.212,0,0,0,.048.178A.384.384,0,0,0,82.274,61.488Z" transform="translate(-41.397 -44.105)" fill="#e69641"/>
    </g>
    <g id="Group_3" data-name="Group 3" transform="translate(-1978.255 -13807.627)">
      <path id="Path_3" data-name="Path 3" d="M95.441,76.767a7.746,7.746,0,0,0,4.769,1.194c2.958,0,5.483-1.814,5.483-5.631,0-3.386-2.29-5.149-6.486-7.726-3.575-2.192-6.534-4.674-6.534-8.681,0-4.769,3.864-7.773,8.825-7.773a49.313,49.313,0,0,1,6.486.715c-.285,1.524-.62,3.768-.811,6.007-.094.146-.716.146-.81.048-.19-3.29-.717-4.34-1.861-5.007a6.964,6.964,0,0,0-3.672-.814,5.183,5.183,0,0,0-5.438,5.345c-.047,2.766,1.384,4.436,3.244,5.819,1.812,1.288,4.053,2.433,5.438,3.341,2.051,1.381,4.625,3.338,4.625,7.008,0,4.626-3.721,8.493-9.872,8.493a13.723,13.723,0,0,1-6.3-1.432c-.478-.667-.955-5.057-1.05-6.438a.786.786,0,0,1,.764-.19c.762,2.91,1.717,4.768,3.195,5.722" transform="translate(-91.482 -45.239)" fill="#5a5061"/>
      <path id="Path_4" data-name="Path 4" d="M115.945,76.912a7.1,7.1,0,0,1-6.246-3.148,10.572,10.572,0,0,1-1.814-6.1,9.32,9.32,0,0,1,4.629-8.3,13.676,13.676,0,0,1,5.724-1.86,7.723,7.723,0,0,1,3.433.62c.383.19,1.193.669,1.335,1.145a2.5,2.5,0,0,1-.1.524,3.748,3.748,0,0,1-1.24,1.335.649.649,0,0,1-.429,0,6.911,6.911,0,0,0-4.962-2.1c-3.767,0-5.628,3.576-5.628,6.821,0,2.624.62,4.866,1.814,6.2a6.515,6.515,0,0,0,5.436,2.532,7.565,7.565,0,0,0,5.246-2.339l.143.144a2.663,2.663,0,0,1-.143.857,9.74,9.74,0,0,1-7.2,3.673" transform="translate(-88.139 -43.334)" fill="#5a5061"/>
      <path id="Path_5" data-name="Path 5" d="M120.6,47.258a17.308,17.308,0,0,0,5.914-1.525l.19.378c-.285.527-.335,1.052-.429,4.057-.1,3.387,0,11.162,0,12.735l.191.048c2.718-2.146,4.866-3.054,6.677-3.054,3.434,0,5.438,2.769,5.438,7.395,0,2.48,0,7.154.049,9.254a1.157,1.157,0,0,0,.331.857,5.07,5.07,0,0,0,2.579.762c.048.1,0,.669-.144.717-.524,0-2.48-.144-4.34-.144-2.006,0-3.531.1-4.057.144v-.717a8.949,8.949,0,0,0,2.051-.427c.526-.287.763-.429.811-2.718a63.771,63.771,0,0,0-.24-9.493A4.288,4.288,0,0,0,131,61.947a6.027,6.027,0,0,0-4.052,1.575,2.008,2.008,0,0,0-.669,1.241c0,3.195,0,9.73.094,10.969.1,1.528.43,1.909,1.337,2.149a11.389,11.389,0,0,0,1.67.284v.669c-.431,0-2-.1-4.674-.1-1.909,0-3.055.144-3.817.144-.047-.1-.1-.62.048-.717a8.93,8.93,0,0,0,1.623-.284c.809-.24,1-.813,1.049-2.195.048-.953.1-7.25.1-7.965,0-13.118-.047-16.647-.238-18.412-.1-.714-.287-1.1-1-1.24-.476-.1-1.048-.1-1.859-.19v-.62" transform="translate(-85.547 -45.732)" fill="#5a5061"/>
      <path id="Path_6" data-name="Path 6" d="M143.73,59.6c-1.2.767-2.627,2.577-2.627,6.345,0,5.341,2.91,9.54,7.2,9.54a4.765,4.765,0,0,0,3.29-1.194c1.525-1.525,1.907-3.384,1.907-6.057,0-5.341-2.574-9.4-7.152-9.4a5.1,5.1,0,0,0-2.622.762M156.415,66.7a9.952,9.952,0,0,1-4.34,8.49,9.683,9.683,0,0,1-5.057,1.72c-6.675,0-8.824-5.344-8.824-9.877a8.761,8.761,0,0,1,4.009-7.677,10.819,10.819,0,0,1,5.866-1.862c5.389,0,8.346,4.1,8.346,9.205" transform="translate(-81.962 -43.334)" fill="#5a5061"/>
      <path id="Path_7" data-name="Path 7" d="M158.179,64.607c0,.143.1.286.146.286a75.686,75.686,0,0,0,8.87-.335.5.5,0,0,0,.286-.383c-.286-2.287-1.766-5.438-4.772-5.438-2.287,0-4.242,2.006-4.53,5.868m12.4,8.014a2.029,2.029,0,0,1-.091.808,10.384,10.384,0,0,1-7.157,3.484,6.957,6.957,0,0,1-5.437-2.29,10.935,10.935,0,0,1-2.386-7.2c0-3.909,1.478-6.773,4.006-8.393a11.18,11.18,0,0,1,4.724-1.526c4.34,0,5.724,4.293,6.06,6.485.046.144.141.288.618.335a.889.889,0,0,1-.19.622c-2.052.666-8.537,1-12.4,1.1-.194,0-.289.288-.289.527a9.275,9.275,0,0,0,1.766,5.483,6.481,6.481,0,0,0,5.391,2.529,7.056,7.056,0,0,0,5.246-2.051l.141.1" transform="translate(-78.434 -43.334)" fill="#5a5061"/>
      <path id="Path_8" data-name="Path 8" d="M170.641,75.386c.714-.285.86-1.1.9-1.861.144-1.765.1-4.818.1-8.014a40.123,40.123,0,0,0-.143-4.292c-.1-.668-.431-.81-2.288-1.336-.049-.1,0-.571.142-.62a15.627,15.627,0,0,0,4.96-1.765l.141.191c-.093,1-.141,2-.189,2.812,0,.146.1.289.189.193,3.1-2.433,5.3-3.2,6.723-3.2a4.738,4.738,0,0,1,4.154,2.385,10.105,10.105,0,0,1,1.145,5.486c0,2.576.048,6.63.048,8.73,0,.713.142,1.047.714,1.239a8.917,8.917,0,0,0,2.051.429.789.789,0,0,1-.094.717c-.671,0-1.812-.144-4.009-.144s-3.625.1-4.434.144v-.717a12.473,12.473,0,0,0,2-.332,1.363,1.363,0,0,0,1-1.383c.1-2.194.1-8.4-.1-9.97a5.623,5.623,0,0,0-1.336-3.242,4,4,0,0,0-3.194-1.242,6,6,0,0,0-4.343,1.862c-.382.382-.525.81-.525,2.051,0,3.765,0,7.726.1,9.823.047,1.336.238,1.719.762,1.957a10.489,10.489,0,0,0,2.194.432,1.406,1.406,0,0,1-.047.761c-.525,0-1.718-.144-4.292-.144-2.624,0-3.437.144-4.1.144-.144-.1-.1-.62,0-.717a7.86,7.86,0,0,0,1.765-.38" transform="translate(-75.728 -43.334)" fill="#5a5061"/>
      <path id="Path_9" data-name="Path 9" d="M190.99,63.331a.743.743,0,0,0-.383.573c-.094.811-.094,6.153,0,8.631.049,3.244.481,3.437.908,3.818a6.04,6.04,0,0,0,3.863,1.239,5.2,5.2,0,0,0,4.247-1.667,9.125,9.125,0,0,0,1.907-6.06,8.938,8.938,0,0,0-1.573-5.483A5.6,5.6,0,0,0,195.141,62a8.191,8.191,0,0,0-4.151,1.336m11.494-.952a9.171,9.171,0,0,1,1.862,5.673,10.376,10.376,0,0,1-4.388,8.923,12.636,12.636,0,0,1-6.346,2.338,14.155,14.155,0,0,1-3.865-.717,2.483,2.483,0,0,0-1.762,0l-.236-.24c.1-1.239.188-4.293.188-11.064,0-5.3-.047-15.646-.237-17.649-.1-1.1-.146-1.241-.572-1.479a6.95,6.95,0,0,0-2.528-.429c-.1-.1-.048-.572.1-.62a24.1,24.1,0,0,0,6.154-1.383l.142.287c-.333.477-.477,1.765-.477,9.156,0,3.532,0,6.63.094,7.253l.241.1c2.527-1.623,5.246-2.625,6.44-2.625a6.436,6.436,0,0,1,5.2,2.482" transform="translate(-72.516 -45.732)" fill="#5a5061"/>
      <path id="Path_10" data-name="Path 10" d="M205.844,64.607c0,.143.1.286.143.286a75.666,75.666,0,0,0,8.868-.335.494.494,0,0,0,.287-.383c-.287-2.287-1.762-5.438-4.766-5.438-2.292,0-4.247,2.006-4.532,5.868m12.4,8.014a2.024,2.024,0,0,1-.094.808,10.384,10.384,0,0,1-7.157,3.484,6.957,6.957,0,0,1-5.438-2.29,10.933,10.933,0,0,1-2.383-7.2c0-3.909,1.477-6.773,4.005-8.393A11.171,11.171,0,0,1,211.9,57.5c4.342,0,5.726,4.293,6.06,6.485.048.144.144.288.624.335a.89.89,0,0,1-.194.622c-2.051.666-8.537,1-12.4,1.1-.191,0-.289.288-.289.527a9.316,9.316,0,0,0,1.765,5.483,6.485,6.485,0,0,0,5.392,2.529,7.06,7.06,0,0,0,5.247-2.051l.142.1" transform="translate(-68.72 -43.334)" fill="#5a5061"/>
      <path id="Path_11" data-name="Path 11" d="M229.156,58.406a1.469,1.469,0,0,1,0,.667,6.749,6.749,0,0,1-1.288,2.146l-.332.144a3.854,3.854,0,0,0-2.527-1.1c-1.1,0-1.956,1.1-2.671,2.382a5.785,5.785,0,0,0-.474,2.244c0,2.814.043,7.868.137,8.921.047.855.289,1.333.909,1.524a9.913,9.913,0,0,0,2.575.429.76.76,0,0,1-.1.716c-.476,0-2.814-.144-4.39-.144-1.241,0-3.67.1-4.436.144v-.716a9.2,9.2,0,0,0,1.764-.382c.432-.143.721-.382.813-1.145.144-.763.193-5.1.193-8.776a39.634,39.634,0,0,0-.1-4.006c-.046-.431-.237-1.288-2.429-1.767l.141-.571a14.88,14.88,0,0,0,4.771-1.622l.189.143c-.043.905-.043,3-.043,3.958l.184.048a15.412,15.412,0,0,1,2.911-3.2A3.849,3.849,0,0,1,227.3,57.5a2.155,2.155,0,0,1,1.86.906" transform="translate(-65.991 -43.334)" fill="#5a5061"/>
      <path id="Path_12" data-name="Path 12" d="M229.942,64.271c0,3.006,1.72,6.633,5.3,6.633A3.437,3.437,0,0,0,237.67,70c.955-.953,1.386-2.432,1.386-4.53,0-2.816-1.289-6.629-5.393-6.629-2.526,0-3.721,2.528-3.721,5.435m12.214,18.556a3.822,3.822,0,0,0-2.624-3.817,20.452,20.452,0,0,0-5.486-.763,3.275,3.275,0,0,0-1.764.479c-2.05,1.383-3.1,2.718-3.1,4.293a4.6,4.6,0,0,0,1.814,3.673,7.25,7.25,0,0,0,4.816,1.478c4.771,0,6.345-2.579,6.345-5.342m-3.29-24.566a9.128,9.128,0,0,0,2.81.478c1.861,0,2.243-.287,2.817-.862l.333.194a4.609,4.609,0,0,1-1.193,2.29,2.247,2.247,0,0,1-1.477.333c-.285,0-.38,0-1.194-.047l-.1.24a8.408,8.408,0,0,1,.667,3.338c0,3.243-1.239,4.911-2.718,6.057a9.546,9.546,0,0,1-5.056,2.1l-.476.094c-.573.1-1.622.574-1.622,1.479,0,1,1.146,1.431,1.762,1.526,1.623.241,6.2.429,7.73.953a4.505,4.505,0,0,1,3.338,4.579c0,3.2-2.242,6.055-5.392,7.776a10.258,10.258,0,0,1-5.15,1.334A8.109,8.109,0,0,1,228.8,88.5a5.751,5.751,0,0,1-2.291-4.58,4.443,4.443,0,0,1,.332-1.619,37.546,37.546,0,0,1,4.864-4.2l-.046-.141c-1.955-.478-3.149-2.051-3.149-3a2.543,2.543,0,0,1,.1-.527,31.365,31.365,0,0,0,3-1.906l-.046-.287c-2.1-.813-4.2-2.908-4.2-6.964a7.2,7.2,0,0,1,2.528-5.582A10.676,10.676,0,0,1,235.43,57.5a9.724,9.724,0,0,1,3.436.762" transform="translate(-63.964 -43.334)" fill="#5a5061"/>
    </g>
    <g id="Group_4" data-name="Group 4" transform="translate(-1974.652 -13765.59)">
      <path id="Path_13" data-name="Path 13" d="M94.475,80.818h5.719v1.376H96.706v.862h3.212v1.376H96.706v2.034H94.475Z" transform="translate(-94.475 -80.619)" fill="#9a9a9a"/>
      <path id="Path_14" data-name="Path 14" d="M102.065,80.818H104.8l2.405,5.648h-2.373l-.238-.649h-2.326l-.237.649H99.66Zm1.376,1.708h-.014l-.665,1.914h1.345Z" transform="translate(-93.418 -80.619)" fill="#9a9a9a"/>
      <path id="Path_15" data-name="Path 15" d="M107.034,80.818h3.141L111.1,84.1h.016l.926-3.284h3.141v5.648h-2.026V82.431h-.016l-1.187,4.035H110.26l-1.186-4.035h-.016v4.035h-2.025Z" transform="translate(-91.916 -80.619)" fill="#9a9a9a"/>
      <path id="Path_16" data-name="Path 16" d="M115.6,80.818h2.231v5.648H115.6Z" transform="translate(-90.171 -80.619)" fill="#9a9a9a"/>
      <path id="Path_17" data-name="Path 17" d="M119.244,80.818h2.231v4.129h3.456v1.519h-5.687Z" transform="translate(-89.427 -80.619)" fill="#9a9a9a"/>
      <path id="Path_18" data-name="Path 18" d="M126.516,84.876l-2.507-4.058h2.546l1.079,2.215,1.076-2.215h2.545l-2.509,4.058v1.59h-2.229Z" transform="translate(-88.456 -80.619)" fill="#9a9a9a"/>
      <path id="Path_19" data-name="Path 19" d="M134.623,80.818h2.229v4.129h3.458v1.519h-5.688Z" transform="translate(-86.293 -80.619)" fill="#9a9a9a"/>
      <path id="Path_20" data-name="Path 20" d="M142.456,80.818h2.736l2.4,5.648h-2.371l-.24-.649h-2.323l-.238.649H140.05Zm1.375,1.708h-.016l-.663,1.914H144.5Z" transform="translate(-85.187 -80.619)" fill="#9a9a9a"/>
      <path id="Path_21" data-name="Path 21" d="M146.721,80.818h2.161l.727,3.449h.014l.832-3.449h1.779l.825,3.449h.014l.728-3.449h2.16l-1.653,5.648h-2.192l-.767-3.133h-.016l-.776,3.133h-2.191Z" transform="translate(-83.828 -80.619)" fill="#9a9a9a"/>
      <path id="Path_22" data-name="Path 22" d="M163.331,83.28h3.17V86.5h-.957l-.25-.514a3.578,3.578,0,0,1-2.589.711c-1.565,0-3.7-.388-3.7-3,0-2.476,1.98-3.047,3.688-3.047,2.485,0,3.663.681,3.839,2.137h-2.518a.807.807,0,0,0-.435-.578,1.727,1.727,0,0,0-.758-.135c-.912,0-1.489.451-1.489,1.6a1.45,1.45,0,0,0,1.662,1.6,1.159,1.159,0,0,0,1.25-.713h-.916Z" transform="translate(-81.324 -80.653)" fill="#9a9a9a"/>
      <path id="Path_23" data-name="Path 23" d="M166.948,80.818h4.7a3,3,0,0,1,1.335.2,1.543,1.543,0,0,1,.768,1.369,1.246,1.246,0,0,1-.87,1.29V83.7a.9.9,0,0,1,.639.87l.1,1.234a1.265,1.265,0,0,0,.279.665h-2.438a3.658,3.658,0,0,1-.119-1.068c-.024-.42-.166-.673-.578-.673h-1.582v1.741h-2.231Zm2.231,2.485h1.582c.437,0,.618-.176.618-.532,0-.426-.276-.53-.648-.53h-1.552Z" transform="translate(-79.706 -80.619)" fill="#9a9a9a"/>
      <path id="Path_24" data-name="Path 24" d="M177.749,80.653c1.353,0,3.859.1,3.859,3.023S179.1,86.7,177.749,86.7s-3.862-.094-3.862-3.022S176.395,80.653,177.749,80.653Zm0,4.62c.909,0,1.485-.45,1.485-1.6s-.577-1.6-1.485-1.6-1.487.451-1.487,1.6S176.837,85.273,177.749,85.273Z" transform="translate(-78.291 -80.653)" fill="#9a9a9a"/>
      <path id="Path_25" data-name="Path 25" d="M181.728,80.818h2.228v3.416c0,.729.42.957,1.148.957s1.147-.228,1.147-.957V80.818h2.232v3.5c0,1.8-1.083,2.341-3.379,2.341s-3.377-.545-3.377-2.341Z" transform="translate(-76.693 -80.619)" fill="#9a9a9a"/>
      <path id="Path_26" data-name="Path 26" d="M189.015,80.818h4.6c1.581,0,2.168.711,2.168,1.969,0,1.085-.569,1.922-2.152,1.922h-2.391v1.756h-2.229Zm2.229,2.515h1.442c.559,0,.774-.172.774-.585s-.215-.6-.774-.6h-1.442Z" transform="translate(-75.208 -80.619)" fill="#9a9a9a"/>
      <path id="Path_27" data-name="Path 27" d="M195.265,84.038h2.072v1.345a2.042,2.042,0,0,1-2.072,2.04v-.71a.916.916,0,0,0,.934-.9h-.934Z" transform="translate(-73.935 -79.963)" fill="#9a9a9a"/>
      <path id="Path_28" data-name="Path 28" d="M202.336,80.818h4.6c1.582,0,2.167.711,2.167,1.969,0,1.085-.569,1.922-2.151,1.922h-2.388v1.756h-2.232Zm2.232,2.515h1.44c.561,0,.773-.172.773-.585s-.212-.6-.773-.6h-1.44Z" transform="translate(-72.494 -80.619)" fill="#9a9a9a"/>
      <path id="Path_29" data-name="Path 29" d="M208.586,84.038h2.073V85.81h-2.073Z" transform="translate(-71.22 -79.963)" fill="#9a9a9a"/>
      <path id="Path_30" data-name="Path 30" d="M219.431,84.3a2.664,2.664,0,0,1-.95,1.756,4.556,4.556,0,0,1-2.762.64c-1.354,0-3.863-.094-3.863-3.022s2.509-3.023,3.863-3.023,3.416.175,3.711,2.414h-2.517a1.109,1.109,0,0,0-1.194-.99c-.909,0-1.488.451-1.488,1.6s.563,1.6,1.377,1.6a1.19,1.19,0,0,0,1.3-.973Z" transform="translate(-70.553 -80.653)" fill="#9a9a9a"/>
      <path id="Path_31" data-name="Path 31" d="M219.7,84.038h2.072V85.81H219.7Z" transform="translate(-68.955 -79.963)" fill="#9a9a9a"/>
    </g>
  </g>
</svg>
