<svg xmlns="http://www.w3.org/2000/svg" width="78.096" height="68.488" viewBox="0 0 78.096 68.488">
  <g id="Group_16" data-name="Group 16" transform="translate(-582.308 -200.742)">
    <path id="Path_52" data-name="Path 52" d="M588.492,221.153a8.007,8.007,0,1,0,8.008-8.006A8.017,8.017,0,0,0,588.492,221.153Zm14.374,0a6.367,6.367,0,1,1-6.366-6.367A6.374,6.374,0,0,1,602.866,221.153Z" transform="translate(4.822 9.674)" fill="#fff"/>
    <path id="Path_53" data-name="Path 53" d="M605.895,228.1a5.007,5.007,0,1,0-5.007-5.007A5.01,5.01,0,0,0,605.895,228.1Zm0-8.374a3.368,3.368,0,1,1-3.367,3.367A3.371,3.371,0,0,1,605.895,219.721Z" transform="translate(14.489 13.522)" fill="#fff"/>
    <path id="Path_54" data-name="Path 54" d="M618.058,213.147a8.007,8.007,0,1,0,8.006,8.006A8.016,8.016,0,0,0,618.058,213.147Zm0,14.374a6.367,6.367,0,1,1,6.368-6.368A6.376,6.376,0,0,1,618.058,227.521Z" transform="translate(21.635 9.674)" fill="#fff"/>
    <path id="Path_55" data-name="Path 55" d="M659.583,249.574H656.4l.037-18.126a7.869,7.869,0,0,0-7.9-7.6h-17.7a7.89,7.89,0,0,0-5,1.823l-.123.1h-9.944l-.128-.117a6.652,6.652,0,0,0-4.508-1.8H591.5a6.684,6.684,0,0,0-6.676,6.676v19.053h-1.693a.82.82,0,1,0,0,1.639h76.455a.82.82,0,1,0,0-1.639Zm-45.308,0h-3.312v-4.288a.82.82,0,0,0-1.639,0v4.288H593.062V235.321a.82.82,0,1,0-1.639,0v14.253H586.46V230.521a5.044,5.044,0,0,1,5.037-5.037h19.648a4.892,4.892,0,0,1,1.128.137l1.036.242-.9.566A4.213,4.213,0,0,0,610.429,230v11.2a2.745,2.745,0,0,0,2.743,2.743,2.879,2.879,0,0,0,.566-.059l.537-.116Zm11.4-17.6a.82.82,0,0,0-.819.817v16.78H621.2v-3.85a.82.82,0,0,0-1.639,0v3.85h-3.651v-16.78a.82.82,0,0,0-1.639,0V241.2a1.1,1.1,0,1,1-2.207,0V230a2.594,2.594,0,0,1,2.593-2.591h11.446A2.6,2.6,0,0,1,628.7,230v11.2a1.1,1.1,0,0,1-2.209,0v-8.408A.818.818,0,0,0,625.672,231.977Zm29.088,17.6h-5.169V234.31a.8.8,0,0,0-.821-.792.843.843,0,0,0-.819.844v15.212H631.727v-4.288a.82.82,0,1,0-1.639.018v4.27h-3.6v-5.8l.538.116a2.772,2.772,0,0,0,3.31-2.684V230a4.191,4.191,0,0,0-1.7-3.366l-.664-.5.783-.276a6.2,6.2,0,0,1,2.088-.374h17.7a6.22,6.22,0,0,1,6.258,5.991Z" transform="translate(0 18.017)" fill="#fff"/>
    <path id="Path_56" data-name="Path 56" d="M595.5,217.759a.838.838,0,0,0,.84.034.821.821,0,0,0,.425-.721v-2.825h16a.82.82,0,0,0,0-1.639H595.946a.818.818,0,0,0-.817.819v2.134l-9.565-6.244,9.565-6.244v2.134a.818.818,0,0,0,.817.819h16.819a.82.82,0,0,0,0-1.639h-16v-2.825a.82.82,0,0,0-.431-.723.792.792,0,0,0-.386-.1.83.83,0,0,0-.45.133l-11.884,7.753a.819.819,0,0,0,0,1.372Z" transform="translate(0.729 0.002)" fill="#fff"/>
    <path id="Path_57" data-name="Path 57" d="M625.885,212.61H609.069a.82.82,0,0,0,0,1.639h16v2.825a.821.821,0,0,0,.429.723.853.853,0,0,0,.838-.036l11.886-7.755a.819.819,0,0,0,0-1.372l-11.886-7.757a.811.811,0,0,0-.838-.036.825.825,0,0,0-.429.723v2.825h-16a.82.82,0,0,0,0,1.639h16.816a.82.82,0,0,0,.821-.819v-2.134l9.565,6.244-9.565,6.244v-2.134A.82.82,0,0,0,625.885,212.61Z" transform="translate(20.231 0)" fill="#fff"/>
  </g>
</svg>
