<svg xmlns="http://www.w3.org/2000/svg" width="72.259" height="69.766" viewBox="0 0 72.259 69.766">
  <path id="Path_51" data-name="Path 51" d="M583.16,164.087l-4.98-.847a2.482,2.482,0,0,1-2-1.689l-.662-2.06.2-.177a5.949,5.949,0,0,0,2.073-4.48v-2.967a5.967,5.967,0,1,0-11.934,0v2.967a5.956,5.956,0,0,0,2.071,4.48l.2.177-.66,2.06a2.483,2.483,0,0,1-2.042,1.7l-4.935.841a5.088,5.088,0,0,0-4.247,5.027v9.179a6.841,6.841,0,0,0,4.45,6.377l.326.121-2.4,12.373a.753.753,0,0,0,.741.9h4.291v12.973H551.063l2.987-5.148a.753.753,0,0,0,0-.757l-4.016-6.884,4.011-6.658a.748.748,0,0,0,0-.775l-4.011-6.713,4.015-6.8a.751.751,0,0,0-.013-.787l-3.987-6.3,3.987-6.326a.751.751,0,0,0,.008-.795l-3.995-6.61,3.98-6.115a.754.754,0,0,0,0-.829l-4.241-6.426a.753.753,0,1,0-1.257.831l3.965,6.015-3.969,6.1a.756.756,0,0,0-.015.8l4,6.618-3.992,6.335a.761.761,0,0,0,0,.806l3.993,6.308-4.006,6.785a.761.761,0,0,0,0,.772l4.006,6.712-4,6.651a.741.741,0,0,0,0,.767l4.018,6.892-3.2,5.525h-9.081V185.059l.344-.056a6.784,6.784,0,0,0,5.714-6.723V169.1a5.091,5.091,0,0,0-4.247-5.03l-4.978-.844a2.484,2.484,0,0,1-2-1.691l-.662-2.06.2-.177a5.952,5.952,0,0,0,2.073-4.48v-2.967a5.967,5.967,0,0,0-11.934,0v2.967a5.955,5.955,0,0,0,2.071,4.48l.2.177-.66,2.06a2.484,2.484,0,0,1-2.042,1.7l-4.937.839a5.091,5.091,0,0,0-4.246,5.03v9.178A6.783,6.783,0,0,0,520.86,185l.344.056v25.976H518.23a.755.755,0,0,0,0,1.509h65.813a.755.755,0,1,0,0-1.509H580V198.063h4.29a.756.756,0,0,0,.741-.9l-2.4-12.371.326-.121a6.832,6.832,0,0,0,4.449-6.381v-9.179A5.087,5.087,0,0,0,583.16,164.087Zm-56.894-9.266v-2.967a4.458,4.458,0,1,1,8.915,0v2.967a4.432,4.432,0,0,1-2.124,3.782,4.364,4.364,0,0,1-1.006.454l-.154.046a4.511,4.511,0,0,1-2.35,0l-.12-.036a4.44,4.44,0,0,1-3.162-4.246Zm13.222,15.525a.754.754,0,0,0-.754.754v39.935h-7.257V187.778a.755.755,0,0,0-1.509,0v23.258h-7.254V171.1a.755.755,0,0,0-1.509,0v12.442l-.508-.125a5.291,5.291,0,0,1-4.041-5.137V169.1a3.583,3.583,0,0,1,2.99-3.541l4.914-.836A4.011,4.011,0,0,0,527.806,162l.544-1.693.4.139a2.228,2.228,0,0,0,.267.072l.32.08a2.519,2.519,0,0,0,.3.075,6.052,6.052,0,0,0,.859.087c.052,0,.1.01.157.016h.154c.052-.007.107-.015.162-.016a5.962,5.962,0,0,0,.85-.087,2.7,2.7,0,0,0,.3-.074l.323-.084a1.9,1.9,0,0,0,.269-.07l.4-.138L533.64,162a3.97,3.97,0,0,0,3.2,2.717l4.957.844a3.582,3.582,0,0,1,2.99,3.541v9.178a5.291,5.291,0,0,1-4.042,5.137l-.506.125V171.1A.754.754,0,0,0,539.487,170.347Zm28.013-19.5a4.444,4.444,0,0,1,8.645-.048l.172.687-.682-.195a34.792,34.792,0,0,1-4.1-1.442.761.761,0,0,0-.809.092,8.068,8.068,0,0,1-2.707,1.391l-.687.216Zm-.128,3.988v-1.766l.311-.075a10.939,10.939,0,0,0,3.449-1.475l.182-.123.2.084a37.309,37.309,0,0,0,4.465,1.475l.306.08v1.8a4.431,4.431,0,0,1-2.122,3.78,4.322,4.322,0,0,1-1.008.454l-.12-.392h0l.075.4-.1.034a4.659,4.659,0,0,1-1.181.156,4.538,4.538,0,0,1-1.175-.156l-.1-.033a4.555,4.555,0,0,1-1.055-.469A4.429,4.429,0,0,1,567.372,154.834Zm.937,8.306a3.855,3.855,0,0,0,.6-1.127l.546-1.689.4.138a2.256,2.256,0,0,0,.251.067l.329.085c.1.026.2.056.306.075a5.621,5.621,0,0,0,.845.085,1.132,1.132,0,0,1,.159.016h.17a1.153,1.153,0,0,1,.151-.016,5.622,5.622,0,0,0,.852-.085,2.9,2.9,0,0,0,.3-.075l.318-.08a2.373,2.373,0,0,0,.267-.072l.4-.138.546,1.688a3.862,3.862,0,0,0,.6,1.129l.311.421-.485.2a8.716,8.716,0,0,1-6.7,0l-.485-.2Zm2.766,47.9h-5.91V198.063h5.91Zm7.419,0h-5.91V198.063h5.91Zm7.4-32.742a5.314,5.314,0,0,1-3.079,4.8l-.475.22-.985-5.078-.008-7.12a.755.755,0,1,0-1.509,0v7.152c.008-.011.016.026.021.077l0,.036,0,.084,3.518,18.091h-23.1l3.526-18.144c0,.007-.012-.02-.007-.067l.025-.131,0-7.1a.755.755,0,1,0-1.509,0v7.041l-1,5.157-.475-.22a5.324,5.324,0,0,1-3.079-4.8v-9.179a3.583,3.583,0,0,1,2.99-3.539l4.916-.837a3.048,3.048,0,0,0,.585-.164l.3-.107.161.093a10.271,10.271,0,0,0,10.223,0l.161-.093.31.108a2.92,2.92,0,0,0,.541.156l4.957.842a3.581,3.581,0,0,1,2.989,3.539Z" transform="translate(-515.146 -142.778)" fill="#fff"/>
</svg>
