<svg xmlns="http://www.w3.org/2000/svg" width="62.287" height="68.438" viewBox="0 0 62.287 68.438">
  <g id="Group_17" data-name="Group 17" transform="translate(-631.387 -141.311)">
    <path id="Path_58" data-name="Path 58" d="M680.7,164.411,654.254,141.49a.731.731,0,0,0-1.21.552v66.975a.731.731,0,0,0,.73.73h20.567a3.119,3.119,0,0,0,.178-6.233l-.375-.022V169.78l.257-.1a2.831,2.831,0,0,0,1.832-2.629V165.7h3.985a.731.731,0,0,0,.479-1.283Zm-26.19,25.518h4.651v13.581h-4.651Zm19.835,15.044a1.657,1.657,0,1,1,0,3.313H654.506v-3.313h7.055a.731.731,0,0,0,0-1.462h-.941V189.2a.732.732,0,0,0-.73-.732h-5.383V169.873h18.176v33.639h-6.028a.731.731,0,0,0,0,1.462Zm-13.258-40.74a.731.731,0,1,0,0,1.462h13.688v1.357a1.358,1.358,0,0,1-1.357,1.357H654.506V165.7h1.961a.731.731,0,1,0,0-1.462h-1.961v-20.59l23.753,20.59Z" transform="translate(12.725)" fill="#fff"/>
    <path id="Path_59" data-name="Path 59" d="M666.666,161.691H656.579a.732.732,0,0,0-.732.73v10.087a.732.732,0,0,0,.732.73h10.087a.73.73,0,0,0,.73-.73V162.421A.73.73,0,0,0,666.666,161.691Zm-.732,10.087h-8.625v-8.625h8.625Z" transform="translate(14.372 11.974)" fill="#fff"/>
    <path id="Path_60" data-name="Path 60" d="M658.865,141.378h0a.7.7,0,0,0-.3-.067.738.738,0,0,0-.479.178l-26.444,22.923a.731.731,0,0,0,.479,1.284H636.1v1.357a2.83,2.83,0,0,0,1.834,2.629l.257.1v33.713l-.376.022a3.119,3.119,0,0,0,.178,6.233H658.56a.733.733,0,0,0,.732-.73V142.043A.733.733,0,0,0,658.865,141.378Zm-1.035,62.133h-4.655V189.93h4.655Zm0-15.044h-5.385a.733.733,0,0,0-.732.732v14.312h-4.631a.731.731,0,0,0,0,1.462H657.83v3.313H637.993a1.657,1.657,0,1,1,0-3.313h3.9a.731.731,0,0,0,0-1.462h-2.24V169.873H657.83Zm0-24.234h-6.406a.731.731,0,0,0,0,1.462h6.406v2.715H638.922a1.359,1.359,0,0,1-1.359-1.357V165.7h8.785a.731.731,0,1,0,0-1.462H634.077l23.753-20.59Z" fill="#fff"/>
    <path id="Path_61" data-name="Path 61" d="M639.616,173.239H649.7a.73.73,0,0,0,.73-.73V162.421a.73.73,0,0,0-.73-.73H639.616a.73.73,0,0,0-.73.73v10.087A.73.73,0,0,0,639.616,173.239Zm.73-10.086h8.625v8.625h-8.625Z" transform="translate(4.406 11.974)" fill="#fff"/>
  </g>
</svg>
