<svg xmlns="http://www.w3.org/2000/svg" width="55" height="68.968" viewBox="0 0 55 68.968">
  <g id="Group_19" data-name="Group 19" transform="translate(-609.811 -38.246)">
    <path id="Path_76" data-name="Path 76" d="M618.273,75.984a2.817,2.817,0,0,1-1.934-.741,2.342,2.342,0,0,1,.021-3.521A2.855,2.855,0,0,1,618.276,71a2.826,2.826,0,0,1,1.937.741A2.374,2.374,0,0,1,621,73.483a.7.7,0,1,0,1.4,0,3.769,3.769,0,0,0-1.234-2.768,4.111,4.111,0,0,0-1.908-.991l-.3-.067,0-.65a.7.7,0,1,0-1.4,0l0,.648-.293.07a3.939,3.939,0,0,0-3.12,3.779,3.77,3.77,0,0,0,1.235,2.769,4.265,4.265,0,0,0,2.914,1.115,2.831,2.831,0,0,1,1.935.741,2.345,2.345,0,0,1-.023,3.523,2.9,2.9,0,0,1-3.852-.018,2.38,2.38,0,0,1-.785-1.742.705.705,0,0,0-.7-.7.7.7,0,0,0-.7.7,3.765,3.765,0,0,0,1.235,2.768,4.183,4.183,0,0,0,1.908.991l.294.069,0,.824a.7.7,0,0,0,1.4-.006l0-.824.293-.07a3.936,3.936,0,0,0,3.12-3.777,3.761,3.761,0,0,0-1.235-2.769A4.263,4.263,0,0,0,618.273,75.984Z" transform="translate(2.277 15.78)" fill="#fff"/>
    <path id="Path_77" data-name="Path 77" d="M664.108,38.246H622.627a.7.7,0,0,0-.7.7v12.7h-5.539a6.584,6.584,0,0,0-6.576,6.576v48.291a.7.7,0,0,0,.7.7h36.526a.7.7,0,0,0,.7-.7V87.372h12.1a4.975,4.975,0,0,0,4.97-4.969V38.948A.7.7,0,0,0,664.108,38.246ZM647.314,53.658a4.916,4.916,0,0,0-.979,2.957v49.194h-35.12V58.221a5.178,5.178,0,0,1,5.171-5.171h31.379Zm.425,32.309V56.615a3.565,3.565,0,1,1,7.131,0V82.4a4.927,4.927,0,0,0,1,2.955l.454.608ZM663.406,82.4a3.566,3.566,0,0,1-7.131,0V56.615a4.976,4.976,0,0,0-4.97-4.97H623.33V39.651h40.076Z" transform="translate(0 0)" fill="#fff"/>
    <path id="Path_78" data-name="Path 78" d="M633.774,77.105h-10.3a.7.7,0,1,0,0,1.4h10.3a.7.7,0,0,0,0-1.4Z" transform="translate(6.803 20.402)" fill="#fff"/>
    <path id="Path_79" data-name="Path 79" d="M633.774,73.339h-10.3a.7.7,0,1,0,0,1.4h10.3a.7.7,0,0,0,0-1.4Z" transform="translate(6.803 18.425)" fill="#fff"/>
    <path id="Path_80" data-name="Path 80" d="M633.774,69.574h-10.3a.7.7,0,1,0,0,1.4h10.3a.7.7,0,0,0,0-1.4Z" transform="translate(6.803 16.448)" fill="#fff"/>
    <path id="Path_81" data-name="Path 81" d="M614.21,54.624h24.426a.7.7,0,0,0,0-1.4H614.21a.7.7,0,0,0,0,1.4Z" transform="translate(1.941 7.861)" fill="#fff"/>
    <path id="Path_82" data-name="Path 82" d="M638.636,56.91H614.21a.7.7,0,0,0,0,1.4h24.426a.7.7,0,0,0,0-1.4Z" transform="translate(1.941 9.799)" fill="#fff"/>
    <path id="Path_83" data-name="Path 83" d="M652.178,43.684a.7.7,0,0,0-.7-.7H622.323a.7.7,0,1,0,0,1.4h29.152A.7.7,0,0,0,652.178,43.684Z" transform="translate(6.201 2.487)" fill="#fff"/>
    <path id="Path_84" data-name="Path 84" d="M638.636,60.6H614.21a.7.7,0,1,0,0,1.4h24.426a.7.7,0,1,0,0-1.4Z" transform="translate(1.941 11.737)" fill="#fff"/>
    <path id="Path_85" data-name="Path 85" d="M638.636,64.291H614.21a.7.7,0,0,0,0,1.4h24.426a.7.7,0,0,0,0-1.4Z" transform="translate(1.941 13.674)" fill="#fff"/>
  </g>
</svg>
