<svg xmlns="http://www.w3.org/2000/svg" width="85.876" height="68.488" viewBox="0 0 85.876 68.488">
  <g id="Group_18" data-name="Group 18" transform="translate(-611.754 -93.113)">
    <path id="Path_62" data-name="Path 62" d="M642.148,153.2l6.793-6.873a.868.868,0,0,0,0-1.214l-6.714-6.794,6.9-6.976a.87.87,0,0,0,0-1.216l-6.763-6.843,6.727-6.806a.866.866,0,0,0,0-1.214l-6.537-6.616L649.124,102a.867.867,0,0,0,0-1.214L641.8,93.368a.87.87,0,0,0-.615-.255H618.641a.863.863,0,0,0-.863.863v24.48a.864.864,0,0,0,1.728,0V94.841h21.318l6.472,6.549-6.575,6.654a.866.866,0,0,0,0,1.214l6.537,6.614-6.727,6.808a.869.869,0,0,0,0,1.214l6.764,6.843-6.9,6.978a.867.867,0,0,0,0,1.214l6.714,6.794-6.792,6.873a.867.867,0,0,0,0,1.214l6,6.067H619.506V155.75a.864.864,0,1,0-1.728,0v4.988a.863.863,0,0,0,.863.863h29.742a.861.861,0,0,0,.613-1.469Z" transform="translate(5.276 0)" fill="#fff"/>
    <path id="Path_63" data-name="Path 63" d="M665.4,154.886a.863.863,0,0,0-.863.863v4.127h-21.2l-6.594-6.674,6.793-6.873a.871.871,0,0,0,0-1.214l-6.714-6.794,6.9-6.976a.87.87,0,0,0,0-1.216l-6.762-6.843,6.727-6.806a.866.866,0,0,0,0-1.214l-6.539-6.616L643.718,102a.867.867,0,0,0,0-1.214l-5.871-5.941h26.686v23.615a.864.864,0,0,0,1.728,0V93.976a.865.865,0,0,0-.865-.863H635.78a.861.861,0,0,0-.614,1.469l6.725,6.808-6.575,6.654a.866.866,0,0,0,0,1.214l6.537,6.614-6.727,6.808a.866.866,0,0,0,0,1.214l6.765,6.843-6.9,6.978a.867.867,0,0,0,0,1.214l6.714,6.794-6.792,6.873a.867.867,0,0,0,0,1.214l7.449,7.537a.855.855,0,0,0,.613.255H665.4a.865.865,0,0,0,.865-.863v-4.99A.865.865,0,0,0,665.4,154.886Z" transform="translate(20.069 0)" fill="#fff"/>
    <path id="Path_64" data-name="Path 64" d="M640.249,108.992a.867.867,0,0,0-1.221-.007.865.865,0,0,0-.008,1.223l6.762,6.843-6.9,6.978a.867.867,0,0,0,0,1.214l6.716,6.794-6.795,6.873a.847.847,0,0,0-.249.61.858.858,0,0,0,.255.612.89.89,0,0,0,1.225-.008l7.391-7.481a.868.868,0,0,0,0-1.214l-6.716-6.794,6.9-6.978a.868.868,0,0,0,0-1.214Z" transform="translate(23.478 13.685)" fill="#fff"/>
    <path id="Path_65" data-name="Path 65" d="M627.12,140.124l7.389-7.481a.867.867,0,0,0,0-1.214l-6.714-6.794,6.9-6.978a.868.868,0,0,0,0-1.214l-7.363-7.451a.866.866,0,0,0-1.221-.006.847.847,0,0,0-.257.608.857.857,0,0,0,.249.613l6.763,6.843-6.9,6.978a.863.863,0,0,0,0,1.212l6.714,6.8-6.792,6.873a.863.863,0,0,0,.006,1.219A.887.887,0,0,0,627.12,140.124Z" transform="translate(12.162 13.685)" fill="#fff"/>
    <path id="Path_66" data-name="Path 66" d="M656.727,116.473a12.179,12.179,0,0,0-12.163,12.165v1.739a.865.865,0,0,0,.863.865h22.6a.866.866,0,0,0,.865-.865v-1.739A12.18,12.18,0,0,0,656.727,116.473Zm10.437,13.041H646.29v-.876a10.437,10.437,0,1,1,20.875,0Z" transform="translate(28.738 20.461)" fill="#fff"/>
    <path id="Path_67" data-name="Path 67" d="M653.967,120.962a6.253,6.253,0,1,0-6.252-6.252A6.261,6.261,0,0,0,653.967,120.962Zm0-10.779a4.526,4.526,0,1,1-4.525,4.526A4.532,4.532,0,0,1,653.967,110.184Z" transform="translate(31.497 13.439)" fill="#fff"/>
    <path id="Path_68" data-name="Path 68" d="M636.084,130.2v-1.739a12.165,12.165,0,1,0-24.33,0V130.2a.863.863,0,0,0,.863.863h22.6A.865.865,0,0,0,636.084,130.2Zm-1.728-.865H613.482v-.874a10.437,10.437,0,1,1,20.875,0Z" transform="translate(0 20.302)" fill="#fff"/>
    <path id="Path_69" data-name="Path 69" d="M621.157,120.781a6.253,6.253,0,1,0-6.252-6.252A6.261,6.261,0,0,0,621.157,120.781Zm0-10.779a4.527,4.527,0,1,1-4.526,4.526A4.532,4.532,0,0,1,621.157,110Z" transform="translate(2.76 13.28)" fill="#fff"/>
    <path id="Path_70" data-name="Path 70" d="M622.072,98.228h9.544a.864.864,0,0,0,0-1.728h-9.544a.864.864,0,1,0,0,1.728Z" transform="translate(8.28 2.967)" fill="#fff"/>
    <path id="Path_71" data-name="Path 71" d="M622.072,101.982h9.544a.864.864,0,0,0,0-1.728h-9.544a.864.864,0,1,0,0,1.728Z" transform="translate(8.28 6.255)" fill="#fff"/>
    <path id="Path_72" data-name="Path 72" d="M622.072,105.736h9.544a.864.864,0,0,0,0-1.728h-9.544a.864.864,0,1,0,0,1.728Z" transform="translate(8.28 9.543)" fill="#fff"/>
    <path id="Path_73" data-name="Path 73" d="M642.883,98.228h9.543a.864.864,0,1,0,0-1.728h-9.543a.864.864,0,0,0,0,1.728Z" transform="translate(26.509 2.967)" fill="#fff"/>
    <path id="Path_74" data-name="Path 74" d="M642.883,101.982h9.543a.864.864,0,1,0,0-1.728h-9.543a.864.864,0,0,0,0,1.728Z" transform="translate(26.509 6.255)" fill="#fff"/>
    <path id="Path_75" data-name="Path 75" d="M653.29,104.871a.865.865,0,0,0-.865-.863h-9.543a.864.864,0,0,0,0,1.728h9.543A.866.866,0,0,0,653.29,104.871Z" transform="translate(26.509 9.543)" fill="#fff"/>
  </g>
</svg>
