<svg xmlns="http://www.w3.org/2000/svg" width="51.846" height="53.7" viewBox="0 0 51.846 53.7">
  <g id="Group_531" data-name="Group 531" transform="translate(-364.422 -247.372)">
    <g id="Group_104" data-name="Group 104" transform="translate(364.422 250.487)">
      <path id="Path_1205" data-name="Path 1205" d="M400.2,256.812v-8.024H370.263l-5.841,5.836v44.749H400.2V256.812Z" transform="translate(-364.422 -248.789)" fill="#5b59ad"/>
    </g>
    <g id="Group_106" data-name="Group 106" transform="translate(364.423 250.485)">
      <g id="Group_105" data-name="Group 105">
        <path id="Path_1206" data-name="Path 1206" d="M364.422,254.627l5.841,0,0-5.836h0l-5.838,5.839Z" transform="translate(-364.422 -248.788)" fill="#7b7bbc"/>
      </g>
    </g>
    <g id="Group_108" data-name="Group 108" transform="translate(387.26 247.372)">
      <g id="Group_107" data-name="Group 107">
        <path id="Path_1207" data-name="Path 1207" d="M374.809,247.372h6.143a1.168,1.168,0,0,1,1.168,1.168v15.033l-3.076-2.4-3.076,2.4V250.061a4.488,4.488,0,0,0-1.159-2.689h0Z" transform="translate(-374.809 -247.372)" fill="#7b7bbc"/>
      </g>
    </g>
    <g id="Group_110" data-name="Group 110" transform="translate(386.102 247.372)">
      <g id="Group_109" data-name="Group 109">
        <path id="Path_1208" data-name="Path 1208" d="M375.441,247.372a1.159,1.159,0,0,0-1.159,1.159v1.952H376.6v-1.952A1.159,1.159,0,0,0,375.441,247.372Z" transform="translate(-374.282 -247.372)" fill="#7b7bbc"/>
      </g>
    </g>
    <g id="Group_115" data-name="Group 115" transform="translate(384.908 272.824)">
      <g id="Group_114" data-name="Group 114">
        <g id="Group_111" data-name="Group 111" transform="translate(10.888 5.974)">
          <path id="Path_1209" data-name="Path 1209" d="M378.691,262.333h2.568v-.18a.488.488,0,0,1,.488-.488h9.921a.487.487,0,0,1,.488.488v.18h2.83v2.027h-2.83v.182a.488.488,0,0,1-.488.488h-9.921a.49.49,0,0,1-.488-.488v-.182h-2.568Z" transform="translate(-378.691 -261.665)" fill="#7b7bbc"/>
        </g>
        <g id="Group_112" data-name="Group 112">
          <path id="Path_1210" data-name="Path 1210" d="M374.344,261.705a.6.6,0,0,1-.6-.6v-1.548a.6.6,0,0,1,.6-.6h8.225a.6.6,0,0,1,.6.6V261.1a.6.6,0,0,1-.6.6h0a.6.6,0,0,0-.6.6v2.1l2.66.934v2.524l-2.66.934v2.1a.6.6,0,0,0,.6.6h0a.6.6,0,0,1,.6.6v1.55a.6.6,0,0,1-.6.6h-8.225a.6.6,0,0,1-.6-.6v-1.55a.6.6,0,0,1,.6-.6.6.6,0,0,0,.6-.6v-8.592A.6.6,0,0,0,374.344,261.705Z" transform="translate(-373.739 -258.948)" fill="#7b7bbc"/>
        </g>
        <g id="Group_113" data-name="Group 113" transform="translate(25.681 4.817)">
          <path id="Path_1211" data-name="Path 1211" d="M385.419,263.977a2.84,2.84,0,1,0,2.838-2.838A2.84,2.84,0,0,0,385.419,263.977Z" transform="translate(-385.419 -261.139)" fill="#7b7bbc"/>
        </g>
      </g>
    </g>
    <g id="Group_117" data-name="Group 117" transform="translate(372.277 277.351)">
      <g id="Group_116" data-name="Group 116">
        <rect id="Rectangle_119" data-name="Rectangle 119" width="12.141" height="2.168" fill="#7b7bbc"/>
      </g>
    </g>
    <g id="Group_119" data-name="Group 119" transform="translate(372.277 268.46)">
      <g id="Group_118" data-name="Group 118">
        <rect id="Rectangle_120" data-name="Rectangle 120" width="17.699" height="2.168" fill="#7b7bbc"/>
      </g>
    </g>
    <g id="Group_121" data-name="Group 121" transform="translate(372.277 285.994)">
      <g id="Group_120" data-name="Group 120">
        <rect id="Rectangle_121" data-name="Rectangle 121" width="10.971" height="2.168" fill="#7b7bbc"/>
      </g>
    </g>
    <g id="Group_133" data-name="Group 133" transform="translate(372.277 268.46)">
      <g id="Group_122" data-name="Group 122" transform="translate(0 13.223)">
        <rect id="Rectangle_122" data-name="Rectangle 122" width="12.141" height="2.168" fill="#fff"/>
      </g>
      <g id="Group_124" data-name="Group 124" transform="translate(0 8.891)">
        <g id="Group_123" data-name="Group 123">
          <rect id="Rectangle_123" data-name="Rectangle 123" width="12.141" height="2.168" fill="#fff"/>
        </g>
      </g>
      <g id="Group_126" data-name="Group 126" transform="translate(0 4.332)">
        <g id="Group_125" data-name="Group 125">
          <rect id="Rectangle_124" data-name="Rectangle 124" width="10.971" height="2.168" fill="#fff"/>
        </g>
      </g>
      <g id="Group_128" data-name="Group 128">
        <g id="Group_127" data-name="Group 127">
          <rect id="Rectangle_125" data-name="Rectangle 125" width="17.699" height="2.168" fill="#fff"/>
        </g>
      </g>
      <g id="Group_130" data-name="Group 130" transform="translate(0 21.866)">
        <g id="Group_129" data-name="Group 129">
          <rect id="Rectangle_126" data-name="Rectangle 126" width="17.699" height="2.168" fill="#fff"/>
        </g>
      </g>
      <g id="Group_132" data-name="Group 132" transform="translate(0 17.534)">
        <g id="Group_131" data-name="Group 131">
          <rect id="Rectangle_127" data-name="Rectangle 127" width="10.971" height="2.168" fill="#fff"/>
        </g>
      </g>
    </g>
  </g>
</svg>
