<svg id="Group_841" data-name="Group 841" xmlns="http://www.w3.org/2000/svg" xmlns:xlink="http://www.w3.org/1999/xlink" width="291.536" height="80.59" viewBox="0 0 291.536 80.59">
  <defs>
    <clipPath id="clip-path">
      <rect id="Rectangle_864" data-name="Rectangle 864" width="291.536" height="80.59" fill="none"/>
    </clipPath>
  </defs>
  <rect id="Rectangle_860" data-name="Rectangle 860" width="105.448" height="13.266" transform="translate(0 0)" fill="#aa2b32"/>
  <g id="Group_840" data-name="Group 840" transform="translate(0 0)">
    <g id="Group_839" data-name="Group 839" clip-path="url(#clip-path)">
      <path id="Path_6382" data-name="Path 6382" d="M4.845,8.89v.4c0,.784.283,1.2.849,1.2s.849-.359.849-1.383a1.956,1.956,0,0,0-.958-1.871A2.159,2.159,0,0,1,4.432,5.223c0-.893.273-1.72,1.295-1.709.9,0,1.241.565,1.241,1.578v.3H6.435V5.1c0-.665-.142-1.122-.719-1.122-.6,0-.751.522-.751,1.154a1.6,1.6,0,0,0,.849,1.578,2.407,2.407,0,0,1,1.262,2.33c0,1.022-.239,1.915-1.382,1.915-1.044,0-1.381-.708-1.381-1.665v-.4Z" transform="translate(-1.066 -0.869)" fill="#fff"/>
      <path id="Path_6383" data-name="Path 6383" d="M9.911,8.32,9.5,10.9H8.965l1.208-7.271h.773L12.209,10.9h-.567L11.207,8.32Zm1.22-.49C10.815,5.98,10.62,4.7,10.554,4.1h-.022c-.022.533-.315,2.231-.544,3.733Z" transform="translate(-2.216 -0.897)" fill="#fff"/>
      <path id="Path_6384" data-name="Path 6384" d="M14.443,10.9V3.629h.663L16.533,8.6A11.321,11.321,0,0,1,16.826,9.9h.022c-.032-1.034-.054-2.057-.054-3.233V3.629h.522V10.9h-.642L15.085,5.24a6.744,6.744,0,0,1-.185-.827h-.011c.043.871.076,2.155.076,3.472V10.9Z" transform="translate(-3.57 -0.897)" fill="#fff"/>
      <path id="Path_6385" data-name="Path 6385" d="M22.334,3.629h2.329v.49h-1.8V6.807h1.676V7.3H22.867v3.6h-.534Z" transform="translate(-5.521 -0.897)" fill="#fff"/>
      <path id="Path_6386" data-name="Path 6386" d="M26.584,3.63h1.077c1.089,0,1.546.489,1.546,1.622v.37c0,.893-.273,1.382-.741,1.535.479.152.675.534.675,1.491a18.224,18.224,0,0,0,.076,2.253h-.522a18.346,18.346,0,0,1-.077-2.2c0-.979-.152-1.295-.913-1.295h-.589V10.9h-.532Zm.532,3.309h.632c.762,0,.915-.522.915-1.3v-.37c0-.74-.229-1.176-1.024-1.176h-.522Z" transform="translate(-6.571 -0.897)" fill="#fff"/>
      <path id="Path_6387" data-name="Path 6387" d="M32.11,8.32,31.7,10.9h-.534l1.208-7.271h.773L34.408,10.9h-.567L33.406,8.32Zm1.22-.49c-.315-1.85-.511-3.135-.577-3.733h-.022c-.022.533-.315,2.231-.544,3.733Z" transform="translate(-7.704 -0.897)" fill="#fff"/>
      <path id="Path_6388" data-name="Path 6388" d="M36.642,10.9V3.629h.663L38.732,8.6A11.49,11.49,0,0,1,39.025,9.9h.022c-.032-1.034-.054-2.057-.054-3.233V3.629h.522V10.9h-.642L37.284,5.24a6.743,6.743,0,0,1-.185-.827h-.011c.043.871.076,2.155.076,3.472V10.9Z" transform="translate(-9.058 -0.897)" fill="#fff"/>
      <path id="Path_6389" data-name="Path 6389" d="M44.742,8.847v.217c0,.991-.185,1.894-1.35,1.894-1.2,0-1.36-.925-1.36-1.959V5.276c0-1.2.489-1.763,1.36-1.763,1.121,0,1.317.838,1.317,1.753v.25h-.556V5.254c0-.631-.076-1.251-.773-1.251-.664,0-.805.544-.805,1.284V9.009c0,.9.207,1.469.827,1.469.687,0,.784-.61.784-1.4V8.847Z" transform="translate(-10.39 -0.868)" fill="#fff"/>
      <rect id="Rectangle_861" data-name="Rectangle 861" width="0.533" height="7.271" transform="translate(35.373 2.732)" fill="#fff"/>
      <path id="Path_6390" data-name="Path 6390" d="M49.6,8.89v.4c0,.784.283,1.2.848,1.2s.849-.359.849-1.383a1.955,1.955,0,0,0-.958-1.871A2.158,2.158,0,0,1,49.19,5.223c0-.893.272-1.72,1.3-1.709.9,0,1.241.565,1.241,1.578v.3h-.534V5.1c0-.665-.141-1.122-.718-1.122-.6,0-.751.522-.751,1.154a1.606,1.606,0,0,0,.848,1.578,2.408,2.408,0,0,1,1.263,2.33c0,1.022-.24,1.915-1.383,1.915-1.045,0-1.382-.708-1.382-1.665v-.4Z" transform="translate(-12.13 -0.869)" fill="#fff"/>
      <path id="Path_6391" data-name="Path 6391" d="M56.78,8.847v.217c0,.991-.185,1.894-1.349,1.894-1.2,0-1.362-.925-1.362-1.959V5.276c0-1.2.49-1.763,1.362-1.763,1.121,0,1.316.838,1.316,1.753v.25h-.556V5.254c0-.631-.075-1.251-.772-1.251-.664,0-.805.544-.805,1.284V9.009c0,.9.207,1.469.827,1.469.685,0,.784-.61.784-1.4V8.847Z" transform="translate(-13.366 -0.868)" fill="#fff"/>
      <path id="Path_6392" data-name="Path 6392" d="M61.8,5.288V9.141c0,1.2-.479,1.817-1.459,1.817-1.088,0-1.415-.74-1.415-1.817V5.3c0-1.132.467-1.785,1.448-1.785,1.055,0,1.426.794,1.426,1.774M59.471,5.3V9.152c0,.968.348,1.327.893,1.327.576,0,.892-.359.892-1.371V5.31c0-.9-.327-1.307-.9-1.307-.6,0-.882.381-.882,1.3" transform="translate(-14.567 -0.869)" fill="#fff"/>
      <path id="Path_6393" data-name="Path 6393" d="M66.528,3.629h1.393c1.208,0,1.665.588,1.665,1.622v.294c0,1.023-.337,1.328-.675,1.469.359.12.816.425.816,1.458v.544c0,1.241-.479,1.883-1.731,1.883H66.528Zm1.306,3c.642,0,.827-.218.827-.991v-.3c0-.62-.218-.893-.795-.893h-.391V6.633Zm-.359,3.461h.414c.7,0,.882-.326.882-1.1v-.5c0-.74-.229-1.055-.936-1.055h-.359Z" transform="translate(-16.446 -0.897)" fill="#fff"/>
      <path id="Path_6394" data-name="Path 6394" d="M73.028,3.629V9.213c0,.555.184.9.664.9.5,0,.664-.359.664-.9V3.629h.968V9.191c0,1.132-.511,1.807-1.643,1.807-1.1,0-1.633-.6-1.633-1.8V3.629Z" transform="translate(-17.81 -0.897)" fill="#fff"/>
      <path id="Path_6395" data-name="Path 6395" d="M78.538,8.763V9.2c0,.6.2.936.653.936.479,0,.631-.4.631-1.013,0-.805-.174-1.089-.958-1.7a2.279,2.279,0,0,1-1.186-2.069c0-.946.282-1.872,1.523-1.872s1.48.86,1.48,1.709v.36h-.969V5.215c0-.545-.1-.893-.522-.893s-.534.37-.534.893c0,.577.108.838.762,1.317A2.545,2.545,0,0,1,80.8,8.981c0,1.023-.337,1.981-1.633,1.981-1.274,0-1.6-.817-1.6-1.774V8.763Z" transform="translate(-19.175 -0.861)" fill="#fff"/>
      <rect id="Rectangle_862" data-name="Rectangle 862" width="0.979" height="7.271" transform="translate(62.584 2.732)" fill="#fff"/>
      <path id="Path_6396" data-name="Path 6396" d="M86.082,10.9V3.629h1.143l1.067,4.027a12.255,12.255,0,0,1,.283,1.295H88.6c-.055-.936-.055-1.959-.055-3.146V3.629h.9V10.9h-1.1l-1.2-4.593c-.1-.381-.152-.686-.2-.9h-.011c.044.882.055,1.938.055,3.255V10.9Z" transform="translate(-21.279 -0.897)" fill="#fff"/>
      <path id="Path_6397" data-name="Path 6397" d="M94.771,7.493H93.16v2.514H95l-.119.892h-2.7V3.629h2.678v.9h-1.7V6.6h1.611Z" transform="translate(-22.787 -0.897)" fill="#fff"/>
      <path id="Path_6398" data-name="Path 6398" d="M97.744,8.763V9.2c0,.6.2.936.653.936.48,0,.632-.4.632-1.013,0-.805-.175-1.089-.958-1.7a2.279,2.279,0,0,1-1.186-2.069c0-.946.282-1.872,1.524-1.872s1.48.86,1.48,1.709v.36H98.92V5.215c0-.545-.1-.893-.523-.893s-.532.37-.532.893c0,.577.108.838.761,1.317a2.544,2.544,0,0,1,1.382,2.449c0,1.023-.337,1.981-1.632,1.981-1.274,0-1.6-.817-1.6-1.774V8.763Z" transform="translate(-23.922 -0.861)" fill="#fff"/>
      <path id="Path_6399" data-name="Path 6399" d="M103.078,8.763V9.2c0,.6.195.936.652.936.48,0,.632-.4.632-1.013,0-.805-.175-1.089-.958-1.7a2.279,2.279,0,0,1-1.186-2.069c0-.946.282-1.872,1.524-1.872s1.48.86,1.48,1.709v.36h-.968V5.215c0-.545-.1-.893-.523-.893s-.532.37-.532.893c0,.577.108.838.761,1.317a2.544,2.544,0,0,1,1.382,2.449c0,1.023-.337,1.981-1.632,1.981-1.274,0-1.6-.817-1.6-1.774V8.763Z" transform="translate(-25.241 -0.861)" fill="#fff"/>
      <path id="Path_6400" data-name="Path 6400" d="M110.365,4.532H109.19v-.9h3.318v.9h-1.175V10.9h-.968Z" transform="translate(-26.991 -0.897)" fill="#fff"/>
      <rect id="Rectangle_863" data-name="Rectangle 863" width="0.98" height="7.271" transform="translate(86.234 2.732)" fill="#fff"/>
      <path id="Path_6401" data-name="Path 6401" d="M121.146,8.059c0-1.284.022-2.776.044-3.581h-.011c-.174,1.241-.641,4.289-.99,6.422h-.925c-.261-1.883-.74-5.116-.9-6.433h-.022c.022.849.054,2.493.054,3.744V10.9H117.5V3.63h1.448c.337,1.97.708,4.3.805,5.279h.011c.109-.979.577-3.418.914-5.279h1.4V10.9h-.936Z" transform="translate(-29.045 -0.897)" fill="#fff"/>
      <path id="Path_6402" data-name="Path 6402" d="M127.807,7.493H126.2v2.514h1.839l-.119.892h-2.7V3.629h2.678v.9h-1.7V6.6h1.611Z" transform="translate(-30.953 -0.897)" fill="#fff"/>
      <path id="Path_6403" data-name="Path 6403" d="M130.781,8.763V9.2c0,.6.2.936.653.936.479,0,.632-.4.632-1.013,0-.805-.174-1.089-.958-1.7a2.279,2.279,0,0,1-1.186-2.069c0-.946.282-1.872,1.524-1.872s1.479.86,1.479,1.709v.36h-.968V5.215c0-.545-.1-.893-.522-.893s-.533.37-.533.893c0,.577.108.838.762,1.317a2.544,2.544,0,0,1,1.382,2.449c0,1.023-.337,1.981-1.633,1.981-1.274,0-1.6-.817-1.6-1.774V8.763Z" transform="translate(-32.089 -0.861)" fill="#fff"/>
      <path id="Path_6404" data-name="Path 6404" d="M120.678,36.551a.261.261,0,0,1-.192.078H113.3a.116.116,0,0,0-.113.114l-.429,3.5q0,.113.09.113h4.72a.226.226,0,0,1,.181.079.215.215,0,0,1,.045.192l-.271,2.191a.367.367,0,0,1-.1.192.261.261,0,0,1-.192.079h-4.72a.1.1,0,0,0-.113.113l-.768,6.233a.367.367,0,0,1-.1.192.261.261,0,0,1-.192.079h-2.575a.226.226,0,0,1-.181-.079.215.215,0,0,1-.045-.192l1.874-15.267a.367.367,0,0,1,.1-.192.261.261,0,0,1,.192-.079h10.118a.226.226,0,0,1,.181.079.215.215,0,0,1,.045.192l-.271,2.191a.367.367,0,0,1-.1.192" transform="translate(-26.829 -8.379)" fill="#114a83"/>
      <path id="Path_6405" data-name="Path 6405" d="M132.454,49.48l-.384-2.213a.11.11,0,0,0-.023-.056.075.075,0,0,0-.068-.033h-5.4c-.045,0-.083.03-.113.09l-.926,2.213a.283.283,0,0,1-.294.226h-2.8a.208.208,0,0,1-.192-.09.223.223,0,0,1,.011-.226l6.617-15.267a.348.348,0,0,1,.316-.226h3.433a.271.271,0,0,1,.271.226l2.846,15.267v.068a.244.244,0,0,1-.068.181.241.241,0,0,1-.181.068h-2.8a.24.24,0,0,1-.248-.226m-4.81-4.765h3.862c.075,0,.113-.045.113-.136l-1.152-6.707c-.016-.06-.038-.087-.068-.079a.106.106,0,0,0-.068.079l-2.755,6.707q-.023.136.068.136" transform="translate(-30.215 -8.379)" fill="#114a83"/>
      <path id="Path_6406" data-name="Path 6406" d="M143.522,48.72a3.614,3.614,0,0,1-1.411-3,6.05,6.05,0,0,1,.045-.61l.068-.5a.354.354,0,0,1,.1-.192.259.259,0,0,1,.192-.079h2.507a.226.226,0,0,1,.181.079.217.217,0,0,1,.045.192l-.045.338a1.631,1.631,0,0,0,.622,1.525,3.18,3.18,0,0,0,2.111.621,2.818,2.818,0,0,0,1.908-.565,1.766,1.766,0,0,0,.644-1.378,1.162,1.162,0,0,0-.327-.836,2.987,2.987,0,0,0-.881-.6q-.553-.259-1.75-.733A18.867,18.867,0,0,1,145.318,42a4.585,4.585,0,0,1-1.513-1.3,3.255,3.255,0,0,1-.61-2.01c0-.105.014-.294.045-.565a4.583,4.583,0,0,1,1.874-3.263,7.27,7.27,0,0,1,6.741-.678,4.211,4.211,0,0,1,1.829,1.491,3.939,3.939,0,0,1,.644,2.247q0,.181-.045.586l-.045.34a.371.371,0,0,1-.1.192.264.264,0,0,1-.193.079h-2.529a.226.226,0,0,1-.181-.079.215.215,0,0,1-.044-.192l.022-.181a1.863,1.863,0,0,0-.553-1.614,2.715,2.715,0,0,0-2-.666,2.8,2.8,0,0,0-1.762.508,1.662,1.662,0,0,0-.655,1.389,1.178,1.178,0,0,0,.316.836,3.059,3.059,0,0,0,.937.632q.621.294,1.886.79,1.4.565,2.179.96a4.329,4.329,0,0,1,1.412,1.185,3.085,3.085,0,0,1,.633,1.988c0,.105-.016.294-.046.565a4.749,4.749,0,0,1-1.93,3.354,6.924,6.924,0,0,1-4.235,1.231,6.129,6.129,0,0,1-3.874-1.107" transform="translate(-35.129 -8.32)" fill="#114a83"/>
      <path id="Path_6407" data-name="Path 6407" d="M172.979,33.976a.217.217,0,0,1,.045.192l-.272,2.212a.248.248,0,0,1-.09.193.3.3,0,0,1-.2.079h-3.907c-.061,0-.106.037-.136.113l-1.558,12.67a.363.363,0,0,1-.1.192.261.261,0,0,1-.192.079h-2.551a.225.225,0,0,1-.181-.079.215.215,0,0,1-.045-.192l1.536-12.67c.029-.076,0-.113-.09-.113h-3.817a.225.225,0,0,1-.181-.079.216.216,0,0,1-.044-.193l.27-2.212a.373.373,0,0,1,.1-.192.259.259,0,0,1,.192-.079H172.8a.228.228,0,0,1,.181.079" transform="translate(-39.844 -8.379)" fill="#114a83"/>
      <path id="Path_6408" data-name="Path 6408" d="M189.941,36.551a.26.26,0,0,1-.192.078h-7.2a.113.113,0,0,0-.08.034.111.111,0,0,0-.034.08l-.429,3.5q0,.113.09.113h4.721a.228.228,0,0,1,.181.079.217.217,0,0,1,.045.192l-.272,2.191a.357.357,0,0,1-.1.192.261.261,0,0,1-.191.079h-4.721a.1.1,0,0,0-.112.113l-.452,3.659q0,.113.09.113h7.182q.248,0,.248.271l-.27,2.191a.374.374,0,0,1-.1.192.261.261,0,0,1-.192.079h-10.14a.228.228,0,0,1-.181-.079.215.215,0,0,1-.044-.192l1.874-15.267a.357.357,0,0,1,.1-.192.259.259,0,0,1,.192-.079h10.117a.262.262,0,0,1,.193.079.2.2,0,0,1,.056.192l-.27,2.191a.374.374,0,0,1-.1.192" transform="translate(-43.945 -8.379)" fill="#114a83"/>
      <path id="Path_6409" data-name="Path 6409" d="M196.863,48.72a3.612,3.612,0,0,1-1.412-3,6.059,6.059,0,0,1,.045-.61l.067-.5a.364.364,0,0,1,.1-.192.262.262,0,0,1,.193-.079h2.506a.224.224,0,0,1,.181.079.215.215,0,0,1,.046.192l-.046.338a1.633,1.633,0,0,0,.622,1.525,3.181,3.181,0,0,0,2.111.621,2.817,2.817,0,0,0,1.908-.565,1.765,1.765,0,0,0,.644-1.378,1.16,1.16,0,0,0-.328-.836,2.978,2.978,0,0,0-.881-.6q-.553-.259-1.75-.733A18.856,18.856,0,0,1,198.658,42a4.578,4.578,0,0,1-1.513-1.3,3.255,3.255,0,0,1-.611-2.01q0-.158.046-.565a4.585,4.585,0,0,1,1.874-3.263,7.27,7.27,0,0,1,6.741-.678,4.214,4.214,0,0,1,1.83,1.491,3.944,3.944,0,0,1,.643,2.247q0,.181-.044.586l-.046.34a.361.361,0,0,1-.1.192.264.264,0,0,1-.192.079h-2.53a.228.228,0,0,1-.181-.079.215.215,0,0,1-.044-.192l.023-.181A1.864,1.864,0,0,0,204,37.056a2.712,2.712,0,0,0-2-.666,2.8,2.8,0,0,0-1.762.508,1.662,1.662,0,0,0-.655,1.389,1.178,1.178,0,0,0,.316.836,3.069,3.069,0,0,0,.937.632q.621.294,1.886.79,1.4.565,2.18.96a4.344,4.344,0,0,1,1.411,1.185,3.089,3.089,0,0,1,.632,1.988c0,.105-.016.294-.045.565A4.75,4.75,0,0,1,204.97,48.6a6.921,6.921,0,0,1-4.234,1.231,6.127,6.127,0,0,1-3.873-1.107" transform="translate(-48.315 -8.32)" fill="#114a83"/>
      <path id="Path_6410" data-name="Path 6410" d="M226.318,33.976a.217.217,0,0,1,.045.192l-.272,2.212a.248.248,0,0,1-.09.193.3.3,0,0,1-.2.079h-3.907c-.061,0-.106.037-.136.113L220.2,49.435a.363.363,0,0,1-.1.192.261.261,0,0,1-.192.079h-2.551a.225.225,0,0,1-.181-.079.215.215,0,0,1-.045-.192l1.536-12.67c.029-.076,0-.113-.09-.113h-3.817a.225.225,0,0,1-.181-.079.216.216,0,0,1-.044-.193l.27-2.212a.373.373,0,0,1,.1-.192.259.259,0,0,1,.192-.079h11.044a.228.228,0,0,1,.181.079" transform="translate(-53.029 -8.379)" fill="#114a83"/>
      <path id="Path_6411" data-name="Path 6411" d="M228.584,46.872a.216.216,0,0,1-.045-.193l.271-2.19a.363.363,0,0,1,.1-.193.261.261,0,0,1,.191-.078h7.159a.228.228,0,0,1,.181.078.216.216,0,0,1,.045.193l-.248,2.19a.34.34,0,0,1-.112.193.3.3,0,0,1-.2.078h-7.159a.226.226,0,0,1-.181-.078" transform="translate(-56.493 -10.931)" fill="#114a83"/>
      <path id="Path_6412" data-name="Path 6412" d="M242.987,48.54a4.494,4.494,0,0,1-1.366-3.433,5.864,5.864,0,0,1,.045-.836l.632-5.059A6.519,6.519,0,0,1,243.36,36.3a5.775,5.775,0,0,1,2.236-1.954,6.772,6.772,0,0,1,3.071-.69,5.934,5.934,0,0,1,2.687.577,4.247,4.247,0,0,1,1.774,1.592,4.329,4.329,0,0,1,.621,2.3,6.161,6.161,0,0,1-.046.632l-.022.158a.363.363,0,0,1-.1.192.26.26,0,0,1-.192.079h-2.574a.228.228,0,0,1-.181-.079.215.215,0,0,1-.044-.192l.023-.068a1.716,1.716,0,0,0,.022-.316,2.073,2.073,0,0,0-.609-1.547,2.315,2.315,0,0,0-1.694-.6,2.77,2.77,0,0,0-1.976.757,3.184,3.184,0,0,0-.961,1.976l-.632,5.24a2.815,2.815,0,0,0-.022.407,2.231,2.231,0,0,0,.666,1.683,2.381,2.381,0,0,0,1.728.644,2.859,2.859,0,0,0,1.9-.621,2.548,2.548,0,0,0,.881-1.728l.136-1.016c0-.075-.031-.113-.09-.113h-2.462a.224.224,0,0,1-.18-.08.213.213,0,0,1-.045-.191l.248-2.078a.361.361,0,0,1,.1-.192.264.264,0,0,1,.192-.08h5.353a.229.229,0,0,1,.181.08.217.217,0,0,1,.044.192l-.361,2.981a6.152,6.152,0,0,1-2.044,4.087,6.351,6.351,0,0,1-4.3,1.491,5.166,5.166,0,0,1-3.692-1.287" transform="translate(-59.728 -8.32)" fill="#114a83"/>
      <path id="Path_6413" data-name="Path 6413" d="M267.936,49.5l-1.965-6.257a.146.146,0,0,0-.135-.09H263.8a.1.1,0,0,0-.113.113l-.768,6.166a.379.379,0,0,1-.1.192.261.261,0,0,1-.192.078h-2.575a.225.225,0,0,1-.181-.078.216.216,0,0,1-.045-.192L261.7,34.169a.362.362,0,0,1,.1-.192A.259.259,0,0,1,262,33.9h6.278a4.14,4.14,0,0,1,3.026,1.085,3.9,3.9,0,0,1,1.107,2.913q0,.226-.045.767a5.037,5.037,0,0,1-1.061,2.631,4.71,4.71,0,0,1-2.258,1.547c-.09.031-.121.083-.09.158l2.191,6.391a.263.263,0,0,1,.023.114c0,.135-.083.2-.248.2h-2.71a.265.265,0,0,1-.271-.2m-3.422-12.84a.108.108,0,0,0-.034.079l-.474,3.862c0,.076.03.114.09.114h2.868a2.36,2.36,0,0,0,1.694-.644,2.189,2.189,0,0,0,.678-1.66,1.707,1.707,0,0,0-.509-1.3,1.861,1.861,0,0,0-1.343-.486h-2.892a.11.11,0,0,0-.078.034" transform="translate(-64.227 -8.379)" fill="#114a83"/>
      <path id="Path_6414" data-name="Path 6414" d="M280.178,48.574a4.652,4.652,0,0,1-1.389-3.535,6.361,6.361,0,0,1,.068-.88l.588-4.833a6.546,6.546,0,0,1,1.084-2.959,6.039,6.039,0,0,1,2.27-2,6.708,6.708,0,0,1,3.105-.712,5.261,5.261,0,0,1,3.76,1.311,4.558,4.558,0,0,1,1.388,3.478,6.032,6.032,0,0,1-.067.881l-.588,4.833a6.656,6.656,0,0,1-1.083,2.992,6.079,6.079,0,0,1-2.281,2.021,6.707,6.707,0,0,1-3.117.723,5.2,5.2,0,0,1-3.738-1.321m6.121-2.2a3.472,3.472,0,0,0,1-2.1l.61-4.969a3.778,3.778,0,0,0,.023-.474,2.463,2.463,0,0,0-.632-1.784,2.309,2.309,0,0,0-1.74-.654,2.827,2.827,0,0,0-2.033.8,3.382,3.382,0,0,0-.993,2.111l-.611,4.969a3.821,3.821,0,0,0-.022.474,2.426,2.426,0,0,0,.632,1.762,2.272,2.272,0,0,0,1.716.655,2.84,2.84,0,0,0,2.045-.79" transform="translate(-68.916 -8.32)" fill="#114a83"/>
      <path id="Path_6415" data-name="Path 6415" d="M300.269,49.48l-2.01-15.289v-.045a.219.219,0,0,1,.248-.248h2.733a.223.223,0,0,1,.248.226l.949,9.192c.014.061.038.09.068.09s.053-.029.069-.09l3.138-9.169a.351.351,0,0,1,.316-.248h2.665a.235.235,0,0,1,.271.226l1.061,9.192a.07.07,0,0,0,.056.079c.038.008.064-.018.08-.079l3.139-9.169a.349.349,0,0,1,.315-.248h2.575c.2,0,.263.1.2.294L310.929,49.48a.335.335,0,0,1-.339.226h-2.6a.223.223,0,0,1-.248-.226L306.705,39.7c-.015-.059-.034-.09-.056-.09s-.05.031-.08.09L303.3,49.457a.3.3,0,0,1-.316.248h-2.44a.235.235,0,0,1-.271-.226" transform="translate(-73.729 -8.379)" fill="#114a83"/>
      <path id="Path_6416" data-name="Path 6416" d="M323.142,49.627a.215.215,0,0,1-.045-.192l1.874-15.267a.362.362,0,0,1,.1-.192.262.262,0,0,1,.192-.08h2.575a.224.224,0,0,1,.18.08.213.213,0,0,1,.046.192l-1.875,15.267a.373.373,0,0,1-.1.192.261.261,0,0,1-.192.078h-2.575a.225.225,0,0,1-.181-.078" transform="translate(-79.867 -8.379)" fill="#114a83"/>
      <path id="Path_6417" data-name="Path 6417" d="M342.28,33.976a.261.261,0,0,1,.192-.079h2.575a.226.226,0,0,1,.18.079.215.215,0,0,1,.046.192L343.4,49.435a.371.371,0,0,1-.1.192.264.264,0,0,1-.192.079H340.62a.262.262,0,0,1-.27-.181l-4.495-9.666c-.015-.044-.038-.064-.068-.056s-.053.041-.068.1l-1.129,9.53a.362.362,0,0,1-.1.192.261.261,0,0,1-.191.079h-2.575a.226.226,0,0,1-.181-.079.215.215,0,0,1-.044-.192l1.874-15.267a.363.363,0,0,1,.1-.192.259.259,0,0,1,.192-.079h2.484a.306.306,0,0,1,.294.181l4.472,9.621c.014.045.037.064.067.056s.053-.041.068-.1l1.129-9.485a.367.367,0,0,1,.1-.192" transform="translate(-81.944 -8.379)" fill="#114a83"/>
      <path id="Path_6418" data-name="Path 6418" d="M353.355,48.54a4.491,4.491,0,0,1-1.366-3.433,5.75,5.75,0,0,1,.045-.836l.632-5.059a6.518,6.518,0,0,1,1.061-2.913,5.776,5.776,0,0,1,2.236-1.954,6.772,6.772,0,0,1,3.071-.69,5.934,5.934,0,0,1,2.687.577,4.247,4.247,0,0,1,1.774,1.592,4.328,4.328,0,0,1,.621,2.3,6.166,6.166,0,0,1-.046.632l-.022.158a.362.362,0,0,1-.1.192.26.26,0,0,1-.192.079h-2.574a.227.227,0,0,1-.181-.079.215.215,0,0,1-.044-.192l.023-.068a1.714,1.714,0,0,0,.022-.316,2.073,2.073,0,0,0-.609-1.547,2.314,2.314,0,0,0-1.694-.6,2.77,2.77,0,0,0-1.976.757,3.185,3.185,0,0,0-.961,1.976l-.632,5.24a2.816,2.816,0,0,0-.022.407,2.231,2.231,0,0,0,.666,1.683,2.381,2.381,0,0,0,1.728.644,2.859,2.859,0,0,0,1.9-.621,2.548,2.548,0,0,0,.881-1.728l.136-1.016c0-.075-.031-.113-.09-.113H357.86a.224.224,0,0,1-.18-.08.213.213,0,0,1-.045-.191l.248-2.078a.361.361,0,0,1,.1-.192.265.265,0,0,1,.192-.08h5.353a.229.229,0,0,1,.181.08.217.217,0,0,1,.044.192l-.361,2.981a6.152,6.152,0,0,1-2.044,4.087,6.351,6.351,0,0,1-4.3,1.491,5.166,5.166,0,0,1-3.692-1.287" transform="translate(-87.011 -8.32)" fill="#114a83"/>
      <path id="Path_6419" data-name="Path 6419" d="M119.875,64.985A3.986,3.986,0,0,1,121.038,68q0,.226-.045.769a5.525,5.525,0,0,1-.937,2.507,5.145,5.145,0,0,1-1.954,1.682,5.875,5.875,0,0,1-2.665.6h-3.117c-.06,0-.105.038-.136.113l-.7,5.76a.373.373,0,0,1-.1.192.261.261,0,0,1-.192.078h-2.552c-.166,0-.248-.09-.248-.27l1.9-15.29a.248.248,0,0,1,.09-.192.3.3,0,0,1,.2-.078h6.165a4.324,4.324,0,0,1,3.128,1.117m-2.654,5.307a2.414,2.414,0,0,0,.723-1.8,1.78,1.78,0,0,0-.542-1.366,2.028,2.028,0,0,0-1.445-.509h-2.778c-.06,0-.105.038-.136.113l-.5,4.155c-.03.076,0,.113.09.113h2.778a2.472,2.472,0,0,0,1.807-.711" transform="translate(-26.794 -15.788)" fill="#114a83"/>
      <path id="Path_6420" data-name="Path 6420" d="M134.766,79.5,132.8,73.247a.147.147,0,0,0-.136-.09h-2.033a.1.1,0,0,0-.113.113l-.768,6.166a.373.373,0,0,1-.1.192.261.261,0,0,1-.192.078h-2.575a.225.225,0,0,1-.181-.078.216.216,0,0,1-.045-.192l1.874-15.267a.367.367,0,0,1,.1-.192.259.259,0,0,1,.192-.08H135.1a4.139,4.139,0,0,1,3.026,1.085,3.892,3.892,0,0,1,1.107,2.913q0,.226-.045.767a5.038,5.038,0,0,1-1.061,2.631,4.71,4.71,0,0,1-2.258,1.547c-.09.031-.121.083-.09.158l2.191,6.391A.253.253,0,0,1,138,79.5c0,.135-.083.2-.248.2h-2.71a.266.266,0,0,1-.271-.2m-3.421-12.84a.108.108,0,0,0-.034.079l-.474,3.862c0,.076.03.114.09.114h2.868a2.36,2.36,0,0,0,1.694-.644,2.186,2.186,0,0,0,.678-1.66,1.709,1.709,0,0,0-.508-1.3,1.865,1.865,0,0,0-1.344-.486h-2.891a.11.11,0,0,0-.079.034" transform="translate(-31.308 -15.795)" fill="#114a83"/>
      <path id="Path_6421" data-name="Path 6421" d="M145.3,79.627a.215.215,0,0,1-.046-.192l1.875-15.267a.361.361,0,0,1,.1-.192.264.264,0,0,1,.192-.08H150a.225.225,0,0,1,.181.08.213.213,0,0,1,.046.192l-1.874,15.267a.378.378,0,0,1-.1.192.261.261,0,0,1-.192.078h-2.575a.225.225,0,0,1-.18-.078" transform="translate(-35.906 -15.795)" fill="#114a83"/>
      <path id="Path_6422" data-name="Path 6422" d="M157.832,79.48l-2.643-15.267v-.045a.288.288,0,0,1,.069-.192.226.226,0,0,1,.18-.079h2.779a.236.236,0,0,1,.271.226l1.558,11.021q.023.068.068.068c.03,0,.053-.023.069-.068L164.4,64.123a.336.336,0,0,1,.34-.226h2.688a.182.182,0,0,1,.18.09.291.291,0,0,1,0,.226L161.152,79.48a.3.3,0,0,1-.317.226h-2.755a.239.239,0,0,1-.248-.226" transform="translate(-38.362 -15.795)" fill="#114a83"/>
      <path id="Path_6423" data-name="Path 6423" d="M178.713,79.48l-.384-2.213a.11.11,0,0,0-.023-.056.075.075,0,0,0-.068-.033h-5.4c-.045,0-.084.03-.113.09L171.8,79.48a.283.283,0,0,1-.294.226h-2.8a.208.208,0,0,1-.192-.09.223.223,0,0,1,.011-.226l6.617-15.267a.348.348,0,0,1,.316-.226h3.433a.271.271,0,0,1,.271.226l2.846,15.267v.068a.245.245,0,0,1-.069.181.241.241,0,0,1-.181.068h-2.8a.24.24,0,0,1-.248-.226m-4.81-4.765h3.862c.075,0,.113-.045.113-.136l-1.152-6.707c-.016-.06-.038-.087-.068-.079a.107.107,0,0,0-.068.079l-2.755,6.707q-.023.136.068.136" transform="translate(-41.65 -15.795)" fill="#114a83"/>
      <path id="Path_6424" data-name="Path 6424" d="M200.156,63.976a.215.215,0,0,1,.046.192l-.272,2.212a.246.246,0,0,1-.09.193.3.3,0,0,1-.2.079H195.73c-.06,0-.105.037-.135.113l-1.558,12.67a.367.367,0,0,1-.1.192.261.261,0,0,1-.192.079H191.19a.223.223,0,0,1-.18-.079.215.215,0,0,1-.046-.192l1.536-12.67c.03-.076,0-.113-.09-.113h-3.816a.224.224,0,0,1-.181-.079.216.216,0,0,1-.045-.193l.271-2.212a.367.367,0,0,1,.1-.192.261.261,0,0,1,.192-.079h11.044a.226.226,0,0,1,.181.079" transform="translate(-46.562 -15.795)" fill="#114a83"/>
      <path id="Path_6425" data-name="Path 6425" d="M217.119,66.551a.261.261,0,0,1-.192.078h-7.2a.116.116,0,0,0-.113.114l-.429,3.5q0,.113.09.113h4.72a.226.226,0,0,1,.181.079.215.215,0,0,1,.045.192l-.271,2.191a.367.367,0,0,1-.1.192.261.261,0,0,1-.192.079h-4.72a.1.1,0,0,0-.113.113l-.452,3.659q0,.113.09.113h7.182q.248,0,.248.271l-.271,2.191a.378.378,0,0,1-.1.192.261.261,0,0,1-.192.079h-10.14a.226.226,0,0,1-.181-.079.215.215,0,0,1-.045-.192l1.874-15.267a.357.357,0,0,1,.1-.192.261.261,0,0,1,.192-.079h10.118a.261.261,0,0,1,.192.079.2.2,0,0,1,.056.192l-.271,2.191a.367.367,0,0,1-.1.192" transform="translate(-50.663 -15.795)" fill="#114a83"/>
      <path id="Path_6426" data-name="Path 6426" d="M231,78.562a4.412,4.412,0,0,1-1.355-3.388,5.857,5.857,0,0,1,.045-.836l.633-5.217a6.344,6.344,0,0,1,1.061-2.869,5.757,5.757,0,0,1,2.236-1.919,6.869,6.869,0,0,1,3.072-.678,5.373,5.373,0,0,1,3.714,1.22,4.145,4.145,0,0,1,1.368,3.253c0,.166-.017.414-.046.745a.3.3,0,0,1-.294.248l-2.574.158h-.045q-.226,0-.181-.248a2.485,2.485,0,0,0,.023-.384A2.205,2.205,0,0,0,238.038,67a2.3,2.3,0,0,0-1.683-.61,2.817,2.817,0,0,0-1.976.734,2.951,2.951,0,0,0-.937,1.908l-.678,5.442a2.509,2.509,0,0,0-.022.385,2.2,2.2,0,0,0,.609,1.625,2.29,2.29,0,0,0,1.694.611,2.8,2.8,0,0,0,1.965-.723,3.026,3.026,0,0,0,.949-1.9.271.271,0,0,1,.294-.248l2.552.114a.276.276,0,0,1,.181.056.162.162,0,0,1,.045.169,5.725,5.725,0,0,1-3.263,4.608,6.992,6.992,0,0,1-3.06.655,5.214,5.214,0,0,1-3.7-1.265" transform="translate(-56.768 -15.736)" fill="#114a83"/>
      <path id="Path_6427" data-name="Path 6427" d="M249.487,78.574a4.652,4.652,0,0,1-1.389-3.535,6.356,6.356,0,0,1,.068-.88l.588-4.833a6.546,6.546,0,0,1,1.084-2.959,6.039,6.039,0,0,1,2.27-2,6.708,6.708,0,0,1,3.105-.712,5.261,5.261,0,0,1,3.76,1.311,4.558,4.558,0,0,1,1.388,3.478,6.036,6.036,0,0,1-.067.881l-.588,4.833a6.657,6.657,0,0,1-1.083,2.992,6.079,6.079,0,0,1-2.281,2.021,6.707,6.707,0,0,1-3.117.723,5.2,5.2,0,0,1-3.738-1.321m6.121-2.2a3.471,3.471,0,0,0,1-2.1l.61-4.969a3.772,3.772,0,0,0,.023-.474,2.463,2.463,0,0,0-.632-1.784,2.309,2.309,0,0,0-1.74-.654,2.827,2.827,0,0,0-2.033.8,3.382,3.382,0,0,0-.993,2.111l-.611,4.969a3.822,3.822,0,0,0-.022.474,2.426,2.426,0,0,0,.632,1.762,2.272,2.272,0,0,0,1.716.655,2.84,2.84,0,0,0,2.045-.79" transform="translate(-61.329 -15.736)" fill="#114a83"/>
      <path id="Path_6428" data-name="Path 6428" d="M278.659,63.9h2.552a.228.228,0,0,1,.181.079.218.218,0,0,1,.044.192l-1.874,15.268a.251.251,0,0,1-.09.192.3.3,0,0,1-.2.078h-2.552a.223.223,0,0,1-.181-.078.216.216,0,0,1-.045-.192l1.219-9.96c0-.06-.014-.09-.044-.09s-.06.023-.09.068L274.8,73.2a.408.408,0,0,1-.339.181h-1.287a.263.263,0,0,1-.271-.181l-1.875-3.749c-.014-.045-.037-.064-.067-.056s-.053.041-.068.1l-1.22,9.938a.378.378,0,0,1-.1.192.262.262,0,0,1-.192.078H266.8a.223.223,0,0,1-.181-.078.216.216,0,0,1-.045-.192l1.874-15.268a.374.374,0,0,1,.1-.192.26.26,0,0,1,.192-.079h2.575a.262.262,0,0,1,.27.181l2.643,5.262c.045.091.09.091.136,0l3.952-5.262a.408.408,0,0,1,.339-.181" transform="translate(-65.895 -15.795)" fill="#114a83"/>
      <path id="Path_6429" data-name="Path 6429" d="M299.451,64.985A3.984,3.984,0,0,1,300.614,68q0,.226-.044.769a5.526,5.526,0,0,1-.937,2.507,5.156,5.156,0,0,1-1.954,1.682,5.878,5.878,0,0,1-2.665.6H291.9c-.06,0-.1.038-.135.113l-.7,5.76a.379.379,0,0,1-.1.192.261.261,0,0,1-.192.078h-2.551c-.166,0-.248-.09-.248-.27l1.9-15.29a.248.248,0,0,1,.09-.192.3.3,0,0,1,.2-.078h6.165a4.324,4.324,0,0,1,3.128,1.117M296.8,70.292a2.411,2.411,0,0,0,.723-1.8,1.778,1.778,0,0,0-.542-1.366,2.027,2.027,0,0,0-1.445-.509h-2.777c-.061,0-.106.038-.136.113l-.5,4.155c-.03.076,0,.113.09.113h2.779a2.47,2.47,0,0,0,1.806-.711" transform="translate(-71.185 -15.788)" fill="#114a83"/>
      <path id="Path_6430" data-name="Path 6430" d="M313.771,79.48l-.384-2.213a.117.117,0,0,0-.023-.056.075.075,0,0,0-.068-.033h-5.4c-.045,0-.084.03-.114.09l-.925,2.213a.284.284,0,0,1-.294.226h-2.8a.208.208,0,0,1-.192-.09.224.224,0,0,1,.011-.226L310.2,64.123a.349.349,0,0,1,.317-.226h3.433a.271.271,0,0,1,.271.226l2.846,15.267v.068a.233.233,0,0,1-.249.248h-2.8a.24.24,0,0,1-.248-.226m-4.81-4.765h3.862c.075,0,.113-.045.113-.136l-1.152-6.707q-.024-.09-.068-.079c-.031.008-.053.035-.068.079l-2.755,6.707q-.023.136.068.136" transform="translate(-75.036 -15.795)" fill="#114a83"/>
      <path id="Path_6431" data-name="Path 6431" d="M335.619,63.976a.261.261,0,0,1,.192-.079h2.575a.225.225,0,0,1,.18.079.215.215,0,0,1,.046.192l-1.875,15.267a.371.371,0,0,1-.1.192.264.264,0,0,1-.192.079h-2.485a.262.262,0,0,1-.27-.181l-4.495-9.666c-.015-.044-.038-.064-.068-.056s-.053.041-.068.1l-1.129,9.53a.362.362,0,0,1-.1.192.261.261,0,0,1-.191.079h-2.575a.227.227,0,0,1-.181-.079.215.215,0,0,1-.044-.192l1.874-15.267a.363.363,0,0,1,.1-.192A.259.259,0,0,1,327,63.9h2.484a.305.305,0,0,1,.294.181l4.472,9.621c.014.045.037.064.067.056s.053-.041.068-.1l1.129-9.485a.367.367,0,0,1,.1-.192" transform="translate(-80.297 -15.795)" fill="#114a83"/>
      <path id="Path_6432" data-name="Path 6432" d="M345.01,79.627a.215.215,0,0,1-.045-.192l1.874-15.267a.362.362,0,0,1,.1-.192.262.262,0,0,1,.192-.08h2.575a.224.224,0,0,1,.18.08.213.213,0,0,1,.046.192l-1.875,15.267a.372.372,0,0,1-.1.192.261.261,0,0,1-.192.078h-2.575a.225.225,0,0,1-.181-.078" transform="translate(-85.273 -15.795)" fill="#114a83"/>
      <path id="Path_6433" data-name="Path 6433" d="M365.527,66.551a.261.261,0,0,1-.192.078h-7.2a.113.113,0,0,0-.079.034.111.111,0,0,0-.034.08l-.429,3.5q0,.113.09.113H362.4a.225.225,0,0,1,.18.079.215.215,0,0,1,.046.192l-.272,2.191a.367.367,0,0,1-.1.192.261.261,0,0,1-.191.079H357.34a.1.1,0,0,0-.112.113l-.452,3.659q0,.113.09.113h7.182q.248,0,.248.271l-.271,2.191a.367.367,0,0,1-.1.192.261.261,0,0,1-.192.079h-10.14a.226.226,0,0,1-.181-.079.215.215,0,0,1-.044-.192l1.874-15.267a.358.358,0,0,1,.1-.192.259.259,0,0,1,.192-.079h10.117a.261.261,0,0,1,.192.079.2.2,0,0,1,.056.192l-.271,2.191a.367.367,0,0,1-.1.192" transform="translate(-87.349 -15.795)" fill="#114a83"/>
      <path id="Path_6434" data-name="Path 6434" d="M372.448,78.72a3.614,3.614,0,0,1-1.411-3,6.11,6.11,0,0,1,.046-.61l.067-.5a.364.364,0,0,1,.1-.192.261.261,0,0,1,.192-.079h2.507a.225.225,0,0,1,.181.079.214.214,0,0,1,.045.192l-.045.338a1.631,1.631,0,0,0,.622,1.525,3.181,3.181,0,0,0,2.111.621,2.818,2.818,0,0,0,1.908-.565,1.764,1.764,0,0,0,.644-1.378,1.159,1.159,0,0,0-.327-.836,2.977,2.977,0,0,0-.881-.6q-.553-.259-1.75-.733A18.794,18.794,0,0,1,374.244,72a4.58,4.58,0,0,1-1.514-1.3,3.255,3.255,0,0,1-.61-2.01q0-.158.045-.565a4.586,4.586,0,0,1,1.874-3.263,7.27,7.27,0,0,1,6.741-.678,4.207,4.207,0,0,1,1.829,1.491,3.939,3.939,0,0,1,.644,2.247q0,.181-.045.586l-.045.34a.371.371,0,0,1-.1.192.264.264,0,0,1-.192.079h-2.53a.227.227,0,0,1-.181-.079.215.215,0,0,1-.044-.192l.023-.181a1.864,1.864,0,0,0-.554-1.614,2.713,2.713,0,0,0-2-.666,2.8,2.8,0,0,0-1.762.508,1.662,1.662,0,0,0-.655,1.389,1.178,1.178,0,0,0,.316.836,3.069,3.069,0,0,0,.937.632q.621.294,1.886.79,1.4.565,2.18.96A4.345,4.345,0,0,1,381.9,72.69a3.089,3.089,0,0,1,.632,1.988c0,.105-.016.294-.046.565a4.746,4.746,0,0,1-1.93,3.354,6.921,6.921,0,0,1-4.235,1.231,6.129,6.129,0,0,1-3.874-1.107" transform="translate(-91.719 -15.736)" fill="#114a83"/>
      <path id="Path_6435" data-name="Path 6435" d="M257.558,94.6H259l-.807,5.782h-1.445Zm.072-1.963a.972.972,0,0,1,.343-.609,1.022,1.022,0,0,1,.693-.258.852.852,0,0,1,.639.247.682.682,0,0,1,.18.62.98.98,0,0,1-.361.62,1.066,1.066,0,0,1-.7.246.776.776,0,0,1-.621-.258.735.735,0,0,1-.175-.608" transform="translate(-63.468 -22.686)" fill="#9b9b9b"/>
      <path id="Path_6436" data-name="Path 6436" d="M261.926,95.486H263.3l-.132.927h.025a2.481,2.481,0,0,1,.734-.753,2.082,2.082,0,0,1,1.192-.318,2.115,2.115,0,0,1,.958.192,1.485,1.485,0,0,1,.584.506,1.664,1.664,0,0,1,.253.723,3.4,3.4,0,0,1-.013.855l-.505,3.65h-1.445l.41-2.928a5.068,5.068,0,0,0,.048-.536,1.943,1.943,0,0,0-.054-.553.86.86,0,0,0-.259-.434.817.817,0,0,0-.566-.175,1.509,1.509,0,0,0-.626.12,1.367,1.367,0,0,0-.452.326,1.676,1.676,0,0,0-.3.469,2.009,2.009,0,0,0-.151.554l-.434,3.157h-1.445Z" transform="translate(-64.548 -23.568)" fill="#9b9b9b"/>
      <path id="Path_6437" data-name="Path 6437" d="M275.471,96.212l.169-1.229h1.192l.228-1.673h1.445l-.228,1.673h1.59l-.169,1.229h-1.589l-.362,2.529a1.2,1.2,0,0,0,.066.687c.085.169.288.253.609.253a2.453,2.453,0,0,0,.427-.041,1,1,0,0,0,.38-.139l-.169,1.217a2.015,2.015,0,0,1-.578.151,4.884,4.884,0,0,1-.59.041,2.776,2.776,0,0,1-.928-.126,1.023,1.023,0,0,1-.523-.385,1.28,1.28,0,0,1-.2-.645,4.394,4.394,0,0,1,.049-.891l.373-2.65Z" transform="translate(-68.096 -23.066)" fill="#9b9b9b"/>
      <path id="Path_6438" data-name="Path 6438" d="M284.142,95.248h.024a2.055,2.055,0,0,1,.687-.656,2.414,2.414,0,0,1,2.1-.1,1.488,1.488,0,0,1,.585.506,1.671,1.671,0,0,1,.253.723,3.4,3.4,0,0,1-.013.855l-.506,3.65h-1.445l.41-2.927a5.056,5.056,0,0,0,.049-.536,1.949,1.949,0,0,0-.055-.554.86.86,0,0,0-.258-.434.821.821,0,0,0-.566-.175,1.507,1.507,0,0,0-.626.12,1.349,1.349,0,0,0-.452.326,1.639,1.639,0,0,0-.3.469,2.036,2.036,0,0,0-.151.554l-.434,3.156H282l1.278-9.106h1.445Z" transform="translate(-69.709 -22.524)" fill="#9b9b9b"/>
      <path id="Path_6439" data-name="Path 6439" d="M292.927,98.882a1.393,1.393,0,0,0,.091.578,1.2,1.2,0,0,0,.283.428,1.247,1.247,0,0,0,.434.271,1.525,1.525,0,0,0,.553.1,1.92,1.92,0,0,0,.946-.223,2.887,2.887,0,0,0,.716-.559l.928.782a3.541,3.541,0,0,1-1.253.891,3.594,3.594,0,0,1-1.349.265,3.225,3.225,0,0,1-1.2-.217,2.448,2.448,0,0,1-.915-.614,2.394,2.394,0,0,1-.536-.958,2.9,2.9,0,0,1-.073-1.246,3.4,3.4,0,0,1,.422-1.247,3.513,3.513,0,0,1,.806-.958,3.6,3.6,0,0,1,1.09-.614,3.726,3.726,0,0,1,1.259-.217,2.183,2.183,0,0,1,1.843.813,3.055,3.055,0,0,1,.422,2.331l-.06.4Zm3.12-1.084a1.187,1.187,0,0,0-.254-1.006,1.323,1.323,0,0,0-1.023-.367,1.608,1.608,0,0,0-1.085.373,1.951,1.951,0,0,0-.6,1Z" transform="translate(-72.063 -23.568)" fill="#9b9b9b"/>
      <path id="Path_6440" data-name="Path 6440" d="M307.1,91.116h1.445l-.578,4.06H308a2.682,2.682,0,0,1,.325-.3,2.894,2.894,0,0,1,.452-.283,2.831,2.831,0,0,1,.584-.216,2.92,2.92,0,0,1,.735-.084,2.47,2.47,0,0,1,1.1.234,2.2,2.2,0,0,1,.795.645,2.4,2.4,0,0,1,.434.964,3.463,3.463,0,0,1,.036,1.192,4.1,4.1,0,0,1-.367,1.192,3.449,3.449,0,0,1-.693.963,3.1,3.1,0,0,1-.988.645,3.178,3.178,0,0,1-1.229.234,2.493,2.493,0,0,1-1.107-.24,1.53,1.53,0,0,1-.735-.771h-.024l-.12.867h-1.373Zm3.915,6.216a1.772,1.772,0,0,0-.024-.65,1.416,1.416,0,0,0-.259-.555,1.361,1.361,0,0,0-.483-.385,1.552,1.552,0,0,0-.693-.145,1.8,1.8,0,0,0-.728.145,2.018,2.018,0,0,0-.584.385,2.093,2.093,0,0,0-.416.555,2.008,2.008,0,0,0-.211.65,1.751,1.751,0,0,0,.024.65,1.4,1.4,0,0,0,.259.555,1.344,1.344,0,0,0,.482.385,1.557,1.557,0,0,0,.693.145,1.84,1.84,0,0,0,.734-.145,1.959,1.959,0,0,0,1-.939,2.126,2.126,0,0,0,.2-.65" transform="translate(-75.598 -22.524)" fill="#9b9b9b"/>
      <path id="Path_6441" data-name="Path 6441" d="M319.8,100.472h-.036a2.3,2.3,0,0,1-.9.717,2.767,2.767,0,0,1-1.855.114,1.788,1.788,0,0,1-.633-.324,1.351,1.351,0,0,1-.4-.543,1.463,1.463,0,0,1-.073-.759,1.821,1.821,0,0,1,.519-1.1,2.743,2.743,0,0,1,1-.608,4.682,4.682,0,0,1,1.223-.254q.644-.047,1.186-.048h.361l.012-.157a.807.807,0,0,0-.253-.813,1.42,1.42,0,0,0-.915-.271,2.407,2.407,0,0,0-.879.163,2.536,2.536,0,0,0-.748.44l-.65-.76a3.281,3.281,0,0,1,1.223-.711,4.482,4.482,0,0,1,1.367-.217,3.191,3.191,0,0,1,1.018.139,1.9,1.9,0,0,1,.65.356,1.254,1.254,0,0,1,.356.5,2.09,2.09,0,0,1,.133.571,2.958,2.958,0,0,1-.006.561c-.02.18-.038.339-.054.475l-.458,3.324h-1.3Zm.169-1.795h-.3q-.3,0-.681.024a3.754,3.754,0,0,0-.723.115,1.893,1.893,0,0,0-.6.264.7.7,0,0,0-.3.489.588.588,0,0,0,.047.343.686.686,0,0,0,.206.234.849.849,0,0,0,.3.139,1.409,1.409,0,0,0,.349.042,1.709,1.709,0,0,0,1.156-.355,1.5,1.5,0,0,0,.494-.969Z" transform="translate(-78.087 -23.568)" fill="#9b9b9b"/>
      <path id="Path_6442" data-name="Path 6442" d="M324.657,95.533h1.589l1.049,4.011h.023l2.012-4.011h1.506l-3.722,7.022a5.607,5.607,0,0,1-.446.717,2.521,2.521,0,0,1-.513.519,1.984,1.984,0,0,1-.638.313,3.066,3.066,0,0,1-.838.1,3.928,3.928,0,0,1-1.083-.145l.361-1.3c.113.039.227.074.343.1a1.585,1.585,0,0,0,.368.042,1.853,1.853,0,0,0,.451-.047.936.936,0,0,0,.326-.151,1.166,1.166,0,0,0,.253-.264,3.624,3.624,0,0,0,.234-.392l.373-.687Z" transform="translate(-79.992 -23.615)" fill="#9b9b9b"/>
      <path id="Path_6443" data-name="Path 6443" d="M342.152,100.472h-.035a2.31,2.31,0,0,1-.9.717,2.767,2.767,0,0,1-1.855.114,1.785,1.785,0,0,1-.632-.324,1.352,1.352,0,0,1-.4-.543,1.463,1.463,0,0,1-.072-.759,1.817,1.817,0,0,1,.518-1.1,2.749,2.749,0,0,1,1-.608A4.7,4.7,0,0,1,341,97.714q.645-.047,1.186-.048h.362l.011-.157a.806.806,0,0,0-.253-.813,1.419,1.419,0,0,0-.915-.271,2.4,2.4,0,0,0-.879.163,2.518,2.518,0,0,0-.748.44l-.65-.76a3.286,3.286,0,0,1,1.223-.711,4.483,4.483,0,0,1,1.368-.217,3.186,3.186,0,0,1,1.017.139,1.9,1.9,0,0,1,.65.356,1.252,1.252,0,0,1,.355.5,2.065,2.065,0,0,1,.133.571,3.022,3.022,0,0,1-.007.561c-.02.18-.038.339-.053.475l-.458,3.324h-1.3Zm.169-1.795h-.3q-.3,0-.681.024a3.754,3.754,0,0,0-.723.115,1.9,1.9,0,0,0-.6.264.7.7,0,0,0-.3.489.582.582,0,0,0,.048.343.678.678,0,0,0,.206.234.845.845,0,0,0,.3.139,1.413,1.413,0,0,0,.349.042,1.708,1.708,0,0,0,1.156-.355,1.505,1.505,0,0,0,.495-.969Z" transform="translate(-83.613 -23.568)" fill="#9b9b9b"/>
      <path id="Path_6444" data-name="Path 6444" d="M348.132,95.486h1.445l-.133.916h.024a2.228,2.228,0,0,1,.8-.783,2.12,2.12,0,0,1,1.066-.277,1.259,1.259,0,0,1,.253.024c.08.016.165.036.253.06l-.206,1.4a3.436,3.436,0,0,0-.336-.078,1.9,1.9,0,0,0-.337-.03,1.717,1.717,0,0,0-.843.187,1.831,1.831,0,0,0-.536.427,1.583,1.583,0,0,0-.283.483,1.746,1.746,0,0,0-.1.361l-.434,3.1h-1.445Z" transform="translate(-85.858 -23.568)" fill="#9b9b9b"/>
      <path id="Path_6445" data-name="Path 6445" d="M355.006,98.882a1.406,1.406,0,0,0,.09.578,1.206,1.206,0,0,0,.283.428,1.253,1.253,0,0,0,.434.271,1.533,1.533,0,0,0,.554.1,1.917,1.917,0,0,0,.945-.223,2.876,2.876,0,0,0,.717-.559l.927.782a3.545,3.545,0,0,1-1.253.891,3.6,3.6,0,0,1-1.349.265,3.229,3.229,0,0,1-1.2-.217,2.448,2.448,0,0,1-.915-.614,2.412,2.412,0,0,1-.536-.958,2.889,2.889,0,0,1-.072-1.246,3.391,3.391,0,0,1,.422-1.247,3.515,3.515,0,0,1,.807-.958,3.594,3.594,0,0,1,1.09-.614,3.72,3.72,0,0,1,1.259-.217,2.183,2.183,0,0,1,1.843.813,3.055,3.055,0,0,1,.422,2.331l-.06.4Zm3.12-1.084a1.186,1.186,0,0,0-.253-1.006,1.325,1.325,0,0,0-1.024-.367,1.606,1.606,0,0,0-1.084.373,1.946,1.946,0,0,0-.6,1Z" transform="translate(-87.408 -23.568)" fill="#9b9b9b"/>
      <path id="Path_6446" data-name="Path 6446" d="M366.584,100.472h-.036a2.3,2.3,0,0,1-.9.717,2.767,2.767,0,0,1-1.855.114,1.789,1.789,0,0,1-.633-.324,1.351,1.351,0,0,1-.4-.543,1.463,1.463,0,0,1-.073-.759,1.821,1.821,0,0,1,.519-1.1,2.743,2.743,0,0,1,1-.608,4.682,4.682,0,0,1,1.223-.254q.644-.047,1.186-.048h.361l.012-.157a.807.807,0,0,0-.253-.813,1.42,1.42,0,0,0-.915-.271,2.407,2.407,0,0,0-.879.163,2.537,2.537,0,0,0-.747.44l-.65-.76a3.281,3.281,0,0,1,1.223-.711,4.482,4.482,0,0,1,1.367-.217,3.191,3.191,0,0,1,1.018.139,1.9,1.9,0,0,1,.65.356,1.254,1.254,0,0,1,.356.5,2.09,2.09,0,0,1,.133.571,2.961,2.961,0,0,1-.006.561c-.02.18-.038.339-.054.475l-.458,3.324h-1.3Zm.169-1.795h-.3q-.3,0-.681.024a3.753,3.753,0,0,0-.723.115,1.893,1.893,0,0,0-.6.264.7.7,0,0,0-.3.489.588.588,0,0,0,.047.343.686.686,0,0,0,.205.234.849.849,0,0,0,.3.139,1.409,1.409,0,0,0,.349.042,1.709,1.709,0,0,0,1.156-.355A1.5,1.5,0,0,0,366.7,99Z" transform="translate(-89.652 -23.568)" fill="#9b9b9b"/>
      <path id="Path_6447" data-name="Path 6447" d="M8.881,28.86h7.551a.642.642,0,0,1,.512.224.611.611,0,0,1,.128.544L11.76,72.884a1.034,1.034,0,0,1-.288.544.739.739,0,0,1-.544.224H3.634a.638.638,0,0,1-.512-.224.608.608,0,0,1-.128-.544L7.281,37.946a.232.232,0,0,0-.032-.256.165.165,0,0,0-.224-.063L1.394,38.714l-.32.064q-.576,0-.448-.7l.512-5.5a1.2,1.2,0,0,1,.64-.9l6.143-2.624a3.158,3.158,0,0,1,.96-.192" transform="translate(-0.149 -7.134)" fill="#f6dd17"/>
      <path id="Path_6448" data-name="Path 6448" d="M25.645,71.074a11.134,11.134,0,0,1-3.168-8.382,16.539,16.539,0,0,1,.128-2.368l2.24-18.557a15.549,15.549,0,0,1,4.9-10.013A14.712,14.712,0,0,1,40.01,28.01q5.568,0,8.766,3.1a11.182,11.182,0,0,1,3.2,8.415q0,.7-.128,2.239l-2.24,18.557A15.873,15.873,0,0,1,44.649,70.4a14.72,14.72,0,0,1-10.27,3.743q-5.566,0-8.734-3.071M38.954,64.9a6.73,6.73,0,0,0,1.823-4.063L43.145,41.32a7.106,7.106,0,0,0,.064-1.089A4.6,4.6,0,0,0,42.122,37a3.97,3.97,0,0,0-3.072-1.183,4.929,4.929,0,0,0-3.615,1.5,6.37,6.37,0,0,0-1.76,4L31.243,60.836a5.29,5.29,0,0,0-.064.96,4.93,4.93,0,0,0,1.089,3.36A3.782,3.782,0,0,0,35.275,66.4a5.006,5.006,0,0,0,3.68-1.5" transform="translate(-5.556 -6.924)" fill="#f6dd17"/>
      <path id="Path_6449" data-name="Path 6449" d="M66.1,71.074a11.134,11.134,0,0,1-3.168-8.382,16.54,16.54,0,0,1,.128-2.368L65.3,41.767a15.549,15.549,0,0,1,4.9-10.013,14.712,14.712,0,0,1,10.27-3.744q5.568,0,8.766,3.1a11.182,11.182,0,0,1,3.2,8.415q0,.7-.128,2.239l-2.24,18.557A15.873,15.873,0,0,1,85.108,70.4a14.72,14.72,0,0,1-10.27,3.743q-5.566,0-8.734-3.071M79.413,64.9a6.73,6.73,0,0,0,1.823-4.063L83.6,41.32a7.107,7.107,0,0,0,.064-1.089A4.6,4.6,0,0,0,82.581,37a3.97,3.97,0,0,0-3.072-1.183,4.929,4.929,0,0,0-3.615,1.5,6.37,6.37,0,0,0-1.76,4L71.7,60.836a5.291,5.291,0,0,0-.064.96,4.93,4.93,0,0,0,1.089,3.36A3.782,3.782,0,0,0,75.734,66.4a5.006,5.006,0,0,0,3.68-1.5" transform="translate(-15.558 -6.924)" fill="#f6dd17"/>
    </g>
  </g>
</svg>
