<svg id="Group_844" data-name="Group 844" xmlns="http://www.w3.org/2000/svg" xmlns:xlink="http://www.w3.org/1999/xlink" width="387.267" height="107.053" viewBox="0 0 387.267 107.053">
  <defs>
    <clipPath id="clip-path">
      <rect id="Rectangle_869" data-name="Rectangle 869" width="387.267" height="107.053" transform="translate(0 0)" fill="none"/>
    </clipPath>
  </defs>
  <rect id="Rectangle_865" data-name="Rectangle 865" width="140.074" height="17.622" transform="translate(0 0)" fill="#aa2b32"/>
  <g id="Group_843" data-name="Group 843">
    <g id="Group_842" data-name="Group 842" clip-path="url(#clip-path)">
      <path id="Path_6450" data-name="Path 6450" d="M5.02,10.656v.535c0,1.041.376,1.591,1.128,1.591.767,0,1.128-.477,1.128-1.837A2.6,2.6,0,0,0,6,8.459C4.978,7.663,4.471,7.2,4.471,5.784c0-1.186.362-2.285,1.72-2.27,1.2,0,1.648.751,1.648,2.1v.4H7.132v-.39c0-.883-.189-1.49-.955-1.49-.8,0-1,.694-1,1.533a2.131,2.131,0,0,0,1.128,2.1c1.272.984,1.676,1.5,1.676,3.1,0,1.358-.318,2.544-1.836,2.544-1.387,0-1.835-.94-1.835-2.212v-.535Z" fill="#fff"/>
      <path id="Path_6451" data-name="Path 6451" d="M10.222,9.861l-.548,3.426H8.965l1.6-9.658H11.6l1.677,9.658h-.753l-.578-3.426Zm1.62-.651c-.419-2.458-.679-4.164-.766-4.959h-.029c-.029.708-.419,2.964-.722,4.959Z" fill="#fff"/>
      <path id="Path_6452" data-name="Path 6452" d="M14.443,13.287V3.629h.881l1.895,6.608a15.039,15.039,0,0,1,.39,1.72h.029c-.043-1.374-.072-2.733-.072-4.294V3.629h.694v9.658h-.853L15.3,5.769a8.958,8.958,0,0,1-.246-1.1h-.014c.057,1.157.1,2.863.1,4.612v4.005Z" fill="#fff"/>
      <path id="Path_6453" data-name="Path 6453" d="M22.334,3.629h3.094V4.28H23.043V7.851H25.27V8.5H23.043v4.785h-.709Z" fill="#fff"/>
      <path id="Path_6454" data-name="Path 6454" d="M26.584,3.63h1.43c1.446,0,2.054.65,2.054,2.154v.491c0,1.186-.362,1.836-.984,2.039.636.2.9.709.9,1.981a24.208,24.208,0,0,0,.1,2.993h-.694a24.371,24.371,0,0,1-.1-2.921c0-1.3-.2-1.72-1.213-1.72h-.782v4.641h-.707Zm.707,4.395h.839c1.012,0,1.215-.694,1.215-1.721V5.813c0-.983-.3-1.562-1.36-1.562h-.694Z" fill="#fff"/>
      <path id="Path_6455" data-name="Path 6455" d="M32.421,9.861l-.548,3.426h-.709l1.605-9.658H33.8l1.677,9.658H34.72l-.578-3.426Zm1.62-.651c-.419-2.458-.679-4.164-.766-4.959h-.029c-.029.708-.419,2.964-.722,4.959Z" fill="#fff"/>
      <path id="Path_6456" data-name="Path 6456" d="M36.642,13.287V3.629h.881l1.9,6.608a15.263,15.263,0,0,1,.39,1.72h.029c-.043-1.374-.072-2.733-.072-4.294V3.629h.694v9.658h-.853L37.495,5.769a8.958,8.958,0,0,1-.246-1.1h-.014c.057,1.157.1,2.863.1,4.612v4.005Z" fill="#fff"/>
      <path id="Path_6457" data-name="Path 6457" d="M45.632,10.6v.288c0,1.317-.246,2.516-1.793,2.516-1.589,0-1.807-1.229-1.807-2.6V5.855c0-1.59.65-2.342,1.807-2.342,1.489,0,1.75,1.113,1.75,2.328v.332h-.738V5.826c0-.838-.1-1.662-1.027-1.662-.882,0-1.07.722-1.07,1.706v4.944c0,1.2.275,1.952,1.1,1.952.912,0,1.041-.81,1.041-1.865v-.3Z" fill="#fff"/>
      <rect id="Rectangle_866" data-name="Rectangle 866" width="0.708" height="9.658" transform="translate(46.989 3.629)" fill="#fff"/>
      <path id="Path_6458" data-name="Path 6458" d="M49.779,10.656v.535c0,1.041.376,1.591,1.127,1.591.766,0,1.128-.477,1.128-1.837a2.6,2.6,0,0,0-1.272-2.486c-1.027-.8-1.533-1.259-1.533-2.675,0-1.186.361-2.285,1.721-2.27,1.2,0,1.648.751,1.648,2.1v.4h-.709v-.39c0-.883-.187-1.49-.954-1.49-.794,0-1,.694-1,1.533a2.133,2.133,0,0,0,1.127,2.1c1.272.984,1.678,1.5,1.678,3.1,0,1.358-.319,2.544-1.837,2.544-1.388,0-1.836-.94-1.836-2.212v-.535Z" fill="#fff"/>
      <path id="Path_6459" data-name="Path 6459" d="M57.67,10.6v.288c0,1.317-.246,2.516-1.792,2.516-1.592,0-1.809-1.229-1.809-2.6V5.855c0-1.59.651-2.342,1.809-2.342,1.489,0,1.748,1.113,1.748,2.328v.332h-.738V5.826c0-.838-.1-1.662-1.025-1.662-.882,0-1.07.722-1.07,1.706v4.944c0,1.2.275,1.952,1.1,1.952.91,0,1.041-.81,1.041-1.865v-.3Z" fill="#fff"/>
      <path id="Path_6460" data-name="Path 6460" d="M62.744,5.87v5.119c0,1.59-.636,2.414-1.938,2.414-1.445,0-1.879-.983-1.879-2.414v-5.1c0-1.5.621-2.371,1.923-2.371,1.4,0,1.894,1.055,1.894,2.356m-3.094.015V11c0,1.286.462,1.763,1.186,1.763.765,0,1.185-.477,1.185-1.821V5.9c0-1.2-.434-1.736-1.2-1.736-.795,0-1.171.506-1.171,1.721" fill="#fff"/>
      <path id="Path_6461" data-name="Path 6461" d="M66.528,3.629h1.851c1.605,0,2.212.781,2.212,2.154v.391c0,1.359-.448,1.764-.9,1.952.477.159,1.084.564,1.084,1.937v.723c0,1.648-.636,2.5-2.3,2.5H66.528ZM68.263,7.62c.853,0,1.1-.29,1.1-1.316V5.9c0-.824-.289-1.186-1.056-1.186h-.52V7.62Zm-.477,4.6h.55c.925,0,1.171-.433,1.171-1.46v-.665c0-.983-.3-1.4-1.244-1.4h-.477Z" fill="#fff"/>
      <path id="Path_6462" data-name="Path 6462" d="M73.35,3.629v7.418c0,.737.245,1.2.882,1.2.665,0,.882-.477.882-1.2V3.629H76.4v7.388c0,1.5-.679,2.4-2.182,2.4-1.461,0-2.169-.8-2.169-2.386v-7.4Z" fill="#fff"/>
      <path id="Path_6463" data-name="Path 6463" d="M78.856,10.5v.578c0,.8.261,1.244.868,1.244.636,0,.838-.535.838-1.345,0-1.07-.231-1.446-1.272-2.255s-1.575-1.331-1.575-2.748c0-1.257.375-2.487,2.023-2.487S81.7,4.627,81.7,5.754v.478H80.417V5.784c0-.724-.129-1.186-.693-1.186s-.709.491-.709,1.186c0,.766.144,1.113,1.012,1.749,1.4,1.041,1.837,1.648,1.837,3.253,0,1.359-.448,2.632-2.169,2.632-1.692,0-2.125-1.085-2.125-2.357V10.5Z" fill="#fff"/>
      <rect id="Rectangle_867" data-name="Rectangle 867" width="1.301" height="9.658" transform="translate(83.134 3.629)" fill="#fff"/>
      <path id="Path_6464" data-name="Path 6464" d="M86.082,13.287V3.629H87.6l1.417,5.35a16.283,16.283,0,0,1,.376,1.72h.029c-.073-1.243-.073-2.6-.073-4.179V3.629h1.2v9.658H89.089l-1.59-6.1c-.13-.506-.2-.911-.261-1.2h-.014c.059,1.172.073,2.575.073,4.324v2.978Z" fill="#fff"/>
      <path id="Path_6465" data-name="Path 6465" d="M95.622,8.762h-2.14V12.1h2.443l-.158,1.185H92.181V3.629h3.557v1.2H93.482V7.576h2.14Z" fill="#fff"/>
      <path id="Path_6466" data-name="Path 6466" d="M98.062,10.5v.578c0,.8.26,1.244.867,1.244.637,0,.84-.535.84-1.345,0-1.07-.232-1.446-1.273-2.255S96.92,7.388,96.92,5.971c0-1.257.375-2.487,2.024-2.487s1.966,1.143,1.966,2.27v.478H99.624V5.784c0-.724-.13-1.186-.695-1.186s-.707.491-.707,1.186c0,.766.144,1.113,1.011,1.749,1.4,1.041,1.836,1.648,1.836,3.253,0,1.359-.448,2.632-2.168,2.632-1.692,0-2.126-1.085-2.126-2.357V10.5Z" fill="#fff"/>
      <path id="Path_6467" data-name="Path 6467" d="M103.4,10.5v.578c0,.8.259,1.244.866,1.244.637,0,.84-.535.84-1.345,0-1.07-.232-1.446-1.273-2.255s-1.576-1.331-1.576-2.748c0-1.257.375-2.487,2.024-2.487s1.966,1.143,1.966,2.27v.478h-1.286V5.784c0-.724-.13-1.186-.695-1.186s-.707.491-.707,1.186c0,.766.144,1.113,1.011,1.749,1.4,1.041,1.836,1.648,1.836,3.253,0,1.359-.448,2.632-2.168,2.632-1.692,0-2.126-1.085-2.126-2.357V10.5Z" fill="#fff"/>
      <path id="Path_6468" data-name="Path 6468" d="M110.751,4.829H109.19v-1.2H113.6v1.2h-1.561v8.458h-1.286Z" fill="#fff"/>
      <rect id="Rectangle_868" data-name="Rectangle 868" width="1.302" height="9.658" transform="translate(114.551 3.629)" fill="#fff"/>
      <path id="Path_6469" data-name="Path 6469" d="M122.343,9.514c0-1.706.029-3.687.058-4.757h-.015c-.231,1.648-.852,5.7-1.315,8.531h-1.229c-.347-2.5-.983-6.8-1.2-8.545h-.029c.029,1.128.072,3.311.072,4.974v3.571H117.5V3.63h1.923c.448,2.617.941,5.711,1.07,7.012h.015c.145-1.3.766-4.54,1.214-7.012h1.866v9.658h-1.244Z" fill="#fff"/>
      <path id="Path_6470" data-name="Path 6470" d="M128.658,8.762h-2.14V12.1h2.443l-.158,1.185h-3.586V3.629h3.557v1.2h-2.256V7.576h2.14Z" fill="#fff"/>
      <path id="Path_6471" data-name="Path 6471" d="M131.1,10.5v.578c0,.8.26,1.244.867,1.244.636,0,.839-.535.839-1.345,0-1.07-.231-1.446-1.272-2.255s-1.576-1.331-1.576-2.748c0-1.257.375-2.487,2.024-2.487s1.965,1.143,1.965,2.27v.478H132.66V5.784c0-.724-.13-1.186-.694-1.186s-.708.491-.708,1.186c0,.766.144,1.113,1.012,1.749,1.4,1.041,1.836,1.648,1.836,3.253,0,1.359-.448,2.632-2.169,2.632-1.692,0-2.125-1.085-2.125-2.357V10.5Z" fill="#fff"/>
      <path id="Path_6472" data-name="Path 6472" d="M124.666,37.422a.346.346,0,0,1-.255.1h-9.54a.154.154,0,0,0-.15.151l-.57,4.65q0,.15.12.15h6.27a.3.3,0,0,1,.24.1.286.286,0,0,1,.06.255l-.36,2.91a.488.488,0,0,1-.135.255.347.347,0,0,1-.255.1h-6.27a.133.133,0,0,0-.15.15l-1.02,8.28a.488.488,0,0,1-.135.255.347.347,0,0,1-.255.1h-3.42a.3.3,0,0,1-.24-.1.286.286,0,0,1-.06-.255l2.49-20.28a.488.488,0,0,1,.135-.255.347.347,0,0,1,.255-.1h13.44a.3.3,0,0,1,.24.1.286.286,0,0,1,.06.255l-.36,2.91a.488.488,0,0,1-.135.255" fill="#114a83"/>
      <path id="Path_6473" data-name="Path 6473" d="M135.811,54.6l-.51-2.94a.146.146,0,0,0-.03-.075.1.1,0,0,0-.09-.044h-7.17c-.06,0-.11.04-.15.119l-1.23,2.94a.377.377,0,0,1-.39.3h-3.72a.277.277,0,0,1-.255-.12.3.3,0,0,1,.015-.3l8.79-20.28a.462.462,0,0,1,.42-.3h4.56a.36.36,0,0,1,.36.3l3.78,20.28v.09a.324.324,0,0,1-.09.24.32.32,0,0,1-.24.09h-3.72a.319.319,0,0,1-.33-.3m-6.39-6.33h5.13c.1,0,.15-.06.15-.18l-1.53-8.91c-.021-.08-.05-.115-.09-.1a.14.14,0,0,0-.09.1l-3.66,8.91q-.03.18.09.18" fill="#114a83"/>
      <path id="Path_6474" data-name="Path 6474" d="M143.986,53.667a4.8,4.8,0,0,1-1.875-3.99,8.038,8.038,0,0,1,.06-.81l.09-.66a.47.47,0,0,1,.135-.255.344.344,0,0,1,.255-.1h3.33a.3.3,0,0,1,.24.1.288.288,0,0,1,.06.255l-.06.449a2.167,2.167,0,0,0,.826,2.026,4.224,4.224,0,0,0,2.8.825,3.744,3.744,0,0,0,2.535-.75,2.346,2.346,0,0,0,.855-1.83,1.543,1.543,0,0,0-.435-1.111,3.968,3.968,0,0,0-1.17-.8q-.735-.344-2.325-.974a25.064,25.064,0,0,1-2.94-1.305,6.09,6.09,0,0,1-2.01-1.725,4.324,4.324,0,0,1-.81-2.67c0-.14.019-.39.06-.75a6.088,6.088,0,0,1,2.49-4.335,9.657,9.657,0,0,1,8.955-.9,5.594,5.594,0,0,1,2.43,1.981,5.232,5.232,0,0,1,.855,2.985q0,.24-.06.779l-.06.451a.493.493,0,0,1-.134.255.351.351,0,0,1-.256.1h-3.36a.3.3,0,0,1-.24-.1.285.285,0,0,1-.059-.255l.029-.241a2.475,2.475,0,0,0-.735-2.144,3.606,3.606,0,0,0-2.655-.885,3.719,3.719,0,0,0-2.34.675,2.207,2.207,0,0,0-.87,1.845,1.565,1.565,0,0,0,.42,1.11,4.064,4.064,0,0,0,1.245.84q.825.39,2.5,1.05,1.86.75,2.9,1.275a5.751,5.751,0,0,1,1.875,1.574,4.1,4.1,0,0,1,.841,2.641c0,.14-.021.39-.061.75a6.308,6.308,0,0,1-2.564,4.455,9.2,9.2,0,0,1-5.625,1.635,8.142,8.142,0,0,1-5.146-1.47" fill="#114a83"/>
      <path id="Path_6475" data-name="Path 6475" d="M176.852,34a.289.289,0,0,1,.06.255l-.361,2.939a.329.329,0,0,1-.119.256.4.4,0,0,1-.27.1h-5.19c-.081,0-.141.049-.181.15l-2.069,16.83a.482.482,0,0,1-.136.255.347.347,0,0,1-.255.1h-3.389a.3.3,0,0,1-.24-.1.286.286,0,0,1-.06-.255l2.04-16.83c.039-.1,0-.15-.12-.15h-5.07a.3.3,0,0,1-.241-.1.287.287,0,0,1-.059-.256l.359-2.939a.5.5,0,0,1,.136-.255.344.344,0,0,1,.255-.1h14.67a.3.3,0,0,1,.24.1" fill="#114a83"/>
      <path id="Path_6476" data-name="Path 6476" d="M193.936,37.422a.345.345,0,0,1-.255.1h-9.569a.15.15,0,0,0-.106.045.148.148,0,0,0-.045.106l-.57,4.65q0,.15.12.15h6.271a.3.3,0,0,1,.24.1.289.289,0,0,1,.06.255l-.361,2.91a.474.474,0,0,1-.135.255.347.347,0,0,1-.254.1h-6.271a.132.132,0,0,0-.149.15l-.6,4.86q0,.15.12.15h9.54q.33,0,.33.36l-.359,2.91a.5.5,0,0,1-.136.255.347.347,0,0,1-.255.1H178.082a.3.3,0,0,1-.241-.1.285.285,0,0,1-.059-.255l2.49-20.28a.474.474,0,0,1,.135-.255.344.344,0,0,1,.255-.1H194.1a.348.348,0,0,1,.256.1.266.266,0,0,1,.074.255l-.359,2.91a.5.5,0,0,1-.136.255" fill="#114a83"/>
      <path id="Path_6477" data-name="Path 6477" d="M197.326,53.667a4.8,4.8,0,0,1-1.875-3.99,8.037,8.037,0,0,1,.06-.81l.089-.66a.484.484,0,0,1,.135-.255.348.348,0,0,1,.256-.1h3.329a.3.3,0,0,1,.24.1.285.285,0,0,1,.061.255l-.061.449a2.169,2.169,0,0,0,.826,2.026,4.226,4.226,0,0,0,2.8.825,3.742,3.742,0,0,0,2.535-.75,2.344,2.344,0,0,0,.856-1.83,1.54,1.54,0,0,0-.436-1.111,3.956,3.956,0,0,0-1.17-.8q-.735-.344-2.325-.974a25.043,25.043,0,0,1-2.939-1.305,6.08,6.08,0,0,1-2.01-1.725,4.324,4.324,0,0,1-.811-2.67q0-.21.061-.75a6.09,6.09,0,0,1,2.489-4.335,9.657,9.657,0,0,1,8.955-.9,5.6,5.6,0,0,1,2.431,1.981,5.239,5.239,0,0,1,.854,2.985q0,.24-.059.779l-.061.451a.479.479,0,0,1-.134.255.35.35,0,0,1-.255.1H207.81a.3.3,0,0,1-.24-.1.285.285,0,0,1-.059-.255l.03-.241a2.476,2.476,0,0,0-.736-2.144,3.6,3.6,0,0,0-2.655-.885,3.721,3.721,0,0,0-2.34.675,2.207,2.207,0,0,0-.87,1.845,1.565,1.565,0,0,0,.42,1.11,4.076,4.076,0,0,0,1.245.84q.825.39,2.505,1.05,1.86.75,2.9,1.275a5.771,5.771,0,0,1,1.875,1.574,4.1,4.1,0,0,1,.84,2.641c0,.14-.021.39-.06.75A6.309,6.309,0,0,1,208.1,53.5a9.194,9.194,0,0,1-5.625,1.635,8.139,8.139,0,0,1-5.145-1.47" fill="#114a83"/>
      <path id="Path_6478" data-name="Path 6478" d="M230.191,34a.289.289,0,0,1,.06.255L229.89,37.2a.329.329,0,0,1-.119.256.4.4,0,0,1-.27.1h-5.19c-.081,0-.141.049-.181.15l-2.069,16.83a.482.482,0,0,1-.136.255.347.347,0,0,1-.255.1h-3.389a.3.3,0,0,1-.24-.1.286.286,0,0,1-.06-.255l2.04-16.83c.039-.1,0-.15-.12-.15h-5.07a.3.3,0,0,1-.241-.1.287.287,0,0,1-.059-.256l.359-2.939a.5.5,0,0,1,.136-.255.344.344,0,0,1,.255-.1h14.67a.3.3,0,0,1,.24.1" fill="#114a83"/>
      <path id="Path_6479" data-name="Path 6479" d="M228.6,47.743a.287.287,0,0,1-.06-.256l.36-2.909a.481.481,0,0,1,.136-.256.346.346,0,0,1,.254-.1h9.51a.3.3,0,0,1,.24.1.287.287,0,0,1,.06.256l-.33,2.909a.452.452,0,0,1-.149.256.4.4,0,0,1-.271.1h-9.51a.3.3,0,0,1-.24-.1" fill="#114a83"/>
      <path id="Path_6480" data-name="Path 6480" d="M243.436,53.427a5.969,5.969,0,0,1-1.815-4.56,7.789,7.789,0,0,1,.06-1.11l.84-6.72a8.659,8.659,0,0,1,1.41-3.87,7.672,7.672,0,0,1,2.97-2.6,9,9,0,0,1,4.08-.916,7.883,7.883,0,0,1,3.569.766,5.641,5.641,0,0,1,2.356,2.115,5.75,5.75,0,0,1,.825,3.06,8.188,8.188,0,0,1-.061.84l-.029.21a.482.482,0,0,1-.136.255.346.346,0,0,1-.255.1h-3.419a.3.3,0,0,1-.241-.1.285.285,0,0,1-.059-.255l.03-.09a2.281,2.281,0,0,0,.029-.42,2.754,2.754,0,0,0-.809-2.055,3.074,3.074,0,0,0-2.25-.8,3.679,3.679,0,0,0-2.625,1.005,4.23,4.23,0,0,0-1.276,2.625l-.84,6.96a3.738,3.738,0,0,0-.029.54,2.964,2.964,0,0,0,.885,2.235,3.163,3.163,0,0,0,2.295.855,3.8,3.8,0,0,0,2.519-.825,3.384,3.384,0,0,0,1.17-2.295l.181-1.35c0-.1-.041-.15-.12-.15H249.42a.3.3,0,0,1-.239-.106.283.283,0,0,1-.06-.254l.33-2.76a.479.479,0,0,1,.134-.255.351.351,0,0,1,.255-.106h7.111a.3.3,0,0,1,.24.106.288.288,0,0,1,.059.255l-.479,3.96a8.172,8.172,0,0,1-2.715,5.429,8.436,8.436,0,0,1-5.716,1.981,6.862,6.862,0,0,1-4.9-1.71" fill="#114a83"/>
      <path id="Path_6481" data-name="Path 6481" d="M270.6,54.628l-2.61-8.311a.194.194,0,0,0-.18-.12h-2.7a.133.133,0,0,0-.15.15l-1.02,8.191a.5.5,0,0,1-.135.255.346.346,0,0,1-.255.1h-3.42a.3.3,0,0,1-.24-.1.287.287,0,0,1-.06-.255l2.49-20.28a.481.481,0,0,1,.135-.255.344.344,0,0,1,.255-.106h8.34a5.5,5.5,0,0,1,4.02,1.441,5.174,5.174,0,0,1,1.47,3.87q0,.3-.06,1.019a6.692,6.692,0,0,1-1.41,3.495,6.256,6.256,0,0,1-3,2.055c-.12.041-.161.11-.12.21l2.91,8.49a.349.349,0,0,1,.03.151c0,.179-.11.269-.33.269h-3.6a.352.352,0,0,1-.36-.269m-4.545-17.056a.144.144,0,0,0-.045.1l-.63,5.13c0,.1.04.151.12.151h3.81a3.135,3.135,0,0,0,2.25-.856,2.908,2.908,0,0,0,.9-2.205,2.268,2.268,0,0,0-.676-1.724A2.473,2.473,0,0,0,270,37.527h-3.841a.146.146,0,0,0-.1.045" fill="#114a83"/>
      <path id="Path_6482" data-name="Path 6482" d="M280.634,53.472a6.18,6.18,0,0,1-1.845-4.7,8.448,8.448,0,0,1,.09-1.169l.781-6.42a8.7,8.7,0,0,1,1.44-3.93,8.022,8.022,0,0,1,3.015-2.655,8.91,8.91,0,0,1,4.125-.946,6.988,6.988,0,0,1,4.995,1.741,6.055,6.055,0,0,1,1.844,4.62,8.014,8.014,0,0,1-.089,1.17l-.781,6.42a8.842,8.842,0,0,1-1.439,3.975,8.075,8.075,0,0,1-3.03,2.685,8.91,8.91,0,0,1-4.14.96,6.909,6.909,0,0,1-4.966-1.755m8.131-2.925a4.612,4.612,0,0,0,1.335-2.79l.81-6.6a5.017,5.017,0,0,0,.03-.63,3.272,3.272,0,0,0-.84-2.37,3.068,3.068,0,0,0-2.311-.869,3.755,3.755,0,0,0-2.7,1.065,4.493,4.493,0,0,0-1.319,2.8l-.811,6.6a5.075,5.075,0,0,0-.029.63,3.222,3.222,0,0,0,.84,2.34,3.018,3.018,0,0,0,2.279.87,3.773,3.773,0,0,0,2.716-1.05" fill="#114a83"/>
      <path id="Path_6483" data-name="Path 6483" d="M300.929,54.6l-2.67-20.31v-.06a.291.291,0,0,1,.33-.33h3.63a.3.3,0,0,1,.33.3l1.26,12.21c.019.081.05.12.09.12s.07-.039.091-.12l4.169-12.18a.466.466,0,0,1,.42-.33h3.54a.312.312,0,0,1,.36.3l1.41,12.21a.092.092,0,0,0,.075.1c.05.011.085-.024.106-.1l4.17-12.18a.463.463,0,0,1,.419-.33h3.42c.26,0,.35.131.27.39l-7.26,20.31a.445.445,0,0,1-.45.3h-3.45a.3.3,0,0,1-.33-.3l-1.38-12.99c-.02-.079-.045-.12-.074-.12s-.066.041-.106.12l-4.349,12.96a.4.4,0,0,1-.42.33h-3.241a.312.312,0,0,1-.36-.3" fill="#114a83"/>
      <path id="Path_6484" data-name="Path 6484" d="M323.159,54.792a.286.286,0,0,1-.06-.255l2.49-20.28a.481.481,0,0,1,.135-.255.348.348,0,0,1,.255-.106h3.42a.3.3,0,0,1,.239.106.283.283,0,0,1,.061.255l-2.49,20.28a.5.5,0,0,1-.135.255.346.346,0,0,1-.255.1H323.4a.3.3,0,0,1-.24-.1" fill="#114a83"/>
      <path id="Path_6485" data-name="Path 6485" d="M345.823,34a.347.347,0,0,1,.255-.1H349.5a.3.3,0,0,1,.239.1.286.286,0,0,1,.061.255l-2.491,20.28a.493.493,0,0,1-.134.255.35.35,0,0,1-.255.1h-3.3a.347.347,0,0,1-.359-.241l-5.971-12.84c-.02-.059-.05-.085-.09-.074s-.07.055-.09.135l-1.5,12.66a.481.481,0,0,1-.135.255.346.346,0,0,1-.254.1H331.8a.3.3,0,0,1-.241-.1.285.285,0,0,1-.059-.255l2.489-20.28a.482.482,0,0,1,.136-.255.344.344,0,0,1,.255-.1h3.3a.406.406,0,0,1,.39.24l5.941,12.78c.019.06.049.085.089.075s.07-.055.09-.136l1.5-12.6a.488.488,0,0,1,.135-.255" fill="#114a83"/>
      <path id="Path_6486" data-name="Path 6486" d="M353.8,53.427a5.965,5.965,0,0,1-1.815-4.56,7.639,7.639,0,0,1,.06-1.11l.84-6.72a8.658,8.658,0,0,1,1.41-3.87,7.672,7.672,0,0,1,2.97-2.6,9,9,0,0,1,4.08-.916,7.883,7.883,0,0,1,3.569.766,5.641,5.641,0,0,1,2.356,2.115,5.75,5.75,0,0,1,.825,3.06,8.181,8.181,0,0,1-.061.84l-.029.21a.482.482,0,0,1-.136.255.346.346,0,0,1-.255.1H364.2a.3.3,0,0,1-.241-.1.285.285,0,0,1-.059-.255l.03-.09a2.278,2.278,0,0,0,.029-.42,2.754,2.754,0,0,0-.809-2.055,3.074,3.074,0,0,0-2.25-.8,3.68,3.68,0,0,0-2.625,1.005A4.23,4.23,0,0,0,357,40.917l-.84,6.96a3.74,3.74,0,0,0-.029.54,2.964,2.964,0,0,0,.885,2.235,3.163,3.163,0,0,0,2.295.855,3.8,3.8,0,0,0,2.519-.825A3.384,3.384,0,0,0,363,48.387l.181-1.35c0-.1-.041-.15-.12-.15h-3.271a.3.3,0,0,1-.239-.106.283.283,0,0,1-.06-.254l.33-2.76a.479.479,0,0,1,.134-.255.351.351,0,0,1,.255-.106h7.111a.3.3,0,0,1,.24.106.288.288,0,0,1,.059.255l-.479,3.96a8.172,8.172,0,0,1-2.715,5.429,8.436,8.436,0,0,1-5.716,1.981,6.862,6.862,0,0,1-4.9-1.71" fill="#114a83"/>
      <path id="Path_6487" data-name="Path 6487" d="M123.646,65.352a5.3,5.3,0,0,1,1.545,4.005q0,.3-.06,1.021a7.34,7.34,0,0,1-1.245,3.33,6.835,6.835,0,0,1-2.6,2.234,7.8,7.8,0,0,1-3.54.795h-4.14c-.08,0-.14.051-.18.15l-.93,7.651a.5.5,0,0,1-.135.255.346.346,0,0,1-.255.1h-3.39c-.221,0-.33-.12-.33-.359l2.52-20.311a.33.33,0,0,1,.12-.255.4.4,0,0,1,.27-.1h8.19a5.744,5.744,0,0,1,4.155,1.484m-3.525,7.05a3.207,3.207,0,0,0,.96-2.385,2.365,2.365,0,0,0-.72-1.814,2.694,2.694,0,0,0-1.92-.676h-3.69c-.08,0-.14.051-.18.15l-.66,5.52c-.04.1,0,.15.12.15h3.69a3.283,3.283,0,0,0,2.4-.945" fill="#114a83"/>
      <path id="Path_6488" data-name="Path 6488" d="M137.43,84.628l-2.61-8.311a.2.2,0,0,0-.18-.12h-2.7a.133.133,0,0,0-.15.15l-1.02,8.191a.5.5,0,0,1-.135.255.346.346,0,0,1-.255.1h-3.42a.3.3,0,0,1-.24-.1.287.287,0,0,1-.06-.255l2.49-20.28a.487.487,0,0,1,.135-.255.344.344,0,0,1,.255-.106h8.34a5.5,5.5,0,0,1,4.02,1.441,5.17,5.17,0,0,1,1.47,3.87q0,.3-.06,1.019a6.692,6.692,0,0,1-1.41,3.5,6.256,6.256,0,0,1-3,2.055c-.12.041-.161.11-.12.21l2.91,8.49a.335.335,0,0,1,.03.151c0,.179-.11.269-.33.269h-3.6a.353.353,0,0,1-.36-.269m-4.545-17.056a.144.144,0,0,0-.045.105l-.63,5.13c0,.1.04.151.12.151h3.81a3.135,3.135,0,0,0,2.25-.856,2.9,2.9,0,0,0,.9-2.2,2.271,2.271,0,0,0-.675-1.724,2.477,2.477,0,0,0-1.785-.646h-3.84a.146.146,0,0,0-.105.045" fill="#114a83"/>
      <path id="Path_6489" data-name="Path 6489" d="M145.32,84.792a.286.286,0,0,1-.061-.255l2.491-20.28a.479.479,0,0,1,.134-.255.351.351,0,0,1,.255-.106h3.42a.3.3,0,0,1,.24.106.283.283,0,0,1,.061.255l-2.49,20.28a.5.5,0,0,1-.135.255.346.346,0,0,1-.255.1h-3.421a.3.3,0,0,1-.239-.1" fill="#114a83"/>
      <path id="Path_6490" data-name="Path 6490" d="M158.7,84.6l-3.511-20.28v-.06A.383.383,0,0,1,155.28,64a.3.3,0,0,1,.239-.1h3.691a.313.313,0,0,1,.36.3l2.069,14.64q.03.09.09.09c.04,0,.071-.03.091-.09l5.609-14.64a.446.446,0,0,1,.451-.3h3.57a.242.242,0,0,1,.239.12.386.386,0,0,1,0,.3L163.11,84.6a.4.4,0,0,1-.421.3H159.03a.318.318,0,0,1-.33-.3" fill="#114a83"/>
      <path id="Path_6491" data-name="Path 6491" d="M182.07,84.6l-.51-2.94a.146.146,0,0,0-.03-.075.1.1,0,0,0-.09-.044h-7.17c-.06,0-.111.04-.15.119l-1.23,2.94a.377.377,0,0,1-.39.3h-3.72a.277.277,0,0,1-.255-.12.3.3,0,0,1,.015-.3l8.79-20.28a.462.462,0,0,1,.42-.3h4.56a.359.359,0,0,1,.36.3l3.781,20.28v.09a.325.325,0,0,1-.091.24.32.32,0,0,1-.24.09H182.4a.319.319,0,0,1-.33-.3m-6.39-6.33h5.13c.1,0,.15-.06.15-.18l-1.53-8.91c-.021-.08-.05-.115-.09-.105a.142.142,0,0,0-.09.105l-3.66,8.91q-.03.18.09.18" fill="#114a83"/>
      <path id="Path_6492" data-name="Path 6492" d="M204.029,64a.286.286,0,0,1,.061.255l-.361,2.939a.327.327,0,0,1-.12.256.394.394,0,0,1-.269.1h-5.191c-.08,0-.14.049-.18.15l-2.07,16.83a.488.488,0,0,1-.135.255.347.347,0,0,1-.255.105h-3.39a.3.3,0,0,1-.239-.105.286.286,0,0,1-.061-.255l2.04-16.83c.04-.1,0-.15-.12-.15H188.67a.3.3,0,0,1-.241-.1.287.287,0,0,1-.06-.256l.36-2.939a.487.487,0,0,1,.135-.255.347.347,0,0,1,.255-.1h14.67a.3.3,0,0,1,.24.1" fill="#114a83"/>
      <path id="Path_6493" data-name="Path 6493" d="M221.114,67.422a.346.346,0,0,1-.255.1h-9.57a.154.154,0,0,0-.15.151l-.57,4.65q0,.15.12.15h6.27a.3.3,0,0,1,.24.105.286.286,0,0,1,.06.255l-.36,2.91a.488.488,0,0,1-.135.255.347.347,0,0,1-.255.105h-6.27a.132.132,0,0,0-.15.15l-.6,4.86q0,.15.12.15h9.54q.33,0,.33.36l-.36,2.91a.5.5,0,0,1-.135.255.347.347,0,0,1-.255.105h-13.47a.3.3,0,0,1-.24-.105.286.286,0,0,1-.06-.255l2.49-20.28a.474.474,0,0,1,.135-.255.347.347,0,0,1,.255-.1h13.44a.347.347,0,0,1,.255.1.266.266,0,0,1,.075.255l-.36,2.91a.487.487,0,0,1-.135.255" fill="#114a83"/>
      <path id="Path_6494" data-name="Path 6494" d="M231.448,83.457a5.861,5.861,0,0,1-1.8-4.5,7.78,7.78,0,0,1,.06-1.11l.841-6.93a8.427,8.427,0,0,1,1.409-3.811,7.647,7.647,0,0,1,2.97-2.549,9.124,9.124,0,0,1,4.081-.9,7.137,7.137,0,0,1,4.933,1.62,5.506,5.506,0,0,1,1.817,4.321c0,.22-.022.55-.061.99a.391.391,0,0,1-.391.33l-3.419.21h-.06q-.3,0-.24-.33a3.3,3.3,0,0,0,.03-.51,2.929,2.929,0,0,0-.825-2.19,3.052,3.052,0,0,0-2.235-.81,3.741,3.741,0,0,0-2.625.975,3.92,3.92,0,0,0-1.245,2.535l-.9,7.229a3.333,3.333,0,0,0-.029.511,2.918,2.918,0,0,0,.809,2.159,3.042,3.042,0,0,0,2.25.811,3.723,3.723,0,0,0,2.61-.96,4.019,4.019,0,0,0,1.26-2.521.36.36,0,0,1,.39-.33l3.39.151a.367.367,0,0,1,.24.075.215.215,0,0,1,.06.224,7.605,7.605,0,0,1-4.335,6.121,9.288,9.288,0,0,1-4.065.87,6.926,6.926,0,0,1-4.92-1.68" fill="#114a83"/>
      <path id="Path_6495" data-name="Path 6495" d="M249.943,83.472a6.18,6.18,0,0,1-1.845-4.7,8.446,8.446,0,0,1,.09-1.169l.781-6.42a8.7,8.7,0,0,1,1.44-3.93,8.022,8.022,0,0,1,3.015-2.655,8.91,8.91,0,0,1,4.125-.946,6.988,6.988,0,0,1,4.995,1.741,6.055,6.055,0,0,1,1.844,4.62,8.018,8.018,0,0,1-.089,1.17l-.781,6.42a8.842,8.842,0,0,1-1.439,3.975,8.075,8.075,0,0,1-3.03,2.685,8.91,8.91,0,0,1-4.14.96,6.909,6.909,0,0,1-4.966-1.755m8.131-2.925a4.612,4.612,0,0,0,1.335-2.79l.81-6.6a5.011,5.011,0,0,0,.03-.63,3.272,3.272,0,0,0-.84-2.37,3.068,3.068,0,0,0-2.311-.869,3.755,3.755,0,0,0-2.7,1.065,4.493,4.493,0,0,0-1.319,2.8l-.811,6.6a5.076,5.076,0,0,0-.029.63,3.222,3.222,0,0,0,.84,2.34,3.018,3.018,0,0,0,2.279.87,3.773,3.773,0,0,0,2.716-1.05" fill="#114a83"/>
      <path id="Path_6496" data-name="Path 6496" d="M282.628,63.9h3.39a.3.3,0,0,1,.24.1.29.29,0,0,1,.059.255l-2.489,20.281a.333.333,0,0,1-.12.255.4.4,0,0,1-.27.1h-3.39a.3.3,0,0,1-.24-.1.287.287,0,0,1-.06-.255l1.619-13.231c0-.08-.019-.12-.059-.12s-.08.03-.12.09l-3.69,4.98a.542.542,0,0,1-.45.241h-1.71a.349.349,0,0,1-.36-.241l-2.491-4.98c-.019-.06-.049-.085-.089-.074s-.071.054-.09.134l-1.62,13.2a.5.5,0,0,1-.135.255.348.348,0,0,1-.255.1h-3.42a.3.3,0,0,1-.24-.1.287.287,0,0,1-.06-.255l2.489-20.281A.5.5,0,0,1,269.2,64a.346.346,0,0,1,.255-.1h3.42a.348.348,0,0,1,.359.24l3.511,6.99c.06.121.119.121.18,0l5.25-6.99a.542.542,0,0,1,.45-.24" fill="#114a83"/>
      <path id="Path_6497" data-name="Path 6497" d="M303.222,65.352a5.292,5.292,0,0,1,1.545,4.005q0,.3-.059,1.021a7.34,7.34,0,0,1-1.245,3.33,6.85,6.85,0,0,1-2.6,2.234,7.807,7.807,0,0,1-3.54.795h-4.141c-.08,0-.139.051-.179.15l-.93,7.651a.5.5,0,0,1-.136.255.346.346,0,0,1-.255.1H288.3c-.221,0-.33-.12-.33-.359l2.519-20.311a.33.33,0,0,1,.12-.255.4.4,0,0,1,.271-.1h8.189a5.744,5.744,0,0,1,4.155,1.484M299.7,72.4a3.2,3.2,0,0,0,.96-2.385,2.362,2.362,0,0,0-.72-1.814,2.693,2.693,0,0,0-1.92-.676h-3.689c-.081,0-.141.051-.181.15l-.66,5.52c-.04.1,0,.15.12.15H297.3a3.281,3.281,0,0,0,2.4-.945" fill="#114a83"/>
      <path id="Path_6498" data-name="Path 6498" d="M317.128,84.6l-.51-2.94a.155.155,0,0,0-.03-.075.1.1,0,0,0-.09-.044h-7.17c-.06,0-.111.04-.151.119l-1.229,2.94a.377.377,0,0,1-.39.3h-3.72a.276.276,0,0,1-.255-.12.3.3,0,0,1,.014-.3l8.79-20.28a.464.464,0,0,1,.421-.3h4.56a.36.36,0,0,1,.36.3l3.78,20.28v.09a.31.31,0,0,1-.331.33h-3.719a.319.319,0,0,1-.33-.3m-6.39-6.33h5.13c.1,0,.15-.06.15-.18l-1.53-8.91q-.031-.12-.09-.105c-.041.01-.07.046-.09.105l-3.66,8.91q-.03.18.09.18" fill="#114a83"/>
      <path id="Path_6499" data-name="Path 6499" d="M339.162,64a.347.347,0,0,1,.255-.1h3.421a.3.3,0,0,1,.239.1.286.286,0,0,1,.061.255l-2.491,20.28a.493.493,0,0,1-.134.255.35.35,0,0,1-.255.105h-3.3a.348.348,0,0,1-.359-.241l-5.971-12.84c-.02-.059-.05-.085-.09-.074s-.07.055-.09.135l-1.5,12.66a.481.481,0,0,1-.135.255.347.347,0,0,1-.254.105h-3.42a.3.3,0,0,1-.241-.105.285.285,0,0,1-.059-.255l2.489-20.28a.482.482,0,0,1,.136-.255.344.344,0,0,1,.255-.1h3.3a.406.406,0,0,1,.39.24l5.941,12.78c.019.06.049.085.089.075s.07-.055.09-.136l1.5-12.6a.488.488,0,0,1,.135-.255" fill="#114a83"/>
      <path id="Path_6500" data-name="Path 6500" d="M345.027,84.792a.286.286,0,0,1-.06-.255l2.49-20.28a.481.481,0,0,1,.135-.255.348.348,0,0,1,.255-.106h3.42a.3.3,0,0,1,.239.106.283.283,0,0,1,.061.255l-2.49,20.28a.5.5,0,0,1-.135.255.346.346,0,0,1-.255.1h-3.42a.3.3,0,0,1-.24-.1" fill="#114a83"/>
      <path id="Path_6501" data-name="Path 6501" d="M369.522,67.422a.346.346,0,0,1-.255.1H359.7a.15.15,0,0,0-.1.045.148.148,0,0,0-.045.106l-.57,4.65q0,.15.12.15h6.271a.3.3,0,0,1,.239.105.286.286,0,0,1,.061.255l-.361,2.91a.488.488,0,0,1-.135.255.347.347,0,0,1-.254.105h-6.271a.132.132,0,0,0-.149.15l-.6,4.86q0,.15.12.15h9.54q.33,0,.33.36l-.36,2.91a.488.488,0,0,1-.135.255.347.347,0,0,1-.255.105H353.668a.3.3,0,0,1-.241-.105.285.285,0,0,1-.059-.255l2.489-20.28a.475.475,0,0,1,.136-.255.344.344,0,0,1,.255-.1h13.439a.347.347,0,0,1,.255.1.266.266,0,0,1,.075.255l-.36,2.91a.488.488,0,0,1-.135.255" fill="#114a83"/>
      <path id="Path_6502" data-name="Path 6502" d="M372.911,83.667a4.8,4.8,0,0,1-1.875-3.99,8.114,8.114,0,0,1,.061-.81l.089-.66a.484.484,0,0,1,.135-.255.347.347,0,0,1,.255-.105h3.33a.3.3,0,0,1,.24.105.285.285,0,0,1,.06.255l-.06.449a2.167,2.167,0,0,0,.826,2.026,4.226,4.226,0,0,0,2.8.825,3.744,3.744,0,0,0,2.535-.75,2.343,2.343,0,0,0,.855-1.83,1.539,1.539,0,0,0-.435-1.111,3.955,3.955,0,0,0-1.17-.795q-.735-.344-2.325-.974a24.967,24.967,0,0,1-2.939-1.305,6.084,6.084,0,0,1-2.011-1.725,4.324,4.324,0,0,1-.81-2.67q0-.21.06-.75a6.091,6.091,0,0,1,2.49-4.335,9.657,9.657,0,0,1,8.955-.9,5.589,5.589,0,0,1,2.43,1.981,5.233,5.233,0,0,1,.855,2.985q0,.24-.06.779l-.06.451a.493.493,0,0,1-.134.255.35.35,0,0,1-.255.105H383.4a.3.3,0,0,1-.24-.105.285.285,0,0,1-.059-.255l.03-.241a2.476,2.476,0,0,0-.736-2.144,3.6,3.6,0,0,0-2.655-.885,3.719,3.719,0,0,0-2.34.675,2.207,2.207,0,0,0-.87,1.845,1.565,1.565,0,0,0,.42,1.11,4.076,4.076,0,0,0,1.245.84q.825.39,2.505,1.05,1.86.75,2.9,1.275a5.772,5.772,0,0,1,1.875,1.574,4.1,4.1,0,0,1,.84,2.641c0,.14-.021.39-.061.75a6.3,6.3,0,0,1-2.564,4.455,9.194,9.194,0,0,1-5.625,1.635,8.142,8.142,0,0,1-5.146-1.47" fill="#114a83"/>
      <path id="Path_6503" data-name="Path 6503" d="M257.823,95.532h1.92l-1.072,7.681h-1.92Zm.1-2.607a1.292,1.292,0,0,1,.456-.809,1.357,1.357,0,0,1,.92-.343,1.132,1.132,0,0,1,.849.328.906.906,0,0,1,.239.824,1.3,1.3,0,0,1-.48.824,1.416,1.416,0,0,1-.927.327,1.031,1.031,0,0,1-.825-.343.976.976,0,0,1-.232-.808" fill="#9b9b9b"/>
      <path id="Path_6504" data-name="Path 6504" d="M262.191,95.533h1.823l-.176,1.232h.033a3.3,3.3,0,0,1,.975-1,2.766,2.766,0,0,1,1.584-.423,2.809,2.809,0,0,1,1.273.255,1.973,1.973,0,0,1,.776.672,2.211,2.211,0,0,1,.336.96,4.52,4.52,0,0,1-.017,1.136l-.671,4.849h-1.92l.544-3.889a6.73,6.73,0,0,0,.064-.712,2.58,2.58,0,0,0-.072-.735,1.143,1.143,0,0,0-.344-.576,1.085,1.085,0,0,0-.752-.233,2,2,0,0,0-.832.16,1.816,1.816,0,0,0-.6.433,2.227,2.227,0,0,0-.4.623,2.668,2.668,0,0,0-.2.736l-.576,4.193h-1.92Z" fill="#9b9b9b"/>
      <path id="Path_6505" data-name="Path 6505" d="M275.471,97.165l.224-1.633h1.584l.3-2.223h1.92l-.3,2.223h2.112l-.225,1.633h-2.111l-.481,3.359a1.587,1.587,0,0,0,.088.912c.113.225.382.336.809.336a3.259,3.259,0,0,0,.567-.055,1.323,1.323,0,0,0,.505-.185l-.224,1.616a2.677,2.677,0,0,1-.768.2,6.487,6.487,0,0,1-.784.055,3.688,3.688,0,0,1-1.233-.168,1.359,1.359,0,0,1-.7-.511,1.7,1.7,0,0,1-.265-.857,5.835,5.835,0,0,1,.065-1.183l.5-3.52Z" fill="#9b9b9b"/>
      <path id="Path_6506" data-name="Path 6506" d="M284.846,96.605h.032a2.731,2.731,0,0,1,.912-.872,3.207,3.207,0,0,1,2.792-.136,1.976,1.976,0,0,1,.777.672,2.219,2.219,0,0,1,.336.96,4.522,4.522,0,0,1-.017,1.136l-.672,4.848h-1.92l.544-3.888a6.714,6.714,0,0,0,.065-.712,2.59,2.59,0,0,0-.073-.736,1.142,1.142,0,0,0-.343-.576,1.09,1.09,0,0,0-.752-.232,2,2,0,0,0-.832.16,1.792,1.792,0,0,0-.6.433,2.177,2.177,0,0,0-.4.623,2.7,2.7,0,0,0-.2.736l-.576,4.192H282l1.7-12.1h1.92Z" fill="#9b9b9b"/>
      <path id="Path_6507" data-name="Path 6507" d="M293.389,100.045a1.85,1.85,0,0,0,.121.768,1.59,1.59,0,0,0,.376.568,1.656,1.656,0,0,0,.576.36,2.026,2.026,0,0,0,.735.128,2.55,2.55,0,0,0,1.257-.3,3.834,3.834,0,0,0,.951-.743l1.233,1.039a4.7,4.7,0,0,1-1.665,1.184,4.774,4.774,0,0,1-1.792.352,4.284,4.284,0,0,1-1.591-.288,3.252,3.252,0,0,1-1.216-.816,3.18,3.18,0,0,1-.712-1.272,3.854,3.854,0,0,1-.1-1.655,4.524,4.524,0,0,1,.561-1.657,4.666,4.666,0,0,1,1.071-1.272,4.786,4.786,0,0,1,1.448-.816,4.949,4.949,0,0,1,1.672-.288,2.9,2.9,0,0,1,2.448,1.08,4.058,4.058,0,0,1,.561,3.1l-.08.528Zm4.145-1.44a1.576,1.576,0,0,0-.337-1.336,1.757,1.757,0,0,0-1.359-.488,2.137,2.137,0,0,0-1.441.5,2.592,2.592,0,0,0-.8,1.328Z" fill="#9b9b9b"/>
      <path id="Path_6508" data-name="Path 6508" d="M307.518,91.116h1.92l-.768,5.393h.048a3.56,3.56,0,0,1,.432-.393,3.843,3.843,0,0,1,.6-.376,3.76,3.76,0,0,1,.776-.287,3.879,3.879,0,0,1,.976-.112,3.282,3.282,0,0,1,1.456.311,2.918,2.918,0,0,1,1.056.857,3.2,3.2,0,0,1,.576,1.28,4.6,4.6,0,0,1,.048,1.584,5.45,5.45,0,0,1-.488,1.584,4.582,4.582,0,0,1-.92,1.279,4.118,4.118,0,0,1-1.312.857,4.222,4.222,0,0,1-1.633.311,3.312,3.312,0,0,1-1.471-.319,2.032,2.032,0,0,1-.976-1.024h-.032l-.16,1.152h-1.824Zm5.2,8.257a2.353,2.353,0,0,0-.032-.864,1.881,1.881,0,0,0-.344-.737,1.807,1.807,0,0,0-.641-.511,2.062,2.062,0,0,0-.92-.193,2.392,2.392,0,0,0-.967.193,2.682,2.682,0,0,0-.776.511,2.779,2.779,0,0,0-.552.737,2.668,2.668,0,0,0-.28.864,2.327,2.327,0,0,0,.032.863,1.861,1.861,0,0,0,.344.737,1.784,1.784,0,0,0,.64.511,2.068,2.068,0,0,0,.92.193,2.445,2.445,0,0,0,.975-.193,2.6,2.6,0,0,0,1.329-1.248,2.825,2.825,0,0,0,.272-.863" fill="#9b9b9b"/>
      <path id="Path_6509" data-name="Path 6509" d="M321.085,102.157h-.048a3.059,3.059,0,0,1-1.192.952,3.676,3.676,0,0,1-2.464.152,2.375,2.375,0,0,1-.841-.431,1.794,1.794,0,0,1-.527-.721,1.943,1.943,0,0,1-.1-1.008,2.42,2.42,0,0,1,.689-1.464,3.643,3.643,0,0,1,1.328-.807,6.219,6.219,0,0,1,1.624-.337q.855-.063,1.576-.064h.48l.016-.208a1.072,1.072,0,0,0-.336-1.08,1.886,1.886,0,0,0-1.216-.36,3.2,3.2,0,0,0-1.168.217,3.37,3.37,0,0,0-.993.584l-.863-1.009a4.357,4.357,0,0,1,1.624-.944,5.953,5.953,0,0,1,1.816-.288,4.239,4.239,0,0,1,1.352.184,2.522,2.522,0,0,1,.863.473,1.666,1.666,0,0,1,.473.664,2.777,2.777,0,0,1,.176.759,3.932,3.932,0,0,1-.008.745c-.027.239-.051.45-.072.631l-.608,4.416h-1.728Zm.224-2.384h-.4q-.4,0-.9.032a4.987,4.987,0,0,0-.96.153,2.515,2.515,0,0,0-.792.351.924.924,0,0,0-.4.649.781.781,0,0,0,.063.456.911.911,0,0,0,.273.311,1.127,1.127,0,0,0,.4.184,1.872,1.872,0,0,0,.464.056,2.271,2.271,0,0,0,1.536-.472,1.994,1.994,0,0,0,.656-1.287Z" fill="#9b9b9b"/>
      <path id="Path_6510" data-name="Path 6510" d="M325.005,95.533h2.111l1.393,5.328h.031l2.673-5.328h2l-4.944,9.328a7.447,7.447,0,0,1-.592.952,3.348,3.348,0,0,1-.681.689,2.636,2.636,0,0,1-.847.416,4.073,4.073,0,0,1-1.113.136,5.219,5.219,0,0,1-1.439-.193l.479-1.727c.15.052.3.1.456.135a2.106,2.106,0,0,0,.489.056,2.462,2.462,0,0,0,.6-.063,1.243,1.243,0,0,0,.433-.2,1.548,1.548,0,0,0,.336-.351,4.815,4.815,0,0,0,.311-.521l.5-.912Z" fill="#9b9b9b"/>
      <path id="Path_6511" data-name="Path 6511" d="M343.436,102.157h-.047a3.069,3.069,0,0,1-1.193.952,3.676,3.676,0,0,1-2.464.152,2.371,2.371,0,0,1-.84-.431,1.8,1.8,0,0,1-.528-.721,1.943,1.943,0,0,1-.1-1.008,2.413,2.413,0,0,1,.688-1.464,3.652,3.652,0,0,1,1.328-.807,6.236,6.236,0,0,1,1.624-.337q.857-.063,1.576-.064h.481l.015-.208a1.071,1.071,0,0,0-.336-1.08,1.885,1.885,0,0,0-1.215-.36,3.194,3.194,0,0,0-1.168.217,3.344,3.344,0,0,0-.993.584l-.864-1.009a4.365,4.365,0,0,1,1.624-.944,5.955,5.955,0,0,1,1.817-.288,4.232,4.232,0,0,1,1.351.184,2.527,2.527,0,0,1,.864.473,1.663,1.663,0,0,1,.472.664,2.744,2.744,0,0,1,.177.759,4.016,4.016,0,0,1-.009.745c-.026.239-.051.45-.071.631l-.609,4.416h-1.727Zm.224-2.384h-.4q-.4,0-.9.032a4.987,4.987,0,0,0-.96.153,2.525,2.525,0,0,0-.792.351.93.93,0,0,0-.4.649.773.773,0,0,0,.064.456.9.9,0,0,0,.273.311,1.122,1.122,0,0,0,.4.184,1.877,1.877,0,0,0,.464.056,2.269,2.269,0,0,0,1.536-.472,2,2,0,0,0,.657-1.287Z" fill="#9b9b9b"/>
      <path id="Path_6512" data-name="Path 6512" d="M348.4,95.533h1.92l-.177,1.217h.032a2.96,2.96,0,0,1,1.065-1.04,2.816,2.816,0,0,1,1.416-.368,1.673,1.673,0,0,1,.336.032c.106.021.219.048.336.08l-.273,1.855a4.568,4.568,0,0,0-.447-.1,2.521,2.521,0,0,0-.448-.04,2.28,2.28,0,0,0-1.12.248,2.433,2.433,0,0,0-.712.567,2.1,2.1,0,0,0-.376.641,2.322,2.322,0,0,0-.128.479l-.576,4.113h-1.92Z" fill="#9b9b9b"/>
      <path id="Path_6513" data-name="Path 6513" d="M355.468,100.045a1.867,1.867,0,0,0,.12.768,1.6,1.6,0,0,0,.376.568,1.666,1.666,0,0,0,.576.36,2.035,2.035,0,0,0,.736.128,2.547,2.547,0,0,0,1.256-.3,3.82,3.82,0,0,0,.952-.743l1.232,1.039a4.709,4.709,0,0,1-1.664,1.184,4.778,4.778,0,0,1-1.792.352,4.289,4.289,0,0,1-1.592-.288,3.252,3.252,0,0,1-1.216-.816,3.2,3.2,0,0,1-.712-1.272,3.839,3.839,0,0,1-.1-1.655,4.5,4.5,0,0,1,.56-1.657,4.67,4.67,0,0,1,1.072-1.272,4.774,4.774,0,0,1,1.448-.816,4.94,4.94,0,0,1,1.672-.288,2.9,2.9,0,0,1,2.448,1.08,4.058,4.058,0,0,1,.56,3.1l-.08.528Zm4.144-1.44a1.576,1.576,0,0,0-.336-1.336,1.76,1.76,0,0,0-1.36-.488,2.134,2.134,0,0,0-1.44.5,2.585,2.585,0,0,0-.8,1.328Z" fill="#9b9b9b"/>
      <path id="Path_6514" data-name="Path 6514" d="M367.868,102.157h-.048a3.059,3.059,0,0,1-1.192.952,3.676,3.676,0,0,1-2.464.152,2.375,2.375,0,0,1-.841-.431,1.794,1.794,0,0,1-.527-.721,1.943,1.943,0,0,1-.1-1.008,2.419,2.419,0,0,1,.689-1.464,3.644,3.644,0,0,1,1.328-.807,6.219,6.219,0,0,1,1.624-.337q.855-.063,1.576-.064h.48l.016-.208a1.072,1.072,0,0,0-.336-1.08,1.886,1.886,0,0,0-1.216-.36,3.2,3.2,0,0,0-1.168.217,3.37,3.37,0,0,0-.993.584l-.863-1.009a4.358,4.358,0,0,1,1.624-.944,5.953,5.953,0,0,1,1.816-.288,4.239,4.239,0,0,1,1.352.184,2.522,2.522,0,0,1,.863.473,1.666,1.666,0,0,1,.473.664,2.777,2.777,0,0,1,.176.759,3.932,3.932,0,0,1-.008.745c-.027.239-.051.45-.072.631l-.608,4.416h-1.728Zm.224-2.384h-.4q-.4,0-.9.032a4.987,4.987,0,0,0-.96.153,2.515,2.515,0,0,0-.792.351.924.924,0,0,0-.4.649.781.781,0,0,0,.063.456.911.911,0,0,0,.273.311,1.127,1.127,0,0,0,.4.184,1.872,1.872,0,0,0,.464.056,2.271,2.271,0,0,0,1.536-.472,1.994,1.994,0,0,0,.656-1.287Z" fill="#9b9b9b"/>
      <path id="Path_6515" data-name="Path 6515" d="M11.6,28.86h10.03a.853.853,0,0,1,.68.3.812.812,0,0,1,.17.723L15.424,87.34a1.374,1.374,0,0,1-.383.723.981.981,0,0,1-.722.3H4.629a.847.847,0,0,1-.68-.3.808.808,0,0,1-.17-.723L9.474,40.93a.308.308,0,0,0-.042-.34.219.219,0,0,0-.3-.084L1.654,41.95l-.425.085q-.765,0-.595-.935l.68-7.309a1.591,1.591,0,0,1,.85-1.191l8.16-3.485A4.2,4.2,0,0,1,11.6,28.86" fill="#f6dd17"/>
      <path id="Path_6516" data-name="Path 6516" d="M26.685,85.215q-4.208-4.081-4.208-11.135a21.971,21.971,0,0,1,.17-3.145l2.975-24.651a20.654,20.654,0,0,1,6.5-13.3A19.543,19.543,0,0,1,45.767,28.01q7.4,0,11.645,4.122t4.25,11.178q0,.936-.17,2.974L58.517,70.935A21.085,21.085,0,0,1,51.93,84.323a19.554,19.554,0,0,1-13.643,4.972q-7.393,0-11.6-4.08m17.68-8.2a8.939,8.939,0,0,0,2.422-5.4L49.932,45.69a9.44,9.44,0,0,0,.085-1.446,6.108,6.108,0,0,0-1.444-4.292,5.273,5.273,0,0,0-4.081-1.572,6.548,6.548,0,0,0-4.8,2,8.462,8.462,0,0,0-2.338,5.313l-3.23,25.925a7.028,7.028,0,0,0-.085,1.275,6.548,6.548,0,0,0,1.446,4.463,5.023,5.023,0,0,0,3.994,1.657,6.649,6.649,0,0,0,4.888-2" fill="#f6dd17"/>
      <path id="Path_6517" data-name="Path 6517" d="M67.144,85.215q-4.208-4.081-4.208-11.135a21.971,21.971,0,0,1,.17-3.145l2.975-24.651a20.654,20.654,0,0,1,6.5-13.3A19.543,19.543,0,0,1,86.226,28.01q7.4,0,11.645,4.122t4.25,11.178q0,.936-.17,2.974L98.976,70.935a21.085,21.085,0,0,1-6.587,13.388,19.554,19.554,0,0,1-13.643,4.972q-7.394,0-11.6-4.08m17.68-8.2a8.939,8.939,0,0,0,2.422-5.4L90.391,45.69a9.44,9.44,0,0,0,.085-1.446,6.108,6.108,0,0,0-1.444-4.292,5.273,5.273,0,0,0-4.081-1.572,6.548,6.548,0,0,0-4.8,2,8.462,8.462,0,0,0-2.338,5.313l-3.23,25.925A7.028,7.028,0,0,0,74.5,72.89a6.548,6.548,0,0,0,1.446,4.463,5.023,5.023,0,0,0,3.994,1.657,6.649,6.649,0,0,0,4.888-2" fill="#f6dd17"/>
    </g>
  </g>
</svg>
