<svg xmlns="http://www.w3.org/2000/svg" xmlns:xlink="http://www.w3.org/1999/xlink" width="189.779" height="237.145" viewBox="0 0 189.779 237.145">
  <defs>
    <linearGradient id="linear-gradient" x1="0.539" y1="1.067" x2="0.469" y2="-0.006" gradientUnits="objectBoundingBox">
      <stop offset="0" stop-color="#c4a230"/>
      <stop offset="0.218" stop-color="#e0cd86"/>
      <stop offset="0.329" stop-color="#c6a638"/>
      <stop offset="0.436" stop-color="#e5d493"/>
      <stop offset="0.528" stop-color="#c4a231"/>
      <stop offset="0.649" stop-color="#e5d493"/>
      <stop offset="0.793" stop-color="#dcc779"/>
      <stop offset="0.896" stop-color="#d5bd65"/>
      <stop offset="1" stop-color="#c4a230"/>
    </linearGradient>
    <linearGradient id="linear-gradient-2" x1="0.542" y1="1.028" x2="0.389" y2="-0.003" gradientUnits="objectBoundingBox">
      <stop offset="0" stop-color="#c4a230"/>
      <stop offset="0.142" stop-color="#e5d493"/>
      <stop offset="0.406" stop-color="#c4a230"/>
      <stop offset="0.635" stop-color="#c4a230"/>
      <stop offset="0.779" stop-color="#e5d493"/>
      <stop offset="1" stop-color="#c4a230"/>
    </linearGradient>
    <linearGradient id="linear-gradient-3" x1="1.006" y1="0.577" x2="-0.014" y2="0.417" gradientUnits="objectBoundingBox">
      <stop offset="0" stop-color="#e5d493"/>
      <stop offset="0.023" stop-color="#dbc677"/>
      <stop offset="0.072" stop-color="#c4a332"/>
      <stop offset="0.074" stop-color="#c4a230"/>
      <stop offset="0.138" stop-color="#cdaf4b"/>
      <stop offset="0.275" stop-color="#e4d290"/>
      <stop offset="0.28" stop-color="#e5d493"/>
      <stop offset="0.456" stop-color="#c4a230"/>
      <stop offset="0.458" stop-color="#c4a231"/>
      <stop offset="0.562" stop-color="#d5bd65"/>
      <stop offset="0.641" stop-color="#e0cd86"/>
      <stop offset="0.684" stop-color="#e5d493"/>
      <stop offset="0.751" stop-color="#dcc779"/>
      <stop offset="0.891" stop-color="#c6a638"/>
      <stop offset="0.909" stop-color="#c4a230"/>
      <stop offset="1" stop-color="#c4a230"/>
    </linearGradient>
    <clipPath id="clip-path">
      <rect id="Rectangle_876" data-name="Rectangle 876" width="189.779" height="237.145" fill="none"/>
    </clipPath>
    <clipPath id="clip-path-2">
      <path id="Path_6586" data-name="Path 6586" d="M76.943,19.617,57.122,36.1,63.6,43.792,75.924,32.4V85.193H87.04V19.617Zm31.212,53.628a16.3,16.3,0,0,1-3.8-6.113,32.454,32.454,0,0,1-1.713-7.642,69.843,69.843,0,0,1-.415-7.085,69.83,69.83,0,0,1,.415-7.086,32.464,32.464,0,0,1,1.713-7.642,16.292,16.292,0,0,1,3.8-6.112,10.142,10.142,0,0,1,13.337,0,16.283,16.283,0,0,1,3.8,6.112A32.464,32.464,0,0,1,127,45.319a70.107,70.107,0,0,1,.416,7.086A70.12,70.12,0,0,1,127,59.49a32.454,32.454,0,0,1-1.714,7.642,16.294,16.294,0,0,1-3.8,6.113,10.142,10.142,0,0,1-13.337,0m2.362-54.369a20.188,20.188,0,0,0-5.093,1.529,19.84,19.84,0,0,0-5.187,3.426,22.031,22.031,0,0,0-4.585,6.021,36.333,36.333,0,0,0-3.288,9.261,61,61,0,0,0-1.249,13.292A60.985,60.985,0,0,0,92.363,65.7a36.3,36.3,0,0,0,3.288,9.262,22.031,22.031,0,0,0,4.585,6.021,19.8,19.8,0,0,0,5.187,3.426,20.224,20.224,0,0,0,5.093,1.529,25.279,25.279,0,0,0,8.614,0,20.251,20.251,0,0,0,5.094-1.529,19.824,19.824,0,0,0,5.187-3.426A22.1,22.1,0,0,0,134,74.958a36.336,36.336,0,0,0,3.288-9.262,60.984,60.984,0,0,0,1.249-13.291,61,61,0,0,0-1.249-13.292A36.366,36.366,0,0,0,134,29.853a22.1,22.1,0,0,0-4.585-6.021,19.869,19.869,0,0,0-5.187-3.426,20.215,20.215,0,0,0-5.094-1.529,25.219,25.219,0,0,0-8.614,0" transform="translate(-57.122 -18.506)" fill="url(#linear-gradient)"/>
    </clipPath>
    <clipPath id="clip-path-3">
      <path id="Path_6587" data-name="Path 6587" d="M68.733,114.464h4.483a8.4,8.4,0,0,1,4.2.814,3.1,3.1,0,0,1,1.353,2.89,3.409,3.409,0,0,1-.556,2.056,3.665,3.665,0,0,1-1.409,1.167,5.726,5.726,0,0,1-1.871.519,17.623,17.623,0,0,1-1.907.111h-4.3Zm0-10.671h3.852a6.957,6.957,0,0,1,3.872.834,3.152,3.152,0,0,1,.037,4.927,5.641,5.641,0,0,1-3.5.909H68.733Zm-4.668-4v26.23h9.447a18.037,18.037,0,0,0,3.649-.37,9.607,9.607,0,0,0,3.186-1.242,6.747,6.747,0,0,0,2.241-2.3,6.87,6.87,0,0,0,.852-3.575,6.42,6.42,0,0,0-.426-2.353,6.329,6.329,0,0,0-1.167-1.926,6.055,6.055,0,0,0-1.8-1.372,6.782,6.782,0,0,0-2.278-.685v-.075a7,7,0,0,0,3.3-2.075,5.379,5.379,0,0,0,1.26-3.668,5.931,5.931,0,0,0-2.537-5.094,7.527,7.527,0,0,0-2.577-1.148,12.322,12.322,0,0,0-2.926-.353Zm22.155,0v26.23h18.043V121.8H90.888v-7.112h12.04v-4.224H90.888v-6.447h12.707V99.792Zm37.53,0v4.224h8.039v22.007h4.668V104.015h8.04V99.792Zm-11.559-.185a9.551,9.551,0,0,0-3.094,1.463,7.642,7.642,0,0,0-2.186,2.464,7.066,7.066,0,0,0-.834,3.52,6.622,6.622,0,0,0,.927,3.723A7.28,7.28,0,0,0,109.3,113a12.637,12.637,0,0,0,3,1.315q1.629.482,3,1.019a8.149,8.149,0,0,1,2.3,1.316,2.739,2.739,0,0,1,.927,2.222,3.02,3.02,0,0,1-.408,1.575,3.471,3.471,0,0,1-1.074,1.13,5.032,5.032,0,0,1-1.482.667,6.172,6.172,0,0,1-1.63.222,6.31,6.31,0,0,1-2.945-.722,5.886,5.886,0,0,1-2.241-2.02l-3.52,3.408a9.07,9.07,0,0,0,3.89,2.742,13.808,13.808,0,0,0,4.705.814,12.773,12.773,0,0,0,3.668-.519,9.019,9.019,0,0,0,3.057-1.556A7.506,7.506,0,0,0,122.639,122a8.237,8.237,0,0,0,.778-3.686,6.714,6.714,0,0,0-.927-3.741,7.4,7.4,0,0,0-2.3-2.26,12.177,12.177,0,0,0-3-1.334q-1.63-.483-3-1a9.076,9.076,0,0,1-2.3-1.223,2.4,2.4,0,0,1-.927-2.038,3.053,3.053,0,0,1,.371-1.538,3.11,3.11,0,0,1,.981-1.056,4.29,4.29,0,0,1,1.372-.593,6.609,6.609,0,0,1,1.574-.185,6.92,6.92,0,0,1,2.612.5,4.291,4.291,0,0,1,1.982,1.575l3.408-3.595a9.334,9.334,0,0,0-3.5-2.075,12.984,12.984,0,0,0-4.019-.63,13.311,13.311,0,0,0-3.557.482" transform="translate(-64.065 -99.125)" fill="url(#linear-gradient-2)"/>
    </clipPath>
    <clipPath id="clip-path-4">
      <path id="Path_6588" data-name="Path 6588" d="M40.064,105.7a12.671,12.671,0,0,0-4.707,8.168,10.633,10.633,0,0,0,.568,4.892,11.5,11.5,0,0,0,3.051,4.521q.22,1.363.5,2.734.381.327.767.65-.363-1.739-.631-3.465a16.167,16.167,0,0,0,2.862-5.971,9.012,9.012,0,0,0-.138-4.319c-.676-2.515-2.143-4.635-1.907-7.037.012-.119-.037-.268-.161-.268a.336.336,0,0,0-.2.094M28.707,23.345h0m7.467-8.434h0M39.261,0c-.084,0-.162.1-.192.176-.647,1.717-2.279,3.138-3.24,4.945s-1.221,3.939.847,6.863q-.242,1.26-.438,2.512a75.366,75.366,0,0,0-7.106,7.812q.026-1.082.086-2.177a11.321,11.321,0,0,0,2.68-6.813,9.07,9.07,0,0,0-1.993-6.184c-.153-.179-.3.008-.329.146-.443,1.921-1.971,3.688-2.722,5.758s-.707,4.37,1.93,7.119q-.064,1.354-.074,2.69a75.775,75.775,0,0,0-6.221,9.4q-.15-1.122-.263-2.263a12.26,12.26,0,0,0,1.732-7.621,9.58,9.58,0,0,0-3.052-6.181c-.189-.164-.316.058-.327.208-.175,2.1-1.514,4.226-1.981,6.539s-.047,4.729,3.176,7.157q.155,1.414.361,2.8a75.972,75.972,0,0,0-3.96,8.42q-.5,1.246-.949,2.511-.344-1.125-.656-2.276a13.189,13.189,0,0,0,.516-8.286,10.062,10.062,0,0,0-4.217-5.94c-.223-.138-.32.119-.308.279.158,2.239-.9,4.712-.994,7.227s.756,4.968,4.547,6.91q.4,1.43.855,2.818A77.437,77.437,0,0,0,13.82,56.844q-.557-1.085-1.081-2.2a14.04,14.04,0,0,0-.952-8.723,10.523,10.523,0,0,0-5.435-5.409c-.258-.1-.315.184-.274.349.553,2.313-.108,5.1.238,7.743S8,53.639,12.3,54.927q.668,1.389,1.387,2.727a78.447,78.447,0,0,0-.978,13.341Q11.94,70,11.2,68.967a14.822,14.822,0,0,0-2.613-8.855,10.973,10.973,0,0,0-6.633-4.558c-.286-.056-.29.252-.22.416,1,2.3.823,5.319,1.675,8s2.687,4.9,7.388,5.38q.943,1.287,1.927,2.51a76.549,76.549,0,0,0,1.214,11.922q.185,1.018.4,2.031-.975-.844-1.932-1.739a15.664,15.664,0,0,0-4.447-8.606A11.436,11.436,0,0,0,.23,72.08.2.2,0,0,0,0,72.3v0a.5.5,0,0,0,.082.258c1.468,2.189,1.875,5.372,3.285,7.98s3.757,4.523,8.7,4.016q1.216,1.111,2.461,2.145a76.259,76.259,0,0,0,4.547,13.96q-1.158-.638-2.308-1.329A16.382,16.382,0,0,0,10.4,91.461,11.95,11.95,0,0,0,1.761,89.62c-.315.063-.195.387-.055.525C3.662,92.1,4.744,95.3,6.74,97.677s4.816,3.835,9.781,2.219q1.461.859,2.937,1.628.606,1.343,1.263,2.661a75.779,75.779,0,0,0,6.4,10.573q-1.3-.377-2.6-.812a17.06,17.06,0,0,0-8.22-6.606,12.528,12.528,0,0,0-9.249.035c-.31.136-.115.441.058.552a17.382,17.382,0,0,1,3.338,3.145,27.184,27.184,0,0,0,3.449,3.459,7.988,7.988,0,0,0,4.434,1.822,10.671,10.671,0,0,0,6.065-1.772q1.657.535,3.31.975a75.233,75.233,0,0,0,5.171,6.231,74.266,74.266,0,0,0,5.6,5.446q-1.384-.071-2.784-.2a17.8,17.8,0,0,0-9.876-4.8,13.185,13.185,0,0,0-9.441,2.16c-.286.208-.02.477.182.552a18.3,18.3,0,0,1,4.117,2.448,27.565,27.565,0,0,0,4.306,2.735,8.3,8.3,0,0,0,4.945.819,11.22,11.22,0,0,0,5.785-3.237q1.785.147,3.545.2A73.272,73.272,0,0,0,49.4,135.157q1.725,1.024,3.506,1.948-1.395.269-2.818.479a18.735,18.735,0,0,0-11.175-2.455,13.954,13.954,0,0,0-9.123,4.449c-.245.281.091.49.314.519a19.307,19.307,0,0,1,4.774,1.513,28.384,28.384,0,0,0,5.04,1.741,8.677,8.677,0,0,0,5.236-.375,11.831,11.831,0,0,0,5.112-4.714q1.821-.291,3.589-.672A72.139,72.139,0,0,0,69,143.158a.966.966,0,0,0,1.2-.7.986.986,0,0,0-.766-1.144A70.376,70.376,0,0,1,54.6,136.011q-.769-1.641-1.439-3.292a17.12,17.12,0,0,0,1.5-6.753,9.333,9.333,0,0,0-1.13-4.324c-.631-1.19-1.427-2.217-2.11-3.268a7.843,7.843,0,0,1-1.39-3.355c-.02-.175-.179-.378-.406-.084a13.3,13.3,0,0,0-2.933,9.4,10.854,10.854,0,0,0,1.7,4.811,11.674,11.674,0,0,0,4.149,3.815q.533,1.3,1.129,2.587-1.745-.888-3.44-1.873a71.6,71.6,0,0,1-9.993-7.008q.132.631.277,1.265l-.772-.642q-.143-.638-.272-1.273a72.64,72.64,0,0,1-5.525-5.286,73.449,73.449,0,0,1-5.12-6.064q.024-1.733.132-3.433a15.141,15.141,0,0,0,3.906-4.966,8.648,8.648,0,0,0,.75-4.089c-.062-1.265-.332-2.462-.5-3.633a7.637,7.637,0,0,1,.122-3.41c.049-.156-.005-.4-.308-.241a11.98,11.98,0,0,0-6.035,6.665,10.714,10.714,0,0,0,1.456,9.61q-.078,1.35-.1,2.721a74.473,74.473,0,0,1-6.366-10.324q-.656-1.289-1.263-2.6.374-1.641.82-3.234c4.564-2.591,5.748-5.117,6.135-7.516s-.066-4.772,1.012-6.715c.076-.137.072-.374-.239-.291a11.3,11.3,0,0,0-6.931,5.024,10.367,10.367,0,0,0-.529,9.312q-.348,1.272-.652,2.574A74.992,74.992,0,0,1,15.65,86.426q.676-1.481,1.408-2.9c4.749-1.5,6.34-3.633,7.151-5.816s.834-4.515,2.2-6.143c.1-.115.136-.34-.17-.325a10.663,10.663,0,0,0-7.406,3.371,9.975,9.975,0,0,0-2.255,8.624Q16,84.377,15.455,85.554q-.217-1-.407-2a75.414,75.414,0,0,1-1.294-11.734q.916-1.27,1.87-2.478c4.7-.489,6.574-2.194,7.723-4.1s1.581-4.123,3.14-5.417c.11-.091.186-.3-.1-.337a10.046,10.046,0,0,0-7.508,1.827,9.562,9.562,0,0,0-3.649,7.67q-.763.973-1.5,1.987A77.419,77.419,0,0,1,14.587,57.8q1.086-1.037,2.2-2.009c4.467.386,6.5-.884,7.9-2.478s2.17-3.593,3.842-4.542c.117-.066.224-.248-.039-.335a9.491,9.491,0,0,0-7.312.408,9.052,9.052,0,0,0-4.7,6.537q-.889.787-1.764,1.617a76.59,76.59,0,0,1,3.01-12.175q1.2-.791,2.41-1.517c4.1,1.131,6.2.288,7.765-.974s2.61-3.013,4.325-3.635c.12-.043.25-.2.018-.322a8.988,8.988,0,0,0-6.887-.821,8.547,8.547,0,0,0-5.438,5.316q-.975.593-1.943,1.227.438-1.256.918-2.495a75.4,75.4,0,0,1,3.852-8.369Q24,32.683,25.252,32.2c3.631,1.723,5.726,1.272,7.379.333s2.9-2.421,4.6-2.746c.12-.023.264-.148.066-.3A8.517,8.517,0,0,0,31,27.658a8.06,8.06,0,0,0-5.88,4.1q-1.015.4-2.029.839a75.115,75.115,0,0,1,6.091-9.371q1.26-.319,2.513-.584c3.117,2.157,5.133,2.047,6.812,1.412s3.056-1.846,4.686-1.912c.114,0,.267-.1.1-.271a8.07,8.07,0,0,0-5.611-2.6,7.585,7.585,0,0,0-6.053,2.944q-1.016.221-2.039.478a74.8,74.8,0,0,1,6.99-7.815q1.224-.116,2.437-.187c2.594,2.443,4.484,2.624,6.131,2.259s3.093-1.307,4.62-1.156c.108.011.262-.062.133-.24a7.623,7.623,0,0,0-4.874-3.169,7.12,7.12,0,0,0-6.009,1.9q-.987.062-1.983.156,1.95-1.864,4.029-3.58l.764-.622A9.558,9.558,0,0,0,48.557,8.1c1.761-1.566,2.842-3.64,4.079-5.014a.266.266,0,0,0,.045-.3.245.245,0,0,0-.261-.127c-1.8.269-4.171.193-6.446,1.267a8.484,8.484,0,0,0-4.411,5.934l-.007.005q-.381.3-.758.607l-.007.005Q38.684,12.2,36.7,14.058q.175-1.015.378-2.035a10.39,10.39,0,0,0,3.372-5.936,8.534,8.534,0,0,0-1.061-6A.156.156,0,0,0,39.269,0Zm111.25,0a.156.156,0,0,0-.122.086,8.53,8.53,0,0,0-1.062,6,10.39,10.39,0,0,0,3.372,5.936q.205,1.02.378,2.035-2.33-2.189-4.834-4.167l-.027-.022a8.484,8.484,0,0,0-4.411-5.934c-2.275-1.074-4.651-1-6.446-1.267a.246.246,0,0,0-.262.127.266.266,0,0,0,.046.3c1.237,1.374,2.317,3.448,4.079,5.014a9.554,9.554,0,0,0,6.726,2.125l.764.622h0q2.079,1.716,4.03,3.581-1-.094-1.984-.156a7.119,7.119,0,0,0-6.009-1.9,7.625,7.625,0,0,0-4.874,3.169c-.129.178.026.251.133.24,1.528-.151,2.979.787,4.62,1.156s3.536.184,6.131-2.259q1.213.071,2.438.187a74.9,74.9,0,0,1,6.99,7.815q-1.021-.257-2.039-.478a7.586,7.586,0,0,0-6.054-2.944,8.066,8.066,0,0,0-5.609,2.6c-.162.17-.01.267.1.272,1.63.065,3.014,1.272,4.687,1.912s3.693.745,6.811-1.412q1.254.266,2.515.585a75.233,75.233,0,0,1,6.09,9.37q-1.015-.439-2.03-.839a8.059,8.059,0,0,0-5.879-4.1,8.52,8.52,0,0,0-6.3,1.826c-.2.153-.053.278.066.3,1.7.325,2.952,1.8,4.6,2.746s3.749,1.389,7.379-.333q1.256.487,2.51,1.033a75.4,75.4,0,0,1,3.851,8.369q.48,1.238.918,2.495-.967-.634-1.942-1.227a8.548,8.548,0,0,0-5.439-5.316,8.987,8.987,0,0,0-6.887.821c-.232.124-.1.279.019.323,1.714.621,2.771,2.37,4.324,3.634s3.67,2.1,7.765.974q1.211.725,2.41,1.517a76.544,76.544,0,0,1,3.01,12.175q-.873-.83-1.764-1.617a9.051,9.051,0,0,0-4.7-6.537,9.5,9.5,0,0,0-7.312-.408c-.264.087-.156.269-.04.335,1.673.949,2.455,2.948,3.842,4.542s3.431,2.864,7.9,2.478q1.113.973,2.2,2.009a77.426,77.426,0,0,1,.857,13.175q-.736-1.014-1.5-1.987a9.562,9.562,0,0,0-3.649-7.67,10.049,10.049,0,0,0-7.507-1.828c-.288.04-.213.247-.1.338,1.56,1.294,2,3.507,3.14,5.417s3.021,3.616,7.722,4.1q.955,1.207,1.87,2.478a75.308,75.308,0,0,1-1.293,11.734q-.189,1-.408,2-.542-1.178-1.122-2.318a9.973,9.973,0,0,0-2.256-8.624,10.659,10.659,0,0,0-7.405-3.371c-.305-.016-.266.21-.169.325,1.365,1.628,1.4,3.964,2.2,6.143s2.4,4.317,7.151,5.816q.732,1.422,1.407,2.9a74.993,74.993,0,0,1-4.586,13.688q-.3-1.3-.652-2.573a10.367,10.367,0,0,0-.53-9.312,11.292,11.292,0,0,0-6.931-5.024c-.311-.083-.314.154-.239.291,1.079,1.943.634,4.322,1.013,6.715s1.571,4.925,6.134,7.516q.446,1.593.82,3.234-.607,1.314-1.263,2.6a74.314,74.314,0,0,1-6.366,10.325q-.025-1.372-.1-2.722a10.711,10.711,0,0,0,1.456-9.61,11.98,11.98,0,0,0-6.035-6.665c-.3-.154-.357.085-.307.241a7.637,7.637,0,0,1,.121,3.41c-.167,1.171-.437,2.368-.5,3.633a8.619,8.619,0,0,0,.749,4.089,15.131,15.131,0,0,0,3.905,4.965q.108,1.7.132,3.433a73.449,73.449,0,0,1-5.12,6.064,72.463,72.463,0,0,1-5.525,5.285q.279-1.371.5-2.733a11.517,11.517,0,0,0,3.049-4.521,10.621,10.621,0,0,0,.568-4.892,12.669,12.669,0,0,0-4.706-8.167c-.274-.228-.379,0-.363.173.236,2.4-1.232,4.522-1.908,7.037a9.024,9.024,0,0,0-.138,4.319,16.171,16.171,0,0,0,2.863,5.971q-.27,1.725-.632,3.465a71.587,71.587,0,0,1-9.992,7.008q-1.695.986-3.441,1.873.6-1.29,1.13-2.587a11.678,11.678,0,0,0,4.149-3.815,10.821,10.821,0,0,0,1.7-4.811,13.3,13.3,0,0,0-2.932-9.4c-.228-.295-.385-.091-.406.084a7.823,7.823,0,0,1-1.391,3.355c-.683,1.051-1.479,2.078-2.11,3.268a9.333,9.333,0,0,0-1.129,4.324,17.116,17.116,0,0,0,1.5,6.753q-.67,1.649-1.439,3.293a70.433,70.433,0,0,1-14.821,5.3.985.985,0,0,0-.766,1.144.965.965,0,0,0,1.194.7,72.1,72.1,0,0,0,15.141-5.568q1.769.382,3.59.672a11.826,11.826,0,0,0,5.112,4.714,8.674,8.674,0,0,0,5.235.375,28.314,28.314,0,0,0,5.04-1.741,19.3,19.3,0,0,1,4.774-1.513c.223-.028.559-.237.314-.519a13.954,13.954,0,0,0-9.122-4.449,18.736,18.736,0,0,0-11.176,2.455q-1.424-.212-2.817-.478,1.78-.925,3.507-1.949a73.353,73.353,0,0,0,10.152-7.253q1.758-.052,3.544-.2a11.222,11.222,0,0,0,5.786,3.237,8.3,8.3,0,0,0,4.945-.819,27.648,27.648,0,0,0,4.306-2.735,18.279,18.279,0,0,1,4.117-2.448c.2-.074.468-.344.181-.552a13.183,13.183,0,0,0-9.441-2.16,17.794,17.794,0,0,0-9.875,4.8q-1.4.131-2.785.2a74.114,74.114,0,0,0,5.6-5.446,75.053,75.053,0,0,0,5.17-6.231q1.653-.441,3.311-.975a10.667,10.667,0,0,0,6.064,1.772,7.988,7.988,0,0,0,4.435-1.822,27.178,27.178,0,0,0,3.448-3.459,17.385,17.385,0,0,1,3.339-3.145c.172-.111.368-.416.058-.552a12.528,12.528,0,0,0-9.249-.035,17.058,17.058,0,0,0-8.221,6.606q-1.3.435-2.6.812a75.688,75.688,0,0,0,6.4-10.573q.658-1.318,1.264-2.66,1.475-.771,2.937-1.629c4.965,1.615,7.8.163,9.782-2.219s3.079-5.579,5.033-7.532c.14-.138.26-.462-.054-.525a11.952,11.952,0,0,0-8.64,1.841,16.4,16.4,0,0,0-6.366,7.868q-1.148.692-2.308,1.329a76.261,76.261,0,0,0,4.548-13.96q1.245-1.033,2.46-2.144c4.942.506,7.3-1.41,8.7-4.017s1.817-5.79,3.285-7.98c.1-.156.159-.48-.148-.478a11.438,11.438,0,0,0-7.726,3.388,15.664,15.664,0,0,0-4.447,8.606q-.955.894-1.932,1.738.212-1.012.4-2.03a76.548,76.548,0,0,0,1.214-11.922q.983-1.223,1.927-2.51c4.7-.475,6.547-2.7,7.388-5.38s.68-5.7,1.676-8c.071-.164.065-.473-.221-.416a10.971,10.971,0,0,0-6.632,4.558,14.816,14.816,0,0,0-2.612,8.855q-.741,1.035-1.511,2.028a78.364,78.364,0,0,0-.978-13.341q.718-1.338,1.387-2.727c4.3-1.288,5.646-3.685,5.984-6.326s-.316-5.43.237-7.743c.041-.165-.017-.452-.273-.349a10.517,10.517,0,0,0-5.435,5.409,14.022,14.022,0,0,0-.951,8.723q-.527,1.118-1.082,2.2a77.538,77.538,0,0,0-3.148-12.293q.452-1.389.855-2.818c3.791-1.942,4.655-4.4,4.548-6.91s-1.153-4.988-1-7.227c.013-.16-.085-.416-.308-.279a10.066,10.066,0,0,0-4.217,5.94,13.192,13.192,0,0,0,.516,8.287q-.311,1.151-.656,2.276-.453-1.265-.949-2.512a75.97,75.97,0,0,0-3.96-8.42q.206-1.387.362-2.8c3.221-2.428,3.647-4.849,3.175-7.157s-1.807-4.437-1.981-6.539c-.011-.149-.138-.372-.326-.208a9.577,9.577,0,0,0-3.053,6.181,12.26,12.26,0,0,0,1.732,7.621q-.114,1.141-.262,2.263a75.782,75.782,0,0,0-6.222-9.4q-.012-1.336-.073-2.69c2.636-2.75,2.688-5.056,1.931-7.119S160.646,9.2,160.2,7.281c-.031-.138-.177-.325-.329-.146a9.071,9.071,0,0,0-1.994,6.183,11.326,11.326,0,0,0,2.68,6.814q.061,1.093.086,2.176a75.248,75.248,0,0,0-7.105-7.811q-.2-1.252-.438-2.513c2.069-2.924,1.811-5.061.848-6.863s-2.594-3.229-3.24-4.945C150.681.1,150.6,0,150.519,0Z" fill="url(#linear-gradient-3)"/>
    </clipPath>
  </defs>
  <g id="Group_854" data-name="Group 854" transform="translate(-5797.647 -13907.827)">
    <g id="Group_853" data-name="Group 853" transform="translate(5797.646 13907.827)">
      <g id="Group_846" data-name="Group 846">
        <g id="Group_845" data-name="Group 845" clip-path="url(#clip-path)">
          <path id="Path_6518" data-name="Path 6518" d="M104.544,178.073v-.241a4.481,4.481,0,0,0,1.089-.424,1.609,1.609,0,0,0,.524-.6,1.679,1.679,0,0,0,.221-.816,1.327,1.327,0,0,0-.417-.983,1.423,1.423,0,0,0-1.036-.41,1.95,1.95,0,0,0-1.641,1.021l-.255-.09a4.142,4.142,0,0,1,1.272-1.73,2.819,2.819,0,0,1,1.726-.579,2.245,2.245,0,0,1,1.6.593,1.844,1.844,0,0,1,.631,1.385,1.877,1.877,0,0,1-.293,1,2.548,2.548,0,0,1-.92.844,3.26,3.26,0,0,1,1.23.969,2.362,2.362,0,0,1,.424,1.443,3.327,3.327,0,0,1-1.058,2.485,3.908,3.908,0,0,1-2.836,1.023,3,3,0,0,1-1.73-.393.834.834,0,0,1-.393-.71.77.77,0,0,1,.751-.765.973.973,0,0,1,.428.1,9.1,9.1,0,0,1,.782.6,2.05,2.05,0,0,0,1.258.548,1.139,1.139,0,0,0,.875-.4,1.462,1.462,0,0,0,.365-1.023,2.665,2.665,0,0,0-.662-1.74,3.468,3.468,0,0,0-1.936-1.1" transform="translate(-12.106 -20.422)" fill="#030328"/>
          <path id="Path_6519" data-name="Path 6519" d="M88.079,190.44v.255a1.377,1.377,0,0,0-.71.269,7.145,7.145,0,0,0-1.089,1.578l-2.026,3.384v2.26a3.049,3.049,0,0,0,.076.9.7.7,0,0,0,.3.31,1.146,1.146,0,0,0,.6.135h.523v.255H80.5v-.255h.49a1.274,1.274,0,0,0,.655-.145.664.664,0,0,0,.282-.331,2.819,2.819,0,0,0,.076-.869v-1.874l-2.2-4a5.927,5.927,0,0,0-.924-1.4,1.16,1.16,0,0,0-.716-.217v-.255h4.479v.255h-.2a1.007,1.007,0,0,0-.568.117.322.322,0,0,0-.162.248,4.136,4.136,0,0,0,.551,1.247l1.688,3.094,1.681-2.818a3.741,3.741,0,0,0,.627-1.372.366.366,0,0,0-.179-.311,1.713,1.713,0,0,0-.861-.206v-.255Z" transform="translate(-9.216 -22.452)" fill="#030328"/>
          <path id="Path_6520" data-name="Path 6520" d="M94.106,190.977v3.8h.186a1.475,1.475,0,0,0,1.289-.557,3.432,3.432,0,0,0,.51-1.648h.262v4.893h-.262a3.647,3.647,0,0,0-.348-1.309,1.488,1.488,0,0,0-.617-.685,2.339,2.339,0,0,0-1.02-.176v2.633a3.776,3.776,0,0,0,.065.944.567.567,0,0,0,.245.282,1.15,1.15,0,0,0,.579.11h.558a3.011,3.011,0,0,0,3.232-2.453h.255l-.421,2.97H90.543v-.255h.31a1.289,1.289,0,0,0,.655-.145.63.63,0,0,0,.275-.331,2.815,2.815,0,0,0,.076-.868v-6.147a4.916,4.916,0,0,0-.034-.779.659.659,0,0,0-.255-.372,1.191,1.191,0,0,0-.717-.192h-.31v-.255h7.822V193.2H98.1a3.374,3.374,0,0,0-.561-1.454,2.091,2.091,0,0,0-1.024-.647,5.525,5.525,0,0,0-1.447-.124Z" transform="translate(-10.674 -22.452)" fill="#030328"/>
          <path id="Path_6521" data-name="Path 6521" d="M107.422,197.1h-3.3l-.393.909a2.042,2.042,0,0,0-.193.752.623.623,0,0,0,.318.579,2.675,2.675,0,0,0,.917.166v.255H101.66V199.5a1.4,1.4,0,0,0,.827-.417,5.522,5.522,0,0,0,.8-1.41l3.342-7.456h.131l3.37,7.664a4.651,4.651,0,0,0,.792,1.371,1.084,1.084,0,0,0,.662.249v.255h-4.521V199.5h.186a1.419,1.419,0,0,0,.765-.152.367.367,0,0,0,.152-.318.828.828,0,0,0-.041-.255c-.009-.041-.078-.213-.206-.517Zm-.235-.51-1.392-3.218-1.433,3.218Z" transform="translate(-11.985 -22.426)" fill="#030328"/>
          <path id="Path_6522" data-name="Path 6522" d="M117.513,195.525v2.619a2.9,2.9,0,0,0,.093.954.686.686,0,0,0,.328.314,2.212,2.212,0,0,0,.875.116v.255h-4.783v-.255a2.169,2.169,0,0,0,.879-.12.7.7,0,0,0,.324-.314,2.854,2.854,0,0,0,.094-.951V192.08a2.892,2.892,0,0,0-.094-.954.679.679,0,0,0-.327-.313,2.2,2.2,0,0,0-.875-.117v-.255h4.342a9.517,9.517,0,0,1,2.48.234,2.5,2.5,0,0,1,1.282.865,2.32,2.32,0,0,1,.5,1.478,2.207,2.207,0,0,1-.744,1.709,3.079,3.079,0,0,1-1.33.641l2.247,3.163a4.784,4.784,0,0,0,.627.765,1.167,1.167,0,0,0,.655.234v.255h-2.943l-3.012-4.259Zm0-4.583v4.094h.393a4.382,4.382,0,0,0,1.433-.176,1.424,1.424,0,0,0,.748-.633,2.32,2.32,0,0,0,.273-1.2,1.815,1.815,0,0,0-2.109-2.088Z" transform="translate(-13.443 -22.452)" fill="#030328"/>
          <path id="Path_6523" data-name="Path 6523" d="M132.651,190.2l.076,3.115h-.282a3.2,3.2,0,0,0-.983-1.884,2.463,2.463,0,0,0-1.692-.714,1.581,1.581,0,0,0-1.112.376,1.143,1.143,0,0,0-.41.864,1.052,1.052,0,0,0,.145.551,2.348,2.348,0,0,0,.64.641,14.6,14.6,0,0,0,1.5.806,6.652,6.652,0,0,1,2.212,1.523,2.583,2.583,0,0,1,.565,1.641,2.653,2.653,0,0,1-.913,2.016,3.282,3.282,0,0,1-2.319.844,3.727,3.727,0,0,1-.834-.09,6.261,6.261,0,0,1-.985-.337,1.481,1.481,0,0,0-.545-.138.67.67,0,0,0-.378.138.948.948,0,0,0-.324.42h-.255v-3.528h.255a4.04,4.04,0,0,0,1.168,2.271,2.734,2.734,0,0,0,1.864.782,1.754,1.754,0,0,0,1.231-.42,1.293,1.293,0,0,0,.458-.979,1.279,1.279,0,0,0-.176-.64,2.033,2.033,0,0,0-.535-.589,8.064,8.064,0,0,0-1.268-.728,10.906,10.906,0,0,1-1.833-1.068,3.283,3.283,0,0,1-.858-.985,2.447,2.447,0,0,1-.3-1.2,2.535,2.535,0,0,1,.82-1.9,2.869,2.869,0,0,1,2.068-.786,3.533,3.533,0,0,1,.882.11,4.377,4.377,0,0,1,.789.307,1.867,1.867,0,0,0,.652.224.369.369,0,0,0,.282-.11,1.28,1.28,0,0,0,.193-.531Z" transform="translate(-14.943 -22.423)" fill="#030328"/>
          <path id="Path_6524" data-name="Path 6524" d="M45.347,243.471H41.954l-.594,1.383a2.187,2.187,0,0,0-.22.762.445.445,0,0,0,.19.353,1.674,1.674,0,0,0,.824.2v.239H39.4v-.239a1.489,1.489,0,0,0,.711-.251,3.977,3.977,0,0,0,.729-1.26l3.082-7.21h.226l3.049,7.288a3.309,3.309,0,0,0,.67,1.139,1.352,1.352,0,0,0,.836.295v.239H45.243v-.239a1.307,1.307,0,0,0,.707-.175.454.454,0,0,0,.183-.362,2.677,2.677,0,0,0-.258-.9Zm-.181-.477-1.487-3.541-1.524,3.541Z" transform="translate(-4.645 -27.993)" fill="#030328"/>
          <path id="Path_6525" data-name="Path 6525" d="M52.6,241.956c.43-.43.685-.679.762-.743a2.333,2.333,0,0,1,.626-.382,1.778,1.778,0,0,1,.666-.135,1.472,1.472,0,0,1,.956.323,1.6,1.6,0,0,1,.536.937,4.372,4.372,0,0,1,1.124-1.018,1.987,1.987,0,0,1,.944-.242,1.471,1.471,0,0,1,.836.242,1.607,1.607,0,0,1,.579.792,3.572,3.572,0,0,1,.142,1.175v2.547a2.3,2.3,0,0,0,.084.761.55.55,0,0,0,.239.243,1.223,1.223,0,0,0,.569.1v.233H57.739v-.233h.123a1.037,1.037,0,0,0,.595-.148.578.578,0,0,0,.213-.331,4.194,4.194,0,0,0,.026-.625V242.9a2.16,2.16,0,0,0-.174-1.02.876.876,0,0,0-.808-.414,1.542,1.542,0,0,0-.688.171,3.7,3.7,0,0,0-.837.635l-.012.072.012.278v2.824a2.423,2.423,0,0,0,.068.754.552.552,0,0,0,.255.251,1.489,1.489,0,0,0,.64.1v.233H54.16v-.233a1.369,1.369,0,0,0,.676-.117.6.6,0,0,0,.255-.348,3.4,3.4,0,0,0,.032-.639V242.9a1.932,1.932,0,0,0-.213-1.041.912.912,0,0,0-.795-.413,1.434,1.434,0,0,0-.692.188,2.671,2.671,0,0,0-.827.639v3.174a2.16,2.16,0,0,0,.081.754.548.548,0,0,0,.238.262,1.525,1.525,0,0,0,.644.088v.233H50.632v-.233a1.287,1.287,0,0,0,.569-.088.555.555,0,0,0,.245-.277,2.126,2.126,0,0,0,.084-.739v-2.263a8.224,8.224,0,0,0-.057-1.259.511.511,0,0,0-.143-.295.4.4,0,0,0-.265-.081,1.233,1.233,0,0,0-.433.1l-.1-.232,1.784-.724H52.6Z" transform="translate(-5.958 -28.376)" fill="#030328"/>
          <path id="Path_6526" data-name="Path 6526" d="M63.852,243.1a3.033,3.033,0,0,0,.64,2.068,1.948,1.948,0,0,0,1.517.749,1.647,1.647,0,0,0,1.012-.32,2.369,2.369,0,0,0,.72-1.1l.2.129a3.081,3.081,0,0,1-.788,1.613,2.107,2.107,0,0,1-1.635.727,2.391,2.391,0,0,1-1.826-.83,3.183,3.183,0,0,1-.759-2.233,3.374,3.374,0,0,1,.779-2.368,2.537,2.537,0,0,1,1.954-.849,2.186,2.186,0,0,1,1.635.655,2.406,2.406,0,0,1,.64,1.755Zm0-.376h2.739a2.554,2.554,0,0,0-.135-.8,1.3,1.3,0,0,0-.482-.569,1.217,1.217,0,0,0-.67-.206,1.329,1.329,0,0,0-.958.417,1.8,1.8,0,0,0-.495,1.159" transform="translate(-7.42 -28.376)" fill="#030328"/>
          <path id="Path_6527" data-name="Path 6527" d="M71.494,240.7v1.33q.744-1.331,1.525-1.33a.827.827,0,0,1,.587.215.67.67,0,0,1,.232.5.593.593,0,0,1-.167.426.539.539,0,0,1-.4.176.857.857,0,0,1-.507-.224.838.838,0,0,0-.416-.222.38.38,0,0,0-.251.13,3.058,3.058,0,0,0-.6.872V245.4a1.765,1.765,0,0,0,.123.745.667.667,0,0,0,.3.289,1.3,1.3,0,0,0,.613.117v.232H69.5v-.232a1.252,1.252,0,0,0,.672-.144.549.549,0,0,0,.227-.329,3.378,3.378,0,0,0,.032-.627v-2.293a9.714,9.714,0,0,0-.041-1.231.484.484,0,0,0-.155-.288.439.439,0,0,0-.281-.091,1.275,1.275,0,0,0-.453.1l-.064-.233,1.789-.723Z" transform="translate(-8.186 -28.376)" fill="#030328"/>
          <path id="Path_6528" data-name="Path 6528" d="M77.139,240.283v4.755a2.167,2.167,0,0,0,.081.739.572.572,0,0,0,.239.274,1.282,1.282,0,0,0,.578.091v.233H75.162v-.233a1.331,1.331,0,0,0,.581-.084.57.57,0,0,0,.236-.278,2.107,2.107,0,0,0,.087-.743v-2.281a8.18,8.18,0,0,0-.058-1.247.508.508,0,0,0-.143-.288.4.4,0,0,0-.265-.081,1.292,1.292,0,0,0-.439.1l-.09-.233,1.783-.723Zm-.535-3.1a.652.652,0,0,1,.652.653.642.642,0,0,1-.191.466.624.624,0,0,1-.461.194.664.664,0,0,1-.66-.66.654.654,0,0,1,.66-.653" transform="translate(-8.85 -27.963)" fill="#030328"/>
          <path id="Path_6529" data-name="Path 6529" d="M84.6,244.54a3.207,3.207,0,0,1-.937,1.8,2.25,2.25,0,0,1-1.545.631,2.285,2.285,0,0,1-1.757-.846,3.33,3.33,0,0,1-.749-2.288,3.148,3.148,0,0,1,.83-2.267,2.65,2.65,0,0,1,1.993-.872,2.183,2.183,0,0,1,1.435.461,1.277,1.277,0,0,1,.562.96.523.523,0,0,1-.159.4.612.612,0,0,1-.443.152.687.687,0,0,1-.574-.244,1.03,1.03,0,0,1-.146-.517.849.849,0,0,0-.262-.582.93.93,0,0,0-.626-.193,1.277,1.277,0,0,0-1.04.477,2.536,2.536,0,0,0-.524,1.674,3.385,3.385,0,0,0,.52,1.869,1.6,1.6,0,0,0,1.405.812,1.7,1.7,0,0,0,1.137-.432,2.943,2.943,0,0,0,.692-1.081Z" transform="translate(-9.386 -28.377)" fill="#030328"/>
          <path id="Path_6530" data-name="Path 6530" d="M89.887,245.936a9.554,9.554,0,0,1-1.143.812,1.739,1.739,0,0,1-.744.162,1.324,1.324,0,0,1-1.01-.421,1.534,1.534,0,0,1-.4-1.1,1.413,1.413,0,0,1,.192-.75,2.579,2.579,0,0,1,.921-.827,14.383,14.383,0,0,1,2.181-.942v-.233a1.923,1.923,0,0,0-.281-1.215,1.013,1.013,0,0,0-.817-.331.917.917,0,0,0-.647.221.66.66,0,0,0-.246.5l.014.376a.641.641,0,0,1-.153.458.517.517,0,0,1-.4.162.507.507,0,0,1-.392-.169.659.659,0,0,1-.152-.458,1.322,1.322,0,0,1,.569-1.021,2.459,2.459,0,0,1,1.6-.465,2.778,2.778,0,0,1,1.291.264,1.221,1.221,0,0,1,.563.627,3.532,3.532,0,0,1,.116,1.137v2.009a9.03,9.03,0,0,0,.033,1.037.437.437,0,0,0,.106.255.255.255,0,0,0,.172.065.364.364,0,0,0,.181-.044,4.234,4.234,0,0,0,.523-.473v.363q-.724.969-1.383.968a.624.624,0,0,1-.5-.219,1.178,1.178,0,0,1-.195-.749m0-.421v-2.256a13.009,13.009,0,0,0-1.26.55,2.19,2.19,0,0,0-.73.595,1.148,1.148,0,0,0-.219.679,1.109,1.109,0,0,0,.278.772.84.84,0,0,0,.639.306,2.344,2.344,0,0,0,1.292-.646" transform="translate(-10.209 -28.376)" fill="#030328"/>
          <path id="Path_6531" data-name="Path 6531" d="M95.164,241.949a2.793,2.793,0,0,1,1.984-1.253,1.415,1.415,0,0,1,.833.242,1.624,1.624,0,0,1,.557.8,3.7,3.7,0,0,1,.141,1.188v2.528a2.1,2.1,0,0,0,.092.761.52.52,0,0,0,.229.251,1.293,1.293,0,0,0,.584.092v.232H96.656v-.232h.124a.993.993,0,0,0,.578-.126.667.667,0,0,0,.229-.372,3.719,3.719,0,0,0,.026-.606v-2.424a2.45,2.45,0,0,0-.21-1.171.746.746,0,0,0-.707-.366,2.129,2.129,0,0,0-1.531.84v3.122a2.213,2.213,0,0,0,.071.742.6.6,0,0,0,.249.274,1.534,1.534,0,0,0,.643.088v.232H93.2v-.232h.13a.7.7,0,0,0,.61-.229,1.669,1.669,0,0,0,.159-.875v-2.2a9.639,9.639,0,0,0-.049-1.3.558.558,0,0,0-.149-.318.407.407,0,0,0-.267-.084,1.241,1.241,0,0,0-.434.1l-.1-.233,1.784-.723h.277Z" transform="translate(-10.976 -28.376)" fill="#030328"/>
          <path id="Path_6532" data-name="Path 6532" d="M108.993,246.192v.239h-3.754v-.239h.311a.935.935,0,0,0,.789-.317,1.968,1.968,0,0,0,.155-.994v-5.66a2.869,2.869,0,0,0-.085-.879.581.581,0,0,0-.265-.278,1.229,1.229,0,0,0-.595-.155h-.311v-.239h3.754v.239h-.317a.926.926,0,0,0-.782.316,1.9,1.9,0,0,0-.161,1v5.66a2.924,2.924,0,0,0,.084.879.58.58,0,0,0,.272.277,1.187,1.187,0,0,0,.587.155Z" transform="translate(-12.407 -28.02)" fill="#030328"/>
          <path id="Path_6533" data-name="Path 6533" d="M112.31,241.949a2.793,2.793,0,0,1,1.984-1.253,1.415,1.415,0,0,1,.833.242,1.624,1.624,0,0,1,.557.8,3.7,3.7,0,0,1,.141,1.188v2.528a2.1,2.1,0,0,0,.092.761.52.52,0,0,0,.229.251,1.293,1.293,0,0,0,.584.092v.232H113.8v-.232h.123a.993.993,0,0,0,.578-.126.667.667,0,0,0,.229-.372,3.72,3.72,0,0,0,.026-.606v-2.424a2.45,2.45,0,0,0-.21-1.171.746.746,0,0,0-.707-.366,2.129,2.129,0,0,0-1.531.84v3.122a2.213,2.213,0,0,0,.071.742.6.6,0,0,0,.249.274,1.534,1.534,0,0,0,.643.088v.232h-2.928v-.232h.13a.7.7,0,0,0,.61-.229,1.669,1.669,0,0,0,.159-.875v-2.2a9.637,9.637,0,0,0-.049-1.3.558.558,0,0,0-.149-.318.407.407,0,0,0-.267-.084,1.241,1.241,0,0,0-.434.1l-.1-.233,1.784-.723h.277Z" transform="translate(-12.998 -28.376)" fill="#030328"/>
          <path id="Path_6534" data-name="Path 6534" d="M122.286,240.7v2.016h-.214a2.6,2.6,0,0,0-.629-1.292,1.415,1.415,0,0,0-.978-.342,1.074,1.074,0,0,0-.731.239.689.689,0,0,0-.277.529.962.962,0,0,0,.206.62,2.3,2.3,0,0,0,.815.562l.944.46a1.915,1.915,0,0,1,1.311,1.685,1.594,1.594,0,0,1-.611,1.3,2.113,2.113,0,0,1-1.366.494,4.728,4.728,0,0,1-1.242-.194,1.242,1.242,0,0,0-.347-.064.255.255,0,0,0-.233.168h-.214v-2.113h.214a2.4,2.4,0,0,0,.69,1.363,1.666,1.666,0,0,0,1.145.46,1.024,1.024,0,0,0,.726-.262.835.835,0,0,0,.282-.631,1.007,1.007,0,0,0-.315-.75,5.55,5.55,0,0,0-1.251-.768,3.691,3.691,0,0,1-1.226-.841,1.445,1.445,0,0,1-.291-.931,1.64,1.64,0,0,1,.5-1.219,1.775,1.775,0,0,1,1.3-.491,3.021,3.021,0,0,1,.847.148,2.044,2.044,0,0,0,.44.1.26.26,0,0,0,.16-.044.632.632,0,0,0,.136-.2Z" transform="translate(-13.993 -28.376)" fill="#030328"/>
          <path id="Path_6535" data-name="Path 6535" d="M126.247,238.689v1.945h1.381v.452h-1.381v3.838a1.289,1.289,0,0,0,.164.775.525.525,0,0,0,.424.2.748.748,0,0,0,.413-.133.855.855,0,0,0,.31-.391h.251a2.018,2.018,0,0,1-.638.953,1.388,1.388,0,0,1-.854.32,1.137,1.137,0,0,1-.581-.165.991.991,0,0,1-.42-.47,2.477,2.477,0,0,1-.135-.947v-3.98h-.939v-.212a2.487,2.487,0,0,0,.728-.482,3.777,3.777,0,0,0,.662-.8,7.116,7.116,0,0,0,.413-.9Z" transform="translate(-14.647 -28.14)" fill="#030328"/>
          <path id="Path_6536" data-name="Path 6536" d="M131.073,240.283v4.755a2.168,2.168,0,0,0,.081.739.572.572,0,0,0,.239.274,1.282,1.282,0,0,0,.578.091v.233H129.1v-.233a1.331,1.331,0,0,0,.581-.084.57.57,0,0,0,.236-.278,2.107,2.107,0,0,0,.087-.743v-2.281a8.178,8.178,0,0,0-.058-1.247.508.508,0,0,0-.143-.288.4.4,0,0,0-.265-.081,1.292,1.292,0,0,0-.439.1l-.09-.233,1.783-.723Zm-.535-3.1a.652.652,0,0,1,.652.653.642.642,0,0,1-.191.466.624.624,0,0,1-.461.194.664.664,0,0,1-.66-.66.654.654,0,0,1,.66-.653" transform="translate(-15.209 -27.963)" fill="#030328"/>
          <path id="Path_6537" data-name="Path 6537" d="M135.183,238.689v1.945h1.382v.452h-1.382v3.838a1.288,1.288,0,0,0,.165.775.524.524,0,0,0,.423.2.749.749,0,0,0,.414-.133.86.86,0,0,0,.31-.391h.251a2.019,2.019,0,0,1-.639.953,1.384,1.384,0,0,1-.853.32,1.142,1.142,0,0,1-.582-.165,1,1,0,0,1-.42-.47,2.5,2.5,0,0,1-.135-.947v-3.98h-.938v-.212a2.487,2.487,0,0,0,.728-.482,3.831,3.831,0,0,0,.662-.8,7.252,7.252,0,0,0,.413-.9Z" transform="translate(-15.701 -28.14)" fill="#030328"/>
          <path id="Path_6538" data-name="Path 6538" d="M143.1,240.894v3.585a8.844,8.844,0,0,0,.049,1.256.561.561,0,0,0,.154.321.375.375,0,0,0,.25.091,1.16,1.16,0,0,0,.451-.11l.092.226-1.771.73h-.29v-1.254a5.385,5.385,0,0,1-1.163,1.041,1.767,1.767,0,0,1-.847.213,1.356,1.356,0,0,1-.863-.288,1.486,1.486,0,0,1-.507-.739,4.5,4.5,0,0,1-.141-1.28v-2.643a1.283,1.283,0,0,0-.092-.58.6.6,0,0,0-.267-.251,1.609,1.609,0,0,0-.643-.079v-.239h2.074v3.961a1.483,1.483,0,0,0,.288,1.086,1,1,0,0,0,.694.258,1.445,1.445,0,0,0,.631-.176,3.376,3.376,0,0,0,.836-.664v-3.353a.95.95,0,0,0-.184-.683,1.2,1.2,0,0,0-.766-.19v-.239Z" transform="translate(-16.212 -28.4)" fill="#030328"/>
          <path id="Path_6539" data-name="Path 6539" d="M147.451,238.689v1.945h1.382v.452h-1.382v3.838a1.288,1.288,0,0,0,.165.775.524.524,0,0,0,.423.2.749.749,0,0,0,.414-.133.86.86,0,0,0,.31-.391h.251a2.019,2.019,0,0,1-.639.953,1.384,1.384,0,0,1-.853.32,1.142,1.142,0,0,1-.582-.165,1,1,0,0,1-.42-.47,2.5,2.5,0,0,1-.135-.947v-3.98h-.938v-.212a2.487,2.487,0,0,0,.728-.482,3.831,3.831,0,0,0,.662-.8,7.245,7.245,0,0,0,.413-.9Z" transform="translate(-17.147 -28.14)" fill="#030328"/>
          <path id="Path_6540" data-name="Path 6540" d="M151.243,243.1a3.033,3.033,0,0,0,.64,2.068,1.948,1.948,0,0,0,1.517.749,1.647,1.647,0,0,0,1.012-.32,2.369,2.369,0,0,0,.72-1.1l.2.129a3.081,3.081,0,0,1-.788,1.613,2.107,2.107,0,0,1-1.635.727,2.391,2.391,0,0,1-1.826-.83,3.183,3.183,0,0,1-.759-2.233,3.374,3.374,0,0,1,.779-2.368,2.537,2.537,0,0,1,1.954-.849,2.186,2.186,0,0,1,1.635.655,2.406,2.406,0,0,1,.64,1.755Zm0-.376h2.739a2.553,2.553,0,0,0-.135-.8,1.3,1.3,0,0,0-.482-.569,1.218,1.218,0,0,0-.67-.206,1.329,1.329,0,0,0-.958.417,1.8,1.8,0,0,0-.495,1.159" transform="translate(-17.722 -28.376)" fill="#030328"/>
          <path id="Path_6541" data-name="Path 6541" d="M164.146,240.7a2.621,2.621,0,0,1,2.158,1.021,3.139,3.139,0,0,1,.692,2,3.756,3.756,0,0,1-.382,1.607,2.706,2.706,0,0,1-2.539,1.642,2.508,2.508,0,0,1-2.126-1.066,3.3,3.3,0,0,1-.665-2.016,3.582,3.582,0,0,1,.4-1.618,2.7,2.7,0,0,1,2.459-1.574m-.2.419a1.356,1.356,0,0,0-.688.2,1.427,1.427,0,0,0-.559.715,3.432,3.432,0,0,0-.213,1.311,4.567,4.567,0,0,0,.514,2.23,1.529,1.529,0,0,0,1.353.937,1.261,1.261,0,0,0,1.034-.517,2.942,2.942,0,0,0,.407-1.777,4.049,4.049,0,0,0-.678-2.481,1.4,1.4,0,0,0-1.169-.62" transform="translate(-19.014 -28.376)" fill="#030328"/>
          <path id="Path_6542" data-name="Path 6542" d="M171.373,240.924v3.888a1.9,1.9,0,0,0,.181,1.048.793.793,0,0,0,.64.284h.535v.233H169.2v-.233h.265a.886.886,0,0,0,.471-.13.668.668,0,0,0,.295-.349,2.916,2.916,0,0,0,.081-.853v-3.888h-1.151v-.465h1.151v-.388a3.531,3.531,0,0,1,.284-1.5,2.314,2.314,0,0,1,.869-.992,2.372,2.372,0,0,1,1.314-.378,1.994,1.994,0,0,1,1.247.439.827.827,0,0,1,.375.654.514.514,0,0,1-.168.363.5.5,0,0,1-.362.172.587.587,0,0,1-.313-.107,1.681,1.681,0,0,1-.4-.459,1.664,1.664,0,0,0-.439-.475.848.848,0,0,0-.446-.122.8.8,0,0,0-.5.158.882.882,0,0,0-.3.491,9.121,9.121,0,0,0-.091,1.714v.428H172.9v.465Z" transform="translate(-19.942 -27.965)" fill="#030328"/>
          <path id="Path_6543" data-name="Path 6543" d="M33.35,256.148v3.444h1.6a1.135,1.135,0,0,0,.8-.243,1.6,1.6,0,0,0,.338-.958h.24v2.965h-.24a1.717,1.717,0,0,0-.131-.749.836.836,0,0,0-.348-.359,1.436,1.436,0,0,0-.662-.12h-1.6v2.753a2.885,2.885,0,0,0,.085.879.582.582,0,0,0,.271.277,1.219,1.219,0,0,0,.595.155h.317v.24h-3.76v-.24h.31a.932.932,0,0,0,.788-.317,1.964,1.964,0,0,0,.155-.994v-5.66a2.878,2.878,0,0,0-.084-.879.581.581,0,0,0-.265-.278,1.206,1.206,0,0,0-.595-.155h-.31v-.239h6.518l.084,1.925h-.226a2.646,2.646,0,0,0-.391-.9,1.288,1.288,0,0,0-.549-.417,2.953,2.953,0,0,0-1.012-.129Z" transform="translate(-3.638 -30.142)" fill="#030328"/>
          <path id="Path_6544" data-name="Path 6544" d="M43.086,263.936a9.555,9.555,0,0,1-1.143.812,1.739,1.739,0,0,1-.744.162,1.324,1.324,0,0,1-1.01-.421,1.534,1.534,0,0,1-.4-1.1,1.414,1.414,0,0,1,.192-.75,2.579,2.579,0,0,1,.921-.827,14.381,14.381,0,0,1,2.181-.942v-.233a1.923,1.923,0,0,0-.281-1.215,1.013,1.013,0,0,0-.817-.331.917.917,0,0,0-.647.221.66.66,0,0,0-.246.5l.014.376a.641.641,0,0,1-.153.458.517.517,0,0,1-.4.162.507.507,0,0,1-.392-.169.659.659,0,0,1-.152-.458,1.322,1.322,0,0,1,.569-1.021,2.459,2.459,0,0,1,1.6-.465,2.778,2.778,0,0,1,1.291.264,1.221,1.221,0,0,1,.563.627,3.532,3.532,0,0,1,.116,1.137v2.009a9.028,9.028,0,0,0,.033,1.037.437.437,0,0,0,.106.255.255.255,0,0,0,.172.065.364.364,0,0,0,.181-.044,4.228,4.228,0,0,0,.523-.473v.363q-.724.969-1.383.968a.624.624,0,0,1-.5-.219,1.178,1.178,0,0,1-.195-.749m0-.421v-2.256a13.005,13.005,0,0,0-1.26.55,2.19,2.19,0,0,0-.73.595,1.148,1.148,0,0,0-.219.679,1.109,1.109,0,0,0,.278.772.839.839,0,0,0,.639.306,2.344,2.344,0,0,0,1.292-.646" transform="translate(-4.691 -30.499)" fill="#030328"/>
          <path id="Path_6545" data-name="Path 6545" d="M48.4,259.956c.43-.43.685-.679.762-.743a2.332,2.332,0,0,1,.626-.382,1.778,1.778,0,0,1,.666-.135,1.472,1.472,0,0,1,.956.323,1.6,1.6,0,0,1,.536.937,4.372,4.372,0,0,1,1.124-1.018,1.988,1.988,0,0,1,.944-.242,1.471,1.471,0,0,1,.836.242,1.607,1.607,0,0,1,.579.792,3.572,3.572,0,0,1,.142,1.175v2.547a2.3,2.3,0,0,0,.084.761.55.55,0,0,0,.239.243,1.223,1.223,0,0,0,.569.1v.233H53.543v-.233h.123a1.037,1.037,0,0,0,.595-.148.578.578,0,0,0,.213-.331,4.194,4.194,0,0,0,.026-.625V260.9a2.161,2.161,0,0,0-.174-1.02.876.876,0,0,0-.808-.414,1.542,1.542,0,0,0-.688.171,3.7,3.7,0,0,0-.837.635l-.012.072.012.278v2.824a2.423,2.423,0,0,0,.068.754.552.552,0,0,0,.255.251,1.489,1.489,0,0,0,.64.1v.233H49.964v-.233a1.369,1.369,0,0,0,.676-.117.6.6,0,0,0,.255-.348,3.4,3.4,0,0,0,.032-.639V260.9a1.932,1.932,0,0,0-.213-1.041.912.912,0,0,0-.795-.413,1.434,1.434,0,0,0-.692.188,2.671,2.671,0,0,0-.827.639v3.174a2.159,2.159,0,0,0,.081.754.548.548,0,0,0,.238.262,1.525,1.525,0,0,0,.644.088v.233H46.436v-.233a1.287,1.287,0,0,0,.569-.088.555.555,0,0,0,.245-.277,2.125,2.125,0,0,0,.084-.739v-2.263a8.224,8.224,0,0,0-.057-1.259.511.511,0,0,0-.143-.295.4.4,0,0,0-.265-.081,1.233,1.233,0,0,0-.433.1l-.1-.232,1.784-.724H48.4Z" transform="translate(-5.463 -30.499)" fill="#030328"/>
          <path id="Path_6546" data-name="Path 6546" d="M60.69,258.283v4.755a2.167,2.167,0,0,0,.081.739.572.572,0,0,0,.239.274,1.282,1.282,0,0,0,.578.091v.233H58.713v-.233a1.33,1.33,0,0,0,.581-.084.57.57,0,0,0,.236-.278,2.107,2.107,0,0,0,.087-.743v-2.281a8.178,8.178,0,0,0-.058-1.247.508.508,0,0,0-.143-.288.4.4,0,0,0-.265-.081,1.293,1.293,0,0,0-.439.1l-.09-.233,1.783-.723Zm-.535-3.1a.652.652,0,0,1,.652.653.642.642,0,0,1-.191.466.624.624,0,0,1-.461.194.664.664,0,0,1-.66-.66.654.654,0,0,1,.66-.653" transform="translate(-6.911 -30.085)" fill="#030328"/>
          <path id="Path_6547" data-name="Path 6547" d="M65.153,255.187v7.851a2.136,2.136,0,0,0,.081.736.567.567,0,0,0,.249.274,1.408,1.408,0,0,0,.626.094v.233h-2.9v-.233a1.248,1.248,0,0,0,.556-.084A.555.555,0,0,0,64,263.78a2.147,2.147,0,0,0,.085-.743v-5.375a9.157,9.157,0,0,0-.046-1.232.53.53,0,0,0-.146-.313.384.384,0,0,0-.255-.083,1.2,1.2,0,0,0-.426.1l-.109-.228,1.763-.723Z" transform="translate(-7.439 -30.085)" fill="#030328"/>
          <path id="Path_6548" data-name="Path 6548" d="M67.207,258.894h2.758v.239H69.83a.648.648,0,0,0-.437.126.4.4,0,0,0-.146.314,1.778,1.778,0,0,0,.214.7l1.44,2.983,1.325-3.268a1.377,1.377,0,0,0,.109-.523.281.281,0,0,0-.045-.175.345.345,0,0,0-.161-.114,1.244,1.244,0,0,0-.387-.041v-.239h1.925v.239a.925.925,0,0,0-.369.1,1.074,1.074,0,0,0-.284.289,4.158,4.158,0,0,0-.219.5l-2.41,5.907a3.056,3.056,0,0,1-.915,1.3,1.794,1.794,0,0,1-1.089.439.9.9,0,0,1-.626-.219.661.661,0,0,1-.246-.5.565.565,0,0,1,.178-.436.686.686,0,0,1,.488-.164,1.747,1.747,0,0,1,.581.141,1.3,1.3,0,0,0,.323.1.672.672,0,0,0,.423-.2,2.127,2.127,0,0,0,.461-.775l.421-1.027-2.127-4.463a3.34,3.34,0,0,0-.31-.5,1.412,1.412,0,0,0-.265-.3,1.443,1.443,0,0,0-.478-.182Z" transform="translate(-7.923 -30.522)" fill="#030328"/>
          <path id="Path_6549" data-name="Path 6549" d="M86.589,262.01l.213.045-.749,2.377H79.269v-.239H79.6a.881.881,0,0,0,.795-.363,2.077,2.077,0,0,0,.136-.956v-5.653a1.8,1.8,0,0,0-.181-1.027.95.95,0,0,0-.75-.284h-.329v-.24h3.966v.24a2.4,2.4,0,0,0-.978.129.789.789,0,0,0-.385.341,2.827,2.827,0,0,0-.1.989v5.5a1.8,1.8,0,0,0,.1.737.465.465,0,0,0,.24.2,4.2,4.2,0,0,0,1.007.064h.64a4.586,4.586,0,0,0,1.415-.148,1.818,1.818,0,0,0,.743-.527,4.314,4.314,0,0,0,.672-1.191" transform="translate(-9.345 -30.142)" fill="#030328"/>
          <path id="Path_6550" data-name="Path 6550" d="M92.261,263.936a9.554,9.554,0,0,1-1.143.812,1.739,1.739,0,0,1-.744.162,1.324,1.324,0,0,1-1.01-.421,1.534,1.534,0,0,1-.4-1.1,1.414,1.414,0,0,1,.192-.75,2.579,2.579,0,0,1,.921-.827,14.381,14.381,0,0,1,2.181-.942v-.233a1.923,1.923,0,0,0-.281-1.215,1.013,1.013,0,0,0-.817-.331.917.917,0,0,0-.647.221.66.66,0,0,0-.246.5l.014.376a.641.641,0,0,1-.153.458.517.517,0,0,1-.4.162.507.507,0,0,1-.392-.169.659.659,0,0,1-.152-.458,1.322,1.322,0,0,1,.569-1.021,2.459,2.459,0,0,1,1.6-.465,2.778,2.778,0,0,1,1.291.264,1.221,1.221,0,0,1,.563.627,3.532,3.532,0,0,1,.116,1.137v2.009a9.028,9.028,0,0,0,.033,1.037.437.437,0,0,0,.106.255.255.255,0,0,0,.172.065.364.364,0,0,0,.181-.044,4.228,4.228,0,0,0,.523-.473v.363q-.724.969-1.383.968a.624.624,0,0,1-.5-.219,1.178,1.178,0,0,1-.195-.749m0-.421v-2.256a13,13,0,0,0-1.26.55,2.19,2.19,0,0,0-.73.595,1.148,1.148,0,0,0-.219.679,1.109,1.109,0,0,0,.278.772.839.839,0,0,0,.639.306,2.344,2.344,0,0,0,1.292-.646" transform="translate(-10.489 -30.499)" fill="#030328"/>
          <path id="Path_6551" data-name="Path 6551" d="M95.485,258.894h2.481v.239a.8.8,0,0,0-.45.123.356.356,0,0,0-.107.278,1.38,1.38,0,0,0,.11.483l1.266,3.407,1.274-2.772-.336-.872a1.052,1.052,0,0,0-.408-.537,1.177,1.177,0,0,0-.53-.109v-.239H101.6v.239a1.2,1.2,0,0,0-.66.168.4.4,0,0,0-.129.329.743.743,0,0,0,.052.266l1.343,3.4,1.246-3.277a1.7,1.7,0,0,0,.13-.554.275.275,0,0,0-.126-.221.929.929,0,0,0-.495-.109v-.239h1.868v.239a1.065,1.065,0,0,0-.827.762l-1.977,5.1h-.265l-1.48-3.78-1.725,3.78h-.239l-1.9-4.976a1.821,1.821,0,0,0-.368-.635,1.226,1.226,0,0,0-.569-.249Z" transform="translate(-11.257 -30.522)" fill="#030328"/>
          <path id="Path_6552" data-name="Path 6552" d="M115.811,261.471h-3.393l-.594,1.383a2.187,2.187,0,0,0-.22.762.445.445,0,0,0,.19.353,1.674,1.674,0,0,0,.824.2v.239H109.86v-.239a1.488,1.488,0,0,0,.711-.251,3.977,3.977,0,0,0,.729-1.26l3.082-7.21h.226l3.049,7.288a3.308,3.308,0,0,0,.67,1.139,1.351,1.351,0,0,0,.836.295v.239h-3.456v-.239a1.307,1.307,0,0,0,.707-.175.454.454,0,0,0,.183-.362,2.677,2.677,0,0,0-.258-.9Zm-.181-.477-1.487-3.541-1.524,3.541Z" transform="translate(-12.952 -30.115)" fill="#030328"/>
          <path id="Path_6553" data-name="Path 6553" d="M123.024,256.689v1.945h1.382v.452h-1.382v3.838a1.288,1.288,0,0,0,.165.775.524.524,0,0,0,.423.2.749.749,0,0,0,.414-.133.86.86,0,0,0,.31-.391h.251a2.019,2.019,0,0,1-.639.953,1.384,1.384,0,0,1-.853.32,1.142,1.142,0,0,1-.582-.165,1,1,0,0,1-.42-.47,2.5,2.5,0,0,1-.135-.947v-3.98h-.938v-.212a2.487,2.487,0,0,0,.728-.483,3.83,3.83,0,0,0,.662-.8,7.25,7.25,0,0,0,.413-.9Z" transform="translate(-14.268 -30.262)" fill="#030328"/>
          <path id="Path_6554" data-name="Path 6554" d="M127.493,256.689v1.945h1.382v.452h-1.382v3.838a1.288,1.288,0,0,0,.165.775.524.524,0,0,0,.423.2.749.749,0,0,0,.414-.133.861.861,0,0,0,.31-.391h.251a2.019,2.019,0,0,1-.639.953,1.384,1.384,0,0,1-.853.32,1.142,1.142,0,0,1-.582-.165,1,1,0,0,1-.42-.47,2.5,2.5,0,0,1-.135-.947v-3.98h-.938v-.212a2.487,2.487,0,0,0,.728-.483,3.83,3.83,0,0,0,.662-.8,7.249,7.249,0,0,0,.413-.9Z" transform="translate(-14.794 -30.262)" fill="#030328"/>
          <path id="Path_6555" data-name="Path 6555" d="M133.179,258.7a2.621,2.621,0,0,1,2.158,1.021,3.139,3.139,0,0,1,.692,2,3.755,3.755,0,0,1-.382,1.607,2.706,2.706,0,0,1-2.539,1.642,2.508,2.508,0,0,1-2.126-1.066,3.3,3.3,0,0,1-.665-2.016,3.582,3.582,0,0,1,.4-1.618,2.7,2.7,0,0,1,2.459-1.574m-.2.419a1.356,1.356,0,0,0-.688.2,1.427,1.427,0,0,0-.559.715,3.432,3.432,0,0,0-.213,1.311,4.567,4.567,0,0,0,.514,2.23,1.529,1.529,0,0,0,1.353.937,1.261,1.261,0,0,0,1.034-.517,2.942,2.942,0,0,0,.407-1.777,4.049,4.049,0,0,0-.678-2.481,1.4,1.4,0,0,0-1.169-.62" transform="translate(-15.364 -30.499)" fill="#030328"/>
          <path id="Path_6556" data-name="Path 6556" d="M139.768,258.7v1.33q.744-1.331,1.525-1.33a.827.827,0,0,1,.587.215.67.67,0,0,1,.232.5.593.593,0,0,1-.167.426.539.539,0,0,1-.4.176.857.857,0,0,1-.507-.224.838.838,0,0,0-.416-.222.38.38,0,0,0-.251.13,3.058,3.058,0,0,0-.6.872V263.4a1.765,1.765,0,0,0,.123.745.667.667,0,0,0,.3.289,1.3,1.3,0,0,0,.613.117v.232h-3.031v-.232a1.252,1.252,0,0,0,.672-.144.549.549,0,0,0,.227-.329,3.379,3.379,0,0,0,.032-.627v-2.293a9.719,9.719,0,0,0-.041-1.231.484.484,0,0,0-.155-.288.439.439,0,0,0-.281-.091,1.275,1.275,0,0,0-.453.1l-.064-.233,1.789-.723Z" transform="translate(-16.235 -30.499)" fill="#030328"/>
          <path id="Path_6557" data-name="Path 6557" d="M145.056,259.949a2.793,2.793,0,0,1,1.984-1.253,1.415,1.415,0,0,1,.833.242,1.624,1.624,0,0,1,.557.8,3.705,3.705,0,0,1,.141,1.188v2.528a2.1,2.1,0,0,0,.092.761.52.52,0,0,0,.229.251,1.293,1.293,0,0,0,.584.092v.232h-2.927v-.232h.124a.993.993,0,0,0,.578-.126.667.667,0,0,0,.229-.372,3.72,3.72,0,0,0,.026-.606v-2.424a2.45,2.45,0,0,0-.21-1.171.746.746,0,0,0-.707-.366,2.129,2.129,0,0,0-1.531.84v3.122a2.213,2.213,0,0,0,.071.742.6.6,0,0,0,.249.274,1.535,1.535,0,0,0,.643.088v.232h-2.928v-.232h.13a.7.7,0,0,0,.61-.229,1.669,1.669,0,0,0,.159-.875v-2.2a9.638,9.638,0,0,0-.049-1.3.558.558,0,0,0-.149-.318.407.407,0,0,0-.267-.084,1.241,1.241,0,0,0-.434.1l-.1-.233,1.784-.723h.277Z" transform="translate(-16.858 -30.499)" fill="#030328"/>
          <path id="Path_6558" data-name="Path 6558" d="M152.181,261.1a3.033,3.033,0,0,0,.64,2.068,1.948,1.948,0,0,0,1.517.749,1.647,1.647,0,0,0,1.012-.32,2.369,2.369,0,0,0,.72-1.1l.2.129a3.081,3.081,0,0,1-.788,1.612,2.107,2.107,0,0,1-1.635.727,2.391,2.391,0,0,1-1.826-.83,3.183,3.183,0,0,1-.759-2.233,3.374,3.374,0,0,1,.779-2.368,2.537,2.537,0,0,1,1.954-.849,2.186,2.186,0,0,1,1.635.655,2.406,2.406,0,0,1,.64,1.755Zm0-.376h2.739a2.554,2.554,0,0,0-.135-.8,1.3,1.3,0,0,0-.482-.569,1.218,1.218,0,0,0-.67-.206,1.329,1.329,0,0,0-.958.417,1.8,1.8,0,0,0-.495,1.159" transform="translate(-17.833 -30.498)" fill="#030328"/>
          <path id="Path_6559" data-name="Path 6559" d="M157.752,258.894h2.758v.239h-.135a.648.648,0,0,0-.437.126.4.4,0,0,0-.146.314,1.778,1.778,0,0,0,.214.7l1.44,2.983,1.325-3.268a1.377,1.377,0,0,0,.109-.523.281.281,0,0,0-.045-.175.345.345,0,0,0-.161-.114,1.244,1.244,0,0,0-.387-.041v-.239h1.925v.239a.925.925,0,0,0-.369.1,1.075,1.075,0,0,0-.284.289,4.154,4.154,0,0,0-.219.5l-2.41,5.907a3.056,3.056,0,0,1-.915,1.3,1.794,1.794,0,0,1-1.089.439.9.9,0,0,1-.626-.219.661.661,0,0,1-.246-.5.565.565,0,0,1,.178-.436.686.686,0,0,1,.488-.164,1.747,1.747,0,0,1,.581.141,1.3,1.3,0,0,0,.323.1.672.672,0,0,0,.423-.2,2.127,2.127,0,0,0,.461-.775l.421-1.027-2.127-4.463a3.339,3.339,0,0,0-.31-.5,1.412,1.412,0,0,0-.265-.3,1.442,1.442,0,0,0-.478-.182Z" transform="translate(-18.598 -30.522)" fill="#030328"/>
          <path id="Path_6560" data-name="Path 6560" d="M169.788,258.7v2.016h-.213a2.611,2.611,0,0,0-.63-1.292,1.414,1.414,0,0,0-.978-.342,1.073,1.073,0,0,0-.73.239.69.69,0,0,0-.278.529.963.963,0,0,0,.206.62,2.3,2.3,0,0,0,.814.562l.944.46a1.915,1.915,0,0,1,1.312,1.685,1.594,1.594,0,0,1-.611,1.3,2.117,2.117,0,0,1-1.366.494,4.728,4.728,0,0,1-1.241-.194,1.247,1.247,0,0,0-.348-.064.256.256,0,0,0-.233.168h-.213v-2.113h.213a2.4,2.4,0,0,0,.691,1.363,1.666,1.666,0,0,0,1.144.46,1.028,1.028,0,0,0,.727-.262.834.834,0,0,0,.281-.631,1.006,1.006,0,0,0-.314-.75,5.551,5.551,0,0,0-1.251-.768,3.682,3.682,0,0,1-1.226-.841,1.445,1.445,0,0,1-.291-.931,1.64,1.64,0,0,1,.5-1.219,1.773,1.773,0,0,1,1.3-.491,3.025,3.025,0,0,1,.847.148,2.029,2.029,0,0,0,.439.1.261.261,0,0,0,.161-.044.647.647,0,0,0,.136-.2Z" transform="translate(-19.593 -30.499)" fill="#030328"/>
          <path id="Path_6561" data-name="Path 6561" d="M175.2,256.974l.046.958h-.115a1.189,1.189,0,0,0-.091-.362.609.609,0,0,0-.249-.257.861.861,0,0,0-.408-.083H173.8v3.122a.833.833,0,0,0,.082.47.449.449,0,0,0,.352.126h.141v.112h-1.732v-.112h.145a.412.412,0,0,0,.367-.157.9.9,0,0,0,.067-.439v-3.122h-.491a1.4,1.4,0,0,0-.407.041.559.559,0,0,0-.268.221.883.883,0,0,0-.132.439h-.115l.049-.958Z" transform="translate(-20.256 -30.296)" fill="#030328"/>
          <path id="Path_6562" data-name="Path 6562" d="M178.553,261.061l-1.579-3.438v2.73a.833.833,0,0,0,.082.47.444.444,0,0,0,.352.126h.145v.112h-1.422v-.112h.145a.415.415,0,0,0,.368-.157.91.91,0,0,0,.066-.439v-2.67a.931.931,0,0,0-.06-.391.33.33,0,0,0-.156-.146.823.823,0,0,0-.363-.059v-.112h1.156l1.483,3.2,1.458-3.2h1.157v.112h-.141a.417.417,0,0,0-.37.157.9.9,0,0,0-.066.439v2.67a.813.813,0,0,0,.084.47.445.445,0,0,0,.353.126h.141v.112h-1.735v-.112h.144a.409.409,0,0,0,.368-.157.9.9,0,0,0,.066-.439v-2.73l-1.575,3.438Z" transform="translate(-20.765 -30.296)" fill="#030328"/>
          <path id="Path_6563" data-name="Path 6563" d="M29.313,216.311a2.8,2.8,0,0,0-1-.741,2.7,2.7,0,0,0-.972-.185,3.268,3.268,0,0,0-1.318.258,3.022,3.022,0,0,0-1.012.715,3.248,3.248,0,0,0-.655,1.065,3.654,3.654,0,0,0-.232,1.31,4.031,4.031,0,0,0,.232,1.389,3.264,3.264,0,0,0,.655,1.1,3.045,3.045,0,0,0,1.012.729,3.182,3.182,0,0,0,1.318.264,2.418,2.418,0,0,0,1.1-.27,3.01,3.01,0,0,0,1-.868l1.376.98a3.75,3.75,0,0,1-1.548,1.27,4.822,4.822,0,0,1-1.945.4,5.457,5.457,0,0,1-1.991-.35,4.463,4.463,0,0,1-2.586-2.533,5.184,5.184,0,0,1-.37-2,5.4,5.4,0,0,1,.37-2.044,4.575,4.575,0,0,1,1.025-1.568,4.481,4.481,0,0,1,1.561-1,5.457,5.457,0,0,1,1.991-.351,4.566,4.566,0,0,1,1.767.337,4.128,4.128,0,0,1,1.515,1.145Z" transform="translate(-2.639 -25.215)" fill="#030328"/>
          <path id="Path_6564" data-name="Path 6564" d="M33.525,214.146h1.668v7.86h3.982v1.508h-5.65Z" transform="translate(-3.952 -25.246)" fill="#030328"/>
          <rect id="Rectangle_870" data-name="Rectangle 870" width="1.668" height="9.368" transform="translate(36.665 188.9)" fill="#030328"/>
          <path id="Path_6565" data-name="Path 6565" d="M46.081,214.146h6.206v1.508H47.749v2.3h4.3v1.508h-4.3v2.54h4.777v1.508H46.081Z" transform="translate(-5.433 -25.246)" fill="#030328"/>
          <path id="Path_6566" data-name="Path 6566" d="M55.546,214.146h2.211l4.538,6.96h.027v-6.96h1.666v9.368H61.871L57.24,216.33h-.026v7.184H55.546Z" transform="translate(-6.548 -25.246)" fill="#030328"/>
          <path id="Path_6567" data-name="Path 6567" d="M69.577,215.654H66.706v-1.508h7.41v1.508H71.244v7.86H69.577Z" transform="translate(-7.864 -25.246)" fill="#030328"/>
          <path id="Path_6568" data-name="Path 6568" d="M85.939,216.125a1.538,1.538,0,0,0-.707-.563,2.494,2.494,0,0,0-.932-.178,2.408,2.408,0,0,0-.563.065,1.547,1.547,0,0,0-.49.213,1.1,1.1,0,0,0-.35.377,1.08,1.08,0,0,0-.133.549.859.859,0,0,0,.331.729,3.252,3.252,0,0,0,.82.437q.49.185,1.072.357a4.363,4.363,0,0,1,1.073.476,2.657,2.657,0,0,1,.819.807,2.4,2.4,0,0,1,.331,1.336,2.937,2.937,0,0,1-.278,1.316,2.675,2.675,0,0,1-.747.933,3.209,3.209,0,0,1-1.092.555,4.532,4.532,0,0,1-1.309.185,4.92,4.92,0,0,1-1.681-.29,3.25,3.25,0,0,1-1.389-.979l1.257-1.217a2.1,2.1,0,0,0,.8.721,2.239,2.239,0,0,0,1.052.258,2.212,2.212,0,0,0,.582-.079,1.8,1.8,0,0,0,.528-.238,1.226,1.226,0,0,0,.384-.4,1.077,1.077,0,0,0,.146-.562.979.979,0,0,0-.331-.794,2.9,2.9,0,0,0-.82-.469q-.49-.193-1.072-.364a4.492,4.492,0,0,1-1.071-.47,2.591,2.591,0,0,1-.821-.794,2.363,2.363,0,0,1-.331-1.329,2.529,2.529,0,0,1,.3-1.258,2.71,2.71,0,0,1,.781-.879,3.419,3.419,0,0,1,1.105-.522,4.736,4.736,0,0,1,1.269-.172,4.63,4.63,0,0,1,1.436.225,3.326,3.326,0,0,1,1.25.741Z" transform="translate(-9.516 -25.215)" fill="#030328"/>
          <path id="Path_6569" data-name="Path 6569" d="M93.235,214.146h1.441l4.037,9.368H96.807l-.873-2.144H91.872l-.847,2.144H89.159Zm2.116,5.8-1.442-3.811-1.469,3.811Z" transform="translate(-10.511 -25.246)" fill="#030328"/>
          <path id="Path_6570" data-name="Path 6570" d="M101.886,215.654H99.014v-1.508h7.41v1.508h-2.871v7.86h-1.667Z" transform="translate(-11.673 -25.246)" fill="#030328"/>
          <rect id="Rectangle_871" data-name="Rectangle 871" width="1.668" height="9.368" transform="translate(96.113 188.9)" fill="#030328"/>
          <path id="Path_6571" data-name="Path 6571" d="M117.979,216.125a1.538,1.538,0,0,0-.707-.563,2.494,2.494,0,0,0-.932-.178,2.408,2.408,0,0,0-.563.065,1.547,1.547,0,0,0-.49.213,1.1,1.1,0,0,0-.35.377,1.08,1.08,0,0,0-.133.549.859.859,0,0,0,.331.729,3.251,3.251,0,0,0,.82.437q.49.185,1.072.357a4.363,4.363,0,0,1,1.073.476,2.657,2.657,0,0,1,.819.807,2.4,2.4,0,0,1,.331,1.336,2.937,2.937,0,0,1-.278,1.316,2.675,2.675,0,0,1-.747.933,3.209,3.209,0,0,1-1.092.555,4.532,4.532,0,0,1-1.309.185,4.92,4.92,0,0,1-1.681-.29,3.25,3.25,0,0,1-1.389-.979l1.257-1.217a2.1,2.1,0,0,0,.8.721,2.239,2.239,0,0,0,1.052.258,2.212,2.212,0,0,0,.582-.079,1.8,1.8,0,0,0,.528-.238,1.226,1.226,0,0,0,.384-.4,1.077,1.077,0,0,0,.146-.562.979.979,0,0,0-.331-.794,2.9,2.9,0,0,0-.82-.469q-.49-.193-1.072-.364a4.492,4.492,0,0,1-1.071-.47,2.591,2.591,0,0,1-.821-.794,2.363,2.363,0,0,1-.331-1.329,2.53,2.53,0,0,1,.3-1.258,2.71,2.71,0,0,1,.781-.879,3.419,3.419,0,0,1,1.105-.522,4.736,4.736,0,0,1,1.269-.172,4.63,4.63,0,0,1,1.436.225,3.326,3.326,0,0,1,1.25.741Z" transform="translate(-13.293 -25.215)" fill="#030328"/>
          <path id="Path_6572" data-name="Path 6572" d="M122.382,214.146h6.047v1.508H124.05v2.461h4.127v1.508H124.05v3.89h-1.668Z" transform="translate(-14.428 -25.246)" fill="#030328"/>
          <path id="Path_6573" data-name="Path 6573" d="M133.358,214.146H134.8l4.037,9.368H136.93l-.873-2.144H132l-.847,2.144h-1.867Zm2.116,5.8-1.442-3.811-1.469,3.811Z" transform="translate(-15.241 -25.246)" fill="#030328"/>
          <path id="Path_6574" data-name="Path 6574" d="M147.96,216.311a2.8,2.8,0,0,0-1-.741,2.7,2.7,0,0,0-.972-.185,3.268,3.268,0,0,0-1.318.258,3.022,3.022,0,0,0-1.012.715,3.248,3.248,0,0,0-.655,1.065,3.654,3.654,0,0,0-.232,1.31,4.032,4.032,0,0,0,.232,1.389,3.264,3.264,0,0,0,.655,1.1,3.045,3.045,0,0,0,1.012.729,3.183,3.183,0,0,0,1.318.264,2.418,2.418,0,0,0,1.1-.27,3.01,3.01,0,0,0,1-.868l1.376.98a3.75,3.75,0,0,1-1.548,1.27,4.821,4.821,0,0,1-1.945.4,5.457,5.457,0,0,1-1.991-.35,4.463,4.463,0,0,1-2.586-2.533,5.184,5.184,0,0,1-.37-2,5.4,5.4,0,0,1,.37-2.044,4.575,4.575,0,0,1,1.025-1.568,4.481,4.481,0,0,1,1.561-1,5.457,5.457,0,0,1,1.991-.351,4.565,4.565,0,0,1,1.767.337,4.128,4.128,0,0,1,1.515,1.145Z" transform="translate(-16.626 -25.215)" fill="#030328"/>
          <path id="Path_6575" data-name="Path 6575" d="M153.964,215.654h-2.871v-1.508h7.41v1.508h-2.871v7.86h-1.667Z" transform="translate(-17.813 -25.246)" fill="#030328"/>
          <rect id="Rectangle_872" data-name="Rectangle 872" width="1.668" height="9.368" transform="translate(142.051 188.9)" fill="#030328"/>
          <path id="Path_6576" data-name="Path 6576" d="M164.982,218.838a5.419,5.419,0,0,1,.37-2.044,4.581,4.581,0,0,1,1.026-1.569,4.484,4.484,0,0,1,1.561-1,5.457,5.457,0,0,1,1.991-.351,5.562,5.562,0,0,1,2.011.324,4.4,4.4,0,0,1,1.575.985,4.565,4.565,0,0,1,1.032,1.562,5.354,5.354,0,0,1,.37,2.038,5.184,5.184,0,0,1-.37,2,4.582,4.582,0,0,1-1.032,1.548,4.72,4.72,0,0,1-1.575,1.013,5.566,5.566,0,0,1-2.011.376,5.476,5.476,0,0,1-1.991-.35,4.467,4.467,0,0,1-2.587-2.533,5.2,5.2,0,0,1-.37-2m1.746-.106a4.031,4.031,0,0,0,.232,1.389,3.25,3.25,0,0,0,.655,1.1,3.045,3.045,0,0,0,1.012.729,3.182,3.182,0,0,0,1.318.264,3.228,3.228,0,0,0,1.323-.264,3.017,3.017,0,0,0,1.018-.729,3.252,3.252,0,0,0,.655-1.1,4.031,4.031,0,0,0,.232-1.389,3.653,3.653,0,0,0-.232-1.31,3.236,3.236,0,0,0-.655-1.065,2.982,2.982,0,0,0-1.018-.715,3.315,3.315,0,0,0-1.323-.258,3.268,3.268,0,0,0-1.318.258,3.009,3.009,0,0,0-1.012.715,3.233,3.233,0,0,0-.655,1.065,3.653,3.653,0,0,0-.232,1.31" transform="translate(-19.45 -25.214)" fill="#030328"/>
          <path id="Path_6577" data-name="Path 6577" d="M178.346,214.146h2.211l4.538,6.96h.027v-6.96h1.666v9.368h-2.116l-4.631-7.184h-.026v7.184h-1.668Z" transform="translate(-21.026 -25.246)" fill="#030328"/>
          <rect id="Rectangle_873" data-name="Rectangle 873" width="151.722" height="1.764" transform="translate(15.581 203.268)" fill="#030328"/>
          <rect id="Rectangle_874" data-name="Rectangle 874" width="45.87" height="22.053" transform="translate(71.955 126.837)" fill="#030328"/>
          <path id="Path_6578" data-name="Path 6578" d="M89.589,158.453H86.152v-.094a19.063,19.063,0,0,0,1.919-2.533,2.746,2.746,0,0,0,.338-1.27,1.055,1.055,0,0,0-.28-.752.9.9,0,0,0-.685-.3,1.133,1.133,0,0,0-1.029.663l-.159-.056a2.384,2.384,0,0,1,.706-1.223,1.66,1.66,0,0,1,1.095-.4,1.613,1.613,0,0,1,.81.207,1.5,1.5,0,0,1,.572.566,1.367,1.367,0,0,1,.206.674,2.434,2.434,0,0,1-.318,1.163,11.032,11.032,0,0,1-1.9,2.223h1.261a2.91,2.91,0,0,0,.606-.039.507.507,0,0,0,.23-.132,1.655,1.655,0,0,0,.236-.389h.155Z" transform="translate(-10.157 -17.978)" fill="#fff"/>
          <path id="Path_6579" data-name="Path 6579" d="M94.537,155.534a5.279,5.279,0,0,1-.245,1.632,2.214,2.214,0,0,1-.4.763,2,2,0,0,1-.561.472,1.448,1.448,0,0,1-1.448-.041,2.044,2.044,0,0,1-.6-.616,3.025,3.025,0,0,1-.332-.78,5.043,5.043,0,0,1-.185-1.361,5.474,5.474,0,0,1,.267-1.749,2.067,2.067,0,0,1,.668-1.009,1.463,1.463,0,0,1,1.9-.005,2.007,2.007,0,0,1,.648.933,5.186,5.186,0,0,1,.288,1.762m-1.327-.009q0-1.534-.018-1.787a1.59,1.59,0,0,0-.206-.81.413.413,0,0,0-.348-.138.4.4,0,0,0-.293.1.9.9,0,0,0-.216.531q-.056.382-.056,2.66a10.079,10.079,0,0,0,.086,1.663.736.736,0,0,0,.185.408.466.466,0,0,0,.318.1.382.382,0,0,0,.323-.139,1.357,1.357,0,0,0,.206-.744Z" transform="translate(-10.701 -17.978)" fill="#fff"/>
          <path id="Path_6580" data-name="Path 6580" d="M97.858,152.492v4.777a2.93,2.93,0,0,0,.048.686.442.442,0,0,0,.2.244.945.945,0,0,0,.483.094h.134v.16H95.644v-.16H95.8a1.186,1.186,0,0,0,.534-.086.439.439,0,0,0,.216-.236,2.638,2.638,0,0,0,.056-.7V154.24a1.931,1.931,0,0,0-.039-.506.374.374,0,0,0-.144-.172.431.431,0,0,0-.243-.071,1.387,1.387,0,0,0-.535.138l-.078-.155,2.15-.982Z" transform="translate(-11.267 -17.978)" fill="#fff"/>
          <path id="Path_6581" data-name="Path 6581" d="M103.595,152.492v.121a4.1,4.1,0,0,0-1.251.51,2.445,2.445,0,0,0-.746.759,3.714,3.714,0,0,0-.424,1.1,1.28,1.28,0,0,1,.315-.168,1.915,1.915,0,0,1,.565-.086,1.424,1.424,0,0,1,1.092.475,1.851,1.851,0,0,1,.437,1.3,2.367,2.367,0,0,1-.237,1.059,1.734,1.734,0,0,1-.671.745,1.776,1.776,0,0,1-.931.263,1.8,1.8,0,0,1-1-.295,1.954,1.954,0,0,1-.713-.864,2.964,2.964,0,0,1-.257-1.236,3.676,3.676,0,0,1,.473-1.828,3.505,3.505,0,0,1,1.338-1.35,4.013,4.013,0,0,1,2.006-.51m-2.477,2.843q-.034.594-.034.87a5.653,5.653,0,0,0,.115,1.15,1.736,1.736,0,0,0,.311.78.439.439,0,0,0,.336.159.434.434,0,0,0,.354-.229,1.889,1.889,0,0,0,.154-.938,3.29,3.29,0,0,0-.288-1.641.565.565,0,0,0-.5-.293,1.054,1.054,0,0,0-.448.142" transform="translate(-11.763 -17.978)" fill="#fff"/>
          <rect id="Rectangle_875" data-name="Rectangle 875" width="2.511" height="0.892" transform="translate(93.636 138.003)" fill="#fff"/>
          <path id="Path_6582" data-name="Path 6582" d="M114.419,158.453h-3.437v-.094a19.062,19.062,0,0,0,1.919-2.533,2.746,2.746,0,0,0,.338-1.27,1.055,1.055,0,0,0-.28-.752.9.9,0,0,0-.685-.3,1.133,1.133,0,0,0-1.029.663l-.159-.056a2.384,2.384,0,0,1,.706-1.223,1.66,1.66,0,0,1,1.095-.4,1.613,1.613,0,0,1,.81.207,1.5,1.5,0,0,1,.572.566,1.367,1.367,0,0,1,.206.674,2.434,2.434,0,0,1-.318,1.163,11.032,11.032,0,0,1-1.9,2.223h1.261a2.91,2.91,0,0,0,.606-.039.507.507,0,0,0,.23-.132,1.655,1.655,0,0,0,.236-.389h.155Z" transform="translate(-13.084 -17.978)" fill="#fff"/>
          <path id="Path_6583" data-name="Path 6583" d="M119.367,155.534a5.279,5.279,0,0,1-.245,1.632,2.214,2.214,0,0,1-.4.763,2,2,0,0,1-.561.472,1.448,1.448,0,0,1-1.448-.041,2.044,2.044,0,0,1-.6-.616,3.025,3.025,0,0,1-.332-.78,5.043,5.043,0,0,1-.185-1.361,5.474,5.474,0,0,1,.267-1.749,2.067,2.067,0,0,1,.668-1.009,1.463,1.463,0,0,1,1.9-.005,2.007,2.007,0,0,1,.648.933,5.186,5.186,0,0,1,.288,1.762m-1.327-.009q0-1.534-.018-1.787a1.59,1.59,0,0,0-.206-.81.413.413,0,0,0-.348-.138.4.4,0,0,0-.293.1.9.9,0,0,0-.216.531q-.056.382-.056,2.66a10.08,10.08,0,0,0,.086,1.663.736.736,0,0,0,.185.408.466.466,0,0,0,.318.1.382.382,0,0,0,.323-.139,1.357,1.357,0,0,0,.206-.744Z" transform="translate(-13.628 -17.978)" fill="#fff"/>
          <path id="Path_6584" data-name="Path 6584" d="M122.688,152.492v4.777a2.93,2.93,0,0,0,.048.686.442.442,0,0,0,.2.244.945.945,0,0,0,.483.094h.134v.16h-3.076v-.16h.155a1.186,1.186,0,0,0,.534-.086.439.439,0,0,0,.216-.236,2.639,2.639,0,0,0,.056-.7V154.24a1.931,1.931,0,0,0-.039-.506.374.374,0,0,0-.144-.172.431.431,0,0,0-.243-.071,1.387,1.387,0,0,0-.535.138l-.078-.155,2.15-.982Z" transform="translate(-14.194 -17.978)" fill="#fff"/>
          <path id="Path_6585" data-name="Path 6585" d="M124.545,158.574v-.121a3.785,3.785,0,0,0,1.212-.483,2.5,2.5,0,0,0,.789-.788,3.135,3.135,0,0,0,.407-1.081,2.44,2.44,0,0,1-.455.191,1.4,1.4,0,0,1-.393.054,1.441,1.441,0,0,1-1.105-.478,1.857,1.857,0,0,1-.441-1.309,2.337,2.337,0,0,1,.238-1.058,1.769,1.769,0,0,1,2.573-.717,2.055,2.055,0,0,1,.729.849,2.852,2.852,0,0,1,.27,1.267,3.759,3.759,0,0,1-.441,1.766,3.365,3.365,0,0,1-1.316,1.355,4.345,4.345,0,0,1-2.067.553m2.473-2.834c.028-.321.042-.605.042-.849a5.657,5.657,0,0,0-.181-1.46,1.1,1.1,0,0,0-.306-.551.408.408,0,0,0-.28-.1.384.384,0,0,0-.336.185,1.934,1.934,0,0,0-.168.969,3.329,3.329,0,0,0,.286,1.645.563.563,0,0,0,.5.293,1.073,1.073,0,0,0,.445-.138" transform="translate(-14.683 -17.978)" fill="#fff"/>
        </g>
      </g>
      <g id="Group_848" data-name="Group 848" transform="translate(50.388 16.324)">
        <g id="Group_847" data-name="Group 847" clip-path="url(#clip-path-2)">
          <rect id="Rectangle_877" data-name="Rectangle 877" width="105.204" height="105.731" transform="translate(-33.848 35.754) rotate(-46.569)" fill="url(#linear-gradient)"/>
        </g>
      </g>
      <g id="Group_850" data-name="Group 850" transform="translate(56.512 87.439)">
        <g id="Group_849" data-name="Group 849" clip-path="url(#clip-path-3)">
          <rect id="Rectangle_878" data-name="Rectangle 878" width="56.508" height="84.835" transform="matrix(0.386, -0.922, 0.922, 0.386, -9.825, 23.447)" fill="url(#linear-gradient-2)"/>
        </g>
      </g>
      <g id="Group_852" data-name="Group 852">
        <g id="Group_851" data-name="Group 851" clip-path="url(#clip-path-4)">
          <rect id="Rectangle_879" data-name="Rectangle 879" width="234.883" height="236.67" transform="translate(-71.746 75.786) rotate(-46.569)" fill="url(#linear-gradient-3)"/>
        </g>
      </g>
    </g>
  </g>
</svg>
