<svg id="Group_931" data-name="Group 931" xmlns="http://www.w3.org/2000/svg" xmlns:xlink="http://www.w3.org/1999/xlink" width="186.577" height="255.726" viewBox="0 0 186.577 255.726">
  <defs>
    <linearGradient id="linear-gradient" x1="0.535" y1="0.974" x2="0.506" y2="0.121" gradientUnits="objectBoundingBox">
      <stop offset="0" stop-color="#c4a230"/>
      <stop offset="0.085" stop-color="#c4a230"/>
      <stop offset="0.194" stop-color="#cdaf4b"/>
      <stop offset="0.426" stop-color="#e4d290"/>
      <stop offset="0.436" stop-color="#e5d493"/>
      <stop offset="0.615" stop-color="#c6a638"/>
      <stop offset="0.632" stop-color="#c4a230"/>
      <stop offset="0.633" stop-color="#c4a231"/>
      <stop offset="0.72" stop-color="#d5bd65"/>
      <stop offset="0.786" stop-color="#e0cd86"/>
      <stop offset="0.822" stop-color="#e5d493"/>
      <stop offset="0.874" stop-color="#dcc779"/>
      <stop offset="1" stop-color="#c4a230"/>
    </linearGradient>
    <linearGradient id="linear-gradient-2" x1="0.425" y1="-0.002" x2="0.514" y2="1.01" gradientUnits="objectBoundingBox">
      <stop offset="0" stop-color="#c4a230"/>
      <stop offset="0.142" stop-color="#e5d493"/>
      <stop offset="0.523" stop-color="#c4a230"/>
      <stop offset="0.797" stop-color="#e5d493"/>
      <stop offset="0.972" stop-color="#c4a230"/>
      <stop offset="1" stop-color="#c4a230"/>
    </linearGradient>
    <linearGradient id="linear-gradient-3" x1="0.446" y1="0.016" x2="0.555" y2="1.007" gradientUnits="objectBoundingBox">
      <stop offset="0" stop-color="#e5d493"/>
      <stop offset="0.072" stop-color="#c4a332"/>
      <stop offset="0.074" stop-color="#c4a230"/>
      <stop offset="0.138" stop-color="#cdaf4b"/>
      <stop offset="0.275" stop-color="#e4d290"/>
      <stop offset="0.28" stop-color="#e5d493"/>
      <stop offset="0.339" stop-color="#dbc677"/>
      <stop offset="0.456" stop-color="#c4a230"/>
      <stop offset="0.458" stop-color="#c4a231"/>
      <stop offset="0.562" stop-color="#d5bd65"/>
      <stop offset="0.641" stop-color="#e0cd86"/>
      <stop offset="0.684" stop-color="#e5d493"/>
      <stop offset="0.751" stop-color="#dcc779"/>
      <stop offset="0.891" stop-color="#c6a638"/>
      <stop offset="0.909" stop-color="#c4a230"/>
      <stop offset="1" stop-color="#c4a230"/>
    </linearGradient>
    <clipPath id="clip-path">
      <rect id="Rectangle_941" data-name="Rectangle 941" width="186.577" height="255.726" fill="none"/>
    </clipPath>
    <clipPath id="clip-path-3">
      <rect id="Rectangle_935" data-name="Rectangle 935" width="157.067" height="2.136" fill="none"/>
    </clipPath>
    <clipPath id="clip-path-4">
      <path id="Path_10961" data-name="Path 10961" d="M67.376,19.143,48.052,35.215l6.321,7.5L66.381,31.6V83.074H77.218V19.143ZM97.8,71.425a15.878,15.878,0,0,1-3.7-5.959,31.533,31.533,0,0,1-1.67-7.45,67.973,67.973,0,0,1-.406-6.907,67.958,67.958,0,0,1,.406-6.908A31.578,31.578,0,0,1,94.1,36.75a15.9,15.9,0,0,1,3.7-5.959,9.889,9.889,0,0,1,13,0,15.9,15.9,0,0,1,3.7,5.959A31.685,31.685,0,0,1,116.18,44.2a68.267,68.267,0,0,1,.406,6.908,68.282,68.282,0,0,1-.406,6.907,31.64,31.64,0,0,1-1.671,7.45,15.878,15.878,0,0,1-3.7,5.959,9.886,9.886,0,0,1-13,0m2.3-53a19.723,19.723,0,0,0-4.965,1.489,19.363,19.363,0,0,0-5.056,3.34,21.446,21.446,0,0,0-4.47,5.871,35.421,35.421,0,0,0-3.207,9.029,59.534,59.534,0,0,0-1.218,12.958,59.53,59.53,0,0,0,1.218,12.957A35.415,35.415,0,0,0,85.615,73.1a21.434,21.434,0,0,0,4.47,5.869,19.262,19.262,0,0,0,5.056,3.341,19.727,19.727,0,0,0,4.965,1.49,24.677,24.677,0,0,0,8.4,0,19.747,19.747,0,0,0,4.966-1.49,19.3,19.3,0,0,0,5.056-3.341A21.518,21.518,0,0,0,123,73.1a35.456,35.456,0,0,0,3.207-9.031,59.53,59.53,0,0,0,1.218-12.957A59.533,59.533,0,0,0,126.2,38.151,35.462,35.462,0,0,0,123,29.121a21.53,21.53,0,0,0-4.47-5.871,19.4,19.4,0,0,0-5.056-3.34,19.743,19.743,0,0,0-4.966-1.489,24.533,24.533,0,0,0-8.4,0" transform="translate(-48.052 -18.059)" fill="url(#linear-gradient)"/>
    </clipPath>
    <clipPath id="clip-path-5">
      <path id="Path_10962" data-name="Path 10962" d="M58.193,99.339h4.37a8.186,8.186,0,0,1,4.1.795,3.018,3.018,0,0,1,1.318,2.817,3.321,3.321,0,0,1-.542,2,3.6,3.6,0,0,1-1.373,1.139,5.6,5.6,0,0,1-1.826.505,17.074,17.074,0,0,1-1.859.109H58.193Zm0-10.4h3.756a6.769,6.769,0,0,1,3.774.814,3.07,3.07,0,0,1,.036,4.8,5.5,5.5,0,0,1-3.413.886H58.193Zm-4.552-3.9v25.573h9.211a17.6,17.6,0,0,0,3.557-.36,9.344,9.344,0,0,0,3.106-1.21A6.592,6.592,0,0,0,71.7,106.8a6.708,6.708,0,0,0,.83-3.487,6.265,6.265,0,0,0-.416-2.293,6.174,6.174,0,0,0-1.138-1.878A5.865,5.865,0,0,0,69.227,97.8a6.618,6.618,0,0,0-2.222-.668v-.074a6.818,6.818,0,0,0,3.214-2.021,5.253,5.253,0,0,0,1.229-3.576A5.79,5.79,0,0,0,68.974,86.5a7.346,7.346,0,0,0-2.511-1.119,12.015,12.015,0,0,0-2.852-.344Zm21.6,0v25.573h17.59V106.49H79.791V99.555H91.53V95.438H79.791V89.152H92.179V85.034Zm36.587,0v4.118h7.838v21.455h4.552V89.152h7.837V85.034Zm-11.268-.181a9.307,9.307,0,0,0-3.016,1.428,7.418,7.418,0,0,0-2.131,2.4,6.882,6.882,0,0,0-.814,3.431,6.45,6.45,0,0,0,.9,3.63,7.115,7.115,0,0,0,2.239,2.168,12.323,12.323,0,0,0,2.926,1.282q1.588.469,2.925.992a7.988,7.988,0,0,1,2.24,1.283,2.672,2.672,0,0,1,.9,2.166,2.946,2.946,0,0,1-.4,1.536,3.4,3.4,0,0,1-1.047,1.1,4.929,4.929,0,0,1-1.445.651,6.118,6.118,0,0,1-4.46-.488,5.724,5.724,0,0,1-2.186-1.968l-3.432,3.321a8.821,8.821,0,0,0,3.792,2.674,13.449,13.449,0,0,0,4.588.795,12.478,12.478,0,0,0,3.575-.505,8.839,8.839,0,0,0,2.98-1.517,7.332,7.332,0,0,0,2.041-2.547,8.029,8.029,0,0,0,.757-3.594,6.558,6.558,0,0,0-.9-3.648,7.246,7.246,0,0,0-2.24-2.2,11.939,11.939,0,0,0-2.925-1.3q-1.589-.471-2.926-.975a8.872,8.872,0,0,1-2.239-1.193,2.339,2.339,0,0,1-.9-1.986,2.966,2.966,0,0,1,.362-1.5,3.018,3.018,0,0,1,.956-1.03,4.181,4.181,0,0,1,1.337-.578,6.425,6.425,0,0,1,1.535-.181,6.747,6.747,0,0,1,2.546.488,4.185,4.185,0,0,1,1.932,1.535l3.323-3.5A9.066,9.066,0,0,0,107.946,85a12.644,12.644,0,0,0-3.918-.614,13,13,0,0,0-3.468.469" transform="translate(-53.641 -84.385)" fill="url(#linear-gradient-2)"/>
    </clipPath>
    <clipPath id="clip-path-6">
      <path id="Path_10963" data-name="Path 10963" d="M39.388,103.917a12.457,12.457,0,0,0-4.627,8.03,10.464,10.464,0,0,0,.558,4.809,11.347,11.347,0,0,0,3,4.446q.218,1.34.491,2.688.373.322.753.639-.357-1.71-.622-3.406a15.884,15.884,0,0,0,2.816-5.871A8.885,8.885,0,0,0,41.619,111c-.664-2.472-2.106-4.557-1.875-6.918.012-.116-.036-.263-.159-.263a.332.332,0,0,0-.2.093M147.852.085a8.387,8.387,0,0,0-1.045,5.9,10.216,10.216,0,0,0,3.316,5.836q.2,1,.373,2-1.948-1.83-4.021-3.511l-.088-.071q-.271-.218-.543-.435l-.128-.1a8.334,8.334,0,0,0-4.338-5.832c-2.237-1.058-4.572-.982-6.338-1.248a.244.244,0,0,0-.256.126.259.259,0,0,0,.045.289c1.216,1.351,2.278,3.39,4.01,4.93a9.394,9.394,0,0,0,6.612,2.089l.751.611h0q2.041,1.686,3.962,3.52-.979-.091-1.951-.153a7,7,0,0,0-5.908-1.866,7.5,7.5,0,0,0-4.791,3.115c-.126.177.026.247.131.237,1.5-.15,2.928.773,4.543,1.135s3.476.182,6.027-2.22q1.192.071,2.4.184a73.693,73.693,0,0,1,6.873,7.684q-1-.253-2.006-.471a7.456,7.456,0,0,0-5.952-2.894,7.925,7.925,0,0,0-5.515,2.56c-.159.167-.01.262.1.267,1.6.064,2.963,1.25,4.607,1.879s3.632.732,6.7-1.389q1.234.261,2.473.576a73.944,73.944,0,0,1,5.986,9.211q-1-.431-1.994-.824a7.924,7.924,0,0,0-5.781-4.029,8.369,8.369,0,0,0-6.192,1.8c-.193.15-.051.273.066.295,1.667.319,2.9,1.775,4.52,2.7s3.684,1.365,7.253-.329q1.235.479,2.469,1.016A74.014,74.014,0,0,1,168,40.9q.474,1.218.9,2.453-.952-.623-1.911-1.206a8.4,8.4,0,0,0-5.347-5.227,8.832,8.832,0,0,0-6.769.808c-.229.122-.1.273.017.316,1.686.611,2.724,2.331,4.251,3.574s3.607,2.069,7.634.957q1.191.713,2.369,1.491a75.437,75.437,0,0,1,2.959,11.969q-.859-.816-1.735-1.589a8.9,8.9,0,0,0-4.619-6.426,9.335,9.335,0,0,0-7.189-.4c-.258.084-.153.264-.037.33,1.644.933,2.413,2.9,3.776,4.464s3.374,2.818,7.767,2.437q1.094.955,2.161,1.976a76.212,76.212,0,0,1,.842,12.953q-.723-1-1.471-1.954a9.4,9.4,0,0,0-3.588-7.54,9.876,9.876,0,0,0-7.379-1.8c-.285.038-.21.241-.1.331,1.533,1.272,1.967,3.448,3.086,5.325s2.972,3.555,7.593,4.036q.939,1.186,1.838,2.435a74.072,74.072,0,0,1-1.272,11.536q-.186.984-.4,1.961-.534-1.157-1.1-2.277a9.808,9.808,0,0,0-2.218-8.479,10.477,10.477,0,0,0-7.281-3.314c-.3-.017-.262.205-.168.318,1.343,1.6,1.374,3.9,2.162,6.038s2.362,4.245,7.032,5.719q.719,1.4,1.383,2.852a73.7,73.7,0,0,1-4.509,13.457q-.3-1.279-.641-2.529a10.2,10.2,0,0,0-.521-9.154,11.107,11.107,0,0,0-6.814-4.938c-.306-.081-.31.152-.235.285,1.061,1.911.623,4.25,1,6.6s1.545,4.841,6.03,7.389q.439,1.564.806,3.179-.6,1.291-1.241,2.558a73.02,73.02,0,0,1-6.259,10.151q-.026-1.348-.1-2.675a10.534,10.534,0,0,0,1.431-9.449,11.779,11.779,0,0,0-5.934-6.552c-.3-.152-.35.083-.3.236a7.5,7.5,0,0,1,.119,3.354c-.163,1.152-.429,2.328-.489,3.572a8.481,8.481,0,0,0,.738,4.02,14.867,14.867,0,0,0,3.839,4.882q.106,1.671.129,3.375a72.188,72.188,0,0,1-5.032,5.962,71.225,71.225,0,0,1-5.432,5.2q.274-1.348.489-2.687a11.313,11.313,0,0,0,3-4.446,10.435,10.435,0,0,0,.558-4.809,12.447,12.447,0,0,0-4.626-8.03c-.269-.223-.373,0-.356.17.232,2.361-1.211,4.446-1.875,6.918a8.857,8.857,0,0,0-.138,4.246,15.9,15.9,0,0,0,2.815,5.871q-.264,1.7-.621,3.406a70.425,70.425,0,0,1-9.823,6.89q-1.666.968-3.383,1.842.586-1.269,1.112-2.543A11.481,11.481,0,0,0,139,126.963a10.657,10.657,0,0,0,1.669-4.729A13.08,13.08,0,0,0,137.785,113c-.223-.288-.379-.089-.4.083a7.705,7.705,0,0,1-1.367,3.3c-.672,1.032-1.455,2.042-2.074,3.212a9.189,9.189,0,0,0-1.111,4.25,16.845,16.845,0,0,0,1.474,6.639q-.659,1.623-1.414,3.238a69.2,69.2,0,0,1-14.572,5.216.969.969,0,0,0-.751,1.125.946.946,0,0,0,1.173.684,70.845,70.845,0,0,0,14.886-5.472q1.74.375,3.529.661a11.649,11.649,0,0,0,5.025,4.634,8.534,8.534,0,0,0,5.149.369,27.874,27.874,0,0,0,4.954-1.712,19.009,19.009,0,0,1,4.694-1.487c.219-.028.55-.233.31-.511a13.73,13.73,0,0,0-8.969-4.374,18.422,18.422,0,0,0-10.987,2.413q-1.4-.205-2.771-.469,1.75-.908,3.447-1.915a71.933,71.933,0,0,0,9.982-7.13q1.73-.051,3.486-.2a11.033,11.033,0,0,0,5.686,3.183,8.158,8.158,0,0,0,4.862-.806,27.14,27.14,0,0,0,4.233-2.689,17.968,17.968,0,0,1,4.047-2.408c.2-.073.459-.338.178-.542a12.961,12.961,0,0,0-9.283-2.125,17.5,17.5,0,0,0-9.709,4.722q-1.376.128-2.737.2a72.687,72.687,0,0,0,5.5-5.355,73.889,73.889,0,0,0,5.084-6.126q1.625-.434,3.255-.957a10.494,10.494,0,0,0,5.963,1.741,7.853,7.853,0,0,0,4.359-1.79,26.559,26.559,0,0,0,3.39-3.4,17.137,17.137,0,0,1,3.281-3.091c.17-.11.362-.409.057-.544a12.314,12.314,0,0,0-9.091-.033,16.761,16.761,0,0,0-8.082,6.495q-1.28.428-2.559.8a74.5,74.5,0,0,0,6.288-10.4q.646-1.295,1.242-2.615,1.45-.758,2.887-1.6c4.881,1.587,7.666.161,9.617-2.182s3.026-5.484,4.949-7.4c.138-.136.255-.454-.053-.516a11.751,11.751,0,0,0-8.5,1.81,16.116,16.116,0,0,0-6.259,7.736q-1.128.681-2.268,1.306a74.992,74.992,0,0,0,4.47-13.724q1.224-1.016,2.419-2.11c4.859.5,7.175-1.385,8.552-3.948s1.786-5.692,3.229-7.845a.5.5,0,0,0,.081-.25v-.015a.2.2,0,0,0-.226-.205,11.249,11.249,0,0,0-7.6,3.332,15.4,15.4,0,0,0-4.371,8.46q-.939.88-1.9,1.709.208-1,.39-2a75.143,75.143,0,0,0,1.193-11.719q.966-1.2,1.895-2.47c4.622-.467,6.436-2.657,7.264-5.289s.669-5.6,1.647-7.864c.07-.16.064-.465-.217-.409a10.773,10.773,0,0,0-6.519,4.482,14.551,14.551,0,0,0-2.569,8.7q-.727,1.017-1.485,1.994a77.144,77.144,0,0,0-.961-13.116q.705-1.314,1.363-2.68c4.228-1.266,5.55-3.623,5.884-6.219s-.31-5.339.232-7.612c.041-.162-.016-.444-.268-.344a10.348,10.348,0,0,0-5.343,5.317,13.8,13.8,0,0,0-.936,8.577q-.516,1.1-1.063,2.165A76.178,76.178,0,0,0,169.9,43.8q.445-1.365.84-2.771c3.729-1.91,4.576-4.327,4.471-6.794s-1.132-4.9-.976-7.106c.012-.157-.083-.409-.3-.273a9.9,9.9,0,0,0-4.147,5.84,12.968,12.968,0,0,0,.508,8.146q-.306,1.131-.646,2.237-.444-1.242-.933-2.469a74.681,74.681,0,0,0-3.894-8.28q.2-1.362.356-2.752c3.167-2.386,3.585-4.767,3.121-7.036s-1.775-4.363-1.947-6.427c-.012-.148-.137-.366-.322-.206a9.412,9.412,0,0,0-3,6.077,12.05,12.05,0,0,0,1.7,7.493q-.112,1.12-.257,2.224a74.536,74.536,0,0,0-6.118-9.242q-.011-1.314-.073-2.644c2.592-2.7,2.643-4.97,1.9-7s-2.242-3.773-2.677-5.66c-.03-.136-.175-.319-.324-.144a8.916,8.916,0,0,0-1.959,6.08,11.116,11.116,0,0,0,2.634,6.7q.059,1.077.084,2.14a74.082,74.082,0,0,0-6.986-7.678q-.192-1.231-.43-2.471c2.034-2.875,1.781-4.976.833-6.748S148.8,1.861,148.168.173c-.03-.079-.109-.173-.192-.173a.15.15,0,0,0-.124.085M28.223,22.951h0m7.342-8.292h0M38.6,0c-.082,0-.159.1-.188.173-.636,1.688-2.242,3.085-3.186,4.861s-1.2,3.873.833,6.748q-.239,1.24-.43,2.471a73.853,73.853,0,0,0-6.986,7.679q.026-1.066.084-2.141a11.117,11.117,0,0,0,2.634-6.7A8.91,8.91,0,0,0,29.4,7.014c-.151-.175-.295.009-.324.144-.435,1.887-1.938,3.624-2.677,5.66s-.694,4.3,1.9,7q-.061,1.33-.073,2.645A74.363,74.363,0,0,0,22.108,31.7q-.146-1.1-.257-2.224a12.057,12.057,0,0,0,1.7-7.493,9.418,9.418,0,0,0-3-6.077c-.185-.16-.31.058-.32.206-.172,2.065-1.489,4.154-1.947,6.427s-.046,4.65,3.121,7.036q.152,1.389.356,2.753a74.651,74.651,0,0,0-3.894,8.277q-.489,1.226-.934,2.47-.338-1.106-.645-2.237A12.96,12.96,0,0,0,16.8,32.7a9.893,9.893,0,0,0-4.146-5.84c-.22-.136-.315.116-.3.273.154,2.2-.883,4.634-.978,7.106s.743,4.884,4.471,6.794q.394,1.405.84,2.771a76.116,76.116,0,0,0-3.095,12.086q-.546-1.066-1.064-2.165a13.787,13.787,0,0,0-.935-8.577,10.344,10.344,0,0,0-5.343-5.317c-.253-.1-.309.182-.269.344.543,2.273-.107,5.013.233,7.612S7.864,52.735,12.092,54q.657,1.365,1.363,2.68A77.034,77.034,0,0,0,12.494,69.8q-.755-.976-1.485-1.994A14.558,14.558,0,0,0,8.44,59.1a10.773,10.773,0,0,0-6.52-4.482c-.28-.057-.285.249-.216.409.978,2.259.81,5.229,1.647,7.864s2.642,4.822,7.264,5.289q.928,1.267,1.894,2.469A75.276,75.276,0,0,0,13.7,82.367q.181,1,.39,2-.96-.83-1.9-1.709a15.384,15.384,0,0,0-4.372-8.46A11.24,11.24,0,0,0,.226,70.863.2.2,0,0,0,0,71.068v.016a.489.489,0,0,0,.081.249c1.442,2.151,1.843,5.282,3.229,7.845S7,83.626,11.862,83.126q1.2,1.094,2.418,2.11a75.075,75.075,0,0,0,4.47,13.724q-1.138-.626-2.268-1.306a16.11,16.11,0,0,0-6.259-7.736,11.747,11.747,0,0,0-8.494-1.81c-.31.062-.191.38-.053.516,1.923,1.921,2.987,5.064,4.95,7.4s4.734,3.77,9.616,2.182q1.436.844,2.886,1.6.6,1.32,1.242,2.616a74.467,74.467,0,0,0,6.29,10.4q-1.279-.372-2.559-.8a16.761,16.761,0,0,0-8.082-6.495,12.316,12.316,0,0,0-9.092.033c-.3.135-.113.434.057.544a17.111,17.111,0,0,1,3.283,3.091,26.629,26.629,0,0,0,3.39,3.4,7.85,7.85,0,0,0,4.359,1.79,10.5,10.5,0,0,0,5.963-1.741q1.63.524,3.255.957a74.062,74.062,0,0,0,5.084,6.126,73.113,73.113,0,0,0,5.5,5.355q-1.362-.07-2.738-.2a17.5,17.5,0,0,0-9.709-4.722,12.961,12.961,0,0,0-9.283,2.125c-.281.2-.02.469.179.542a18.015,18.015,0,0,1,4.047,2.408,27.122,27.122,0,0,0,4.231,2.689,8.162,8.162,0,0,0,4.863.806A11.033,11.033,0,0,0,35.1,125.55q1.756.144,3.486.2a72.05,72.05,0,0,0,9.981,7.13q1.7,1.006,3.448,1.915-1.372.263-2.771.469a18.414,18.414,0,0,0-10.986-2.412,13.717,13.717,0,0,0-8.969,4.373c-.241.278.089.483.308.511a18.967,18.967,0,0,1,4.694,1.487,27.914,27.914,0,0,0,4.955,1.712,8.53,8.53,0,0,0,5.148-.369,11.634,11.634,0,0,0,5.026-4.634q1.79-.287,3.528-.662a70.832,70.832,0,0,0,14.886,5.473.949.949,0,0,0,1.175-.684.969.969,0,0,0-.753-1.125,69.2,69.2,0,0,1-14.571-5.216q-.756-1.614-1.415-3.238a16.83,16.83,0,0,0,1.475-6.639,9.176,9.176,0,0,0-1.112-4.25c-.62-1.17-1.4-2.18-2.073-3.212a7.718,7.718,0,0,1-1.367-3.3c-.02-.172-.175-.372-.4-.083a13.075,13.075,0,0,0-2.883,9.239,10.631,10.631,0,0,0,1.669,4.729,11.476,11.476,0,0,0,4.079,3.753q.526,1.274,1.111,2.543-1.716-.873-3.384-1.842a70.414,70.414,0,0,1-9.822-6.89c.087.414.177.828.272,1.243l-.759-.632c-.093-.417-.182-.834-.266-1.25a71.462,71.462,0,0,1-5.433-5.2,72.585,72.585,0,0,1-5.033-5.962q.024-1.7.13-3.375a14.887,14.887,0,0,0,3.84-4.882,8.492,8.492,0,0,0,.736-4.02c-.06-1.244-.325-2.421-.488-3.572a7.5,7.5,0,0,1,.119-3.354c.049-.153-.005-.388-.3-.236a11.779,11.779,0,0,0-5.934,6.552,10.535,10.535,0,0,0,1.432,9.449q-.077,1.325-.1,2.675a73.046,73.046,0,0,1-6.259-10.151q-.646-1.266-1.242-2.558.369-1.614.806-3.179c4.487-2.548,5.651-5.031,6.032-7.389s-.066-4.693.994-6.6c.075-.134.07-.367-.235-.285a11.1,11.1,0,0,0-6.814,4.938,10.191,10.191,0,0,0-.52,9.154q-.343,1.25-.642,2.531a73.714,73.714,0,0,1-4.509-13.458q.663-1.455,1.384-2.852C21.44,80.641,23,78.542,23.8,76.4s.821-4.438,2.162-6.038c.1-.113.134-.335-.167-.318a10.475,10.475,0,0,0-7.282,3.314A9.811,9.811,0,0,0,16.3,81.832q-.57,1.12-1.1,2.277-.213-.977-.4-1.961a74.057,74.057,0,0,1-1.271-11.535q.9-1.25,1.837-2.437c4.622-.481,6.464-2.157,7.594-4.036s1.553-4.053,3.086-5.325c.109-.09.184-.293-.1-.331a9.875,9.875,0,0,0-7.38,1.8,9.4,9.4,0,0,0-3.588,7.54q-.75.957-1.471,1.953a76.1,76.1,0,0,1,.842-12.953Q15.409,55.8,16.5,54.845c4.392.381,6.394-.868,7.766-2.437s2.134-3.531,3.778-4.464c.114-.066.22-.246-.04-.33a9.332,9.332,0,0,0-7.188.4A8.9,8.9,0,0,0,16.2,54.443q-.876.776-1.735,1.591a75.192,75.192,0,0,1,2.959-11.97q1.179-.777,2.369-1.491c4.026,1.112,6.1.283,7.634-.957s2.566-2.963,4.251-3.574c.119-.043.246-.194.017-.316a8.834,8.834,0,0,0-6.77-.808,8.4,8.4,0,0,0-5.347,5.227q-.96.583-1.91,1.206.429-1.234.9-2.453a74.214,74.214,0,0,1,3.787-8.228q1.232-.537,2.469-1.016c3.569,1.694,5.628,1.252,7.253.329s2.852-2.381,4.521-2.7c.118-.021.259-.145.064-.295a8.366,8.366,0,0,0-6.192-1.8,7.921,7.921,0,0,0-5.779,4.029q-1,.391-2,.824a73.921,73.921,0,0,1,5.987-9.212q1.239-.314,2.472-.575c3.065,2.12,5.046,2.014,6.7,1.389s3-1.815,4.606-1.879c.113-.005.263-.1.1-.267a7.935,7.935,0,0,0-5.516-2.562A7.457,7.457,0,0,0,31.1,21.833q-1,.218-2.005.471a73.562,73.562,0,0,1,6.872-7.684q1.2-.114,2.4-.184c2.551,2.4,4.407,2.58,6.027,2.22s3.041-1.285,4.543-1.135c.106.01.257-.061.131-.237a7.5,7.5,0,0,0-4.792-3.115,7,7,0,0,0-5.907,1.866q-.971.061-1.951.153,1.918-1.831,3.962-3.52l.751-.611a9.391,9.391,0,0,0,6.612-2.089c1.732-1.539,2.8-3.578,4.011-4.93a.259.259,0,0,0,.045-.289.245.245,0,0,0-.257-.126c-1.764.266-4.1.19-6.337,1.247A8.334,8.334,0,0,0,40.862,9.7l-.049.038q-.317.252-.633.507l-.077.062q-2.07,1.681-4.021,3.511.171-1,.373-2a10.208,10.208,0,0,0,3.315-5.836,8.384,8.384,0,0,0-1.043-5.9A.153.153,0,0,0,38.606,0Z" fill="url(#linear-gradient-3)"/>
    </clipPath>
  </defs>
  <g id="Group_930" data-name="Group 930" clip-path="url(#clip-path)">
    <g id="Group_923" data-name="Group 923">
      <g id="Group_922" data-name="Group 922" clip-path="url(#clip-path)">
        <path id="Path_10895" data-name="Path 10895" d="M31.961,167.81H26.215l-.685,1.583A3.522,3.522,0,0,0,25.2,170.7a1.084,1.084,0,0,0,.551,1.007,4.621,4.621,0,0,0,1.6.288v.444h-5.41V172a2.42,2.42,0,0,0,1.44-.725,9.69,9.69,0,0,0,1.392-2.454l5.818-12.98h.228l5.867,13.34a8.1,8.1,0,0,0,1.379,2.387,1.883,1.883,0,0,0,1.152.432v.444H31.337V172h.324a2.477,2.477,0,0,0,1.332-.263.642.642,0,0,0,.264-.553,1.473,1.473,0,0,0-.073-.443c-.015-.072-.136-.372-.36-.9Zm-.408-.888-2.424-5.6-2.494,5.6Z" transform="translate(1.496 10.627)" fill="#03023f"/>
        <path id="Path_10896" data-name="Path 10896" d="M53.019,156.153v4.4h-.432a6.987,6.987,0,0,0-.851-2.189,3.292,3.292,0,0,0-1.284-1.062,4.107,4.107,0,0,0-1.595-.216H47.645v12.548a5.131,5.131,0,0,0,.138,1.56,1.241,1.241,0,0,0,.541.546,2.177,2.177,0,0,0,1.1.234h.541v.444H41.442v-.444h.541a2.248,2.248,0,0,0,1.139-.252,1.134,1.134,0,0,0,.492-.576,4.962,4.962,0,0,0,.131-1.511V157.089H42.571a3.422,3.422,0,0,0-2.388.7,4.6,4.6,0,0,0-1.319,2.771h-.456v-4.4Z" transform="translate(2.619 10.649)" fill="#03023f"/>
        <path id="Path_10897" data-name="Path 10897" d="M69.28,156.153v4.4h-.432A6.987,6.987,0,0,0,68,158.366a3.292,3.292,0,0,0-1.284-1.062,4.107,4.107,0,0,0-1.595-.216H63.906v12.548a5.132,5.132,0,0,0,.138,1.56,1.241,1.241,0,0,0,.541.546,2.177,2.177,0,0,0,1.1.234h.541v.444H57.7v-.444h.541a2.248,2.248,0,0,0,1.139-.252,1.134,1.134,0,0,0,.492-.576,4.962,4.962,0,0,0,.131-1.511V157.089H58.832a3.422,3.422,0,0,0-2.388.7,4.6,4.6,0,0,0-1.319,2.771h-.456v-4.4Z" transform="translate(3.728 10.649)" fill="#03023f"/>
        <path id="Path_10898" data-name="Path 10898" d="M79.108,155.941a8.072,8.072,0,0,1,8.746,8.3,8.672,8.672,0,0,1-1.812,5.445,8.051,8.051,0,0,1-6.778,3.119,8.22,8.22,0,0,1-6.791-2.975,8.619,8.619,0,0,1-1.895-5.578,8.116,8.116,0,0,1,2.464-6.04,7.848,7.848,0,0,1,6.064-2.273m.144.768a3.666,3.666,0,0,0-3.395,2.278,12.18,12.18,0,0,0-.946,5.374q0,4.164,1.462,6.155a3.338,3.338,0,0,0,2.856,1.392,3.428,3.428,0,0,0,2.063-.6,4.932,4.932,0,0,0,1.643-2.454,13.628,13.628,0,0,0,.588-4.4,14.624,14.624,0,0,0-.6-4.828,4.707,4.707,0,0,0-1.531-2.261,3.6,3.6,0,0,0-2.142-.659" transform="translate(4.813 10.634)" fill="#03023f"/>
        <path id="Path_10899" data-name="Path 10899" d="M94.99,165.006v4.558a5.089,5.089,0,0,0,.16,1.662,1.2,1.2,0,0,0,.571.546,3.839,3.839,0,0,0,1.523.2v.444H88.918v-.444a3.738,3.738,0,0,0,1.53-.209,1.217,1.217,0,0,0,.564-.546,4.97,4.97,0,0,0,.162-1.656V159.008a5.036,5.036,0,0,0-.162-1.662,1.187,1.187,0,0,0-.569-.546,3.85,3.85,0,0,0-1.524-.2v-.444h7.559a16.48,16.48,0,0,1,4.319.408,4.346,4.346,0,0,1,2.23,1.505,4.041,4.041,0,0,1,.865,2.573,3.842,3.842,0,0,1-1.3,2.975,5.341,5.341,0,0,1-2.315,1.115l3.911,5.507a8.367,8.367,0,0,0,1.092,1.332,2.019,2.019,0,0,0,1.14.407v.444H101.3l-5.241-7.413Zm0-7.977v7.125h.685a7.642,7.642,0,0,0,2.494-.306,2.489,2.489,0,0,0,1.3-1.1,4.04,4.04,0,0,0,.476-2.082,3.16,3.16,0,0,0-3.674-3.634Z" transform="translate(6.064 10.649)" fill="#03023f"/>
        <path id="Path_10900" data-name="Path 10900" d="M112.117,156.153l8.025,10.089v-6.995a3.3,3.3,0,0,0-.42-1.978,2.314,2.314,0,0,0-1.931-.672v-.444h5.374v.444a4.093,4.093,0,0,0-1.385.341,1.379,1.379,0,0,0-.552.685,4.685,4.685,0,0,0-.2,1.625v13.544h-.409l-11-13.544v10.341a2.282,2.282,0,0,0,.642,1.9,2.355,2.355,0,0,0,1.47.491h.383v.444h-5.769v-.444a2.616,2.616,0,0,0,1.871-.551,2.587,2.587,0,0,0,.528-1.836V158.108l-.348-.432a3.162,3.162,0,0,0-.912-.851,2.746,2.746,0,0,0-1.139-.228v-.444Z" transform="translate(7.252 10.649)" fill="#03023f"/>
        <path id="Path_10901" data-name="Path 10901" d="M130.213,157.089v6.622h.325a2.568,2.568,0,0,0,2.242-.971,5.978,5.978,0,0,0,.888-2.868h.456v8.518h-.456a6.368,6.368,0,0,0-.606-2.28,2.613,2.613,0,0,0-1.074-1.193,4.079,4.079,0,0,0-1.775-.305v4.581a6.634,6.634,0,0,0,.113,1.644.994.994,0,0,0,.426.492,2.01,2.01,0,0,0,1.007.192h.972a5.247,5.247,0,0,0,5.627-4.271h.443l-.732,5.17h-14.06v-.444h.539a2.257,2.257,0,0,0,1.141-.252,1.1,1.1,0,0,0,.48-.576,4.963,4.963,0,0,0,.131-1.511v-10.7a8.418,8.418,0,0,0-.061-1.356,1.142,1.142,0,0,0-.443-.647,2.067,2.067,0,0,0-1.248-.335h-.539v-.444h13.615v4.811h-.455a5.871,5.871,0,0,0-.977-2.532,3.638,3.638,0,0,0-1.782-1.128,9.637,9.637,0,0,0-2.52-.216Z" transform="translate(8.457 10.649)" fill="#03023f"/>
        <path id="Path_10902" data-name="Path 10902" d="M157.266,156.153v.444a2.378,2.378,0,0,0-1.235.468,12.413,12.413,0,0,0-1.9,2.747l-3.525,5.889v3.935a5.375,5.375,0,0,0,.131,1.566,1.221,1.221,0,0,0,.521.539,2,2,0,0,0,1.038.234h.911v.444h-9.129v-.444h.851a2.205,2.205,0,0,0,1.139-.252,1.134,1.134,0,0,0,.492-.576,4.963,4.963,0,0,0,.131-1.511v-3.263l-3.826-6.97a10.257,10.257,0,0,0-1.607-2.428,2.017,2.017,0,0,0-1.248-.378v-.444h7.8v.444h-.348a1.767,1.767,0,0,0-.989.2.557.557,0,0,0-.281.433,7.216,7.216,0,0,0,.959,2.171l2.939,5.387,2.927-4.907a6.494,6.494,0,0,0,1.093-2.386.641.641,0,0,0-.313-.54,2.956,2.956,0,0,0-1.5-.359v-.444Z" transform="translate(9.548 10.649)" fill="#03023f"/>
        <path id="Path_10903" data-name="Path 10903" d="M39.452,219.523H36.166l-.576,1.338a2.121,2.121,0,0,0-.213.739.428.428,0,0,0,.184.341,1.613,1.613,0,0,0,.8.191v.232H33.688v-.232a1.44,1.44,0,0,0,.688-.245,3.826,3.826,0,0,0,.707-1.22l2.986-6.985h.219l2.955,7.06a3.236,3.236,0,0,0,.647,1.1,1.321,1.321,0,0,0,.811.285v.232H39.352v-.232a1.257,1.257,0,0,0,.686-.169.437.437,0,0,0,.178-.35,2.6,2.6,0,0,0-.25-.871Zm-.175-.464-1.44-3.43-1.476,3.43Z" transform="translate(2.297 14.572)" fill="#03023f"/>
        <path id="Path_10904" data-name="Path 10904" d="M44.6,217.5q.627-.626.738-.72a2.284,2.284,0,0,1,.608-.37,1.71,1.71,0,0,1,.644-.131,1.431,1.431,0,0,1,.926.313,1.548,1.548,0,0,1,.52.908,4.259,4.259,0,0,1,1.088-.986,1.945,1.945,0,0,1,.914-.235,1.438,1.438,0,0,1,.811.235,1.568,1.568,0,0,1,.56.767,3.448,3.448,0,0,1,.138,1.139v2.466a2.236,2.236,0,0,0,.081.738.526.526,0,0,0,.232.235,1.153,1.153,0,0,0,.55.1v.225H49.578v-.225H49.7a.991.991,0,0,0,.576-.144.555.555,0,0,0,.207-.319,4.137,4.137,0,0,0,.025-.607v-2.466a2.076,2.076,0,0,0-.169-.988.846.846,0,0,0-.782-.4,1.484,1.484,0,0,0-.667.166,3.606,3.606,0,0,0-.811.616l-.013.068.013.269v2.736a2.358,2.358,0,0,0,.065.732.533.533,0,0,0,.248.241,1.406,1.406,0,0,0,.62.1v.225h-2.9v-.225a1.315,1.315,0,0,0,.654-.113.579.579,0,0,0,.248-.338,3.4,3.4,0,0,0,.031-.62v-2.466a1.862,1.862,0,0,0-.206-1.007.882.882,0,0,0-.77-.4,1.386,1.386,0,0,0-.67.182,2.582,2.582,0,0,0-.8.62v3.073a2.123,2.123,0,0,0,.078.732.538.538,0,0,0,.232.254,1.489,1.489,0,0,0,.623.084v.225H42.693v-.225a1.254,1.254,0,0,0,.55-.084.543.543,0,0,0,.238-.269,2.061,2.061,0,0,0,.081-.717V218.7a7.787,7.787,0,0,0-.057-1.22.5.5,0,0,0-.137-.285.39.39,0,0,0-.257-.078,1.191,1.191,0,0,0-.419.094l-.094-.225,1.727-.7H44.6Z" transform="translate(2.905 14.749)" fill="#03023f"/>
        <path id="Path_10905" data-name="Path 10905" d="M53.408,218.614a2.942,2.942,0,0,0,.62,2,1.892,1.892,0,0,0,1.471.726,1.591,1.591,0,0,0,.98-.311,2.274,2.274,0,0,0,.7-1.061l.194.126a2.977,2.977,0,0,1-.764,1.561,2.037,2.037,0,0,1-1.583.705,2.313,2.313,0,0,1-1.769-.8,3.082,3.082,0,0,1-.735-2.163,3.266,3.266,0,0,1,.754-2.293,2.46,2.46,0,0,1,1.893-.824,2.12,2.12,0,0,1,1.584.636,2.329,2.329,0,0,1,.62,1.7Zm0-.363h2.653a2.426,2.426,0,0,0-.131-.777,1.242,1.242,0,0,0-.466-.55,1.18,1.18,0,0,0-.648-.2,1.291,1.291,0,0,0-.929.4,1.752,1.752,0,0,0-.479,1.124" transform="translate(3.581 14.749)" fill="#03023f"/>
        <path id="Path_10906" data-name="Path 10906" d="M59.712,216.285v1.289q.719-1.29,1.477-1.289a.8.8,0,0,1,.569.209.645.645,0,0,1,.225.485.574.574,0,0,1-.162.413.52.52,0,0,1-.389.169.827.827,0,0,1-.491-.216.809.809,0,0,0-.4-.216.372.372,0,0,0-.244.125,3,3,0,0,0-.582.845v2.747a1.7,1.7,0,0,0,.119.72.646.646,0,0,0,.288.282,1.267,1.267,0,0,0,.594.112v.225H57.778v-.225a1.231,1.231,0,0,0,.652-.137.541.541,0,0,0,.219-.319,3.3,3.3,0,0,0,.031-.608v-2.222a9.107,9.107,0,0,0-.041-1.192.464.464,0,0,0-.151-.279.424.424,0,0,0-.271-.088,1.26,1.26,0,0,0-.439.094l-.062-.225,1.734-.7Z" transform="translate(3.936 14.749)" fill="#03023f"/>
        <path id="Path_10907" data-name="Path 10907" d="M64.23,216.476v4.606a2.1,2.1,0,0,0,.079.717.55.55,0,0,0,.231.266,1.239,1.239,0,0,0,.561.088v.225H62.315v-.225a1.3,1.3,0,0,0,.564-.081.561.561,0,0,0,.229-.269,2.043,2.043,0,0,0,.084-.72v-2.209a7.825,7.825,0,0,0-.057-1.208.488.488,0,0,0-.138-.279.389.389,0,0,0-.256-.078,1.247,1.247,0,0,0-.426.094l-.088-.225,1.728-.7Zm-.519-3a.631.631,0,0,1,.632.632.623.623,0,0,1-.185.451.6.6,0,0,1-.448.187.635.635,0,1,1,0-1.27" transform="translate(4.243 14.558)" fill="#03023f"/>
        <path id="Path_10908" data-name="Path 10908" d="M70.691,220.009a3.109,3.109,0,0,1-.908,1.743,2.178,2.178,0,0,1-1.5.61,2.213,2.213,0,0,1-1.7-.819,3.225,3.225,0,0,1-.725-2.217,3.058,3.058,0,0,1,.8-2.2,2.57,2.57,0,0,1,1.931-.845,2.114,2.114,0,0,1,1.39.448,1.237,1.237,0,0,1,.545.929.508.508,0,0,1-.154.385.593.593,0,0,1-.428.147.665.665,0,0,1-.558-.238,1,1,0,0,1-.141-.5.817.817,0,0,0-.253-.563.9.9,0,0,0-.607-.188,1.244,1.244,0,0,0-1.008.464,2.466,2.466,0,0,0-.506,1.62,3.289,3.289,0,0,0,.5,1.813,1.549,1.549,0,0,0,1.362.785,1.644,1.644,0,0,0,1.1-.42,2.814,2.814,0,0,0,.67-1.045Z" transform="translate(4.491 14.749)" fill="#03023f"/>
        <path id="Path_10909" data-name="Path 10909" d="M74.636,221.361a9.329,9.329,0,0,1-1.108.788,1.69,1.69,0,0,1-.72.157,1.289,1.289,0,0,1-.98-.407,1.5,1.5,0,0,1-.385-1.07,1.367,1.367,0,0,1,.187-.726,2.511,2.511,0,0,1,.892-.8,13.968,13.968,0,0,1,2.113-.913v-.225a1.87,1.87,0,0,0-.272-1.177.984.984,0,0,0-.792-.319.89.89,0,0,0-.626.214.641.641,0,0,0-.238.488l.013.362a.622.622,0,0,1-.147.444.5.5,0,0,1-.385.157.49.49,0,0,1-.379-.162.644.644,0,0,1-.146-.444,1.282,1.282,0,0,1,.55-.989,2.383,2.383,0,0,1,1.547-.451,2.687,2.687,0,0,1,1.252.256,1.181,1.181,0,0,1,.544.607,3.4,3.4,0,0,1,.113,1.1V220.2a9.081,9.081,0,0,0,.031,1,.424.424,0,0,0,.1.248.244.244,0,0,0,.166.062.334.334,0,0,0,.175-.044,3.887,3.887,0,0,0,.507-.456v.35q-.7.939-1.34.939a.61.61,0,0,1-.488-.213,1.147,1.147,0,0,1-.188-.726m0-.407V218.77a12.2,12.2,0,0,0-1.221.532,2.124,2.124,0,0,0-.707.576,1.121,1.121,0,0,0-.213.657,1.074,1.074,0,0,0,.269.749.817.817,0,0,0,.62.3,2.267,2.267,0,0,0,1.252-.626" transform="translate(4.872 14.749)" fill="#03023f"/>
        <path id="Path_10910" data-name="Path 10910" d="M78.648,217.5a2.707,2.707,0,0,1,1.922-1.215,1.384,1.384,0,0,1,.808.235,1.571,1.571,0,0,1,.538.773,3.568,3.568,0,0,1,.138,1.152v2.447a2.051,2.051,0,0,0,.088.738.514.514,0,0,0,.222.245,1.266,1.266,0,0,0,.566.088v.225H80.095v-.225h.119a.944.944,0,0,0,.56-.123A.636.636,0,0,0,81,221.48a3.586,3.586,0,0,0,.026-.589v-2.347a2.383,2.383,0,0,0-.2-1.137.726.726,0,0,0-.685-.354,2.064,2.064,0,0,0-1.484.814v3.023a2.168,2.168,0,0,0,.068.72.583.583,0,0,0,.241.266,1.507,1.507,0,0,0,.623.084v.225H76.746v-.225h.125a.677.677,0,0,0,.592-.222,1.633,1.633,0,0,0,.153-.848v-2.128a9.106,9.106,0,0,0-.047-1.258.533.533,0,0,0-.144-.307.387.387,0,0,0-.26-.081,1.211,1.211,0,0,0-.419.093l-.094-.224,1.727-.7h.269Z" transform="translate(5.227 14.749)" fill="#03023f"/>
        <path id="Path_10911" data-name="Path 10911" d="M90,222.12v.232H86.361v-.232h.3a.906.906,0,0,0,.764-.307,1.9,1.9,0,0,0,.151-.964v-5.483a2.8,2.8,0,0,0-.081-.851.561.561,0,0,0-.256-.269,1.186,1.186,0,0,0-.577-.151h-.3v-.232H90v.232h-.307a.9.9,0,0,0-.757.307,1.851,1.851,0,0,0-.156.965v5.483a2.8,2.8,0,0,0,.081.85.557.557,0,0,0,.263.269,1.147,1.147,0,0,0,.569.151Z" transform="translate(5.889 14.584)" fill="#03023f"/>
        <path id="Path_10912" data-name="Path 10912" d="M92.366,217.5a2.706,2.706,0,0,1,1.921-1.215,1.384,1.384,0,0,1,.808.235,1.565,1.565,0,0,1,.539.773,3.6,3.6,0,0,1,.137,1.152v2.447a2.051,2.051,0,0,0,.088.738.514.514,0,0,0,.222.245,1.272,1.272,0,0,0,.566.088v.225H93.811v-.225h.119a.947.947,0,0,0,.561-.123.641.641,0,0,0,.222-.359,3.646,3.646,0,0,0,.025-.589v-2.347a2.385,2.385,0,0,0-.2-1.137.727.727,0,0,0-.685-.354,2.062,2.062,0,0,0-1.484.814v3.023a2.18,2.18,0,0,0,.067.72.583.583,0,0,0,.241.266,1.507,1.507,0,0,0,.623.084v.225H90.462v-.225h.126a.678.678,0,0,0,.592-.222,1.644,1.644,0,0,0,.153-.848v-2.128a9.1,9.1,0,0,0-.047-1.258.533.533,0,0,0-.145-.307.384.384,0,0,0-.26-.081,1.216,1.216,0,0,0-.419.093l-.094-.224,1.727-.7h.27Z" transform="translate(6.163 14.749)" fill="#03023f"/>
        <path id="Path_10913" data-name="Path 10913" d="M100.6,216.285v1.953H100.4a2.538,2.538,0,0,0-.611-1.252,1.37,1.37,0,0,0-.947-.331,1.048,1.048,0,0,0-.707.231.673.673,0,0,0-.269.514.929.929,0,0,0,.2.6,2.2,2.2,0,0,0,.788.545l.914.444a1.858,1.858,0,0,1,1.27,1.634,1.542,1.542,0,0,1-.591,1.26,2.054,2.054,0,0,1-1.325.479,4.558,4.558,0,0,1-1.2-.187,1.225,1.225,0,0,0-.338-.063.25.25,0,0,0-.225.162h-.206v-2.047h.206a2.329,2.329,0,0,0,.67,1.321,1.618,1.618,0,0,0,1.108.444.988.988,0,0,0,.7-.254.8.8,0,0,0,.272-.61.975.975,0,0,0-.3-.726,5.319,5.319,0,0,0-1.211-.745,3.582,3.582,0,0,1-1.189-.814,1.4,1.4,0,0,1-.282-.9,1.593,1.593,0,0,1,.485-1.184,1.717,1.717,0,0,1,1.255-.475,2.949,2.949,0,0,1,.82.144,1.98,1.98,0,0,0,.425.094.254.254,0,0,0,.157-.044.614.614,0,0,0,.131-.194Z" transform="translate(6.623 14.749)" fill="#03023f"/>
        <path id="Path_10914" data-name="Path 10914" d="M103.5,214.679v1.884h1.34V217H103.5v3.717a1.253,1.253,0,0,0,.159.751.506.506,0,0,0,.41.194.717.717,0,0,0,.4-.128.82.82,0,0,0,.3-.379h.245a1.971,1.971,0,0,1-.62.924,1.34,1.34,0,0,1-.827.31,1.109,1.109,0,0,1-.563-.16.962.962,0,0,1-.407-.456,2.4,2.4,0,0,1-.131-.918V217h-.907v-.207a2.372,2.372,0,0,0,.7-.466,3.681,3.681,0,0,0,.641-.78,6.874,6.874,0,0,0,.4-.87Z" transform="translate(6.926 14.64)" fill="#03023f"/>
        <path id="Path_10915" data-name="Path 10915" d="M107.376,216.476v4.606a2.1,2.1,0,0,0,.079.717.55.55,0,0,0,.231.266,1.239,1.239,0,0,0,.561.088v.225h-2.786v-.225a1.3,1.3,0,0,0,.564-.081.561.561,0,0,0,.229-.269,2.043,2.043,0,0,0,.084-.72v-2.209a7.825,7.825,0,0,0-.057-1.208.488.488,0,0,0-.138-.279.389.389,0,0,0-.256-.078,1.247,1.247,0,0,0-.426.094l-.088-.225,1.728-.7Zm-.519-3a.631.631,0,0,1,.632.632.623.623,0,0,1-.185.451.6.6,0,0,1-.448.187.635.635,0,1,1,0-1.27" transform="translate(7.186 14.558)" fill="#03023f"/>
        <path id="Path_10916" data-name="Path 10916" d="M110.653,214.679v1.884h1.34V217h-1.34v3.717a1.252,1.252,0,0,0,.159.751.506.506,0,0,0,.41.194.717.717,0,0,0,.4-.128.82.82,0,0,0,.3-.379h.245a1.971,1.971,0,0,1-.62.924,1.34,1.34,0,0,1-.827.31,1.109,1.109,0,0,1-.563-.16.962.962,0,0,1-.407-.456,2.4,2.4,0,0,1-.131-.918V217h-.907v-.207a2.372,2.372,0,0,0,.7-.466,3.681,3.681,0,0,0,.641-.78,6.876,6.876,0,0,0,.4-.87Z" transform="translate(7.414 14.64)" fill="#03023f"/>
        <path id="Path_10917" data-name="Path 10917" d="M117.595,216.443v3.474a8.783,8.783,0,0,0,.047,1.218.543.543,0,0,0,.151.31.362.362,0,0,0,.24.088,1.121,1.121,0,0,0,.438-.107l.088.219-1.714.707h-.282v-1.213a5.229,5.229,0,0,1-1.126,1.007,1.725,1.725,0,0,1-.82.206,1.312,1.312,0,0,1-.835-.278,1.442,1.442,0,0,1-.491-.717,4.339,4.339,0,0,1-.138-1.24v-2.559a1.253,1.253,0,0,0-.088-.563.587.587,0,0,0-.26-.241,1.522,1.522,0,0,0-.623-.078v-.232h2.008v3.837a1.431,1.431,0,0,0,.279,1.051.974.974,0,0,0,.673.251,1.392,1.392,0,0,0,.61-.17,3.282,3.282,0,0,0,.811-.644V217.52a.915.915,0,0,0-.178-.66,1.152,1.152,0,0,0-.741-.185v-.232Z" transform="translate(7.65 14.76)" fill="#03023f"/>
        <path id="Path_10918" data-name="Path 10918" d="M120.467,214.679v1.884h1.34V217h-1.34v3.717a1.253,1.253,0,0,0,.159.751.506.506,0,0,0,.41.194.717.717,0,0,0,.4-.128.819.819,0,0,0,.3-.379h.245a1.971,1.971,0,0,1-.62.924,1.34,1.34,0,0,1-.827.31,1.109,1.109,0,0,1-.563-.16.962.962,0,0,1-.407-.456,2.4,2.4,0,0,1-.131-.918V217h-.907v-.207a2.372,2.372,0,0,0,.7-.466,3.681,3.681,0,0,0,.641-.78,6.877,6.877,0,0,0,.4-.87Z" transform="translate(8.083 14.64)" fill="#03023f"/>
        <path id="Path_10919" data-name="Path 10919" d="M123.318,218.614a2.942,2.942,0,0,0,.62,2,1.892,1.892,0,0,0,1.471.726,1.591,1.591,0,0,0,.98-.311,2.274,2.274,0,0,0,.7-1.061l.194.126a2.977,2.977,0,0,1-.764,1.561,2.037,2.037,0,0,1-1.583.705,2.313,2.313,0,0,1-1.769-.8,3.082,3.082,0,0,1-.735-2.163,3.266,3.266,0,0,1,.754-2.293,2.46,2.46,0,0,1,1.893-.824,2.12,2.12,0,0,1,1.584.636,2.329,2.329,0,0,1,.62,1.7Zm0-.363h2.653a2.427,2.427,0,0,0-.131-.777,1.242,1.242,0,0,0-.466-.55,1.18,1.18,0,0,0-.648-.2,1.291,1.291,0,0,0-.929.4,1.752,1.752,0,0,0-.479,1.124" transform="translate(8.349 14.749)" fill="#03023f"/>
        <path id="Path_10920" data-name="Path 10920" d="M133.967,216.285a2.543,2.543,0,0,1,2.09.989,3.036,3.036,0,0,1,.67,1.94,3.659,3.659,0,0,1-.37,1.558,2.621,2.621,0,0,1-2.46,1.591,2.433,2.433,0,0,1-2.059-1.033,3.2,3.2,0,0,1-.644-1.953,3.464,3.464,0,0,1,.391-1.568,2.673,2.673,0,0,1,1.03-1.152,2.634,2.634,0,0,1,1.352-.373m-.194.407a1.306,1.306,0,0,0-.667.2,1.379,1.379,0,0,0-.542.691,3.327,3.327,0,0,0-.206,1.27,4.42,4.42,0,0,0,.5,2.16,1.481,1.481,0,0,0,1.311.908,1.224,1.224,0,0,0,1-.5,2.848,2.848,0,0,0,.394-1.721,3.927,3.927,0,0,0-.657-2.4,1.355,1.355,0,0,0-1.133-.6" transform="translate(8.947 14.749)" fill="#03023f"/>
        <path id="Path_10921" data-name="Path 10921" d="M139.639,217.1v3.768a1.849,1.849,0,0,0,.175,1.015.771.771,0,0,0,.62.275h.519v.225h-3.424v-.225h.257a.864.864,0,0,0,.456-.125.65.65,0,0,0,.285-.338,2.829,2.829,0,0,0,.078-.827V217.1h-1.114v-.451h1.114v-.375a3.439,3.439,0,0,1,.276-1.453,2.255,2.255,0,0,1,.842-.96A2.293,2.293,0,0,1,141,213.49a1.932,1.932,0,0,1,1.208.425.8.8,0,0,1,.363.632.5.5,0,0,1-.162.354.486.486,0,0,1-.35.167.565.565,0,0,1-.3-.1,1.66,1.66,0,0,1-.392-.444,1.564,1.564,0,0,0-.425-.46.812.812,0,0,0-.432-.119.783.783,0,0,0-.488.153.865.865,0,0,0-.288.476,8.889,8.889,0,0,0-.088,1.661v.413h1.477v.451Z" transform="translate(9.376 14.559)" fill="#03023f"/>
        <path id="Path_10922" data-name="Path 10922" d="M28.208,229.328v3.336h1.546a1.1,1.1,0,0,0,.78-.235,1.547,1.547,0,0,0,.328-.929h.232v2.873h-.232a1.681,1.681,0,0,0-.128-.726.8.8,0,0,0-.338-.347,1.4,1.4,0,0,0-.642-.116H28.208v2.666a2.8,2.8,0,0,0,.081.851.557.557,0,0,0,.263.269,1.185,1.185,0,0,0,.576.151h.307v.232H25.792v-.232h.3a.905.905,0,0,0,.763-.307,1.9,1.9,0,0,0,.151-.965v-5.482a2.8,2.8,0,0,0-.081-.851.561.561,0,0,0-.256-.269,1.162,1.162,0,0,0-.576-.151h-.3v-.232h6.315l.082,1.865h-.22a2.549,2.549,0,0,0-.378-.873,1.244,1.244,0,0,0-.532-.4,2.845,2.845,0,0,0-.98-.125Z" transform="translate(1.759 15.607)" fill="#03023f"/>
        <path id="Path_10923" data-name="Path 10923" d="M36.133,236.361a9.327,9.327,0,0,1-1.108.788,1.69,1.69,0,0,1-.72.157,1.289,1.289,0,0,1-.98-.407,1.5,1.5,0,0,1-.385-1.07,1.367,1.367,0,0,1,.187-.726,2.511,2.511,0,0,1,.892-.8,13.965,13.965,0,0,1,2.113-.913v-.225a1.87,1.87,0,0,0-.272-1.177.984.984,0,0,0-.792-.319.89.89,0,0,0-.626.214.641.641,0,0,0-.238.488l.013.362a.622.622,0,0,1-.147.444.5.5,0,0,1-.385.157.49.49,0,0,1-.379-.162.644.644,0,0,1-.146-.444,1.282,1.282,0,0,1,.55-.989,2.383,2.383,0,0,1,1.547-.451,2.687,2.687,0,0,1,1.252.256,1.181,1.181,0,0,1,.544.607,3.4,3.4,0,0,1,.113,1.1V235.2a9.084,9.084,0,0,0,.031,1,.424.424,0,0,0,.1.248.244.244,0,0,0,.166.062.334.334,0,0,0,.175-.044,3.889,3.889,0,0,0,.507-.456v.35q-.7.939-1.34.939a.61.61,0,0,1-.488-.213,1.147,1.147,0,0,1-.188-.726m0-.407V233.77a12.2,12.2,0,0,0-1.221.532,2.124,2.124,0,0,0-.707.576,1.121,1.121,0,0,0-.213.657,1.074,1.074,0,0,0,.269.749.817.817,0,0,0,.62.3,2.267,2.267,0,0,0,1.252-.626" transform="translate(2.246 15.772)" fill="#03023f"/>
        <path id="Path_10924" data-name="Path 10924" d="M40.177,232.5q.625-.627.737-.72a2.284,2.284,0,0,1,.608-.37,1.71,1.71,0,0,1,.644-.131,1.431,1.431,0,0,1,.926.313,1.548,1.548,0,0,1,.52.908,4.242,4.242,0,0,1,1.09-.986,1.941,1.941,0,0,1,.913-.235,1.438,1.438,0,0,1,.811.235,1.576,1.576,0,0,1,.561.767,3.484,3.484,0,0,1,.137,1.139v2.466a2.236,2.236,0,0,0,.081.738.526.526,0,0,0,.232.235,1.153,1.153,0,0,0,.55.1v.225H45.158v-.225h.119a.991.991,0,0,0,.576-.144.555.555,0,0,0,.207-.319,4.137,4.137,0,0,0,.025-.607v-2.466a2.062,2.062,0,0,0-.169-.988.846.846,0,0,0-.782-.4,1.484,1.484,0,0,0-.667.166,3.606,3.606,0,0,0-.811.616l-.013.068.013.269v2.736a2.358,2.358,0,0,0,.065.732.533.533,0,0,0,.248.241,1.406,1.406,0,0,0,.62.1v.225h-2.9v-.225a1.315,1.315,0,0,0,.654-.113.579.579,0,0,0,.248-.338,3.4,3.4,0,0,0,.031-.62v-2.466a1.862,1.862,0,0,0-.206-1.007.882.882,0,0,0-.77-.4,1.379,1.379,0,0,0-.669.182,2.557,2.557,0,0,0-.8.62v3.073a2.132,2.132,0,0,0,.077.732.538.538,0,0,0,.232.254,1.489,1.489,0,0,0,.623.084v.225H38.273v-.225a1.254,1.254,0,0,0,.55-.084.543.543,0,0,0,.238-.269,2.062,2.062,0,0,0,.081-.717V233.7a7.787,7.787,0,0,0-.057-1.22.5.5,0,0,0-.137-.285.39.39,0,0,0-.257-.078,1.191,1.191,0,0,0-.419.094l-.094-.225,1.727-.7h.27Z" transform="translate(2.604 15.772)" fill="#03023f"/>
        <path id="Path_10925" data-name="Path 10925" d="M50.007,231.476v4.606a2.1,2.1,0,0,0,.079.717.55.55,0,0,0,.231.266,1.239,1.239,0,0,0,.561.088v.225H48.092v-.225a1.3,1.3,0,0,0,.564-.081.561.561,0,0,0,.229-.269,2.043,2.043,0,0,0,.084-.72v-2.209a7.827,7.827,0,0,0-.057-1.208.488.488,0,0,0-.138-.279.389.389,0,0,0-.256-.078,1.247,1.247,0,0,0-.426.094L48,232.177l1.728-.7Zm-.519-3a.631.631,0,0,1,.632.632.623.623,0,0,1-.185.451.6.6,0,0,1-.448.187.635.635,0,1,1,0-1.27" transform="translate(3.274 15.581)" fill="#03023f"/>
        <path id="Path_10926" data-name="Path 10926" d="M53.575,228.478v7.6a2.075,2.075,0,0,0,.078.714.558.558,0,0,0,.241.266,1.376,1.376,0,0,0,.607.091v.225h-2.81v-.225a1.213,1.213,0,0,0,.538-.081.545.545,0,0,0,.225-.269,2.091,2.091,0,0,0,.081-.72v-5.207a8.9,8.9,0,0,0-.044-1.192.516.516,0,0,0-.141-.3.367.367,0,0,0-.247-.081,1.179,1.179,0,0,0-.413.1l-.106-.219,1.708-.7Z" transform="translate(3.518 15.581)" fill="#03023f"/>
        <path id="Path_10927" data-name="Path 10927" d="M54.872,231.443h2.673v.232h-.131a.633.633,0,0,0-.423.122.387.387,0,0,0-.14.3,1.711,1.711,0,0,0,.206.676l1.4,2.892,1.283-3.167a1.321,1.321,0,0,0,.106-.506.271.271,0,0,0-.044-.17.33.33,0,0,0-.156-.109,1.172,1.172,0,0,0-.376-.041v-.232h1.865v.232a.883.883,0,0,0-.357.1,1.008,1.008,0,0,0-.275.281,3.8,3.8,0,0,0-.214.482l-2.334,5.721a2.961,2.961,0,0,1-.886,1.258,1.744,1.744,0,0,1-1.055.425.874.874,0,0,1-.607-.213.642.642,0,0,1-.238-.488.549.549,0,0,1,.173-.423.668.668,0,0,1,.472-.159,1.679,1.679,0,0,1,.563.138,1.376,1.376,0,0,0,.313.094.654.654,0,0,0,.41-.194,2.04,2.04,0,0,0,.448-.751l.407-1-2.059-4.325a3.516,3.516,0,0,0-.3-.482,1.465,1.465,0,0,0-.256-.294,1.409,1.409,0,0,0-.464-.175Z" transform="translate(3.742 15.783)" fill="#03023f"/>
        <path id="Path_10928" data-name="Path 10928" d="M71.613,235l.206.044-.725,2.3H64.521v-.232h.319a.854.854,0,0,0,.77-.35,2.02,2.02,0,0,0,.131-.926v-5.477a1.753,1.753,0,0,0-.175-.994.919.919,0,0,0-.726-.276h-.319v-.232h3.843v.232a2.346,2.346,0,0,0-.949.125.76.76,0,0,0-.372.331,2.717,2.717,0,0,0-.1.958v5.332a1.725,1.725,0,0,0,.1.714.449.449,0,0,0,.231.194,4.094,4.094,0,0,0,.977.062h.62a4.525,4.525,0,0,0,1.37-.143,1.783,1.783,0,0,0,.72-.511A4.176,4.176,0,0,0,71.613,235" transform="translate(4.4 15.607)" fill="#03023f"/>
        <path id="Path_10929" data-name="Path 10929" d="M75.471,236.361a9.328,9.328,0,0,1-1.108.788,1.69,1.69,0,0,1-.72.157,1.289,1.289,0,0,1-.98-.407,1.5,1.5,0,0,1-.385-1.07,1.367,1.367,0,0,1,.187-.726,2.511,2.511,0,0,1,.892-.8,13.965,13.965,0,0,1,2.113-.913v-.225a1.87,1.87,0,0,0-.272-1.177.984.984,0,0,0-.792-.319.89.89,0,0,0-.626.214.641.641,0,0,0-.238.488l.013.362a.622.622,0,0,1-.147.444.5.5,0,0,1-.385.157.49.49,0,0,1-.379-.162.644.644,0,0,1-.146-.444,1.282,1.282,0,0,1,.55-.989,2.383,2.383,0,0,1,1.547-.451,2.687,2.687,0,0,1,1.252.256,1.181,1.181,0,0,1,.544.607,3.4,3.4,0,0,1,.113,1.1V235.2a9.083,9.083,0,0,0,.031,1,.424.424,0,0,0,.1.248.244.244,0,0,0,.166.062.334.334,0,0,0,.175-.044,3.889,3.889,0,0,0,.507-.456v.35q-.7.939-1.34.939a.61.61,0,0,1-.488-.213,1.147,1.147,0,0,1-.188-.726m0-.407V233.77a12.2,12.2,0,0,0-1.221.532,2.124,2.124,0,0,0-.707.576,1.121,1.121,0,0,0-.213.657,1.074,1.074,0,0,0,.269.749.817.817,0,0,0,.62.3,2.267,2.267,0,0,0,1.252-.626" transform="translate(4.929 15.772)" fill="#03023f"/>
        <path id="Path_10930" data-name="Path 10930" d="M77.494,231.443h2.4v.232a.778.778,0,0,0-.435.119.345.345,0,0,0-.1.269,1.337,1.337,0,0,0,.107.47l1.226,3.3,1.233-2.684L81.6,232.3a1.011,1.011,0,0,0-.394-.52,1.169,1.169,0,0,0-.514-.106v-.232h2.729v.232a1.159,1.159,0,0,0-.639.162.386.386,0,0,0-.125.319.724.724,0,0,0,.05.256l1.3,3.292,1.207-3.173a1.64,1.64,0,0,0,.126-.538.267.267,0,0,0-.123-.214.9.9,0,0,0-.479-.106v-.232h1.81v.232a1.031,1.031,0,0,0-.8.738l-1.915,4.938h-.257l-1.432-3.661-1.672,3.661h-.232L78.4,232.533a1.747,1.747,0,0,0-.357-.617,1.206,1.206,0,0,0-.551-.24Z" transform="translate(5.285 15.783)" fill="#03023f"/>
        <path id="Path_10931" data-name="Path 10931" d="M94.759,234.523H91.473l-.576,1.338a2.121,2.121,0,0,0-.213.739.428.428,0,0,0,.184.341,1.613,1.613,0,0,0,.8.191v.232H89v-.232a1.44,1.44,0,0,0,.688-.245,3.827,3.827,0,0,0,.707-1.22l2.986-6.985h.219l2.955,7.06a3.236,3.236,0,0,0,.647,1.1,1.321,1.321,0,0,0,.811.285v.232H94.659v-.232a1.257,1.257,0,0,0,.686-.169.437.437,0,0,0,.178-.35,2.6,2.6,0,0,0-.25-.871Zm-.175-.464-1.44-3.43-1.476,3.43Z" transform="translate(6.069 15.595)" fill="#03023f"/>
        <path id="Path_10932" data-name="Path 10932" d="M99.864,229.679v1.884h1.34V232h-1.34v3.717a1.253,1.253,0,0,0,.159.751.506.506,0,0,0,.41.194.717.717,0,0,0,.4-.128.82.82,0,0,0,.3-.379h.245a1.971,1.971,0,0,1-.62.924,1.34,1.34,0,0,1-.827.31,1.108,1.108,0,0,1-.563-.16.962.962,0,0,1-.407-.456,2.4,2.4,0,0,1-.131-.918V232h-.907v-.207a2.372,2.372,0,0,0,.7-.466,3.68,3.68,0,0,0,.641-.78,6.875,6.875,0,0,0,.4-.87Z" transform="translate(6.678 15.663)" fill="#03023f"/>
        <path id="Path_10933" data-name="Path 10933" d="M103.439,229.679v1.884h1.34V232h-1.34v3.717a1.253,1.253,0,0,0,.159.751.506.506,0,0,0,.41.194.717.717,0,0,0,.4-.128.82.82,0,0,0,.3-.379h.245a1.971,1.971,0,0,1-.62.924,1.34,1.34,0,0,1-.827.31,1.108,1.108,0,0,1-.563-.16.962.962,0,0,1-.407-.456,2.4,2.4,0,0,1-.131-.918V232H101.5v-.207a2.372,2.372,0,0,0,.7-.466,3.68,3.68,0,0,0,.641-.78,6.875,6.875,0,0,0,.4-.87Z" transform="translate(6.922 15.663)" fill="#03023f"/>
        <path id="Path_10934" data-name="Path 10934" d="M108.133,231.285a2.543,2.543,0,0,1,2.09.989,3.036,3.036,0,0,1,.67,1.94,3.659,3.659,0,0,1-.37,1.559,2.621,2.621,0,0,1-2.46,1.591A2.433,2.433,0,0,1,106,236.33a3.2,3.2,0,0,1-.644-1.953,3.464,3.464,0,0,1,.391-1.568,2.673,2.673,0,0,1,1.03-1.152,2.634,2.634,0,0,1,1.352-.373m-.194.407a1.307,1.307,0,0,0-.667.2,1.38,1.38,0,0,0-.542.691,3.327,3.327,0,0,0-.206,1.27,4.42,4.42,0,0,0,.5,2.16,1.481,1.481,0,0,0,1.311.908,1.224,1.224,0,0,0,1-.5,2.848,2.848,0,0,0,.394-1.721,3.926,3.926,0,0,0-.657-2.4,1.355,1.355,0,0,0-1.133-.6" transform="translate(7.185 15.772)" fill="#03023f"/>
        <path id="Path_10935" data-name="Path 10935" d="M113.267,231.285v1.289q.719-1.29,1.477-1.289a.8.8,0,0,1,.569.209.645.645,0,0,1,.225.485.574.574,0,0,1-.162.413.52.52,0,0,1-.389.169.827.827,0,0,1-.491-.216.809.809,0,0,0-.4-.216.372.372,0,0,0-.244.125,3,3,0,0,0-.582.845v2.747a1.7,1.7,0,0,0,.119.72.646.646,0,0,0,.288.282,1.268,1.268,0,0,0,.594.112v.225h-2.935v-.225a1.231,1.231,0,0,0,.652-.137.541.541,0,0,0,.219-.319,3.3,3.3,0,0,0,.031-.608v-2.222a9.107,9.107,0,0,0-.041-1.192.464.464,0,0,0-.151-.279.424.424,0,0,0-.271-.088,1.26,1.26,0,0,0-.439.094l-.062-.225,1.734-.7Z" transform="translate(7.588 15.772)" fill="#03023f"/>
        <path id="Path_10936" data-name="Path 10936" d="M117.5,232.5a2.707,2.707,0,0,1,1.922-1.215,1.384,1.384,0,0,1,.808.235,1.571,1.571,0,0,1,.538.773,3.568,3.568,0,0,1,.138,1.152v2.447a2.051,2.051,0,0,0,.088.738.514.514,0,0,0,.222.245,1.265,1.265,0,0,0,.566.088v.225h-2.835v-.225h.119a.944.944,0,0,0,.56-.123.636.636,0,0,0,.222-.359,3.585,3.585,0,0,0,.026-.589v-2.347a2.383,2.383,0,0,0-.2-1.137.726.726,0,0,0-.685-.354,2.064,2.064,0,0,0-1.484.814v3.023a2.168,2.168,0,0,0,.068.72.583.583,0,0,0,.241.266,1.507,1.507,0,0,0,.623.084v.225H115.6v-.225h.125a.677.677,0,0,0,.592-.222,1.633,1.633,0,0,0,.153-.848v-2.128a9.106,9.106,0,0,0-.047-1.258.533.533,0,0,0-.144-.307.387.387,0,0,0-.26-.081,1.211,1.211,0,0,0-.419.093l-.094-.224,1.727-.7h.269Z" transform="translate(7.876 15.772)" fill="#03023f"/>
        <path id="Path_10937" data-name="Path 10937" d="M123,233.614a2.942,2.942,0,0,0,.62,2,1.892,1.892,0,0,0,1.471.726,1.591,1.591,0,0,0,.98-.311,2.274,2.274,0,0,0,.7-1.061l.194.126a2.977,2.977,0,0,1-.764,1.561,2.037,2.037,0,0,1-1.583.705,2.313,2.313,0,0,1-1.769-.8,3.082,3.082,0,0,1-.735-2.163,3.266,3.266,0,0,1,.754-2.293,2.46,2.46,0,0,1,1.893-.824,2.12,2.12,0,0,1,1.584.636,2.329,2.329,0,0,1,.62,1.7Zm0-.363h2.653a2.426,2.426,0,0,0-.131-.777,1.242,1.242,0,0,0-.466-.55,1.18,1.18,0,0,0-.648-.2,1.291,1.291,0,0,0-.929.4,1.752,1.752,0,0,0-.479,1.124" transform="translate(8.328 15.772)" fill="#03023f"/>
        <path id="Path_10938" data-name="Path 10938" d="M127.308,231.443h2.673v.232h-.131a.633.633,0,0,0-.423.122.387.387,0,0,0-.14.3,1.711,1.711,0,0,0,.206.676l1.4,2.892,1.283-3.167a1.321,1.321,0,0,0,.106-.506.271.271,0,0,0-.044-.17.33.33,0,0,0-.156-.109,1.172,1.172,0,0,0-.376-.041v-.232h1.865v.232a.884.884,0,0,0-.357.1,1.008,1.008,0,0,0-.275.281,3.794,3.794,0,0,0-.214.482l-2.334,5.721a2.961,2.961,0,0,1-.886,1.258,1.744,1.744,0,0,1-1.055.425.874.874,0,0,1-.607-.213.642.642,0,0,1-.238-.488.549.549,0,0,1,.173-.423.668.668,0,0,1,.472-.159,1.68,1.68,0,0,1,.563.138,1.376,1.376,0,0,0,.313.094.654.654,0,0,0,.41-.194,2.04,2.04,0,0,0,.448-.751l.407-1-2.059-4.325a3.517,3.517,0,0,0-.3-.482,1.464,1.464,0,0,0-.256-.294,1.409,1.409,0,0,0-.464-.175Z" transform="translate(8.682 15.783)" fill="#03023f"/>
        <path id="Path_10939" data-name="Path 10939" d="M137.542,231.285v1.953h-.206a2.538,2.538,0,0,0-.611-1.252,1.37,1.37,0,0,0-.947-.331,1.048,1.048,0,0,0-.707.231.673.673,0,0,0-.269.514.929.929,0,0,0,.2.6,2.2,2.2,0,0,0,.788.545l.914.444a1.858,1.858,0,0,1,1.27,1.634,1.542,1.542,0,0,1-.591,1.26,2.054,2.054,0,0,1-1.325.479,4.558,4.558,0,0,1-1.2-.187,1.225,1.225,0,0,0-.338-.063.25.25,0,0,0-.225.162h-.206v-2.047h.206a2.329,2.329,0,0,0,.67,1.321,1.618,1.618,0,0,0,1.108.444.988.988,0,0,0,.7-.254.8.8,0,0,0,.272-.61.975.975,0,0,0-.3-.726,5.319,5.319,0,0,0-1.211-.745,3.582,3.582,0,0,1-1.189-.814,1.4,1.4,0,0,1-.282-.9,1.593,1.593,0,0,1,.485-1.184,1.717,1.717,0,0,1,1.255-.475,2.949,2.949,0,0,1,.82.144,1.98,1.98,0,0,0,.425.094.254.254,0,0,0,.157-.044.613.613,0,0,0,.131-.194Z" transform="translate(9.142 15.772)" fill="#03023f"/>
        <path id="Path_10940" data-name="Path 10940" d="M142.1,228.182l.047.99h-.119a1.211,1.211,0,0,0-.093-.374.626.626,0,0,0-.257-.266.889.889,0,0,0-.422-.085h-.6v3.226a.871.871,0,0,0,.084.486.467.467,0,0,0,.364.13h.146v.115h-1.79v-.115h.15a.429.429,0,0,0,.379-.161.948.948,0,0,0,.068-.455v-3.226h-.507a1.424,1.424,0,0,0-.42.043.573.573,0,0,0-.277.228.914.914,0,0,0-.138.455H138.6l.05-.99Z" transform="translate(9.452 15.561)" fill="#03023f"/>
        <path id="Path_10941" data-name="Path 10941" d="M144.787,232.4l-1.632-3.553v2.821a.858.858,0,0,0,.085.486.457.457,0,0,0,.363.13h.15v.115h-1.47v-.115h.15a.43.43,0,0,0,.38-.161.941.941,0,0,0,.069-.455v-2.759a.961.961,0,0,0-.063-.4.345.345,0,0,0-.161-.152.874.874,0,0,0-.375-.06v-.115h1.2l1.532,3.3,1.507-3.3h1.2v.115h-.145a.432.432,0,0,0-.383.161.948.948,0,0,0-.068.455v2.759a.835.835,0,0,0,.088.486.458.458,0,0,0,.364.13h.145v.115h-1.792v-.115h.148a.425.425,0,0,0,.38-.161.945.945,0,0,0,.068-.455v-2.821L144.89,232.4Z" transform="translate(9.703 15.561)" fill="#03023f"/>
        <path id="Path_10942" data-name="Path 10942" d="M25.7,188.5a2.7,2.7,0,0,0-.968-.718,2.617,2.617,0,0,0-.942-.179,3.138,3.138,0,0,0-1.275.25,2.912,2.912,0,0,0-.982.692,3.18,3.18,0,0,0-.635,1.032,3.535,3.535,0,0,0-.223,1.269,3.9,3.9,0,0,0,.223,1.346,3.2,3.2,0,0,0,.635,1.064,2.946,2.946,0,0,0,.982.705,3.07,3.07,0,0,0,1.275.256,2.327,2.327,0,0,0,1.069-.264,2.9,2.9,0,0,0,.968-.839l1.334.949a3.641,3.641,0,0,1-1.5,1.231,4.674,4.674,0,0,1-1.884.385,5.3,5.3,0,0,1-1.929-.34,4.325,4.325,0,0,1-2.506-2.455,5.038,5.038,0,0,1-.358-1.936,5.265,5.265,0,0,1,.358-1.982,4.449,4.449,0,0,1,.993-1.518,4.355,4.355,0,0,1,1.513-.968,5.3,5.3,0,0,1,1.929-.34,4.423,4.423,0,0,1,1.711.327,3.989,3.989,0,0,1,1.468,1.109Z" transform="translate(1.294 12.694)" fill="#03023f"/>
        <path id="Path_10943" data-name="Path 10943" d="M28.254,186.361h1.615v7.614h3.858v1.461H28.254Z" transform="translate(1.927 12.709)" fill="#03023f"/>
        <rect id="Rectangle_931" data-name="Rectangle 931" width="1.615" height="9.075" transform="translate(37.436 199.07)" fill="#03023f"/>
        <path id="Path_10944" data-name="Path 10944" d="M39.018,186.361h6.012v1.461h-4.4v2.23H44.8v1.461H40.633v2.461H45.26v1.461H39.018Z" transform="translate(2.661 12.709)" fill="#03023f"/>
        <path id="Path_10945" data-name="Path 10945" d="M46.95,186.361h2.141l4.4,6.742h.026v-6.742h1.614v9.075H53.076l-4.485-6.96h-.026v6.96H46.95Z" transform="translate(3.202 12.709)" fill="#03023f"/>
        <path id="Path_10946" data-name="Path 10946" d="M59.019,187.822H56.238v-1.461h7.177v1.461H60.634v7.614H59.019Z" transform="translate(3.835 12.709)" fill="#03023f"/>
        <path id="Path_10947" data-name="Path 10947" d="M73.228,188.324a1.487,1.487,0,0,0-.687-.545,2.385,2.385,0,0,0-.9-.173,2.291,2.291,0,0,0-.545.064,1.469,1.469,0,0,0-.474.205,1.074,1.074,0,0,0-.341.365,1.054,1.054,0,0,0-.127.532.832.832,0,0,0,.32.705,3.114,3.114,0,0,0,.795.423c.316.12.661.235,1.038.346a4.251,4.251,0,0,1,1.037.46,2.6,2.6,0,0,1,.8.783,2.324,2.324,0,0,1,.319,1.295,2.847,2.847,0,0,1-.269,1.275,2.6,2.6,0,0,1-.723.9,3.156,3.156,0,0,1-1.059.538,4.415,4.415,0,0,1-1.268.179,4.762,4.762,0,0,1-1.628-.282,3.124,3.124,0,0,1-1.346-.949l1.217-1.179a2.047,2.047,0,0,0,.777.7,2.191,2.191,0,0,0,1.019.25,2.121,2.121,0,0,0,.563-.077,1.765,1.765,0,0,0,.514-.232,1.2,1.2,0,0,0,.372-.39,1.056,1.056,0,0,0,.14-.546.947.947,0,0,0-.319-.768,2.853,2.853,0,0,0-.8-.455c-.315-.124-.662-.241-1.037-.353a4.353,4.353,0,0,1-1.038-.455,2.507,2.507,0,0,1-.795-.77,2.285,2.285,0,0,1-.32-1.287,2.445,2.445,0,0,1,.288-1.218,2.626,2.626,0,0,1,.756-.852,3.3,3.3,0,0,1,1.07-.506,4.59,4.59,0,0,1,1.231-.167,4.491,4.491,0,0,1,1.391.218,3.21,3.21,0,0,1,1.211.718Z" transform="translate(4.648 12.694)" fill="#03023f"/>
        <path id="Path_10948" data-name="Path 10948" d="M79.228,186.361h1.4l3.91,9.075H82.688l-.846-2.077H77.908l-.82,2.077H75.28Zm2.051,5.614-1.4-3.692-1.423,3.692Z" transform="translate(5.134 12.709)" fill="#03023f"/>
        <path id="Path_10949" data-name="Path 10949" d="M86.307,187.822H83.526v-1.461H90.7v1.461H87.922v7.614H86.307Z" transform="translate(5.696 12.709)" fill="#03023f"/>
        <rect id="Rectangle_932" data-name="Rectangle 932" width="1.615" height="9.075" transform="translate(98.104 199.07)" fill="#03023f"/>
        <path id="Path_10950" data-name="Path 10950" d="M100.3,188.324a1.49,1.49,0,0,0-.688-.545,2.381,2.381,0,0,0-.9-.173,2.282,2.282,0,0,0-.544.064,1.449,1.449,0,0,0-.474.205,1.067,1.067,0,0,0-.342.365,1.054,1.054,0,0,0-.127.532.832.832,0,0,0,.32.705,3.114,3.114,0,0,0,.795.423c.317.12.661.235,1.038.346a4.233,4.233,0,0,1,1.037.46,2.586,2.586,0,0,1,.8.783,2.324,2.324,0,0,1,.319,1.295,2.847,2.847,0,0,1-.269,1.275,2.6,2.6,0,0,1-.723.9,3.156,3.156,0,0,1-1.059.538,4.408,4.408,0,0,1-1.267.179,4.768,4.768,0,0,1-1.629-.282,3.13,3.13,0,0,1-1.346-.949l1.217-1.179a2.05,2.05,0,0,0,.778.7,2.183,2.183,0,0,0,1.018.25,2.115,2.115,0,0,0,.563-.077,1.766,1.766,0,0,0,.514-.232,1.19,1.19,0,0,0,.372-.39,1.056,1.056,0,0,0,.14-.546.947.947,0,0,0-.319-.768,2.853,2.853,0,0,0-.8-.455q-.473-.186-1.037-.353a4.372,4.372,0,0,1-1.038-.455,2.492,2.492,0,0,1-.794-.77,2.276,2.276,0,0,1-.322-1.287,2.445,2.445,0,0,1,.289-1.218,2.6,2.6,0,0,1,.756-.852,3.3,3.3,0,0,1,1.07-.506,4.578,4.578,0,0,1,1.231-.167,4.49,4.49,0,0,1,1.39.218,3.2,3.2,0,0,1,1.211.718Z" transform="translate(6.495 12.694)" fill="#03023f"/>
        <path id="Path_10951" data-name="Path 10951" d="M103.3,186.361h5.857v1.461h-4.242v2.384h4v1.461h-4v3.769H103.3Z" transform="translate(7.044 12.709)" fill="#03023f"/>
        <path id="Path_10952" data-name="Path 10952" d="M113.128,186.361h1.4l3.91,9.075h-1.847l-.846-2.077h-3.934l-.82,2.077H109.18Zm2.051,5.614-1.4-3.692-1.423,3.692Z" transform="translate(7.445 12.709)" fill="#03023f"/>
        <path id="Path_10953" data-name="Path 10953" d="M125.654,188.5a2.716,2.716,0,0,0-.969-.718,2.612,2.612,0,0,0-.941-.179,3.135,3.135,0,0,0-1.275.25,2.887,2.887,0,0,0-.981.692,3.128,3.128,0,0,0-.636,1.032,3.534,3.534,0,0,0-.223,1.269,3.9,3.9,0,0,0,.223,1.346,3.146,3.146,0,0,0,.636,1.064,2.92,2.92,0,0,0,.981.705,3.067,3.067,0,0,0,1.275.256,2.324,2.324,0,0,0,1.069-.264,2.9,2.9,0,0,0,.968-.839l1.333.949a3.632,3.632,0,0,1-1.5,1.231,4.674,4.674,0,0,1-1.884.385,5.3,5.3,0,0,1-1.929-.34,4.325,4.325,0,0,1-2.506-2.455,5.038,5.038,0,0,1-.358-1.936,5.265,5.265,0,0,1,.358-1.982,4.434,4.434,0,0,1,.993-1.518,4.355,4.355,0,0,1,1.513-.968,5.3,5.3,0,0,1,1.929-.34,4.423,4.423,0,0,1,1.711.327,3.972,3.972,0,0,1,1.468,1.109Z" transform="translate(8.111 12.694)" fill="#03023f"/>
        <path id="Path_10954" data-name="Path 10954" d="M130.13,187.822h-2.782v-1.461h7.177v1.461h-2.781v7.614H130.13Z" transform="translate(8.684 12.709)" fill="#03023f"/>
        <rect id="Rectangle_933" data-name="Rectangle 933" width="1.615" height="9.075" transform="translate(144.914 199.07)" fill="#03023f"/>
        <path id="Path_10955" data-name="Path 10955" d="M139.18,190.952a5.244,5.244,0,0,1,.359-1.982,4.464,4.464,0,0,1,.993-1.519,4.367,4.367,0,0,1,1.513-.967,5.3,5.3,0,0,1,1.929-.34,5.4,5.4,0,0,1,1.948.314,4.271,4.271,0,0,1,1.525.954,4.421,4.421,0,0,1,1,1.513,5.237,5.237,0,0,1,.359,1.975,5.053,5.053,0,0,1-.359,1.934,4.444,4.444,0,0,1-1,1.5,4.584,4.584,0,0,1-1.525.981,5.4,5.4,0,0,1-1.948.364,5.3,5.3,0,0,1-1.929-.339,4.322,4.322,0,0,1-2.506-2.456,5.012,5.012,0,0,1-.359-1.934m1.692-.1a3.877,3.877,0,0,0,.224,1.346,3.162,3.162,0,0,0,.634,1.064,2.953,2.953,0,0,0,.981.705,3.077,3.077,0,0,0,1.275.255,3.125,3.125,0,0,0,1.282-.255,2.935,2.935,0,0,0,.987-.705,3.162,3.162,0,0,0,.635-1.064,3.927,3.927,0,0,0,.224-1.346,3.558,3.558,0,0,0-.224-1.269,3.133,3.133,0,0,0-.635-1.032,2.9,2.9,0,0,0-.987-.693,3.213,3.213,0,0,0-1.282-.249,3.163,3.163,0,0,0-1.275.249,2.922,2.922,0,0,0-.981.693,3.133,3.133,0,0,0-.634,1.032,3.512,3.512,0,0,0-.224,1.269" transform="translate(9.491 12.694)" fill="#03023f"/>
        <path id="Path_10956" data-name="Path 10956" d="M150.231,186.361h2.141l4.4,6.742h.026v-6.742h1.614v9.075h-2.051l-4.485-6.96h-.026v6.96h-1.615Z" transform="translate(10.245 12.709)" fill="#03023f"/>
        <g id="Group_921" data-name="Group 921" transform="translate(14.631 217.138)" opacity="0.25">
          <g id="Group_920" data-name="Group 920">
            <g id="Group_919" data-name="Group 919" clip-path="url(#clip-path-3)">
              <rect id="Rectangle_934" data-name="Rectangle 934" width="157.067" height="2.136" transform="translate(0 -0.001)" fill="#03023f"/>
            </g>
          </g>
        </g>
        <rect id="Rectangle_936" data-name="Rectangle 936" width="45.083" height="22.703" transform="translate(70.748 132.005)" fill="#03023f"/>
        <path id="Path_10957" data-name="Path 10957" d="M82.49,137.738H78.328v-.114a23.082,23.082,0,0,0,2.323-3.068,3.326,3.326,0,0,0,.409-1.538,1.277,1.277,0,0,0-.339-.91,1.1,1.1,0,0,0-.83-.362,1.372,1.372,0,0,0-1.247.8l-.192-.068A2.887,2.887,0,0,1,79.308,131a2.01,2.01,0,0,1,1.326-.48,1.953,1.953,0,0,1,.981.251,1.812,1.812,0,0,1,.693.686,1.656,1.656,0,0,1,.25.816,2.948,2.948,0,0,1-.386,1.408,13.36,13.36,0,0,1-2.3,2.692H81.4a3.522,3.522,0,0,0,.734-.047.613.613,0,0,0,.279-.16,2,2,0,0,0,.286-.471h.188Z" transform="translate(5.341 8.901)" fill="#fff"/>
        <path id="Path_10958" data-name="Path 10958" d="M87.508,134.2a6.393,6.393,0,0,1-.3,1.976,2.681,2.681,0,0,1-.479.924,2.42,2.42,0,0,1-.679.571,1.754,1.754,0,0,1-1.753-.05,2.474,2.474,0,0,1-.731-.746,3.663,3.663,0,0,1-.4-.944,6.107,6.107,0,0,1-.224-1.648,6.629,6.629,0,0,1,.324-2.118,2.5,2.5,0,0,1,.809-1.222,1.772,1.772,0,0,1,2.3-.006,2.43,2.43,0,0,1,.785,1.13,6.28,6.28,0,0,1,.349,2.133m-1.607-.011q0-1.857-.021-2.164a1.925,1.925,0,0,0-.25-.981.5.5,0,0,0-.422-.168.487.487,0,0,0-.355.126,1.091,1.091,0,0,0-.262.643q-.067.463-.067,3.222a12.206,12.206,0,0,0,.1,2.014.892.892,0,0,0,.224.495.565.565,0,0,0,.386.126.463.463,0,0,0,.391-.168,1.643,1.643,0,0,0,.25-.9Z" transform="translate(5.656 8.901)" fill="#fff"/>
        <path id="Path_10959" data-name="Path 10959" d="M90.517,130.519V136.3a3.548,3.548,0,0,0,.058.831.536.536,0,0,0,.239.3,1.145,1.145,0,0,0,.584.114h.162v.193H87.836v-.193h.188a1.436,1.436,0,0,0,.646-.1.532.532,0,0,0,.262-.286A3.2,3.2,0,0,0,89,136.3v-3.667a2.339,2.339,0,0,0-.047-.613.453.453,0,0,0-.174-.208.522.522,0,0,0-.295-.085,1.679,1.679,0,0,0-.647.167l-.094-.188,2.6-1.189Z" transform="translate(5.983 8.901)" fill="#fff"/>
        <path id="Path_10960" data-name="Path 10960" d="M91.89,137.884v-.146a4.583,4.583,0,0,0,1.468-.584,3.03,3.03,0,0,0,.956-.954,3.84,3.84,0,0,0,.492-1.31,2.984,2.984,0,0,1-.551.232,1.694,1.694,0,0,1-.476.065,1.745,1.745,0,0,1-1.338-.579,2.249,2.249,0,0,1-.534-1.585,2.83,2.83,0,0,1,.289-1.281,2.143,2.143,0,0,1,3.116-.868,2.478,2.478,0,0,1,.882,1.028,3.454,3.454,0,0,1,.328,1.534,4.553,4.553,0,0,1-.535,2.139,4.066,4.066,0,0,1-1.593,1.641,5.269,5.269,0,0,1-2.5.67m2.994-3.432c.034-.389.052-.733.052-1.028a6.85,6.85,0,0,0-.219-1.768,1.335,1.335,0,0,0-.371-.668.5.5,0,0,0-.339-.115.462.462,0,0,0-.407.224,2.33,2.33,0,0,0-.2,1.174,4.046,4.046,0,0,0,.345,1.992.684.684,0,0,0,.6.355,1.3,1.3,0,0,0,.537-.167" transform="translate(6.266 8.901)" fill="#fff"/>
      </g>
    </g>
    <g id="Group_925" data-name="Group 925" transform="translate(51.329 19.291)">
      <g id="Group_924" data-name="Group 924" clip-path="url(#clip-path-4)">
        <rect id="Rectangle_938" data-name="Rectangle 938" width="102.566" height="103.08" transform="translate(-32.999 34.858) rotate(-46.569)" fill="url(#linear-gradient)"/>
      </g>
    </g>
    <g id="Group_927" data-name="Group 927" transform="translate(57.299 90.14)">
      <g id="Group_926" data-name="Group 926" clip-path="url(#clip-path-5)">
        <rect id="Rectangle_939" data-name="Rectangle 939" width="55.091" height="82.707" transform="translate(-9.579 22.858) rotate(-67.264)" fill="url(#linear-gradient-2)"/>
      </g>
    </g>
    <g id="Group_929" data-name="Group 929">
      <g id="Group_928" data-name="Group 928" clip-path="url(#clip-path-6)">
        <rect id="Rectangle_940" data-name="Rectangle 940" width="230.868" height="232.622" transform="translate(-70.535 74.508) rotate(-46.569)" fill="url(#linear-gradient-3)"/>
      </g>
    </g>
  </g>
</svg>
