<svg id="Group_644" data-name="Group 644" xmlns="http://www.w3.org/2000/svg" xmlns:xlink="http://www.w3.org/1999/xlink" width="300.297" height="140.284" viewBox="0 0 300.297 140.284">
  <defs>
    <clipPath id="clip-path">
      <rect id="Rectangle_745" data-name="Rectangle 745" width="300.297" height="140.284" fill="none"/>
    </clipPath>
  </defs>
  <g id="Group_643" data-name="Group 643" clip-path="url(#clip-path)">
    <path id="Path_4240" data-name="Path 4240" d="M293.019,100.9a126.946,126.946,0,0,0-20.136-11.315,101.756,101.756,0,0,0-47.21-8.655c-17.773,1.047-33.649,7.27-47.9,17.854-9.834,7.3-18.89,15.521-28.077,23.582-15.39,13.5-32,24.962-51.648,31.484a130.185,130.185,0,0,1-37.573,6.708A135.742,135.742,0,0,1,1.415,148.739,1.925,1.925,0,0,1,.006,146.6c.115-2.041.069-4.091.09-6.137.665.264,1.348.491,1.993.8,3.581,1.7,7.2,3.309,10.921,4.679A135.626,135.626,0,0,0,35.3,152.314a128.477,128.477,0,0,0,21.072,2.248,152.915,152.915,0,0,0,15.481-.611,112.8,112.8,0,0,0,19.6-3.554,126.236,126.236,0,0,0,27.4-10.977c10.17-5.479,19.206-12.5,28.106-19.734,7.68-6.242,15.049-12.858,22.9-18.895a118,118,0,0,1,22.4-14.06,82.925,82.925,0,0,1,29.839-7.6,100.8,100.8,0,0,1,29.718,2.334,111.294,111.294,0,0,1,25.67,9.427,3.849,3.849,0,0,0,2.354.793l.69.352c.037.772.576.76,1.131.721l1.653.483a10.322,10.322,0,0,0,2.089,1.629c2.63,1.661,4.926,3.822,7.768,5.157.023.221.339.3.362.524-.076.069-.444.277-.517.348" transform="translate(0 -40.778)" fill="#6b3d9e"/>
    <path id="Path_4241" data-name="Path 4241" d="M280.631,87.88l-.691-.352a2.07,2.07,0,0,0-1.1-.888c-3.823-2.022-7.675-3.975-11.669-5.654a105.191,105.191,0,0,0-40.714-8.2c-3.05-.014-6.105.39-9.153.647a81.884,81.884,0,0,0-19.16,4.05c-10.73,3.589-20.262,9.388-29.339,16.012-11.406,8.324-21.924,17.776-33.342,26.089a129.2,129.2,0,0,1-33.539,18.1,116.1,116.1,0,0,1-43.882,6.662c-4.326-.2-8.62-.519-12.914-1.083a126.371,126.371,0,0,1-31.214-8.505C9.223,132.846,4.8,130.375.188,128.319l0-8.351c4.715,2.541,9.341,5.231,14.227,7.467A118.456,118.456,0,0,0,81.7,137.33c17.588-2.5,33.624-9.125,48.349-18.969,9.014-6.027,17.462-12.819,26.042-19.431,8.4-6.473,16.946-12.727,26.372-17.67A90.1,90.1,0,0,1,222.3,70.913a101.337,101.337,0,0,1,32.591,4.447,93.621,93.621,0,0,1,16.227,6.467c1.833.961,3.661,2.308,5.9,2.453l-.008,0c.082.429.355.495.723.381l-.01-.006c.143.888.783,1.025,1.525,1.009l-.015-.005a4.308,4.308,0,0,0,3.2,1.9l-.012-.008c.014.631.423.721.93.677l.058.022c.06.224.491.2.55.422-.058.058-.624.566-.685.62a11.551,11.551,0,0,0-1.515-.688,1.233,1.233,0,0,0-1.13-.721" transform="translate(-0.097 -36.625)" fill="#108cc3"/>
    <path id="Path_4242" data-name="Path 4242" d="M.187,130.36c4.617,2.057,9.036,4.527,13.729,6.435A126.377,126.377,0,0,0,45.13,145.3c4.294.565,8.588.883,12.914,1.083a116.1,116.1,0,0,0,43.882-6.662,129.194,129.194,0,0,0,33.539-18.1c11.418-8.313,21.936-17.764,33.342-26.089,9.077-6.624,18.609-12.423,29.339-16.012a81.888,81.888,0,0,1,19.16-4.05c3.049-.256,6.1-.66,9.153-.647a105.194,105.194,0,0,1,40.714,8.2c3.994,1.68,7.846,3.632,11.669,5.654a2.072,2.072,0,0,1,1.1.888,3.849,3.849,0,0,1-2.354-.793,111.294,111.294,0,0,0-25.67-9.427A100.8,100.8,0,0,0,222.2,77.016a82.925,82.925,0,0,0-29.839,7.6,118,118,0,0,0-22.4,14.06c-7.856,6.036-15.224,12.652-22.9,18.895-8.9,7.234-17.935,14.255-28.106,19.734a126.236,126.236,0,0,1-27.4,10.977,112.8,112.8,0,0,1-19.6,3.554,152.915,152.915,0,0,1-15.481.611A128.477,128.477,0,0,1,35.4,150.2a135.624,135.624,0,0,1-22.294-6.373c-3.722-1.37-7.339-2.982-10.921-4.679-.646-.306-1.328-.533-1.993-.8q0-4-.005-7.993" transform="translate(-0.097 -38.666)" fill="#3c479e"/>
    <path id="Path_4243" data-name="Path 4243" d="M.192,95.744q0-4.705,0-9.411A129.981,129.981,0,0,0,16.22,98.242a114.266,114.266,0,0,0,25.867,11.773,102.815,102.815,0,0,0,24.536,4.438,101.678,101.678,0,0,0,29.85-2.724,108.355,108.355,0,0,0,28.092-11.379c10.385-5.963,20.055-13.016,30-19.638,9.588-6.382,19.44-12.212,30.187-16.45A94.912,94.912,0,0,1,230.419,58.8a117.7,117.7,0,0,1,20.707,4.516A122.652,122.652,0,0,1,276.12,74.928c.847.5,2.1.75,2.272,2.071-1.9-1.024-3.8-2.038-5.694-3.075a108.329,108.329,0,0,0-46.03-13.555,93.1,93.1,0,0,0-36.8,4.944c-9.889,3.481-18.95,8.572-27.674,14.319-11.562,7.617-22.493,16.143-34.218,23.53a108.311,108.311,0,0,1-52.645,17.065,105.169,105.169,0,0,1-28.692-2.466,116.5,116.5,0,0,1-28.873-10.669A132.95,132.95,0,0,1,.192,95.744" transform="translate(-0.099 -29.996)" fill="#f7552f"/>
    <path id="Path_4244" data-name="Path 4244" d="M278.392,74.779c-.169-1.322-1.425-1.569-2.272-2.072A122.677,122.677,0,0,0,251.126,61.1a117.646,117.646,0,0,0-20.706-4.516,94.912,94.912,0,0,0-45.663,5.457c-10.748,4.238-20.6,10.069-30.187,16.45-9.949,6.623-19.619,13.676-30,19.638a108.355,108.355,0,0,1-28.092,11.379,101.68,101.68,0,0,1-29.851,2.724,102.815,102.815,0,0,1-24.536-4.438A114.263,114.263,0,0,1,16.221,96.021,129.945,129.945,0,0,1,.193,84.113V73.95a122.774,122.774,0,0,0,11.7,10.575,103.411,103.411,0,0,0,49.221,21.246c22.015,3.2,42.673-.967,62.1-11.66,10.361-5.7,20.039-12.486,30.01-18.806,9.991-6.332,20.208-12.251,31.434-16.146,20.5-7.113,41.141-7,61.854-.914a115.62,115.62,0,0,1,33.515,16.268c.294.2.553.459.828.69q-.115.113-.221.236l-1.114.032-.007.012c.018-.814-.516-.8-1.089-.72Z" transform="translate(-0.1 -27.775)" fill="#f32c43"/>
    <path id="Path_4245" data-name="Path 4245" d="M.19,98.03a132.95,132.95,0,0,0,17.574,11.347,116.5,116.5,0,0,0,28.873,10.669,105.169,105.169,0,0,0,28.692,2.466,108.31,108.31,0,0,0,52.645-17.065c11.725-7.388,22.656-15.913,34.218-23.53,8.724-5.747,17.785-10.838,27.674-14.319a93.1,93.1,0,0,1,36.8-4.944A108.329,108.329,0,0,1,272.7,76.211c1.892,1.037,3.8,2.05,5.694,3.075l.028-.016a2.2,2.2,0,0,1,1.089.72l.007-.013a8.4,8.4,0,0,1,1.093.718l0,0a1.815,1.815,0,0,1,1.078.759,3.653,3.653,0,0,1,1.087.761c.681,1,2.152,1.161,2.578,2.43l-.75.009.013.009a1.065,1.065,0,0,0-1.2-.754l-.058-.022a.823.823,0,0,0-.928-.676l.012.008a4.931,4.931,0,0,0-3.2-1.9l.015.005c-.2-.8-.817-.973-1.525-1.009l.009.006c-.1-.394-.362-.48-.722-.381l.008,0c-.178-.692-.847-.817-1.345-1.094-19.457-10.827-40.166-15.987-62.512-13.791a91.63,91.63,0,0,0-34.65,10.666c-12.439,6.667-23.473,15.365-34.775,23.68-8.6,6.324-17.285,12.512-26.883,17.265A109.479,109.479,0,0,1,55.11,127.709,117.383,117.383,0,0,1,14.5,115.483c-4.954-2.516-9.613-5.511-14.31-8.451v-9" transform="translate(-0.098 -32.282)" fill="#fadd2f"/>
    <path id="Path_4246" data-name="Path 4246" d="M.189,109.258c4.7,2.94,9.356,5.935,14.31,8.451A117.389,117.389,0,0,0,55.11,129.935a109.484,109.484,0,0,0,61.746-11.044c9.6-4.754,18.286-10.941,26.883-17.265,11.3-8.314,22.336-17.012,34.775-23.68a91.642,91.642,0,0,1,34.65-10.666c22.347-2.2,43.1,2.879,62.561,13.706.5.277,8.708,4.965,8.886,5.658-2.238-.145-13.059-6.695-13.489-6.933A93.6,93.6,0,0,0,254.9,73.243,101.358,101.358,0,0,0,222.3,68.8a90.1,90.1,0,0,0-39.837,10.347c-9.425,4.942-17.972,11.2-26.372,17.67-8.58,6.611-17.027,13.4-26.042,19.43-14.724,9.844-30.76,16.466-48.349,18.969a118.458,118.458,0,0,1-67.285-9.894c-4.886-2.237-9.513-4.927-14.227-7.468q0-4.3,0-8.592" transform="translate(-0.098 -34.507)" fill="#47bd4c"/>
    <path id="Path_4247" data-name="Path 4247" d="M587.535,104.9c-.425-1.269-1.9-1.431-2.577-2.43l.412-.8A55.465,55.465,0,0,1,595.5,110.3l-.1.112q-1.25-.766-2.5-1.529l.039.033a10.965,10.965,0,0,0-4.345-3.3l.018.013a.952.952,0,0,0-1.1-.741Z" transform="translate(-302.285 -52.538)" fill="#f32c43"/>
    <path id="Path_4248" data-name="Path 4248" d="M607.845,120.568a52.1,52.1,0,0,1,6.381,6.412l-.545.044-4.007-3.559-1.812-1.753-.371-.888.353-.256" transform="translate(-313.929 -62.305)" fill="#f32c43"/>
    <path id="Path_4249" data-name="Path 4249" d="M615.6,130.124l-.4.383-2.558-2.254-.4-.312.013.011-.412-.336.025.025c-.058-.386-.333-.464-.662-.468h.006c.011-.119.02-.238.029-.358l.352-.252,4.007,3.559" transform="translate(-315.848 -65.404)" fill="#108cc3"/>
    <path id="Path_4250" data-name="Path 4250" d="M584.207,100.683l-.412.8c-.4-.292-.661-.4-1.087-.761q.014-.389.028-.778.1-.088.2-.18a2.414,2.414,0,0,1,1.269.92" transform="translate(-301.122 -51.554)" fill="#f32c43"/>
    <path id="Path_4251" data-name="Path 4251" d="M607.839,125a3.694,3.694,0,0,1-1.471-1.071c.073-.071.376-.375.451-.443.67.12.872.778,1.191,1.345-.057.056-.114.112-.171.168" transform="translate(-313.348 -63.816)" fill="#6b3d9e"/>
    <path id="Path_4252" data-name="Path 4252" d="M580.721,98.146l1.064.782q-.1.092-.2.18l-1.107.02,0,0q.011-.375.021-.75.106-.122.221-.236" transform="translate(-299.969 -50.718)" fill="#f32c43"/>
    <path id="Path_4253" data-name="Path 4253" d="M611.206,127.823c.328,0,.6.082.662.468a3.911,3.911,0,0,1-.662-.468" transform="translate(-315.849 -66.054)" fill="#108cc3"/>
    <path id="Path_4254" data-name="Path 4254" d="M606.67,119.541l.368.358-.11.091c-.117-.113-.235-.224-.354-.335Z" transform="translate(-313.455 -61.774)" fill="#f32c43"/>
    <path id="Path_4255" data-name="Path 4255" d="M607.747,120.42l-.353.256a.5.5,0,0,1-.091-.3l.112-.092.333.138" transform="translate(-313.831 -62.157)" fill="#f32c43"/>
    <path id="Path_4256" data-name="Path 4256" d="M609.868,126.72l-.454-.277q.084-.085.17-.168l.381.334-.1.111" transform="translate(-314.922 -65.254)" fill="#6b3d9e"/>
    <path id="Path_4257" data-name="Path 4257" d="M612.524,128.74l.412.336-.412-.336" transform="translate(-316.53 -66.528)" fill="#6b3d9e"/>
    <path id="Path_4258" data-name="Path 4258" d="M613.35,129.413l.4.312-.4-.312" transform="translate(-316.956 -66.876)" fill="#6b3d9e"/>
    <path id="Path_4259" data-name="Path 4259" d="M610.8,127.025c-.009.119-.019.239-.029.358l-.417-.3.1-.11a1.139,1.139,0,0,1,.35.057" transform="translate(-315.409 -65.612)" fill="#108cc3"/>
    <path id="Path_4260" data-name="Path 4260" d="M596,114.813c-2.842-1.335-5.138-3.5-7.768-5.158a19.909,19.909,0,0,1-2.226-1.424c.06-.053.586-.646.643-.7.339.028.35.387.69.414l-.013-.009a2.833,2.833,0,0,0,2.141,1.486l.007-.016.361.431c1.269.613,2.1,1.98,3.648,2.114l-.039-.033c.384,1.407,2.04,1.6,2.658,2.787Z" transform="translate(-302.826 -55.567)" fill="#108cc3"/>
    <path id="Path_4261" data-name="Path 4261" d="M608.907,124.652a1.139,1.139,0,0,0-.35-.057l-.381-.335c-.687-.7-.52-1.067-1.191-1.187a1.086,1.086,0,0,1-.3-.588l.1-.109.655.271,1.812,1.754-.352.252" transform="translate(-313.514 -63.239)" fill="#108cc3"/>
    <path id="Path_4262" data-name="Path 4262" d="M580.531,106.067a1.233,1.233,0,0,1,1.13.721c-.555.038-1.094.051-1.13-.721" transform="translate(-299.997 -54.811)" fill="#6b3d9e"/>
    <path id="Path_4263" data-name="Path 4263" d="M577.642,101.462a4.93,4.93,0,0,1,3.2,1.9,4.31,4.31,0,0,1-3.2-1.9" transform="translate(-298.504 -52.432)" fill="#47bd4c"/>
    <path id="Path_4264" data-name="Path 4264" d="M574.518,99.385c.707.036,1.325.208,1.525,1.009-.742.016-1.382-.121-1.525-1.009" transform="translate(-296.89 -51.358)" fill="#47bd4c"/>
    <path id="Path_4265" data-name="Path 4265" d="M587.945,107.8c-.34-.028-.314-.13-.648-.331-.333-.261-.49-.2-.55-.422a1.063,1.063,0,0,1,1.2.753" transform="translate(-303.209 -55.315)" fill="#47bd4c"/>
    <path id="Path_4266" data-name="Path 4266" d="M584.241,105.375a.823.823,0,0,1,.928.676c-.506.045-.915-.045-.928-.676" transform="translate(-301.914 -54.451)" fill="#47bd4c"/>
    <path id="Path_4267" data-name="Path 4267" d="M573.042,98.569c.36-.1.623-.013.723.381-.368.114-.641.048-.723-.381" transform="translate(-296.127 -50.917)" fill="#47bd4c"/>
    <path id="Path_4268" data-name="Path 4268" d="M579.295,98.633q-.01.375-.021.75c-.414-.279-.7-.416-1.129-.73.371-.01.779-.009,1.151-.019" transform="translate(-298.763 -50.97)" fill="#f32c43"/>
    <path id="Path_4269" data-name="Path 4269" d="M577.04,97.918a5.244,5.244,0,0,0-1.089-.72c.574-.077,1.106-.094,1.089.72" transform="translate(-297.63 -50.21)" fill="#f32c43"/>
    <path id="Path_4270" data-name="Path 4270" d="M590.879,109.837a2.835,2.835,0,0,1-2.141-1.486l.75-.009-.019-.007a1.105,1.105,0,0,0,1.1.741l-.017-.013.328.774" transform="translate(-304.238 -55.983)" fill="#fadd2f"/>
    <path id="Path_4271" data-name="Path 4271" d="M580.477,100.155l1.106-.02c-.009.259-.019.519-.028.778a9.214,9.214,0,0,0-1.078-.758" transform="translate(-299.969 -51.746)" fill="#f32c43"/>
    <path id="Path_4272" data-name="Path 4272" d="M592.819,110.616l-.328-.774a10.96,10.96,0,0,1,4.344,3.3c-1.547-.134-2.379-1.5-3.648-2.115a.338.338,0,0,0-.362-.43Z" transform="translate(-306.177 -56.762)" fill="#fadd2f"/>
    <path id="Path_4273" data-name="Path 4273" d="M604.714,119.666l-.656-.271c-.618-1.183-2.274-1.381-2.658-2.787q1.251.764,2.5,1.529l.352.336a.5.5,0,0,0,.09.3l.371.888" transform="translate(-310.781 -60.259)" fill="#f32c43"/>
    <path id="Path_4274" data-name="Path 4274" d="M591.351,109.069a1.105,1.105,0,0,1-1.1-.741.952.952,0,0,1,1.1.741" transform="translate(-305.02 -55.976)" fill="#fadd2f"/>
    <path id="Path_4275" data-name="Path 4275" d="M593.183,111.41a.338.338,0,0,1,.361.43l-.361-.43" transform="translate(-306.535 -57.573)" fill="#fadd2f"/>
    <path id="Path_4276" data-name="Path 4276" d="M2.386,275.3h.444v5.69H6.336v.4H2.386Z" transform="translate(-1.233 -142.266)" fill="#aa2b32"/>
    <path id="Path_4277" data-name="Path 4277" d="M17.2,278.327h.426v2.28a3.136,3.136,0,0,1-2.175.783,3.09,3.09,0,1,1,.008-6.177,2.981,2.981,0,0,1,2.193.835l-.279.3a2.566,2.566,0,0,0-1.905-.722,2.681,2.681,0,1,0,0,5.36,2.667,2.667,0,0,0,1.731-.557Z" transform="translate(-6.339 -142.22)" fill="#aa2b32"/>
    <path id="Path_4278" data-name="Path 4278" d="M33.157,279.784c0,1.027-.749,1.61-2.245,1.61H28.2V275.3h2.54c1.305,0,2.1.548,2.1,1.557a1.389,1.389,0,0,1-1.018,1.392,1.465,1.465,0,0,1,1.34,1.531m-4.516-4.1v2.427h2.079c1.053,0,1.662-.409,1.662-1.218s-.609-1.21-1.662-1.21Zm4.072,4.063c0-.87-.635-1.253-1.8-1.253H28.642v2.515h2.271c1.167,0,1.8-.383,1.8-1.262" transform="translate(-14.572 -142.266)" fill="#aa2b32"/>
    <path id="Path_4279" data-name="Path 4279" d="M42.432,275.7H40.239v-.4h4.829v.4H42.876v5.69h-.444Z" transform="translate(-20.794 -142.266)" fill="#aa2b32"/>
    <path id="Path_4280" data-name="Path 4280" d="M58.526,281.817a1.789,1.789,0,0,1-1.435.687,2.787,2.787,0,0,1-2.019-1.113,3.133,3.133,0,1,1,.574-.043,2.069,2.069,0,0,0,1.445.783,1.5,1.5,0,0,0,1.2-.583Zm-3.437-.836a2.68,2.68,0,1,0-2.724-2.68,2.641,2.641,0,0,0,2.724,2.68" transform="translate(-26.831 -142.22)" fill="#aa2b32"/>
    <rect id="Rectangle_738" data-name="Rectangle 738" width="2.236" height="0.391" transform="translate(32.91 136.595)" fill="#aa2b32"/>
    <path id="Path_4281" data-name="Path 4281" d="M75.806,278.3a3.168,3.168,0,1,1,3.168,3.089,3.05,3.05,0,0,1-3.168-3.089m5.882,0a2.719,2.719,0,1,0-2.715,2.68,2.631,2.631,0,0,0,2.715-2.68" transform="translate(-39.174 -142.22)" fill="#aa2b32"/>
    <path id="Path_4282" data-name="Path 4282" d="M99.911,275.3l-2.062,6.091h-.47l-1.888-5.464-1.9,5.464h-.47L91.053,275.3h.47l1.853,5.481,1.905-5.481h.426l1.9,5.49,1.871-5.49Z" transform="translate(-47.053 -142.266)" fill="#aa2b32"/>
    <path id="Path_4283" data-name="Path 4283" d="M117.792,275.3v6.091h-.365l-4.151-5.29v5.29h-.444V275.3h.375l4.141,5.29V275.3Z" transform="translate(-58.308 -142.266)" fill="#aa2b32"/>
    <path id="Path_4284" data-name="Path 4284" d="M132.5,280.993v.4h-4.2V275.3h4.072v.4h-3.628v2.4h3.245v.391h-3.245v2.5Z" transform="translate(-66.298 -142.266)" fill="#aa2b32"/>
    <path id="Path_4285" data-name="Path 4285" d="M141.147,275.3h2.41a3.051,3.051,0,1,1,0,6.09h-2.41Zm2.376,5.69a2.651,2.651,0,1,0,0-5.29h-1.932v5.29Z" transform="translate(-72.94 -142.266)" fill="#aa2b32"/>
    <path id="Path_4286" data-name="Path 4286" d="M167.219,279.784c0,1.027-.748,1.61-2.245,1.61H162.26V275.3H164.8c1.3,0,2.1.548,2.1,1.557a1.389,1.389,0,0,1-1.018,1.392,1.465,1.465,0,0,1,1.34,1.531m-4.516-4.1v2.427h2.08c1.053,0,1.662-.409,1.662-1.218s-.609-1.21-1.662-1.21Zm4.072,4.063c0-.87-.635-1.253-1.8-1.253H162.7v2.515h2.271c1.166,0,1.8-.383,1.8-1.262" transform="translate(-83.85 -142.266)" fill="#aa2b32"/>
    <path id="Path_4287" data-name="Path 4287" d="M176.5,278.809V275.3h.444v3.489c0,1.523.731,2.236,2,2.236s1.993-.714,1.993-2.236V275.3h.444v3.506c0,1.741-.931,2.627-2.445,2.627s-2.436-.887-2.436-2.627" transform="translate(-91.208 -142.266)" fill="#aa2b32"/>
    <path id="Path_4288" data-name="Path 4288" d="M190.412,280.564l.2-.331a2.9,2.9,0,0,0,2.01.765c1.218,0,1.758-.53,1.758-1.191,0-1.828-3.8-.731-3.8-2.976,0-.861.662-1.618,2.158-1.618a3.262,3.262,0,0,1,1.835.548l-.165.357a3.014,3.014,0,0,0-1.671-.514c-1.184,0-1.714.548-1.714,1.218,0,1.827,3.8.749,3.8,2.958,0,.862-.688,1.61-2.192,1.61a3.123,3.123,0,0,1-2.219-.826" transform="translate(-98.398 -142.22)" fill="#aa2b32"/>
    <rect id="Rectangle_739" data-name="Rectangle 739" width="0.444" height="6.091" transform="translate(98.321 133.037)" fill="#aa2b32"/>
    <path id="Path_4289" data-name="Path 4289" d="M214.542,275.3v6.091h-.365l-4.151-5.29v5.29h-.444V275.3h.374l4.142,5.29V275.3Z" transform="translate(-108.305 -142.266)" fill="#aa2b32"/>
    <path id="Path_4290" data-name="Path 4290" d="M229.247,280.993v.4h-4.2V275.3h4.071v.4h-3.628v2.4h3.245v.391h-3.245v2.5Z" transform="translate(-116.295 -142.266)" fill="#aa2b32"/>
    <path id="Path_4291" data-name="Path 4291" d="M236.618,280.564l.2-.331a2.894,2.894,0,0,0,2.01.765c1.218,0,1.758-.53,1.758-1.191,0-1.828-3.8-.731-3.8-2.976,0-.861.662-1.618,2.158-1.618a3.262,3.262,0,0,1,1.835.548l-.165.357a3.014,3.014,0,0,0-1.671-.514c-1.184,0-1.714.548-1.714,1.218,0,1.827,3.8.749,3.8,2.958,0,.862-.688,1.61-2.192,1.61a3.123,3.123,0,0,1-2.219-.826" transform="translate(-122.275 -142.22)" fill="#aa2b32"/>
    <path id="Path_4292" data-name="Path 4292" d="M248.391,280.564l.2-.331a2.9,2.9,0,0,0,2.01.765c1.218,0,1.758-.53,1.758-1.191,0-1.828-3.8-.731-3.8-2.976,0-.861.661-1.618,2.158-1.618a3.264,3.264,0,0,1,1.836.548l-.165.357a3.011,3.011,0,0,0-1.671-.514c-1.183,0-1.714.548-1.714,1.218,0,1.827,3.8.749,3.8,2.958,0,.862-.687,1.61-2.192,1.61a3.123,3.123,0,0,1-2.219-.826" transform="translate(-128.359 -142.22)" fill="#aa2b32"/>
    <path id="Path_4293" data-name="Path 4293" d="M265.643,280.993v.4h-4.2V275.3h4.072v.4h-3.628v2.4h3.245v.391h-3.245v2.5Z" transform="translate(-135.103 -142.266)" fill="#aa2b32"/>
    <path id="Path_4294" data-name="Path 4294" d="M273.014,280.564l.2-.331a2.9,2.9,0,0,0,2.01.765c1.218,0,1.758-.53,1.758-1.191,0-1.828-3.8-.731-3.8-2.976,0-.861.662-1.618,2.158-1.618a3.262,3.262,0,0,1,1.835.548l-.165.357a3.014,3.014,0,0,0-1.671-.514c-1.184,0-1.714.548-1.714,1.218,0,1.827,3.8.749,3.8,2.958,0,.862-.688,1.61-2.192,1.61a3.123,3.123,0,0,1-2.219-.826" transform="translate(-141.083 -142.22)" fill="#aa2b32"/>
    <rect id="Rectangle_740" data-name="Rectangle 740" width="0.444" height="6.091" transform="translate(140.864 133.037)" fill="#aa2b32"/>
    <path id="Path_4295" data-name="Path 4295" d="M302.579,275.3v6.091h-.365l-4.151-5.29v5.29h-.444V275.3h.375l4.141,5.29V275.3Z" transform="translate(-153.799 -142.266)" fill="#aa2b32"/>
    <path id="Path_4296" data-name="Path 4296" d="M318.586,275.7h-2.192v-.4h4.829v.4H319.03v5.69h-.444Z" transform="translate(-163.5 -142.266)" fill="#aa2b32"/>
    <path id="Path_4297" data-name="Path 4297" d="M334.421,275.3v6.091h-.444v-2.9H329.9v2.9h-.444V275.3h.444v2.8h4.072v-2.8Z" transform="translate(-170.253 -142.266)" fill="#aa2b32"/>
    <path id="Path_4298" data-name="Path 4298" d="M349.126,280.993v.4h-4.2V275.3h4.072v.4h-3.628v2.4h3.245v.391h-3.245v2.5Z" transform="translate(-178.243 -142.266)" fill="#aa2b32"/>
    <path id="Path_4299" data-name="Path 4299" d="M368.171,279.784c0,1.027-.749,1.61-2.245,1.61h-2.715V275.3h2.541c1.305,0,2.1.548,2.1,1.557a1.389,1.389,0,0,1-1.018,1.392,1.465,1.465,0,0,1,1.34,1.531m-4.516-4.1v2.427h2.079c1.053,0,1.662-.409,1.662-1.218s-.609-1.21-1.662-1.21Zm4.072,4.063c0-.87-.634-1.253-1.8-1.253h-2.271v2.515h2.271c1.167,0,1.8-.383,1.8-1.262" transform="translate(-187.694 -142.266)" fill="#aa2b32"/>
    <path id="Path_4300" data-name="Path 4300" d="M380.238,279.679h-3.533l-.774,1.714h-.479l2.8-6.09h.444l2.8,6.09h-.478Zm-.165-.374-1.6-3.515-1.592,3.515Z" transform="translate(-194.02 -142.266)" fill="#aa2b32"/>
    <path id="Path_4301" data-name="Path 4301" d="M391.111,279.3v2.1h-.444v-2.1l-2.454-3.994h.488l2.2,3.585,2.2-3.585h.461Z" transform="translate(-200.614 -142.266)" fill="#aa2b32"/>
    <path id="Path_4302" data-name="Path 4302" d="M410.494,279.679h-3.533l-.774,1.714h-.479l2.8-6.09h.443l2.8,6.09h-.478Zm-.165-.374-1.6-3.515-1.592,3.515Z" transform="translate(-209.655 -142.266)" fill="#aa2b32"/>
    <path id="Path_4303" data-name="Path 4303" d="M425.543,281.394l-1.453-2.036a4.379,4.379,0,0,1-.592.043h-1.74v1.992h-.444V275.3H423.5c1.531,0,2.454.765,2.454,2.053a1.869,1.869,0,0,1-1.427,1.905l1.522,2.132Zm-2.045-2.384c1.305,0,2-.609,2-1.653s-.7-1.653-2-1.653h-1.74v3.306Z" transform="translate(-217.719 -142.266)" fill="#aa2b32"/>
    <path id="Path_4304" data-name="Path 4304" d="M439.288,280.993v.4h-4.2V275.3h4.072v.4h-3.628v2.4h3.245v.391h-3.245v2.5Z" transform="translate(-224.836 -142.266)" fill="#aa2b32"/>
    <path id="Path_4305" data-name="Path 4305" d="M450.616,279.679h-3.533l-.774,1.714h-.479l2.8-6.09h.444l2.8,6.09H451.4Zm-.166-.374-1.6-3.515-1.592,3.515Z" transform="translate(-230.388 -142.266)" fill="#aa2b32"/>
    <path id="Path_4306" data-name="Path 4306" d="M469.422,280.947v.4h-4.185v-.313l2.575-2.558c.722-.722.862-1.149.862-1.61,0-.766-.531-1.245-1.54-1.245a2.167,2.167,0,0,0-1.749.705l-.313-.278a2.682,2.682,0,0,1,2.1-.835c1.192,0,1.958.618,1.958,1.609a2.508,2.508,0,0,1-.992,1.888l-2.245,2.236Z" transform="translate(-240.332 -142.22)" fill="#aa2b32"/>
    <path id="Path_4307" data-name="Path 4307" d="M476.538,278.3c0-1.905.983-3.089,2.384-3.089s2.384,1.183,2.384,3.089-.983,3.089-2.384,3.089-2.384-1.183-2.384-3.089m4.324,0c0-1.7-.792-2.68-1.94-2.68s-1.94.983-1.94,2.68.792,2.68,1.94,2.68,1.94-.983,1.94-2.68" transform="translate(-246.257 -142.22)" fill="#aa2b32"/>
    <path id="Path_4308" data-name="Path 4308" d="M492.93,280.947v.4h-4.185v-.313l2.575-2.558c.722-.722.862-1.149.862-1.61,0-.766-.531-1.245-1.54-1.245a2.167,2.167,0,0,0-1.749.705l-.313-.278a2.682,2.682,0,0,1,2.1-.835c1.192,0,1.958.618,1.958,1.609a2.508,2.508,0,0,1-.992,1.888l-2.245,2.236Z" transform="translate(-252.48 -142.22)" fill="#aa2b32"/>
    <path id="Path_4309" data-name="Path 4309" d="M500.045,278.3c0-1.905.983-3.089,2.384-3.089s2.384,1.183,2.384,3.089-.983,3.089-2.384,3.089-2.384-1.183-2.384-3.089m4.324,0c0-1.7-.792-2.68-1.941-2.68s-1.94.983-1.94,2.68.792,2.68,1.94,2.68,1.941-.983,1.941-2.68" transform="translate(-258.405 -142.22)" fill="#aa2b32"/>
    <rect id="Rectangle_741" data-name="Rectangle 741" width="74.938" height="9.427" transform="translate(193.784 66.478)" fill="#aa2b32"/>
    <path id="Path_4310" data-name="Path 4310" d="M406.164,145.279v.287c0,.557.2.851.6.851s.6-.255.6-.982a1.392,1.392,0,0,0-.681-1.331,1.532,1.532,0,0,1-.82-1.431c0-.634.193-1.222.92-1.214.642,0,.881.4.881,1.122v.217h-.378v-.209c0-.473-.1-.8-.511-.8-.426,0-.533.372-.533.821a1.141,1.141,0,0,0,.6,1.122,1.709,1.709,0,0,1,.9,1.655c0,.727-.17,1.361-.982,1.361-.742,0-.982-.5-.982-1.183v-.287Z" transform="translate(-209.695 -73.1)" fill="#fff"/>
    <path id="Path_4311" data-name="Path 4311" d="M411.609,144.92l-.293,1.833h-.38l.859-5.167h.549l.9,5.167h-.4l-.309-1.833Zm.866-.348c-.224-1.315-.363-2.228-.41-2.653h-.015c-.015.379-.224,1.586-.387,2.653Z" transform="translate(-212.356 -73.166)" fill="#fff"/>
    <path id="Path_4312" data-name="Path 4312" d="M417,146.753v-5.166h.472l1.013,3.534a8.221,8.221,0,0,1,.209.92h.015c-.023-.734-.039-1.461-.039-2.3v-2.157h.372v5.166h-.457l-1.129-4.022a4.884,4.884,0,0,1-.131-.588h-.008c.031.62.055,1.532.055,2.467v2.143Z" transform="translate(-215.491 -73.167)" fill="#fff"/>
    <path id="Path_4313" data-name="Path 4313" d="M425.737,141.586h1.656v.348h-1.276v1.911h1.191v.348h-1.191v2.56h-.379Z" transform="translate(-220.005 -73.166)" fill="#fff"/>
    <path id="Path_4314" data-name="Path 4314" d="M430.443,141.586h.765c.773,0,1.1.348,1.1,1.153V143c0,.634-.193.982-.526,1.091.34.108.48.379.48,1.06a12.9,12.9,0,0,0,.054,1.6h-.372a13.074,13.074,0,0,1-.054-1.562c0-.7-.108-.921-.649-.921h-.418v2.483h-.378Zm.378,2.351h.449c.541,0,.649-.372.649-.921v-.263c0-.526-.162-.836-.727-.836h-.372Z" transform="translate(-222.437 -73.166)" fill="#fff"/>
    <path id="Path_4315" data-name="Path 4315" d="M436.185,144.92l-.293,1.833h-.38l.859-5.167h.549l.9,5.167h-.4l-.309-1.833Zm.866-.348c-.224-1.315-.363-2.228-.41-2.653h-.015c-.015.379-.224,1.586-.387,2.653Z" transform="translate(-225.056 -73.166)" fill="#fff"/>
    <path id="Path_4316" data-name="Path 4316" d="M441.578,146.753v-5.166h.472l1.013,3.534a8.216,8.216,0,0,1,.209.92h.015c-.023-.734-.039-1.461-.039-2.3v-2.157h.372v5.166h-.457l-1.129-4.022a4.882,4.882,0,0,1-.131-.588H441.9c.031.62.055,1.532.055,2.467v2.143Z" transform="translate(-228.191 -73.167)" fill="#fff"/>
    <path id="Path_4317" data-name="Path 4317" d="M449.471,145.249v.154c0,.7-.131,1.346-.959,1.346-.85,0-.966-.657-.966-1.392v-2.646c0-.851.347-1.253.966-1.253.8,0,.936.6.936,1.245v.178h-.394V142.7c0-.448-.055-.89-.549-.89-.472,0-.573.387-.573.913v2.645c0,.642.147,1.044.588,1.044.488,0,.558-.433.558-1v-.162Z" transform="translate(-231.275 -73.1)" fill="#fff"/>
    <rect id="Rectangle_742" data-name="Rectangle 742" width="0.379" height="5.167" transform="translate(218.922 68.42)" fill="#fff"/>
    <path id="Path_4318" data-name="Path 4318" d="M455.716,145.279v.287c0,.557.2.851.6.851s.6-.255.6-.982a1.391,1.391,0,0,0-.68-1.331,1.532,1.532,0,0,1-.82-1.431c0-.634.193-1.222.921-1.214.642,0,.882.4.882,1.122v.217h-.379v-.209c0-.473-.1-.8-.511-.8s-.533.372-.533.821a1.142,1.142,0,0,0,.6,1.122,1.71,1.71,0,0,1,.9,1.655c0,.727-.17,1.361-.982,1.361-.743,0-.982-.5-.982-1.183v-.287Z" transform="translate(-235.301 -73.1)" fill="#fff"/>
    <path id="Path_4319" data-name="Path 4319" d="M462.8,145.249v.154c0,.7-.131,1.346-.959,1.346-.851,0-.967-.657-.967-1.392v-2.646c0-.851.348-1.253.967-1.253.8,0,.935.6.935,1.245v.178h-.394V142.7c0-.448-.054-.89-.549-.89-.472,0-.573.387-.573.913v2.645c0,.642.147,1.044.588,1.044.487,0,.557-.433.557-1v-.162Z" transform="translate(-238.162 -73.1)" fill="#fff"/>
    <path id="Path_4320" data-name="Path 4320" d="M468.291,142.719v2.738c0,.851-.34,1.292-1.037,1.292-.773,0-1.005-.526-1.005-1.292v-2.73c0-.8.332-1.269,1.029-1.269.75,0,1.013.564,1.013,1.261m-1.655.008v2.738c0,.688.247.943.634.943.41,0,.634-.255.634-.974v-2.7c0-.642-.232-.928-.642-.928-.425,0-.626.271-.626.921" transform="translate(-240.94 -73.1)" fill="#fff"/>
    <path id="Path_4321" data-name="Path 4321" d="M474.665,141.586h.99c.859,0,1.183.418,1.183,1.153v.209c0,.727-.24.944-.479,1.044.256.085.58.3.58,1.036v.387c0,.881-.34,1.338-1.229,1.338h-1.045Zm.928,2.135c.457,0,.588-.155.588-.7V142.8c0-.441-.155-.634-.565-.634h-.278v1.555Zm-.255,2.46h.294c.5,0,.627-.231.627-.781v-.356c0-.526-.163-.75-.665-.75h-.255Z" transform="translate(-245.289 -73.166)" fill="#fff"/>
    <path id="Path_4322" data-name="Path 4322" d="M481.474,141.586v3.968c0,.394.131.642.472.642s.472-.255.472-.642v-3.968h.688v3.953c0,.8-.363,1.284-1.168,1.284-.781,0-1.16-.426-1.16-1.277v-3.96Z" transform="translate(-248.448 -73.166)" fill="#fff"/>
    <path id="Path_4323" data-name="Path 4323" d="M487.578,145.178v.309c0,.426.139.665.464.665s.448-.286.448-.72c0-.572-.123-.773-.681-1.207a1.62,1.62,0,0,1-.843-1.47c0-.673.2-1.331,1.083-1.331s1.052.611,1.052,1.215v.255h-.688v-.24c0-.387-.07-.634-.371-.634s-.379.263-.379.634c0,.41.077.6.542.936a1.808,1.808,0,0,1,.982,1.74c0,.727-.24,1.408-1.16,1.408-.9,0-1.137-.58-1.137-1.261v-.3Z" transform="translate(-251.606 -73.084)" fill="#fff"/>
    <rect id="Rectangle_743" data-name="Rectangle 743" width="0.696" height="5.167" transform="translate(238.26 68.42)" fill="#fff"/>
    <path id="Path_4324" data-name="Path 4324" d="M496.313,146.753v-5.166h.812l.758,2.861a8.609,8.609,0,0,1,.2.921h.015c-.039-.665-.039-1.392-.039-2.235v-1.546h.642v5.166h-.781l-.851-3.264c-.069-.27-.108-.487-.139-.642h-.007c.031.627.039,1.378.039,2.313v1.593Z" transform="translate(-256.476 -73.167)" fill="#fff"/>
    <path id="Path_4325" data-name="Path 4325" d="M504.905,144.332H503.76v1.787h1.307l-.085.634h-1.918v-5.167h1.9v.642H503.76v1.47h1.145Z" transform="translate(-259.965 -73.166)" fill="#fff"/>
    <path id="Path_4326" data-name="Path 4326" d="M508.84,145.178v.309c0,.426.139.665.464.665.341,0,.449-.286.449-.72,0-.572-.124-.773-.681-1.207a1.619,1.619,0,0,1-.843-1.47c0-.673.2-1.331,1.083-1.331s1.052.611,1.052,1.215v.255h-.688v-.24c0-.387-.07-.634-.372-.634s-.378.263-.378.634c0,.41.077.6.541.936a1.807,1.807,0,0,1,.982,1.74c0,.727-.24,1.408-1.16,1.408s-1.138-.58-1.138-1.261v-.3Z" transform="translate(-262.594 -73.084)" fill="#fff"/>
    <path id="Path_4327" data-name="Path 4327" d="M514.744,145.178v.309c0,.426.139.665.463.665.341,0,.449-.286.449-.72,0-.572-.124-.773-.681-1.207a1.619,1.619,0,0,1-.843-1.47c0-.673.2-1.331,1.083-1.331s1.051.611,1.051,1.215v.255h-.688v-.24c0-.387-.07-.634-.372-.634s-.378.263-.378.634c0,.41.078.6.542.936a1.807,1.807,0,0,1,.982,1.74c0,.727-.24,1.408-1.16,1.408-.905,0-1.138-.58-1.138-1.261v-.3Z" transform="translate(-265.645 -73.084)" fill="#fff"/>
    <path id="Path_4328" data-name="Path 4328" d="M522.731,142.228H521.9v-.642h2.359v.642h-.835v4.525h-.688Z" transform="translate(-269.696 -73.166)" fill="#fff"/>
    <rect id="Rectangle_744" data-name="Rectangle 744" width="0.696" height="5.167" transform="translate(255.068 68.42)" fill="#fff"/>
    <path id="Path_4329" data-name="Path 4329" d="M533.686,144.734c0-.913.016-1.973.031-2.545h-.008c-.124.882-.456,3.048-.7,4.564h-.658c-.186-1.338-.526-3.635-.642-4.571h-.015c.015.6.039,1.772.039,2.661v1.91h-.634v-5.167h1.029c.24,1.4.5,3.056.572,3.752h.008c.077-.7.409-2.429.649-3.752h1v5.167h-.665Z" transform="translate(-274.45 -73.166)" fill="#fff"/>
    <path id="Path_4330" data-name="Path 4330" d="M541.479,144.332h-1.145v1.787h1.307l-.085.634h-1.918v-5.167h1.9v.642h-1.207v1.47h1.145Z" transform="translate(-278.865 -73.166)" fill="#fff"/>
    <path id="Path_4331" data-name="Path 4331" d="M545.415,145.178v.309c0,.426.139.665.464.665.34,0,.449-.286.449-.72,0-.572-.124-.773-.681-1.207a1.619,1.619,0,0,1-.843-1.47c0-.673.2-1.331,1.083-1.331s1.051.611,1.051,1.215v.255h-.688v-.24c0-.387-.07-.634-.372-.634s-.379.263-.379.634c0,.41.077.6.542.936a1.807,1.807,0,0,1,.982,1.74c0,.727-.24,1.408-1.16,1.408-.905,0-1.137-.58-1.137-1.261v-.3Z" transform="translate(-281.494 -73.084)" fill="#fff"/>
    <path id="Path_4332" data-name="Path 4332" d="M32.244,20.283V18.874l2.457-.539V2.815l-2.457-.539V.868h7.97a8.279,8.279,0,0,1,4.9,1.243,4.087,4.087,0,0,1,1.723,3.52,4.163,4.163,0,0,1-.794,2.562,5.684,5.684,0,0,1-2.472,1.753,6.085,6.085,0,0,1,2.2.989A4.97,4.97,0,0,1,47.239,12.6a4.395,4.395,0,0,1,.524,2.112,5.014,5.014,0,0,1-1.8,4.09,7.646,7.646,0,0,1-5,1.483ZM37.787,9.5h1.378a4.935,4.935,0,0,0,3.3-.974A3.448,3.448,0,0,0,43.6,5.752q0-3-3.805-3-.449,0-1,.045t-1,.1Zm2.247,8.958a4.8,4.8,0,0,0,3.206-.929A3.4,3.4,0,0,0,44.318,14.8a3.052,3.052,0,0,0-1.139-2.652,6.338,6.338,0,0,0-3.655-.824H37.787v6.981a9.453,9.453,0,0,0,.944.1q.613.045,1.3.045" transform="translate(-16.662 -0.449)"/>
    <path id="Path_4333" data-name="Path 4333" d="M66.258,2.785,63.8,2.306V.868h7.94V2.306l-2.4.479v9.168a14.632,14.632,0,0,0,.434,4.06,3.1,3.1,0,0,0,1.513,1.977,6.813,6.813,0,0,0,3.056.554,4.692,4.692,0,0,0,2.741-.689,3.733,3.733,0,0,0,1.378-2.142,14.387,14.387,0,0,0,.4-3.76V2.815l-2.427-.479V.868h7.131V2.336l-2.427.479v9.138a15.791,15.791,0,0,1-.644,4.869,5.129,5.129,0,0,1-2.292,2.936,9.261,9.261,0,0,1-4.674.974,8.855,8.855,0,0,1-4.494-.944A4.882,4.882,0,0,1,66.857,16.9a17.118,17.118,0,0,1-.6-4.944Z" transform="translate(-32.97 -0.449)"/>
    <path id="Path_4334" data-name="Path 4334" d="M110.434,20.194a12.243,12.243,0,0,1-2.547-.255,12.871,12.871,0,0,1-2.1-.614,4.84,4.84,0,0,1-1.318-.719V14.022h1.768l.509,3.026a5.318,5.318,0,0,0,1.633.854,5.867,5.867,0,0,0,1.9.345,4.89,4.89,0,0,0,3.071-.749,2.963,2.963,0,0,0,.914-2.427,2.644,2.644,0,0,0-.464-1.633,3.974,3.974,0,0,0-1.348-1.079,22.687,22.687,0,0,0-2.172-.974q-.989-.36-2.022-.794a9.54,9.54,0,0,1-1.888-1.049,4.511,4.511,0,0,1-1.363-1.573,5.068,5.068,0,0,1-.509-2.4,5.309,5.309,0,0,1,.794-2.921A5.338,5.338,0,0,1,107.573.7a8.141,8.141,0,0,1,3.52-.7,18.892,18.892,0,0,1,2.112.12q1.063.12,1.917.3a8.971,8.971,0,0,1,1.243.33V5.573h-1.648l-.569-2.906a8.089,8.089,0,0,0-.989-.375,6.6,6.6,0,0,0-2.1-.285,5.559,5.559,0,0,0-2.187.345,2.061,2.061,0,0,0-1.079.959,3.205,3.205,0,0,0-.3,1.423,2.412,2.412,0,0,0,.629,1.738,4.885,4.885,0,0,0,1.648,1.094q1.018.434,2.127.854a20.074,20.074,0,0,1,2.592,1.228,5.959,5.959,0,0,1,1.962,1.753,4.827,4.827,0,0,1,.749,2.831,6.018,6.018,0,0,1-.6,2.8,5.022,5.022,0,0,1-1.588,1.843,6.8,6.8,0,0,1-2.2,1,9.467,9.467,0,0,1-2.382.315" transform="translate(-53.987 0)"/>
    <path id="Path_4335" data-name="Path 4335" d="M131.69,18.845l2.427-.479V2.786l-2.427-.479V.868h7.97V2.306l-2.427.479v15.58l2.427.479v1.438h-7.97Z" transform="translate(-68.052 -0.449)"/>
    <path id="Path_4336" data-name="Path 4336" d="M149.359,20.283V18.9l2.187-.509V2.756L149.6,2.336V.868h5.093l8.958,14.2.3.539h.24V2.756l-2.157-.479V.868h6.5V2.276l-2.187.479V20.283h-3.026L154.213,5.991l-.3-.539h-.21V18.4l2.187.509v1.378Z" transform="translate(-77.183 -0.449)"/>
    <path id="Path_4337" data-name="Path 4337" d="M189.411,18.874l2.457-.539V2.815l-2.457-.539V.868h14.082V5.991h-1.648l-.659-3.3h-3.775l-2.457.21V9.5h4.224l.509-1.858h1.348v5.573h-1.348l-.509-1.917h-4.224v6.891q.509.09,1.243.15t1.423.06h3.8l.719-3.326h1.618v5.213H189.411Z" transform="translate(-97.881 -0.449)"/>
    <path id="Path_4338" data-name="Path 4338" d="M226.125,20.194a12.243,12.243,0,0,1-2.547-.255,12.871,12.871,0,0,1-2.1-.614,4.84,4.84,0,0,1-1.318-.719V14.022h1.768l.509,3.026a5.319,5.319,0,0,0,1.633.854,5.867,5.867,0,0,0,1.9.345,4.89,4.89,0,0,0,3.071-.749,2.963,2.963,0,0,0,.914-2.427,2.644,2.644,0,0,0-.464-1.633,3.974,3.974,0,0,0-1.348-1.079,22.687,22.687,0,0,0-2.172-.974q-.989-.36-2.022-.794a9.54,9.54,0,0,1-1.888-1.049A4.511,4.511,0,0,1,220.7,7.97a5.068,5.068,0,0,1-.509-2.4,5.309,5.309,0,0,1,.794-2.921A5.339,5.339,0,0,1,223.264.7a8.141,8.141,0,0,1,3.52-.7A18.893,18.893,0,0,1,228.9.12q1.063.12,1.917.3a8.972,8.972,0,0,1,1.243.33V5.573H230.41l-.569-2.906a8.088,8.088,0,0,0-.989-.375,6.6,6.6,0,0,0-2.1-.285,5.559,5.559,0,0,0-2.187.345,2.061,2.061,0,0,0-1.079.959,3.205,3.205,0,0,0-.3,1.423,2.412,2.412,0,0,0,.629,1.738,4.885,4.885,0,0,0,1.648,1.094q1.018.434,2.127.854a20.074,20.074,0,0,1,2.592,1.228,5.959,5.959,0,0,1,1.962,1.753,4.827,4.827,0,0,1,.749,2.831,6.019,6.019,0,0,1-.6,2.8,5.022,5.022,0,0,1-1.588,1.843,6.8,6.8,0,0,1-2.2,1,9.467,9.467,0,0,1-2.382.315" transform="translate(-113.772 0)"/>
    <path id="Path_4339" data-name="Path 4339" d="M253.343,20.194a12.243,12.243,0,0,1-2.547-.255,12.872,12.872,0,0,1-2.1-.614,4.84,4.84,0,0,1-1.318-.719V14.022h1.768l.509,3.026a5.318,5.318,0,0,0,1.633.854,5.867,5.867,0,0,0,1.9.345,4.89,4.89,0,0,0,3.071-.749,2.963,2.963,0,0,0,.914-2.427,2.643,2.643,0,0,0-.464-1.633,3.974,3.974,0,0,0-1.348-1.079,22.687,22.687,0,0,0-2.172-.974q-.989-.36-2.022-.794a9.54,9.54,0,0,1-1.888-1.049A4.511,4.511,0,0,1,247.92,7.97a5.068,5.068,0,0,1-.509-2.4,5.309,5.309,0,0,1,.794-2.921A5.338,5.338,0,0,1,250.482.7,8.141,8.141,0,0,1,254,0a18.893,18.893,0,0,1,2.112.12q1.063.12,1.917.3a8.971,8.971,0,0,1,1.243.33V5.573h-1.648l-.569-2.906a8.089,8.089,0,0,0-.989-.375,6.6,6.6,0,0,0-2.1-.285,5.559,5.559,0,0,0-2.187.345,2.061,2.061,0,0,0-1.079.959,3.205,3.205,0,0,0-.3,1.423,2.412,2.412,0,0,0,.629,1.738,4.885,4.885,0,0,0,1.648,1.094q1.018.434,2.127.854A20.071,20.071,0,0,1,257.4,9.647a5.959,5.959,0,0,1,1.962,1.753,4.827,4.827,0,0,1,.749,2.831,6.018,6.018,0,0,1-.6,2.8,5.022,5.022,0,0,1-1.588,1.843,6.8,6.8,0,0,1-2.2,1,9.468,9.468,0,0,1-2.382.315" transform="translate(-127.837 0)"/>
    <path id="Path_4340" data-name="Path 4340" d="M33.674,87.8V85.645l3.764-.826V61.039l-3.764-.826V58.055h11.89a21.128,21.128,0,0,1,5.991.757A7.859,7.859,0,0,1,55.5,61.269a7.079,7.079,0,0,1,1.4,4.637,10.2,10.2,0,0,1-1.4,5.532,8.613,8.613,0,0,1-3.856,3.329,13.732,13.732,0,0,1-5.67,1.1c-.275,0-.544-.007-.8-.023s-.528-.038-.8-.069l-.23-1.928a9.476,9.476,0,0,0,5.738-1.653q1.973-1.56,1.974-5.325,0-3.121-1.7-4.522a7.155,7.155,0,0,0-4.683-1.4q-1.285,0-3.305.184v23.6l4.683.826V87.8Z" transform="translate(-17.401 -30.001)"/>
    <path id="Path_4341" data-name="Path 4341" d="M82.6,87.8V85.644l3.764-.826V61.038L82.6,60.212V58.054H95.59a15.824,15.824,0,0,1,5.142.757,6.964,6.964,0,0,1,3.443,2.434,7.358,7.358,0,0,1,1.24,4.476,8.834,8.834,0,0,1-.941,4.315,8.135,8.135,0,0,1-2.387,2.732,14.98,14.98,0,0,1-3.007,1.675l6.2,10.375,3.214.826V87.8h-5.417a3.238,3.238,0,0,1-1.469-.344,2.578,2.578,0,0,1-1.1-1.079l-6.06-10.972H91.091v9.411l3.764.826V87.8Zm8.493-15.241h2.433a7.093,7.093,0,0,0,4.935-1.675,5.842,5.842,0,0,0,1.859-4.568,6.854,6.854,0,0,0-.482-2.777,3.715,3.715,0,0,0-1.309-1.63,5.137,5.137,0,0,0-1.9-.757,11.788,11.788,0,0,0-2.227-.207q-.781,0-1.7.046t-1.607.138Z" transform="translate(-42.684 -30)"/>
    <path id="Path_4342" data-name="Path 4342" d="M136.178,96.08l3.719-.735V81.274l-3.719-.735v-2.2h12.211v2.2l-3.719.735V95.345l3.719.735v2.2H136.178Z" transform="translate(-70.372 -40.481)"/>
    <path id="Path_4343" data-name="Path 4343" d="M165.818,87.8V85.645l3.764-.827V61.038l-3.764-.826V58.054h13.818q6.931,0,10.673,3.627t3.742,10.605a17.772,17.772,0,0,1-1.836,8.447,12.385,12.385,0,0,1-5.3,5.257A18.2,18.2,0,0,1,178.4,87.8ZM177.8,85.094a16.664,16.664,0,0,0,5.027-.665,6.869,6.869,0,0,0,3.329-2.181,9.656,9.656,0,0,0,1.813-3.994,27.086,27.086,0,0,0,.574-6.013,18.378,18.378,0,0,0-.665-5.3,8.106,8.106,0,0,0-2-3.488,7.887,7.887,0,0,0-3.283-1.905,15.339,15.339,0,0,0-4.476-.6q-1.1,0-2.043.069t-1.767.16v23.6a10.754,10.754,0,0,0,1.538.23q.987.092,1.951.091" transform="translate(-85.689 -30)"/>
    <path id="Path_4344" data-name="Path 4344" d="M227.661,85.645l3.764-.826V61.039l-3.764-.826V58.055h21.577v7.85h-2.525l-1.01-5.05h-5.784l-3.764.321v10.1h6.473l.78-2.846h2.066v8.539h-2.066l-.78-2.938h-6.473V84.59q.78.138,1.905.23t2.18.092h5.831l1.1-5.1h2.479V87.8h-21.99Z" transform="translate(-117.647 -30.001)"/>
    <path id="Path_4345" data-name="Path 4345" d="M148.455,60.145a5.158,5.158,0,1,1-5.158-5.158,5.158,5.158,0,0,1,5.158,5.158" transform="translate(-71.386 -28.415)"/>
    <path id="Path_4346" data-name="Path 4346" d="M146.053,62.028v2.334c0,.9-.377,1.326-1.152,1.326s-1.1-.456-1.1-1.319V62.021c0-.884.428-1.3,1.139-1.3s1.109.449,1.109,1.312m-1.58-.058v2.472c0,.464.167.659.456.659.312,0,.464-.188.464-.674V61.97c0-.442-.145-.667-.464-.667s-.456.21-.456.667" transform="translate(-74.313 -31.376)" fill="#fff"/>
    <path id="Path_4347" data-name="Path 4347" d="M149.956,60.851h1.8v.6h-1.152v1.4H151.7v.6h-1.087v2.24h-.652Z" transform="translate(-77.492 -31.446)" fill="#fff"/>
  </g>
</svg>
