<svg id="Group_574" data-name="Group 574" xmlns="http://www.w3.org/2000/svg" xmlns:xlink="http://www.w3.org/1999/xlink" width="207.801" height="217.8" viewBox="0 0 207.801 217.8">
  <defs>
    <linearGradient id="linear-gradient" x1="0.473" y1="-0.076" x2="0.474" y2="1.126" gradientUnits="objectBoundingBox">
      <stop offset="0" stop-color="#c4a230"/>
      <stop offset="0.217" stop-color="#d3b85c"/>
      <stop offset="0.399" stop-color="#e4d290"/>
      <stop offset="0.521" stop-color="#c4a230"/>
      <stop offset="0.665" stop-color="#e0cd86"/>
      <stop offset="0.808" stop-color="#cdb04d"/>
      <stop offset="1" stop-color="#c4a230"/>
    </linearGradient>
    <linearGradient id="linear-gradient-2" x1="0.438" y1="0.018" x2="0.491" y2="0.92" gradientUnits="objectBoundingBox">
      <stop offset="0" stop-color="#c4a230"/>
      <stop offset="0.142" stop-color="#e5d493"/>
      <stop offset="0.351" stop-color="#c4a230"/>
      <stop offset="0.676" stop-color="#c4a230"/>
      <stop offset="0.797" stop-color="#e5d493"/>
      <stop offset="1" stop-color="#c4a230"/>
    </linearGradient>
    <linearGradient id="linear-gradient-3" x1="0.442" y1="0.006" x2="0.551" y2="1.013" gradientUnits="objectBoundingBox">
      <stop offset="0" stop-color="#c3a225"/>
      <stop offset="0.099" stop-color="#c4a231"/>
      <stop offset="0.261" stop-color="#cbad46"/>
      <stop offset="0.424" stop-color="#d5bd65"/>
      <stop offset="0.517" stop-color="#e0cd86"/>
      <stop offset="0.724" stop-color="#e5d493"/>
      <stop offset="1" stop-color="#c4a230"/>
    </linearGradient>
    <clipPath id="clip-path">
      <rect id="Rectangle_680" data-name="Rectangle 680" width="207.801" height="217.8" fill="none"/>
    </clipPath>
    <clipPath id="clip-path-2">
      <path id="Path_3983" data-name="Path 3983" d="M94.633,19.54,76.187,34.884l6.033,7.154,11.464-10.6V80.568h10.345V19.54ZM123.68,69.449a15.145,15.145,0,0,1-3.534-5.689,30.112,30.112,0,0,1-1.594-7.112,65.031,65.031,0,0,1-.388-6.594,65.017,65.017,0,0,1,.388-6.594,30.128,30.128,0,0,1,1.594-7.113,15.148,15.148,0,0,1,3.534-5.688,9.439,9.439,0,0,1,12.412,0,15.158,15.158,0,0,1,3.534,5.688,30.251,30.251,0,0,1,1.6,7.113,64.994,64.994,0,0,1,.387,6.594,65.008,65.008,0,0,1-.387,6.594,30.235,30.235,0,0,1-1.6,7.112,15.155,15.155,0,0,1-3.534,5.689,9.439,9.439,0,0,1-12.412,0m2.2-50.6a18.852,18.852,0,0,0-4.74,1.422,18.459,18.459,0,0,0-4.827,3.19,20.5,20.5,0,0,0-4.266,5.6,33.741,33.741,0,0,0-3.06,8.621,56.751,56.751,0,0,0-1.164,12.369,56.745,56.745,0,0,0,1.164,12.369,33.73,33.73,0,0,0,3.06,8.621,20.483,20.483,0,0,0,4.266,5.6,18.376,18.376,0,0,0,4.827,3.19,18.852,18.852,0,0,0,4.74,1.422,23.475,23.475,0,0,0,8.017,0,18.882,18.882,0,0,0,4.74-1.422,18.4,18.4,0,0,0,4.827-3.19,20.535,20.535,0,0,0,4.268-5.6,33.856,33.856,0,0,0,3.06-8.621,56.75,56.75,0,0,0,1.163-12.369,56.755,56.755,0,0,0-1.163-12.369,33.867,33.867,0,0,0-3.06-8.621,20.547,20.547,0,0,0-4.268-5.6,18.485,18.485,0,0,0-4.827-3.19,18.882,18.882,0,0,0-4.74-1.422,23.475,23.475,0,0,0-8.017,0" transform="translate(-76.187 -18.506)" fill="url(#linear-gradient)"/>
    </clipPath>
    <clipPath id="clip-path-4">
      <path id="Path_3988" data-name="Path 3988" d="M87.473,113.4h4.173a7.81,7.81,0,0,1,3.913.759,2.88,2.88,0,0,1,1.258,2.689,3.178,3.178,0,0,1-.516,1.914,3.446,3.446,0,0,1-1.311,1.087,5.375,5.375,0,0,1-1.741.483,16.641,16.641,0,0,1-1.776.1h-4Zm0-9.93h3.585a6.472,6.472,0,0,1,3.6.776,2.932,2.932,0,0,1,.034,4.586,5.253,5.253,0,0,1-3.257.845H87.473Zm-4.344-3.725v24.412h8.792a16.716,16.716,0,0,0,3.4-.346,8.914,8.914,0,0,0,2.965-1.154,6.293,6.293,0,0,0,2.086-2.138,6.4,6.4,0,0,0,.793-3.328,5.962,5.962,0,0,0-.4-2.189,5.887,5.887,0,0,0-1.086-1.793,5.61,5.61,0,0,0-1.671-1.275,6.343,6.343,0,0,0-2.12-.639v-.068a6.524,6.524,0,0,0,3.068-1.931,5.01,5.01,0,0,0,1.173-3.413,5.526,5.526,0,0,0-2.363-4.741,7.015,7.015,0,0,0-2.4-1.07,11.516,11.516,0,0,0-2.724-.328Zm20.619,0v24.412H120.54v-3.931H108.093v-6.62h11.2v-3.931h-11.2v-6h11.826V99.746Zm34.926,0v3.931h7.483v20.481H150.5V103.677h7.482V99.746Zm-10.757-.172a8.9,8.9,0,0,0-2.879,1.363A7.1,7.1,0,0,0,123,103.228a6.588,6.588,0,0,0-.775,3.276,6.16,6.16,0,0,0,.862,3.464,6.792,6.792,0,0,0,2.137,2.07,11.717,11.717,0,0,0,2.794,1.223q1.517.448,2.792.948a7.66,7.66,0,0,1,2.139,1.224,2.554,2.554,0,0,1,.861,2.069,2.807,2.807,0,0,1-.378,1.465,3.241,3.241,0,0,1-1,1.052,4.74,4.74,0,0,1-1.38.621,5.778,5.778,0,0,1-1.517.207,5.855,5.855,0,0,1-2.74-.672,5.478,5.478,0,0,1-2.086-1.879l-3.276,3.171a8.416,8.416,0,0,0,3.62,2.551,12.809,12.809,0,0,0,4.379.759,11.875,11.875,0,0,0,3.413-.484,8.414,8.414,0,0,0,2.845-1.447,6.993,6.993,0,0,0,1.948-2.431,7.672,7.672,0,0,0,.723-3.432,6.254,6.254,0,0,0-.861-3.482,6.921,6.921,0,0,0-2.139-2.1,11.389,11.389,0,0,0-2.793-1.241q-1.517-.447-2.793-.93a8.5,8.5,0,0,1-2.137-1.139,2.235,2.235,0,0,1-.863-1.9,2.837,2.837,0,0,1,.346-1.431,2.88,2.88,0,0,1,.913-.983,4.01,4.01,0,0,1,1.277-.552,6.2,6.2,0,0,1,1.465-.172,6.442,6.442,0,0,1,2.431.465,4,4,0,0,1,1.845,1.465l3.172-3.344a8.675,8.675,0,0,0-3.257-1.932,12.071,12.071,0,0,0-3.741-.585,12.383,12.383,0,0,0-3.31.447" transform="translate(-83.129 -99.126)" fill="url(#linear-gradient-2)"/>
    </clipPath>
    <clipPath id="clip-path-5">
      <path id="Path_3989" data-name="Path 3989" d="M56.349,98.371a11.8,11.8,0,0,0-4.38,7.6,9.894,9.894,0,0,0,.53,4.552,10.721,10.721,0,0,0,2.838,4.208q.206,1.267.465,2.543.355.305.713.606-.337-1.619-.588-3.225A15.037,15.037,0,0,0,58.59,109.1a8.388,8.388,0,0,0-.129-4.019c-.628-2.34-1.994-4.314-1.774-6.547.011-.111-.034-.25-.151-.25a.31.31,0,0,0-.187.088M45.781,21.726h0m6.948-7.849h0M55.424.164c-.6,1.6-2.122,2.92-3.016,4.6s-1.136,3.665.788,6.387q-.225,1.172-.407,2.338a70.223,70.223,0,0,0-6.613,7.27q.025-1.009.08-2.026A10.533,10.533,0,0,0,48.75,12.4,8.437,8.437,0,0,0,46.9,6.641c-.142-.167-.278.007-.307.135-.411,1.788-1.833,3.432-2.533,5.358s-.656,4.068,1.8,6.626q-.058,1.258-.068,2.5a70.526,70.526,0,0,0-5.791,8.748q-.138-1.045-.245-2.106a11.413,11.413,0,0,0,1.613-7.092A8.923,8.923,0,0,0,38.52,15.06c-.176-.152-.294.055-.3.195-.163,1.955-1.41,3.933-1.843,6.085s-.044,4.4,2.955,6.661q.143,1.315.336,2.6a70.573,70.573,0,0,0-3.686,7.837Q35.516,39.6,35.1,40.78q-.321-1.048-.612-2.118a12.275,12.275,0,0,0,.481-7.711,9.365,9.365,0,0,0-3.925-5.529c-.209-.129-.3.111-.287.259.147,2.084-.835,4.386-.926,6.726s.7,4.624,4.233,6.432q.373,1.329.8,2.622A72,72,0,0,0,31.926,52.9q-.517-1.01-1.007-2.049a13.057,13.057,0,0,0-.885-8.119A9.783,9.783,0,0,0,24.976,37.7c-.24-.1-.292.172-.254.324.514,2.153-.1,4.747.22,7.207s1.567,4.688,5.57,5.886q.621,1.293,1.29,2.537a72.945,72.945,0,0,0-.91,12.417q-.715-.925-1.405-1.887a13.78,13.78,0,0,0-2.432-8.241A10.2,10.2,0,0,0,20.882,51.7c-.266-.053-.271.236-.2.388.927,2.138.767,4.95,1.559,7.444s2.5,4.564,6.876,5.006q.877,1.2,1.794,2.336a71.14,71.14,0,0,0,1.13,11.095q.172.948.369,1.89-.909-.786-1.8-1.617a14.571,14.571,0,0,0-4.137-8.009,10.638,10.638,0,0,0-7.191-3.154c-.285,0-.234.3-.138.445,1.367,2.037,1.744,5,3.058,7.426s3.5,4.21,8.1,3.738q1.13,1.036,2.29,2a70.971,70.971,0,0,0,4.232,12.992q-1.079-.594-2.148-1.237a15.25,15.25,0,0,0-5.924-7.323A11.12,11.12,0,0,0,20.7,83.4c-.293.059-.181.36-.051.489,1.82,1.817,2.827,4.793,4.685,7.009s4.482,3.568,9.1,2.066q1.359.8,2.734,1.515.564,1.25,1.176,2.476A70.44,70.44,0,0,0,44.3,106.8q-1.209-.351-2.421-.755A15.864,15.864,0,0,0,34.228,99.9a11.653,11.653,0,0,0-8.607.032c-.288.126-.106.41.054.514a16.2,16.2,0,0,1,3.106,2.927,25.152,25.152,0,0,0,3.211,3.22,7.425,7.425,0,0,0,4.126,1.694,9.932,9.932,0,0,0,5.645-1.649q1.542.5,3.081.907a69.566,69.566,0,0,0,4.811,5.8,68.811,68.811,0,0,0,5.209,5.069q-1.288-.067-2.59-.189a16.564,16.564,0,0,0-9.192-4.47,12.274,12.274,0,0,0-8.786,2.01c-.266.194-.019.444.169.514a17.05,17.05,0,0,1,3.832,2.279A25.722,25.722,0,0,0,42.3,121.1a7.718,7.718,0,0,0,4.6.763,10.459,10.459,0,0,0,5.384-3.013q1.661.137,3.3.185a68.2,68.2,0,0,0,9.449,6.751q1.607.952,3.264,1.813-1.3.249-2.624.445a17.426,17.426,0,0,0-10.4-2.284,12.983,12.983,0,0,0-8.49,4.14c-.228.263.085.456.293.483a17.967,17.967,0,0,1,4.443,1.408,26.328,26.328,0,0,0,4.691,1.621,8.067,8.067,0,0,0,4.872-.349,11.013,11.013,0,0,0,4.757-4.386q1.693-.271,3.34-.626a67.06,67.06,0,0,0,14.092,5.181.9.9,0,0,0,1.112-.647.918.918,0,0,0-.712-1.066,65.477,65.477,0,0,1-13.794-4.937q-.717-1.527-1.34-3.065a15.921,15.921,0,0,0,1.4-6.284,8.686,8.686,0,0,0-1.052-4.024c-.587-1.107-1.327-2.063-1.963-3.041a7.284,7.284,0,0,1-1.295-3.122c-.018-.163-.167-.353-.378-.08a12.38,12.38,0,0,0-2.729,8.746,10.076,10.076,0,0,0,1.579,4.477,10.877,10.877,0,0,0,3.861,3.551q.5,1.207,1.052,2.408-1.624-.826-3.2-1.743a66.692,66.692,0,0,1-9.3-6.522q.123.587.258,1.176l-.719-.6q-.132-.592-.252-1.185a67.289,67.289,0,0,1-5.141-4.919,68.354,68.354,0,0,1-4.765-5.643q.022-1.613.122-3.194A14.089,14.089,0,0,0,49.652,98.9a8.013,8.013,0,0,0,.7-3.805c-.056-1.177-.308-2.291-.462-3.381A7.1,7.1,0,0,1,50,88.536c.046-.144-.006-.367-.287-.222a11.146,11.146,0,0,0-5.617,6.2,9.975,9.975,0,0,0,1.355,8.944q-.071,1.255-.1,2.531a69.169,69.169,0,0,1-5.924-9.607q-.611-1.2-1.176-2.423.348-1.527.763-3.008c4.247-2.411,5.348-4.763,5.709-7s-.062-4.442.942-6.25c.07-.127.067-.349-.222-.271A10.511,10.511,0,0,0,39,82.111a9.651,9.651,0,0,0-.493,8.666q-.324,1.183-.607,2.395a69.81,69.81,0,0,1-4.268-12.74q.628-1.377,1.309-2.7c4.421-1.4,5.9-3.382,6.654-5.413s.777-4.2,2.047-5.718c.09-.106.126-.317-.158-.3a9.92,9.92,0,0,0-6.892,3.136,9.283,9.283,0,0,0-2.1,8.027q-.539,1.061-1.044,2.157-.2-.926-.379-1.856a70.1,70.1,0,0,1-1.2-10.922q.851-1.182,1.74-2.3c4.376-.456,6.118-2.042,7.187-3.821s1.471-3.837,2.922-5.041c.1-.085.174-.277-.1-.314a9.353,9.353,0,0,0-6.985,1.7,8.9,8.9,0,0,0-3.4,7.139c-.474.6-.937,1.22-1.392,1.849a71.961,71.961,0,0,1,.8-12.261q1.01-.965,2.045-1.869c4.158.36,6.054-.823,7.351-2.307s2.019-3.344,3.576-4.226c.109-.063.209-.232-.037-.313a8.837,8.837,0,0,0-6.8.38A8.431,8.431,0,0,0,34.4,51.536q-.829.734-1.642,1.506a71.257,71.257,0,0,1,2.8-11.33q1.116-.736,2.243-1.413c3.812,1.052,5.774.269,7.227-.905s2.429-2.805,4.024-3.383c.112-.041.232-.185.016-.3a8.362,8.362,0,0,0-6.409-.764A7.953,7.953,0,0,0,37.6,39.895q-.908.552-1.809,1.142.406-1.17.855-2.322a70.1,70.1,0,0,1,3.585-7.789q1.167-.509,2.336-.961c3.379,1.6,5.329,1.185,6.867.311s2.7-2.254,4.278-2.556c.111-.021.245-.137.062-.279a7.924,7.924,0,0,0-5.861-1.7,7.5,7.5,0,0,0-5.472,3.814q-.944.372-1.889.781a70.025,70.025,0,0,1,5.668-8.721q1.174-.3,2.34-.544c2.9,2.007,4.776,1.906,6.339,1.315s2.843-1.718,4.36-1.78c.107,0,.249-.094.1-.253a7.508,7.508,0,0,0-5.221-2.424,7.062,7.062,0,0,0-5.633,2.74q-.947.206-1.9.445a69.694,69.694,0,0,1,6.505-7.273q1.14-.108,2.268-.173c2.414,2.273,4.172,2.441,5.706,2.1s2.878-1.217,4.3-1.076c.1.011.243-.057.124-.224a7.1,7.1,0,0,0-4.536-2.948,6.626,6.626,0,0,0-5.592,1.766q-.92.058-1.846.145,1.832-1.751,3.788-3.363l.674-.548a8.9,8.9,0,0,0,6.26-1.977c1.639-1.457,2.645-3.388,3.8-4.668a.243.243,0,0,0,.042-.273.228.228,0,0,0-.243-.119c-1.67.251-3.881.18-6,1.18a7.892,7.892,0,0,0-4.1,5.522l-.007,0q-.326.257-.649.52l-.062.05q-1.96,1.591-3.806,3.324.161-.944.353-1.895A9.666,9.666,0,0,0,56.71,5.665,7.936,7.936,0,0,0,55.723.081.144.144,0,0,0,55.605,0c-.08,0-.154.089-.181.164m103.6-.083a7.94,7.94,0,0,0-.988,5.584,9.677,9.677,0,0,0,3.138,5.524q.191.949.353,1.895-1.845-1.733-3.806-3.324l-.024-.019q-.346-.281-.7-.557a7.888,7.888,0,0,0-4.1-5.522c-2.119-1-4.329-.928-6-1.18a.228.228,0,0,0-.243.119.244.244,0,0,0,.042.273c1.151,1.28,2.157,3.211,3.8,4.668a8.9,8.9,0,0,0,6.26,1.977l.7.565q1.941,1.6,3.766,3.346-.927-.087-1.846-.145a6.624,6.624,0,0,0-5.592-1.766,7.091,7.091,0,0,0-4.535,2.948c-.12.167.023.235.124.224,1.421-.141,2.771.732,4.3,1.076s3.29.172,5.7-2.1q1.128.065,2.269.173a69.879,69.879,0,0,1,6.506,7.273q-.951-.239-1.9-.445a7.057,7.057,0,0,0-5.633-2.739,7.5,7.5,0,0,0-5.221,2.424c-.151.158-.009.248.1.252,1.517.062,2.8,1.185,4.361,1.78s3.437.692,6.339-1.315q1.167.246,2.34.544a70.026,70.026,0,0,1,5.668,8.721q-.944-.409-1.888-.781a7.5,7.5,0,0,0-5.472-3.814,7.928,7.928,0,0,0-5.861,1.7c-.185.142-.049.258.062.279,1.579.3,2.746,1.68,4.279,2.556s3.488,1.292,6.866-.311q1.169.453,2.336.961a70.117,70.117,0,0,1,3.585,7.79q.448,1.153.855,2.321-.9-.591-1.809-1.141a7.952,7.952,0,0,0-5.061-4.949,8.368,8.368,0,0,0-6.41.764c-.215.116-.1.259.017.3,1.6.578,2.579,2.206,4.024,3.383s3.415,1.958,7.227.905q1.127.676,2.242,1.412a71.278,71.278,0,0,1,2.8,11.33q-.813-.772-1.642-1.5a8.425,8.425,0,0,0-4.372-6.084,8.835,8.835,0,0,0-6.806-.379c-.245.08-.144.249-.035.312,1.557.882,2.285,2.743,3.575,4.227s3.194,2.666,7.352,2.306q1.034.9,2.045,1.869a71.965,71.965,0,0,1,.8,12.261q-.682-.943-1.391-1.849a8.9,8.9,0,0,0-3.4-7.139,9.356,9.356,0,0,0-6.986-1.7c-.269.037-.2.229-.1.314,1.451,1.205,1.86,3.264,2.922,5.041s2.813,3.365,7.186,3.821q.889,1.122,1.74,2.3a70.107,70.107,0,0,1-1.2,10.922q-.176.931-.379,1.857-.5-1.1-1.044-2.157a9.281,9.281,0,0,0-2.1-8.026,9.916,9.916,0,0,0-6.892-3.137c-.285-.016-.249.195-.158.3,1.269,1.515,1.3,3.69,2.047,5.717s2.235,4.018,6.655,5.413q.681,1.321,1.309,2.7a69.864,69.864,0,0,1-4.268,12.739q-.283-1.212-.607-2.395a9.649,9.649,0,0,0-.493-8.666,10.516,10.516,0,0,0-6.451-4.675c-.29-.078-.293.144-.222.271,1,1.808.589,4.023.941,6.25s1.463,4.584,5.71,7q.414,1.481.763,3.009-.564,1.223-1.176,2.423a69.177,69.177,0,0,1-5.924,9.608q-.025-1.276-.1-2.532a9.97,9.97,0,0,0,1.356-8.944,11.144,11.144,0,0,0-5.618-6.2c-.281-.144-.332.078-.286.222a7.1,7.1,0,0,1,.112,3.175c-.154,1.089-.406,2.2-.463,3.381a8.035,8.035,0,0,0,.7,3.805,14.089,14.089,0,0,0,3.635,4.623q.1,1.58.122,3.194a68.506,68.506,0,0,1-4.764,5.643,67.45,67.45,0,0,1-5.142,4.919q.26-1.276.464-2.543a10.716,10.716,0,0,0,2.84-4.208,9.882,9.882,0,0,0,.528-4.552,11.781,11.781,0,0,0-4.38-7.6c-.254-.211-.352,0-.337.162.219,2.233-1.147,4.207-1.775,6.547a8.378,8.378,0,0,0-.129,4.019,15.024,15.024,0,0,0,2.664,5.559q-.25,1.6-.588,3.225a66.762,66.762,0,0,1-9.3,6.522q-1.577.916-3.2,1.743.555-1.2,1.052-2.408a10.87,10.87,0,0,0,3.861-3.551,10.086,10.086,0,0,0,1.579-4.477,12.382,12.382,0,0,0-2.73-8.747c-.21-.273-.358-.083-.377.08a7.3,7.3,0,0,1-1.294,3.122c-.636.978-1.378,1.933-1.964,3.041a8.686,8.686,0,0,0-1.052,4.024,15.95,15.95,0,0,0,1.4,6.284q-.623,1.536-1.34,3.065a65.486,65.486,0,0,1-13.793,4.937.918.918,0,0,0-.713,1.066.9.9,0,0,0,1.112.647,67.044,67.044,0,0,0,14.092-5.181q1.646.356,3.34.626a11.013,11.013,0,0,0,4.757,4.386,8.067,8.067,0,0,0,4.872.349,26.328,26.328,0,0,0,4.691-1.621,17.978,17.978,0,0,1,4.443-1.408c.208-.026.52-.22.293-.483a12.983,12.983,0,0,0-8.49-4.14,17.426,17.426,0,0,0-10.4,2.284q-1.325-.2-2.624-.445,1.656-.861,3.264-1.813a68.2,68.2,0,0,0,9.449-6.751q1.638-.048,3.3-.185a10.452,10.452,0,0,0,5.383,3.013,7.72,7.72,0,0,0,4.6-.763,25.769,25.769,0,0,0,4.007-2.545,17.045,17.045,0,0,1,3.831-2.279c.188-.07.435-.32.169-.513a12.271,12.271,0,0,0-8.786-2.011,16.557,16.557,0,0,0-9.191,4.47q-1.3.122-2.591.19a69.813,69.813,0,0,0,10.02-10.868q1.538-.41,3.081-.907a9.931,9.931,0,0,0,5.645,1.649,7.433,7.433,0,0,0,4.127-1.694,25.14,25.14,0,0,0,3.209-3.22,16.2,16.2,0,0,1,3.107-2.927c.161-.1.342-.387.053-.514a11.655,11.655,0,0,0-8.607-.032,15.871,15.871,0,0,0-7.65,6.148q-1.212.405-2.422.756a70.581,70.581,0,0,0,5.953-9.841q.612-1.226,1.176-2.476,1.373-.718,2.734-1.515c4.62,1.5,7.256.152,9.1-2.066s2.865-5.192,4.685-7.009c.131-.129.242-.43-.051-.489A11.121,11.121,0,0,0,186,85.118a15.243,15.243,0,0,0-5.924,7.324q-1.07.644-2.148,1.236a71.1,71.1,0,0,0,4.233-12.992q1.158-.962,2.289-2c4.6.472,6.792-1.311,8.1-3.738s1.691-5.389,3.058-7.426c.1-.144.147-.446-.138-.445a10.638,10.638,0,0,0-7.191,3.154,14.577,14.577,0,0,0-4.138,8.009q-.888.831-1.8,1.617.2-.942.369-1.89a71.338,71.338,0,0,0,1.13-11.094q.914-1.138,1.793-2.337c4.376-.442,6.092-2.515,6.876-5.006s.633-5.306,1.559-7.444c.066-.153.061-.442-.205-.388a10.2,10.2,0,0,0-6.172,4.243,13.785,13.785,0,0,0-2.432,8.241q-.688.962-1.405,1.887a73.012,73.012,0,0,0-.91-12.416q.667-1.245,1.29-2.537c4-1.2,5.255-3.43,5.569-5.886s-.293-5.054.221-7.207c.038-.153-.016-.42-.254-.324a9.786,9.786,0,0,0-5.058,5.033,13.063,13.063,0,0,0-.886,8.119q-.489,1.039-1.006,2.049a72.014,72.014,0,0,0-2.93-11.441q.422-1.292.8-2.621c3.528-1.808,4.331-4.1,4.233-6.432s-1.072-4.642-.925-6.726c.011-.149-.079-.388-.286-.259a9.358,9.358,0,0,0-3.926,5.528,12.275,12.275,0,0,0,.481,7.711q-.289,1.07-.611,2.117-.421-1.176-.883-2.337a70.775,70.775,0,0,0-3.686-7.836q.192-1.291.336-2.606c3-2.259,3.395-4.513,2.955-6.66s-1.68-4.13-1.843-6.085c-.011-.14-.13-.346-.3-.195a8.916,8.916,0,0,0-2.842,5.753A11.421,11.421,0,0,0,175,27.906q-.1,1.059-.244,2.1a70.536,70.536,0,0,0-5.791-8.749q-.011-1.244-.068-2.5c2.453-2.558,2.5-4.706,1.8-6.626s-2.121-3.57-2.533-5.358c-.028-.128-.164-.3-.306-.135A8.437,8.437,0,0,0,166,12.4a10.528,10.528,0,0,0,2.494,6.341q.057,1.017.08,2.024a70.2,70.2,0,0,0-6.613-7.269q-.182-1.165-.407-2.338c1.924-2.722,1.685-4.711.788-6.387s-2.414-3.005-3.015-4.6c-.029-.076-.1-.164-.181-.164a.144.144,0,0,0-.118.081" transform="translate(-19.065)" fill="url(#linear-gradient-3)"/>
    </clipPath>
  </defs>
  <g id="Group_565" data-name="Group 565">
    <g id="Group_564" data-name="Group 564" clip-path="url(#clip-path)">
      <path id="Path_3909" data-name="Path 3909" d="M3.625,184.769v7.557a4.677,4.677,0,0,0,.075,1.087.7.7,0,0,0,.314.385,1.481,1.481,0,0,0,.763.151h.211v.251H.122v-.251H.368a1.91,1.91,0,0,0,.846-.136.708.708,0,0,0,.341-.375,4.2,4.2,0,0,0,.088-1.112v-4.79a3.019,3.019,0,0,0-.061-.8.582.582,0,0,0-.228-.273.676.676,0,0,0-.385-.112,2.2,2.2,0,0,0-.846.218L0,186.323l3.4-1.554Z" transform="translate(0 -33.086)" fill="#030328"/>
      <path id="Path_3910" data-name="Path 3910" d="M14.636,189.58a8.318,8.318,0,0,1-.389,2.582,3.5,3.5,0,0,1-.623,1.207,3.142,3.142,0,0,1-.889.746,2.287,2.287,0,0,1-2.29-.065,3.2,3.2,0,0,1-.954-.974,4.746,4.746,0,0,1-.525-1.234,7.944,7.944,0,0,1-.293-2.153,8.668,8.668,0,0,1,.423-2.767,3.279,3.279,0,0,1,1.057-1.6,2.316,2.316,0,0,1,3-.007,3.164,3.164,0,0,1,1.025,1.475,8.207,8.207,0,0,1,.457,2.788m-2.1-.014q0-2.426-.027-2.828a2.526,2.526,0,0,0-.328-1.281.656.656,0,0,0-.552-.218.639.639,0,0,0-.463.163,1.43,1.43,0,0,0-.341.841q-.089.6-.089,4.208a16.054,16.054,0,0,0,.136,2.63,1.178,1.178,0,0,0,.293.648.745.745,0,0,0,.5.163.607.607,0,0,0,.511-.218,2.157,2.157,0,0,0,.328-1.18Z" transform="translate(-1.553 -33.086)" fill="#030328"/>
      <path id="Path_3911" data-name="Path 3911" d="M28.441,189.342a4.723,4.723,0,0,1,1.847.743,1.975,1.975,0,0,1,.763,1.608,2.131,2.131,0,0,1-.837,1.724,4.7,4.7,0,0,1-2.992.824H22.526v-.251a2.114,2.114,0,0,0,.869-.12.693.693,0,0,0,.321-.31,2.849,2.849,0,0,0,.091-.94v-6a2.88,2.88,0,0,0-.091-.943.675.675,0,0,0-.324-.31,2.176,2.176,0,0,0-.865-.117V185h4.429a6.307,6.307,0,0,1,2.249.282,2.345,2.345,0,0,1,1.043.846,2.1,2.1,0,0,1,.382,1.2,1.7,1.7,0,0,1-.484,1.19,3.467,3.467,0,0,1-1.7.827m-2.48.347v2.965l-.007.34a.661.661,0,0,0,.743.743,2.128,2.128,0,0,0,1-.242,1.651,1.651,0,0,0,.705-.7,2.139,2.139,0,0,0,.245-1.026,2.267,2.267,0,0,0-.3-1.162,1.612,1.612,0,0,0-.825-.719,4.481,4.481,0,0,0-1.566-.2m0-.531a3.509,3.509,0,0,0,1.427-.218,1.617,1.617,0,0,0,.706-.613,2.208,2.208,0,0,0,0-2.014,1.538,1.538,0,0,0-.691-.6,3.684,3.684,0,0,0-1.445-.2Z" transform="translate(-4.034 -33.128)" fill="#030328"/>
      <path id="Path_3912" data-name="Path 3912" d="M38.051,185.533v3.762h.184a1.458,1.458,0,0,0,1.274-.552,3.384,3.384,0,0,0,.5-1.628h.259v4.838h-.259a3.635,3.635,0,0,0-.344-1.295,1.49,1.49,0,0,0-.61-.678,2.323,2.323,0,0,0-1.009-.174v2.6a3.739,3.739,0,0,0,.065.933.557.557,0,0,0,.242.279,1.141,1.141,0,0,0,.572.108h.552a2.977,2.977,0,0,0,3.2-2.426h.252l-.415,2.937H34.528v-.251h.307a1.278,1.278,0,0,0,.647-.144.613.613,0,0,0,.273-.327,2.772,2.772,0,0,0,.076-.859v-6.079a4.926,4.926,0,0,0-.034-.769.651.651,0,0,0-.253-.369,1.171,1.171,0,0,0-.708-.191h-.307V185h7.735v2.732H42a3.322,3.322,0,0,0-.555-1.437,2.055,2.055,0,0,0-1.012-.641,5.5,5.5,0,0,0-1.431-.122Z" transform="translate(-6.183 -33.128)" fill="#030328"/>
      <path id="Path_3913" data-name="Path 3913" d="M52.921,184.744l.075,3.08h-.279a3.154,3.154,0,0,0-.971-1.864,2.44,2.44,0,0,0-1.673-.705,1.568,1.568,0,0,0-1.1.371,1.133,1.133,0,0,0-.4.855,1.039,1.039,0,0,0,.143.545,2.309,2.309,0,0,0,.634.634,14.123,14.123,0,0,0,1.479.8,6.573,6.573,0,0,1,2.188,1.506,2.546,2.546,0,0,1,.558,1.621,2.622,2.622,0,0,1-.9,1.994,3.247,3.247,0,0,1-2.292.834,3.731,3.731,0,0,1-.824-.088,6.219,6.219,0,0,1-.975-.334,1.47,1.47,0,0,0-.539-.136.663.663,0,0,0-.374.136.953.953,0,0,0-.32.415h-.252v-3.489h.252a4,4,0,0,0,1.154,2.245,2.707,2.707,0,0,0,1.844.773,1.728,1.728,0,0,0,1.217-.416,1.252,1.252,0,0,0,.279-1.6,2.023,2.023,0,0,0-.529-.583,8.066,8.066,0,0,0-1.254-.718,10.742,10.742,0,0,1-1.812-1.057,3.237,3.237,0,0,1-.849-.974,2.413,2.413,0,0,1-.3-1.185,2.508,2.508,0,0,1,.811-1.881,2.835,2.835,0,0,1,2.044-.777,3.49,3.49,0,0,1,.872.109,4.325,4.325,0,0,1,.781.3,1.826,1.826,0,0,0,.644.221.363.363,0,0,0,.279-.108,1.263,1.263,0,0,0,.19-.525Z" transform="translate(-8.432 -33.082)" fill="#030328"/>
      <path id="Path_3914" data-name="Path 3914" d="M65.257,185v2.5h-.245a3.934,3.934,0,0,0-.484-1.245,1.859,1.859,0,0,0-.728-.6,2.326,2.326,0,0,0-.907-.123H62.2v7.128a2.894,2.894,0,0,0,.079.886.7.7,0,0,0,.306.31,1.24,1.24,0,0,0,.624.133h.306v.252H58.681v-.252h.306a1.273,1.273,0,0,0,.648-.144.649.649,0,0,0,.279-.327,2.8,2.8,0,0,0,.076-.859v-7.128h-.668a1.943,1.943,0,0,0-1.356.4,2.615,2.615,0,0,0-.75,1.575h-.259V185Z" transform="translate(-10.199 -33.128)" fill="#030328"/>
      <path id="Path_3915" data-name="Path 3915" d="M76.889,185.533v3.8h.265a2.336,2.336,0,0,0,1-.185,1.569,1.569,0,0,0,.658-.62,2.838,2.838,0,0,0,.35-1.179h.24v4.64h-.24a2.357,2.357,0,0,0-.7-1.734,2.166,2.166,0,0,0-1.305-.419h-.265v2.829a2.908,2.908,0,0,0,.078.886.707.707,0,0,0,.307.31,1.23,1.23,0,0,0,.617.133H78.2v.251H73.366v-.251h.307a1.278,1.278,0,0,0,.647-.144.617.617,0,0,0,.273-.327,2.81,2.81,0,0,0,.075-.859v-6.079a3.039,3.039,0,0,0-.075-.886.683.683,0,0,0-.3-.31,1.236,1.236,0,0,0-.617-.133h-.307V185h7.8v2.65h-.28a2.463,2.463,0,0,0-.486-1.383,2.146,2.146,0,0,0-1.135-.634,7.432,7.432,0,0,0-1.514-.1Z" transform="translate(-13.138 -33.128)" fill="#030328"/>
      <path id="Path_3916" data-name="Path 3916" d="M87.911,185.533v3.762H88.1a1.458,1.458,0,0,0,1.274-.552,3.384,3.384,0,0,0,.5-1.628h.259v4.838h-.259a3.635,3.635,0,0,0-.344-1.295,1.49,1.49,0,0,0-.61-.678,2.323,2.323,0,0,0-1.009-.174v2.6a3.739,3.739,0,0,0,.065.933.557.557,0,0,0,.242.279,1.141,1.141,0,0,0,.572.108h.552a2.977,2.977,0,0,0,3.2-2.426h.252l-.415,2.937H84.388v-.251H84.7a1.278,1.278,0,0,0,.647-.144.613.613,0,0,0,.273-.327,2.772,2.772,0,0,0,.076-.859v-6.079a4.926,4.926,0,0,0-.034-.769.651.651,0,0,0-.253-.369,1.171,1.171,0,0,0-.708-.191h-.307V185h7.735v2.732h-.259a3.322,3.322,0,0,0-.555-1.437,2.055,2.055,0,0,0-1.012-.641,5.5,5.5,0,0,0-1.431-.122Z" transform="translate(-15.111 -33.128)" fill="#030328"/>
      <path id="Path_3917" data-name="Path 3917" d="M102.778,191.093,105.285,185h3.762v.252h-.3a1.278,1.278,0,0,0-.653.144.665.665,0,0,0-.273.319,2.731,2.731,0,0,0-.076.852v6.092a2.983,2.983,0,0,0,.076.886.668.668,0,0,0,.306.31,1.237,1.237,0,0,0,.619.133h.3v.252h-4.825v-.252h.3a1.3,1.3,0,0,0,.654-.143.661.661,0,0,0,.273-.328,2.863,2.863,0,0,0,.075-.859v-6.848l-3.543,8.429h-.164l-3.6-8.368v6.508a5.862,5.862,0,0,0,.034.838.981.981,0,0,0,.384.556,1.613,1.613,0,0,0,.93.214v.252H96.406v-.252h.1a1.455,1.455,0,0,0,.573-.1.918.918,0,0,0,.4-.282,1.313,1.313,0,0,0,.21-.5c.011-.05.014-.282.014-.7v-5.847a3.028,3.028,0,0,0-.074-.875.7.7,0,0,0-.306-.307,1.254,1.254,0,0,0-.621-.133h-.293V185h3.776Z" transform="translate(-17.263 -33.128)" fill="#030328"/>
      <path id="Path_3918" data-name="Path 3918" d="M118.623,191.57h-3.264l-.388.9a1.983,1.983,0,0,0-.19.743.621.621,0,0,0,.312.573,2.7,2.7,0,0,0,.908.163v.251h-3.074v-.251a1.384,1.384,0,0,0,.818-.413,5.474,5.474,0,0,0,.79-1.393l3.3-7.374h.13l3.333,7.578a4.667,4.667,0,0,0,.783,1.356,1.083,1.083,0,0,0,.655.245v.251h-4.47v-.251h.184a1.394,1.394,0,0,0,.755-.151.362.362,0,0,0,.15-.313.867.867,0,0,0-.04-.252q-.015-.062-.2-.511Zm-.231-.5-1.377-3.183-1.418,3.183Z" transform="translate(-20.222 -33.086)" fill="#030328"/>
      <path id="Path_3919" data-name="Path 3919" d="M134.618,191l-.347,3.244h-8.2v-.251h.307a1.278,1.278,0,0,0,.647-.144.615.615,0,0,0,.273-.328,2.806,2.806,0,0,0,.075-.859v-6.078a3.039,3.039,0,0,0-.075-.886.675.675,0,0,0-.3-.31,1.236,1.236,0,0,0-.617-.133h-.307V185h4.926v.252h-.4a1.278,1.278,0,0,0-.647.144.646.646,0,0,0-.28.327,2.81,2.81,0,0,0-.075.859v5.888a2.968,2.968,0,0,0,.082.9.543.543,0,0,0,.319.29,3.3,3.3,0,0,0,.825.061h.77a2.614,2.614,0,0,0,1.226-.259,2.282,2.282,0,0,0,.848-.818,6.6,6.6,0,0,0,.678-1.649Z" transform="translate(-22.574 -33.128)" fill="#030328"/>
      <path id="Path_3920" data-name="Path 3920" d="M141.631,185.533v3.762h.184a1.458,1.458,0,0,0,1.274-.552,3.384,3.384,0,0,0,.5-1.628h.259v4.838h-.259a3.635,3.635,0,0,0-.344-1.295,1.49,1.49,0,0,0-.61-.678,2.323,2.323,0,0,0-1.009-.174v2.6a3.739,3.739,0,0,0,.065.933.557.557,0,0,0,.242.279,1.141,1.141,0,0,0,.572.108h.552a2.977,2.977,0,0,0,3.2-2.426h.252l-.415,2.937h-7.987v-.251h.307a1.278,1.278,0,0,0,.647-.144.613.613,0,0,0,.273-.327,2.772,2.772,0,0,0,.076-.859v-6.079a4.927,4.927,0,0,0-.034-.769.651.651,0,0,0-.253-.369,1.171,1.171,0,0,0-.708-.191h-.307V185h7.735v2.732h-.259a3.322,3.322,0,0,0-.555-1.437,2.055,2.055,0,0,0-1.012-.641,5.5,5.5,0,0,0-1.431-.122Z" transform="translate(-24.731 -33.128)" fill="#030328"/>
      <path id="Path_3921" data-name="Path 3921" d="M159.609,191.57h-3.264l-.388.9a2,2,0,0,0-.19.743.62.62,0,0,0,.313.573,2.694,2.694,0,0,0,.907.163v.251h-3.074v-.251a1.379,1.379,0,0,0,.818-.413,5.494,5.494,0,0,0,.791-1.393l3.3-7.374h.13l3.332,7.578a4.644,4.644,0,0,0,.784,1.356,1.08,1.08,0,0,0,.654.245v.251h-4.47v-.251h.184a1.4,1.4,0,0,0,.756-.151.362.362,0,0,0,.15-.313.842.842,0,0,0-.041-.252q-.014-.062-.2-.511Zm-.232-.5L158,187.883l-1.417,3.183Z" transform="translate(-27.561 -33.086)" fill="#030328"/>
      <path id="Path_3922" data-name="Path 3922" d="M174.39,185v2.5h-.245a3.933,3.933,0,0,0-.484-1.245,1.859,1.859,0,0,0-.728-.6,2.326,2.326,0,0,0-.907-.123h-.688v7.128a2.894,2.894,0,0,0,.079.886.7.7,0,0,0,.306.31,1.24,1.24,0,0,0,.624.133h.306v.252h-4.838v-.252h.306a1.273,1.273,0,0,0,.648-.144.649.649,0,0,0,.279-.327,2.8,2.8,0,0,0,.076-.859v-7.128h-.668a1.943,1.943,0,0,0-1.356.4,2.615,2.615,0,0,0-.75,1.575h-.259V185Z" transform="translate(-29.742 -33.128)" fill="#030328"/>
      <path id="Path_3923" data-name="Path 3923" d="M186.408,185v2.5h-.245a3.934,3.934,0,0,0-.484-1.245,1.859,1.859,0,0,0-.728-.6,2.326,2.326,0,0,0-.907-.123h-.688v7.128a2.894,2.894,0,0,0,.079.886.7.7,0,0,0,.306.31,1.24,1.24,0,0,0,.624.133h.306v.252h-4.838v-.252h.306a1.273,1.273,0,0,0,.648-.144.649.649,0,0,0,.279-.327,2.8,2.8,0,0,0,.076-.859v-7.128h-.668a1.943,1.943,0,0,0-1.356.4,2.615,2.615,0,0,0-.749,1.575h-.259V185Z" transform="translate(-31.894 -33.128)" fill="#030328"/>
      <path id="Path_3924" data-name="Path 3924" d="M194.715,184.842a4.584,4.584,0,0,1,4.967,4.715,4.927,4.927,0,0,1-1.029,3.094,4.573,4.573,0,0,1-3.849,1.772,4.671,4.671,0,0,1-3.857-1.69,4.9,4.9,0,0,1-1.077-3.169,4.607,4.607,0,0,1,1.4-3.431,4.456,4.456,0,0,1,3.445-1.291m.082.436a2.084,2.084,0,0,0-1.929,1.3,6.922,6.922,0,0,0-.539,3.053,5.921,5.921,0,0,0,.832,3.5,1.9,1.9,0,0,0,1.621.791,1.946,1.946,0,0,0,1.172-.341,2.806,2.806,0,0,0,.934-1.394,7.745,7.745,0,0,0,.334-2.5,8.3,8.3,0,0,0-.342-2.744,2.669,2.669,0,0,0-.869-1.284,2.042,2.042,0,0,0-1.216-.375" transform="translate(-34 -33.099)" fill="#030328"/>
      <path id="Path_3925" data-name="Path 3925" d="M206.872,190.031v2.589a2.825,2.825,0,0,0,.092.943.67.67,0,0,0,.323.31,2.173,2.173,0,0,0,.865.117v.251h-4.729v-.251a2.114,2.114,0,0,0,.869-.12.68.68,0,0,0,.32-.31,2.794,2.794,0,0,0,.092-.94v-6a2.825,2.825,0,0,0-.092-.943.663.663,0,0,0-.323-.31,2.176,2.176,0,0,0-.865-.117V185h4.293a9.344,9.344,0,0,1,2.454.232,2.478,2.478,0,0,1,1.268.855,2.3,2.3,0,0,1,.49,1.461,2.186,2.186,0,0,1-.736,1.69,3.047,3.047,0,0,1-1.316.634L212.1,193a4.766,4.766,0,0,0,.62.756,1.168,1.168,0,0,0,.647.232v.251h-2.909l-2.979-4.211Zm0-4.532v4.049h.387a4.361,4.361,0,0,0,1.417-.174,1.421,1.421,0,0,0,.741-.627,2.31,2.31,0,0,0,.268-1.182A1.8,1.8,0,0,0,207.6,185.5Z" transform="translate(-36.427 -33.128)" fill="#030328"/>
      <path id="Path_3926" data-name="Path 3926" d="M219.583,185l4.559,5.73v-3.972a1.889,1.889,0,0,0-.239-1.125,1.321,1.321,0,0,0-1.1-.381V185h3.053v.252a2.318,2.318,0,0,0-.787.195.776.776,0,0,0-.314.388,2.628,2.628,0,0,0-.113.924v7.694h-.231l-6.25-7.694v5.874a1.3,1.3,0,0,0,.365,1.076,1.335,1.335,0,0,0,.834.28h.218v.252H216.3v-.252a1.481,1.481,0,0,0,1.063-.314,1.46,1.46,0,0,0,.3-1.042v-6.521l-.2-.245a1.8,1.8,0,0,0-.518-.484,1.558,1.558,0,0,0-.648-.13V185Z" transform="translate(-38.733 -33.128)" fill="#030328"/>
      <path id="Path_3927" data-name="Path 3927" d="M232.886,185.533v3.762h.184a1.457,1.457,0,0,0,1.274-.552,3.384,3.384,0,0,0,.5-1.628h.259v4.838h-.259a3.635,3.635,0,0,0-.344-1.295,1.49,1.49,0,0,0-.61-.678,2.323,2.323,0,0,0-1.009-.174v2.6a3.739,3.739,0,0,0,.065.933.557.557,0,0,0,.242.279,1.141,1.141,0,0,0,.572.108h.552a2.977,2.977,0,0,0,3.2-2.426h.252l-.415,2.937h-7.987v-.251h.307a1.278,1.278,0,0,0,.647-.144.613.613,0,0,0,.273-.327,2.771,2.771,0,0,0,.076-.859v-6.079a4.927,4.927,0,0,0-.034-.769.651.651,0,0,0-.253-.369,1.171,1.171,0,0,0-.708-.191h-.307V185H237.1v2.732h-.259a3.321,3.321,0,0,0-.555-1.437,2.055,2.055,0,0,0-1.012-.641,5.5,5.5,0,0,0-1.431-.122Z" transform="translate(-41.072 -33.128)" fill="#030328"/>
      <path id="Path_3928" data-name="Path 3928" d="M250.99,185v.252a1.364,1.364,0,0,0-.7.266,7.087,7.087,0,0,0-1.076,1.56l-2,3.346v2.235a3.064,3.064,0,0,0,.075.889.692.692,0,0,0,.3.307,1.135,1.135,0,0,0,.589.133h.518v.252H243.5v-.252h.484a1.25,1.25,0,0,0,.648-.144.652.652,0,0,0,.279-.327,2.824,2.824,0,0,0,.076-.859v-1.854l-2.175-3.959a5.825,5.825,0,0,0-.913-1.381,1.147,1.147,0,0,0-.709-.214V185h4.43v.252h-.2a1,1,0,0,0-.563.116.317.317,0,0,0-.16.245,4.128,4.128,0,0,0,.545,1.234l1.67,3.06,1.663-2.787a3.692,3.692,0,0,0,.619-1.356.361.361,0,0,0-.176-.306,1.684,1.684,0,0,0-.853-.205V185Z" transform="translate(-43.19 -33.128)" fill="#030328"/>
      <path id="Path_3929" data-name="Path 3929" d="M56.751,239.522H53.594l-.552,1.286a2.038,2.038,0,0,0-.2.71.414.414,0,0,0,.176.328,1.548,1.548,0,0,0,.767.183v.222H51.213v-.222a1.385,1.385,0,0,0,.662-.234,3.7,3.7,0,0,0,.679-1.172l2.868-6.71h.21L58.47,240.7a3.085,3.085,0,0,0,.623,1.061,1.262,1.262,0,0,0,.778.273v.222H56.655v-.222a1.2,1.2,0,0,0,.658-.163.42.42,0,0,0,.171-.337,2.5,2.5,0,0,0-.241-.835Zm-.168-.445-1.384-3.3-1.419,3.3Z" transform="translate(-9.171 -41.886)" fill="#030328"/>
      <path id="Path_3930" data-name="Path 3930" d="M64.271,238.336c.4-.4.637-.632.709-.691a2.147,2.147,0,0,1,.583-.355,1.64,1.64,0,0,1,.62-.126,1.374,1.374,0,0,1,.89.3,1.49,1.49,0,0,1,.5.872,4.047,4.047,0,0,1,1.046-.947,1.851,1.851,0,0,1,.878-.226,1.37,1.37,0,0,1,.778.226,1.493,1.493,0,0,1,.539.736,3.327,3.327,0,0,1,.132,1.093v2.37a2.134,2.134,0,0,0,.078.708.507.507,0,0,0,.222.227,1.127,1.127,0,0,0,.529.093v.217H69.057v-.217h.114a.959.959,0,0,0,.553-.138.538.538,0,0,0,.2-.307,3.925,3.925,0,0,0,.024-.583v-2.37a2.013,2.013,0,0,0-.162-.949.815.815,0,0,0-.752-.385,1.436,1.436,0,0,0-.64.159,3.475,3.475,0,0,0-.779.592l-.011.066.011.259v2.628a2.265,2.265,0,0,0,.063.7.516.516,0,0,0,.237.232,1.373,1.373,0,0,0,.6.093v.217H65.725v-.217a1.276,1.276,0,0,0,.629-.108.564.564,0,0,0,.237-.325,3.164,3.164,0,0,0,.03-.594v-2.37a1.8,1.8,0,0,0-.2-.968.849.849,0,0,0-.74-.384,1.333,1.333,0,0,0-.644.174,2.487,2.487,0,0,0-.769.6v2.953a2.019,2.019,0,0,0,.076.7.514.514,0,0,0,.222.244,1.436,1.436,0,0,0,.6.081v.217H62.442v-.217a1.212,1.212,0,0,0,.529-.081.518.518,0,0,0,.228-.259,1.972,1.972,0,0,0,.078-.688v-2.106a7.653,7.653,0,0,0-.053-1.171.476.476,0,0,0-.133-.273.368.368,0,0,0-.246-.076,1.144,1.144,0,0,0-.4.09l-.089-.216,1.66-.674h.258Z" transform="translate(-11.165 -42.469)" fill="#030328"/>
      <path id="Path_3931" data-name="Path 3931" d="M75.607,239.4a2.815,2.815,0,0,0,.6,1.924,1.811,1.811,0,0,0,1.412.7,1.53,1.53,0,0,0,.941-.3,2.191,2.191,0,0,0,.67-1.019l.186.12a2.868,2.868,0,0,1-.733,1.5,1.958,1.958,0,0,1-1.52.676,2.222,2.222,0,0,1-1.7-.772,2.958,2.958,0,0,1-.706-2.077,3.144,3.144,0,0,1,.724-2.2,2.367,2.367,0,0,1,1.819-.791,2.03,2.03,0,0,1,1.52.611,2.234,2.234,0,0,1,.6,1.633Zm0-.35h2.548a2.358,2.358,0,0,0-.126-.745,1.213,1.213,0,0,0-.447-.529,1.144,1.144,0,0,0-.624-.192,1.237,1.237,0,0,0-.891.388,1.675,1.675,0,0,0-.461,1.079" transform="translate(-13.386 -42.467)" fill="#030328"/>
      <path id="Path_3932" data-name="Path 3932" d="M83.168,237.164V238.4q.692-1.238,1.419-1.238a.77.77,0,0,1,.547.2.62.62,0,0,1,.216.465.553.553,0,0,1-.155.4.5.5,0,0,1-.374.163.8.8,0,0,1-.472-.208.776.776,0,0,0-.387-.208.354.354,0,0,0-.234.121,2.87,2.87,0,0,0-.56.811v2.64a1.638,1.638,0,0,0,.114.692.622.622,0,0,0,.277.27,1.207,1.207,0,0,0,.571.108v.216H81.309v-.216a1.166,1.166,0,0,0,.626-.133.513.513,0,0,0,.211-.307,3.132,3.132,0,0,0,.03-.583V239.46a9.051,9.051,0,0,0-.039-1.145.453.453,0,0,0-.144-.268.408.408,0,0,0-.261-.084,1.184,1.184,0,0,0-.422.09l-.059-.217,1.665-.673Z" transform="translate(-14.549 -42.469)" fill="#030328"/>
      <path id="Path_3933" data-name="Path 3933" d="M88.813,236.537v4.425a1.99,1.99,0,0,0,.076.688.529.529,0,0,0,.222.256,1.2,1.2,0,0,0,.539.084v.217H86.974v-.217a1.236,1.236,0,0,0,.54-.078.532.532,0,0,0,.221-.259,1.978,1.978,0,0,0,.081-.691v-2.123a7.587,7.587,0,0,0-.055-1.161.468.468,0,0,0-.133-.267.369.369,0,0,0-.245-.076,1.2,1.2,0,0,0-.409.091l-.084-.217,1.658-.673Zm-.5-2.881a.607.607,0,0,1,.607.607.6.6,0,0,1-.178.433.579.579,0,0,1-.429.181.61.61,0,1,1,0-1.221" transform="translate(-15.559 -41.84)" fill="#030328"/>
      <path id="Path_3934" data-name="Path 3934" d="M96.071,240.742a2.99,2.99,0,0,1-.873,1.675,2.1,2.1,0,0,1-1.437.586,2.121,2.121,0,0,1-1.635-.787,3.1,3.1,0,0,1-.7-2.13,2.934,2.934,0,0,1,.772-2.11,2.47,2.47,0,0,1,1.855-.811,2.035,2.035,0,0,1,1.336.429,1.194,1.194,0,0,1,.523.893.488.488,0,0,1-.148.369.576.576,0,0,1-.412.141.639.639,0,0,1-.534-.228.953.953,0,0,1-.135-.481.791.791,0,0,0-.244-.541.87.87,0,0,0-.584-.181,1.187,1.187,0,0,0-.967.445,2.359,2.359,0,0,0-.488,1.557,3.159,3.159,0,0,0,.484,1.74,1.488,1.488,0,0,0,1.309.754,1.585,1.585,0,0,0,1.058-.4,2.742,2.742,0,0,0,.643-1Z" transform="translate(-16.372 -42.469)" fill="#030328"/>
      <path id="Path_3935" data-name="Path 3935" d="M101.475,242.04a8.942,8.942,0,0,1-1.064.757,1.63,1.63,0,0,1-.692.15,1.235,1.235,0,0,1-.94-.391,1.43,1.43,0,0,1-.369-1.028,1.316,1.316,0,0,1,.179-.7,2.408,2.408,0,0,1,.857-.77,13.385,13.385,0,0,1,2.029-.877v-.217a1.791,1.791,0,0,0-.261-1.13.942.942,0,0,0-.76-.307.853.853,0,0,0-.6.2.616.616,0,0,0-.229.47l.013.349a.6.6,0,0,1-.142.426.481.481,0,0,1-.369.151.471.471,0,0,1-.364-.157.616.616,0,0,1-.141-.427,1.231,1.231,0,0,1,.529-.95,2.288,2.288,0,0,1,1.485-.433,2.575,2.575,0,0,1,1.2.246,1.131,1.131,0,0,1,.524.583,3.287,3.287,0,0,1,.108,1.058v1.87a8.408,8.408,0,0,0,.03.965.409.409,0,0,0,.1.237.237.237,0,0,0,.16.06.33.33,0,0,0,.168-.041,3.869,3.869,0,0,0,.487-.44v.337q-.674.9-1.287.9a.581.581,0,0,1-.468-.2,1.1,1.1,0,0,1-.181-.7m0-.392v-2.1a12.176,12.176,0,0,0-1.172.511,2.048,2.048,0,0,0-.68.553,1.07,1.07,0,0,0-.2.632,1.03,1.03,0,0,0,.259.718.781.781,0,0,0,.594.285,2.176,2.176,0,0,0,1.2-.6" transform="translate(-17.622 -42.469)" fill="#030328"/>
      <path id="Path_3936" data-name="Path 3936" d="M106.838,238.33a2.6,2.6,0,0,1,1.846-1.166,1.323,1.323,0,0,1,.775.225,1.514,1.514,0,0,1,.518.743,3.448,3.448,0,0,1,.131,1.106v2.352a1.953,1.953,0,0,0,.085.708.485.485,0,0,0,.213.235,1.206,1.206,0,0,0,.543.085v.216h-2.724v-.216h.115a.918.918,0,0,0,.538-.117.618.618,0,0,0,.213-.346,3.455,3.455,0,0,0,.024-.564v-2.255a2.282,2.282,0,0,0-.2-1.091.7.7,0,0,0-.658-.341,1.983,1.983,0,0,0-1.425.782v2.9a2.06,2.06,0,0,0,.066.69.554.554,0,0,0,.232.256,1.446,1.446,0,0,0,.6.081v.216h-2.725v-.216h.121a.647.647,0,0,0,.568-.213,1.554,1.554,0,0,0,.148-.814v-2.045a8.969,8.969,0,0,0-.045-1.208.52.52,0,0,0-.139-.3.379.379,0,0,0-.249-.077,1.152,1.152,0,0,0-.4.09l-.089-.217,1.66-.673h.258Z" transform="translate(-18.788 -42.469)" fill="#030328"/>
      <path id="Path_3937" data-name="Path 3937" d="M120.55,242.069v.222h-3.494v-.222h.289a.872.872,0,0,0,.734-.294,1.836,1.836,0,0,0,.144-.926v-5.267a2.678,2.678,0,0,0-.079-.818.54.54,0,0,0-.246-.259,1.143,1.143,0,0,0-.553-.144h-.289v-.222h3.494v.222h-.295a.86.86,0,0,0-.727.295,1.767,1.767,0,0,0-.15.926v5.267a2.714,2.714,0,0,0,.078.818.536.536,0,0,0,.253.258,1.105,1.105,0,0,0,.547.144Z" transform="translate(-20.961 -41.927)" fill="#030328"/>
      <path id="Path_3938" data-name="Path 3938" d="M123.984,238.33a2.6,2.6,0,0,1,1.846-1.166,1.323,1.323,0,0,1,.775.225,1.514,1.514,0,0,1,.518.743,3.448,3.448,0,0,1,.131,1.106v2.352a1.953,1.953,0,0,0,.085.708.485.485,0,0,0,.213.235,1.206,1.206,0,0,0,.543.085v.216h-2.724v-.216h.115a.918.918,0,0,0,.538-.117.618.618,0,0,0,.213-.346,3.456,3.456,0,0,0,.024-.564v-2.255a2.282,2.282,0,0,0-.2-1.091.7.7,0,0,0-.658-.341,1.983,1.983,0,0,0-1.425.782v2.9a2.06,2.06,0,0,0,.066.69.554.554,0,0,0,.231.256,1.446,1.446,0,0,0,.6.081v.216h-2.725v-.216h.121a.647.647,0,0,0,.568-.213,1.554,1.554,0,0,0,.148-.814v-2.045a8.969,8.969,0,0,0-.045-1.208.52.52,0,0,0-.139-.3.379.379,0,0,0-.249-.077,1.152,1.152,0,0,0-.4.09l-.089-.217,1.66-.673h.258Z" transform="translate(-21.858 -42.469)" fill="#030328"/>
      <path id="Path_3939" data-name="Path 3939" d="M133.854,237.164v1.876h-.2a2.434,2.434,0,0,0-.586-1.2,1.317,1.317,0,0,0-.91-.319,1,1,0,0,0-.681.222.646.646,0,0,0-.259.493.893.893,0,0,0,.192.577,2.14,2.14,0,0,0,.758.524l.879.427a1.784,1.784,0,0,1,1.221,1.569,1.484,1.484,0,0,1-.57,1.212,1.964,1.964,0,0,1-1.272.46,4.4,4.4,0,0,1-1.155-.18,1.168,1.168,0,0,0-.323-.061.239.239,0,0,0-.218.157h-.2v-1.967h.2a2.236,2.236,0,0,0,.643,1.269,1.555,1.555,0,0,0,1.065.428.96.96,0,0,0,.677-.244.778.778,0,0,0,.262-.587.937.937,0,0,0-.293-.7,5.166,5.166,0,0,0-1.164-.715,3.427,3.427,0,0,1-1.141-.782,1.348,1.348,0,0,1-.271-.866,1.527,1.527,0,0,1,.465-1.135,1.651,1.651,0,0,1,1.206-.457,2.847,2.847,0,0,1,.789.138,1.837,1.837,0,0,0,.409.089.237.237,0,0,0,.149-.041.591.591,0,0,0,.126-.186Z" transform="translate(-23.37 -42.469)" fill="#030328"/>
      <path id="Path_3940" data-name="Path 3940" d="M137.924,235.157v1.81h1.286v.421h-1.286v3.571a1.2,1.2,0,0,0,.154.722.486.486,0,0,0,.394.186.7.7,0,0,0,.385-.123.805.805,0,0,0,.288-.364h.234a1.883,1.883,0,0,1-.594.887,1.287,1.287,0,0,1-.794.3,1.062,1.062,0,0,1-.542-.153.928.928,0,0,1-.391-.438,2.322,2.322,0,0,1-.126-.882v-3.7h-.873v-.2a2.31,2.31,0,0,0,.677-.448,3.587,3.587,0,0,0,.616-.749,6.774,6.774,0,0,0,.384-.837Z" transform="translate(-24.364 -42.109)" fill="#030328"/>
      <path id="Path_3941" data-name="Path 3941" d="M142.746,236.537v4.425a2.018,2.018,0,0,0,.076.688.531.531,0,0,0,.222.256,1.2,1.2,0,0,0,.538.084v.217h-2.675v-.217a1.238,1.238,0,0,0,.541-.078.531.531,0,0,0,.22-.259,1.958,1.958,0,0,0,.081-.691v-2.123a7.625,7.625,0,0,0-.054-1.161.473.473,0,0,0-.133-.267.371.371,0,0,0-.246-.076,1.2,1.2,0,0,0-.409.091l-.084-.217,1.659-.673Zm-.5-2.881a.605.605,0,0,1,.607.607.6.6,0,0,1-.177.433.581.581,0,0,1-.429.181.618.618,0,0,1-.614-.614.582.582,0,0,1,.178-.429.59.59,0,0,1,.436-.177" transform="translate(-25.217 -41.84)" fill="#030328"/>
      <path id="Path_3942" data-name="Path 3942" d="M146.861,235.157v1.81h1.286v.421h-1.286v3.571a1.2,1.2,0,0,0,.154.722.486.486,0,0,0,.394.186.7.7,0,0,0,.385-.123.805.805,0,0,0,.288-.364h.234a1.883,1.883,0,0,1-.594.887,1.287,1.287,0,0,1-.794.3,1.062,1.062,0,0,1-.542-.153.928.928,0,0,1-.391-.438,2.322,2.322,0,0,1-.126-.882v-3.7H145v-.2a2.311,2.311,0,0,0,.677-.448,3.587,3.587,0,0,0,.616-.749,6.77,6.77,0,0,0,.384-.837Z" transform="translate(-25.964 -42.109)" fill="#030328"/>
      <path id="Path_3943" data-name="Path 3943" d="M154.534,237.362V240.7a8.253,8.253,0,0,0,.046,1.17.512.512,0,0,0,.143.3.346.346,0,0,0,.232.085,1.062,1.062,0,0,0,.419-.1l.086.21-1.649.68h-.27v-1.167a5.021,5.021,0,0,1-1.081.968,1.65,1.65,0,0,1-.789.2,1.258,1.258,0,0,1-.8-.268,1.376,1.376,0,0,1-.471-.688,4.147,4.147,0,0,1-.132-1.191v-2.459a1.2,1.2,0,0,0-.085-.541.554.554,0,0,0-.248-.232,1.5,1.5,0,0,0-.6-.075v-.222h1.93v3.686a1.384,1.384,0,0,0,.268,1.011.937.937,0,0,0,.647.241,1.353,1.353,0,0,0,.586-.163,3.149,3.149,0,0,0,.778-.619V238.4a.881.881,0,0,0-.172-.635,1.114,1.114,0,0,0-.713-.177v-.222Z" transform="translate(-26.741 -42.504)" fill="#030328"/>
      <path id="Path_3944" data-name="Path 3944" d="M159.129,235.157v1.81h1.286v.421h-1.286v3.571a1.2,1.2,0,0,0,.154.722.486.486,0,0,0,.394.186.7.7,0,0,0,.385-.123.805.805,0,0,0,.288-.364h.234a1.883,1.883,0,0,1-.594.887,1.287,1.287,0,0,1-.794.3,1.062,1.062,0,0,1-.542-.153.928.928,0,0,1-.391-.438,2.322,2.322,0,0,1-.126-.882v-3.7h-.873v-.2a2.31,2.31,0,0,0,.677-.448,3.586,3.586,0,0,0,.616-.749,6.772,6.772,0,0,0,.384-.837Z" transform="translate(-28.161 -42.109)" fill="#030328"/>
      <path id="Path_3945" data-name="Path 3945" d="M163,239.4a2.823,2.823,0,0,0,.6,1.924,1.813,1.813,0,0,0,1.412.7,1.532,1.532,0,0,0,.942-.3,2.2,2.2,0,0,0,.67-1.019l.186.12a2.868,2.868,0,0,1-.733,1.5,1.958,1.958,0,0,1-1.521.676,2.223,2.223,0,0,1-1.7-.772,2.961,2.961,0,0,1-.706-2.077,3.141,3.141,0,0,1,.725-2.2,2.364,2.364,0,0,1,1.818-.791,2.032,2.032,0,0,1,1.521.611,2.237,2.237,0,0,1,.6,1.633Zm0-.35h2.549a2.382,2.382,0,0,0-.126-.745,1.21,1.21,0,0,0-.448-.529,1.14,1.14,0,0,0-.623-.192,1.237,1.237,0,0,0-.892.388A1.679,1.679,0,0,0,163,239.05" transform="translate(-29.035 -42.467)" fill="#030328"/>
      <path id="Path_3946" data-name="Path 3946" d="M175.765,237.164a2.442,2.442,0,0,1,2.008.95,2.923,2.923,0,0,1,.644,1.864,3.5,3.5,0,0,1-.355,1.5A2.519,2.519,0,0,1,175.7,243a2.334,2.334,0,0,1-1.978-.993,3.071,3.071,0,0,1-.619-1.876,3.333,3.333,0,0,1,.375-1.506,2.561,2.561,0,0,1,.99-1.107,2.533,2.533,0,0,1,1.3-.358m-.186.391a1.254,1.254,0,0,0-.64.189,1.329,1.329,0,0,0-.52.665,3.2,3.2,0,0,0-.2,1.22,4.246,4.246,0,0,0,.479,2.075,1.421,1.421,0,0,0,1.259.872,1.173,1.173,0,0,0,.962-.481,2.737,2.737,0,0,0,.378-1.653,3.769,3.769,0,0,0-.631-2.309,1.3,1.3,0,0,0-1.088-.577" transform="translate(-30.997 -42.469)" fill="#030328"/>
      <path id="Path_3947" data-name="Path 3947" d="M183.036,237.134v3.619a1.768,1.768,0,0,0,.168.974.738.738,0,0,0,.6.264h.5v.217H181.01v-.217h.246a.825.825,0,0,0,.438-.121.62.62,0,0,0,.274-.324,2.714,2.714,0,0,0,.076-.794v-3.619h-1.071V236.7h1.071v-.361a3.291,3.291,0,0,1,.264-1.395,2.156,2.156,0,0,1,.809-.923,2.2,2.2,0,0,1,1.223-.352,1.855,1.855,0,0,1,1.161.409.771.771,0,0,1,.349.608.48.48,0,0,1-.157.339.468.468,0,0,1-.337.159.54.54,0,0,1-.291-.1,1.565,1.565,0,0,1-.375-.427,1.56,1.56,0,0,0-.409-.442.789.789,0,0,0-.415-.113.749.749,0,0,0-.47.147.821.821,0,0,0-.276.457,8.506,8.506,0,0,0-.085,1.6v.4h1.419v.433Z" transform="translate(-32.407 -41.843)" fill="#030328"/>
      <path id="Path_3948" data-name="Path 3948" d="M44.994,252.584v3.2H46.48a1.057,1.057,0,0,0,.749-.225,1.5,1.5,0,0,0,.314-.892h.223v2.759h-.223a1.6,1.6,0,0,0-.122-.7.783.783,0,0,0-.324-.334,1.348,1.348,0,0,0-.617-.111H44.994v2.561a2.677,2.677,0,0,0,.079.818.538.538,0,0,0,.252.258,1.134,1.134,0,0,0,.553.145h.295v.223h-3.5v-.223h.288a.87.87,0,0,0,.733-.294,1.831,1.831,0,0,0,.144-.926v-5.267a2.686,2.686,0,0,0-.078-.818.544.544,0,0,0-.246-.259,1.122,1.122,0,0,0-.553-.144h-.288v-.222H48.74l.078,1.792h-.21a2.454,2.454,0,0,0-.364-.839,1.192,1.192,0,0,0-.511-.388,2.748,2.748,0,0,0-.942-.12Z" transform="translate(-7.642 -45.15)" fill="#030328"/>
      <path id="Path_3949" data-name="Path 3949" d="M54.674,260.04a8.947,8.947,0,0,1-1.064.757,1.63,1.63,0,0,1-.692.15,1.235,1.235,0,0,1-.94-.391,1.43,1.43,0,0,1-.369-1.028,1.315,1.315,0,0,1,.179-.7,2.408,2.408,0,0,1,.857-.77,13.386,13.386,0,0,1,2.029-.877v-.217a1.791,1.791,0,0,0-.261-1.13.942.942,0,0,0-.76-.307.853.853,0,0,0-.6.2.615.615,0,0,0-.229.47l.013.349a.6.6,0,0,1-.142.426.481.481,0,0,1-.369.151.471.471,0,0,1-.364-.157.616.616,0,0,1-.141-.427,1.231,1.231,0,0,1,.53-.95,2.288,2.288,0,0,1,1.485-.433,2.575,2.575,0,0,1,1.2.246,1.131,1.131,0,0,1,.524.583,3.287,3.287,0,0,1,.108,1.058v1.87a8.409,8.409,0,0,0,.03.965.409.409,0,0,0,.1.237.237.237,0,0,0,.16.06.33.33,0,0,0,.168-.041,3.868,3.868,0,0,0,.487-.44v.337q-.674.9-1.287.9a.581.581,0,0,1-.468-.2,1.1,1.1,0,0,1-.181-.7m0-.392v-2.1a12.174,12.174,0,0,0-1.172.511,2.048,2.048,0,0,0-.68.553,1.07,1.07,0,0,0-.2.632,1.03,1.03,0,0,0,.259.718.781.781,0,0,0,.594.285,2.176,2.176,0,0,0,1.2-.6" transform="translate(-9.242 -45.692)" fill="#030328"/>
      <path id="Path_3950" data-name="Path 3950" d="M60.075,256.336c.4-.4.637-.632.709-.691a2.147,2.147,0,0,1,.583-.355,1.64,1.64,0,0,1,.62-.126,1.374,1.374,0,0,1,.89.3,1.49,1.49,0,0,1,.5.872,4.046,4.046,0,0,1,1.046-.947,1.851,1.851,0,0,1,.878-.226,1.37,1.37,0,0,1,.778.226,1.493,1.493,0,0,1,.539.736,3.327,3.327,0,0,1,.132,1.093v2.37a2.133,2.133,0,0,0,.078.708.507.507,0,0,0,.222.227,1.127,1.127,0,0,0,.53.093v.217H64.861v-.217h.114a.959.959,0,0,0,.553-.138.538.538,0,0,0,.2-.307,3.925,3.925,0,0,0,.024-.583v-2.37a2.013,2.013,0,0,0-.162-.949.815.815,0,0,0-.752-.385,1.436,1.436,0,0,0-.64.159,3.475,3.475,0,0,0-.779.592l-.011.066.011.259v2.628a2.265,2.265,0,0,0,.063.7.516.516,0,0,0,.237.232,1.372,1.372,0,0,0,.6.093v.217H61.529v-.217a1.276,1.276,0,0,0,.629-.108.564.564,0,0,0,.237-.325,3.163,3.163,0,0,0,.03-.594v-2.37a1.8,1.8,0,0,0-.2-.968.849.849,0,0,0-.74-.384,1.333,1.333,0,0,0-.644.174,2.487,2.487,0,0,0-.769.6v2.953a2.019,2.019,0,0,0,.076.7.514.514,0,0,0,.222.244,1.437,1.437,0,0,0,.6.081v.217H58.246v-.217a1.213,1.213,0,0,0,.53-.081.518.518,0,0,0,.228-.259,1.972,1.972,0,0,0,.078-.688v-2.106a7.655,7.655,0,0,0-.053-1.171.476.476,0,0,0-.133-.273.368.368,0,0,0-.246-.076,1.144,1.144,0,0,0-.4.09l-.089-.216,1.66-.674h.258Z" transform="translate(-10.414 -45.692)" fill="#030328"/>
      <path id="Path_3951" data-name="Path 3951" d="M72.363,254.537v4.425a2.017,2.017,0,0,0,.076.688.531.531,0,0,0,.222.256,1.2,1.2,0,0,0,.538.084v.217H70.524v-.217a1.238,1.238,0,0,0,.541-.078.531.531,0,0,0,.22-.259,1.958,1.958,0,0,0,.081-.691v-2.123a7.627,7.627,0,0,0-.054-1.161.473.473,0,0,0-.133-.267.371.371,0,0,0-.246-.076,1.2,1.2,0,0,0-.409.091l-.084-.217,1.659-.673Zm-.5-2.881a.605.605,0,0,1,.607.607.6.6,0,0,1-.177.433.581.581,0,0,1-.429.181.618.618,0,0,1-.614-.614.582.582,0,0,1,.178-.429.59.59,0,0,1,.436-.177" transform="translate(-12.614 -45.064)" fill="#030328"/>
      <path id="Path_3952" data-name="Path 3952" d="M76.827,251.656v7.305a1.985,1.985,0,0,0,.076.685.526.526,0,0,0,.232.256,1.326,1.326,0,0,0,.583.087v.217h-2.7v-.217a1.162,1.162,0,0,0,.517-.078.516.516,0,0,0,.216-.259,2,2,0,0,0,.079-.691v-5a8.5,8.5,0,0,0-.043-1.146.49.49,0,0,0-.135-.291.353.353,0,0,0-.237-.078,1.121,1.121,0,0,0-.4.1l-.1-.211,1.641-.673Z" transform="translate(-13.415 -45.064)" fill="#030328"/>
      <path id="Path_3953" data-name="Path 3953" d="M79.024,255.362h2.567v.222h-.126a.6.6,0,0,0-.406.117.371.371,0,0,0-.135.292,1.655,1.655,0,0,0,.2.649l1.34,2.776,1.233-3.042a1.279,1.279,0,0,0,.1-.487.262.262,0,0,0-.042-.163.333.333,0,0,0-.15-.106,1.158,1.158,0,0,0-.36-.039v-.222h1.791v.222a.861.861,0,0,0-.343.1.993.993,0,0,0-.264.27,3.834,3.834,0,0,0-.2.462l-2.243,5.5a2.847,2.847,0,0,1-.851,1.208,1.67,1.67,0,0,1-1.013.409.84.84,0,0,1-.583-.2.614.614,0,0,1-.229-.469.524.524,0,0,1,.166-.406.639.639,0,0,1,.454-.154,1.624,1.624,0,0,1,.541.131,1.232,1.232,0,0,0,.3.091.623.623,0,0,0,.394-.187,1.965,1.965,0,0,0,.429-.722l.392-.956L80,256.5a3.149,3.149,0,0,0-.288-.464.878.878,0,0,0-.691-.451Z" transform="translate(-14.151 -45.727)" fill="#030328"/>
      <path id="Path_3954" data-name="Path 3954" d="M97.9,258.038l.2.042-.7,2.212H91.086v-.223h.306a.818.818,0,0,0,.74-.337,1.929,1.929,0,0,0,.126-.89v-5.26a1.679,1.679,0,0,0-.168-.956.884.884,0,0,0-.7-.264h-.306v-.223h3.691v.223a2.245,2.245,0,0,0-.91.12.735.735,0,0,0-.358.319,2.625,2.625,0,0,0-.1.919v5.123a1.668,1.668,0,0,0,.1.686.433.433,0,0,0,.223.186,3.89,3.89,0,0,0,.938.06h.6a4.262,4.262,0,0,0,1.317-.139,1.7,1.7,0,0,0,.691-.489,4.021,4.021,0,0,0,.626-1.109" transform="translate(-16.311 -45.15)" fill="#030328"/>
      <path id="Path_3955" data-name="Path 3955" d="M103.849,260.04a8.946,8.946,0,0,1-1.064.757,1.63,1.63,0,0,1-.692.15,1.235,1.235,0,0,1-.94-.391,1.43,1.43,0,0,1-.369-1.028,1.315,1.315,0,0,1,.179-.7,2.408,2.408,0,0,1,.857-.77,13.385,13.385,0,0,1,2.029-.877v-.217a1.791,1.791,0,0,0-.261-1.13.942.942,0,0,0-.76-.307.853.853,0,0,0-.6.2.616.616,0,0,0-.229.47l.013.349a.6.6,0,0,1-.142.426.481.481,0,0,1-.369.151.471.471,0,0,1-.364-.157.616.616,0,0,1-.141-.427,1.231,1.231,0,0,1,.529-.95,2.288,2.288,0,0,1,1.485-.433,2.575,2.575,0,0,1,1.2.246,1.131,1.131,0,0,1,.524.583,3.287,3.287,0,0,1,.108,1.058v1.87a8.411,8.411,0,0,0,.03.965.409.409,0,0,0,.1.237.237.237,0,0,0,.16.06.33.33,0,0,0,.168-.041,3.868,3.868,0,0,0,.487-.44v.337q-.674.9-1.287.9a.581.581,0,0,1-.468-.2,1.1,1.1,0,0,1-.181-.7m0-.392v-2.1a12.175,12.175,0,0,0-1.172.511,2.048,2.048,0,0,0-.68.553,1.07,1.07,0,0,0-.2.632,1.03,1.03,0,0,0,.259.718.781.781,0,0,0,.594.285,2.176,2.176,0,0,0,1.2-.6" transform="translate(-18.047 -45.692)" fill="#030328"/>
      <path id="Path_3956" data-name="Path 3956" d="M107.3,255.362h2.309v.222a.756.756,0,0,0-.419.114.334.334,0,0,0-.1.259,1.288,1.288,0,0,0,.1.451l1.178,3.17,1.185-2.58-.313-.811a.973.973,0,0,0-.379-.5,1.094,1.094,0,0,0-.493-.1v-.222H113v.222a1.119,1.119,0,0,0-.614.156.372.372,0,0,0-.12.307.687.687,0,0,0,.048.246l1.25,3.163,1.16-3.049a1.583,1.583,0,0,0,.121-.516.255.255,0,0,0-.117-.2.856.856,0,0,0-.461-.1v-.222H116v.222a.992.992,0,0,0-.77.709l-1.84,4.744h-.246l-1.378-3.518-1.6,3.518h-.222l-1.767-4.63a1.692,1.692,0,0,0-.342-.592,1.159,1.159,0,0,0-.53-.232Z" transform="translate(-19.214 -45.727)" fill="#030328"/>
      <path id="Path_3957" data-name="Path 3957" d="M127.215,257.522h-3.157l-.552,1.286a2.038,2.038,0,0,0-.2.71.414.414,0,0,0,.177.328,1.548,1.548,0,0,0,.767.183v.223h-2.567v-.223a1.386,1.386,0,0,0,.662-.234,3.7,3.7,0,0,0,.679-1.172l2.868-6.71h.21l2.838,6.783a3.085,3.085,0,0,0,.623,1.061,1.262,1.262,0,0,0,.778.273v.223h-3.216v-.223a1.2,1.2,0,0,0,.658-.163.42.42,0,0,0,.171-.337,2.5,2.5,0,0,0-.241-.835Zm-.168-.445-1.384-3.3-1.419,3.3Z" transform="translate(-21.789 -45.11)" fill="#030328"/>
      <path id="Path_3958" data-name="Path 3958" d="M134.7,253.157v1.81h1.286v.421H134.7v3.571a1.2,1.2,0,0,0,.154.722.486.486,0,0,0,.394.186.7.7,0,0,0,.385-.123.805.805,0,0,0,.288-.364h.234a1.883,1.883,0,0,1-.594.887,1.287,1.287,0,0,1-.794.3,1.062,1.062,0,0,1-.542-.153.928.928,0,0,1-.391-.438,2.322,2.322,0,0,1-.126-.882v-3.7h-.873v-.2a2.31,2.31,0,0,0,.677-.448,3.586,3.586,0,0,0,.616-.749,6.772,6.772,0,0,0,.384-.837Z" transform="translate(-23.787 -45.332)" fill="#030328"/>
      <path id="Path_3959" data-name="Path 3959" d="M139.171,253.157v1.81h1.286v.421h-1.286v3.571a1.2,1.2,0,0,0,.154.722.486.486,0,0,0,.394.186.7.7,0,0,0,.385-.123.805.805,0,0,0,.288-.364h.234a1.883,1.883,0,0,1-.594.887,1.287,1.287,0,0,1-.794.3,1.062,1.062,0,0,1-.542-.153.928.928,0,0,1-.391-.438,2.322,2.322,0,0,1-.126-.882v-3.7h-.873v-.2a2.311,2.311,0,0,0,.677-.448,3.587,3.587,0,0,0,.616-.749,6.772,6.772,0,0,0,.384-.837Z" transform="translate(-24.587 -45.332)" fill="#030328"/>
      <path id="Path_3960" data-name="Path 3960" d="M144.8,255.164a2.442,2.442,0,0,1,2.008.95,2.923,2.923,0,0,1,.644,1.864,3.5,3.5,0,0,1-.355,1.5A2.519,2.519,0,0,1,144.731,261a2.334,2.334,0,0,1-1.978-.993,3.071,3.071,0,0,1-.619-1.876,3.333,3.333,0,0,1,.375-1.506,2.561,2.561,0,0,1,.99-1.107,2.533,2.533,0,0,1,1.3-.358m-.186.391a1.254,1.254,0,0,0-.64.189,1.33,1.33,0,0,0-.52.665,3.2,3.2,0,0,0-.2,1.22,4.246,4.246,0,0,0,.479,2.075,1.421,1.421,0,0,0,1.259.872,1.173,1.173,0,0,0,.962-.481,2.737,2.737,0,0,0,.378-1.653,3.769,3.769,0,0,0-.631-2.309,1.3,1.3,0,0,0-1.088-.577" transform="translate(-25.452 -45.692)" fill="#030328"/>
      <path id="Path_3961" data-name="Path 3961" d="M151.442,255.164V256.4q.692-1.238,1.419-1.238a.77.77,0,0,1,.547.2.62.62,0,0,1,.216.465.553.553,0,0,1-.155.4.5.5,0,0,1-.374.163.8.8,0,0,1-.472-.208.776.776,0,0,0-.387-.208.354.354,0,0,0-.234.121,2.87,2.87,0,0,0-.56.811v2.64a1.639,1.639,0,0,0,.114.692.622.622,0,0,0,.277.27,1.207,1.207,0,0,0,.571.108v.216h-2.821v-.216a1.166,1.166,0,0,0,.626-.133.513.513,0,0,0,.211-.307,3.132,3.132,0,0,0,.03-.583V257.46a9.052,9.052,0,0,0-.039-1.145.453.453,0,0,0-.145-.268.408.408,0,0,0-.261-.084,1.184,1.184,0,0,0-.422.09l-.059-.217,1.665-.673Z" transform="translate(-26.775 -45.692)" fill="#030328"/>
      <path id="Path_3962" data-name="Path 3962" d="M156.73,256.33a2.6,2.6,0,0,1,1.846-1.166,1.323,1.323,0,0,1,.775.225,1.514,1.514,0,0,1,.518.743,3.448,3.448,0,0,1,.131,1.106v2.352a1.953,1.953,0,0,0,.085.708.486.486,0,0,0,.213.235,1.206,1.206,0,0,0,.543.085v.216h-2.724v-.216h.115a.918.918,0,0,0,.538-.117.618.618,0,0,0,.213-.346,3.456,3.456,0,0,0,.024-.564v-2.255a2.282,2.282,0,0,0-.2-1.091.7.7,0,0,0-.658-.341,1.983,1.983,0,0,0-1.425.782v2.9a2.059,2.059,0,0,0,.067.69.554.554,0,0,0,.231.256,1.446,1.446,0,0,0,.6.081v.216H154.9v-.216h.121a.647.647,0,0,0,.568-.213,1.554,1.554,0,0,0,.148-.814v-2.045a8.965,8.965,0,0,0-.045-1.208.52.52,0,0,0-.139-.3.379.379,0,0,0-.249-.077,1.152,1.152,0,0,0-.4.09l-.089-.217,1.66-.673h.258Z" transform="translate(-27.722 -45.692)" fill="#030328"/>
      <path id="Path_3963" data-name="Path 3963" d="M163.935,257.4a2.823,2.823,0,0,0,.6,1.924,1.813,1.813,0,0,0,1.412.7,1.532,1.532,0,0,0,.942-.3,2.2,2.2,0,0,0,.67-1.019l.186.12a2.868,2.868,0,0,1-.733,1.5,1.958,1.958,0,0,1-1.521.676,2.223,2.223,0,0,1-1.7-.772,2.961,2.961,0,0,1-.706-2.077,3.141,3.141,0,0,1,.725-2.2,2.364,2.364,0,0,1,1.818-.791,2.032,2.032,0,0,1,1.521.611,2.237,2.237,0,0,1,.6,1.633Zm0-.35h2.549a2.382,2.382,0,0,0-.126-.745,1.21,1.21,0,0,0-.448-.529,1.14,1.14,0,0,0-.623-.192,1.237,1.237,0,0,0-.892.388,1.679,1.679,0,0,0-.461,1.079" transform="translate(-29.203 -45.69)" fill="#030328"/>
      <path id="Path_3964" data-name="Path 3964" d="M169.569,255.362h2.567v.222h-.126a.6.6,0,0,0-.406.117.371.371,0,0,0-.135.292,1.655,1.655,0,0,0,.2.649l1.34,2.776,1.233-3.042a1.279,1.279,0,0,0,.1-.487.262.262,0,0,0-.042-.163.333.333,0,0,0-.15-.106,1.158,1.158,0,0,0-.36-.039v-.222h1.791v.222a.861.861,0,0,0-.343.1.993.993,0,0,0-.264.27,3.834,3.834,0,0,0-.2.462l-2.243,5.5a2.847,2.847,0,0,1-.851,1.208,1.67,1.67,0,0,1-1.013.409.84.84,0,0,1-.583-.2.614.614,0,0,1-.229-.469.524.524,0,0,1,.166-.406.639.639,0,0,1,.454-.154,1.624,1.624,0,0,1,.541.131,1.232,1.232,0,0,0,.3.091.623.623,0,0,0,.394-.187,1.965,1.965,0,0,0,.429-.722l.392-.956-1.979-4.154a3.149,3.149,0,0,0-.288-.464.878.878,0,0,0-.691-.451Z" transform="translate(-30.365 -45.727)" fill="#030328"/>
      <path id="Path_3965" data-name="Path 3965" d="M181.356,255.164v1.876h-.2a2.434,2.434,0,0,0-.586-1.2,1.32,1.32,0,0,0-.91-.319,1,1,0,0,0-.68.222.643.643,0,0,0-.259.493.893.893,0,0,0,.192.577,2.14,2.14,0,0,0,.758.524l.878.427a1.783,1.783,0,0,1,1.221,1.569,1.483,1.483,0,0,1-.569,1.212,1.966,1.966,0,0,1-1.272.46,4.4,4.4,0,0,1-1.155-.18,1.167,1.167,0,0,0-.323-.061.239.239,0,0,0-.217.157h-.2v-1.967h.2a2.236,2.236,0,0,0,.643,1.269,1.553,1.553,0,0,0,1.065.428.957.957,0,0,0,.676-.244.775.775,0,0,0,.262-.587.937.937,0,0,0-.292-.7,5.166,5.166,0,0,0-1.164-.715,3.427,3.427,0,0,1-1.141-.782,1.348,1.348,0,0,1-.271-.866,1.527,1.527,0,0,1,.465-1.135,1.651,1.651,0,0,1,1.206-.457,2.847,2.847,0,0,1,.788.138,1.836,1.836,0,0,0,.409.089.238.238,0,0,0,.149-.041.591.591,0,0,0,.126-.186Z" transform="translate(-31.877 -45.692)" fill="#030328"/>
      <path id="Path_3966" data-name="Path 3966" d="M186.779,253.443l.043.892h-.107a1.106,1.106,0,0,0-.085-.337.564.564,0,0,0-.232-.24.8.8,0,0,0-.38-.077h-.535v2.905a.773.773,0,0,0,.076.438.418.418,0,0,0,.328.118h.131v.1h-1.612v-.1h.135a.385.385,0,0,0,.342-.146.84.84,0,0,0,.062-.41v-2.905h-.457a1.27,1.27,0,0,0-.378.039.518.518,0,0,0-.25.2.825.825,0,0,0-.123.41h-.107l.045-.892Z" transform="translate(-32.882 -45.384)" fill="#030328"/>
      <path id="Path_3967" data-name="Path 3967" d="M190.2,257.246l-1.469-3.2v2.54a.773.773,0,0,0,.076.438.413.413,0,0,0,.328.118h.135v.1h-1.323v-.1h.135a.389.389,0,0,0,.342-.146.853.853,0,0,0,.062-.41V254.1a.874.874,0,0,0-.056-.365.306.306,0,0,0-.145-.136.778.778,0,0,0-.337-.055v-.1h1.076l1.38,2.975,1.357-2.975h1.077v.1h-.131a.39.39,0,0,0-.345.146.843.843,0,0,0-.062.41v2.484a.755.755,0,0,0,.078.438.414.414,0,0,0,.328.118h.131v.1h-1.615v-.1h.134A.383.383,0,0,0,191.7,257a.843.843,0,0,0,.062-.41v-2.54l-1.466,3.2Z" transform="translate(-33.656 -45.384)" fill="#030328"/>
      <path id="Path_3968" data-name="Path 3968" d="M42.847,209.611a2.6,2.6,0,0,0-.929-.69,2.511,2.511,0,0,0-.9-.172,3.041,3.041,0,0,0-1.226.24,2.812,2.812,0,0,0-.942.666,3.022,3.022,0,0,0-.609.991,3.4,3.4,0,0,0-.216,1.219,3.752,3.752,0,0,0,.216,1.293,3.038,3.038,0,0,0,.609,1.021,2.833,2.833,0,0,0,.942.678,2.962,2.962,0,0,0,1.226.245,2.25,2.25,0,0,0,1.028-.251,2.8,2.8,0,0,0,.929-.808l1.281.912a3.49,3.49,0,0,1-1.441,1.182,4.487,4.487,0,0,1-1.81.369,5.079,5.079,0,0,1-1.853-.326,4.153,4.153,0,0,1-2.407-2.358,4.824,4.824,0,0,1-.345-1.859,5.027,5.027,0,0,1,.345-1.9,4.258,4.258,0,0,1,.954-1.46,4.17,4.17,0,0,1,1.453-.929A5.079,5.079,0,0,1,41,207.345a4.249,4.249,0,0,1,1.644.314,3.841,3.841,0,0,1,1.41,1.066Z" transform="translate(-6.517 -37.129)" fill="#030328"/>
      <path id="Path_3969" data-name="Path 3969" d="M47.99,207.615h1.552v7.314h3.706v1.4H47.99Z" transform="translate(-8.593 -37.177)" fill="#030328"/>
      <rect id="Rectangle_677" data-name="Rectangle 677" width="1.552" height="8.718" transform="translate(46.366 170.438)" fill="#030328"/>
      <path id="Path_3970" data-name="Path 3970" d="M61.445,207.615H67.22v1.4H63v2.143h4v1.4H63v2.364h4.445v1.4h-6Z" transform="translate(-11.003 -37.177)" fill="#030328"/>
      <path id="Path_3971" data-name="Path 3971" d="M71.36,207.615h2.057l4.223,6.477h.025v-6.477h1.551v8.718H77.247l-4.31-6.686h-.025v6.686H71.36Z" transform="translate(-12.778 -37.177)" fill="#030328"/>
      <path id="Path_3972" data-name="Path 3972" d="M85.642,209.018H82.97v-1.4h6.9v1.4H87.194v7.315H85.642Z" transform="translate(-14.857 -37.177)" fill="#030328"/>
      <path id="Path_3973" data-name="Path 3973" d="M102.742,209.438a1.431,1.431,0,0,0-.658-.524,2.32,2.32,0,0,0-.868-.166,2.242,2.242,0,0,0-.524.061,1.441,1.441,0,0,0-.456.2,1.026,1.026,0,0,0-.326.351,1,1,0,0,0-.124.511.8.8,0,0,0,.308.678,3.027,3.027,0,0,0,.763.406q.456.172,1,.332a4.061,4.061,0,0,1,1,.443,2.473,2.473,0,0,1,.763.751,2.232,2.232,0,0,1,.308,1.244,2.733,2.733,0,0,1-.259,1.225,2.489,2.489,0,0,1-.7.869,2.986,2.986,0,0,1-1.016.516,4.219,4.219,0,0,1-1.218.172,4.578,4.578,0,0,1-1.565-.27,3.025,3.025,0,0,1-1.293-.911l1.17-1.133a1.956,1.956,0,0,0,.745.671,2.084,2.084,0,0,0,.979.24,2.059,2.059,0,0,0,.542-.073,1.671,1.671,0,0,0,.492-.222,1.141,1.141,0,0,0,.357-.376,1,1,0,0,0,.135-.523.911.911,0,0,0-.308-.739,2.7,2.7,0,0,0-.763-.437q-.456-.18-1-.339a4.18,4.18,0,0,1-1-.438,2.411,2.411,0,0,1-.764-.739,2.2,2.2,0,0,1-.308-1.237,2.354,2.354,0,0,1,.277-1.171,2.522,2.522,0,0,1,.727-.818,3.181,3.181,0,0,1,1.029-.486,4.408,4.408,0,0,1,1.181-.16,4.309,4.309,0,0,1,1.336.209,3.1,3.1,0,0,1,1.163.69Z" transform="translate(-17.527 -37.129)" fill="#030328"/>
      <path id="Path_3974" data-name="Path 3974" d="M110.566,207.615h1.341l3.757,8.718h-1.775l-.813-1.995H109.3l-.789,1.995h-1.737Zm1.969,5.394-1.342-3.546-1.367,3.546Z" transform="translate(-19.12 -37.177)" fill="#030328"/>
      <path id="Path_3975" data-name="Path 3975" d="M119.751,209.018h-2.672v-1.4h6.9v1.4H121.3v7.315h-1.552Z" transform="translate(-20.965 -37.177)" fill="#030328"/>
      <rect id="Rectangle_678" data-name="Rectangle 678" width="1.552" height="8.718" transform="translate(104.646 170.438)" fill="#030328"/>
      <path id="Path_3976" data-name="Path 3976" d="M136.581,209.438a1.431,1.431,0,0,0-.658-.524,2.32,2.32,0,0,0-.868-.166,2.242,2.242,0,0,0-.524.061,1.441,1.441,0,0,0-.456.2,1.026,1.026,0,0,0-.326.351,1,1,0,0,0-.124.511.8.8,0,0,0,.308.678,3.027,3.027,0,0,0,.763.406q.456.172,1,.332a4.061,4.061,0,0,1,1,.443,2.473,2.473,0,0,1,.763.751,2.232,2.232,0,0,1,.308,1.244,2.733,2.733,0,0,1-.259,1.225,2.489,2.489,0,0,1-.7.869,2.986,2.986,0,0,1-1.016.516,4.219,4.219,0,0,1-1.218.172,4.578,4.578,0,0,1-1.565-.27,3.025,3.025,0,0,1-1.293-.911l1.17-1.133a1.957,1.957,0,0,0,.745.671,2.084,2.084,0,0,0,.979.24,2.059,2.059,0,0,0,.542-.073,1.671,1.671,0,0,0,.492-.222,1.141,1.141,0,0,0,.357-.376,1,1,0,0,0,.135-.523.911.911,0,0,0-.308-.739,2.7,2.7,0,0,0-.763-.437q-.456-.18-1-.339a4.18,4.18,0,0,1-1-.438,2.411,2.411,0,0,1-.764-.739A2.2,2.2,0,0,1,132,209.98a2.354,2.354,0,0,1,.277-1.171,2.522,2.522,0,0,1,.727-.818,3.182,3.182,0,0,1,1.029-.486,4.408,4.408,0,0,1,1.181-.16,4.309,4.309,0,0,1,1.336.209,3.1,3.1,0,0,1,1.163.69Z" transform="translate(-23.586 -37.129)" fill="#030328"/>
      <path id="Path_3977" data-name="Path 3977" d="M141.8,207.615h5.627v1.4h-4.075v2.29h3.841v1.4h-3.841v3.62H141.8Z" transform="translate(-25.391 -37.177)" fill="#030328"/>
      <path id="Path_3978" data-name="Path 3978" d="M152.939,207.615h1.341l3.757,8.718h-1.774l-.813-1.995h-3.78l-.788,1.995h-1.737Zm1.969,5.394-1.342-3.546-1.367,3.546Z" transform="translate(-26.707 -37.177)" fill="#030328"/>
      <path id="Path_3979" data-name="Path 3979" d="M167.794,209.611a2.6,2.6,0,0,0-.929-.69,2.511,2.511,0,0,0-.9-.172,3.041,3.041,0,0,0-1.226.24,2.812,2.812,0,0,0-.942.666,3.023,3.023,0,0,0-.609.991,3.4,3.4,0,0,0-.216,1.219,3.752,3.752,0,0,0,.216,1.293,3.038,3.038,0,0,0,.609,1.021,2.833,2.833,0,0,0,.942.678,2.961,2.961,0,0,0,1.226.245,2.25,2.25,0,0,0,1.028-.251,2.8,2.8,0,0,0,.929-.808l1.281.912a3.49,3.49,0,0,1-1.441,1.182,4.487,4.487,0,0,1-1.81.369,5.079,5.079,0,0,1-1.853-.326,4.153,4.153,0,0,1-2.407-2.358,4.825,4.825,0,0,1-.345-1.859,5.028,5.028,0,0,1,.345-1.9,4.258,4.258,0,0,1,.954-1.46,4.17,4.17,0,0,1,1.453-.929,5.079,5.079,0,0,1,1.853-.327,4.249,4.249,0,0,1,1.644.314,3.841,3.841,0,0,1,1.41,1.066Z" transform="translate(-28.891 -37.129)" fill="#030328"/>
      <path id="Path_3980" data-name="Path 3980" d="M174.529,209.018h-2.672v-1.4h6.9v1.4H176.08v7.315h-1.552Z" transform="translate(-30.774 -37.177)" fill="#030328"/>
      <rect id="Rectangle_679" data-name="Rectangle 679" width="1.552" height="8.718" transform="translate(149.615 170.438)" fill="#030328"/>
      <path id="Path_3981" data-name="Path 3981" d="M186.646,211.963a5.043,5.043,0,0,1,.344-1.9,4.253,4.253,0,0,1,.956-1.46,4.169,4.169,0,0,1,1.452-.928,5.083,5.083,0,0,1,1.853-.327,5.177,5.177,0,0,1,1.872.3,4.087,4.087,0,0,1,1.465.917,4.248,4.248,0,0,1,.96,1.454,4.983,4.983,0,0,1,.345,1.9,4.825,4.825,0,0,1-.345,1.859,4.264,4.264,0,0,1-.96,1.441,4.385,4.385,0,0,1-1.465.942,5.181,5.181,0,0,1-1.872.35,5.1,5.1,0,0,1-1.853-.326,4.164,4.164,0,0,1-2.408-2.358,4.84,4.84,0,0,1-.344-1.859m1.625-.1a3.771,3.771,0,0,0,.215,1.293,3.038,3.038,0,0,0,.609,1.021,2.842,2.842,0,0,0,.942.678,2.961,2.961,0,0,0,1.226.245,3,3,0,0,0,1.231-.245,2.807,2.807,0,0,0,.947-.678,3.041,3.041,0,0,0,.611-1.021,3.772,3.772,0,0,0,.216-1.293,3.418,3.418,0,0,0-.216-1.219,3.027,3.027,0,0,0-.611-.991,2.776,2.776,0,0,0-.947-.666,3.085,3.085,0,0,0-1.231-.24,3.041,3.041,0,0,0-1.226.24,2.809,2.809,0,0,0-.942.666,3.023,3.023,0,0,0-.609.991,3.418,3.418,0,0,0-.215,1.219" transform="translate(-33.422 -37.129)" fill="#030328"/>
      <path id="Path_3982" data-name="Path 3982" d="M200.46,207.615h2.057l4.223,6.477h.025v-6.477h1.551v8.718h-1.969l-4.31-6.686h-.025v6.686H200.46Z" transform="translate(-35.896 -37.177)" fill="#030328"/>
    </g>
  </g>
  <g id="Group_567" data-name="Group 567" transform="translate(62.544 15.192)">
    <g id="Group_566" data-name="Group 566" clip-path="url(#clip-path-2)">
      <rect id="Rectangle_681" data-name="Rectangle 681" width="97.909" height="98.399" transform="matrix(0.687, -0.726, 0.726, 0.687, -31.501, 33.275)" fill="url(#linear-gradient)"/>
    </g>
  </g>
  <g id="Group_569" data-name="Group 569">
    <g id="Group_568" data-name="Group 568" clip-path="url(#clip-path)">
      <rect id="Rectangle_682" data-name="Rectangle 682" width="141.2" height="1.642" transform="translate(30.151 185.452)" fill="#030328"/>
      <rect id="Rectangle_683" data-name="Rectangle 683" width="42.688" height="20.523" transform="translate(82.615 118.802)" fill="#030328"/>
      <path id="Path_3984" data-name="Path 3984" d="M111.829,162.16h-7.677v-.212a42.382,42.382,0,0,0,4.286-5.656,6.134,6.134,0,0,0,.755-2.838,2.361,2.361,0,0,0-.626-1.679,2.013,2.013,0,0,0-1.529-.669,2.528,2.528,0,0,0-2.3,1.482l-.355-.126a5.328,5.328,0,0,1,1.578-2.732,3.7,3.7,0,0,1,2.443-.885,3.613,3.613,0,0,1,1.809.462,3.342,3.342,0,0,1,1.28,1.265,3.043,3.043,0,0,1,.461,1.506,5.44,5.44,0,0,1-.712,2.6A24.668,24.668,0,0,1,107,159.639h2.819a6.38,6.38,0,0,0,1.351-.087,1.117,1.117,0,0,0,.515-.293,3.815,3.815,0,0,0,.529-.871h.346Z" transform="translate(-18.65 -26.653)" fill="#fff"/>
      <path id="Path_3985" data-name="Path 3985" d="M124.611,155.637a11.754,11.754,0,0,1-.548,3.647,4.944,4.944,0,0,1-.88,1.7,4.421,4.421,0,0,1-1.255,1.053,3.227,3.227,0,0,1-3.233-.091,4.524,4.524,0,0,1-1.346-1.376,6.676,6.676,0,0,1-.741-1.741,11.18,11.18,0,0,1-.414-3.04,12.235,12.235,0,0,1,.6-3.906,4.634,4.634,0,0,1,1.491-2.256,3.272,3.272,0,0,1,4.238-.01,4.47,4.47,0,0,1,1.447,2.083,11.579,11.579,0,0,1,.644,3.935m-2.963-.019q0-3.425-.039-3.992a3.57,3.57,0,0,0-.461-1.809.93.93,0,0,0-.78-.308.9.9,0,0,0-.653.231,2.015,2.015,0,0,0-.481,1.188q-.126.852-.126,5.94a22.633,22.633,0,0,0,.193,3.714,1.655,1.655,0,0,0,.414.914,1.051,1.051,0,0,0,.712.231.861.861,0,0,0,.722-.308,3.047,3.047,0,0,0,.461-1.664Z" transform="translate(-20.807 -26.653)" fill="#fff"/>
      <path id="Path_3986" data-name="Path 3986" d="M133.787,148.845v10.669a6.6,6.6,0,0,0,.106,1.534.994.994,0,0,0,.442.543,2.09,2.09,0,0,0,1.077.212h.3v.356h-6.869V161.8h.346a2.688,2.688,0,0,0,1.194-.192.982.982,0,0,0,.48-.529,5.824,5.824,0,0,0,.126-1.568v-6.763a4.229,4.229,0,0,0-.087-1.13.816.816,0,0,0-.322-.385.95.95,0,0,0-.543-.158,3.083,3.083,0,0,0-1.193.308l-.173-.346,4.8-2.194Z" transform="translate(-23.041 -26.653)" fill="#fff"/>
      <path id="Path_3987" data-name="Path 3987" d="M142.484,162.488l3.55-10.765h-2.7a5.358,5.358,0,0,0-2.386.414,2.173,2.173,0,0,0-.924,1.087h-.365l.942-4.05h7.773l-4.377,13.315Z" transform="translate(-25.008 -26.712)" fill="#fff"/>
    </g>
  </g>
  <g id="Group_571" data-name="Group 571" transform="translate(68.243 81.376)">
    <g id="Group_570" data-name="Group 570" clip-path="url(#clip-path-4)">
      <rect id="Rectangle_685" data-name="Rectangle 685" width="52.59" height="78.952" transform="matrix(0.386, -0.922, 0.922, 0.386, -9.144, 21.821)" fill="url(#linear-gradient-2)"/>
    </g>
  </g>
  <g id="Group_573" data-name="Group 573" transform="translate(15.651)">
    <g id="Group_572" data-name="Group 572" clip-path="url(#clip-path-5)">
      <rect id="Rectangle_686" data-name="Rectangle 686" width="218.643" height="220.308" transform="translate(-66.842 70.531) rotate(-46.569)" fill="url(#linear-gradient-3)"/>
    </g>
  </g>
</svg>
