<svg id="Group_607" data-name="Group 607" xmlns="http://www.w3.org/2000/svg" xmlns:xlink="http://www.w3.org/1999/xlink" width="267.086" height="205.001" viewBox="0 0 267.086 205.001">
  <defs>
    <clipPath id="clip-path">
      <rect id="Rectangle_707" data-name="Rectangle 707" width="267.086" height="205.001" fill="none"/>
    </clipPath>
  </defs>
  <path id="Path_4120" data-name="Path 4120" d="M147.948,202.247l80.767-30.424V17.125L147.948,4.554,67.181,17.125v154.7Z" transform="translate(-14.736 -0.999)" fill="#fff"/>
  <path id="Path_4121" data-name="Path 4121" d="M69.707,168.394V19.135L146.961,7.11l77.253,12.025V168.394l-77.253,29.1ZM146.961,0,62.681,13.118V173.255L146.961,205l84.279-31.747V13.118Z" transform="translate(-13.749)" fill="#15467a"/>
  <g id="Group_606" data-name="Group 606">
    <g id="Group_605" data-name="Group 605" clip-path="url(#clip-path)">
      <path id="Path_4122" data-name="Path 4122" d="M127.5,42.785h-3.045c-.051-.632-.1-1.259-.154-1.9-.105,0-.2-.012-.284-.012-1.4,0-2.795,0-4.192-.005a.359.359,0,0,0-.4.238c-.213.507-.443,1.008-.676,1.506-.036.076-.127.178-.194.179-.964.012-1.928.008-2.913.008a1.325,1.325,0,0,1,.041-.2,23.3,23.3,0,0,1,6.415-9.232,7.334,7.334,0,0,1,2.981-1.666,3.645,3.645,0,0,1,.977-.106c.324.008.457.162.49.487.093.932.174,1.866.258,2.8q.269,3.007.535,6.013c.055.621.106,1.243.162,1.894m-3.379-4.351c-.084-1.118-.165-2.2-.247-3.287l-.1-.054a16.546,16.546,0,0,0-2.82,3.34Z" transform="translate(-25.367 -6.929)" fill="#01457b"/>
      <path id="Path_4123" data-name="Path 4123" d="M159.887,35.027a4.381,4.381,0,0,1,4.551,4.32,4.321,4.321,0,0,1-3.9,4.217,4.422,4.422,0,0,1-4.646-2.761,4.276,4.276,0,0,1,3.261-5.685c.289-.052.583-.073.732-.091m.13,6.112a1.828,1.828,0,1,0-1.775-1.82,1.779,1.779,0,0,0,1.775,1.82" transform="translate(-34.136 -7.683)" fill="#01457b"/>
      <path id="Path_4124" data-name="Path 4124" d="M152.7,35.148a8.752,8.752,0,0,1-.472,2.485,9.862,9.862,0,0,1-3.267,4.836,5.22,5.22,0,0,1-2.932,1.144,2.176,2.176,0,0,1-.384,0,.448.448,0,0,1-.435-.448c-.08-.9-.17-1.792-.253-2.689q-.224-2.415-.443-4.831c-.014-.153-.019-.307-.029-.477h2.762c.126,1.664.253,3.331.386,5.069a3.07,3.07,0,0,0,.305-.225,6.182,6.182,0,0,0,1.526-2.828c.167-.6.26-1.22.4-1.828.018-.078.119-.194.183-.2.872-.012,1.744-.009,2.654-.009" transform="translate(-31.693 -7.71)" fill="#01457b"/>
      <path id="Path_4125" data-name="Path 4125" d="M137.991,35.166h2.8c-.1.572-.158,1.129-.292,1.666a10.149,10.149,0,0,1-3.2,5.411,5.349,5.349,0,0,1-3.21,1.373,2.122,2.122,0,0,1-.33.005c-.327-.03-.464-.152-.5-.478q-.158-1.591-.3-3.183-.211-2.306-.415-4.613c0-.054,0-.108,0-.179H135.3c.126,1.666.252,3.327.384,5.066A3.069,3.069,0,0,0,136,40a5.717,5.717,0,0,0,1.412-2.49c.227-.763.386-1.545.581-2.344" transform="translate(-29.073 -7.714)" fill="#01457b"/>
      <path id="Path_4126" data-name="Path 4126" d="M30.037,154.272H0l18.113,18.113L.419,190.078H48.461V154.272Z" transform="translate(0 -33.839)" fill="#143860"/>
      <path id="Path_4127" data-name="Path 4127" d="M298.257,154.272h30.037l-18.113,18.113,17.693,17.693H279.046V154.272Z" transform="translate(-61.208 -33.839)" fill="#143860"/>
      <rect id="Rectangle_705" data-name="Rectangle 705" width="206.261" height="33.002" transform="translate(29.704 106.317)" fill="#15467a"/>
      <path id="Path_4128" data-name="Path 4128" d="M91.973,152.2h3.105a8.909,8.909,0,0,1,2.143.252,4.924,4.924,0,0,1,1.772.817,3.987,3.987,0,0,1,1.2,1.467,4.913,4.913,0,0,1,.445,2.19,4.46,4.46,0,0,1-.432,2.01,4.315,4.315,0,0,1-1.161,1.46,5.142,5.142,0,0,1-1.685.9,6.562,6.562,0,0,1-2,.305H91.973Zm2.07,7.484h1.075a5.808,5.808,0,0,0,1.333-.144,2.86,2.86,0,0,0,1.069-.485,2.319,2.319,0,0,0,.71-.889,3.152,3.152,0,0,0,.259-1.347,2.629,2.629,0,0,0-.259-1.2,2.391,2.391,0,0,0-.7-.842,3.057,3.057,0,0,0-1.029-.5,4.585,4.585,0,0,0-1.24-.166H94.043Z" transform="translate(-20.174 -33.384)" fill="#fff"/>
      <path id="Path_4129" data-name="Path 4129" d="M110.6,161.262a3.178,3.178,0,0,1-1.208.942,3.619,3.619,0,0,1-1.513.332,4.067,4.067,0,0,1-1.4-.239,3.357,3.357,0,0,1-1.141-.684,3.2,3.2,0,0,1-.763-1.068,3.623,3.623,0,0,1,0-2.787,3.215,3.215,0,0,1,.763-1.069,3.367,3.367,0,0,1,1.141-.683,4.066,4.066,0,0,1,1.4-.239,3.182,3.182,0,0,1,1.254.239,2.6,2.6,0,0,1,.956.683,3.1,3.1,0,0,1,.6,1.069,4.313,4.313,0,0,1,.212,1.394v.623h-4.618a1.575,1.575,0,0,0,.518.909,1.46,1.46,0,0,0,.982.339,1.5,1.5,0,0,0,.83-.219,2.243,2.243,0,0,0,.59-.564Zm-1.685-2.84a1.152,1.152,0,0,0-.332-.863,1.181,1.181,0,0,0-.889-.358,1.454,1.454,0,0,0-1.016.378,1.207,1.207,0,0,0-.279.386,1.259,1.259,0,0,0-.112.457Z" transform="translate(-22.878 -34.167)" fill="#fff"/>
      <path id="Path_4130" data-name="Path 4130" d="M114.548,151.382h1.991v4.273h.027a1.863,1.863,0,0,1,.883-.657,3.424,3.424,0,0,1,1.161-.192,2.625,2.625,0,0,1,1.234.285,2.866,2.866,0,0,1,.923.764,3.582,3.582,0,0,1,.584,1.094,4.08,4.08,0,0,1,.205,1.294,3.827,3.827,0,0,1-.226,1.34,3.08,3.08,0,0,1-.643,1.055,2.889,2.889,0,0,1-1,.69,3.335,3.335,0,0,1-1.3.245,2.2,2.2,0,0,1-.65-.093,2.749,2.749,0,0,1-.564-.239,2.3,2.3,0,0,1-.451-.326,2.185,2.185,0,0,1-.312-.351h-.027v.849h-1.831Zm1.831,6.809a1.667,1.667,0,0,0,.418,1.18,1.753,1.753,0,0,0,2.348,0,1.876,1.876,0,0,0,0-2.362,1.753,1.753,0,0,0-2.348,0,1.67,1.67,0,0,0-.418,1.182" transform="translate(-25.126 -33.205)" fill="#fff"/>
      <path id="Path_4131" data-name="Path 4131" d="M125.02,155.927h1.991v1.035h.027a2.446,2.446,0,0,1,.756-.9,1.912,1.912,0,0,1,1.1-.3c.115,0,.23,0,.345.013a1.694,1.694,0,0,1,.319.054v1.817a2.937,2.937,0,0,0-.418-.1,2.75,2.75,0,0,0-.432-.034,2.118,2.118,0,0,0-.9.159,1.2,1.2,0,0,0-.511.444,1.694,1.694,0,0,0-.233.683,6.724,6.724,0,0,0-.053.877v2.694H125.02Z" transform="translate(-27.423 -34.167)" fill="#fff"/>
      <path id="Path_4132" data-name="Path 4132" d="M135.9,161.568h-.027a1.865,1.865,0,0,1-.883.742,3.087,3.087,0,0,1-2.03.1,2.172,2.172,0,0,1-.736-.378,1.832,1.832,0,0,1-.5-.625,1.9,1.9,0,0,1-.186-.863,1.987,1.987,0,0,1,.205-.942,1.84,1.84,0,0,1,.558-.636,2.763,2.763,0,0,1,.8-.392,5.891,5.891,0,0,1,.935-.206,9,9,0,0,1,.969-.079c.323-.009.621-.014.9-.014a1.037,1.037,0,0,0-.378-.842,1.363,1.363,0,0,0-.9-.311,1.952,1.952,0,0,0-.9.205,2.428,2.428,0,0,0-.724.564l-1.062-1.089a3.661,3.661,0,0,1,1.3-.776,4.669,4.669,0,0,1,1.539-.259,4,4,0,0,1,1.44.22,2.079,2.079,0,0,1,.9.643,2.491,2.491,0,0,1,.471,1.041,6.855,6.855,0,0,1,.133,1.427v3.278H135.9Zm-.491-2.017q-.226,0-.564.02a2.828,2.828,0,0,0-.65.113,1.448,1.448,0,0,0-.53.278.644.644,0,0,0-.219.518.567.567,0,0,0,.305.531,1.266,1.266,0,0,0,.637.173,1.977,1.977,0,0,0,.564-.08,1.673,1.673,0,0,0,.484-.226,1.084,1.084,0,0,0,.338-.371,1.069,1.069,0,0,0,.126-.532v-.424Z" transform="translate(-28.851 -34.167)" fill="#fff"/>
      <path id="Path_4133" data-name="Path 4133" d="M146.423,152.2h3.636a6.421,6.421,0,0,1,1.361.14,3.238,3.238,0,0,1,1.127.464,2.317,2.317,0,0,1,.771.877,2.975,2.975,0,0,1,.285,1.374,2.758,2.758,0,0,1-.518,1.692,2.331,2.331,0,0,1-1.513.882l2.389,3.969h-2.482l-1.964-3.757h-1.022v3.757h-2.07Zm2.07,3.888h1.221c.186,0,.383-.007.59-.02a1.825,1.825,0,0,0,.564-.12.973.973,0,0,0,.418-.311.958.958,0,0,0,.165-.6.985.985,0,0,0-.146-.57.968.968,0,0,0-.372-.326,1.681,1.681,0,0,0-.518-.154,4.347,4.347,0,0,0-.571-.039h-1.354Z" transform="translate(-32.118 -33.384)" fill="#fff"/>
      <path id="Path_4134" data-name="Path 4134" d="M166.918,154.427a1.483,1.483,0,0,0-.683-.472,2.479,2.479,0,0,0-.817-.152,2.161,2.161,0,0,0-.464.054,1.747,1.747,0,0,0-.451.166.977.977,0,0,0-.345.3.759.759,0,0,0-.133.451.748.748,0,0,0,.319.65,2.966,2.966,0,0,0,.8.385c.324.106.671.212,1.042.319a4.334,4.334,0,0,1,1.041.451,2.468,2.468,0,0,1,.8.784,2.384,2.384,0,0,1,.319,1.313,3.022,3.022,0,0,1-.292,1.367,2.763,2.763,0,0,1-.79.969,3.349,3.349,0,0,1-1.154.571,5.3,5.3,0,0,1-3.085-.092,4.273,4.273,0,0,1-1.461-.9l1.473-1.62a2.149,2.149,0,0,0,.8.657,2.3,2.3,0,0,0,1,.232,2.275,2.275,0,0,0,.511-.059,1.645,1.645,0,0,0,.464-.18.986.986,0,0,0,.331-.3.759.759,0,0,0,.127-.438.8.8,0,0,0-.326-.67,3.009,3.009,0,0,0-.816-.418q-.492-.172-1.062-.345a4.732,4.732,0,0,1-1.062-.465,2.543,2.543,0,0,1-.816-.77,2.2,2.2,0,0,1-.326-1.261,2.826,2.826,0,0,1,.3-1.327,2.9,2.9,0,0,1,.8-.956,3.448,3.448,0,0,1,1.148-.577,4.712,4.712,0,0,1,1.34-.192,5.29,5.29,0,0,1,1.54.225,3.55,3.55,0,0,1,1.34.757Z" transform="translate(-35.44 -33.317)" fill="#fff"/>
      <path id="Path_4135" data-name="Path 4135" d="M176.216,158.011a1.123,1.123,0,0,0-.411-.351,1.212,1.212,0,0,0-.571-.14,1.525,1.525,0,0,0-1.175.451,1.879,1.879,0,0,0,0,2.362,1.522,1.522,0,0,0,1.175.451,1.072,1.072,0,0,0,.571-.146,1.723,1.723,0,0,0,.411-.345l1.314,1.38a2.541,2.541,0,0,1-1.1.671,4.119,4.119,0,0,1-1.2.192,4.07,4.07,0,0,1-1.4-.239,3.364,3.364,0,0,1-1.141-.684,3.194,3.194,0,0,1-.763-1.068,3.621,3.621,0,0,1,0-2.786,3.2,3.2,0,0,1,.763-1.069,3.375,3.375,0,0,1,1.141-.683,4.051,4.051,0,0,1,1.4-.24,4.12,4.12,0,0,1,1.2.192,2.548,2.548,0,0,1,1.1.671Z" transform="translate(-37.651 -34.167)" fill="#fff"/>
      <path id="Path_4136" data-name="Path 4136" d="M182.091,151.382v4.459h.027a1.232,1.232,0,0,1,.226-.372,1.788,1.788,0,0,1,.384-.33,2.124,2.124,0,0,1,.532-.24,2.28,2.28,0,0,1,.664-.093,2.735,2.735,0,0,1,1.221.233,1.762,1.762,0,0,1,.723.643,2.592,2.592,0,0,1,.352.969,7.4,7.4,0,0,1,.093,1.208v3.557h-1.991v-3.159c0-.187-.005-.379-.02-.578a1.837,1.837,0,0,0-.119-.551.859.859,0,0,0-.9-.57,1.225,1.225,0,0,0-.625.14.948.948,0,0,0-.364.371,1.5,1.5,0,0,0-.166.525,4.524,4.524,0,0,0-.04.61v3.212H180.1V151.382Z" transform="translate(-39.505 -33.205)" fill="#fff"/>
      <path id="Path_4137" data-name="Path 4137" d="M189.551,159.153a3.363,3.363,0,0,1,.279-1.393,3.2,3.2,0,0,1,.763-1.069,3.36,3.36,0,0,1,1.141-.683,4.21,4.21,0,0,1,2.8,0,3.368,3.368,0,0,1,1.141.683,3.2,3.2,0,0,1,.763,1.069,3.612,3.612,0,0,1,0,2.786,3.193,3.193,0,0,1-.763,1.068,3.357,3.357,0,0,1-1.141.684,4.223,4.223,0,0,1-2.8,0,3.35,3.35,0,0,1-1.141-.684,3.193,3.193,0,0,1-.763-1.068,3.365,3.365,0,0,1-.279-1.393m1.991,0a1.667,1.667,0,0,0,.418,1.18,1.754,1.754,0,0,0,2.349,0,1.879,1.879,0,0,0,0-2.362,1.754,1.754,0,0,0-2.349,0,1.67,1.67,0,0,0-.418,1.182" transform="translate(-41.578 -34.167)" fill="#fff"/>
      <path id="Path_4138" data-name="Path 4138" d="M206.276,161.262a3.172,3.172,0,0,1-1.208.942,3.619,3.619,0,0,1-1.512.332,4.067,4.067,0,0,1-1.4-.239,3.357,3.357,0,0,1-1.141-.684,3.206,3.206,0,0,1-.763-1.068,3.632,3.632,0,0,1,0-2.787,3.218,3.218,0,0,1,.763-1.069,3.367,3.367,0,0,1,1.141-.683,4.066,4.066,0,0,1,1.4-.239,3.185,3.185,0,0,1,1.254.239,2.6,2.6,0,0,1,.956.683,3.114,3.114,0,0,1,.6,1.069,4.292,4.292,0,0,1,.213,1.394v.623h-4.618a1.567,1.567,0,0,0,.518.909,1.46,1.46,0,0,0,.982.339,1.494,1.494,0,0,0,.829-.219,2.231,2.231,0,0,0,.59-.564Zm-1.685-2.84a1.149,1.149,0,0,0-.332-.863,1.179,1.179,0,0,0-.888-.358,1.491,1.491,0,0,0-.585.106,1.464,1.464,0,0,0-.431.272,1.207,1.207,0,0,0-.279.386,1.259,1.259,0,0,0-.112.457Z" transform="translate(-43.864 -34.167)" fill="#fff"/>
      <path id="Path_4139" data-name="Path 4139" d="M209.986,155.927h1.91v.876h.027a1.672,1.672,0,0,1,.265-.372,1.946,1.946,0,0,1,.412-.331,2.36,2.36,0,0,1,.544-.24,2.28,2.28,0,0,1,.664-.093,2.748,2.748,0,0,1,1.221.233,1.767,1.767,0,0,1,.723.643,2.616,2.616,0,0,1,.352.969,7.4,7.4,0,0,1,.093,1.208v3.557h-1.991v-3.159c0-.186-.006-.379-.02-.577a1.851,1.851,0,0,0-.119-.551.858.858,0,0,0-.9-.571,1.231,1.231,0,0,0-.625.14.955.955,0,0,0-.365.371,1.526,1.526,0,0,0-.165.525,4.4,4.4,0,0,0-.04.61v3.212h-1.991Z" transform="translate(-46.06 -34.167)" fill="#fff"/>
      <path id="Path_4140" data-name="Path 4140" d="M219.981,151.382h1.991v4.273H222a1.863,1.863,0,0,1,.883-.657,3.427,3.427,0,0,1,1.161-.192,2.628,2.628,0,0,1,1.235.285,2.863,2.863,0,0,1,.922.764,3.564,3.564,0,0,1,.584,1.094,4.059,4.059,0,0,1,.206,1.294,3.845,3.845,0,0,1-.226,1.34,3.1,3.1,0,0,1-.643,1.055,2.9,2.9,0,0,1-1,.69,3.332,3.332,0,0,1-1.3.245,2.2,2.2,0,0,1-.65-.093,2.786,2.786,0,0,1-.564-.239,2.291,2.291,0,0,1-.45-.326,2.232,2.232,0,0,1-.313-.351h-.026v.849h-1.832Zm1.832,6.809a1.666,1.666,0,0,0,.418,1.18,1.754,1.754,0,0,0,2.349,0,1.876,1.876,0,0,0,0-2.362,1.754,1.754,0,0,0-2.349,0,1.669,1.669,0,0,0-.418,1.182" transform="translate(-48.253 -33.205)" fill="#fff"/>
      <path id="Path_4141" data-name="Path 4141" d="M236.5,161.262a3.172,3.172,0,0,1-1.208.942,3.618,3.618,0,0,1-1.512.332,4.067,4.067,0,0,1-1.4-.239,3.357,3.357,0,0,1-1.141-.684,3.207,3.207,0,0,1-.763-1.068,3.632,3.632,0,0,1,0-2.787,3.218,3.218,0,0,1,.763-1.069,3.367,3.367,0,0,1,1.141-.683,4.066,4.066,0,0,1,1.4-.239,3.184,3.184,0,0,1,1.254.239,2.6,2.6,0,0,1,.956.683,3.114,3.114,0,0,1,.6,1.069,4.292,4.292,0,0,1,.213,1.394v.623H232.19a1.567,1.567,0,0,0,.518.909,1.46,1.46,0,0,0,.982.339,1.494,1.494,0,0,0,.829-.219,2.231,2.231,0,0,0,.59-.564Zm-1.685-2.84a1.149,1.149,0,0,0-.332-.863,1.179,1.179,0,0,0-.888-.358,1.491,1.491,0,0,0-.585.106,1.464,1.464,0,0,0-.431.272,1.207,1.207,0,0,0-.279.386,1.259,1.259,0,0,0-.112.457Z" transform="translate(-50.494 -34.167)" fill="#fff"/>
      <path id="Path_4142" data-name="Path 4142" d="M240.212,155.927H242.2v1.035h.027a2.438,2.438,0,0,1,.756-.9,1.91,1.91,0,0,1,1.1-.3c.114,0,.23,0,.344.013a1.684,1.684,0,0,1,.319.054v1.817a2.911,2.911,0,0,0-.418-.1,2.732,2.732,0,0,0-.431-.034,2.119,2.119,0,0,0-.9.159,1.2,1.2,0,0,0-.511.444,1.706,1.706,0,0,0-.233.683,6.733,6.733,0,0,0-.052.877v2.694h-1.991Z" transform="translate(-52.69 -34.167)" fill="#fff"/>
      <path id="Path_4143" data-name="Path 4143" d="M253.526,161.833a3.834,3.834,0,0,1-.923,2.78,3.754,3.754,0,0,1-2.807.95,7.556,7.556,0,0,1-1.7-.193,3.857,3.857,0,0,1-1.539-.749l1.1-1.646a4.179,4.179,0,0,0,.976.611,2.741,2.741,0,0,0,1.122.226,1.8,1.8,0,0,0,1.347-.446,1.561,1.561,0,0,0,.432-1.134v-.624h-.027a1.877,1.877,0,0,1-.856.657,2.742,2.742,0,0,1-.962.192,3.315,3.315,0,0,1-1.3-.245,2.88,2.88,0,0,1-1-.691,3.074,3.074,0,0,1-.644-1.055,3.985,3.985,0,0,1-.02-2.587,3.4,3.4,0,0,1,.584-1.075,2.94,2.94,0,0,1,.923-.75,2.62,2.62,0,0,1,1.234-.285,3.047,3.047,0,0,1,.776.093,3.016,3.016,0,0,1,.63.24,2.313,2.313,0,0,1,.479.325,2.019,2.019,0,0,1,.318.352h.026v-.85h1.832Zm-5.017-2.721a1.553,1.553,0,0,0,.458,1.108,1.745,1.745,0,0,0,.5.352,1.481,1.481,0,0,0,.63.133,1.5,1.5,0,0,0,.625-.133,1.723,1.723,0,0,0,.511-.352,1.564,1.564,0,0,0,0-2.215,1.723,1.723,0,0,0-.511-.352,1.5,1.5,0,0,0-.625-.133,1.481,1.481,0,0,0-.63.133,1.745,1.745,0,0,0-.5.352,1.553,1.553,0,0,0-.458,1.108" transform="translate(-54.073 -34.167)" fill="#fff"/>
      <path id="Path_4144" data-name="Path 4144" d="M38.05,178.465H56.807v6.579Z" transform="translate(-8.346 -39.146)" fill="#010101"/>
      <path id="Path_4145" data-name="Path 4145" d="M298.777,178.465H279.046v6.579Z" transform="translate(-61.208 -39.146)" fill="#010101"/>
      <path id="Path_4146" data-name="Path 4146" d="M171.142,32.5h3.649a7.459,7.459,0,0,1,1.461.141,3.763,3.763,0,0,1,1.253.483,2.517,2.517,0,0,1,.875.919,2.969,2.969,0,0,1,.326,1.468,2.92,2.92,0,0,1-.631,1.913,2.7,2.7,0,0,1-1.8.935L179.062,43h-2.255l-2.433-4.45h-1.365V43h-1.869Zm3.322,4.45q.4,0,.8-.037a2.454,2.454,0,0,0,.735-.178,1.263,1.263,0,0,0,.541-.43,1.368,1.368,0,0,0,.208-.808,1.29,1.29,0,0,0-.193-.742,1.208,1.208,0,0,0-.5-.423,2.327,2.327,0,0,0-.689-.185,6.287,6.287,0,0,0-.735-.044h-1.617v2.847Z" transform="translate(-37.54 -7.129)" fill="#01457b"/>
      <path id="Path_4147" data-name="Path 4147" d="M187.219,42.925h-.044a2.285,2.285,0,0,1-.979.883,3.076,3.076,0,0,1-1.305.274,3.492,3.492,0,0,1-.956-.133,2.6,2.6,0,0,1-.831-.4,2.052,2.052,0,0,1-.586-.667,1.891,1.891,0,0,1-.222-.934,2.16,2.16,0,0,1,.208-.987,2.045,2.045,0,0,1,.557-.682,2.824,2.824,0,0,1,.808-.437,5.648,5.648,0,0,1,.956-.245,8.623,8.623,0,0,1,1-.1q.5-.022.949-.023h.445v-.193a1.155,1.155,0,0,0-.46-1,1.945,1.945,0,0,0-1.172-.334,2.741,2.741,0,0,0-1.053.2,2.67,2.67,0,0,0-.845.541l-.934-.934a3.46,3.46,0,0,1,1.386-.875,5.131,5.131,0,0,1,1.639-.267,4.144,4.144,0,0,1,1.276.171,2.8,2.8,0,0,1,.86.438,1.934,1.934,0,0,1,.527.615,2.846,2.846,0,0,1,.266.7,3.858,3.858,0,0,1,.1.69q.015.334.015.585V43.9h-1.6Zm-.1-2.21h-.371c-.247,0-.524.01-.831.03a4.328,4.328,0,0,0-.867.141,1.966,1.966,0,0,0-.69.326.713.713,0,0,0-.282.6.754.754,0,0,0,.112.422.991.991,0,0,0,.289.29,1.211,1.211,0,0,0,.4.171,1.968,1.968,0,0,0,.445.052,1.851,1.851,0,0,0,1.357-.438,1.613,1.613,0,0,0,.438-1.194Z" transform="translate(-39.986 -8.029)" fill="#01457b"/>
      <path id="Path_4148" data-name="Path 4148" d="M192.042,37.769V36.256h1.468V34.194h1.78v2.062h1.958v1.513H195.29v3.115a1.557,1.557,0,0,0,.2.845.877.877,0,0,0,.794.311,2.844,2.844,0,0,0,.519-.052,1.094,1.094,0,0,0,.445-.17v1.5a2.283,2.283,0,0,1-.689.187,5.834,5.834,0,0,1-.72.052,3.615,3.615,0,0,1-1.164-.156,1.538,1.538,0,0,1-.713-.474,1.82,1.82,0,0,1-.356-.794,5.58,5.58,0,0,1-.1-1.1V37.769Z" transform="translate(-42.124 -7.5)" fill="#01457b"/>
      <path id="Path_4149" data-name="Path 4149" d="M200.23,33.437a1.024,1.024,0,0,1,.319-.748,1.1,1.1,0,0,1,.809-.32,1.175,1.175,0,0,1,.823.3,1.04,1.04,0,0,1,0,1.528,1.175,1.175,0,0,1-.823.3,1.094,1.094,0,0,1-.809-.319,1.026,1.026,0,0,1-.319-.749m.253,2.418h1.78v7.12h-1.78Z" transform="translate(-43.92 -7.1)" fill="#01457b"/>
      <path id="Path_4150" data-name="Path 4150" d="M205.455,36.784h1.691v1.142h.03a2.506,2.506,0,0,1,.771-.927,2.284,2.284,0,0,1,1.409-.393,2.793,2.793,0,0,1,1.208.237,2.288,2.288,0,0,1,.809.623,2.363,2.363,0,0,1,.445.891,4.093,4.093,0,0,1,.133,1.052V43.9h-1.78V40.3c0-.2-.01-.417-.03-.66a2.383,2.383,0,0,0-.155-.682,1.279,1.279,0,0,0-.393-.534,1.125,1.125,0,0,0-.727-.215,1.692,1.692,0,0,0-.749.149,1.45,1.45,0,0,0-.5.4,1.6,1.6,0,0,0-.29.579,2.575,2.575,0,0,0-.089.682V43.9h-1.78Z" transform="translate(-45.066 -8.029)" fill="#01457b"/>
      <path id="Path_4151" data-name="Path 4151" d="M223.588,36.784v6.482a5.959,5.959,0,0,1-.237,1.743,3.375,3.375,0,0,1-.734,1.319,3.318,3.318,0,0,1-1.254.839,4.931,4.931,0,0,1-1.795.3,6.888,6.888,0,0,1-1.884-.252,4.216,4.216,0,0,1-1.646-.92l1.068-1.454a4.351,4.351,0,0,0,1.112.756,3.154,3.154,0,0,0,1.335.267,2.848,2.848,0,0,0,1.076-.178,1.736,1.736,0,0,0,.7-.489,1.853,1.853,0,0,0,.371-.749,3.9,3.9,0,0,0,.112-.971v-.519h-.03a2.357,2.357,0,0,1-1.023.779,3.444,3.444,0,0,1-1.305.259A3.548,3.548,0,0,1,218,43.7a3.477,3.477,0,0,1-1.119-.779,3.39,3.39,0,0,1-.72-1.156,3.991,3.991,0,0,1-.252-1.425,4.429,4.429,0,0,1,.237-1.468,3.381,3.381,0,0,1,.7-1.187,3.293,3.293,0,0,1,1.105-.794,3.57,3.57,0,0,1,1.475-.289,3.371,3.371,0,0,1,1.409.3,2.294,2.294,0,0,1,1.038.949h.03V36.784Zm-3.8,1.424a2.278,2.278,0,0,0-.86.155,1.9,1.9,0,0,0-1.091,1.1,2.356,2.356,0,0,0-.155.868,2.057,2.057,0,0,0,.155.8,2.021,2.021,0,0,0,.438.653,2.066,2.066,0,0,0,.667.445,2.1,2.1,0,0,0,.831.163,2.269,2.269,0,0,0,.882-.163,2.027,2.027,0,0,0,.667-.437,1.875,1.875,0,0,0,.423-.66,2.3,2.3,0,0,0,.148-.831,2.077,2.077,0,0,0-.564-1.513,2.054,2.054,0,0,0-1.543-.578" transform="translate(-47.358 -8.029)" fill="#01457b"/>
      <path id="Path_4152" data-name="Path 4152" d="M108.932,199.514h-3.557v-1.869h9.18v1.869H111v9.739h-2.066Z" transform="translate(-23.114 -43.353)" fill="#01457b"/>
      <path id="Path_4153" data-name="Path 4153" d="M115.874,206.313a4.166,4.166,0,0,1,.336-1.7,3.909,3.909,0,0,1,2.27-2.139,4.885,4.885,0,0,1,3.344,0,3.913,3.913,0,0,1,2.271,2.139,4.456,4.456,0,0,1,0,3.393,3.97,3.97,0,0,1-.91,1.3,4.011,4.011,0,0,1-1.361.836,4.885,4.885,0,0,1-3.344,0,4.011,4.011,0,0,1-1.361-.836,3.957,3.957,0,0,1-.909-1.3,4.16,4.16,0,0,1-.336-1.7m1.967,0a2.542,2.542,0,0,0,.156.885,2.209,2.209,0,0,0,.459.754,2.328,2.328,0,0,0,3.393,0,2.234,2.234,0,0,0,.459-.754,2.6,2.6,0,0,0,0-1.771,2.245,2.245,0,0,0-.459-.755,2.307,2.307,0,0,0-.73-.524,2.326,2.326,0,0,0-2.664.524,2.22,2.22,0,0,0-.459.755,2.542,2.542,0,0,0-.156.885" transform="translate(-25.417 -44.348)" fill="#01457b"/>
      <path id="Path_4154" data-name="Path 4154" d="M129.188,202.379h1.869v1.18h.033a2.526,2.526,0,0,1,1.148-1.049,3.719,3.719,0,0,1,1.557-.328,3.977,3.977,0,0,1,1.623.319,3.645,3.645,0,0,1,1.23.877,3.75,3.75,0,0,1,.771,1.312,4.9,4.9,0,0,1,.262,1.623,4.645,4.645,0,0,1-.279,1.623,4.049,4.049,0,0,1-.778,1.311,3.6,3.6,0,0,1-1.205.877,3.687,3.687,0,0,1-1.541.32,3.833,3.833,0,0,1-.984-.115,3.375,3.375,0,0,1-.754-.3,3.017,3.017,0,0,1-.557-.386,2.759,2.759,0,0,1-.377-.4h-.049v4.738h-1.967Zm6.525,3.934a2.56,2.56,0,0,0-.156-.885,2.233,2.233,0,0,0-.459-.755,2.328,2.328,0,0,0-3.393,0,2.232,2.232,0,0,0-.459.755,2.6,2.6,0,0,0,0,1.771,2.221,2.221,0,0,0,.459.754,2.327,2.327,0,0,0,3.393,0,2.222,2.222,0,0,0,.459-.754,2.56,2.56,0,0,0,.156-.885" transform="translate(-28.337 -44.348)" fill="#01457b"/>
      <path id="Path_4155" data-name="Path 4155" d="M152.255,197.646h1.787l5,11.607h-2.361L155.6,206.6h-5.033l-1.049,2.656h-2.312Zm2.623,7.18-1.787-4.721-1.82,4.721Z" transform="translate(-32.289 -43.353)" fill="#01457b"/>
      <path id="Path_4156" data-name="Path 4156" d="M162.619,203.465v-1.672h1.623v-2.279h1.967v2.279h2.164v1.672h-2.164v3.443a1.713,1.713,0,0,0,.221.934.97.97,0,0,0,.877.344,3.183,3.183,0,0,0,.574-.057,1.191,1.191,0,0,0,.492-.189V209.6a2.558,2.558,0,0,1-.762.205,6.4,6.4,0,0,1-.8.057,4.02,4.02,0,0,1-1.287-.172,1.7,1.7,0,0,1-.787-.525,2,2,0,0,1-.394-.877,6.2,6.2,0,0,1-.106-1.213v-3.607Z" transform="translate(-35.67 -43.763)" fill="#01457b"/>
      <path id="Path_4157" data-name="Path 4157" d="M170.809,203.465v-1.672h1.623v-2.279H174.4v2.279h2.164v1.672H174.4v3.443a1.713,1.713,0,0,0,.221.934.97.97,0,0,0,.877.344,3.183,3.183,0,0,0,.574-.057,1.192,1.192,0,0,0,.492-.189V209.6a2.558,2.558,0,0,1-.762.205,6.4,6.4,0,0,1-.8.057,4.02,4.02,0,0,1-1.287-.172,1.7,1.7,0,0,1-.787-.525,2,2,0,0,1-.394-.877,6.2,6.2,0,0,1-.106-1.213v-3.607Z" transform="translate(-37.467 -43.763)" fill="#01457b"/>
      <path id="Path_4158" data-name="Path 4158" d="M179.65,206.313a4.166,4.166,0,0,1,.336-1.7,3.909,3.909,0,0,1,2.27-2.139,4.885,4.885,0,0,1,3.344,0,3.913,3.913,0,0,1,2.271,2.139,4.456,4.456,0,0,1,0,3.393,3.97,3.97,0,0,1-.91,1.3,4.011,4.011,0,0,1-1.361.836,4.885,4.885,0,0,1-3.344,0,4.011,4.011,0,0,1-1.361-.836,3.957,3.957,0,0,1-.909-1.3,4.16,4.16,0,0,1-.336-1.7m1.967,0a2.542,2.542,0,0,0,.156.885,2.209,2.209,0,0,0,.459.754,2.328,2.328,0,0,0,3.393,0,2.234,2.234,0,0,0,.459-.754,2.6,2.6,0,0,0,0-1.771,2.245,2.245,0,0,0-.459-.755,2.307,2.307,0,0,0-.73-.524,2.326,2.326,0,0,0-2.664.524,2.22,2.22,0,0,0-.459.755,2.542,2.542,0,0,0-.156.885" transform="translate(-39.406 -44.348)" fill="#01457b"/>
      <path id="Path_4159" data-name="Path 4159" d="M192.964,202.379h1.967v1.246h.033a2.478,2.478,0,0,1,.934-1.066,2.589,2.589,0,0,1,1.393-.376,1.875,1.875,0,0,1,.352.033c.115.022.232.049.353.082v1.9q-.246-.066-.484-.107a2.741,2.741,0,0,0-.467-.041,2.107,2.107,0,0,0-1.107.254,2.015,2.015,0,0,0-.639.582,1.929,1.929,0,0,0-.3.656,2.465,2.465,0,0,0-.073.492v4.213h-1.967Z" transform="translate(-42.326 -44.348)" fill="#01457b"/>
      <path id="Path_4160" data-name="Path 4160" d="M201.511,202.379h1.869v1.262h.033a2.759,2.759,0,0,1,.852-1.024,2.522,2.522,0,0,1,1.557-.435,3.08,3.08,0,0,1,1.336.262,2.527,2.527,0,0,1,.894.689,2.606,2.606,0,0,1,.492.984,4.53,4.53,0,0,1,.148,1.164v4.967h-1.967v-3.984c0-.219-.011-.461-.033-.73a2.651,2.651,0,0,0-.173-.754,1.411,1.411,0,0,0-.434-.59,1.245,1.245,0,0,0-.8-.237,1.88,1.88,0,0,0-.828.164,1.591,1.591,0,0,0-.557.443,1.76,1.76,0,0,0-.319.639,2.854,2.854,0,0,0-.1.754v4.3h-1.967Z" transform="translate(-44.201 -44.348)" fill="#01457b"/>
      <path id="Path_4161" data-name="Path 4161" d="M215.027,207a2,2,0,0,0,.689,1.376,2.155,2.155,0,0,0,1.426.492,2.351,2.351,0,0,0,1.237-.3,3.436,3.436,0,0,0,.877-.763l1.41,1.065a3.991,3.991,0,0,1-1.541,1.214,4.54,4.54,0,0,1-1.787.361,4.723,4.723,0,0,1-1.672-.3,4.023,4.023,0,0,1-1.361-.836,3.956,3.956,0,0,1-.909-1.3,4.447,4.447,0,0,1,0-3.393,3.909,3.909,0,0,1,2.27-2.139,4.723,4.723,0,0,1,1.672-.3,3.824,3.824,0,0,1,1.5.286A3.231,3.231,0,0,1,220,203.3a3.815,3.815,0,0,1,.754,1.336,5.666,5.666,0,0,1,.27,1.827V207Zm4.033-1.475a1.853,1.853,0,0,0-.541-1.369,2.029,2.029,0,0,0-1.459-.5,1.91,1.91,0,0,0-1.4.509,2.264,2.264,0,0,0-.632,1.361Z" transform="translate(-46.734 -44.348)" fill="#01457b"/>
      <path id="Path_4162" data-name="Path 4162" d="M224.253,202.434h2.164l2.2,5.459h.033l1.967-5.459h2.049l-3.721,9.557a5.978,5.978,0,0,1-.467.975,2.822,2.822,0,0,1-.6.706,2.275,2.275,0,0,1-.811.425,3.936,3.936,0,0,1-1.123.14,5.829,5.829,0,0,1-1.508-.2l.246-1.771a4.129,4.129,0,0,0,.484.139,2.33,2.33,0,0,0,.516.058,2.428,2.428,0,0,0,.607-.066,1.054,1.054,0,0,0,.7-.566c.077-.148.158-.325.246-.533l.377-.934Z" transform="translate(-49.19 -44.404)" fill="#01457b"/>
      <path id="Path_4163" data-name="Path 4163" d="M106.508,106.606V78.962H95.791V72.447a20.421,20.421,0,0,0,4.354-.336,11.328,11.328,0,0,0,3.775-1.4,9.273,9.273,0,0,0,2.831-2.649,9.421,9.421,0,0,0,1.522-4.08h6.881v42.624Z" transform="translate(-21.012 -14.034)" fill="#ec514c"/>
      <path id="Path_4164" data-name="Path 4164" d="M136.274,74.43a18.785,18.785,0,0,1,3.379-6.789,12.112,12.112,0,0,1,4.963-3.653,16.449,16.449,0,0,1,6-1.1,16.62,16.62,0,0,1,6.059,1.1,12.335,12.335,0,0,1,4.993,3.653,18.537,18.537,0,0,1,3.41,6.789,37.449,37.449,0,0,1,1.248,10.443,38.908,38.908,0,0,1-1.248,10.686,18.527,18.527,0,0,1-3.41,6.851,12.34,12.34,0,0,1-4.993,3.653,16.62,16.62,0,0,1-6.059,1.1,16.449,16.449,0,0,1-6-1.1,12.117,12.117,0,0,1-4.963-3.653,18.774,18.774,0,0,1-3.379-6.851,38.848,38.848,0,0,1-1.248-10.686,37.391,37.391,0,0,1,1.248-10.443m7.52,14.857a23.712,23.712,0,0,0,.761,4.993,10.7,10.7,0,0,0,2.04,4.11,4.9,4.9,0,0,0,4.019,1.7,5.067,5.067,0,0,0,4.11-1.7,10.491,10.491,0,0,0,2.07-4.11,23.764,23.764,0,0,0,.761-4.993q.121-2.588.122-4.415,0-1.1-.03-2.649a29.977,29.977,0,0,0-.852-6.454,10.006,10.006,0,0,0-1.187-2.892,6.532,6.532,0,0,0-2.009-2.07,5.362,5.362,0,0,0-2.984-.792,5.208,5.208,0,0,0-2.953.792,6.345,6.345,0,0,0-1.949,2.07,11.176,11.176,0,0,0-1.187,2.892,22.348,22.348,0,0,0-.609,3.257q-.183,1.645-.213,3.2t-.03,2.649q0,1.826.122,4.415" transform="translate(-29.618 -13.795)" fill="#ec514c"/>
      <rect id="Rectangle_706" data-name="Rectangle 706" width="9.56" height="9.378" transform="translate(141.638 83.194)" fill="#ec514c"/>
      <path id="Path_4165" data-name="Path 4165" d="M201.325,74.43A18.785,18.785,0,0,1,204.7,67.64a12.112,12.112,0,0,1,4.963-3.653,16.449,16.449,0,0,1,6-1.1,16.623,16.623,0,0,1,6.059,1.1,12.334,12.334,0,0,1,4.993,3.653,18.537,18.537,0,0,1,3.41,6.789,37.449,37.449,0,0,1,1.248,10.443,38.908,38.908,0,0,1-1.248,10.686,18.527,18.527,0,0,1-3.41,6.851,12.339,12.339,0,0,1-4.993,3.653,16.623,16.623,0,0,1-6.059,1.1,16.449,16.449,0,0,1-6-1.1,12.117,12.117,0,0,1-4.963-3.653,18.774,18.774,0,0,1-3.379-6.851,38.878,38.878,0,0,1-1.248-10.686,37.42,37.42,0,0,1,1.248-10.443m7.52,14.857a23.713,23.713,0,0,0,.761,4.993,10.7,10.7,0,0,0,2.04,4.11,4.9,4.9,0,0,0,4.019,1.7,5.067,5.067,0,0,0,4.11-1.7,10.5,10.5,0,0,0,2.07-4.11,23.764,23.764,0,0,0,.761-4.993q.121-2.588.122-4.415,0-1.1-.03-2.649a29.775,29.775,0,0,0-.244-3.2,30.079,30.079,0,0,0-.609-3.257,10.006,10.006,0,0,0-1.187-2.892,6.54,6.54,0,0,0-2.009-2.07,5.364,5.364,0,0,0-2.984-.792,5.21,5.21,0,0,0-2.953.792,6.336,6.336,0,0,0-1.949,2.07,11.175,11.175,0,0,0-1.187,2.892,22.352,22.352,0,0,0-.609,3.257q-.183,1.645-.213,3.2t-.03,2.649q0,1.826.122,4.415" transform="translate(-43.887 -13.795)" fill="#ec514c"/>
    </g>
  </g>
</svg>
