<svg id="Group_913" data-name="Group 913" xmlns="http://www.w3.org/2000/svg" xmlns:xlink="http://www.w3.org/1999/xlink" width="292.333" height="216.082" viewBox="0 0 292.333 216.082">
  <defs>
    <clipPath id="clip-path">
      <rect id="Rectangle_915" data-name="Rectangle 915" width="292.332" height="216.082" fill="none"/>
    </clipPath>
  </defs>
  <path id="Path_10780" data-name="Path 10780" d="M32.949,157.129H0L19.869,177,.46,196.407H60.537L44.545,157.129Z" transform="translate(0 -22.573)" fill="#143860"/>
  <path id="Path_10781" data-name="Path 10781" d="M298.269,157.129h-11.6l-15.992,39.278h60.077L311.35,177l19.869-19.869Z" transform="translate(-38.886 -22.573)" fill="#143860"/>
  <g id="Group_912" data-name="Group 912" transform="translate(0)">
    <g id="Group_911" data-name="Group 911" clip-path="url(#clip-path)">
      <path id="Path_10782" data-name="Path 10782" d="M152.566,216.082A108.041,108.041,0,1,1,260.607,108.041,108.164,108.164,0,0,1,152.566,216.082m0-207.519a99.478,99.478,0,1,0,99.478,99.478A99.59,99.59,0,0,0,152.566,8.563" transform="translate(-6.396)" fill="#15467a"/>
      <rect id="Rectangle_914" data-name="Rectangle 914" width="227.369" height="36.202" transform="translate(32.585 119.072)" fill="#15467a"/>
      <path id="Path_10783" data-name="Path 10783" d="M154.137,213.5h-4.3c-.073-.894-.145-1.779-.218-2.689-.149-.007-.276-.018-.4-.018-1.975,0-3.95.005-5.925-.008a.508.508,0,0,0-.564.337c-.3.717-.626,1.424-.957,2.129-.05.107-.179.251-.272.252-1.363.017-2.727.012-4.118.012a1.722,1.722,0,0,1,.058-.283,32.942,32.942,0,0,1,9.066-13.047,10.355,10.355,0,0,1,4.213-2.355,5.172,5.172,0,0,1,1.381-.151c.457.012.647.229.693.689.131,1.318.246,2.638.364,3.957q.38,4.249.756,8.5c.078.878.151,1.756.229,2.677m-4.776-6.15c-.118-1.58-.233-3.113-.349-4.646l-.139-.075a23.375,23.375,0,0,0-3.987,4.721Z" transform="translate(-19.736 -28.398)" fill="#01457b"/>
      <path id="Path_10784" data-name="Path 10784" d="M194.913,202.1a6.193,6.193,0,0,1,6.432,6.107,6.105,6.105,0,0,1-5.51,5.96,6.251,6.251,0,0,1-6.566-3.9,6.044,6.044,0,0,1,4.609-8.036c.408-.075.824-.1,1.035-.128m.184,8.639a2.583,2.583,0,1,0-2.509-2.573,2.515,2.515,0,0,0,2.509,2.573" transform="translate(-27.135 -29.034)" fill="#01457b"/>
      <path id="Path_10785" data-name="Path 10785" d="M186.148,202.262a12.317,12.317,0,0,1-.668,3.512,13.929,13.929,0,0,1-4.617,6.835,7.381,7.381,0,0,1-4.144,1.617,3.107,3.107,0,0,1-.543-.007.632.632,0,0,1-.615-.633c-.113-1.267-.241-2.534-.358-3.8q-.316-3.413-.626-6.828c-.02-.217-.027-.434-.041-.674h3.9c.179,2.351.359,4.708.546,7.164a4.416,4.416,0,0,0,.432-.319,8.735,8.735,0,0,0,2.158-4c.235-.848.366-1.724.563-2.583.026-.11.169-.274.259-.276,1.232-.018,2.465-.012,3.752-.012" transform="translate(-25.074 -29.057)" fill="#01457b"/>
      <path id="Path_10786" data-name="Path 10786" d="M166.849,202.285h3.961c-.139.809-.223,1.6-.414,2.355a14.348,14.348,0,0,1-4.527,7.649,7.571,7.571,0,0,1-4.537,1.94,3.152,3.152,0,0,1-.467.008c-.463-.042-.655-.216-.7-.676q-.224-2.248-.426-4.5-.3-3.26-.586-6.52c-.007-.075,0-.152,0-.253h3.891c.178,2.354.356,4.7.542,7.162a4.444,4.444,0,0,0,.448-.332,8.092,8.092,0,0,0,2-3.52c.32-1.077.545-2.183.82-3.313" transform="translate(-22.863 -29.06)" fill="#01457b"/>
      <path id="Path_10787" data-name="Path 10787" d="M127.684,45.41h5.63a9.93,9.93,0,0,1,2.107.216,5,5,0,0,1,1.747.719,3.587,3.587,0,0,1,1.193,1.356,4.6,4.6,0,0,1,.441,2.127,4.266,4.266,0,0,1-.8,2.62,3.609,3.609,0,0,1-2.343,1.368l3.7,6.145h-3.843l-3.042-5.816H130.89v5.816h-3.206Zm3.206,6.022h1.89c.288,0,.593-.011.915-.031a2.9,2.9,0,0,0,.873-.185,1.518,1.518,0,0,0,.647-.483,1.476,1.476,0,0,0,.257-.925,1.547,1.547,0,0,0-.225-.885,1.53,1.53,0,0,0-.576-.5,2.57,2.57,0,0,0-.8-.235,6.547,6.547,0,0,0-.884-.062h-2.1Z" transform="translate(-18.343 -6.524)" fill="#ed5756"/>
      <path id="Path_10788" data-name="Path 10788" d="M151.46,58.959a4.916,4.916,0,0,1-1.869,1.459,5.606,5.606,0,0,1-2.344.514,6.3,6.3,0,0,1-2.168-.37,5.2,5.2,0,0,1-1.767-1.058,4.961,4.961,0,0,1-1.183-1.654,5.621,5.621,0,0,1,0-4.316,4.97,4.97,0,0,1,1.183-1.654,5.215,5.215,0,0,1,1.767-1.058,6.3,6.3,0,0,1,2.168-.37,4.94,4.94,0,0,1,1.943.37,4.048,4.048,0,0,1,1.479,1.058,4.852,4.852,0,0,1,.937,1.654,6.723,6.723,0,0,1,.329,2.158v.966h-7.153a2.434,2.434,0,0,0,.8,1.408,2.263,2.263,0,0,0,1.519.524,2.315,2.315,0,0,0,1.285-.339,3.444,3.444,0,0,0,.915-.873Zm-2.609-4.4a1.789,1.789,0,0,0-.514-1.336,1.828,1.828,0,0,0-1.378-.555,2.318,2.318,0,0,0-.9.164,2.247,2.247,0,0,0-.667.422,1.818,1.818,0,0,0-.432.6,1.949,1.949,0,0,0-.175.709Z" transform="translate(-20.356 -7.248)" fill="#ed5756"/>
      <path id="Path_10789" data-name="Path 10789" d="M153.89,50.738h3.329l2.528,6.782h.041l2.343-6.782h3.1l-3.945,9.988h-3.269Z" transform="translate(-22.108 -7.289)" fill="#ed5756"/>
      <path id="Path_10790" data-name="Path 10790" d="M167.5,46.766a1.788,1.788,0,1,1,.523,1.264,1.725,1.725,0,0,1-.523-1.264m.247,3.144h3.083V59.9h-3.083Z" transform="translate(-24.063 -6.462)" fill="#ed5756"/>
      <path id="Path_10791" data-name="Path 10791" d="M182.661,58.959a4.913,4.913,0,0,1-1.87,1.459,5.6,5.6,0,0,1-2.343.514,6.29,6.29,0,0,1-2.167-.37,5.209,5.209,0,0,1-1.768-1.058,4.959,4.959,0,0,1-1.182-1.654,5.611,5.611,0,0,1,0-4.316,4.968,4.968,0,0,1,1.182-1.654,5.223,5.223,0,0,1,1.768-1.058,6.291,6.291,0,0,1,2.167-.37,4.932,4.932,0,0,1,1.942.37,4.044,4.044,0,0,1,1.48,1.058,4.836,4.836,0,0,1,.936,1.654,6.7,6.7,0,0,1,.329,2.158v.966h-7.153a2.438,2.438,0,0,0,.8,1.408,2.264,2.264,0,0,0,1.52.524,2.314,2.314,0,0,0,1.285-.339,3.441,3.441,0,0,0,.915-.873Zm-2.61-4.4a1.786,1.786,0,0,0-.514-1.336,1.827,1.827,0,0,0-1.377-.555,2.318,2.318,0,0,0-.9.164,2.262,2.262,0,0,0-.668.422,1.843,1.843,0,0,0-.432.6,1.966,1.966,0,0,0-.175.709Z" transform="translate(-24.839 -7.248)" fill="#ed5756"/>
      <path id="Path_10792" data-name="Path 10792" d="M184.923,50.738h3.288l2.035,6.268h.041l1.706-6.268h3.371l1.851,6.268h.04l1.87-6.268h3.124l-3.556,9.988h-3.042l-2.076-6.638h-.041l-1.85,6.638h-3.1Z" transform="translate(-26.566 -7.289)" fill="#ed5756"/>
      <path id="Path_10793" data-name="Path 10793" d="M211.138,53.636a2.184,2.184,0,0,0-1.788-.842,1.678,1.678,0,0,0-.76.184.654.654,0,0,0-.37.638.57.57,0,0,0,.38.544,5.086,5.086,0,0,0,.966.309q.586.132,1.254.288a4.691,4.691,0,0,1,1.254.482,2.814,2.814,0,0,1,.966.894,2.668,2.668,0,0,1,.38,1.511A2.793,2.793,0,0,1,213,59.236a3.232,3.232,0,0,1-1.079,1.007,4.635,4.635,0,0,1-1.48.534,8.8,8.8,0,0,1-1.624.155,7.851,7.851,0,0,1-2.117-.3,3.957,3.957,0,0,1-1.809-1.058l1.87-2.077a3.091,3.091,0,0,0,.956.812,2.576,2.576,0,0,0,1.223.277,2.836,2.836,0,0,0,.966-.154.567.567,0,0,0,.431-.565.626.626,0,0,0-.379-.586,4.177,4.177,0,0,0-.966-.329l-1.254-.288a5.2,5.2,0,0,1-1.255-.462,2.614,2.614,0,0,1-.965-.873,2.667,2.667,0,0,1-.38-1.511,3.048,3.048,0,0,1,.36-1.521,3.151,3.151,0,0,1,.945-1.048,4.091,4.091,0,0,1,1.346-.606,6.169,6.169,0,0,1,1.541-.2,7.263,7.263,0,0,1,1.994.288,3.7,3.7,0,0,1,1.706,1.028Z" transform="translate(-29.434 -7.248)" fill="#ed5756"/>
      <path id="Path_10794" data-name="Path 10794" d="M101.013,118.878a3.93,3.93,0,0,1,.324-1.618,3.726,3.726,0,0,1,.886-1.241,3.928,3.928,0,0,1,1.326-.794,4.9,4.9,0,0,1,3.252,0,3.928,3.928,0,0,1,1.326.794,3.726,3.726,0,0,1,.886,1.241,4.21,4.21,0,0,1,0,3.238,3.722,3.722,0,0,1-.886,1.24,3.93,3.93,0,0,1-1.326.795,4.919,4.919,0,0,1-3.252,0,3.93,3.93,0,0,1-1.326-.795,3.722,3.722,0,0,1-.886-1.24,3.932,3.932,0,0,1-.324-1.619m2.312,0a1.942,1.942,0,0,0,.486,1.373,2.04,2.04,0,0,0,2.728,0,2.182,2.182,0,0,0,0-2.745,2.037,2.037,0,0,0-2.728,0,1.941,1.941,0,0,0-.486,1.372" transform="translate(-14.511 -16.513)" fill="#9b9b9b"/>
      <path id="Path_10795" data-name="Path 10795" d="M118.991,122.654h-2.22v-1.016h-.031a2.589,2.589,0,0,1-.316.431,2.077,2.077,0,0,1-.47.386,2.768,2.768,0,0,1-.632.277,2.636,2.636,0,0,1-.771.108,3.236,3.236,0,0,1-1.426-.27,2.04,2.04,0,0,1-.848-.748,2.931,2.931,0,0,1-.4-1.125,9.19,9.19,0,0,1-.1-1.4v-4.131h2.312v3.669q0,.324.023.671a2.109,2.109,0,0,0,.139.64.994.994,0,0,0,1.04.663,1.427,1.427,0,0,0,.724-.162,1.1,1.1,0,0,0,.424-.432,1.765,1.765,0,0,0,.193-.608,5.258,5.258,0,0,0,.046-.71v-3.73h2.312Z" transform="translate(-16.058 -16.544)" fill="#9b9b9b"/>
      <path id="Path_10796" data-name="Path 10796" d="M126.55,116.64h-2.035v2.5a4.7,4.7,0,0,0,.031.563,1.134,1.134,0,0,0,.139.439.7.7,0,0,0,.331.285,1.47,1.47,0,0,0,.593.1,4,4,0,0,0,.486-.039.817.817,0,0,0,.455-.177v1.927a3.454,3.454,0,0,1-.8.185,7.4,7.4,0,0,1-.817.046,4.444,4.444,0,0,1-1.079-.123,2.461,2.461,0,0,1-.863-.393,1.841,1.841,0,0,1-.578-.7,2.4,2.4,0,0,1-.208-1.048V116.64h-1.48v-1.85h1.48v-2.22h2.312v2.22h2.035Z" transform="translate(-17.343 -16.172)" fill="#9b9b9b"/>
      <path id="Path_10797" data-name="Path 10797" d="M132.819,118.878a3.93,3.93,0,0,1,.324-1.618,3.726,3.726,0,0,1,.886-1.241,3.928,3.928,0,0,1,1.326-.794,4.9,4.9,0,0,1,3.252,0,3.928,3.928,0,0,1,1.326.794,3.725,3.725,0,0,1,.886,1.241,4.21,4.21,0,0,1,0,3.238,3.722,3.722,0,0,1-.886,1.24,3.93,3.93,0,0,1-1.326.795,4.919,4.919,0,0,1-3.252,0,3.93,3.93,0,0,1-1.326-.795,3.722,3.722,0,0,1-.886-1.24,3.932,3.932,0,0,1-.324-1.619m2.312,0a1.942,1.942,0,0,0,.486,1.373,2.04,2.04,0,0,0,2.728,0,2.182,2.182,0,0,0,0-2.745,2.037,2.037,0,0,0-2.728,0,1.941,1.941,0,0,0-.486,1.372" transform="translate(-19.081 -16.513)" fill="#9b9b9b"/>
      <path id="Path_10798" data-name="Path 10798" d="M144.263,116.283h-1.526v-1.85h1.526v-1.326a6,6,0,0,1,.108-1.163,2.341,2.341,0,0,1,.416-.963,2.033,2.033,0,0,1,.886-.656,4.034,4.034,0,0,1,1.518-.239q.355,0,.694.031a4.693,4.693,0,0,1,.663.108l-.108,1.958a2.717,2.717,0,0,0-.37-.116,1.752,1.752,0,0,0-.385-.039,1.243,1.243,0,0,0-.832.24,1.282,1.282,0,0,0-.277.978v1.187h1.711v1.85h-1.711v5.642h-2.312Z" transform="translate(-20.506 -15.815)" fill="#9b9b9b"/>
      <path id="Path_10799" data-name="Path 10799" d="M158.732,119.891h-4.763v-1.942l4.455-6.782h2.528v6.782h1.4v1.942h-1.4v2.189h-2.22Zm0-5.7H158.7l-2.42,3.761h2.451Z" transform="translate(-22.119 -15.97)" fill="#9b9b9b"/>
      <path id="Path_10800" data-name="Path 10800" d="M164.684,113.957a2.878,2.878,0,0,1,.285-1.317,2.674,2.674,0,0,1,.787-.941,3.466,3.466,0,0,1,1.163-.563,5.532,5.532,0,0,1,2.837,0,3.388,3.388,0,0,1,1.155.563,2.725,2.725,0,0,1,1.079,2.258,2.428,2.428,0,0,1-.485,1.526,2.594,2.594,0,0,1-1.365.894v.031a2.557,2.557,0,0,1,2.035,2.651,2.948,2.948,0,0,1-.315,1.387,2.868,2.868,0,0,1-.849.994,3.83,3.83,0,0,1-1.225.594,5.361,5.361,0,0,1-2.9,0,3.83,3.83,0,0,1-1.225-.594,2.874,2.874,0,0,1-.848-.994,2.938,2.938,0,0,1-.316-1.387,2.56,2.56,0,0,1,2.035-2.651v-.031a2.591,2.591,0,0,1-1.364-.894,2.429,2.429,0,0,1-.486-1.526m2.127,4.778a1.3,1.3,0,0,0,.417.972,1.736,1.736,0,0,0,2.219,0,1.3,1.3,0,0,0,.417-.972,1.311,1.311,0,0,0-.417-.986,1.733,1.733,0,0,0-2.219,0,1.311,1.311,0,0,0-.417.986m.185-4.454a1.153,1.153,0,0,0,.371.863,1.506,1.506,0,0,0,1.941,0,1.152,1.152,0,0,0,.37-.863,1.132,1.132,0,0,0-.37-.848,1.506,1.506,0,0,0-1.941,0,1.133,1.133,0,0,0-.371.848" transform="translate(-23.632 -15.939)" fill="#9b9b9b"/>
      <path id="Path_10801" data-name="Path 10801" d="M179.511,115.132h2.312v1.2h.031a2.834,2.834,0,0,1,.879-1.04,2.219,2.219,0,0,1,1.279-.347c.134,0,.266.005.4.016a1.929,1.929,0,0,1,.37.061v2.112a3.523,3.523,0,0,0-.486-.116,3.256,3.256,0,0,0-.5-.039,2.457,2.457,0,0,0-1.048.185,1.4,1.4,0,0,0-.593.516,1.963,1.963,0,0,0-.271.794,7.9,7.9,0,0,0-.061,1.018v3.128h-2.312Z" transform="translate(-25.788 -16.513)" fill="#9b9b9b"/>
      <path id="Path_10802" data-name="Path 10802" d="M193.025,121.329a3.694,3.694,0,0,1-1.4,1.094,4.2,4.2,0,0,1-1.756.384,4.73,4.73,0,0,1-1.627-.277,3.947,3.947,0,0,1-1.326-.795,3.746,3.746,0,0,1-.886-1.24,4.208,4.208,0,0,1,0-3.237,3.753,3.753,0,0,1,.886-1.242,3.929,3.929,0,0,1,1.326-.793,4.73,4.73,0,0,1,1.627-.278,3.7,3.7,0,0,1,1.457.278,3.038,3.038,0,0,1,1.11.793,3.633,3.633,0,0,1,.7,1.242,5,5,0,0,1,.247,1.618v.725h-5.364a1.82,1.82,0,0,0,.6,1.055,1.7,1.7,0,0,0,1.141.393,1.732,1.732,0,0,0,.963-.254,2.613,2.613,0,0,0,.686-.654Zm-1.958-3.3a1.344,1.344,0,0,0-.385-1,1.374,1.374,0,0,0-1.033-.415,1.749,1.749,0,0,0-.678.122,1.724,1.724,0,0,0-.5.316,1.4,1.4,0,0,0-.324.448,1.446,1.446,0,0,0-.131.532Z" transform="translate(-26.678 -16.513)" fill="#9b9b9b"/>
      <path id="Path_10803" data-name="Path 10803" d="M194.847,115.163h2.5l1.9,5.087h.031l1.757-5.087h2.328l-2.96,7.491h-2.45Z" transform="translate(-27.992 -16.544)" fill="#9b9b9b"/>
      <path id="Path_10804" data-name="Path 10804" d="M205.054,112.184a1.342,1.342,0,1,1,.393.948,1.289,1.289,0,0,1-.393-.948m.185,2.358h2.312v7.491h-2.312Z" transform="translate(-29.458 -15.924)" fill="#9b9b9b"/>
      <path id="Path_10805" data-name="Path 10805" d="M216.426,121.329a3.694,3.694,0,0,1-1.4,1.094,4.2,4.2,0,0,1-1.756.384,4.73,4.73,0,0,1-1.627-.277,3.947,3.947,0,0,1-1.326-.795,3.746,3.746,0,0,1-.886-1.24,4.208,4.208,0,0,1,0-3.237,3.753,3.753,0,0,1,.886-1.242,3.929,3.929,0,0,1,1.326-.793,4.73,4.73,0,0,1,1.627-.278,3.7,3.7,0,0,1,1.457.278,3.038,3.038,0,0,1,1.11.793,3.633,3.633,0,0,1,.7,1.242,5,5,0,0,1,.247,1.618v.725h-5.364a1.82,1.82,0,0,0,.6,1.055,1.7,1.7,0,0,0,1.141.393,1.732,1.732,0,0,0,.963-.254,2.614,2.614,0,0,0,.686-.654Zm-1.958-3.3a1.344,1.344,0,0,0-.385-1,1.374,1.374,0,0,0-1.033-.415,1.749,1.749,0,0,0-.678.122,1.724,1.724,0,0,0-.5.316,1.4,1.4,0,0,0-.324.448,1.446,1.446,0,0,0-.131.532Z" transform="translate(-30.04 -16.513)" fill="#9b9b9b"/>
      <path id="Path_10806" data-name="Path 10806" d="M218.122,115.163h2.466l1.526,4.7h.031l1.279-4.7h2.529l1.387,4.7h.031l1.4-4.7h2.343l-2.667,7.491h-2.281l-1.557-4.978h-.031l-1.387,4.978h-2.328Z" transform="translate(-31.335 -16.544)" fill="#9b9b9b"/>
      <path id="Path_10807" data-name="Path 10807" d="M237.784,117.336a1.637,1.637,0,0,0-1.341-.632,1.259,1.259,0,0,0-.57.139.491.491,0,0,0-.278.478.431.431,0,0,0,.285.408,3.723,3.723,0,0,0,.725.231l.94.216a3.527,3.527,0,0,1,.939.362,2.1,2.1,0,0,1,.725.671,2,2,0,0,1,.285,1.132,2.1,2.1,0,0,1-.316,1.195,2.432,2.432,0,0,1-.809.755,3.488,3.488,0,0,1-1.11.4,6.6,6.6,0,0,1-1.218.116,5.9,5.9,0,0,1-1.589-.224,2.97,2.97,0,0,1-1.356-.794l1.4-1.557a2.317,2.317,0,0,0,.717.609,1.931,1.931,0,0,0,.916.208,2.145,2.145,0,0,0,.725-.116.426.426,0,0,0,.324-.424.47.47,0,0,0-.285-.439,3.137,3.137,0,0,0-.724-.247l-.94-.216a3.885,3.885,0,0,1-.94-.347,1.967,1.967,0,0,1-.724-.655,1.993,1.993,0,0,1-.285-1.133,2.284,2.284,0,0,1,.27-1.141,2.37,2.37,0,0,1,.709-.786,3.071,3.071,0,0,1,1.009-.455,4.683,4.683,0,0,1,1.157-.146,5.428,5.428,0,0,1,1.5.216,2.766,2.766,0,0,1,1.279.771Z" transform="translate(-33.487 -16.513)" fill="#9b9b9b"/>
      <path id="Path_10808" data-name="Path 10808" d="M98.694,75l2.584,5.234a.449.449,0,0,0,.337.246l5.777.839a.449.449,0,0,1,.248.766l-4.18,4.074a.448.448,0,0,0-.129.4l.987,5.753a.449.449,0,0,1-.652.473L98.5,90.063a.451.451,0,0,0-.418,0l-5.166,2.716a.448.448,0,0,1-.651-.473l.987-5.753a.448.448,0,0,0-.129-.4l-4.18-4.074a.449.449,0,0,1,.249-.766l5.776-.839a.45.45,0,0,0,.338-.246L97.889,75a.449.449,0,0,1,.8,0" transform="translate(-12.758 -10.738)" fill="#f89738"/>
      <path id="Path_10809" data-name="Path 10809" d="M133.694,75l2.584,5.234a.449.449,0,0,0,.337.246l5.777.839a.449.449,0,0,1,.248.766l-4.18,4.074a.448.448,0,0,0-.129.4l.987,5.753a.449.449,0,0,1-.652.473L133.5,90.063a.45.45,0,0,0-.418,0l-5.166,2.716a.448.448,0,0,1-.651-.473l.987-5.753a.448.448,0,0,0-.129-.4l-4.18-4.074a.449.449,0,0,1,.249-.766l5.776-.839a.45.45,0,0,0,.338-.246L132.889,75a.449.449,0,0,1,.8,0" transform="translate(-17.786 -10.738)" fill="#f89738"/>
      <path id="Path_10810" data-name="Path 10810" d="M168.694,75l2.584,5.234a.449.449,0,0,0,.337.246l5.777.839a.449.449,0,0,1,.248.766l-4.18,4.074a.448.448,0,0,0-.129.4l.987,5.753a.449.449,0,0,1-.652.473L168.5,90.063a.45.45,0,0,0-.418,0l-5.166,2.716a.448.448,0,0,1-.651-.473l.987-5.753a.448.448,0,0,0-.129-.4l-4.18-4.074a.449.449,0,0,1,.249-.766l5.776-.839a.45.45,0,0,0,.338-.246L167.889,75a.449.449,0,0,1,.8,0" transform="translate(-22.814 -10.738)" fill="#f89738"/>
      <path id="Path_10811" data-name="Path 10811" d="M203.694,75l2.584,5.234a.449.449,0,0,0,.337.246l5.777.839a.449.449,0,0,1,.248.766l-4.18,4.074a.448.448,0,0,0-.129.4l.987,5.753a.449.449,0,0,1-.652.473L203.5,90.063a.45.45,0,0,0-.418,0l-5.166,2.716a.448.448,0,0,1-.651-.473l.987-5.753a.448.448,0,0,0-.129-.4l-4.18-4.074a.449.449,0,0,1,.249-.766l5.776-.839a.45.45,0,0,0,.338-.246L202.889,75a.449.449,0,0,1,.8,0" transform="translate(-27.842 -10.738)" fill="#f89738"/>
      <path id="Path_10812" data-name="Path 10812" d="M238.292,76.117l2.217,4.493a1.307,1.307,0,0,0,.983.714l4.959.72-3.587,3.5a1.306,1.306,0,0,0-.377,1.156l.848,4.939L238.9,89.3a1.3,1.3,0,0,0-1.213,0l-4.436,2.332L234.1,86.7a1.3,1.3,0,0,0-.375-1.155l-3.588-3.5,4.959-.72a1.305,1.305,0,0,0,.982-.714Zm0-1.37a.444.444,0,0,0-.4.25l-2.583,5.235a.447.447,0,0,1-.338.245l-5.776.839a.449.449,0,0,0-.249.766l4.18,4.074a.448.448,0,0,1,.129.4l-.987,5.753a.447.447,0,0,0,.651.473l5.166-2.716a.45.45,0,0,1,.418,0l5.166,2.716a.447.447,0,0,0,.651-.473l-.986-5.753a.448.448,0,0,1,.129-.4l4.18-4.074a.449.449,0,0,0-.249-.766l-5.776-.839a.447.447,0,0,1-.338-.245L238.694,75a.444.444,0,0,0-.4-.25" transform="translate(-32.87 -10.738)" fill="#f89738"/>
      <path id="Path_10813" data-name="Path 10813" d="M238.291,74.747a.443.443,0,0,0-.4.25l-2.584,5.235a.449.449,0,0,1-.337.245l-5.777.839a.449.449,0,0,0-.248.766l4.18,4.074a.45.45,0,0,1,.129.4l-.987,5.753a.449.449,0,0,0,.651.473l5.167-2.716a.449.449,0,0,1,.209-.051Z" transform="translate(-32.87 -10.738)" fill="#f89738"/>
      <path id="Path_10814" data-name="Path 10814" d="M88.973,155.054H92.38a9.73,9.73,0,0,1,2.351.277,5.386,5.386,0,0,1,1.944.895,4.387,4.387,0,0,1,1.317,1.609,5.389,5.389,0,0,1,.488,2.4,4.893,4.893,0,0,1-.474,2.205,4.733,4.733,0,0,1-1.273,1.6,5.64,5.64,0,0,1-1.849.983,7.2,7.2,0,0,1-2.2.335H88.973Zm2.271,8.211h1.179a6.37,6.37,0,0,0,1.463-.159,3.138,3.138,0,0,0,1.172-.532,2.548,2.548,0,0,0,.778-.975,3.464,3.464,0,0,0,.284-1.479,2.884,2.884,0,0,0-.284-1.317,2.623,2.623,0,0,0-.764-.924,3.353,3.353,0,0,0-1.129-.546,5.029,5.029,0,0,0-1.361-.182H91.244Z" transform="translate(-12.782 -22.275)" fill="#fff"/>
      <path id="Path_10815" data-name="Path 10815" d="M108.213,164.652a3.486,3.486,0,0,1-1.325,1.034,3.971,3.971,0,0,1-1.66.364,4.461,4.461,0,0,1-1.536-.262,3.682,3.682,0,0,1-1.252-.75,3.515,3.515,0,0,1-.837-1.171,3.974,3.974,0,0,1,0-3.057,3.527,3.527,0,0,1,.837-1.172,3.694,3.694,0,0,1,1.252-.749,4.461,4.461,0,0,1,1.536-.262,3.491,3.491,0,0,1,1.375.262,2.855,2.855,0,0,1,1.048.749,3.4,3.4,0,0,1,.663,1.172,4.732,4.732,0,0,1,.233,1.529v.683h-5.066a1.728,1.728,0,0,0,.568,1,1.6,1.6,0,0,0,1.077.372,1.643,1.643,0,0,0,.91-.241,2.461,2.461,0,0,0,.647-.618Zm-1.849-3.115a1.264,1.264,0,0,0-.364-.946,1.3,1.3,0,0,0-.975-.393,1.595,1.595,0,0,0-1.114.414,1.324,1.324,0,0,0-.306.423,1.381,1.381,0,0,0-.123.5Z" transform="translate(-14.552 -22.788)" fill="#fff"/>
      <path id="Path_10816" data-name="Path 10816" d="M111.548,154.239h2.184v4.688h.029a2.044,2.044,0,0,1,.969-.721,3.755,3.755,0,0,1,1.273-.211,2.879,2.879,0,0,1,1.354.313,3.144,3.144,0,0,1,1.012.838,3.928,3.928,0,0,1,.641,1.2,4.476,4.476,0,0,1,.225,1.419,4.2,4.2,0,0,1-.247,1.47,3.378,3.378,0,0,1-.706,1.158,3.168,3.168,0,0,1-1.1.757,3.658,3.658,0,0,1-1.427.269,2.419,2.419,0,0,1-.713-.1,3.017,3.017,0,0,1-.618-.262,2.52,2.52,0,0,1-.495-.357,2.4,2.4,0,0,1-.343-.384h-.029v.932h-2.009Zm2.009,7.469a1.829,1.829,0,0,0,.459,1.295,1.923,1.923,0,0,0,2.576,0,2.058,2.058,0,0,0,0-2.591,1.923,1.923,0,0,0-2.576,0,1.831,1.831,0,0,0-.459,1.3" transform="translate(-16.025 -22.158)" fill="#fff"/>
      <path id="Path_10817" data-name="Path 10817" d="M122.02,158.8H124.2v1.135h.029a2.683,2.683,0,0,1,.83-.982,2.1,2.1,0,0,1,1.208-.328c.126,0,.253.005.379.015a1.857,1.857,0,0,1,.349.059v1.994a3.219,3.219,0,0,0-.458-.109,3.017,3.017,0,0,0-.474-.037,2.323,2.323,0,0,0-.99.175,1.318,1.318,0,0,0-.56.487,1.858,1.858,0,0,0-.255.749,7.377,7.377,0,0,0-.058.963v2.955H122.02Z" transform="translate(-17.529 -22.788)" fill="#fff"/>
      <path id="Path_10818" data-name="Path 10818" d="M133.321,164.988h-.029a2.055,2.055,0,0,1-.969.814,3.3,3.3,0,0,1-1.273.247,3.25,3.25,0,0,1-.954-.139,2.353,2.353,0,0,1-.808-.414,2,2,0,0,1-.553-.684,2.087,2.087,0,0,1-.2-.947,2.184,2.184,0,0,1,.225-1.034,2.023,2.023,0,0,1,.612-.7,3.032,3.032,0,0,1,.88-.431,6.66,6.66,0,0,1,1.026-.226,10.1,10.1,0,0,1,1.063-.086c.355-.01.682-.015.983-.015a1.139,1.139,0,0,0-.414-.925,1.5,1.5,0,0,0-.983-.342,2.153,2.153,0,0,0-.982.225,2.677,2.677,0,0,0-.794.619l-1.165-1.194a4.006,4.006,0,0,1,1.427-.852,5.144,5.144,0,0,1,1.689-.283,4.374,4.374,0,0,1,1.579.241,2.279,2.279,0,0,1,.991.7,2.733,2.733,0,0,1,.516,1.142,7.529,7.529,0,0,1,.146,1.566v3.595h-2.009Zm-.539-2.214c-.165,0-.372.008-.619.021a3.149,3.149,0,0,0-.713.125,1.587,1.587,0,0,0-.581.3.709.709,0,0,0-.241.569.623.623,0,0,0,.335.582,1.389,1.389,0,0,0,.7.19,2.169,2.169,0,0,0,.619-.088,1.835,1.835,0,0,0,.531-.247,1.2,1.2,0,0,0,.371-.407,1.175,1.175,0,0,0,.139-.583v-.466Z" transform="translate(-18.465 -22.788)" fill="#fff"/>
      <path id="Path_10819" data-name="Path 10819" d="M143.423,155.055h3.989a7.044,7.044,0,0,1,1.493.153,3.552,3.552,0,0,1,1.237.509,2.541,2.541,0,0,1,.845.962,3.264,3.264,0,0,1,.313,1.507,3.026,3.026,0,0,1-.568,1.856,2.557,2.557,0,0,1-1.66.968l2.62,4.354H148.97l-2.155-4.121h-1.121v4.121h-2.271Zm2.271,4.265h1.339c.2,0,.42-.008.647-.021a2,2,0,0,0,.619-.132,1.068,1.068,0,0,0,.459-.341,1.05,1.05,0,0,0,.182-.656,1.08,1.08,0,0,0-.16-.625,1.062,1.062,0,0,0-.408-.357,1.844,1.844,0,0,0-.568-.169,4.767,4.767,0,0,0-.626-.043h-1.485Z" transform="translate(-20.604 -22.275)" fill="#fff"/>
      <path id="Path_10820" data-name="Path 10820" d="M164.437,157.53a1.627,1.627,0,0,0-.749-.517,2.719,2.719,0,0,0-.9-.167,2.369,2.369,0,0,0-.51.059,1.916,1.916,0,0,0-.495.182,1.072,1.072,0,0,0-.378.327.833.833,0,0,0-.146.495.82.82,0,0,0,.349.713,3.254,3.254,0,0,0,.88.422c.355.116.736.233,1.143.349a4.756,4.756,0,0,1,1.142.495,2.707,2.707,0,0,1,.881.86,2.615,2.615,0,0,1,.349,1.44,3.315,3.315,0,0,1-.32,1.5,3.031,3.031,0,0,1-.867,1.063,3.674,3.674,0,0,1-1.266.626,5.815,5.815,0,0,1-3.384-.1,4.687,4.687,0,0,1-1.6-.99l1.616-1.777a2.358,2.358,0,0,0,.88.721,2.524,2.524,0,0,0,1.1.254,2.5,2.5,0,0,0,.56-.065,1.8,1.8,0,0,0,.51-.2,1.082,1.082,0,0,0,.363-.334.833.833,0,0,0,.14-.48.873.873,0,0,0-.357-.735,3.3,3.3,0,0,0-.895-.459q-.539-.189-1.165-.379a5.191,5.191,0,0,1-1.165-.51,2.79,2.79,0,0,1-.895-.844,2.413,2.413,0,0,1-.357-1.383,3.1,3.1,0,0,1,.328-1.456,3.18,3.18,0,0,1,.873-1.048,3.783,3.783,0,0,1,1.26-.633,5.168,5.168,0,0,1,1.47-.211,5.8,5.8,0,0,1,1.69.247,3.894,3.894,0,0,1,1.469.831Z" transform="translate(-22.78 -22.231)" fill="#fff"/>
      <path id="Path_10821" data-name="Path 10821" d="M173.659,161.085a1.232,1.232,0,0,0-.451-.385,1.33,1.33,0,0,0-.626-.153,1.672,1.672,0,0,0-1.289.495,2.061,2.061,0,0,0,0,2.591,1.669,1.669,0,0,0,1.289.495,1.176,1.176,0,0,0,.626-.16,1.89,1.89,0,0,0,.451-.379L175.1,165.1a2.787,2.787,0,0,1-1.2.736,4.519,4.519,0,0,1-1.317.211,4.464,4.464,0,0,1-1.536-.262,3.69,3.69,0,0,1-1.252-.75,3.5,3.5,0,0,1-.837-1.171,3.972,3.972,0,0,1,0-3.056,3.507,3.507,0,0,1,.837-1.172,3.7,3.7,0,0,1,1.252-.749,4.444,4.444,0,0,1,1.536-.263,4.519,4.519,0,0,1,1.317.211,2.8,2.8,0,0,1,1.2.736Z" transform="translate(-24.228 -22.788)" fill="#fff"/>
      <path id="Path_10822" data-name="Path 10822" d="M179.284,154.239v4.891h.029a1.351,1.351,0,0,1,.247-.408,1.962,1.962,0,0,1,.421-.362,2.33,2.33,0,0,1,.583-.263,2.5,2.5,0,0,1,.728-.1,3,3,0,0,1,1.339.255,1.932,1.932,0,0,1,.793.706,2.844,2.844,0,0,1,.386,1.063,8.111,8.111,0,0,1,.1,1.325v3.9h-2.185V161.78c0-.2-.006-.415-.021-.634a2.016,2.016,0,0,0-.13-.6.942.942,0,0,0-.983-.625,1.344,1.344,0,0,0-.685.153,1.04,1.04,0,0,0-.4.407,1.65,1.65,0,0,0-.182.575,4.962,4.962,0,0,0-.044.67v3.524H177.1V154.239Z" transform="translate(-25.442 -22.158)" fill="#fff"/>
      <path id="Path_10823" data-name="Path 10823" d="M186.551,162.338a3.689,3.689,0,0,1,.307-1.529,3.515,3.515,0,0,1,.837-1.172,3.685,3.685,0,0,1,1.252-.749,4.617,4.617,0,0,1,3.072,0,3.693,3.693,0,0,1,1.252.749,3.515,3.515,0,0,1,.837,1.172,3.962,3.962,0,0,1,0,3.056,3.5,3.5,0,0,1-.837,1.171,3.682,3.682,0,0,1-1.252.75,4.632,4.632,0,0,1-3.072,0,3.674,3.674,0,0,1-1.252-.75,3.5,3.5,0,0,1-.837-1.171,3.691,3.691,0,0,1-.307-1.528m2.184,0a1.829,1.829,0,0,0,.459,1.295,1.924,1.924,0,0,0,2.577,0,2.061,2.061,0,0,0,0-2.591,1.924,1.924,0,0,0-2.577,0,1.832,1.832,0,0,0-.459,1.3" transform="translate(-26.8 -22.788)" fill="#fff"/>
      <path id="Path_10824" data-name="Path 10824" d="M203.887,164.652a3.48,3.48,0,0,1-1.325,1.034,3.97,3.97,0,0,1-1.659.364,4.461,4.461,0,0,1-1.536-.262,3.682,3.682,0,0,1-1.252-.75,3.517,3.517,0,0,1-.838-1.171,3.985,3.985,0,0,1,0-3.057,3.53,3.53,0,0,1,.838-1.172,3.694,3.694,0,0,1,1.252-.749,4.461,4.461,0,0,1,1.536-.262,3.494,3.494,0,0,1,1.375.262,2.856,2.856,0,0,1,1.048.749,3.416,3.416,0,0,1,.662,1.172,4.708,4.708,0,0,1,.234,1.529v.683h-5.066a1.719,1.719,0,0,0,.568,1,1.6,1.6,0,0,0,1.077.372,1.64,1.64,0,0,0,.909-.241,2.448,2.448,0,0,0,.647-.618Zm-1.849-3.115a1.26,1.26,0,0,0-.364-.946,1.294,1.294,0,0,0-.975-.393,1.636,1.636,0,0,0-.641.116,1.606,1.606,0,0,0-.473.3,1.323,1.323,0,0,0-.306.423,1.381,1.381,0,0,0-.123.5Z" transform="translate(-28.297 -22.788)" fill="#fff"/>
      <path id="Path_10825" data-name="Path 10825" d="M206.986,158.8h2.1v.961h.029a1.834,1.834,0,0,1,.291-.408,2.133,2.133,0,0,1,.452-.363,2.588,2.588,0,0,1,.6-.263,2.5,2.5,0,0,1,.728-.1,3.014,3.014,0,0,1,1.339.255,1.938,1.938,0,0,1,.793.706,2.87,2.87,0,0,1,.386,1.063,8.113,8.113,0,0,1,.1,1.325v3.9h-2.185V162.41c0-.2-.007-.415-.021-.633a2.03,2.03,0,0,0-.13-.6.941.941,0,0,0-.983-.626,1.35,1.35,0,0,0-.685.153,1.048,1.048,0,0,0-.4.407,1.674,1.674,0,0,0-.182.575,4.824,4.824,0,0,0-.044.67v3.524h-2.184Z" transform="translate(-29.736 -22.788)" fill="#fff"/>
      <path id="Path_10826" data-name="Path 10826" d="M216.981,154.239h2.185v4.688h.028a2.044,2.044,0,0,1,.969-.721,3.759,3.759,0,0,1,1.273-.211,2.883,2.883,0,0,1,1.355.313,3.141,3.141,0,0,1,1.011.838,3.91,3.91,0,0,1,.641,1.2,4.453,4.453,0,0,1,.226,1.419,4.218,4.218,0,0,1-.247,1.47,3.405,3.405,0,0,1-.706,1.158,3.18,3.18,0,0,1-1.1.757,3.655,3.655,0,0,1-1.427.269,2.419,2.419,0,0,1-.713-.1,3.057,3.057,0,0,1-.618-.262,2.513,2.513,0,0,1-.494-.357,2.449,2.449,0,0,1-.343-.384h-.028v.932h-2.01Zm2.01,7.469a1.828,1.828,0,0,0,.458,1.295,1.924,1.924,0,0,0,2.577,0,2.058,2.058,0,0,0,0-2.591,1.924,1.924,0,0,0-2.577,0,1.831,1.831,0,0,0-.458,1.3" transform="translate(-31.171 -22.158)" fill="#fff"/>
      <path id="Path_10827" data-name="Path 10827" d="M234.113,164.652a3.48,3.48,0,0,1-1.325,1.034,3.97,3.97,0,0,1-1.659.364,4.461,4.461,0,0,1-1.536-.262,3.682,3.682,0,0,1-1.252-.75,3.518,3.518,0,0,1-.838-1.171,3.985,3.985,0,0,1,0-3.057,3.53,3.53,0,0,1,.838-1.172,3.694,3.694,0,0,1,1.252-.749,4.461,4.461,0,0,1,1.536-.262,3.494,3.494,0,0,1,1.375.262,2.856,2.856,0,0,1,1.048.749,3.416,3.416,0,0,1,.662,1.172,4.708,4.708,0,0,1,.234,1.529v.683h-5.066a1.719,1.719,0,0,0,.568,1,1.6,1.6,0,0,0,1.077.372,1.64,1.64,0,0,0,.909-.241,2.448,2.448,0,0,0,.647-.618Zm-1.849-3.115a1.26,1.26,0,0,0-.364-.946,1.294,1.294,0,0,0-.975-.393,1.636,1.636,0,0,0-.641.116,1.606,1.606,0,0,0-.473.3,1.324,1.324,0,0,0-.306.423,1.382,1.382,0,0,0-.123.5Z" transform="translate(-32.639 -22.788)" fill="#fff"/>
      <path id="Path_10828" data-name="Path 10828" d="M237.212,158.8H239.4v1.135h.029a2.674,2.674,0,0,1,.83-.982,2.1,2.1,0,0,1,1.208-.328c.125,0,.252.005.378.015a1.845,1.845,0,0,1,.349.059v1.994a3.192,3.192,0,0,0-.458-.109,3,3,0,0,0-.473-.037,2.324,2.324,0,0,0-.991.175,1.318,1.318,0,0,0-.56.487,1.871,1.871,0,0,0-.255.749,7.386,7.386,0,0,0-.057.963v2.955h-2.184Z" transform="translate(-34.078 -22.788)" fill="#fff"/>
      <path id="Path_10829" data-name="Path 10829" d="M251.205,165.278a4.206,4.206,0,0,1-1.012,3.049,4.118,4.118,0,0,1-3.079,1.042,8.288,8.288,0,0,1-1.863-.212,4.23,4.23,0,0,1-1.689-.822l1.207-1.806a4.584,4.584,0,0,0,1.07.67,3.007,3.007,0,0,0,1.231.248,1.978,1.978,0,0,0,1.477-.489,1.712,1.712,0,0,0,.474-1.244v-.684h-.029a2.06,2.06,0,0,1-.939.721,3.008,3.008,0,0,1-1.055.211,3.636,3.636,0,0,1-1.427-.269,3.16,3.16,0,0,1-1.1-.758,3.372,3.372,0,0,1-.706-1.158,4.372,4.372,0,0,1-.021-2.838,3.731,3.731,0,0,1,.641-1.179,3.225,3.225,0,0,1,1.012-.823,2.874,2.874,0,0,1,1.354-.313,3.342,3.342,0,0,1,.851.1,3.306,3.306,0,0,1,.691.263,2.536,2.536,0,0,1,.525.356,2.217,2.217,0,0,1,.349.386h.028V158.8h2.01Zm-5.5-2.984a1.7,1.7,0,0,0,.5,1.215,1.914,1.914,0,0,0,.553.386,1.625,1.625,0,0,0,.691.146,1.645,1.645,0,0,0,.685-.146,1.889,1.889,0,0,0,.56-.386,1.716,1.716,0,0,0,0-2.43,1.889,1.889,0,0,0-.56-.386,1.645,1.645,0,0,0-.685-.146,1.625,1.625,0,0,0-.691.146,1.913,1.913,0,0,0-.553.386,1.7,1.7,0,0,0-.5,1.215" transform="translate(-34.984 -22.788)" fill="#fff"/>
      <path id="Path_10830" data-name="Path 10830" d="M37.72,181.322H54.337l3.959,7.216Z" transform="translate(-5.419 -26.049)" fill="#010101"/>
      <path id="Path_10831" data-name="Path 10831" d="M300.112,181.322H283.5l-3.959,7.216Z" transform="translate(-40.158 -26.049)" fill="#010101"/>
    </g>
  </g>
</svg>
