<svg id="Group_915" data-name="Group 915" xmlns="http://www.w3.org/2000/svg" xmlns:xlink="http://www.w3.org/1999/xlink" width="293.308" height="215.086" viewBox="0 0 293.308 215.086">
  <defs>
    <clipPath id="clip-path">
      <rect id="Rectangle_919" data-name="Rectangle 919" width="293.307" height="215.086" fill="none"/>
    </clipPath>
  </defs>
  <g id="Group_914" data-name="Group 914" clip-path="url(#clip-path)">
    <path id="Path_10832" data-name="Path 10832" d="M161.507,41.412h-4.4c-.075-.914-.148-1.819-.223-2.747-.153-.007-.282-.019-.41-.019-2.019,0-4.036,0-6.055-.008a.519.519,0,0,0-.576.344c-.308.732-.64,1.455-.977,2.175-.051.109-.183.256-.278.257-1.393.017-2.786.011-4.208.011a1.829,1.829,0,0,1,.059-.289A33.666,33.666,0,0,1,153.705,27.8a10.584,10.584,0,0,1,4.3-2.406,5.263,5.263,0,0,1,1.411-.153c.468.011.661.234.708.7.135,1.347.252,2.695.373,4.043q.388,4.343.773,8.685c.08.9.153,1.795.233,2.735m-4.88-6.285c-.121-1.614-.239-3.18-.355-4.747l-.143-.077a23.881,23.881,0,0,0-4.074,4.824Z" transform="translate(-27.195 -4.755)" fill="#01457b"/>
    <path id="Path_10833" data-name="Path 10833" d="M206.069,30.016a6.328,6.328,0,0,1,6.573,6.24,6.238,6.238,0,0,1-5.63,6.089,6.387,6.387,0,0,1-6.709-3.988,6.175,6.175,0,0,1,4.709-8.211c.417-.075.842-.1,1.058-.131m.188,8.827a2.64,2.64,0,1,0-2.563-2.63,2.569,2.569,0,0,0,2.563,2.63" transform="translate(-37.654 -5.654)" fill="#01457b"/>
    <path id="Path_10834" data-name="Path 10834" d="M196.306,30.186a12.644,12.644,0,0,1-.682,3.588,14.242,14.242,0,0,1-4.718,6.984,7.541,7.541,0,0,1-4.234,1.652,3.019,3.019,0,0,1-.555-.007.644.644,0,0,1-.627-.646c-.116-1.3-.246-2.589-.366-3.884q-.324-3.488-.64-6.976c-.02-.222-.028-.444-.042-.689h3.989c.183,2.4.366,4.811.557,7.319a4.237,4.237,0,0,0,.441-.325,8.922,8.922,0,0,0,2.205-4.083c.241-.866.374-1.762.576-2.639.026-.112.172-.28.265-.281,1.259-.019,2.519-.013,3.833-.013" transform="translate(-34.74 -5.685)" fill="#01457b"/>
    <path id="Path_10835" data-name="Path 10835" d="M175.721,30.211h4.047c-.142.827-.228,1.63-.422,2.406a14.659,14.659,0,0,1-4.626,7.815,7.728,7.728,0,0,1-4.636,1.983,3.235,3.235,0,0,1-.477.008c-.473-.043-.67-.22-.716-.69q-.228-2.3-.435-4.6-.3-3.33-.6-6.661c-.007-.078,0-.156,0-.259h3.975c.182,2.406.364,4.8.554,7.318a4.448,4.448,0,0,0,.458-.339,8.268,8.268,0,0,0,2.04-3.6c.327-1.1.557-2.23.838-3.385" transform="translate(-31.616 -5.69)" fill="#01457b"/>
    <path id="Path_10836" data-name="Path 10836" d="M98.453,210.875l2.449,4.961a.422.422,0,0,0,.319.233l5.476.8a.426.426,0,0,1,.235.726l-3.962,3.862a.425.425,0,0,0-.123.377l.936,5.453a.425.425,0,0,1-.617.448l-4.9-2.575a.427.427,0,0,0-.4,0l-4.9,2.575a.426.426,0,0,1-.618-.448l.935-5.453a.425.425,0,0,0-.123-.377l-3.961-3.862a.425.425,0,0,1,.236-.726l5.474-.8a.428.428,0,0,0,.321-.233l2.448-4.961a.426.426,0,0,1,.763,0" transform="translate(-16.779 -39.675)" fill="#f89738"/>
    <path id="Path_10837" data-name="Path 10837" d="M31.23,164.771H0L18.832,183.6.436,202H50.385V164.771Z" transform="translate(0 -31.036)" fill="#143860"/>
    <path id="Path_10838" data-name="Path 10838" d="M318.262,164.771h31.23L330.66,183.6l18.4,18.4H298.288V164.771Z" transform="translate(-56.184 -31.036)" fill="#143860"/>
    <rect id="Rectangle_916" data-name="Rectangle 916" width="231.735" height="34.312" transform="translate(30.884 119.059)" fill="#15467a"/>
    <path id="Path_10839" data-name="Path 10839" d="M98.973,162.7H102.2a9.222,9.222,0,0,1,2.228.263,5.105,5.105,0,0,1,1.842.848,4.158,4.158,0,0,1,1.248,1.525,5.108,5.108,0,0,1,.463,2.277,4.637,4.637,0,0,1-.449,2.09,4.486,4.486,0,0,1-1.207,1.518,5.346,5.346,0,0,1-1.752.932,6.823,6.823,0,0,1-2.083.317H98.973Zm2.152,7.782h1.118a6.038,6.038,0,0,0,1.386-.151,2.974,2.974,0,0,0,1.111-.5,2.415,2.415,0,0,0,.738-.924,3.283,3.283,0,0,0,.269-1.4,2.734,2.734,0,0,0-.269-1.248,2.485,2.485,0,0,0-.724-.876,3.178,3.178,0,0,0-1.07-.518,4.768,4.768,0,0,0-1.29-.172h-1.269Z" transform="translate(-18.642 -30.645)" fill="#fff"/>
    <path id="Path_10840" data-name="Path 10840" d="M117.852,171.98a3.3,3.3,0,0,1-1.256.98,3.764,3.764,0,0,1-1.573.345,4.228,4.228,0,0,1-1.456-.248,3.49,3.49,0,0,1-1.187-.711,3.332,3.332,0,0,1-.793-1.11,3.767,3.767,0,0,1,0-2.9,3.343,3.343,0,0,1,.793-1.111,3.5,3.5,0,0,1,1.187-.71,4.227,4.227,0,0,1,1.456-.248,3.308,3.308,0,0,1,1.3.248,2.706,2.706,0,0,1,.993.71,3.226,3.226,0,0,1,.628,1.111,4.485,4.485,0,0,1,.221,1.45v.648h-4.8a1.638,1.638,0,0,0,.538.945,1.518,1.518,0,0,0,1.021.352,1.557,1.557,0,0,0,.863-.228,2.333,2.333,0,0,0,.614-.586Zm-1.752-2.953a1.2,1.2,0,0,0-.345-.9,1.228,1.228,0,0,0-.924-.373,1.512,1.512,0,0,0-1.056.393,1.255,1.255,0,0,0-.29.4,1.309,1.309,0,0,0-.117.476Z" transform="translate(-20.964 -31.317)" fill="#fff"/>
    <path id="Path_10841" data-name="Path 10841" d="M121.548,161.881h2.07v4.443h.028a1.937,1.937,0,0,1,.918-.683,3.559,3.559,0,0,1,1.207-.2,2.729,2.729,0,0,1,1.283.3,2.98,2.98,0,0,1,.959.795,3.724,3.724,0,0,1,.607,1.138,4.242,4.242,0,0,1,.213,1.345,3.979,3.979,0,0,1-.235,1.394,3.2,3.2,0,0,1-.669,1.1,3,3,0,0,1-1.042.717,3.467,3.467,0,0,1-1.352.255,2.292,2.292,0,0,1-.676-.1,2.857,2.857,0,0,1-.586-.248,2.388,2.388,0,0,1-.469-.338,2.272,2.272,0,0,1-.325-.364h-.028v.883h-1.9Zm1.9,7.079a1.733,1.733,0,0,0,.435,1.227,1.823,1.823,0,0,0,2.441,0,1.951,1.951,0,0,0,0-2.456,1.823,1.823,0,0,0-2.441,0,1.736,1.736,0,0,0-.435,1.229" transform="translate(-22.894 -30.491)" fill="#fff"/>
    <path id="Path_10842" data-name="Path 10842" d="M132.02,166.433h2.07v1.076h.028a2.542,2.542,0,0,1,.786-.931,1.988,1.988,0,0,1,1.145-.311c.119,0,.239,0,.359.014a1.761,1.761,0,0,1,.331.056v1.89a3.051,3.051,0,0,0-.434-.1,2.859,2.859,0,0,0-.449-.035,2.2,2.2,0,0,0-.938.166,1.249,1.249,0,0,0-.531.462,1.761,1.761,0,0,0-.242.71,6.994,6.994,0,0,0-.055.912v2.8h-2.07Z" transform="translate(-24.867 -31.317)" fill="#fff"/>
    <path id="Path_10843" data-name="Path 10843" d="M143.071,172.3h-.028a1.939,1.939,0,0,1-.918.772,3.21,3.21,0,0,1-2.111.1,2.259,2.259,0,0,1-.765-.393,1.905,1.905,0,0,1-.524-.649,1.975,1.975,0,0,1-.193-.9,2.066,2.066,0,0,1,.213-.98,1.913,1.913,0,0,1,.58-.661,2.873,2.873,0,0,1,.834-.407,6.125,6.125,0,0,1,.972-.214,9.36,9.36,0,0,1,1.007-.082c.336-.01.646-.015.932-.015a1.079,1.079,0,0,0-.393-.876,1.418,1.418,0,0,0-.932-.324,2.03,2.03,0,0,0-.931.213,2.524,2.524,0,0,0-.752.587l-1.1-1.132a3.807,3.807,0,0,1,1.352-.807,4.855,4.855,0,0,1,1.6-.269,4.163,4.163,0,0,1,1.5.229,2.162,2.162,0,0,1,.939.669,2.59,2.59,0,0,1,.489,1.083,7.128,7.128,0,0,1,.138,1.484v3.408h-1.9Zm-.511-2.1q-.235,0-.587.02a2.939,2.939,0,0,0-.676.118,1.506,1.506,0,0,0-.551.289.67.67,0,0,0-.228.538.59.59,0,0,0,.317.552,1.316,1.316,0,0,0,.662.18,2.055,2.055,0,0,0,.587-.084,1.739,1.739,0,0,0,.5-.235,1.127,1.127,0,0,0,.351-.386,1.112,1.112,0,0,0,.131-.553V170.2Z" transform="translate(-26.093 -31.317)" fill="#fff"/>
    <path id="Path_10844" data-name="Path 10844" d="M153.423,162.7H157.2a6.676,6.676,0,0,1,1.415.145,3.366,3.366,0,0,1,1.172.482,2.409,2.409,0,0,1,.8.911,3.093,3.093,0,0,1,.3,1.428,2.868,2.868,0,0,1-.538,1.759,2.423,2.423,0,0,1-1.573.917l2.484,4.126h-2.58l-2.042-3.906h-1.062v3.906h-2.152Zm2.152,4.043h1.269c.193,0,.4-.007.614-.02a1.9,1.9,0,0,0,.587-.125,1.012,1.012,0,0,0,.435-.323,1,1,0,0,0,.172-.622,1.024,1.024,0,0,0-.152-.593,1.006,1.006,0,0,0-.386-.338,1.747,1.747,0,0,0-.538-.16,4.52,4.52,0,0,0-.593-.041h-1.407Z" transform="translate(-28.898 -30.645)" fill="#fff"/>
    <path id="Path_10845" data-name="Path 10845" d="M174.131,165.027a1.543,1.543,0,0,0-.71-.49,2.577,2.577,0,0,0-.849-.158,2.247,2.247,0,0,0-.483.056,1.816,1.816,0,0,0-.469.172,1.016,1.016,0,0,0-.359.31.79.79,0,0,0-.138.469.778.778,0,0,0,.331.676,3.084,3.084,0,0,0,.834.4c.337.11.7.221,1.084.331a4.507,4.507,0,0,1,1.083.469,2.565,2.565,0,0,1,.835.815,2.479,2.479,0,0,1,.331,1.365,3.141,3.141,0,0,1-.3,1.421,2.873,2.873,0,0,1-.821,1.007,3.482,3.482,0,0,1-1.2.593,5.512,5.512,0,0,1-3.208-.1,4.442,4.442,0,0,1-1.519-.938l1.532-1.684a2.235,2.235,0,0,0,.834.683,2.392,2.392,0,0,0,1.043.241,2.365,2.365,0,0,0,.531-.062,1.71,1.71,0,0,0,.483-.187,1.025,1.025,0,0,0,.344-.317.789.789,0,0,0,.132-.455.827.827,0,0,0-.338-.7,3.128,3.128,0,0,0-.848-.435q-.511-.179-1.1-.359a4.919,4.919,0,0,1-1.1-.483,2.644,2.644,0,0,1-.848-.8,2.287,2.287,0,0,1-.338-1.311,2.939,2.939,0,0,1,.311-1.38,3.014,3.014,0,0,1,.827-.993,3.585,3.585,0,0,1,1.194-.6,4.9,4.9,0,0,1,1.394-.2,5.5,5.5,0,0,1,1.6.234,3.691,3.691,0,0,1,1.393.787Z" transform="translate(-31.751 -30.587)" fill="#fff"/>
    <path id="Path_10846" data-name="Path 10846" d="M183.4,168.6a1.168,1.168,0,0,0-.428-.365,1.26,1.26,0,0,0-.593-.145,1.585,1.585,0,0,0-1.222.469,1.954,1.954,0,0,0,0,2.456,1.582,1.582,0,0,0,1.222.469,1.114,1.114,0,0,0,.593-.152,1.791,1.791,0,0,0,.428-.359l1.366,1.435a2.642,2.642,0,0,1-1.139.7,4.283,4.283,0,0,1-1.248.2,4.231,4.231,0,0,1-1.456-.248,3.5,3.5,0,0,1-1.187-.711,3.32,3.32,0,0,1-.793-1.11,3.765,3.765,0,0,1,0-2.9,3.324,3.324,0,0,1,.793-1.111,3.509,3.509,0,0,1,1.187-.71,4.213,4.213,0,0,1,1.456-.249,4.283,4.283,0,0,1,1.248.2,2.65,2.65,0,0,1,1.139.7Z" transform="translate(-33.65 -31.317)" fill="#fff"/>
    <path id="Path_10847" data-name="Path 10847" d="M189.17,161.882v4.636h.028a1.281,1.281,0,0,1,.235-.387,1.859,1.859,0,0,1,.4-.343,2.208,2.208,0,0,1,.553-.249,2.37,2.37,0,0,1,.69-.1,2.843,2.843,0,0,1,1.269.242,1.832,1.832,0,0,1,.752.669,2.7,2.7,0,0,1,.366,1.007,7.687,7.687,0,0,1,.1,1.256v3.7h-2.071v-3.285c0-.194-.006-.394-.02-.6a1.911,1.911,0,0,0-.123-.573.893.893,0,0,0-.932-.593,1.274,1.274,0,0,0-.649.145.986.986,0,0,0-.378.386,1.565,1.565,0,0,0-.173.545,4.7,4.7,0,0,0-.041.635v3.34H187.1V161.882Z" transform="translate(-35.241 -30.491)" fill="#fff"/>
    <path id="Path_10848" data-name="Path 10848" d="M196.551,169.786a3.5,3.5,0,0,1,.291-1.449,3.332,3.332,0,0,1,.793-1.111,3.493,3.493,0,0,1,1.187-.71,4.377,4.377,0,0,1,2.911,0,3.5,3.5,0,0,1,1.187.71,3.331,3.331,0,0,1,.793,1.111,3.755,3.755,0,0,1,0,2.9,3.32,3.32,0,0,1-.793,1.11,3.49,3.49,0,0,1-1.187.711,4.39,4.39,0,0,1-2.911,0,3.482,3.482,0,0,1-1.187-.711,3.321,3.321,0,0,1-.793-1.11,3.5,3.5,0,0,1-.291-1.448m2.07,0a1.733,1.733,0,0,0,.435,1.227,1.824,1.824,0,0,0,2.442,0,1.954,1.954,0,0,0,0-2.456,1.824,1.824,0,0,0-2.442,0,1.736,1.736,0,0,0-.435,1.229" transform="translate(-37.021 -31.317)" fill="#fff"/>
    <path id="Path_10849" data-name="Path 10849" d="M213.526,171.98a3.3,3.3,0,0,1-1.256.98,3.763,3.763,0,0,1-1.572.345,4.228,4.228,0,0,1-1.456-.248,3.49,3.49,0,0,1-1.187-.711,3.334,3.334,0,0,1-.794-1.11,3.776,3.776,0,0,1,0-2.9,3.345,3.345,0,0,1,.794-1.111,3.5,3.5,0,0,1,1.187-.71,4.227,4.227,0,0,1,1.456-.248,3.311,3.311,0,0,1,1.3.248,2.706,2.706,0,0,1,.993.71,3.237,3.237,0,0,1,.627,1.111,4.462,4.462,0,0,1,.222,1.45v.648h-4.8a1.629,1.629,0,0,0,.538.945,1.518,1.518,0,0,0,1.021.352,1.554,1.554,0,0,0,.862-.228,2.32,2.32,0,0,0,.614-.586Zm-1.752-2.953a1.2,1.2,0,0,0-.345-.9,1.226,1.226,0,0,0-.924-.373,1.55,1.55,0,0,0-.608.11,1.522,1.522,0,0,0-.448.282,1.255,1.255,0,0,0-.29.4,1.309,1.309,0,0,0-.117.476Z" transform="translate(-38.984 -31.317)" fill="#fff"/>
    <path id="Path_10850" data-name="Path 10850" d="M216.986,166.433h1.986v.911H219a1.739,1.739,0,0,1,.276-.386,2.023,2.023,0,0,1,.429-.344,2.453,2.453,0,0,1,.566-.249,2.37,2.37,0,0,1,.69-.1,2.857,2.857,0,0,1,1.269.242,1.837,1.837,0,0,1,.752.669,2.72,2.72,0,0,1,.366,1.007,7.689,7.689,0,0,1,.1,1.256v3.7h-2.07v-3.285c0-.193-.007-.394-.02-.6a1.925,1.925,0,0,0-.123-.573.892.892,0,0,0-.932-.593,1.28,1.28,0,0,0-.649.145.993.993,0,0,0-.379.386,1.586,1.586,0,0,0-.172.545,4.571,4.571,0,0,0-.041.635v3.34h-2.07Z" transform="translate(-40.87 -31.317)" fill="#fff"/>
    <path id="Path_10851" data-name="Path 10851" d="M226.981,161.881h2.07v4.443h.027a1.937,1.937,0,0,1,.918-.683,3.562,3.562,0,0,1,1.207-.2,2.732,2.732,0,0,1,1.284.3,2.977,2.977,0,0,1,.959.795,3.706,3.706,0,0,1,.607,1.138,4.22,4.22,0,0,1,.214,1.345,4,4,0,0,1-.235,1.394,3.227,3.227,0,0,1-.669,1.1,3.014,3.014,0,0,1-1.043.717,3.464,3.464,0,0,1-1.352.255,2.292,2.292,0,0,1-.676-.1,2.9,2.9,0,0,1-.586-.248,2.381,2.381,0,0,1-.468-.338,2.321,2.321,0,0,1-.325-.364h-.027v.883h-1.9Zm1.9,7.079a1.733,1.733,0,0,0,.434,1.227,1.824,1.824,0,0,0,2.442,0,1.951,1.951,0,0,0,0-2.456,1.824,1.824,0,0,0-2.442,0,1.735,1.735,0,0,0-.434,1.229" transform="translate(-42.753 -30.491)" fill="#fff"/>
    <path id="Path_10852" data-name="Path 10852" d="M243.752,171.98a3.3,3.3,0,0,1-1.256.98,3.763,3.763,0,0,1-1.572.345,4.228,4.228,0,0,1-1.456-.248,3.49,3.49,0,0,1-1.187-.711,3.334,3.334,0,0,1-.794-1.11,3.777,3.777,0,0,1,0-2.9,3.345,3.345,0,0,1,.794-1.111,3.5,3.5,0,0,1,1.187-.71,4.227,4.227,0,0,1,1.456-.248,3.311,3.311,0,0,1,1.3.248,2.706,2.706,0,0,1,.993.71,3.237,3.237,0,0,1,.627,1.111,4.463,4.463,0,0,1,.222,1.45v.648h-4.8a1.629,1.629,0,0,0,.538.945,1.518,1.518,0,0,0,1.021.352,1.554,1.554,0,0,0,.862-.228,2.321,2.321,0,0,0,.614-.586ZM242,169.028a1.2,1.2,0,0,0-.345-.9,1.226,1.226,0,0,0-.924-.373,1.55,1.55,0,0,0-.608.11,1.522,1.522,0,0,0-.448.282,1.255,1.255,0,0,0-.29.4,1.31,1.31,0,0,0-.117.476Z" transform="translate(-44.678 -31.317)" fill="#fff"/>
    <path id="Path_10853" data-name="Path 10853" d="M247.212,166.433h2.07v1.076h.028a2.535,2.535,0,0,1,.786-.931,1.986,1.986,0,0,1,1.145-.311c.119,0,.239,0,.358.014a1.749,1.749,0,0,1,.331.056v1.89a3.025,3.025,0,0,0-.434-.1,2.841,2.841,0,0,0-.448-.035,2.2,2.2,0,0,0-.939.166,1.249,1.249,0,0,0-.531.462,1.773,1.773,0,0,0-.242.71,7,7,0,0,0-.054.912v2.8h-2.07Z" transform="translate(-46.564 -31.317)" fill="#fff"/>
    <path id="Path_10854" data-name="Path 10854" d="M260.8,172.573a3.986,3.986,0,0,1-.959,2.89,3.9,3.9,0,0,1-2.919.988,7.856,7.856,0,0,1-1.765-.2,4.01,4.01,0,0,1-1.6-.779l1.144-1.712a4.344,4.344,0,0,0,1.015.635,2.849,2.849,0,0,0,1.166.235,1.874,1.874,0,0,0,1.4-.463,1.623,1.623,0,0,0,.449-1.179v-.649h-.028a1.952,1.952,0,0,1-.89.683,2.851,2.851,0,0,1-1,.2,3.446,3.446,0,0,1-1.352-.255,3,3,0,0,1-1.042-.718,3.2,3.2,0,0,1-.67-1.1,4.144,4.144,0,0,1-.02-2.69,3.537,3.537,0,0,1,.607-1.118,3.057,3.057,0,0,1,.959-.78,2.725,2.725,0,0,1,1.283-.3,3.168,3.168,0,0,1,.807.1,3.134,3.134,0,0,1,.655.249,2.4,2.4,0,0,1,.5.338,2.1,2.1,0,0,1,.331.366h.027v-.884h1.9Zm-5.216-2.829a1.615,1.615,0,0,0,.476,1.152,1.814,1.814,0,0,0,.524.366,1.54,1.54,0,0,0,.655.138,1.559,1.559,0,0,0,.649-.138,1.791,1.791,0,0,0,.531-.366,1.626,1.626,0,0,0,0-2.3,1.792,1.792,0,0,0-.531-.366,1.559,1.559,0,0,0-.649-.138,1.54,1.54,0,0,0-.655.138,1.815,1.815,0,0,0-.524.366,1.615,1.615,0,0,0-.476,1.152" transform="translate(-47.751 -31.317)" fill="#fff"/>
    <path id="Path_10855" data-name="Path 10855" d="M38.05,188.964h19.5v6.84Z" transform="translate(-7.167 -35.592)" fill="#010101"/>
    <path id="Path_10856" data-name="Path 10856" d="M318.8,188.964H298.289v6.84Z" transform="translate(-56.184 -35.592)" fill="#010101"/>
    <path id="Path_10857" data-name="Path 10857" d="M138.453,210.875l2.449,4.961a.422.422,0,0,0,.319.233l5.476.8a.425.425,0,0,1,.235.726l-3.962,3.862a.425.425,0,0,0-.123.377l.936,5.453a.426.426,0,0,1-.618.448l-4.9-2.575a.427.427,0,0,0-.4,0l-4.9,2.575a.425.425,0,0,1-.617-.448l.935-5.453a.425.425,0,0,0-.123-.377l-3.962-3.862a.426.426,0,0,1,.236-.726l5.475-.8a.426.426,0,0,0,.321-.233l2.449-4.961a.426.426,0,0,1,.763,0" transform="translate(-24.313 -39.675)" fill="#f89738"/>
    <path id="Path_10858" data-name="Path 10858" d="M178.453,210.875l2.449,4.961a.422.422,0,0,0,.319.233l5.476.8a.425.425,0,0,1,.235.726l-3.962,3.862a.425.425,0,0,0-.123.377l.936,5.453a.426.426,0,0,1-.618.448l-4.9-2.575a.427.427,0,0,0-.4,0l-4.9,2.575a.425.425,0,0,1-.617-.448l.935-5.453a.425.425,0,0,0-.123-.377l-3.962-3.862a.426.426,0,0,1,.236-.726l5.475-.8a.426.426,0,0,0,.321-.233l2.449-4.961a.426.426,0,0,1,.763,0" transform="translate(-31.847 -39.675)" fill="#f89738"/>
    <path id="Path_10859" data-name="Path 10859" d="M218.453,210.875l2.449,4.961a.422.422,0,0,0,.319.233l5.476.8a.425.425,0,0,1,.235.726l-3.962,3.862a.425.425,0,0,0-.123.377l.936,5.453a.426.426,0,0,1-.618.448l-4.9-2.575a.427.427,0,0,0-.4,0l-4.9,2.575a.425.425,0,0,1-.617-.448l.935-5.453a.425.425,0,0,0-.123-.377l-3.962-3.862a.426.426,0,0,1,.236-.726l5.475-.8a.426.426,0,0,0,.321-.233l2.449-4.961a.426.426,0,0,1,.763,0" transform="translate(-39.382 -39.675)" fill="#f89738"/>
    <path id="Path_10860" data-name="Path 10860" d="M258.453,210.875l2.449,4.961a.423.423,0,0,0,.319.233l5.475.8a.425.425,0,0,1,.235.726l-3.962,3.862a.425.425,0,0,0-.123.377l.936,5.453a.426.426,0,0,1-.618.448l-4.9-2.575a.427.427,0,0,0-.4,0l-4.9,2.575a.425.425,0,0,1-.617-.448l.935-5.453a.425.425,0,0,0-.123-.377l-3.962-3.862a.426.426,0,0,1,.236-.726l5.475-.8a.426.426,0,0,0,.321-.233l2.449-4.961a.426.426,0,0,1,.763,0" transform="translate(-46.916 -39.675)" fill="#f89738"/>
    <path id="Rectangle_917" data-name="Rectangle 917" d="M-5-5H189.243V211.969H-5ZM179.243,5H5V201.969H179.243Z" transform="translate(54.116 4.058)" fill="#01457b"/>
    <path id="Path_10861" data-name="Path 10861" d="M107.8,72.507a4.12,4.12,0,0,0-1.471-1.091,3.988,3.988,0,0,0-1.432-.273,4.793,4.793,0,0,0-1.938.38,4.435,4.435,0,0,0-1.49,1.052,4.781,4.781,0,0,0-.964,1.568,5.383,5.383,0,0,0-.341,1.929,5.922,5.922,0,0,0,.341,2.045,4.791,4.791,0,0,0,.964,1.617,4.489,4.489,0,0,0,1.49,1.072,4.676,4.676,0,0,0,1.938.389,3.56,3.56,0,0,0,1.627-.4,4.449,4.449,0,0,0,1.471-1.276l2.026,1.441a5.521,5.521,0,0,1-2.279,1.871,7.116,7.116,0,0,1-2.863.584,8.06,8.06,0,0,1-2.932-.515,6.578,6.578,0,0,1-3.808-3.73,7.66,7.66,0,0,1-.545-2.942,7.982,7.982,0,0,1,.545-3.009,6.744,6.744,0,0,1,1.51-2.309,6.616,6.616,0,0,1,2.3-1.47,8.061,8.061,0,0,1,2.932-.517,6.722,6.722,0,0,1,2.6.5,6.071,6.071,0,0,1,2.23,1.685Z" transform="translate(-18.382 -12.982)" fill="#ed5756"/>
    <rect id="Rectangle_918" data-name="Rectangle 918" width="2.338" height="14.726" transform="translate(93.118 55.357)" fill="#ed5756"/>
    <path id="Path_10862" data-name="Path 10862" d="M120.583,70.589a1.346,1.346,0,0,1,.419-.984,1.44,1.44,0,0,1,1.062-.42,1.552,1.552,0,0,1,1.081.4,1.37,1.37,0,0,1,0,2.007,1.549,1.549,0,0,1-1.081.4A1.439,1.439,0,0,1,121,71.573a1.347,1.347,0,0,1-.419-.984m.332,3.175h2.338v9.35h-2.338Z" transform="translate(-22.712 -13.032)" fill="#ed5756"/>
    <path id="Path_10863" data-name="Path 10863" d="M128.945,80.265a2.376,2.376,0,0,0,.818,1.637,2.564,2.564,0,0,0,1.695.584,2.789,2.789,0,0,0,1.471-.36,4.08,4.08,0,0,0,1.042-.907l1.675,1.266a4.74,4.74,0,0,1-1.831,1.441,5.4,5.4,0,0,1-2.123.429,5.612,5.612,0,0,1-1.987-.351,4.791,4.791,0,0,1-1.617-.993,4.714,4.714,0,0,1-1.081-1.549,5.291,5.291,0,0,1,0-4.033,4.648,4.648,0,0,1,2.7-2.541,5.594,5.594,0,0,1,1.987-.351,4.542,4.542,0,0,1,1.782.341,3.842,3.842,0,0,1,1.383.984,4.551,4.551,0,0,1,.9,1.588,6.743,6.743,0,0,1,.321,2.173v.642Zm4.792-1.753a2.2,2.2,0,0,0-.643-1.627,2.414,2.414,0,0,0-1.734-.593,2.271,2.271,0,0,0-1.665.6,2.7,2.7,0,0,0-.75,1.616Z" transform="translate(-23.847 -14.04)" fill="#ed5756"/>
    <path id="Path_10864" data-name="Path 10864" d="M140.959,74.773h2.221v1.5h.039a3.267,3.267,0,0,1,1.013-1.217,3,3,0,0,1,1.851-.516,3.662,3.662,0,0,1,1.588.312,2.992,2.992,0,0,1,1.062.818,3.1,3.1,0,0,1,.584,1.169,5.383,5.383,0,0,1,.175,1.383v5.9h-2.338V79.389q0-.388-.039-.866a3.118,3.118,0,0,0-.2-.9,1.683,1.683,0,0,0-.516-.7,1.479,1.479,0,0,0-.954-.282,2.244,2.244,0,0,0-.984.194,1.9,1.9,0,0,0-.662.525,2.108,2.108,0,0,0-.38.761,3.39,3.39,0,0,0-.117.9v5.1h-2.338Z" transform="translate(-26.55 -14.04)" fill="#ed5756"/>
    <path id="Path_10865" data-name="Path 10865" d="M153.391,76.186V74.2h1.928V71.491h2.338V74.2h2.571v1.987h-2.571v4.091a2.033,2.033,0,0,0,.263,1.11,1.151,1.151,0,0,0,1.042.409,3.712,3.712,0,0,0,.682-.068,1.406,1.406,0,0,0,.584-.223v1.967a3.008,3.008,0,0,1-.906.243,7.748,7.748,0,0,1-.945.068,4.783,4.783,0,0,1-1.529-.2,2.007,2.007,0,0,1-.935-.623,2.371,2.371,0,0,1-.468-1.042,7.3,7.3,0,0,1-.127-1.441V76.186Z" transform="translate(-28.892 -13.466)" fill="#ed5756"/>
    <path id="Path_10866" data-name="Path 10866" d="M168.863,77.363a2.141,2.141,0,0,0-1.831-.954,1.95,1.95,0,0,0-.916.235.8.8,0,0,0-.448.76.655.655,0,0,0,.37.623,4.042,4.042,0,0,0,.935.332q.565.136,1.217.282a4.79,4.79,0,0,1,1.217.449,2.664,2.664,0,0,1,.935.828,2.465,2.465,0,0,1,.37,1.441,2.6,2.6,0,0,1-.36,1.412,2.825,2.825,0,0,1-.935.926,4.169,4.169,0,0,1-1.3.506,6.8,6.8,0,0,1-1.441.156,6.192,6.192,0,0,1-2.006-.312,3.8,3.8,0,0,1-1.636-1.129l1.558-1.461a4.389,4.389,0,0,0,.964.828,2.339,2.339,0,0,0,1.256.321,2.51,2.51,0,0,0,.526-.058,1.731,1.731,0,0,0,.506-.195,1.2,1.2,0,0,0,.38-.341.875.875,0,0,0-.224-1.2,3.3,3.3,0,0,0-.935-.379q-.565-.147-1.217-.273a4.687,4.687,0,0,1-1.217-.41,2.548,2.548,0,0,1-.935-.788,2.338,2.338,0,0,1-.37-1.4,2.736,2.736,0,0,1,.321-1.354,2.848,2.848,0,0,1,.847-.945,3.7,3.7,0,0,1,1.208-.545,5.529,5.529,0,0,1,3.234.146,3.033,3.033,0,0,1,1.48,1.1Z" transform="translate(-30.709 -14.04)" fill="#ed5756"/>
    <path id="Path_10867" data-name="Path 10867" d="M175.706,69.354h2.376L176.427,74.5h-2.084Z" transform="translate(-32.838 -13.063)" fill="#ed5756"/>
    <path id="Path_10868" data-name="Path 10868" d="M198.493,72.507a4.12,4.12,0,0,0-1.471-1.091,3.988,3.988,0,0,0-1.432-.273,4.793,4.793,0,0,0-1.938.38,4.435,4.435,0,0,0-1.49,1.052,4.781,4.781,0,0,0-.964,1.568,5.383,5.383,0,0,0-.341,1.929,5.922,5.922,0,0,0,.341,2.045,4.791,4.791,0,0,0,.964,1.617,4.489,4.489,0,0,0,1.49,1.072,4.676,4.676,0,0,0,1.938.389,3.56,3.56,0,0,0,1.627-.4,4.449,4.449,0,0,0,1.471-1.276l2.026,1.441a5.521,5.521,0,0,1-2.279,1.871,7.116,7.116,0,0,1-2.863.584,8.06,8.06,0,0,1-2.932-.515,6.578,6.578,0,0,1-3.808-3.73,7.66,7.66,0,0,1-.545-2.942,7.982,7.982,0,0,1,.545-3.009,6.745,6.745,0,0,1,1.51-2.309,6.615,6.615,0,0,1,2.3-1.47,8.061,8.061,0,0,1,2.932-.517,6.722,6.722,0,0,1,2.6.5A6.071,6.071,0,0,1,200.4,71.1Z" transform="translate(-35.465 -12.982)" fill="#ed5756"/>
    <path id="Path_10869" data-name="Path 10869" d="M207.712,74.884h.039a2.725,2.725,0,0,1,.964-1.062,3.079,3.079,0,0,1,1.782-.477,3.662,3.662,0,0,1,1.588.312,3,3,0,0,1,1.062.818,3.106,3.106,0,0,1,.584,1.17,5.378,5.378,0,0,1,.175,1.383v5.9h-2.338V78.2c0-.259-.013-.549-.039-.866a3.178,3.178,0,0,0-.2-.9,1.682,1.682,0,0,0-.516-.7,1.475,1.475,0,0,0-.954-.282,2.229,2.229,0,0,0-.984.195,1.888,1.888,0,0,0-.662.525,2.1,2.1,0,0,0-.38.761,3.387,3.387,0,0,0-.117.9v5.1h-2.338V68.2h2.338Z" transform="translate(-38.683 -12.846)" fill="#ed5756"/>
    <path id="Path_10870" data-name="Path 10870" d="M218.574,79.448a4.945,4.945,0,0,1,.4-2.016,4.641,4.641,0,0,1,2.7-2.541,5.792,5.792,0,0,1,3.974,0,4.641,4.641,0,0,1,2.7,2.541,5.289,5.289,0,0,1,0,4.032,4.718,4.718,0,0,1-1.081,1.549,4.777,4.777,0,0,1-1.617.993,5.792,5.792,0,0,1-3.974,0,4.776,4.776,0,0,1-1.617-.993,4.717,4.717,0,0,1-1.081-1.549,4.945,4.945,0,0,1-.4-2.016m2.338,0A3.046,3.046,0,0,0,221.1,80.5a2.636,2.636,0,0,0,.545.9,2.763,2.763,0,0,0,4.032,0,2.637,2.637,0,0,0,.545-.9,3.085,3.085,0,0,0,0-2.1,2.648,2.648,0,0,0-.545-.9,2.763,2.763,0,0,0-4.032,0,2.648,2.648,0,0,0-.545.9,3.048,3.048,0,0,0-.185,1.052" transform="translate(-41.169 -14.04)" fill="#ed5756"/>
    <path id="Path_10871" data-name="Path 10871" d="M233.43,70.589a1.343,1.343,0,0,1,.419-.984,1.437,1.437,0,0,1,1.062-.42,1.551,1.551,0,0,1,1.081.4,1.37,1.37,0,0,1,0,2.007,1.547,1.547,0,0,1-1.081.4,1.436,1.436,0,0,1-1.062-.419,1.344,1.344,0,0,1-.419-.984m.331,3.175H236.1v9.35h-2.338Z" transform="translate(-43.968 -13.032)" fill="#ed5756"/>
    <path id="Path_10872" data-name="Path 10872" d="M246.31,77.578a3.73,3.73,0,0,0-.857-.682,1.839,1.839,0,0,0-.916-.252,2.669,2.669,0,0,0-2.016.855,2.659,2.659,0,0,0-.545.9,3.084,3.084,0,0,0,0,2.1,2.636,2.636,0,0,0,.545.9,2.67,2.67,0,0,0,2.016.857,2.3,2.3,0,0,0,1.013-.225,2.2,2.2,0,0,0,.8-.651l1.558,1.674a3.571,3.571,0,0,1-.808.6,5.452,5.452,0,0,1-.925.41,5.744,5.744,0,0,1-.9.225,5.019,5.019,0,0,1-.74.068,5.612,5.612,0,0,1-1.987-.351,4.766,4.766,0,0,1-1.617-.993,4.714,4.714,0,0,1-1.081-1.549,5.291,5.291,0,0,1,0-4.033,4.648,4.648,0,0,1,2.7-2.541,5.594,5.594,0,0,1,1.987-.351,5.087,5.087,0,0,1,1.8.341,4.092,4.092,0,0,1,1.588,1.081Z" transform="translate(-45.102 -14.04)" fill="#ed5756"/>
    <path id="Path_10873" data-name="Path 10873" d="M253.359,80.265a2.376,2.376,0,0,0,.818,1.637,2.564,2.564,0,0,0,1.695.584,2.789,2.789,0,0,0,1.471-.36,4.08,4.08,0,0,0,1.042-.907l1.675,1.266a4.74,4.74,0,0,1-1.831,1.441,5.4,5.4,0,0,1-2.123.429,5.612,5.612,0,0,1-1.987-.351,4.791,4.791,0,0,1-1.617-.993,4.714,4.714,0,0,1-1.081-1.549,5.291,5.291,0,0,1,0-4.033,4.648,4.648,0,0,1,2.7-2.541,5.594,5.594,0,0,1,1.987-.351,4.542,4.542,0,0,1,1.782.341,3.842,3.842,0,0,1,1.383.984,4.551,4.551,0,0,1,.9,1.588,6.743,6.743,0,0,1,.321,2.173v.642Zm4.792-1.753a2.2,2.2,0,0,0-.643-1.627,2.414,2.414,0,0,0-1.734-.593,2.271,2.271,0,0,0-1.666.6,2.7,2.7,0,0,0-.75,1.616Z" transform="translate(-47.281 -14.04)" fill="#ed5756"/>
    <path id="Path_10874" data-name="Path 10874" d="M117.751,106.354h2.123l5.941,13.791H123.01l-1.286-3.155h-5.98l-1.247,3.155h-2.747Zm3.117,8.533-2.123-5.61-2.162,5.61Z" transform="translate(-21.049 -20.032)" fill="#ed5756"/>
    <path id="Path_10875" data-name="Path 10875" d="M128.719,111.827h2.532l2.026,6.545h.039l1.889-6.545h2.532l2.026,6.545h.039l1.948-6.545h2.357l-3.175,9.35h-2.318l-2.221-6.389h-.039l-1.967,6.389h-2.415Z" transform="translate(-24.245 -21.063)" fill="#ed5756"/>
    <path id="Path_10876" data-name="Path 10876" d="M155.082,119.836h-.058a3.012,3.012,0,0,1-1.286,1.16,4.034,4.034,0,0,1-1.714.36,4.521,4.521,0,0,1-1.256-.176,3.369,3.369,0,0,1-1.091-.526,2.691,2.691,0,0,1-.769-.876,2.492,2.492,0,0,1-.292-1.228,2.833,2.833,0,0,1,.273-1.3,2.665,2.665,0,0,1,.73-.9,3.7,3.7,0,0,1,1.062-.575,7.345,7.345,0,0,1,1.256-.321,11.489,11.489,0,0,1,1.315-.136q.662-.03,1.247-.03h.584v-.252a1.518,1.518,0,0,0-.6-1.315,2.554,2.554,0,0,0-1.539-.438,3.632,3.632,0,0,0-1.383.262,3.517,3.517,0,0,0-1.11.712l-1.227-1.227a4.517,4.517,0,0,1,1.821-1.149,6.679,6.679,0,0,1,2.152-.351,5.42,5.42,0,0,1,1.675.224,3.7,3.7,0,0,1,1.13.574,2.558,2.558,0,0,1,.692.808,3.772,3.772,0,0,1,.351.926,5.125,5.125,0,0,1,.127.906c.012.292.019.549.019.769v5.376h-2.1Zm-.136-2.9h-.487q-.487,0-1.091.04a5.665,5.665,0,0,0-1.14.185,2.577,2.577,0,0,0-.906.429.936.936,0,0,0-.37.789,1,1,0,0,0,.146.555,1.323,1.323,0,0,0,.38.38,1.608,1.608,0,0,0,.526.224,2.564,2.564,0,0,0,.584.068,2.427,2.427,0,0,0,1.782-.575,2.116,2.116,0,0,0,.575-1.568Z" transform="translate(-27.992 -21.009)" fill="#ed5756"/>
    <path id="Path_10877" data-name="Path 10877" d="M162.27,111.773h2.338v1.48h.039a2.942,2.942,0,0,1,1.11-1.266,3.071,3.071,0,0,1,1.656-.448,2.3,2.3,0,0,1,.419.039c.136.027.276.058.419.1v2.26c-.195-.052-.386-.093-.575-.127a3.349,3.349,0,0,0-.555-.049,2.511,2.511,0,0,0-1.315.3,2.4,2.4,0,0,0-.76.692,2.3,2.3,0,0,0-.351.779,2.936,2.936,0,0,0-.088.584v5.006H162.27Z" transform="translate(-30.564 -21.009)" fill="#ed5756"/>
    <path id="Path_10878" data-name="Path 10878" d="M178.469,118.527h-.039a3.006,3.006,0,0,1-1.364,1.247,4.407,4.407,0,0,1-1.851.39,4.68,4.68,0,0,1-1.938-.381,4.352,4.352,0,0,1-1.451-1.041,4.471,4.471,0,0,1-.916-1.558,5.832,5.832,0,0,1-.312-1.929,5.519,5.519,0,0,1,.331-1.928,4.8,4.8,0,0,1,.925-1.558,4.265,4.265,0,0,1,1.432-1.042,4.381,4.381,0,0,1,1.831-.38,4.514,4.514,0,0,1,1.169.136,4.029,4.029,0,0,1,.9.351,3.583,3.583,0,0,1,.662.457,3.327,3.327,0,0,1,.448.477h.058V105.2h2.338v14.726h-2.221Zm-5.532-3.273a3.046,3.046,0,0,0,.185,1.053,2.636,2.636,0,0,0,.545.9,2.763,2.763,0,0,0,4.032,0,2.636,2.636,0,0,0,.545-.9,3.085,3.085,0,0,0,0-2.1,2.647,2.647,0,0,0-.545-.9,2.763,2.763,0,0,0-4.032,0,2.647,2.647,0,0,0-.545.9,3.048,3.048,0,0,0-.185,1.052" transform="translate(-32.133 -19.816)" fill="#ed5756"/>
    <path id="Path_10879" data-name="Path 10879" d="M193.182,117.618l5.357-5.182c.156-.155.318-.321.487-.5a4.624,4.624,0,0,0,.458-.556,3.321,3.321,0,0,0,.341-.614,1.7,1.7,0,0,0,.136-.672,1.681,1.681,0,0,0-.166-.76,1.776,1.776,0,0,0-.438-.564,1.962,1.962,0,0,0-.633-.361,2.325,2.325,0,0,0-.769-.126,2.077,2.077,0,0,0-1.441.506,2.153,2.153,0,0,0-.682,1.364l-2.454-.195a4.4,4.4,0,0,1,.458-1.685,3.8,3.8,0,0,1,.984-1.217,4.259,4.259,0,0,1,1.4-.739,5.683,5.683,0,0,1,1.734-.253,6.019,6.019,0,0,1,1.743.243,4.224,4.224,0,0,1,1.412.721,3.368,3.368,0,0,1,.954,1.217,4.012,4.012,0,0,1,.351,1.734,4.134,4.134,0,0,1-.594,2.249,8.853,8.853,0,0,1-1.529,1.8l-4.266,3.954h6.389v2.1h-9.233Z" transform="translate(-36.387 -19.978)" fill="#ed5756"/>
    <path id="Path_10880" data-name="Path 10880" d="M206.934,113.2a12.806,12.806,0,0,1,.263-2.794,7.649,7.649,0,0,1,.692-1.949,4.636,4.636,0,0,1,.964-1.265,4.152,4.152,0,0,1,1.091-.721,4.293,4.293,0,0,1,1.071-.322,5.359,5.359,0,0,1,1.812,0,4.294,4.294,0,0,1,1.071.322,4.152,4.152,0,0,1,1.091.721,4.635,4.635,0,0,1,.964,1.265,7.649,7.649,0,0,1,.692,1.949,14.987,14.987,0,0,1,0,5.591,7.642,7.642,0,0,1-.692,1.948,4.635,4.635,0,0,1-.964,1.265,4.155,4.155,0,0,1-1.091.722,4.253,4.253,0,0,1-1.071.321,5.25,5.25,0,0,1-1.812,0,4.253,4.253,0,0,1-1.071-.321,4.155,4.155,0,0,1-1.091-.722,4.636,4.636,0,0,1-.964-1.265,7.642,7.642,0,0,1-.692-1.948,12.822,12.822,0,0,1-.263-2.8m2.338,0a14.672,14.672,0,0,0,.088,1.49,6.806,6.806,0,0,0,.36,1.607,3.418,3.418,0,0,0,.8,1.286,2.13,2.13,0,0,0,2.805,0,3.418,3.418,0,0,0,.8-1.286,6.8,6.8,0,0,0,.36-1.607,12.71,12.71,0,0,0,0-2.98,6.815,6.815,0,0,0-.36-1.606,3.425,3.425,0,0,0-.8-1.286,2.133,2.133,0,0,0-2.805,0,3.425,3.425,0,0,0-.8,1.286,6.817,6.817,0,0,0-.36,1.606,14.711,14.711,0,0,0-.088,1.49" transform="translate(-38.977 -19.978)" fill="#ed5756"/>
    <path id="Path_10881" data-name="Path 10881" d="M221.6,117.618l5.357-5.182c.156-.155.318-.321.487-.5a4.624,4.624,0,0,0,.458-.556,3.322,3.322,0,0,0,.341-.614,1.7,1.7,0,0,0,.136-.672,1.682,1.682,0,0,0-.166-.76,1.776,1.776,0,0,0-.438-.564,1.962,1.962,0,0,0-.633-.361,2.325,2.325,0,0,0-.769-.126,2.077,2.077,0,0,0-1.441.506,2.153,2.153,0,0,0-.682,1.364l-2.454-.195a4.4,4.4,0,0,1,.458-1.685,3.8,3.8,0,0,1,.984-1.217,4.258,4.258,0,0,1,1.4-.739,5.683,5.683,0,0,1,1.734-.253,6.019,6.019,0,0,1,1.743.243,4.224,4.224,0,0,1,1.412.721,3.368,3.368,0,0,1,.954,1.217,4.012,4.012,0,0,1,.351,1.734,4.134,4.134,0,0,1-.594,2.249,8.853,8.853,0,0,1-1.529,1.8l-4.266,3.954h6.389v2.1H221.6Z" transform="translate(-41.739 -19.978)" fill="#ed5756"/>
    <path id="Path_10882" data-name="Path 10882" d="M235.35,113.2a12.806,12.806,0,0,1,.263-2.794,7.649,7.649,0,0,1,.692-1.949,4.635,4.635,0,0,1,.964-1.265,4.151,4.151,0,0,1,1.091-.721,4.294,4.294,0,0,1,1.071-.322,5.359,5.359,0,0,1,1.812,0,4.294,4.294,0,0,1,1.071.322,4.151,4.151,0,0,1,1.091.721,4.636,4.636,0,0,1,.964,1.265,7.648,7.648,0,0,1,.691,1.949,14.987,14.987,0,0,1,0,5.591,7.642,7.642,0,0,1-.691,1.948,4.636,4.636,0,0,1-.964,1.265,4.155,4.155,0,0,1-1.091.722,4.253,4.253,0,0,1-1.071.321,5.25,5.25,0,0,1-1.812,0,4.253,4.253,0,0,1-1.071-.321,4.155,4.155,0,0,1-1.091-.722,4.635,4.635,0,0,1-.964-1.265,7.642,7.642,0,0,1-.692-1.948,12.822,12.822,0,0,1-.263-2.8m2.338,0a14.668,14.668,0,0,0,.088,1.49,6.805,6.805,0,0,0,.36,1.607,3.419,3.419,0,0,0,.8,1.286,2.13,2.13,0,0,0,2.805,0,3.419,3.419,0,0,0,.8-1.286,6.8,6.8,0,0,0,.36-1.607,12.71,12.71,0,0,0,0-2.98,6.816,6.816,0,0,0-.36-1.606,3.425,3.425,0,0,0-.8-1.286,2.133,2.133,0,0,0-2.805,0,3.425,3.425,0,0,0-.8,1.286,6.817,6.817,0,0,0-.36,1.606,14.707,14.707,0,0,0-.088,1.49" transform="translate(-44.329 -19.978)" fill="#ed5756"/>
  </g>
</svg>
