<svg id="Group_642" data-name="Group 642" xmlns="http://www.w3.org/2000/svg" xmlns:xlink="http://www.w3.org/1999/xlink" width="211.421" height="198.08" viewBox="0 0 211.421 198.08">
  <defs>
    <clipPath id="clip-path">
      <rect id="Rectangle_735" data-name="Rectangle 735" width="211.421" height="198.08" fill="none"/>
    </clipPath>
    <clipPath id="clip-path-3">
      <rect id="Rectangle_713" data-name="Rectangle 713" width="62.557" height="5.958" fill="none"/>
    </clipPath>
    <clipPath id="clip-path-4">
      <rect id="Rectangle_715" data-name="Rectangle 715" width="78.196" height="5.958" fill="none"/>
    </clipPath>
    <clipPath id="clip-path-5">
      <rect id="Rectangle_717" data-name="Rectangle 717" width="5.958" height="140.008" fill="none"/>
    </clipPath>
    <clipPath id="clip-path-9">
      <rect id="Rectangle_724" data-name="Rectangle 724" width="54.217" height="23.424" fill="none"/>
    </clipPath>
    <clipPath id="clip-path-10">
      <rect id="Rectangle_725" data-name="Rectangle 725" width="49.351" height="63.661" fill="none"/>
    </clipPath>
  </defs>
  <g id="Group_641" data-name="Group 641" clip-path="url(#clip-path)">
    <g id="Group_626" data-name="Group 626">
      <g id="Group_625" data-name="Group 625" clip-path="url(#clip-path)">
        <g id="Group_612" data-name="Group 612" transform="translate(74.432 171.944)" opacity="0.6">
          <g id="Group_611" data-name="Group 611">
            <g id="Group_610" data-name="Group 610" clip-path="url(#clip-path-3)">
              <rect id="Rectangle_712" data-name="Rectangle 712" width="62.557" height="5.958" transform="translate(0 0)" fill="#f2f2f2"/>
            </g>
          </g>
        </g>
        <g id="Group_615" data-name="Group 615" transform="translate(66.613 180.881)" opacity="0.6">
          <g id="Group_614" data-name="Group 614">
            <g id="Group_613" data-name="Group 613" clip-path="url(#clip-path-4)">
              <rect id="Rectangle_714" data-name="Rectangle 714" width="78.196" height="5.958" transform="translate(0 0)" fill="#f2f2f2"/>
            </g>
          </g>
        </g>
        <g id="Group_618" data-name="Group 618" transform="translate(102.732 28.957)" opacity="0.6">
          <g id="Group_617" data-name="Group 617">
            <g id="Group_616" data-name="Group 616" clip-path="url(#clip-path-5)">
              <rect id="Rectangle_716" data-name="Rectangle 716" width="5.958" height="140.008" fill="#f2f2f2"/>
            </g>
          </g>
        </g>
        <g id="Group_621" data-name="Group 621" transform="translate(113.158 28.957)" opacity="0.6">
          <g id="Group_620" data-name="Group 620">
            <g id="Group_619" data-name="Group 619" clip-path="url(#clip-path-5)">
              <rect id="Rectangle_718" data-name="Rectangle 718" width="5.958" height="140.008" fill="#f2f2f2"/>
            </g>
          </g>
        </g>
        <g id="Group_624" data-name="Group 624" transform="translate(92.306 28.957)" opacity="0.6">
          <g id="Group_623" data-name="Group 623">
            <g id="Group_622" data-name="Group 622" clip-path="url(#clip-path-5)">
              <rect id="Rectangle_720" data-name="Rectangle 720" width="5.958" height="140.008" fill="#f2f2f2"/>
            </g>
          </g>
        </g>
      </g>
    </g>
    <path id="Rectangle_723" data-name="Rectangle 723" d="M-.75-.75H203.315V191.4H-.75ZM201.815.75H.75V189.9H201.815Z" transform="translate(4.428 3.164)" fill="#b79159"/>
    <g id="Group_640" data-name="Group 640">
      <g id="Group_639" data-name="Group 639" clip-path="url(#clip-path)">
        <path id="Path_4198" data-name="Path 4198" d="M282.743,263.153a1.676,1.676,0,1,0-1.676,1.676,1.675,1.675,0,0,0,1.676-1.676" transform="translate(-71.322 -66.749)" fill="#b79159"/>
        <path id="Path_4199" data-name="Path 4199" d="M3.351,263.153a1.676,1.676,0,1,0-1.676,1.676,1.675,1.675,0,0,0,1.676-1.676" transform="translate(0 -66.749)" fill="#b79159"/>
        <path id="Path_4200" data-name="Path 4200" d="M204.435,197.371H8.135v-.77a5.892,5.892,0,0,0-5.885-5.885H1.48V6.655h.77A5.892,5.892,0,0,0,8.135.77V0h196.3V.77a5.892,5.892,0,0,0,5.885,5.885h.77v184.06h-.77a5.892,5.892,0,0,0-5.885,5.885ZM9.636,195.83h193.3a7.44,7.44,0,0,1,6.616-6.616V8.156a7.44,7.44,0,0,1-6.616-6.616H9.636A7.44,7.44,0,0,1,3.021,8.156V189.214A7.44,7.44,0,0,1,9.636,195.83Z" transform="translate(-0.574 -0.197)" fill="#b79159"/>
        <g id="Group_629" data-name="Group 629" transform="translate(12.964 88.017)" opacity="0.6">
          <g id="Group_628" data-name="Group 628">
            <g id="Group_627" data-name="Group 627" clip-path="url(#clip-path-9)">
              <path id="Path_4201" data-name="Path 4201" d="M71.625,118.187a27.4,27.4,0,0,1-54.217,0Z" transform="translate(-17.408 -118.187)" fill="#f2f2f2"/>
            </g>
          </g>
        </g>
        <g id="Group_632" data-name="Group 632" transform="translate(15.661 29.151)" opacity="0.6">
          <g id="Group_631" data-name="Group 631">
            <g id="Group_630" data-name="Group 630" clip-path="url(#clip-path-10)">
              <path id="Path_4202" data-name="Path 4202" d="M68.311,102.8H23.1l-2.07-2.98L43.635,39.143h4.14L70.381,99.825ZM26.28,98.387H65.131L45.7,46.241Z" transform="translate(-21.03 -39.143)" fill="#f2f2f2"/>
            </g>
          </g>
        </g>
        <g id="Group_635" data-name="Group 635" transform="translate(143.228 88.017)" opacity="0.6">
          <g id="Group_634" data-name="Group 634">
            <g id="Group_633" data-name="Group 633" clip-path="url(#clip-path-9)">
              <path id="Path_4203" data-name="Path 4203" d="M246.541,118.187a27.4,27.4,0,0,1-54.217,0Z" transform="translate(-192.324 -118.187)" fill="#f2f2f2"/>
            </g>
          </g>
        </g>
        <g id="Group_638" data-name="Group 638" transform="translate(145.661 29.151)" opacity="0.6">
          <g id="Group_637" data-name="Group 637">
            <g id="Group_636" data-name="Group 636" clip-path="url(#clip-path-10)">
              <path id="Path_4204" data-name="Path 4204" d="M242.872,102.8H197.661l-2.07-2.98L218.2,39.143h4.139l22.606,60.682Zm-42.032-4.418h38.852L220.267,46.241Z" transform="translate(-195.591 -39.143)" fill="#f2f2f2"/>
            </g>
          </g>
        </g>
        <rect id="Rectangle_728" data-name="Rectangle 728" width="28.3" height="1.862" transform="translate(161.872 64.072)" fill="#b79159"/>
        <rect id="Rectangle_729" data-name="Rectangle 729" width="28.3" height="1.862" transform="translate(25.923 64.072)" fill="#b79159"/>
        <rect id="Rectangle_730" data-name="Rectangle 730" width="47.662" height="1.862" transform="translate(139.093 99.935)" fill="#b79159"/>
        <rect id="Rectangle_731" data-name="Rectangle 731" width="47.662" height="1.862" transform="translate(29.219 99.935)" fill="#b79159"/>
        <path id="Path_4205" data-name="Path 4205" d="M87.945,56.684l.507,7.544h-.507a9.5,9.5,0,0,0-2.9-4.876,7.056,7.056,0,0,0-4.517-1.489,7,7,0,0,0-6.8,4.7,15.915,15.915,0,0,0-1.023,6.1,12.966,12.966,0,0,0,.966,5.221,7.236,7.236,0,0,0,2.9,3.388,8.359,8.359,0,0,0,4.427,1.178,7.666,7.666,0,0,0,3.812-.926,12.549,12.549,0,0,0,3.633-3.673l.507.327a11.644,11.644,0,0,1-3.894,4.337,9.854,9.854,0,0,1-5.285,1.375A10,10,0,0,1,71.238,75.8,11.693,11.693,0,0,1,68.98,68.63a12.727,12.727,0,0,1,1.489-6.1,10.771,10.771,0,0,1,4.1-4.312,11.077,11.077,0,0,1,5.7-1.53,10.45,10.45,0,0,1,4.745,1.178,2.569,2.569,0,0,0,.982.36,1.078,1.078,0,0,0,.769-.311,2.547,2.547,0,0,0,.605-1.227Z" transform="translate(-17.609 -14.47)"/>
        <path id="Path_4206" data-name="Path 4206" d="M115.3,73.418l.54.115-1.9,6.022H96.762v-.6H97.6a2.23,2.23,0,0,0,2.012-.917,5.273,5.273,0,0,0,.344-2.422V61.293a4.574,4.574,0,0,0-.459-2.6,2.4,2.4,0,0,0-1.9-.72h-.835v-.605h10.047v.605a6.156,6.156,0,0,0-2.478.327,2.007,2.007,0,0,0-.974.868,7.15,7.15,0,0,0-.262,2.5V75.611a4.533,4.533,0,0,0,.262,1.865,1.169,1.169,0,0,0,.605.508,10.639,10.639,0,0,0,2.553.164h1.62a11.739,11.739,0,0,0,3.584-.376,4.675,4.675,0,0,0,1.882-1.334,10.945,10.945,0,0,0,1.7-3.02" transform="translate(-24.701 -14.644)"/>
        <path id="Path_4207" data-name="Path 4207" d="M132.208,78.95v.6H122.7v-.6h.786a2.368,2.368,0,0,0,2-.8,4.979,4.979,0,0,0,.393-2.52V61.293a7.352,7.352,0,0,0-.213-2.225,1.48,1.48,0,0,0-.671-.7,3.1,3.1,0,0,0-1.505-.392H122.7v-.6h9.507v.6h-.8a2.348,2.348,0,0,0-1.979.8,4.8,4.8,0,0,0-.41,2.52V75.627a7.351,7.351,0,0,0,.213,2.225,1.463,1.463,0,0,0,.687.7,3.013,3.013,0,0,0,1.489.392Z" transform="translate(-31.323 -14.644)"/>
        <path id="Path_4208" data-name="Path 4208" d="M143.17,58.576v8.771h4.876a3.981,3.981,0,0,0,2.537-.572,3.69,3.69,0,0,0,.949-2.652h.605v7.724h-.605a8.453,8.453,0,0,0-.458-2.078,2.051,2.051,0,0,0-.966-.9,4.927,4.927,0,0,0-2.061-.327H143.17v7.314a6.8,6.8,0,0,0,.131,1.792,1.025,1.025,0,0,0,.458.507,2.777,2.777,0,0,0,1.244.188h3.764a10.175,10.175,0,0,0,2.732-.262,4.071,4.071,0,0,0,1.636-1.03,12.592,12.592,0,0,0,2.079-3.061h.655l-1.915,5.564h-17.1v-.605h.785a3.122,3.122,0,0,0,1.489-.376,1.375,1.375,0,0,0,.711-.786,7.684,7.684,0,0,0,.188-2.144V61.227a4.776,4.776,0,0,0-.425-2.6,2.537,2.537,0,0,0-1.964-.654h-.785v-.605h17.1l.246,4.859h-.638a7.668,7.668,0,0,0-.761-2.4,2.619,2.619,0,0,0-1.236-1,7.433,7.433,0,0,0-2.307-.245Z" transform="translate(-34.935 -14.644)"/>
        <path id="Path_4209" data-name="Path 4209" d="M161.723,57.365h6.022L181.31,74.007v-12.8a4.405,4.405,0,0,0-.458-2.553,2.427,2.427,0,0,0-1.915-.688h-.769v-.6h7.724v.6h-.786a2.257,2.257,0,0,0-2,.851,4.975,4.975,0,0,0-.36,2.39v18.7h-.589L167.532,62.045V75.708a4.534,4.534,0,0,0,.442,2.553,2.456,2.456,0,0,0,1.914.687h.786v.605H162.95v-.605h.769a2.272,2.272,0,0,0,2.012-.85,4.961,4.961,0,0,0,.36-2.39V60.278a10.1,10.1,0,0,0-1.465-1.489,5.378,5.378,0,0,0-1.464-.671,5.208,5.208,0,0,0-1.44-.148Z" transform="translate(-41.284 -14.644)"/>
        <path id="Path_4210" data-name="Path 4210" d="M213.8,57.365l.246,5.2h-.622a6.281,6.281,0,0,0-.492-1.963,3.285,3.285,0,0,0-1.349-1.4,4.708,4.708,0,0,0-2.218-.451h-3.125V75.708a4.536,4.536,0,0,0,.442,2.553,2.457,2.457,0,0,0,1.915.687h.769v.605h-9.409v-.605h.786a2.252,2.252,0,0,0,2-.85,4.961,4.961,0,0,0,.36-2.39V58.755h-2.668a7.431,7.431,0,0,0-2.209.23,3.03,3.03,0,0,0-1.457,1.194,4.834,4.834,0,0,0-.719,2.389h-.622l.261-5.2Z" transform="translate(-49.886 -14.644)"/>
        <path id="Path_4211" data-name="Path 4211" d="M49.992,95.684l.507,7.544h-.507a9.5,9.5,0,0,0-2.9-4.876,7.056,7.056,0,0,0-4.517-1.489,7,7,0,0,0-6.8,4.7,15.916,15.916,0,0,0-1.023,6.1,12.966,12.966,0,0,0,.966,5.221,7.236,7.236,0,0,0,2.9,3.388,8.359,8.359,0,0,0,4.427,1.178,7.666,7.666,0,0,0,3.812-.926A12.549,12.549,0,0,0,50.5,112.85l.507.327a11.644,11.644,0,0,1-3.894,4.337,9.853,9.853,0,0,1-5.285,1.375,10,10,0,0,1-8.542-4.092,11.693,11.693,0,0,1-2.258-7.166,12.727,12.727,0,0,1,1.489-6.1,10.771,10.771,0,0,1,4.1-4.312,11.077,11.077,0,0,1,5.7-1.53,10.45,10.45,0,0,1,4.745,1.178,2.57,2.57,0,0,0,.982.36,1.078,1.078,0,0,0,.769-.311,2.547,2.547,0,0,0,.605-1.227Z" transform="translate(-7.92 -24.426)"/>
        <path id="Path_4212" data-name="Path 4212" d="M65.065,106.658H75.374v-6.349a7.411,7.411,0,0,0-.213-2.242,1.462,1.462,0,0,0-.687-.7,3.006,3.006,0,0,0-1.489-.393H72.2v-.6H81.69v.6h-.785a3.112,3.112,0,0,0-1.489.377,1.374,1.374,0,0,0-.712.793,7.921,7.921,0,0,0-.188,2.169v14.318a7.359,7.359,0,0,0,.212,2.225,1.477,1.477,0,0,0,.671.7,3.106,3.106,0,0,0,1.506.392h.785v.605H72.2v-.605h.786a2.347,2.347,0,0,0,1.979-.8,4.8,4.8,0,0,0,.41-2.52V107.87H65.065v6.758a7.327,7.327,0,0,0,.213,2.225,1.464,1.464,0,0,0,.687.7,3.016,3.016,0,0,0,1.489.392h.8v.605H58.749v-.605h.785a2.369,2.369,0,0,0,2-.8,4.991,4.991,0,0,0,.392-2.52V100.309a7.444,7.444,0,0,0-.212-2.242,1.476,1.476,0,0,0-.671-.7,3.1,3.1,0,0,0-1.506-.393h-.785v-.6h9.507v.6h-.8a3.114,3.114,0,0,0-1.489.377,1.415,1.415,0,0,0-.7.793,7.575,7.575,0,0,0-.2,2.169Z" transform="translate(-14.997 -24.6)"/>
        <path id="Path_4213" data-name="Path 4213" d="M105.665,110.952h-8.59l-1.506,3.5a5.545,5.545,0,0,0-.556,1.931,1.121,1.121,0,0,0,.483.891,4.206,4.206,0,0,0,2.087.5v.605H90.594v-.605a3.776,3.776,0,0,0,1.8-.638,10.013,10.013,0,0,0,1.849-3.192l7.805-18.261h.573l7.724,18.458a8.432,8.432,0,0,0,1.694,2.889,3.455,3.455,0,0,0,2.119.745v.605H105.4v-.605a3.28,3.28,0,0,0,1.791-.442,1.139,1.139,0,0,0,.467-.916,6.79,6.79,0,0,0-.655-2.275Zm-.458-1.211-3.764-8.967-3.861,8.967Z" transform="translate(-23.126 -24.426)"/>
        <path id="Path_4214" data-name="Path 4214" d="M136.41,118.554l-8.575-18.67v14.824a4.532,4.532,0,0,0,.442,2.553,2.426,2.426,0,0,0,1.914.688h.786v.6h-7.724v-.6h.786a2.253,2.253,0,0,0,2-.851,4.961,4.961,0,0,0,.36-2.39v-14.5a5.074,5.074,0,0,0-.328-2.128,1.819,1.819,0,0,0-.843-.794,4.522,4.522,0,0,0-1.971-.319v-.605h6.283l8.051,17.362,7.92-17.362h6.283v.605h-.769a2.274,2.274,0,0,0-2.013.85,4.975,4.975,0,0,0-.36,2.39v14.5a4.4,4.4,0,0,0,.458,2.553,2.427,2.427,0,0,0,1.915.688h.769v.6h-9.425v-.6h.786a2.227,2.227,0,0,0,2-.851,4.961,4.961,0,0,0,.36-2.39V99.884l-8.558,18.67Z" transform="translate(-31.464 -24.6)"/>
        <path id="Path_4215" data-name="Path 4215" d="M169.137,108.163v6.464a4.533,4.533,0,0,0,.458,2.6,2.354,2.354,0,0,0,1.882.72h.851v.6h-9.507v-.6h.834a2.232,2.232,0,0,0,2.013-.917,5.4,5.4,0,0,0,.327-2.405V100.293a4.684,4.684,0,0,0-.442-2.6,2.407,2.407,0,0,0-1.9-.719h-.834v-.605h8.132a14.417,14.417,0,0,1,4.7.614,6.459,6.459,0,0,1,2.9,2.07,5.318,5.318,0,0,1,1.178,3.453,5.817,5.817,0,0,1-1.791,4.418,7.066,7.066,0,0,1-5.065,1.7,14.358,14.358,0,0,1-1.734-.114q-.933-.115-2-.344m0-.932q.867.163,1.538.246a9.719,9.719,0,0,0,1.146.081,3.9,3.9,0,0,0,2.937-1.317,4.79,4.79,0,0,0,1.235-3.412,6.141,6.141,0,0,0-.589-2.676,4.069,4.069,0,0,0-1.67-1.849,4.881,4.881,0,0,0-2.455-.614,9.7,9.7,0,0,0-2.143.311Z" transform="translate(-41.564 -24.6)"/>
        <path id="Path_4216" data-name="Path 4216" d="M194.911,117.95v.6H185.4v-.6h.786a2.368,2.368,0,0,0,2-.8,4.98,4.98,0,0,0,.393-2.52V100.293a7.351,7.351,0,0,0-.213-2.225,1.48,1.48,0,0,0-.671-.7,3.1,3.1,0,0,0-1.505-.392H185.4v-.6h9.507v.6h-.8a2.348,2.348,0,0,0-1.979.8,4.8,4.8,0,0,0-.41,2.52v14.334a7.351,7.351,0,0,0,.213,2.225,1.463,1.463,0,0,0,.687.7,3.013,3.013,0,0,0,1.489.392Z" transform="translate(-47.329 -24.6)"/>
        <path id="Path_4217" data-name="Path 4217" d="M209.589,95.684a10.06,10.06,0,0,1,7.487,3.281,11.323,11.323,0,0,1,3.167,8.19,11.666,11.666,0,0,1-3.191,8.395,10.665,10.665,0,0,1-15.423.082,11.683,11.683,0,0,1-3.117-8.428,11.226,11.226,0,0,1,3.6-8.623,10.619,10.619,0,0,1,7.478-2.9m-.311,1.195a5.855,5.855,0,0,0-4.778,2.209q-2.242,2.749-2.242,8.05,0,5.435,2.324,8.363a5.742,5.742,0,0,0,4.713,2.225,6.439,6.439,0,0,0,5.162-2.437q2.038-2.439,2.038-7.692,0-5.695-2.242-8.493a6.047,6.047,0,0,0-4.975-2.225" transform="translate(-50.675 -24.426)"/>
        <path id="Path_4218" data-name="Path 4218" d="M226.407,96.365h6.022l13.565,16.642v-12.8a4.405,4.405,0,0,0-.458-2.553,2.427,2.427,0,0,0-1.915-.688h-.769v-.6h7.724v.6h-.786a2.256,2.256,0,0,0-2,.851,4.975,4.975,0,0,0-.36,2.39v18.7h-.589l-14.629-17.869v13.663a4.534,4.534,0,0,0,.442,2.553,2.456,2.456,0,0,0,1.914.687h.786v.605h-7.724v-.605h.769a2.272,2.272,0,0,0,2.012-.85,4.961,4.961,0,0,0,.36-2.39V99.278a10.1,10.1,0,0,0-1.465-1.489,5.378,5.378,0,0,0-1.464-.671,5.208,5.208,0,0,0-1.44-.148Z" transform="translate(-57.796 -24.6)"/>
        <path id="Path_4219" data-name="Path 4219" d="M119.247,149.119l-1.554,4.27H104.6v-.6a59.055,59.055,0,0,0,8.133-8.608,10.878,10.878,0,0,0,2.356-6.1A4.828,4.828,0,0,0,113.8,134.6a4.12,4.12,0,0,0-3.093-1.358,4.826,4.826,0,0,0-2.937.958,5.553,5.553,0,0,0-1.923,2.806h-.605a7.614,7.614,0,0,1,2.1-4.647,5.876,5.876,0,0,1,4.23-1.621,6.261,6.261,0,0,1,4.509,1.734,5.488,5.488,0,0,1,1.807,4.091,7.924,7.924,0,0,1-.785,3.371,22.2,22.2,0,0,1-3.928,5.612q-4.074,4.452-5.089,5.367h5.792a15.743,15.743,0,0,0,2.479-.131,3.209,3.209,0,0,0,1.285-.532,3.487,3.487,0,0,0,1-1.136Z" transform="translate(-26.702 -33.375)"/>
        <path id="Path_4220" data-name="Path 4220" d="M125.933,142.425a16.912,16.912,0,0,1,1.145-6.537,9.165,9.165,0,0,1,3.044-4.083,5.148,5.148,0,0,1,3.044-1.063,5.791,5.791,0,0,1,4.582,2.6q2.536,3.224,2.536,8.737a17.228,17.228,0,0,1-1.113,6.563,8.688,8.688,0,0,1-2.839,3.919,5.816,5.816,0,0,1-3.33,1.218q-3.175,0-5.286-3.747a15.249,15.249,0,0,1-1.784-7.61m3.208.41a20.867,20.867,0,0,0,1.129,7.478q.933,2.439,2.782,2.437a2.9,2.9,0,0,0,1.833-.793,5.045,5.045,0,0,0,1.44-2.659,32.337,32.337,0,0,0,.753-7.937,21.725,21.725,0,0,0-.786-6.332,5.623,5.623,0,0,0-1.521-2.668,2.5,2.5,0,0,0-1.621-.539,2.571,2.571,0,0,0-1.979,1,8.335,8.335,0,0,0-1.6,4.27,39.7,39.7,0,0,0-.425,5.744" transform="translate(-32.148 -33.375)"/>
        <path id="Path_4221" data-name="Path 4221" d="M160.7,149.119l-1.554,4.27H146.051v-.6a59.055,59.055,0,0,0,8.133-8.608,10.878,10.878,0,0,0,2.356-6.1,4.828,4.828,0,0,0-1.293-3.469,4.12,4.12,0,0,0-3.093-1.358,4.826,4.826,0,0,0-2.937.958,5.553,5.553,0,0,0-1.923,2.806h-.605a7.614,7.614,0,0,1,2.1-4.647,5.876,5.876,0,0,1,4.23-1.621,6.261,6.261,0,0,1,4.509,1.734,5.488,5.488,0,0,1,1.807,4.091,7.924,7.924,0,0,1-.785,3.371,22.2,22.2,0,0,1-3.928,5.612q-4.074,4.452-5.089,5.367h5.792a15.743,15.743,0,0,0,2.479-.131,3.209,3.209,0,0,0,1.285-.532,3.487,3.487,0,0,0,1-1.136Z" transform="translate(-37.283 -33.375)"/>
        <path id="Path_4222" data-name="Path 4222" d="M167.383,142.425a16.911,16.911,0,0,1,1.145-6.537,9.165,9.165,0,0,1,3.044-4.083,5.148,5.148,0,0,1,3.044-1.063,5.791,5.791,0,0,1,4.582,2.6q2.536,3.224,2.536,8.737a17.228,17.228,0,0,1-1.113,6.563,8.688,8.688,0,0,1-2.839,3.919,5.816,5.816,0,0,1-3.33,1.218q-3.175,0-5.286-3.747a15.249,15.249,0,0,1-1.784-7.61m3.208.41a20.868,20.868,0,0,0,1.129,7.478q.933,2.439,2.782,2.437a2.9,2.9,0,0,0,1.833-.793,5.045,5.045,0,0,0,1.44-2.659,32.337,32.337,0,0,0,.753-7.937,21.725,21.725,0,0,0-.786-6.332,5.623,5.623,0,0,0-1.521-2.668,2.5,2.5,0,0,0-1.621-.539,2.571,2.571,0,0,0-1.979,1,8.335,8.335,0,0,0-1.6,4.27,39.7,39.7,0,0,0-.425,5.744" transform="translate(-42.729 -33.375)"/>
        <rect id="Rectangle_732" data-name="Rectangle 732" width="47.662" height="1.489" transform="translate(81.88 141.046)" fill="#b79159"/>
        <rect id="Rectangle_733" data-name="Rectangle 733" width="47.662" height="1.489" transform="translate(81.88 164.634)" fill="#b79159"/>
        <path id="Path_4223" data-name="Path 4223" d="M54.423,207.295v-.282h.389a1.03,1.03,0,0,0,.932-.42,2.4,2.4,0,0,0,.168-1.13v-6.689a2.135,2.135,0,0,0-.214-1.215,1.123,1.123,0,0,0-.885-.337h-.389v-.281h4.215a9.22,9.22,0,0,1,3.532.527,4.2,4.2,0,0,1,1.947,1.757,5.423,5.423,0,0,1,.737,2.84,5.18,5.18,0,0,1-1.314,3.612,5.778,5.778,0,0,1-4.49,1.619Zm2.955-.748A7.817,7.817,0,0,0,59,206.76a3.862,3.862,0,0,0,2.94-1.244,5.47,5.47,0,0,0,0-6.758,3.945,3.945,0,0,0-3-1.237,6.492,6.492,0,0,0-1.565.221Z" transform="translate(-13.893 -50.274)"/>
        <path id="Path_4224" data-name="Path 4224" d="M71.023,204.013a3.593,3.593,0,0,0,.756,2.443,2.3,2.3,0,0,0,1.795.885,1.945,1.945,0,0,0,1.195-.377,2.793,2.793,0,0,0,.852-1.3l.237.153a3.649,3.649,0,0,1-.932,1.906,2.488,2.488,0,0,1-1.932.859,2.822,2.822,0,0,1-2.157-.981,3.758,3.758,0,0,1-.9-2.639,3.992,3.992,0,0,1,.92-2.8,3,3,0,0,1,2.31-1,2.58,2.58,0,0,1,1.933.775,2.843,2.843,0,0,1,.756,2.073Zm0-.442h3.238a2.989,2.989,0,0,0-.161-.947,1.516,1.516,0,0,0-.569-.672,1.432,1.432,0,0,0-.79-.244,1.576,1.576,0,0,0-1.134.492,2.137,2.137,0,0,0-.584,1.371" transform="translate(-17.854 -51.352)"/>
        <path id="Path_4225" data-name="Path 4225" d="M80.688,201.334a2.793,2.793,0,0,1,2.192-1.413,2.422,2.422,0,0,1,1.878.921,3.7,3.7,0,0,1,.8,2.516,3.885,3.885,0,0,1-1.237,3,3.412,3.412,0,0,1-2.367.977,3.729,3.729,0,0,1-1.241-.221,5.7,5.7,0,0,1-1.287-.664V199.2a10.365,10.365,0,0,0-.057-1.466.64.64,0,0,0-.179-.375.468.468,0,0,0-.305-.1,1.594,1.594,0,0,0-.535.122l-.106-.267,2.1-.856h.343Zm0,.489v4.185a2.952,2.952,0,0,0,.806.577,2,2,0,0,0,.851.194,1.674,1.674,0,0,0,1.294-.763,3.54,3.54,0,0,0,.6-2.222,3.15,3.15,0,0,0-.6-2.066,1.662,1.662,0,0,0-2.172-.515,3.487,3.487,0,0,0-.779.611" transform="translate(-19.974 -50.101)"/>
        <path id="Path_4226" data-name="Path 4226" d="M91.245,201.174v1.574q.878-1.573,1.8-1.574a.98.98,0,0,1,.695.256.787.787,0,0,1,.275.592.7.7,0,0,1-.2.5.635.635,0,0,1-.474.206,1,1,0,0,1-.6-.264.993.993,0,0,0-.492-.263.451.451,0,0,0-.3.153,3.662,3.662,0,0,0-.71,1.031v3.352a2.067,2.067,0,0,0,.145.877.786.786,0,0,0,.352.344,1.541,1.541,0,0,0,.725.138v.275H88.886V208.1a1.481,1.481,0,0,0,.794-.168.652.652,0,0,0,.267-.389,3.956,3.956,0,0,0,.038-.741v-2.711a11.169,11.169,0,0,0-.05-1.455.567.567,0,0,0-.183-.34.514.514,0,0,0-.332-.107,1.514,1.514,0,0,0-.534.115l-.077-.276,2.115-.855Z" transform="translate(-22.671 -51.355)"/>
        <path id="Path_4227" data-name="Path 4227" d="M100.426,207.367a11.532,11.532,0,0,1-1.352.962,2.063,2.063,0,0,1-.878.191,1.575,1.575,0,0,1-1.2-.5,1.821,1.821,0,0,1-.469-1.305,1.665,1.665,0,0,1,.229-.886,3.031,3.031,0,0,1,1.089-.977,16.982,16.982,0,0,1,2.577-1.116v-.275a2.286,2.286,0,0,0-.332-1.436,1.2,1.2,0,0,0-.966-.389,1.087,1.087,0,0,0-.764.259.783.783,0,0,0-.29.6l.015.443a.764.764,0,0,1-.179.542.617.617,0,0,1-.47.191.594.594,0,0,1-.462-.2.775.775,0,0,1-.18-.542,1.563,1.563,0,0,1,.672-1.207,2.9,2.9,0,0,1,1.886-.55,3.265,3.265,0,0,1,1.527.314,1.432,1.432,0,0,1,.664.741,4.169,4.169,0,0,1,.138,1.343v2.375a10.922,10.922,0,0,0,.038,1.225.51.51,0,0,0,.127.3.3.3,0,0,0,.2.076.409.409,0,0,0,.214-.054,4.678,4.678,0,0,0,.619-.557v.427q-.856,1.145-1.635,1.145a.74.74,0,0,1-.6-.26,1.4,1.4,0,0,1-.229-.885m0-.5v-2.665a15.064,15.064,0,0,0-1.489.649,2.569,2.569,0,0,0-.862.7,1.355,1.355,0,0,0-.26.8,1.308,1.308,0,0,0,.328.912,1,1,0,0,0,.756.363,2.768,2.768,0,0,0,1.527-.763" transform="translate(-24.642 -51.355)"/>
        <path id="Path_4228" data-name="Path 4228" d="M121.014,207.294h-2.764l-3.505-4.841c-.26.01-.471.015-.634.015-.066,0-.138,0-.214,0l-.237-.011v3.009a2.116,2.116,0,0,0,.214,1.214,1.089,1.089,0,0,0,.871.337h.405v.282h-4.437v-.282h.389a1.041,1.041,0,0,0,.939-.428,2.4,2.4,0,0,0,.161-1.122v-6.69a2.113,2.113,0,0,0-.214-1.215,1.123,1.123,0,0,0-.885-.336h-.389v-.282h3.772a8.992,8.992,0,0,1,2.433.241,2.786,2.786,0,0,1,1.329.886,2.306,2.306,0,0,1,.546,1.538,2.418,2.418,0,0,1-.623,1.658,3.515,3.515,0,0,1-1.928.993l2.138,2.97a5.287,5.287,0,0,0,1.26,1.36,3.169,3.169,0,0,0,1.375.428Zm-7.354-5.322c.1,0,.181,0,.252,0l.176,0a3.364,3.364,0,0,0,2.234-.642,2.052,2.052,0,0,0,.751-1.634,2.131,2.131,0,0,0-.607-1.577,2.171,2.171,0,0,0-1.607-.608,6.746,6.746,0,0,0-1.2.146Z" transform="translate(-28.262 -50.274)"/>
        <path id="Path_4229" data-name="Path 4229" d="M126.755,208.854a.814.814,0,0,1,.6.248.849.849,0,1,1-1.451.6.814.814,0,0,1,.248-.6.823.823,0,0,1,.6-.244" transform="translate(-32.141 -53.315)"/>
        <path id="Path_4230" data-name="Path 4230" d="M142.426,196.621V200.2h-.282a4.46,4.46,0,0,0-.493-1.642,2.569,2.569,0,0,0-1.011-.97,2.8,2.8,0,0,0-1.36-.36,1.848,1.848,0,0,0-1.313.486,1.475,1.475,0,0,0-.52,1.1,1.305,1.305,0,0,0,.328.863,8.441,8.441,0,0,0,2.253,1.527,15.575,15.575,0,0,1,1.982,1.2,2.926,2.926,0,0,1,.818.982,2.6,2.6,0,0,1,.286,1.183,2.681,2.681,0,0,1-.912,2.027,3.308,3.308,0,0,1-2.349.852,4.937,4.937,0,0,1-.848-.069,8.678,8.678,0,0,1-.982-.279,4.358,4.358,0,0,0-.943-.241.4.4,0,0,0-.3.114.923.923,0,0,0-.164.474h-.283V203.9h.283a5.012,5.012,0,0,0,.535,1.669,2.561,2.561,0,0,0,1.026.92,3.189,3.189,0,0,0,1.516.366,2.152,2.152,0,0,0,1.508-.5,1.56,1.56,0,0,0,.554-1.191,1.623,1.623,0,0,0-.21-.772,2.311,2.311,0,0,0-.653-.725,18.693,18.693,0,0,0-1.626-.974,15.823,15.823,0,0,1-1.89-1.187,3.19,3.19,0,0,1-.851-.978,2.422,2.422,0,0,1-.29-1.176,2.55,2.55,0,0,1,.856-1.921,3.046,3.046,0,0,1,2.176-.806,4.371,4.371,0,0,1,1.749.405,1.8,1.8,0,0,0,.6.191.458.458,0,0,0,.325-.118.959.959,0,0,0,.2-.478Z" transform="translate(-34.777 -50.192)"/>
        <path id="Path_4231" data-name="Path 4231" d="M153.005,205.717a3.789,3.789,0,0,1-1.107,2.126,2.661,2.661,0,0,1-1.825.745,2.7,2.7,0,0,1-2.077-1,3.929,3.929,0,0,1-.885-2.7,3.73,3.73,0,0,1,.981-2.681,3.139,3.139,0,0,1,2.356-1.031,2.584,2.584,0,0,1,1.695.547,1.51,1.51,0,0,1,.664,1.133.621.621,0,0,1-.187.47.723.723,0,0,1-.523.179.815.815,0,0,1-.68-.29,1.206,1.206,0,0,1-.171-.611,1,1,0,0,0-.31-.687,1.1,1.1,0,0,0-.74-.229,1.514,1.514,0,0,0-1.23.565,3,3,0,0,0-.619,1.977,4.006,4.006,0,0,0,.614,2.211,1.889,1.889,0,0,0,1.661.958,2,2,0,0,0,1.343-.512,3.441,3.441,0,0,0,.818-1.275Z" transform="translate(-37.554 -51.354)"/>
        <path id="Path_4232" data-name="Path 4232" d="M157.966,196.263v5.116a5.855,5.855,0,0,1,1.344-1.195,2.09,2.09,0,0,1,.993-.264,1.632,1.632,0,0,1,1.023.329,1.937,1.937,0,0,1,.634,1.031,7.3,7.3,0,0,1,.145,1.787v2.474a2.584,2.584,0,0,0,.106.909.6.6,0,0,0,.26.29,1.458,1.458,0,0,0,.672.107v.275h-3.436v-.275h.16a1.141,1.141,0,0,0,.68-.149.79.79,0,0,0,.267-.439,6.235,6.235,0,0,0,.022-.719v-2.474a5.987,5.987,0,0,0-.118-1.5,1.018,1.018,0,0,0-.378-.538,1.067,1.067,0,0,0-.626-.18,1.767,1.767,0,0,0-.779.2,3.737,3.737,0,0,0-.97.8v3.7a2.865,2.865,0,0,0,.08.894.652.652,0,0,0,.3.294,1.706,1.706,0,0,0,.753.118v.275h-3.467v-.275a1.55,1.55,0,0,0,.734-.145.546.546,0,0,0,.244-.29,2.639,2.639,0,0,0,.092-.871v-6.33a10.6,10.6,0,0,0-.057-1.474.658.658,0,0,0-.176-.374.477.477,0,0,0-.317-.1,1.878,1.878,0,0,0-.52.122l-.106-.267,2.092-.855Z" transform="translate(-39.701 -50.101)"/>
        <path id="Path_4233" data-name="Path 4233" d="M169.711,201.174a3.1,3.1,0,0,1,2.551,1.207,3.706,3.706,0,0,1,.817,2.367,4.462,4.462,0,0,1-.451,1.9,3.2,3.2,0,0,1-3,1.939,2.964,2.964,0,0,1-2.512-1.259,3.9,3.9,0,0,1-.787-2.383,4.225,4.225,0,0,1,.478-1.913,3.182,3.182,0,0,1,2.905-1.86m-.237.5a1.587,1.587,0,0,0-.813.241,1.686,1.686,0,0,0-.661.844,4.056,4.056,0,0,0-.252,1.551,5.4,5.4,0,0,0,.607,2.634,1.808,1.808,0,0,0,1.6,1.107,1.49,1.49,0,0,0,1.222-.611,3.472,3.472,0,0,0,.481-2.1,4.787,4.787,0,0,0-.8-2.933,1.652,1.652,0,0,0-1.382-.733" transform="translate(-42.459 -51.355)"/>
        <path id="Path_4234" data-name="Path 4234" d="M177.932,204.013a3.593,3.593,0,0,0,.756,2.443,2.3,2.3,0,0,0,1.795.885,1.945,1.945,0,0,0,1.195-.377,2.793,2.793,0,0,0,.852-1.3l.237.153a3.649,3.649,0,0,1-.932,1.906,2.488,2.488,0,0,1-1.932.859,2.822,2.822,0,0,1-2.157-.981,3.758,3.758,0,0,1-.9-2.639,3.992,3.992,0,0,1,.92-2.8,3,3,0,0,1,2.31-1,2.58,2.58,0,0,1,1.933.775,2.843,2.843,0,0,1,.756,2.073Zm0-.442h3.238a2.989,2.989,0,0,0-.161-.947,1.516,1.516,0,0,0-.569-.672,1.432,1.432,0,0,0-.79-.244,1.576,1.576,0,0,0-1.134.492,2.137,2.137,0,0,0-.584,1.371" transform="translate(-45.145 -51.352)"/>
        <path id="Path_4235" data-name="Path 4235" d="M187.98,202.656a3.3,3.3,0,0,1,2.344-1.482,1.685,1.685,0,0,1,.985.287,1.918,1.918,0,0,1,.657.943,4.373,4.373,0,0,1,.168,1.405v2.986a2.513,2.513,0,0,0,.107.9.629.629,0,0,0,.27.3,1.535,1.535,0,0,0,.692.107v.275h-3.459V208.1h.144a1.159,1.159,0,0,0,.684-.15.772.772,0,0,0,.271-.439,4.4,4.4,0,0,0,.031-.718v-2.863a2.908,2.908,0,0,0-.248-1.386.886.886,0,0,0-.836-.432,2.52,2.52,0,0,0-1.81.993v3.689a2.635,2.635,0,0,0,.084.878.7.7,0,0,0,.293.325,1.813,1.813,0,0,0,.76.1v.275h-3.459V208.1h.153a.822.822,0,0,0,.722-.272,1.979,1.979,0,0,0,.187-1.034v-2.6a11.174,11.174,0,0,0-.057-1.534.66.66,0,0,0-.175-.374.479.479,0,0,0-.317-.1,1.487,1.487,0,0,0-.512.114l-.115-.275,2.108-.855h.328Z" transform="translate(-47.365 -51.355)"/>
        <path id="Path_4236" data-name="Path 4236" d="M198.01,201.334a2.793,2.793,0,0,1,2.192-1.413,2.422,2.422,0,0,1,1.878.921,3.7,3.7,0,0,1,.8,2.516,3.885,3.885,0,0,1-1.237,3,3.412,3.412,0,0,1-2.367.977,3.728,3.728,0,0,1-1.241-.221,5.7,5.7,0,0,1-1.287-.664V199.2a10.365,10.365,0,0,0-.057-1.466.64.64,0,0,0-.179-.375.468.468,0,0,0-.305-.1,1.594,1.594,0,0,0-.535.122l-.107-.267,2.1-.856h.343Zm0,.489v4.185a2.952,2.952,0,0,0,.806.577,2,2,0,0,0,.851.194,1.674,1.674,0,0,0,1.294-.763,3.54,3.54,0,0,0,.6-2.222,3.15,3.15,0,0,0-.6-2.066,1.662,1.662,0,0,0-2.172-.515,3.487,3.487,0,0,0-.779.611" transform="translate(-49.923 -50.101)"/>
        <path id="Path_4237" data-name="Path 4237" d="M207.929,204.013a3.593,3.593,0,0,0,.756,2.443,2.3,2.3,0,0,0,1.795.885,1.945,1.945,0,0,0,1.195-.377,2.792,2.792,0,0,0,.852-1.3l.237.153a3.649,3.649,0,0,1-.932,1.906,2.488,2.488,0,0,1-1.932.859,2.822,2.822,0,0,1-2.157-.981,3.758,3.758,0,0,1-.9-2.639,3.992,3.992,0,0,1,.92-2.8,3,3,0,0,1,2.31-1,2.58,2.58,0,0,1,1.933.775,2.843,2.843,0,0,1,.756,2.073Zm0-.442h3.238a2.989,2.989,0,0,0-.161-.947,1.516,1.516,0,0,0-.569-.672,1.432,1.432,0,0,0-.79-.244,1.576,1.576,0,0,0-1.134.492,2.136,2.136,0,0,0-.584,1.371" transform="translate(-52.802 -51.352)"/>
        <path id="Path_4238" data-name="Path 4238" d="M218.008,201.174v1.574q.878-1.573,1.8-1.574a.98.98,0,0,1,.695.256.787.787,0,0,1,.275.592.7.7,0,0,1-.2.5.635.635,0,0,1-.474.206,1,1,0,0,1-.6-.264.993.993,0,0,0-.492-.263.451.451,0,0,0-.3.153,3.663,3.663,0,0,0-.71,1.031v3.352a2.067,2.067,0,0,0,.145.877.786.786,0,0,0,.352.344,1.541,1.541,0,0,0,.725.138v.275h-3.581V208.1a1.481,1.481,0,0,0,.794-.168.652.652,0,0,0,.267-.389,3.957,3.957,0,0,0,.038-.741v-2.711a11.171,11.171,0,0,0-.05-1.455.568.568,0,0,0-.183-.34.514.514,0,0,0-.332-.107,1.514,1.514,0,0,0-.534.115l-.077-.276,2.115-.855Z" transform="translate(-55.03 -51.355)"/>
        <path id="Path_4239" data-name="Path 4239" d="M224.767,205.825a2.3,2.3,0,0,1-1.329-2.116,2.385,2.385,0,0,1,.783-1.786,2.781,2.781,0,0,1,2-.749,3.06,3.06,0,0,1,1.734.489h1.481a1.946,1.946,0,0,1,.382.019.127.127,0,0,1,.076.065.468.468,0,0,1,.046.244.69.69,0,0,1-.038.276.163.163,0,0,1-.08.061,1.709,1.709,0,0,1-.386.023h-.909a2.356,2.356,0,0,1-.321,3.077,2.834,2.834,0,0,1-2.008.694,3.873,3.873,0,0,1-1.062-.153,2.022,2.022,0,0,0-.454.509.808.808,0,0,0-.118.37.351.351,0,0,0,.127.252.918.918,0,0,0,.492.176c.142.021.5.038,1.069.054q1.574.039,2.039.106a1.922,1.922,0,0,1,1.134.527,1.441,1.441,0,0,1,.424,1.054,2.207,2.207,0,0,1-.81,1.619,4.365,4.365,0,0,1-3.108,1.115,4.454,4.454,0,0,1-2.49-.664q-.573-.382-.573-.794a.864.864,0,0,1,.084-.366,4.233,4.233,0,0,1,.534-.787q.054-.068.779-.824a2.411,2.411,0,0,1-.562-.424.623.623,0,0,1-.164-.424,1.25,1.25,0,0,1,.218-.626,5,5,0,0,1,1-1.016m-.077,2.551a3.75,3.75,0,0,0-.542.725,1.305,1.305,0,0,0-.183.618.773.773,0,0,0,.443.642,4.216,4.216,0,0,0,2.207.473,3.406,3.406,0,0,0,2.027-.485,1.329,1.329,0,0,0,.653-1.034.578.578,0,0,0-.389-.565,5.056,5.056,0,0,0-1.573-.2,25.169,25.169,0,0,1-2.642-.176m1.405-6.835a1.192,1.192,0,0,0-.947.451,2.1,2.1,0,0,0-.382,1.382,2.975,2.975,0,0,0,.519,1.871,1.231,1.231,0,0,0,1.008.5,1.2,1.2,0,0,0,.954-.435,2.07,2.07,0,0,0,.375-1.367,3.055,3.055,0,0,0-.527-1.9,1.21,1.21,0,0,0-1-.5" transform="translate(-56.894 -51.355)"/>
      </g>
    </g>
  </g>
</svg>
