<svg id="Group_534" data-name="Group 534" xmlns="http://www.w3.org/2000/svg" xmlns:xlink="http://www.w3.org/1999/xlink" width="236.383" height="217.778" viewBox="0 0 236.383 217.778">
  <defs>
    <clipPath id="clip-path">
      <rect id="Rectangle_642" data-name="Rectangle 642" width="236.383" height="217.778" fill="none"/>
    </clipPath>
  </defs>
  <g id="Group_534-2" data-name="Group 534" clip-path="url(#clip-path)">
    <path id="Path_3708" data-name="Path 3708" d="M195.263,119.335a62.174,62.174,0,1,0-62.174,62.174,62.174,62.174,0,0,0,62.174-62.174" transform="translate(-15.038 -12.121)" fill="#fff"/>
    <path id="Path_3709" data-name="Path 3709" d="M221.357,136.115a103.2,103.2,0,0,1-206.408,0H0V246.642H236.383V136.115Zm-103.2,107.252A107.373,107.373,0,0,1,10.9,136.115h1.576a105.676,105.676,0,0,0,211.352,0H225.4A107.373,107.373,0,0,1,118.153,243.367" transform="translate(0 -28.864)" fill="#0e4f6f"/>
    <path id="Path_3710" data-name="Path 3710" d="M228.762,107.463h-2a106.247,106.247,0,0,0-2.143-21.256A104.88,104.88,0,0,0,208.752,48.5a105.775,105.775,0,0,0-46.4-38.211,104.924,104.924,0,0,0-19.8-6.145,106.5,106.5,0,0,0-42.511,0A104.88,104.88,0,0,0,62.334,20.01a105.776,105.776,0,0,0-38.211,46.4,104.924,104.924,0,0,0-6.145,19.8,106.245,106.245,0,0,0-2.143,21.256h-2a108.251,108.251,0,0,1,2.183-21.657A106.882,106.882,0,0,1,32.189,47.378,107.775,107.775,0,0,1,79.469,8.445,106.931,106.931,0,0,1,99.642,2.182a108.5,108.5,0,0,1,43.313,0,106.881,106.881,0,0,1,38.428,16.171,107.774,107.774,0,0,1,38.933,47.28,106.929,106.929,0,0,1,6.262,20.173A108.253,108.253,0,0,1,228.762,107.463Z" transform="translate(-3.146 -0.212)"/>
    <path id="Path_3711" data-name="Path 3711" d="M184.407,136.115a62.231,62.231,0,1,1-124.461,0H18.973a103.2,103.2,0,1,0,206.407,0H184.407Z" transform="translate(-4.023 -28.864)" fill="#efb41b"/>
    <path id="Path_3712" data-name="Path 3712" d="M59.983,106.979a62.211,62.211,0,0,1,124.393,0c0,.191.008.382.014.573h40.983c0-.191,0-.382-.007-.573a103.2,103.2,0,0,0-206.373,0c0,.191,0,.382-.007.573H59.969c.006-.191.01-.382.014-.573" transform="translate(-4.026 -1.089)" fill="#efb41b"/>
    <path id="Path_3713" data-name="Path 3713" d="M44.158,97.957l-.482,1.973,13.467,3.3.32-1.308a.773.773,0,0,1,.829-.5l-1.672,6.832-.665-.162.482-1.974-11.766-2.879,11.3,8.517-.114.469L44,114.937l9.693,2.372.32-1.308a.773.773,0,0,1,.829-.5l-1.219,4.982-.666-.162.483-1.974-13.468-3.3-.483,1.974-.666-.163,1.013-4.144,12.409-2.636L42.3,102.653l1.189-4.859Z" transform="translate(-8.234 -20.738)"/>
    <path id="Path_3714" data-name="Path 3714" d="M57.133,85.579a5.307,5.307,0,0,1,5.019.111,5.8,5.8,0,0,1,2.825,2.877,5.936,5.936,0,0,1-2.863,7.593,5.607,5.607,0,0,1-5.066-.19,5.525,5.525,0,0,1-2.711-2.763,6.225,6.225,0,0,1,2.795-7.628m4.078,8.745a2.383,2.383,0,0,0,3.029-1.19A2.509,2.509,0,0,0,64.521,92q-.061-1.759-3.723-3.578a12.451,12.451,0,0,0-2.615-1.014,2.4,2.4,0,0,0-3.04,1.212,2.506,2.506,0,0,0-.281,1.306q.188,1.624,3.643,3.34a13.281,13.281,0,0,0,2.706,1.06" transform="translate(-11.426 -18.025)"/>
    <path id="Path_3715" data-name="Path 3715" d="M71.453,80.748a1.953,1.953,0,0,0,.283-2.38,1.8,1.8,0,0,0-.37-.356,2.424,2.424,0,0,0-2.6.121q-.35.188-1.06.619a8.4,8.4,0,0,1-2.795,1.227,2.869,2.869,0,0,1-2.93-3.905,6.639,6.639,0,0,1,.976-1.953,5.889,5.889,0,0,1,2.339-2.078q-.622-.44-.45-.816A1.369,1.369,0,0,1,64.968,71l2.592,1.832-.44.622a2.231,2.231,0,0,0-3.373.726q-.982,1.39-.345,2.337a1.606,1.606,0,0,0,.4.4,2.249,2.249,0,0,0,2.393-.174q.316-.182,1.009-.593A8.066,8.066,0,0,1,70.047,74.9a2.973,2.973,0,0,1,2.1.55,2.863,2.863,0,0,1,1.075,3.5,6.413,6.413,0,0,1-.923,1.834,7.05,7.05,0,0,1-2.751,2.441q.539.381.431.708a2.22,2.22,0,0,1-.184.306l-3.153-2.228.469-.663q2.623,1.789,4.342-.6" transform="translate(-13.105 -15.057)"/>
    <path id="Path_3716" data-name="Path 3716" d="M68.361,67.21l1.183-1.293-1.779-1.629,1.492-2.421,2.174,1.989,2.4-2.623.487.445-2.4,2.624L77.593,69.5c.125.114.256.223.392.325q1.187.845,1.908.059.821-.935-.469-2.874l.537-.437a6.028,6.028,0,0,1,.719,1.208,2.691,2.691,0,0,1-.654,3.085q-2.254,2.274-5.124-.043l-4.87-4.457-1.183,1.292Z" transform="translate(-14.37 -12.985)"/>
    <path id="Path_3717" data-name="Path 3717" d="M89.873,57.371l-.477-.706,2.486-1.674L82.261,40.7l-.759.511a3.824,3.824,0,0,0-.854.765q-1.105,1.353-.359,3.818l.782,2.629-.785.529L76.735,43.4,90.081,34.41l3.787,5.4-.759.511-2.142-1.713c-.224-.18-.448-.345-.678-.5a3.368,3.368,0,0,0-4.026-.1l-.785.529L95.1,52.823l1.78-1.2a1.038,1.038,0,0,1,1.157.248Z" transform="translate(-16.272 -7.297)"/>
    <path id="Path_3718" data-name="Path 3718" d="M113.9,45.8q.462-.123.738.548l-7.9,3.261-.313-.758a4.728,4.728,0,0,0,.927-.485q.778-.593.261-1.849l-3.887-9.42-1.837.759-.3-.73,4.812-1.985,1.306,2.669a5.575,5.575,0,0,1,.337-1.913,4.653,4.653,0,0,1,2.577-2.77,3.152,3.152,0,0,1,.737-.2,1.781,1.781,0,0,1,2.092,1.185,1.729,1.729,0,0,1,.131.73,1.639,1.639,0,0,1-1.066,1.634,1.866,1.866,0,0,1-.59.142,2.256,2.256,0,0,1-1.507-.675q-.656-.514-1.035-.358a1.169,1.169,0,0,0-.47.433q-.975,1.528-.023,4.412l2.611,6.328,2.129-.879a1.2,1.2,0,0,1,.274-.079" transform="translate(-21.543 -6.977)"/>
    <path id="Path_3719" data-name="Path 3719" d="M137.151,39.93q.415-.015.551.7l-5.144.983-.676-2.7a7.359,7.359,0,0,1-.349,1.031,4.738,4.738,0,0,1-3.595,2.871q-4.406.811-5.415-4.3l-1.463-7.654-1.983.38-.148-.775,5.392-1.031,1.706,8.924a5.313,5.313,0,0,0,.216.794q.754,2.265,2.8,1.873a2.585,2.585,0,0,0,1.174-.578,4.111,4.111,0,0,0,1.134-3.814l-1.4-7.474-1.859.355-.148-.774,5.267-1.008L135.6,40.195l1.209-.231a1.777,1.777,0,0,1,.347-.034" transform="translate(-25.22 -5.882)"/>
    <path id="Path_3720" data-name="Path 3720" d="M149.209,40.054q2.113.034,2.641-1.377a2.164,2.164,0,0,0,.1-.63q.025-1.514-1.945-2.588-.438-.227-1.378-.653a10.437,10.437,0,0,1-3.217-2.008,3.564,3.564,0,0,1,1.955-5.743,8.263,8.263,0,0,1,2.688-.366,7.312,7.312,0,0,1,3.771.945q.015-.946.522-1.033a1.645,1.645,0,0,1,.316-.026l-.064,3.942-.946-.015q-.08-2.872-3.108-2.953-2.113-.033-2.64,1.283a2.017,2.017,0,0,0-.138.692q-.021,1.325,1.856,2.334.407.2,1.315.621a9.981,9.981,0,0,1,3.28,2.041,3.691,3.691,0,0,1,.905,2.539,3.556,3.556,0,0,1-2.834,3.55,7.945,7.945,0,0,1-2.53.338,8.755,8.755,0,0,1-4.431-1.113c-.009.547-.151.86-.425.939a2.69,2.69,0,0,1-.442.024L144.542,36l1.009.017q0,3.944,3.658,4.034" transform="translate(-30.635 -5.635)"/>
    <path id="Path_3721" data-name="Path 3721" d="M161.925,27.14l2.146.362.5-2.955,3.532-.077-.608,3.609,4.356.734-.136.808-4.355-.734-1.589,9.426a6.182,6.182,0,0,0-.073.628q-.082,1.81,1.225,2.03,1.529.226,2.681-2.428l.819.266a7.536,7.536,0,0,1-.776,1.565,3.347,3.347,0,0,1-3.659,1.4q-3.893-.817-3.413-5.375l1.363-8.088-2.146-.362Z" transform="translate(-34.308 -5.189)"/>
    <path id="Path_3722" data-name="Path 3722" d="M182.249,32.593l-.542,10.332,4.752-5.768.18-3.637,5.293,2.143-.3.731-1.843-.746-.589,10.28,6.525-7.875-1.871-.758.3-.731,4.212,1.705a1.787,1.787,0,0,1-.16.31q-.225.385-.78.16a1.647,1.647,0,0,0-.3-.089q-.561-.125-1.157.587l-8.079,9.525-.819-.331a1.99,1.99,0,0,1-.806-.531,4.38,4.38,0,0,1-.213-2.332l.329-6.947-5.947,7.121-.848-.343a2.249,2.249,0,0,1-.713-.425,3.628,3.628,0,0,1-.423-2.486l.5-11.234-1.258-.509.3-.73,6.463,2.617-.3.731Z" transform="translate(-37.68 -6.365)"/>
    <path id="Path_3723" data-name="Path 3723" d="M214.816,51.488a6.589,6.589,0,0,1-1.225,6.117,7.2,7.2,0,0,1-4.132,2.831,7.377,7.377,0,0,1-8.668-5.152,6.968,6.968,0,0,1,1.332-6.155,6.861,6.861,0,0,1,3.969-2.715,7.731,7.731,0,0,1,8.724,5.074m-11.582,3.091q-1.106,2.556.8,3.963a3.128,3.128,0,0,0,1.329.59q2.166.306,5.185-3.778a15.478,15.478,0,0,0,1.809-2.978q1.105-2.556-.823-3.982a3.115,3.115,0,0,0-1.538-.626q-2.026-.124-4.877,3.732a16.408,16.408,0,0,0-1.884,3.079" transform="translate(-42.529 -9.802)"/>
    <path id="Path_3724" data-name="Path 3724" d="M218.787,71.713q.273.391-.26.882L212.739,66.3l.6-.555a4.789,4.789,0,0,0,.775.7q.826.526,1.826-.392l7.5-6.9L222.1,57.7l.581-.534,3.524,3.832-2.054,2.146a5.576,5.576,0,0,1,1.912-.344,4.656,4.656,0,0,1,3.489,1.462,3.116,3.116,0,0,1,.443.622,1.781,1.781,0,0,1-.389,2.372,1.73,1.73,0,0,1-.641.375,1.64,1.64,0,0,1-1.9-.437,1.891,1.891,0,0,1-.336-.505,2.254,2.254,0,0,1,.113-1.648q.256-.794-.021-1.094a1.158,1.158,0,0,0-.568-.292q-1.77-.389-4.149,1.5l-5.039,4.635,1.559,1.695a1.179,1.179,0,0,1,.169.23" transform="translate(-45.113 -12.121)"/>
    <path id="Path_3725" data-name="Path 3725" d="M234.941,70.808l1.206,1.811,2.495-1.661,2.475,2.522-3.046,2.027,2.448,3.677-.683.455-2.448-3.677-7.957,5.3a6.16,6.16,0,0,0-.507.376q-1.375,1.18-.641,2.283.883,1.269,3.6.291l.367.778a7.53,7.53,0,0,1-1.671.507,3.346,3.346,0,0,1-3.525-1.709q-2.072-3.4,1.579-6.167l6.828-4.546-1.206-1.812Z" transform="translate(-47.99 -15.015)"/>
    <path id="Path_3726" data-name="Path 3726" d="M234.177,95.109q.072.415-.567.684l-2.841-6.745.756-.319a5.61,5.61,0,0,0,.413.819q.631.933,1.941.381l15.816-6.661-.783-1.861.756-.318,2.131,5.059-8.868,3.735a5.922,5.922,0,0,1,1.332.157,4.941,4.941,0,0,1,3.324,3.017,4.525,4.525,0,0,1,.37,1.692q0,2.773-3.456,4.229l-7.356,3.1.465,1.1a2.385,2.385,0,0,1,.118.361c.048.277-.142.505-.567.684l-2.719-6.454.756-.318a2.717,2.717,0,0,0,.562.927q.416.339,1.608-.164l6.135-2.584a5.277,5.277,0,0,0,1.056-.581,2.265,2.265,0,0,0,.9-2.911,2.594,2.594,0,0,0-.809-1.028q-1.657-1.253-4.245-.163l-6.745,2.841.4.96a2.353,2.353,0,0,1,.117.361" transform="translate(-48.936 -17.195)"/>
    <path id="Path_3727" data-name="Path 3727" d="M233.2,114.916q.825,1.358,4.962,2.239l11.867-8.256-.254-1.4.775-.141,1.262,6.92-.775.143-.357-1.956L242.321,118l9.719,1.948-.425-2.327.776-.142.871,4.78a2,2,0,0,1-.377.036c-.281-.012-.46-.236-.54-.671a1.191,1.191,0,0,0-.082-.273q-.173-.417-1.072-.606l-12.668-2.469a17.76,17.76,0,0,1-2.938-.812q-3.333-1.22-3.8-3.765a4.242,4.242,0,0,1,.05-1.837,1.93,1.93,0,0,1,1.47-1.614,1.55,1.55,0,0,1,.414-.012,1.263,1.263,0,0,1,1.143,1.17,1.406,1.406,0,0,1-.1.884,3.169,3.169,0,0,1-1.168.982q-.751.459-.654.985a2.027,2.027,0,0,0,.248.66" transform="translate(-49.136 -22.767)"/>
    <path id="Path_3728" data-name="Path 3728" d="M135.5,125.72q-5.079,7.447-15.828,7.448a18.738,18.738,0,0,1-10.072-2.624q-4.91-3.218-4.91-7.957a4.462,4.462,0,0,1,3.978-4.147,4.651,4.651,0,0,1,2.624.677q1.438,1.1,1.863,5.163a15.039,15.039,0,0,0,.423,2.708q.93,4.063,5.5,4.063a12.891,12.891,0,0,0,5.84-1.27q6.263-3.217,6.263-12.612a18.765,18.765,0,0,0-.677-5.163q-2.285-8.041-10.5-8.041a14.011,14.011,0,0,0-9.057,3.216l-2.793-2.116V81.621q14.642.593,15.32.593a26.035,26.035,0,0,0,6.6-.593,4.34,4.34,0,0,0,3.216-3.47h2.031q0,6.179-1.947,8.125-2.285,2.286-11,2.286-4.657,0-11.427-.678v16.336a19.735,19.735,0,0,1,11-3.216A16.561,16.561,0,0,1,132.7,104.56a14.8,14.8,0,0,1,5.5,12.1,15.974,15.974,0,0,1-2.709,9.057" transform="translate(-22.199 -16.572)" fill="#0e4f6f"/>
    <path id="Path_3729" data-name="Path 3729" d="M179.667,83.913q8.887,5.586,8.887,20.653c0,6.32-1.411,12.356-4.232,16.531a16.281,16.281,0,0,1-14.22,7.618A16.618,16.618,0,0,1,160.03,125.5c-5.475-4.063-8.21-11.65-8.21-21.186q0-9.4,4.316-15.574a16.645,16.645,0,0,1,14.305-7.364,17.044,17.044,0,0,1,9.226,2.54m-6.813,41.64c5.417-1.41,8.166-8.6,8.166-21.241q0-9.142-1.693-14.051-2.371-6.685-9.057-6.686a9.94,9.94,0,0,0-3.725.678q-7.281,2.793-7.279,20.314a57.61,57.61,0,0,0,1.185,12.722c1.523,6.151,4.825,8.438,9.9,8.438a9,9,0,0,0,2.5-.173" transform="translate(-32.194 -17.256)" fill="#0e4f6f"/>
    <path id="Path_3730" data-name="Path 3730" d="M130.049,176a5.368,5.368,0,0,0,.838-.05,1.418,1.418,0,0,0,.99-1.067l.407-1.371h.482l-.05,4.266H123.04v-.508a3.722,3.722,0,0,1,.28-1.421,6.32,6.32,0,0,1,2.438-2.514q2.057-1.4,2.285-1.574a5.111,5.111,0,0,0,2.158-4.088,4.717,4.717,0,0,0-.076-.864,2.439,2.439,0,0,0-2.692-2.083,1.972,1.972,0,0,0-1.3.381,2.783,2.783,0,0,0-.66,1.8q-.051.508-.1.762a1.151,1.151,0,0,1-1.219,1.016,1.21,1.21,0,0,1-.33-.051,1.193,1.193,0,0,1-.761-1.295,2.7,2.7,0,0,1,.914-2.031,5.213,5.213,0,0,1,3.682-1.244,6.774,6.774,0,0,1,2.336.381,3.253,3.253,0,0,1,2.361,3.25,4.246,4.246,0,0,1-1.3,2.895,18.3,18.3,0,0,1-3.885,2.844q-.71.457-1.041.66-1.828,1.168-1.828,1.9Z" transform="translate(-26.091 -34.79)" fill="#0e4f6f"/>
    <path id="Path_3731" data-name="Path 3731" d="M145.97,164.823q2.666,1.676,2.666,6.2a8.253,8.253,0,0,1-1.269,4.723,4.885,4.885,0,0,1-4.266,2.286,4.984,4.984,0,0,1-3.022-.965q-2.463-1.828-2.463-6.119a7.965,7.965,0,0,1,1.295-4.673,4.994,4.994,0,0,1,4.291-2.209,5.112,5.112,0,0,1,2.768.762m-2.031,12.442q2.438-.635,2.438-6.322a13.539,13.539,0,0,0-.508-4.215,2.69,2.69,0,0,0-2.717-2.006,2.981,2.981,0,0,0-1.117.2q-2.184.838-2.183,6.094a15.039,15.039,0,0,0,.355,3.58q.686,2.768,2.971,2.768a2.765,2.765,0,0,0,.762-.1" transform="translate(-29.182 -34.79)" fill="#0e4f6f"/>
    <path id="Path_3732" data-name="Path 3732" d="M160.285,176a5.368,5.368,0,0,0,.838-.05,1.418,1.418,0,0,0,.99-1.067l.407-1.371H163l-.05,4.266h-9.675v-.508a3.722,3.722,0,0,1,.28-1.421,6.32,6.32,0,0,1,2.438-2.514q2.057-1.4,2.285-1.574a5.111,5.111,0,0,0,2.158-4.088,4.716,4.716,0,0,0-.076-.864,2.439,2.439,0,0,0-2.692-2.083,1.972,1.972,0,0,0-1.3.381,2.783,2.783,0,0,0-.66,1.8q-.051.508-.1.762a1.151,1.151,0,0,1-1.219,1.016,1.21,1.21,0,0,1-.33-.051,1.193,1.193,0,0,1-.761-1.295,2.7,2.7,0,0,1,.914-2.031,5.213,5.213,0,0,1,3.682-1.244,6.774,6.774,0,0,1,2.336.381,3.253,3.253,0,0,1,2.361,3.25,4.246,4.246,0,0,1-1.3,2.895,18.3,18.3,0,0,1-3.885,2.844q-.71.457-1.041.66-1.828,1.168-1.828,1.9Z" transform="translate(-32.503 -34.79)" fill="#0e4f6f"/>
    <path id="Path_3733" data-name="Path 3733" d="M176.206,164.823q2.666,1.676,2.666,6.2a8.253,8.253,0,0,1-1.269,4.723,4.885,4.885,0,0,1-4.266,2.286,4.984,4.984,0,0,1-3.022-.965q-2.463-1.828-2.463-6.119a7.965,7.965,0,0,1,1.295-4.673,4.994,4.994,0,0,1,4.291-2.209,5.111,5.111,0,0,1,2.768.762m-2.031,12.442q2.438-.635,2.438-6.322a13.539,13.539,0,0,0-.508-4.215,2.69,2.69,0,0,0-2.717-2.006,2.981,2.981,0,0,0-1.117.2q-2.184.838-2.183,6.094a15.039,15.039,0,0,0,.355,3.58q.686,2.768,2.971,2.768a2.765,2.765,0,0,0,.762-.1" transform="translate(-35.594 -34.79)" fill="#0e4f6f"/>
    <path id="Path_3734" data-name="Path 3734" d="M146.092,203.88a5.812,5.812,0,0,1-4.218,1.428,7.289,7.289,0,0,1-4.083-1.137,3.135,3.135,0,0,1-.045.625q-.112.334-.669.334v-4.686h.8a7.532,7.532,0,0,0,.29,1.607,3.405,3.405,0,0,0,3.5,2.611,3.271,3.271,0,0,0,1.294-.246,2.13,2.13,0,0,0,1.451-2.142,2.085,2.085,0,0,0-.246-.982,5.191,5.191,0,0,0-2.432-1.9q-2.12-1.05-2.455-1.228a3.673,3.673,0,0,1-2.1-3.145,3,3,0,0,1,.893-2.165,5.3,5.3,0,0,1,3.95-1.384,8.459,8.459,0,0,1,3.793.871,2.533,2.533,0,0,1,.022-.357q.09-.424.715-.425v3.995h-.8a3.6,3.6,0,0,0-.625-2.12,3.18,3.18,0,0,0-2.766-1.316,2.969,2.969,0,0,0-1.094.2,1.818,1.818,0,0,0-1.295,1.83,2.221,2.221,0,0,0,.246,1.005,5.278,5.278,0,0,0,2.387,1.875q2.1,1.026,2.41,1.2a3.739,3.739,0,0,1,2.1,3.19,3.3,3.3,0,0,1-1.027,2.454" transform="translate(-29.068 -40.603)" fill="#5260aa"/>
    <path id="Path_3735" data-name="Path 3735" d="M150.933,205.146v-.6h1.785V192.36h-1.785v-.6h7.185a5.233,5.233,0,0,1,2.99.827,3.1,3.1,0,0,1,1.473,2.678,3.675,3.675,0,0,1-.178,1.116,3.823,3.823,0,0,1-2.9,2.41l3.5,5.779h.469a1.54,1.54,0,0,1,.268.024c.193.044.29.231.29.557l-3.749.023-3.392-6.137h-1.428v5.512h1.785v.6Zm4.53-12.786v6h1.674a2.348,2.348,0,0,0,1.384-.423,3.008,3.008,0,0,0,1.138-2.611,3.718,3.718,0,0,0-.223-1.295A2.383,2.383,0,0,0,157,192.36Z" transform="translate(-32.006 -40.663)" fill="#d73e40"/>
    <path id="Path_3736" data-name="Path 3736" d="M240.9,149.086a7.645,7.645,0,0,1,8.657-7.141A7.991,7.991,0,0,1,254.25,144a7.486,7.486,0,0,1,2.314,6.664,9.119,9.119,0,0,1-1.777,4.721,4,4,0,0,1,.727.124q.416.17.353.8l-4.884-.415.081-.808a12.559,12.559,0,0,0,1.517-.358,4.284,4.284,0,0,0,3.22-3.836,4.772,4.772,0,0,0-.113-1.67q-.9-3.205-6.435-3.762-7.128-.694-7.636,3.85a7.175,7.175,0,0,0-.036.864q.129,3.023,3.837,4.47l-.076.758-4.9-.494a1.7,1.7,0,0,1,.1-.45q.169-.417,1.152-.292a10.585,10.585,0,0,1-.79-5.081" transform="translate(-50.987 -30.09)"/>
    <path id="Path_3737" data-name="Path 3737" d="M246.74,171.619a5.3,5.3,0,0,1-4.964.754,5.791,5.791,0,0,1-3.277-2.347,5.937,5.937,0,0,1,1.514-7.974,5.607,5.607,0,0,1,5.022-.684,5.527,5.527,0,0,1,3.145,2.257,6.223,6.223,0,0,1-1.441,7.994m-5.522-7.913a2.385,2.385,0,0,0-2.779,1.693,2.517,2.517,0,0,0-.081,1.169q.364,1.722,4.283,2.884a12.5,12.5,0,0,0,2.75.55,2.4,2.4,0,0,0,2.787-1.717,2.5,2.5,0,0,0,.051-1.336q-.463-1.567-4.163-2.664a13.352,13.352,0,0,0-2.848-.578" transform="translate(-50.373 -34.156)"/>
    <path id="Path_3738" data-name="Path 3738" d="M231.738,179.247q-.23.307-.74.023l2.786-4.988.576.322a3.583,3.583,0,0,0-.318.724q-.254.819.723,1.364l7.161,4,.792-1.419.555.31-2.08,3.724-1.836-.879c.085.124.17.251.256.375a3.674,3.674,0,0,1,.082,3.914,2.8,2.8,0,0,1-.519.67,3.2,3.2,0,0,1-3.1.71,1.392,1.392,0,0,1,.118.154,3.83,3.83,0,0,1,.272,4.253,3.035,3.035,0,0,1-1.227,1.206,3.852,3.852,0,0,1-3.921-.27l-5.7-3.183-.47.842a1.932,1.932,0,0,1-.171.254c-.151.167-.391.16-.715-.021l2.786-4.988.576.322a2.128,2.128,0,0,0-.3.793q-.057.519.851,1.028l4.744,2.65a4.379,4.379,0,0,0,1.2.463,1.661,1.661,0,0,0,1.923-.787,1.574,1.574,0,0,0,.189-.65,2.974,2.974,0,0,0-1.42-2.51l-.288-.161-5.609-3.133-.322.577a1.918,1.918,0,0,1-.17.253q-.228.251-.715-.021l2.637-4.721.576.321a2.11,2.11,0,0,0-.3.793q-.058.52.851,1.027l4.744,2.651a4.2,4.2,0,0,0,1.195.463,1.542,1.542,0,0,0,1.8-.679,1.634,1.634,0,0,0,.2-.821,3.305,3.305,0,0,0-1.743-2.66l-5.463-3.08-.335.6a.922.922,0,0,1-.133.187" transform="translate(-47.556 -36.957)"/>
    <path id="Path_3739" data-name="Path 3739" d="M214.606,196.491a1.815,1.815,0,0,1-.224.209q-.278.194-.693-.181l4.345-4.8.49.443a3.123,3.123,0,0,0-.521.727q-.326.662.464,1.379l9.659,8.74,1.073-1.187.47.426-2.828,3.126-1.968-1.61a4.606,4.606,0,0,1,.485,1.432,4.121,4.121,0,0,1-1.1,3.561,3.871,3.871,0,0,1-2.346,1.268,5.561,5.561,0,0,1-4.6-1.73,6.379,6.379,0,0,1-2.185-3.792,4.862,4.862,0,0,1,1.266-4.162,4.007,4.007,0,0,1,2.982-1.48l-3.8-3.441Zm10.13,9.165q.008-1.979-2.382-4.141a7.766,7.766,0,0,0-2.324-1.52,2.392,2.392,0,0,0-2.853.466,2.294,2.294,0,0,0-.352.5q-.928,1.935,2.291,4.847,3.406,3.047,5.063,1.293a2.192,2.192,0,0,0,.557-1.448" transform="translate(-45.314 -40.655)"/>
    <path id="Path_3740" data-name="Path 3740" d="M205.689,214.544a4.138,4.138,0,0,1-.166-1,3.746,3.746,0,0,1,1.587-3.042,4.154,4.154,0,0,1,1.166-.653,2.669,2.669,0,0,1,3.235,1.05q2.059,2.678-3.124,6.852l1,1.281a7.342,7.342,0,0,0,.587.669,1.793,1.793,0,0,0,3-.245,2.051,2.051,0,0,0-.177-1.506q-.108-.3-.145-.434a1.281,1.281,0,0,1,.422-1.522,1.442,1.442,0,0,1,.407-.221,1.065,1.065,0,0,1,1.328.381,1.5,1.5,0,0,1,.311.853q.135,1.7-2.388,3.668a6.9,6.9,0,0,1-1.139.728,3.533,3.533,0,0,1-4.832-1.157l-3.281-4.2q-.751-.962-1.242-.642-.585.488.389,1.984l-.537.386a7.306,7.306,0,0,1-.61-1.07,2.046,2.046,0,0,1,.886-2.5q1.6-1.215,3.324.336m.73-1.954a3.088,3.088,0,0,0,.109,2.781l1.421,1.822a8.51,8.51,0,0,0,1.485-1.481,2.077,2.077,0,0,0,.018-2.784l-.157-.2q-1.33-1.54-2.451-.664a1.681,1.681,0,0,0-.427.526" transform="translate(-42.694 -44.461)"/>
    <path id="Path_3741" data-name="Path 3741" d="M192.72,220.771q-.326.089-.589-.4l5.157-2.741.31.584a3.519,3.519,0,0,0-.659.437q-.657.551-.132,1.536l3.849,7.242,1.436-.762.3.561-3.767,2-1.1-1.8a4.735,4.735,0,0,1-.106,1.206,3.967,3.967,0,0,1-2.057,2.732,3.613,3.613,0,0,1-1.387.422q-2.244.214-3.65-2.432l-3.015-5.672-.875.465a1.878,1.878,0,0,1-.281.121q-.327.087-.59-.406l5.135-2.729.31.583a2.493,2.493,0,0,0-.67.471q-.42.454.08,1.4l2.55,4.8a3.813,3.813,0,0,0,.589.838,1.736,1.736,0,0,0,2.3.477,2.065,2.065,0,0,0,.733-.677,3.279,3.279,0,0,0,.034-3.181l-2.921-5.55-.695.37a1.772,1.772,0,0,1-.281.119" transform="translate(-39.349 -46.149)"/>
    <path id="Path_3742" data-name="Path 3742" d="M178.048,228.064c-.251.055-.442-.1-.574-.467l5.733-2.067.224.622a3.458,3.458,0,0,0-.738.347,1.143,1.143,0,0,0-.349,1.5l2.781,7.716,1.552-.56.215.6-4.18,1.507-3.461-9.6-.979.353a.923.923,0,0,1-.224.053m5.512,11.7a1.613,1.613,0,0,1,1.132-1.353,1.838,1.838,0,0,1,.8-.1,1.572,1.572,0,0,1,1.4,1.115,1.791,1.791,0,0,1,.084.834,1.6,1.6,0,0,1-1.114,1.4,1.76,1.76,0,0,1-2.219-1.062,1.706,1.706,0,0,1-.084-.834" transform="translate(-37.635 -47.825)"/>
    <path id="Path_3743" data-name="Path 3743" d="M164.652,232.751a4.575,4.575,0,0,1,3.643-2.916,6.215,6.215,0,0,1,3.164.077,5.3,5.3,0,0,1,3.584,4.3,6,6,0,0,1-.278,3.781,5.206,5.206,0,0,1-3.906,3.026,6.538,6.538,0,0,1-2.934.028,3.235,3.235,0,0,1-2.638-2.509,1.78,1.78,0,0,1,.039-1q.49-1.306,4.225-2.057l2.514-.507c0-.016-.008-.033-.011-.049q-1.22-4.906-4.12-4.26a3.4,3.4,0,0,0-1.027.41,3.738,3.738,0,0,0-1.823,2.564l-.639-.066a5.264,5.264,0,0,1,.207-.827m6.618,7.426q1.639-.936.956-4.479l-1.925.351a6.044,6.044,0,0,0-1.559.476,1.394,1.394,0,0,0-.518,1.65,4.537,4.537,0,0,0,.256.8q.7,1.742,2.236,1.4a2.434,2.434,0,0,0,.554-.2" transform="translate(-34.872 -48.703)"/>
    <path id="Path_3744" data-name="Path 3744" d="M155.887,232.31q-1.7.123-2.02,1.291a1.765,1.765,0,0,0-.039.512q.087,1.215,1.744,1.936.368.151,1.151.426a8.393,8.393,0,0,1,2.722,1.382,2.869,2.869,0,0,1-1.16,4.743,6.654,6.654,0,0,1-2.129.484,5.892,5.892,0,0,1-3.09-.489c.036.506-.079.8-.345.864a1.243,1.243,0,0,1-.251.043l-.229-3.166.76-.054a2.232,2.232,0,0,0,2.7,2.148q1.7-.123,2.025-1.216a1.62,1.62,0,0,0,.061-.564q-.077-1.064-1.653-1.74-.339-.128-1.1-.4a8.057,8.057,0,0,1-2.774-1.4,2.969,2.969,0,0,1-.905-1.971,2.862,2.862,0,0,1,2.02-3.048,6.4,6.4,0,0,1,2-.45,7.048,7.048,0,0,1,3.632.578c-.032-.44.061-.7.274-.783a2.216,2.216,0,0,1,.353-.052l.277,3.85-.81.058q-.279-3.162-3.219-2.975" transform="translate(-32.094 -49.065)"/>
    <path id="Path_3745" data-name="Path 3745" d="M129.748,240.7a5.305,5.305,0,0,1-1.455-4.8,5.8,5.8,0,0,1,1.857-3.579,5.936,5.936,0,0,1,8.107.362,5.6,5.6,0,0,1,1.393,4.873,5.526,5.526,0,0,1-1.784,3.435,6.224,6.224,0,0,1-8.119-.287m7.044-6.594a2.385,2.385,0,0,0-2.072-2.51,2.52,2.52,0,0,0-1.167.087q-1.653.605-2.245,4.65a12.476,12.476,0,0,0-.152,2.8,2.4,2.4,0,0,0,2.1,2.513,2.5,2.5,0,0,0,1.329-.139q1.486-.682,2.043-4.5a13.231,13.231,0,0,0,.166-2.9" transform="translate(-27.189 -48.96)"/>
    <path id="Path_3746" data-name="Path 3746" d="M117.779,227.932q-.351-.157-.186-.716l6.844,2.018-.187.633a5.224,5.224,0,0,0-.769-.174,1.206,1.206,0,0,0-1.47.944L119.7,238.48l1.9.56-.187.633-1.9-.56-.1.341a6.423,6.423,0,0,1-1.65,2.9,4.348,4.348,0,0,1-4.531.914,5.038,5.038,0,0,1-1.907-.987,1.916,1.916,0,0,1-.761-2,1.3,1.3,0,0,1,.15-.326,1.152,1.152,0,0,1,1.416-.4,1.038,1.038,0,0,1,.655.564,6.127,6.127,0,0,1,.322,1.419c.11.7.377,1.117.8,1.241a1.216,1.216,0,0,0,.8-.028q.964-.485,2.084-4.283l.043-.146-2.777-.82.187-.632,2.777.819,2.7-9.157-1.73-.511a.953.953,0,0,1-.212-.089" transform="translate(-23.431 -48.183)"/>
    <path id="Path_3747" data-name="Path 3747" d="M105.157,233.638l-1.566-.786-1.083,2.155-2.736-.777,1.322-2.632L97.918,230l.3-.589,3.177,1.595,3.453-6.876a5.083,5.083,0,0,0,.206-.465q.49-1.373-.463-1.852-1.123-.535-2.636,1.234l-.567-.4a6.019,6.019,0,0,1,.967-1.02,2.69,2.69,0,0,1,3.146-.21q2.8,1.549,1.354,4.942l-2.963,5.9,1.566.786Z" transform="translate(-20.764 -46.868)"/>
    <path id="Path_3748" data-name="Path 3748" d="M94.722,215.393c-.15-.169-.117-.406.1-.708l4.8,3.408-.382.538a4.586,4.586,0,0,0-.63-.384q-.827-.369-1.489.563l-7.993,11.266,1.325.94-.381.539L86.47,229l4.482-6.317a4.767,4.767,0,0,1-.979.457,3.977,3.977,0,0,1-3.554-.652,3.658,3.658,0,0,1-.972-1q-1.177-1.893.571-4.359l3.717-5.239-.787-.559a1.846,1.846,0,0,1-.234-.2q-.223-.253.1-.709l4.6,3.262-.382.539a2.2,2.2,0,0,0-.778-.4q-.428-.054-1.03.794l-3.1,4.37a4.227,4.227,0,0,0-.475.846,1.822,1.822,0,0,0,.621,2.371,2.093,2.093,0,0,0,.99.359,3.269,3.269,0,0,0,2.973-1.689l3.409-4.8-.684-.485a1.908,1.908,0,0,1-.233-.2" transform="translate(-18.019 -44.622)"/>
    <path id="Path_3749" data-name="Path 3749" d="M77.437,202.512a4.576,4.576,0,0,1,4.412,1.52,6.208,6.208,0,0,1,1.627,2.715,5.3,5.3,0,0,1-1.719,5.328,6,6,0,0,1-3.345,1.787,5.207,5.207,0,0,1-4.646-1.681,6.544,6.544,0,0,1-1.592-2.465,3.237,3.237,0,0,1,.709-3.571,1.79,1.79,0,0,1,.864-.5q1.365-.284,4,2.47l1.773,1.854.036-.036q3.493-3.654,1.4-5.76a3.434,3.434,0,0,0-.9-.649,3.737,3.737,0,0,0-3.142-.169l-.286-.576a5.321,5.321,0,0,1,.809-.267M74.7,212.076q1.668.884,4.3-1.588l-1.325-1.44a6.021,6.021,0,0,0-1.236-1.062,1.392,1.392,0,0,0-1.67.444,4.545,4.545,0,0,0-.541.645,1.846,1.846,0,0,0,.011,2.64,2.411,2.411,0,0,0,.466.361" transform="translate(-15.255 -42.921)"/>
    <path id="Path_3750" data-name="Path 3750" d="M73.3,188.811q-1.021-.768-4.377-.194l-6.409,9.712.608.968-.539.336-3.007-4.8.537-.336.85,1.354,4.6-6.627-7.846,1.443,1.011,1.614-.537.337-2.077-3.313a1.573,1.573,0,0,1,.271-.14q.32-.111.6.341a.956.956,0,0,0,.143.18q.253.261.983.133l10.206-1.933a14.337,14.337,0,0,1,2.439-.269q2.856-.082,3.961,1.682a3.424,3.424,0,0,1,.511,1.388,1.556,1.556,0,0,1-.617,1.646,1.254,1.254,0,0,1-.307.132,1.017,1.017,0,0,1-1.2-.534,1.134,1.134,0,0,1-.192-.689,2.542,2.542,0,0,1,.58-1.083q.424-.566.2-.931a1.632,1.632,0,0,0-.383-.419" transform="translate(-11.898 -39.785)"/>
    <path id="Path_3751" data-name="Path 3751" d="M58.716,171.472a4.578,4.578,0,0,1,3.527,3.057,6.223,6.223,0,0,1,.495,3.127,5.3,5.3,0,0,1-3.584,4.3,5.993,5.993,0,0,1-3.77.408,5.206,5.206,0,0,1-3.682-3.294,6.556,6.556,0,0,1-.556-2.881,3.236,3.236,0,0,1,1.992-3.048,1.783,1.783,0,0,1,.987-.142q1.372.247,2.786,3.784l.953,2.383.046-.02q4.6-2.085,3.447-4.821a3.419,3.419,0,0,0-.589-.936,3.735,3.735,0,0,0-2.851-1.331l-.05-.64a5.27,5.27,0,0,1,.85.054m-6.109,7.849q1.217,1.444,4.577.132l-.691-1.83a6.008,6.008,0,0,0-.751-1.447,1.393,1.393,0,0,0-1.715-.212,4.562,4.562,0,0,0-.742.4,1.846,1.846,0,0,0-.975,2.453,2.386,2.386,0,0,0,.3.508" transform="translate(-10.844 -36.35)"/>
    <path id="Path_3752" data-name="Path 3752" d="M55.318,159.966a4.121,4.121,0,0,1,.978.258,3.746,3.746,0,0,1,2.124,2.7,4.132,4.132,0,0,1,.116,1.33,2.668,2.668,0,0,1-2.286,2.519q-3.286.779-4.965-5.661l-1.578.386a7.262,7.262,0,0,0-.852.26q-1.691.675-1.329,2.155a1.732,1.732,0,0,0,.323.679,2.046,2.046,0,0,0,1.445.457c.214.017.366.033.455.046a1.282,1.282,0,0,1,1.214,1.01,1.431,1.431,0,0,1,.034.463,1.066,1.066,0,0,1-.892,1.054,1.5,1.5,0,0,1-.9-.066q-1.605-.576-2.365-3.683a6.838,6.838,0,0,1-.2-1.337,3.533,3.533,0,0,1,3.038-3.933l5.18-1.266q1.184-.29,1.094-.869-.2-.734-1.968-.46l-.132-.647a7.256,7.256,0,0,1,1.226-.117q1.484.082,1.912,1.834.451,1.954-1.672,2.892m1.483,1.467a3.086,3.086,0,0,0-2.581-1.042l-2.245.548a8.548,8.548,0,0,0,.741,1.962,2.077,2.077,0,0,0,2.532,1.159l.247-.06q1.949-.581,1.611-1.963a1.684,1.684,0,0,0-.3-.605" transform="translate(-9.889 -32.92)"/>
    <path id="Path_3753" data-name="Path 3753" d="M54.467,145.669q.017-.383.6-.437l.619,6.854-.658.059a3.811,3.811,0,0,0-.15-.828q-.271-.74-1.359-.642l-8.168.737.143,1.594-.632.057-.377-4.173,2.364-.366a4.508,4.508,0,0,1-1.391-.715,3.747,3.747,0,0,1-1.513-2.644,2.506,2.506,0,0,1,.02-.613,1.435,1.435,0,0,1,1.41-1.326,1.408,1.408,0,0,1,.593.074,1.323,1.323,0,0,1,1,1.21,1.515,1.515,0,0,1-.033.487,1.812,1.812,0,0,1-.879,1q-.552.381-.522.71a.945.945,0,0,0,.221.464q.942,1.115,3.386,1.072l5.488-.5-.167-1.846a.96.96,0,0,1,0-.23" transform="translate(-9.316 -30.371)"/>
    <path id="Path_3754" data-name="Path 3754" d="M173.472,152.6H92.814L70.4,136.931l.573-.82L93.129,151.6h80.028l22.175-15.473.572.82Z" transform="translate(-14.99 -28.95)" fill="#efb41b"/>
  </g>
</svg>
