<svg id="Group_202" data-name="Group 202" xmlns="http://www.w3.org/2000/svg" xmlns:xlink="http://www.w3.org/1999/xlink" width="219.898" height="89.17" viewBox="0 0 219.898 89.17">
  <defs>
    <clipPath id="clip-path">
      <rect id="Rectangle_265" data-name="Rectangle 265" width="219.898" height="89.17" fill="none"/>
    </clipPath>
  </defs>
  <g id="Group_201" data-name="Group 201" clip-path="url(#clip-path)">
    <path id="Path_1238" data-name="Path 1238" d="M0,129.973q1.705-3.938,3.407-7.878c.21-.489.35-.93,1.071-.908.676.02.762.455.948.895,1.036,2.456,2.084,4.907,3.109,7.368.1.252.493.62.028.815-.386.162-1.071.248-1.162-.268-.358-2.027-1.871-1.579-3.182-1.6-.445-.008-.892.014-1.337,0-.5-.02-.9.1-1,.652-.192,1.062-.915,1.4-1.884,1.417v-.486M4.437,122.9c-.341.8-.575,1.339-.8,1.883-1.128,2.7-1.128,2.692,1.793,2.483.5-.036.8-.08.535-.686-.489-1.13-.945-2.273-1.526-3.68" transform="translate(0 -59.58)" fill="#a18c69"/>
    <path id="Path_1239" data-name="Path 1239" d="M50.6,47.8c1.569-3.817,3.056-7.429,4.54-11.042Q62.2,19.575,69.243,2.38a1.5,1.5,0,0,1,1.694-1.116c1.906.072,3.817.048,5.726.008a1.135,1.135,0,0,1,1.253.842Q87.132,24.65,96.409,47.161c.339.822.139.956-.65.942-2.071-.036-4.143-.042-6.213,0a1.172,1.172,0,0,1-1.324-.892c-.964-2.536-2.031-5.033-3-7.568-.293-.771-.623-1.168-1.538-1.169-4.913,0-9.825-.095-14.737-.1-.916,0-1.236-.109-.835-1.1.607-1.5,1.123-3.04,1.59-4.59.21-.7.561-.831,1.229-.815,3.406.084,6.813.258,10.223.086.637-.033,1.03-.053.7-.871Q77.849,21.051,73.873,11c-.04-.1-.151-.17-.325-.358-1.042,2.622-2.058,5.16-3.06,7.7-3.741,9.49-7.494,18.976-11.19,28.483a1.7,1.7,0,0,1-1.925,1.291c-4.629-.068-9.26-.048-13.889-.011a1.277,1.277,0,0,1-1.417-.964c-.978-2.573-2.034-5.116-3.024-7.683a1.227,1.227,0,0,0-1.305-.965c-4.952-.017-9.9-.116-14.857-.117-1.069,0-1.226-.268-.852-1.218C22.6,35.7,23.11,34.2,23.573,32.69c.208-.679.555-.837,1.231-.82,3.406.087,6.813.264,10.223.085.615-.033,1.039-.019.7-.869C33.047,24.4,30.4,17.7,27.743,11a2.748,2.748,0,0,0-.3-.412c-1.191,3-2.354,5.906-3.5,8.819Q18.481,33.243,13.047,47.09a1.308,1.308,0,0,1-1.479,1.023c-2.028-.067-4.062-.068-6.091,0-.983.032-1.044-.233-.7-1.065Q10.53,33.13,16.232,19.193c2.323-5.654,4.663-11.3,6.955-16.966a1.276,1.276,0,0,1,1.422-.957c1.827.052,3.66.1,5.481-.013,1.107-.067,1.528.389,1.916,1.339q8.974,21.98,18.018,43.931c.15.365.325.719.581,1.28" transform="translate(-2.255 -0.614)" fill="#002e71"/>
    <path id="Path_1240" data-name="Path 1240" d="M231.09,15.946C227.044,21.222,222.92,26.44,219,31.809c-1.088,1.492-2.344,1.275-3.713,1.251-.562-.011-.742-.588-1.027-.956q-5.855-7.547-11.687-15.112c-.187-.241-.307-.565-.688-.654a2.254,2.254,0,0,0-.159,1.4c-.01,9.652-.024,19.3.015,28.957,0,1.083-.24,1.494-1.4,1.422a42.5,42.5,0,0,0-5.115,0c-1.11.066-1.34-.315-1.336-1.36.036-11.558.022-23.117.022-34.675,0-3.2.04-6.409-.023-9.611-.019-.992.313-1.263,1.247-1.2a20.21,20.21,0,0,0,3.287-.007,2.458,2.458,0,0,1,2.4,1.215c4.936,6.539,9.929,13.036,14.856,19.582.674.9.957.83,1.6-.015,5-6.6,10.051-13.148,15.052-19.739a2.223,2.223,0,0,1,2.128-1.04,25.788,25.788,0,0,0,3.41,0c.882-.054,1.073.292,1.073,1.114,0,7.461.039,14.922.066,22.383.027,7.339.029,14.678.107,22.016.012,1.1-.3,1.386-1.363,1.333-1.742-.088-3.495-.081-5.238,0-.976.045-1.211-.27-1.207-1.218.036-8.76.021-17.52.021-26.28V16.022l-.245-.076" transform="translate(-95.327 -0.611)" fill="#002e71"/>
    <path id="Path_1241" data-name="Path 1241" d="M304.356,24.537c0-7.341.024-14.681-.026-22.022-.008-1.072.354-1.286,1.32-1.246,1.7.071,3.416.093,5.116-.006,1.113-.066,1.336.326,1.333,1.368q-.053,18.372-.018,36.744c0,2.057-.247,1.816,1.812,1.819,6.621.011,13.243.035,19.864-.024,1.153-.01,1.439.344,1.374,1.424a44.44,44.44,0,0,0,0,4.5c.034.813-.245,1.019-1.03,1.017q-14.319-.036-28.638.008c-.971,0-1.121-.34-1.118-1.194.029-7.462.017-14.925.017-22.387" transform="translate(-149.622 -0.618)" fill="#002e71"/>
    <path id="Path_1242" data-name="Path 1242" d="M407.961,39.51c-2.062-2.185-4.039-4.316-6.187-6.281a1.42,1.42,0,0,1-.394-1.207c0-6.234.011-12.469-.011-18.7,0-.7.131-1.039.925-1.014,1.62.05,3.243.026,4.865.01.534-.006.813.124.812.742q-.021,13.228-.01,26.455" transform="translate(-197.331 -6.048)" fill="#a18c69"/>
    <path id="Path_1243" data-name="Path 1243" d="M363.758,2.458c-7.344,0-14.688-.02-22.032.023-1.012.006-1.3-.267-1.3-1.28,0-.99.323-1.2,1.25-1.2Q363.83.045,385.984,0c1.02,0,1.258.271,1.282,1.27.026,1.117-.436,1.209-1.354,1.206-7.384-.032-14.769-.018-22.154-.018" transform="translate(-167.368 0)" fill="#b03342"/>
    <path id="Path_1244" data-name="Path 1244" d="M385.9,29.132a64.077,64.077,0,0,0-6.145-3.741c-.469-.242-.434-.631-.434-1.035,0-3.689.017-7.379-.015-11.068-.007-.735.208-1,.959-.983,1.582.044,3.167.015,4.751.013.46,0,.893-.031.891.656-.013,5.3-.007,10.6-.007,16.157" transform="translate(-186.485 -6.049)" fill="#a18c69"/>
    <path id="Path_1245" data-name="Path 1245" d="M363.852,17.679c0,1.457-.042,2.916.016,4.371.035.88-.252.9-.975.637-1.6-.581-3.215-1.1-4.842-1.585-.544-.164-.8-.377-.792-.987.032-2.307.028-4.614,0-6.921-.007-.6.147-.89.806-.879,1.662.028,3.325.032,4.987,0,.665-.013.82.274.808.874-.03,1.5-.01,3-.01,4.493" transform="translate(-175.644 -6.053)" fill="#a18c69"/>
    <path id="Path_1246" data-name="Path 1246" d="M307.107,163.392c.455-1.686.872-3.372,1.38-5.031.152-.5-.024-1.306.93-1.322s.786.776.936,1.282c.512,1.732.965,3.482,1.535,5.571.683-2.244,1.261-4.125,1.823-6.01.131-.439.2-.854.824-.847.583.005.814.11.592.761q-1.309,3.845-2.54,7.718c-.131.411-.295.611-.742.62-.483.01-.618-.277-.72-.655-.516-1.911-1.037-3.821-1.581-5.82-.525.444-.493,1.036-.64,1.534-.422,1.435-.811,2.88-1.194,4.326-.091.344-.2.584-.615.613a.693.693,0,0,1-.8-.554q-1.355-4.2-2.719-8.385c1.038-.422,1.445-.009,1.677.921.371,1.489.831,2.958,1.3,4.421.093.289-.015.767.555.857" transform="translate(-149.251 -77.202)" fill="#a18c69"/>
    <path id="Path_1247" data-name="Path 1247" d="M33.079,124.077c-.665.847-1.359,1.673-1.986,2.548-.505.7-.9.82-1.453.037-.628-.892-1.34-1.725-2.019-2.589-.454.2-.257.57-.261.843-.022,1.58-.027,3.16,0,4.74.008.55-.246.7-.738.69-.448-.008-.661-.172-.655-.648.039-2.632.059-5.264.092-7.9,0-.231-.034-.512.308-.563a.911.911,0,0,1,.959.351c.831,1.1,1.716,2.158,2.523,3.274.427.591.678.485,1.056-.028.769-1.044,1.6-2.042,2.368-3.085a.994.994,0,0,1,1.122-.509c.577.166.292.681.3,1.028.026,2.39.015,4.781.013,7.171,0,.431.117.9-.61.915-.746.013-.736-.429-.734-.949.009-1.755,0-3.51,0-5.266l-.281-.065" transform="translate(-12.764 -59.589)" fill="#a18c69"/>
    <path id="Path_1248" data-name="Path 1248" d="M324.045,124.092c-.671.862-1.364,1.708-2.005,2.59-.484.667-.871.72-1.379.013a14.009,14.009,0,0,0-2.309-2.566c0,1.676.014,3.352-.009,5.027-.007.5.276,1.215-.709,1.189s-.646-.763-.652-1.24c-.03-2.306-.022-4.614,0-6.921,0-.322-.211-.788.288-.933a.974.974,0,0,1,1.139.454c.661.919,1.38,1.8,2.078,2.691.876,1.12.875,1.117,1.707.036.666-.866,1.357-1.715,2-2.6.312-.426.654-.755,1.2-.594.572.169.289.683.292,1.03.026,2.388.016,4.775.012,7.164,0,.427.127.9-.6.92s-.744-.414-.741-.941c.011-1.759,0-3.519,0-5.279l-.317-.043" transform="translate(-155.816 -59.587)" fill="#a18c69"/>
    <path id="Path_1249" data-name="Path 1249" d="M117.352,159.916c-.695.892-1.415,1.765-2.076,2.682-.471.654-.826.616-1.286-.007a14.609,14.609,0,0,0-2.374-2.6q0,2.255,0,4.51c0,.324-.02.649,0,.971.034.552-.259.669-.747.676-.509.008-.6-.239-.6-.669.023-2.59.031-5.179.047-7.769,0-.276-.035-.583.375-.636a.914.914,0,0,1,.933.408c.8,1.067,1.667,2.089,2.45,3.17.425.587.685.633,1.127.012.75-1.054,1.593-2.042,2.363-3.083a.983.983,0,0,1,1.127-.491c.5.146.3.605.307.93.017,2.388.008,4.775.009,7.163,0,.489.079.971-.7.969s-.684-.5-.685-.98q0-2.59,0-5.18l-.275-.074" transform="translate(-54.214 -77.21)" fill="#a18c69"/>
    <path id="Path_1250" data-name="Path 1250" d="M9.182,159.95c-.573.721-1.153,1.437-1.719,2.164-.987,1.269-.984,1.272-2.015-.022a13.443,13.443,0,0,0-1.99-2.149q0,2.256,0,4.513c0,.364-.015.729,0,1.093.02.511-.282.589-.7.586-.395,0-.6-.137-.6-.561.007-2.633,0-5.266,0-7.9,0-.283-.009-.573.4-.619a.945.945,0,0,1,.923.443c.783,1.032,1.636,2.017,2.364,3.086.531.78.823.591,1.277-.046.728-1.022,1.544-1.981,2.292-2.989a.938.938,0,0,1,1.139-.451c.459.173.235.634.238.958.02,2.39.016,4.78.006,7.169,0,.408.166.9-.587.921-.733.016-.757-.388-.754-.923.012-1.735,0-3.47,0-5.205l-.288-.07" transform="translate(-1.061 -77.207)" fill="#a18c69"/>
    <path id="Path_1251" data-name="Path 1251" d="M165.752,159.892q0,2.6,0,5.205c0,.516.119,1.075-.745,1.048s-.582-.626-.585-1.037q-.033-3.525,0-7.051c0-.338-.288-.858.349-.992.509-.108.814.172,1.115.549,1.541,1.93,3.1,3.842,4.661,5.763.491-.25.3-.664.308-.986.024-1.539.021-3.08.009-4.619,0-.5.152-.725.7-.734.579-.01.655.268.653.742-.013,2.472,0,4.944-.017,7.416,0,.314.231.786-.3.913a1.05,1.05,0,0,1-1.145-.472c-1.27-1.631-2.577-3.233-3.875-4.843-.271-.337-.558-.661-.837-.991l-.288.089" transform="translate(-80.807 -77.207)" fill="#a18c69"/>
    <path id="Path_1252" data-name="Path 1252" d="M75.821,125.739c0-1.214.035-2.429-.014-3.641-.028-.7.226-.915.907-.886,1.133.048,2.271-.026,3.4.028a2.852,2.852,0,0,1,2.75,2,2.9,2.9,0,0,1-1.152,3.521c-.59.385-.562.611-.161,1.066a11.2,11.2,0,0,1,1.1,1.451c.184.291.814.613.328.96a1.021,1.021,0,0,1-1.411-.259q-.77-1.016-1.546-2.027a3.066,3.066,0,0,0-2.629-.62c-.276.14-.257.387-.262.622-.012.566-.019,1.133-.008,1.7.009.43-.118.684-.611.693-.528.009-.709-.21-.7-.727.024-1.294.008-2.59.008-3.884m2.986-3.365c-.5.284-1.427-.47-1.657.563-.589,2.643.31,3.591,2.917,3.155a1.68,1.68,0,0,0,1.578-1.693,1.716,1.716,0,0,0-1.462-1.921,8.7,8.7,0,0,0-1.377-.1" transform="translate(-37.269 -59.592)" fill="#a18c69"/>
    <path id="Path_1253" data-name="Path 1253" d="M270.01,125.724c0-1.215.022-2.431-.01-3.646-.016-.6.125-.9.8-.865.971.049,1.949-.024,2.921.022a4.179,4.179,0,0,1,4.082,4.16c.107,2.724-1.245,4.538-3.708,4.841-1.081.133-2.186.064-3.279.119-.647.033-.838-.249-.82-.864.035-1.255.01-2.512.011-3.767m1.3.017c0,.848-.011,1.7.006,2.543.006.3-.077.631.342.809a3.857,3.857,0,0,0,4.636-2.124c.817-2.454-.711-4.51-3.395-4.567-1.59-.034-1.59-.034-1.592,1.522q0,.908,0,1.817" transform="translate(-132.743 -59.592)" fill="#a18c69"/>
    <path id="Path_1254" data-name="Path 1254" d="M161.849,123.808c0,1.934,0,3.748,0,5.562,0,.468.133,1.006-.668.99-.742-.015-.584-.52-.585-.935-.008-2.431-.013-4.863.008-7.294,0-.307-.226-.775.323-.886a.992.992,0,0,1,1.047.433c1.281,1.622,2.591,3.221,3.9,4.824.293.36.61.7,1.179,1.353,0-2.093-.016-3.812.011-5.53.007-.453-.272-1.116.655-1.1s.618.689.623,1.13c.027,2.309.023,4.619,0,6.929,0,.361.229.868-.333,1.038-.511.155-.814-.181-1.11-.55q-2.359-2.936-4.743-5.851c-.021-.027-.074-.029-.3-.11" transform="translate(-78.937 -59.597)" fill="#a18c69"/>
    <path id="Path_1255" data-name="Path 1255" d="M137.048,161.4a4.39,4.39,0,0,1,4.551-4.733,4.77,4.77,0,0,1-.068,9.53c-2.692,0-4.493-1.928-4.483-4.8m4.527,3.54a3.538,3.538,0,0,0-.1-7.048,3.36,3.36,0,0,0-3.129,3.53,3.279,3.279,0,0,0,3.226,3.518" transform="translate(-67.379 -77.022)" fill="#a18c69"/>
    <path id="Path_1256" data-name="Path 1256" d="M382.989,130.292a4.441,4.441,0,0,1-4.538-4.771,4.577,4.577,0,1,1,9.144.066,4.44,4.44,0,0,1-4.606,4.706m3.222-4.675a3.3,3.3,0,0,0-3.158-3.6,3.538,3.538,0,1,0,3.158,3.6" transform="translate(-186.063 -59.373)" fill="#a18c69"/>
    <path id="Path_1257" data-name="Path 1257" d="M388.109,165.972c-.977.354-1.608.186-2.074-.611-.264-.451-.691-.813-.924-1.276-.636-1.264-1.767-.861-2.768-.877-.4-.007-.379.345-.383.627-.007.567-.023,1.134,0,1.7.018.489-.216.625-.665.615-.39-.01-.6-.121-.6-.551q.014-4.009,0-8.017c0-.453.264-.523.627-.52,1.216.013,2.435-.03,3.648.041a2.844,2.844,0,0,1,2.76,2,2.991,2.991,0,0,1-1.2,3.521c-.647.422-.445.674-.109,1.1.566.716,1.1,1.46,1.683,2.248m-4.432-7.69c-1.994.014-1.7-.239-1.718,1.748-.016,1.939,0,1.939,1.758,1.938,2,0,2.8-.535,2.785-1.856s-.81-1.845-2.825-1.831" transform="translate(-187.167 -77.218)" fill="#a18c69"/>
    <path id="Path_1258" data-name="Path 1258" d="M78.488,163.04l2.159,2.938a1.572,1.572,0,0,1-2.153-.721c-.246-.416-.636-.753-.85-1.181-.633-1.262-1.764-.878-2.771-.886-.425,0-.343.372-.35.637-.013.486-.015.973,0,1.459s.021.875-.671.851c-.628-.022-.591-.4-.591-.816q0-1.7,0-3.4c0-1.3.049-2.6-.017-3.889-.042-.829.278-1.045,1.046-1,.93.056,1.867-.007,2.8.02,1.708.048,2.831.8,3.194,2.113a3.127,3.127,0,0,1-1.487,3.638c-.1.068-.19.148-.306.24m-3.97-2.925c0,1.836,0,1.837,1.837,1.834a8.249,8.249,0,0,0,1.088-.021,1.732,1.732,0,0,0,1.571-1.938c-.072-1.209-.825-1.721-2.548-1.73-1.948-.01-1.948-.01-1.948,1.855" transform="translate(-36.007 -77.2)" fill="#a18c69"/>
    <path id="Path_1259" data-name="Path 1259" d="M294.924,125.564c0-1.094.067-2.194-.02-3.281-.078-.96.3-1.164,1.177-1.12,1.376.07,2.76-.015,4.138.039.421.016,1.178-.4,1.189.529.013,1-.794.579-1.261.61a15.917,15.917,0,0,1-2.8,0c-1.242-.139-1.135.623-1.131,1.417,0,.75-.125,1.495,1.074,1.34a14.5,14.5,0,0,1,2.432-.01c.383.015.955-.238.967.533.014.82-.582.616-1.026.627-.851.022-1.707.045-2.556,0-.708-.041-.951.247-.89.916a6.439,6.439,0,0,1,0,1.093c-.05.636.231.859.855.844,1.176-.029,2.354-.006,3.532,0,.421,0,.818-.01.818.607s-.394.609-.817.609c-1.624,0-3.247-.018-4.871.009-.64.011-.844-.239-.827-.861.037-1.3.011-2.593.011-3.89" transform="translate(-144.983 -59.549)" fill="#a18c69"/>
    <path id="Path_1260" data-name="Path 1260" d="M53.768,125.811c0-1.256.028-2.513-.012-3.768-.021-.646.218-.839.844-.826,1.623.034,3.247.012,4.871.011.412,0,.82-.046.8.591-.018.621-.422.585-.836.585-1.177,0-2.355.028-3.531-.008-.635-.02-.823.218-.849.839-.08,1.888-.106,1.887,1.728,1.887.69,0,1.38.009,2.07,0,.414-.006.7.064.687.587-.013.508-.291.6-.708.593-.933-.008-1.869.04-2.8-.013-.741-.042-.974.216-.982.959-.02,1.89-.056,1.889,1.885,1.891.893,0,1.786.01,2.679,0,.45,0,.667.17.653.649-.012.43-.234.562-.614.562-1.745,0-3.491-.008-5.236,0-.56,0-.663-.3-.657-.773.017-1.256.006-2.512.006-3.768" transform="translate(-26.428 -59.595)" fill="#a18c69"/>
    <path id="Path_1261" data-name="Path 1261" d="M248.4,128.392a10.522,10.522,0,0,1-1.215-.009,1.14,1.14,0,0,0-1.423.946,2.477,2.477,0,0,1-.281.668.876.876,0,0,1-1.188.267c-.473-.2-.043-.568.054-.805,1.027-2.5,2.091-4.992,3.129-7.491.2-.477.395-.795,1.026-.784.606.01.729.367.9.777,1.051,2.493,2.117,4.981,3.144,7.485.1.242.6.674-.044.848-.39.105-1.012.224-1.116-.382-.325-1.887-1.74-1.514-2.988-1.52m.049-5.508c-.355.851-.572,1.369-.787,1.889-1.132,2.732-1.056,2.818,1.915,2.493.532-.058.612-.21.414-.669-.486-1.133-.948-2.276-1.542-3.713" transform="translate(-120 -59.58)" fill="#a18c69"/>
    <path id="Path_1262" data-name="Path 1262" d="M143.464,130.2c-.98.344-1.525.1-1.726-.822a1.2,1.2,0,0,0-1.516-.991,8.3,8.3,0,0,1-1.819,0c-1.136-.134-1.978.1-2.226,1.38-.129.662-.688.68-1.15.539-.725-.22-.151-.678-.038-.956,1.021-2.5,2.085-4.989,3.127-7.484.166-.4.34-.668.86-.666a.932.932,0,0,1,.992.667c1.139,2.755,2.3,5.5,3.5,8.333m-4.322-7.094a2.326,2.326,0,0,0-.711,1.233c-1.347,3.184-1.339,3.187,2.141,2.881.03,0,.057-.04.195-.141l-1.625-3.972" transform="translate(-66.207 -59.587)" fill="#a18c69"/>
    <path id="Path_1263" data-name="Path 1263" d="M358.556,161.579c0-1.254.021-2.509-.009-3.762-.014-.573.188-.782.768-.773,1.661.027,3.323.01,4.984.01.373,0,.738-.023.752.529.014.534-.221.7-.73.693-1.216-.022-2.432.02-3.647-.015-.641-.018-.815.227-.834.848-.056,1.879-.084,1.878,1.846,1.878.648,0,1.3.009,1.945,0,.373-.006.614.071.612.526s-.166.662-.64.654c-.972-.016-1.945.024-2.917-.01-.627-.022-.825.2-.846.836-.071,2.01-.1,2.008,1.879,2.01.892,0,1.783.011,2.674,0,.455-.006.669.168.655.643s-.313.494-.659.494c-1.7,0-3.4-.02-5.106.01-.617.011-.745-.266-.735-.8.024-1.254.008-2.508.008-3.762" transform="translate(-176.277 -77.209)" fill="#a18c69"/>
    <path id="Path_1264" data-name="Path 1264" d="M201.728,121.231c.572-.1.763.2.936.616,1.05,2.535,2.126,5.059,3.182,7.592.11.264.475.634.042.821-.364.157-1.031.295-1.145-.266-.4-1.947-1.848-1.6-3.188-1.614-1.229-.015-2.457-.174-2.748,1.532-.1.586-.735.515-1.114.363-.536-.216-.116-.618,0-.908,1.017-2.461,2.052-4.914,3.08-7.371.191-.456.323-.979.952-.766m.042,1.631c-.58,1.374-1.067,2.524-1.551,3.674-.2.476-.155.752.477.725.883-.036,1.768-.009,2.846-.009l-1.772-4.391" transform="translate(-97.063 -59.578)" fill="#a18c69"/>
    <path id="Path_1265" data-name="Path 1265" d="M27.823,166.011c1.182-2.821,2.325-5.539,3.458-8.26.182-.437.378-.732.95-.73s.76.312.942.745c1.046,2.5,2.111,4.99,3.145,7.493.1.242.508.624.045.8-.365.142-1.06.281-1.165-.254-.42-2.142-2.045-1.539-3.412-1.641-1.187-.088-2.135.01-2.45,1.439-.128.582-.264.552-1.513.407m4.41-7.285c-.342.82-.571,1.363-.8,1.908-1.1,2.664-1.077,2.7,1.8,2.4.04,0,.081,0,.121,0,.419-.005.6-.148.41-.6-.483-1.133-.945-2.275-1.538-3.712" transform="translate(-13.679 -77.198)" fill="#a18c69"/>
    <path id="Path_1266" data-name="Path 1266" d="M210.518,165.986c-1.07.378-1.558-.018-1.753-.871a1.118,1.118,0,0,0-1.411-.948,8.188,8.188,0,0,1-1.582,0c-1.2-.1-2.246-.047-2.534,1.468-.126.663-.791.593-1.2.428-.534-.216-.067-.632.047-.908,1-2.434,2.035-4.853,3.048-7.283.193-.463.341-.855.994-.857s.8.423.991.871c1.128,2.683,2.255,5.366,3.4,8.1m-4.4-7.256c-.569,1.363-1.047,2.505-1.52,3.649-.093.225-.194.569.124.591a22.671,22.671,0,0,0,2.788.016c.349-.019.209-.382.127-.587-.466-1.155-.95-2.3-1.518-3.669" transform="translate(-99.207 -77.197)" fill="#a18c69"/>
    <path id="Path_1267" data-name="Path 1267" d="M280.7,166c1.193-2.846,2.379-5.662,3.551-8.483.175-.422.491-.455.877-.476.5-.028.7.236.874.655,1.052,2.534,2.131,5.057,3.187,7.589.106.254.485.632.009.794-.368.125-1.047.276-1.146-.3-.336-1.921-1.749-1.615-3.051-1.6a6.57,6.57,0,0,1-1.091-.009c-.823-.128-1.235.209-1.5.988-.357,1.035-.416,1.014-1.7.835m4.4-7.279c-.565,1.358-1.035,2.475-1.493,3.6-.086.211-.255.55.052.625a9.151,9.151,0,0,0,2.778.057c.253-.017.275-.256.222-.469a2.586,2.586,0,0,0-.127-.34c-.446-1.082-.893-2.164-1.432-3.469" transform="translate(-138.006 -77.209)" fill="#a18c69"/>
    <path id="Path_1268" data-name="Path 1268" d="M406.754,166.169a4.994,4.994,0,0,1-2.785-.7c-.291-.178-.6-.351-.309-.738.225-.3.384-.728.944-.371a3.893,3.893,0,0,0,2.562.566c.735-.078,1.372-.32,1.536-1.123.174-.852-.406-1.257-1.083-1.526-.863-.342-1.755-.61-2.61-.969a2.192,2.192,0,0,1-1.5-2.373,2.292,2.292,0,0,1,1.881-2.108,5.611,5.611,0,0,1,3.8.28c.374.161.788.325.46.877-.252.425-.483.668-1.041.338a3.279,3.279,0,0,0-2.578-.366c-.573.155-1.079.451-1.131,1.114-.049.636.446.929.936,1.13.6.246,1.227.407,1.839.616,1.9.651,2.7,1.651,2.466,3.091-.236,1.47-1.43,2.268-3.386,2.263" transform="translate(-198.377 -77)" fill="#a18c69"/>
    <path id="Path_1269" data-name="Path 1269" d="M226.093,130.289a4.369,4.369,0,0,1-4.355-2.822,5.246,5.246,0,0,1,1.207-5.6,4.706,4.706,0,0,1,5.227-.57c.335.189,1.068.239.657,1.006-.358.67-.711.47-1.236.171a3.039,3.039,0,0,0-4.036.73,3.839,3.839,0,0,0-.054,4.623,3.1,3.1,0,0,0,4.027.842c.571-.315,1.013-.578,1.334.2.3.723-.42.737-.765.962a3.323,3.323,0,0,1-2.005.454" transform="translate(-108.852 -59.37)" fill="#a18c69"/>
    <path id="Path_1270" data-name="Path 1270" d="M116.709,130.292a4.332,4.332,0,0,1-4.357-2.781,5.224,5.224,0,0,1,1.053-5.524,4.661,4.661,0,0,1,5.2-.747c.391.2,1.152.245.818,1.04s-.771.467-1.312.167a3.033,3.033,0,0,0-3.941.728,3.821,3.821,0,0,0-.034,4.725,3.163,3.163,0,0,0,3.949.81c.18-.09.343-.215.513-.323.428-.27.558.119.759.344.266.3.255.545-.1.79a4.044,4.044,0,0,1-2.554.77" transform="translate(-55.058 -59.372)" fill="#a18c69"/>
    <path id="Path_1271" data-name="Path 1271" d="M406.018,125.774c0-1.213.027-2.427-.012-3.639-.02-.641.11-.953.853-.929,1.618.051,3.239.019,4.859.014.424,0,.818-.03.8.6-.02.61-.413.586-.835.584-1.134-.005-2.269.035-3.4-.014-.727-.03-1,.192-.977.952.059,2.206-.134,1.725,1.7,1.774.688.018,1.377.007,2.065,0,.348,0,.64.016.635.5-.005.436-.121.688-.613.678-.769-.016-1.547.069-2.306-.017-1.132-.128-1.663.2-1.484,1.426a18.514,18.514,0,0,1,.021,1.938c.02.518-.18.721-.708.711-.505-.01-.6-.272-.6-.694.01-1.294,0-2.588,0-3.882" transform="translate(-199.61 -59.59)" fill="#a18c69"/>
    <path id="Path_1272" data-name="Path 1272" d="M342.836,121.349a1.479,1.479,0,0,1,2.062.922c.531,1.072,1.2,2.077,1.877,3.235.683-1.191,1.339-2.205,1.861-3.284a1.4,1.4,0,0,1,2.012-.858c-.628,1.068-1.2,2.178-1.9,3.2a6.617,6.617,0,0,0-1.344,4.757c.057.435.2,1.017-.612,1.035-.791.018-.729-.529-.664-.992a6.72,6.72,0,0,0-1.416-4.862c-.678-.993-1.238-2.068-1.877-3.151" transform="translate(-168.553 -59.594)" fill="#a18c69"/>
    <path id="Path_1273" data-name="Path 1273" d="M334.5,157.213a1.4,1.4,0,0,1,2,.81c.567,1.1,1.223,2.151,1.913,3.349.686-1.19,1.306-2.27,1.929-3.348.572-.991.574-.99,1.906-.878a15.726,15.726,0,0,1-1.765,3.12,6.82,6.82,0,0,0-1.4,4.861c.073.515.106,1.065-.744,1.031s-.615-.65-.567-1.04a6.474,6.474,0,0,0-1.324-4.635c-.707-1.018-1.278-2.129-1.952-3.27" transform="translate(-164.454 -77.22)" fill="#a18c69"/>
    <path id="Path_1274" data-name="Path 1274" d="M53.184,162.089c0-.445.01-.891,0-1.336-.022-.763.192-1.682-.161-2.243-.369-.586-1.349-.171-2.058-.226-.413-.032-.683-.092-.708-.6-.029-.605.321-.634.767-.632,1.865.008,3.73,0,5.6,0,.42,0,.806-.023.8.6-.009.6-.368.6-.8.621-2.169.128-2.168.136-2.169,2.378,0,1.579-.008,3.158,0,4.736,0,.461-.05.765-.642.759s-.626-.347-.623-.785c.008-1.093,0-2.186,0-3.279" transform="translate(-24.706 -77.216)" fill="#a18c69"/>
    <path id="Path_1275" data-name="Path 1275" d="M228.964,161.035a23.641,23.641,0,0,1-.019,2.665c-.128,1.131.357,1.4,1.378,1.318.884-.074,1.78-.009,2.67-.01.384,0,.6.137.6.564s-.176.568-.577.566c-1.578-.008-3.157-.013-4.736,0-.485,0-.621-.222-.62-.664q.014-3.879,0-7.759c0-.435.121-.659.613-.671.54-.013.705.206.694.715-.023,1.09-.007,2.182-.006,3.273" transform="translate(-111.929 -77.211)" fill="#a18c69"/>
    <path id="Path_1276" data-name="Path 1276" d="M262.484,161.082c0,1.051.027,2.1-.01,3.152-.02.589.209.782.776.769,1.052-.026,2.1,0,3.157,0,.389,0,.708.025.716.565s-.291.573-.691.571c-1.5-.006-3-.025-4.493.008-.632.014-.723-.293-.72-.816.015-2.506.011-5.011,0-7.517,0-.45.044-.768.636-.771s.634.321.629.769c-.013,1.091,0,2.182,0,3.273" transform="translate(-128.427 -77.208)" fill="#a18c69"/>
    <path id="Path_1277" data-name="Path 1277" d="M101.1,125.783c0,1.25,0,2.5,0,3.751,0,.428-.005.8-.606.817-.642.019-.705-.331-.7-.841.014-2.5.008-5,.006-7.5,0-.421-.021-.782.6-.8.659-.019.71.325.7.825-.014,1.25,0,2.5,0,3.75" transform="translate(-49.065 -59.591)" fill="#a18c69"/>
    <path id="Path_1278" data-name="Path 1278" d="M98.429,161.69c0,1.253-.006,2.506,0,3.758,0,.4-.039.7-.57.693-.462-.01-.777-.073-.775-.646q.019-3.879,0-7.759c0-.53.222-.682.728-.7.616-.018.622.333.618.771-.01,1.293,0,2.586,0,3.879" transform="translate(-47.732 -77.207)" fill="#a18c69"/>
    <path id="Path_1279" data-name="Path 1279" d="M190.425,161.532c0-1.211.008-2.423,0-3.634,0-.485.015-.869.684-.853.6.014.621.366.62.8q0,3.755,0,7.511c0,.435-.026.78-.625.793-.673.014-.683-.378-.679-.859.01-1.252,0-2.5,0-3.755" transform="translate(-93.619 -77.21)" fill="#a18c69"/>
    <path id="Path_1280" data-name="Path 1280" d="M383.232,80.74c-1.411,1.4-1.411,1.4-2.606.036a7.992,7.992,0,0,0-.161,2.258c-.022.237,0,.524-.361.494-.267-.022-.277-.258-.278-.455-.007-1.094-.012-2.189,0-3.283.005-.545.234-.667.663-.295.06.052.1.131.157.186.459.429.662,1.357,1.269,1.3.431-.043.788-.843,1.175-1.308.156-.187.308-.445.573-.385.39.089.25.455.254.712.015.972.016,1.945,0,2.918,0,.244.133.643-.329.626-.415-.015-.343-.38-.348-.647-.011-.646,0-1.292,0-2.152" transform="translate(-186.736 -38.975)" fill="#002e71"/>
    <path id="Path_1281" data-name="Path 1281" d="M371.655,79.547a7.329,7.329,0,0,1,3.409-.273,2.27,2.27,0,0,1-.049.325c-1.566.021-1.153,1.172-1.264,2.09-.074.6.481,1.654-.374,1.715-.573.041-.164-1.07-.289-1.649a2,2,0,0,1,0-.361c-.022-.877.39-2.043-1.428-1.847" transform="translate(-182.722 -38.936)" fill="#002e71"/>
  </g>
</svg>
