<svg id="Group_863" data-name="Group 863" xmlns="http://www.w3.org/2000/svg" xmlns:xlink="http://www.w3.org/1999/xlink" width="205.805" height="236.595" viewBox="0 0 205.805 236.595">
  <defs>
    <clipPath id="clip-path">
      <rect id="Rectangle_883" data-name="Rectangle 883" width="205.805" height="236.595" fill="none"/>
    </clipPath>
    <clipPath id="clip-path-2">
      <path id="Path_6657" data-name="Path 6657" d="M0,159.3l31.544,20.524C54,139.682,100.8,112.074,154.9,112.074a154.163,154.163,0,0,1,41.338,5.586l9.563-33.632c-17.463-5.176-36.993-8.971-56.788-8.971-69.4,0-127.761,35.8-149.017,84.248" transform="translate(0 -75.057)" fill="none"/>
    </clipPath>
    <linearGradient id="linear-gradient" x1="0.053" y1="1.167" x2="0.057" y2="1.167" gradientUnits="objectBoundingBox">
      <stop offset="0" stop-color="#8e98c6"/>
      <stop offset="0.066" stop-color="#a5add1"/>
      <stop offset="0.186" stop-color="#cacfe4"/>
      <stop offset="0.297" stop-color="#e5e7f1"/>
      <stop offset="0.396" stop-color="#f5f6f9"/>
      <stop offset="0.473" stop-color="#fbfcfc"/>
      <stop offset="0.555" stop-color="#f3f5f8"/>
      <stop offset="0.676" stop-color="#e0e3ee"/>
      <stop offset="0.819" stop-color="#c0c6df"/>
      <stop offset="0.979" stop-color="#949dc9"/>
      <stop offset="1" stop-color="#8e98c6"/>
    </linearGradient>
  </defs>
  <path id="Path_6630" data-name="Path 6630" d="M44.6,45.138V75.7l29.587-3.991,8.565-26.57Z" transform="translate(-5.172 -5.234)" fill="#086cba"/>
  <path id="Path_6631" data-name="Path 6631" d="M142.9,61.374l44.818-7.008v-12.7l-59.563-.875Z" transform="translate(-14.861 -4.73)" fill="#086cba"/>
  <path id="Path_6632" data-name="Path 6632" d="M192.148,189.992V84.881L166.321,121.16Z" transform="translate(-19.286 -9.842)" fill="#086cba"/>
  <path id="Path_6633" data-name="Path 6633" d="M151.52,199.005H72.783l39.368-36.4Z" transform="translate(-8.44 -18.855)" fill="#086cba"/>
  <path id="Path_6634" data-name="Path 6634" d="M44.6,193.746v-76.5l17.518,11.485Z" transform="translate(-5.172 -13.596)" fill="#086cba"/>
  <g id="Group_858" data-name="Group 858">
    <g id="Group_857" data-name="Group 857" clip-path="url(#clip-path)">
      <path id="Path_6635" data-name="Path 6635" d="M47.362,9.708v6.6H52.12V19.3H47.362V34.05c0,3.235,1.159,4.081,2.584,4.081a7.156,7.156,0,0,0,1.595-.154l.179,3.049a8.624,8.624,0,0,1-2.93.39,4.934,4.934,0,0,1-3.883-1.5c-1-1.133-1.478-2.79-1.478-6.226V19.3H40.4V16.312h3.03V10.857Z" transform="translate(-4.685 -1.126)" fill="#afb5cb"/>
      <path id="Path_6636" data-name="Path 6636" d="M56.436,5.092h3.931V18.428h.1a7.259,7.259,0,0,1,2.1-2.174,5.862,5.862,0,0,1,3.292-.887c3.152,0,5.806,2.484,5.806,8.749V40.573H67.732v-16c0-3.05-.682-5.879-3.358-5.879-1.824,0-3.238,1.327-3.843,3.951a10.836,10.836,0,0,0-.164,1.861V40.573H56.436Z" transform="translate(-6.544 -0.59)" fill="#afb5cb"/>
      <path id="Path_6637" data-name="Path 6637" d="M81.406,29.864c.031,7.613,3.019,9.213,5.865,9.213a8.879,8.879,0,0,0,4.108-.928l.652,2.88a11.977,11.977,0,0,1-5.478,1.2c-5.939,0-9.022-4.86-9.022-12.449,0-8.04,3.421-13.065,8.366-13.065,5.072,0,7.1,5.336,7.1,10.928,0,.971-.031,1.633-.078,2.222Zm7.8-2.9c.072-4.971-1.808-7.17-3.68-7.17-2.609,0-3.9,3.762-4.079,7.17Z" transform="translate(-8.99 -1.938)" fill="#afb5cb"/>
      <path id="Path_6638" data-name="Path 6638" d="M97.737,39.931c.115-2.886.231-6.059.231-9.06V5.3L106.854,0V14.253h.116a6.988,6.988,0,0,1,5.885-3.174c5.944,0,8.137,6.751,8.137,13.676,0,9.809-3.808,15.637-9.521,15.637-2.078,0-3.808-.635-5.539-3.635h-.116l-.461,3.174Zm9.117-10.213a5,5,0,0,0,.347,1.847c.461,1.1,1.154,1.558,1.9,1.558,2.077,0,3.058-2.424,3.058-7.617,0-4.559-1.039-6.925-3.058-6.925a2.25,2.25,0,0,0-1.9,1.559,5.392,5.392,0,0,0-.347,1.673Z" transform="translate(-11.333)" fill="#00264d"/>
      <path id="Path_6639" data-name="Path 6639" d="M134.858,30.882c.116,2.6,2.309,4.155,5.713,4.155a19.374,19.374,0,0,0,5.714-.923l1.1,6.347a26.965,26.965,0,0,1-8.424,1.27c-8.136,0-12.695-4.906-12.695-13.849,0-9.694,5.424-15.35,12.118-15.35,6.233,0,10.329,4.271,10.329,13.792a24.021,24.021,0,0,1-.289,4.558Zm5.828-6.174c0-2.77-.461-5.77-2.77-5.77-2.251,0-3.059,3.346-3.059,5.77Z" transform="translate(-14.641 -1.453)" fill="#00264d"/>
      <path id="Path_6640" data-name="Path 6640" d="M154.726,33.652a11.787,11.787,0,0,0,5.366,1.5c1.673,0,2.6-.576,2.6-1.846,0-1.212-.866-1.847-3.175-3.116-5.02-2.712-5.77-5.886-5.77-8.194,0-5.309,3.75-9.464,9.984-9.464a14.474,14.474,0,0,1,6.058,1.27L168.4,20.265a8.716,8.716,0,0,0-4.039-1.1c-1.731,0-2.482.865-2.482,1.9,0,.98.635,1.558,3.232,3,4.558,2.482,5.654,5.6,5.654,8.482,0,5.886-4.27,9.175-10.675,9.175-2.482,0-5.482-.635-6.809-1.615Z" transform="translate(-17.774 -1.453)" fill="#00264d"/>
      <path id="Path_6641" data-name="Path 6641" d="M185.946,4.374v7.674h5.6V18.28h-5.6V29.59c0,3.115,1.384,3.866,2.827,3.866a12.574,12.574,0,0,0,2.078-.173v6.982a22.817,22.817,0,0,1-5.193.52,8.739,8.739,0,0,1-5.944-1.847C177.983,37.381,177,35.072,177,30.4V18.28h-3.289V12.048H177V6.393Z" transform="translate(-20.143 -0.507)" fill="#00264d"/>
      <path id="Path_6642" data-name="Path 6642" d="M46.021,228.322q1.975-4.694,9.324-9.939a68.381,68.381,0,0,0,8.255-6.54,9.662,9.662,0,0,0,2.882-6.734,7.458,7.458,0,0,0-1.651-4.952,5.813,5.813,0,0,0-4.727-1.976q-4.209,0-5.73,3.141a15.576,15.576,0,0,0-1.036,5.763H44.37a22.67,22.67,0,0,1,2.171-9.681q3.7-7.024,13.125-7.025,7.454,0,11.861,4.128a14.262,14.262,0,0,1,4.408,10.926,14.769,14.769,0,0,1-3.114,9.259,30.98,30.98,0,0,1-6.713,5.989l-3.7,2.622q-3.472,2.461-4.749,3.562a10.415,10.415,0,0,0-2.154,2.558H76v8.126H43.852a22.062,22.062,0,0,1,2.169-9.227" transform="translate(-5.085 -22.076)" fill="#233c90"/>
      <path id="Path_6643" data-name="Path 6643" d="M111.329,196.582q3.61,6.313,3.61,17.935t-3.61,17.9q-3.611,6.282-12.578,6.281T86.174,232.42q-3.61-6.28-3.61-17.9t3.61-17.935q3.61-6.313,12.577-6.314t12.578,6.314M93.312,226.9q1.327,4.29,5.439,4.29t5.391-4.29q1.278-4.289,1.278-12.383,0-8.481-1.278-12.561a5.225,5.225,0,0,0-5.391-4.079,5.3,5.3,0,0,0-5.439,4.079q-1.327,4.079-1.327,12.561,0,8.094,1.327,12.383" transform="translate(-9.574 -22.063)" fill="#233c90"/>
      <path id="Path_6644" data-name="Path 6644" d="M124.132,205.2v-6.28a40.735,40.735,0,0,0,6.1-.583,8.6,8.6,0,0,0,4.521-2.46,8.1,8.1,0,0,0,1.808-3.366,7.724,7.724,0,0,0,.356-1.878h7.705v46.943h-9.454V205.2Z" transform="translate(-14.394 -22.105)" fill="#233c90"/>
      <path id="Path_6645" data-name="Path 6645" d="M168.814,225.1a8.906,8.906,0,0,0,2.1,4.646,5.937,5.937,0,0,0,4.521,1.635,6.1,6.1,0,0,0,5.217-2.412,9.9,9.9,0,0,0,1.792-6.07,10.565,10.565,0,0,0-1.679-6.07,5.876,5.876,0,0,0-5.233-2.477,8.988,8.988,0,0,0-2.907.421,5.781,5.781,0,0,0-3.262,2.881l-8.271-.388,3.294-25.932h25.827v7.834h-19.17l-1.68,10.262a19.3,19.3,0,0,1,3.33-1.845,14.089,14.089,0,0,1,4.882-.744,14.653,14.653,0,0,1,10.151,3.917q4.332,3.917,4.333,11.4a17.883,17.883,0,0,1-4.173,11.622q-4.172,5.117-12.484,5.116a16.571,16.571,0,0,1-11-3.594q-4.3-3.594-4.786-10.2Z" transform="translate(-18.509 -22.186)" fill="#233c90"/>
      <path id="Path_6646" data-name="Path 6646" d="M48.239,249.544h-3.81v-1.288h9.038v1.288H49.657v15.549H48.239Z" transform="translate(-5.152 -28.787)" fill="#afb5cb"/>
      <path id="Path_6647" data-name="Path 6647" d="M57.6,248.256h1.418v7.279h5.978v-7.279h1.418v16.837H64.994V256.82H59.017v8.274H57.6Z" transform="translate(-6.679 -28.787)" fill="#afb5cb"/>
      <path id="Path_6648" data-name="Path 6648" d="M79.461,256.793h-5.7v7.019h6.3l-.21,1.281h-7.5V248.256h7.4v1.288H73.765v5.966h5.7Z" transform="translate(-8.39 -28.787)" fill="#afb5cb"/>
      <path id="Path_6649" data-name="Path 6649" d="M87.054,257.964v7.141H84.071V248.357H89.2c3.044,0,4.769,1.588,4.769,4.576,0,2.421-1.3,3.468-2.171,3.814,1.3.607,1.911,1.709,1.911,4.182v.667a19.652,19.652,0,0,0,.225,3.509h-2.9a13.826,13.826,0,0,1-.288-3.536v-.609c0-2.238-.515-3-2.407-3Zm0-2.428H88.46c1.811,0,2.519-.779,2.519-2.472a2,2,0,0,0-2.223-2.278h-1.7Z" transform="translate(-9.749 -28.799)" fill="#233c90"/>
      <path id="Path_6650" data-name="Path 6650" d="M107.023,257.661h-5.376v4.863h6.035l-.37,2.581H98.688V248.357h8.589v2.624h-5.63v4.077h5.376Z" transform="translate(-11.443 -28.799)" fill="#233c90"/>
      <path id="Path_6651" data-name="Path 6651" d="M121.618,260.194c-.074.847-.4,5.165-5.043,5.165-4.761,0-5.308-4.185-5.308-8.685,0-5.423,1.59-8.618,5.488-8.618,4.441,0,4.785,3.808,4.853,5.149h-2.966c-.047-.57-.086-2.606-1.934-2.606-1.883,0-2.342,2.3-2.342,6.138,0,3.158.315,6.122,2.259,6.122,1.787,0,1.93-2.023,2-2.664Z" transform="translate(-12.902 -28.764)" fill="#233c90"/>
      <path id="Path_6652" data-name="Path 6652" d="M136.408,256.567c0,6.124-1.665,8.791-5.525,8.791-3.606,0-5.364-2.627-5.364-8.826,0-6.042,2.046-8.477,5.5-8.477,3.649,0,5.388,2.7,5.388,8.512m-7.814-.063c0,3.974.6,6.338,2.36,6.338,1.851,0,2.379-2.19,2.379-6.332,0-3.892-.561-5.918-2.382-5.918-1.792,0-2.357,2.179-2.357,5.912" transform="translate(-14.555 -28.764)" fill="#233c90"/>
      <path id="Path_6653" data-name="Path 6653" d="M144.313,257.964v7.141h-2.982V248.357h5.128c3.044,0,4.769,1.588,4.769,4.576,0,2.421-1.3,3.468-2.171,3.814,1.3.607,1.911,1.709,1.911,4.182v.667a19.738,19.738,0,0,0,.225,3.509h-2.9a13.867,13.867,0,0,1-.288-3.536v-.609c0-2.238-.514-3-2.407-3Zm0-2.428h1.407c1.811,0,2.519-.779,2.519-2.472a2,2,0,0,0-2.223-2.278h-1.7Z" transform="translate(-16.388 -28.799)" fill="#233c90"/>
      <path id="Path_6654" data-name="Path 6654" d="M155.947,248.356h4.364c4.309,0,5.981,2.761,5.981,8.031,0,5.655-1.6,8.718-6.213,8.718h-4.132Zm3.026,14.3h1.072c2.344,0,3.15-1.763,3.15-6.256,0-3.853-.716-5.548-3.125-5.548h-1.1Z" transform="translate(-18.083 -28.798)" fill="#233c90"/>
      <path id="Path_6655" data-name="Path 6655" d="M179.458,257.661h-5.375v4.863h6.034l-.37,2.581h-8.626V248.357h8.589v2.624h-5.629v4.077h5.375Z" transform="translate(-19.843 -28.799)" fill="#233c90"/>
      <path id="Path_6656" data-name="Path 6656" d="M187.18,257.964v7.141H184.2V248.357h5.129c3.043,0,4.769,1.588,4.769,4.576,0,2.421-1.3,3.468-2.171,3.814,1.3.607,1.911,1.709,1.911,4.182v.667a19.738,19.738,0,0,0,.225,3.509h-2.9a13.867,13.867,0,0,1-.288-3.536v-.609c0-2.238-.514-3-2.406-3Zm0-2.428h1.407c1.811,0,2.518-.779,2.518-2.472a2,2,0,0,0-2.223-2.278h-1.7Z" transform="translate(-21.359 -28.799)" fill="#233c90"/>
    </g>
  </g>
  <g id="Group_860" data-name="Group 860" transform="translate(0 66.354)">
    <g id="Group_859" data-name="Group 859" clip-path="url(#clip-path-2)">
      <rect id="Rectangle_884" data-name="Rectangle 884" width="230.363" height="176.683" transform="translate(-37.598 15.907) rotate(-22.933)" fill="url(#linear-gradient)"/>
    </g>
  </g>
  <g id="Group_862" data-name="Group 862">
    <g id="Group_861" data-name="Group 861" clip-path="url(#clip-path)">
      <path id="Path_6658" data-name="Path 6658" d="M19.7,159.354l6.161,4.352,4.591-6.5-6.161-4.353,2.494-3.53,16.055,11.342-2.495,3.53L33.419,159.3l-4.592,6.5,6.926,4.893-2.494,3.53L17.2,162.884Z" transform="translate(-1.995 -17.315)" fill="#233c90"/>
      <path id="Path_6659" data-name="Path 6659" d="M38.8,136.979l19.36,8.1-3.073,3.27-4.208-1.913L45.847,151.8l2.135,4.121L45,159.086l-9.235-18.877Zm8.958,8.077-6.953-3.133-.038.04,3.5,6.805Z" transform="translate(-4.148 -15.884)" fill="#233c90"/>
      <path id="Path_6660" data-name="Path 6660" d="M50.475,125.981l10.261,12.307,7.358-6.135,2.328,2.792-10.678,8.9-12.588-15.1Z" transform="translate(-5.468 -14.608)" fill="#233c90"/>
      <path id="Path_6661" data-name="Path 6661" d="M65.718,114.312l8.836,13.366,7.993-5.284,2,3.032-11.6,7.666L62.112,116.7Z" transform="translate(-7.202 -13.255)" fill="#233c90"/>
      <path id="Path_6662" data-name="Path 6662" d="M88.282,107.235a9.829,9.829,0,0,1,.433-3.774,8.708,8.708,0,0,1,1.916-3.231A10.765,10.765,0,0,1,98.1,96.994a8.707,8.707,0,0,1,3.655.815,9.827,9.827,0,0,1,3.052,2.264,12.273,12.273,0,0,1,2.232,3.488,11.861,11.861,0,0,1,.987,3.938,9.54,9.54,0,0,1-.456,3.723,8.722,8.722,0,0,1-1.918,3.188,10.948,10.948,0,0,1-7.464,3.236,8.7,8.7,0,0,1-3.651-.773,9.57,9.57,0,0,1-3.03-2.213,11.883,11.883,0,0,1-2.2-3.412,12.277,12.277,0,0,1-1.019-4.014m6.209,4.389a6.5,6.5,0,0,0,1.684,1.566,4.724,4.724,0,0,0,2.112.72,5.718,5.718,0,0,0,4.547-1.971,4.726,4.726,0,0,0,.919-2.033,6.518,6.518,0,0,0,.008-2.3,9.992,9.992,0,0,0-.693-2.325,10.786,10.786,0,0,0-1.262-2.184,6.619,6.619,0,0,0-1.706-1.616,4.669,4.669,0,0,0-2.118-.732,5.716,5.716,0,0,0-4.547,1.971,4.69,4.69,0,0,0-.912,2.047,6.606,6.606,0,0,0,.013,2.35,10.726,10.726,0,0,0,.731,2.413,10.006,10.006,0,0,0,1.224,2.1" transform="translate(-10.234 -11.247)" fill="#233c90"/>
      <path id="Path_6663" data-name="Path 6663" d="M122.526,88.515l1.014,3.49-9.122,2.649,1.268,4.362,7.905-2.3.936,3.226-7.9,2.3,2.266,7.8-4.151,1.206-5.484-18.876Z" transform="translate(-12.669 -10.264)" fill="#233c90"/>
      <path id="Path_6664" data-name="Path 6664" d="M149.612,84.188l.468,3.6-9.419,1.224.585,4.505,8.163-1.061.433,3.331-8.163,1.06,1.047,8.054-4.287.557-2.533-19.493Z" transform="translate(-15.759 -9.762)" fill="#233c90"/>
      <path id="Path_6665" data-name="Path 6665" d="M162.785,83.772l7.85,19.462-4.487.115-1.6-4.338L157.2,99.2l-1.43,4.415-4.348.111,6.928-19.841Zm.556,12.048-2.661-7.147h-.056l-2.375,7.277Z" transform="translate(-17.559 -9.714)" fill="#233c90"/>
      <path id="Path_6666" data-name="Path 6666" d="M181.576,84.334,184.565,98.3l.055.007,5.9-12.918,6.042.71-2.293,19.523-4.019-.473,1.625-13.835-.055-.006-6.41,13.273-3.309-.389-3.175-14.261-.054-.006-1.61,13.7-4.019-.472,2.293-19.523Z" transform="translate(-20.088 -9.697)" fill="#233c90"/>
      <path id="Path_6667" data-name="Path 6667" d="M218.642,91.51l-.93,3.513-10.034-2.658L206.6,96.437l9.208,2.44-.86,3.246-9.208-2.439-1.233,4.657,10.246,2.714-.931,3.513L199.4,106.748l5.034-19Z" transform="translate(-23.121 -10.175)" fill="#233c90"/>
    </g>
  </g>
</svg>
