<svg id="Group_559" data-name="Group 559" xmlns="http://www.w3.org/2000/svg" xmlns:xlink="http://www.w3.org/1999/xlink" width="243" height="181" viewBox="0 0 243 181">
  <defs>
    <clipPath id="clip-path">
      <rect id="Rectangle_671" data-name="Rectangle 671" width="243" height="181" fill="none"/>
    </clipPath>
  </defs>
  <rect id="Rectangle_670" data-name="Rectangle 670" width="243" height="181" fill="#010066"/>
  <g id="Group_558" data-name="Group 558">
    <g id="Group_557" data-name="Group 557" clip-path="url(#clip-path)">
      <path id="Path_3859" data-name="Path 3859" d="M54.114,96.3a12.7,12.7,0,0,0,.71,4.968,3.811,3.811,0,0,0,2.6,2.07,25.141,25.141,0,0,0,6.151.532h4.894q6.743,0,10.765-4.14t5.323-11.475c0-.237.216-.335.651-.3s.651.177.651.414A155.792,155.792,0,0,0,84.8,104.58a2.081,2.081,0,0,1-.355,1.36,1.842,1.842,0,0,1-1.42.414H36.37c-.159,0-.237-.237-.237-.71s.078-.71.237-.71a26.129,26.129,0,0,0,6.565-.591,3.972,3.972,0,0,0,2.78-2.307,14.605,14.605,0,0,0,.71-5.264V42a14.106,14.106,0,0,0-.71-5.205,4.171,4.171,0,0,0-2.78-2.307,23.931,23.931,0,0,0-6.565-.651c-.159,0-.237-.237-.237-.71s.078-.71.237-.71l5.8.118q4.968.238,8.044.237,3.311,0,8.281-.237l5.678-.118q.355,0,.355.71t-.355.71a23.327,23.327,0,0,0-6.447.651,4.338,4.338,0,0,0-2.839,2.366,13.559,13.559,0,0,0-.769,5.264Z" transform="translate(-13.636 -12.234)" fill="#fff"/>
      <path id="Path_3860" data-name="Path 3860" d="M165.419,31.229A40.634,40.634,0,0,1,175.593,34.9q.827.473.946.828a16.671,16.671,0,0,1,.355,1.774l1.42,14.077c0,.237-.218.375-.651.414s-.691-.059-.769-.3q-5.442-19.754-24.369-19.756a34.356,34.356,0,0,0-17.508,4.377A29.618,29.618,0,0,0,123.305,48.8a40.924,40.924,0,0,0-4.14,18.868,39.586,39.586,0,0,0,4.554,18.868,35.519,35.519,0,0,0,12.3,13.545,30.621,30.621,0,0,0,16.857,4.968q9.7,0,15.734-4.732t9.227-14.432c0-.158.2-.237.591-.237.551,0,.828.118.828.355l-1.183,13.013a4.722,4.722,0,0,1-.355,1.774,3.475,3.475,0,0,1-.946.828,53.184,53.184,0,0,1-11.534,4.14,58.025,58.025,0,0,1-12.362,1.184,48.673,48.673,0,0,1-22.181-4.91,36.78,36.78,0,0,1-15.2-13.782A38.116,38.116,0,0,1,110.056,67.9a35.4,35.4,0,0,1,5.56-19.7A37.1,37.1,0,0,1,130.935,34.9a49.661,49.661,0,0,1,21.944-4.732,62.452,62.452,0,0,1,12.539,1.065" transform="translate(-41.533 -11.383)" fill="#fff"/>
      <path id="Path_3861" data-name="Path 3861" d="M292.817,104.784c0,.473-.15.71-.446.71q-2.125,0-6.594-.237t-6.481-.237q-2.459,0-6.258.237-3.578.238-5.476.237c-.3,0-.447-.237-.447-.71s.148-.71.447-.71a16.15,16.15,0,0,0,6.034-.828,2.887,2.887,0,0,0,1.9-2.839,14.926,14.926,0,0,0-1.453-5.087L264.1,72.963H237.5L230.461,90.47a19.043,19.043,0,0,0-1.564,6.506,5.887,5.887,0,0,0,2.738,5.383q2.737,1.717,8.214,1.715.558,0,.559.71t-.559.71q-2.012,0-5.811-.237-4.248-.236-7.376-.237-2.907,0-6.7.237-3.353.238-5.588.237-.558,0-.559-.71t.559-.71a10.568,10.568,0,0,0,5.308-1.242,12.456,12.456,0,0,0,4.135-4.377,58.815,58.815,0,0,0,4.3-9.05l23.58-58.912a.848.848,0,0,1,.782-.355q.558,0,.671.355L279.52,89.288q3.8,8.756,6.481,11.771a8.258,8.258,0,0,0,6.37,3.017c.3,0,.446.237.446.71M238.4,70.6h24.7L250.017,41.377Z" transform="translate(-80.688 -11.374)" fill="#fff"/>
      <path id="Path_3862" data-name="Path 3862" d="M41.807,181.836a1.869,1.869,0,0,0,.06.56.358.358,0,0,0,.232.232,1.871,1.871,0,0,0,.56.06h.508a3.334,3.334,0,0,0,2.017-.62,2.958,2.958,0,0,0,1.136-1.681q0-.03.06-.03a.134.134,0,0,1,.067.022q.037.022.037.037-.134,1.479-.134,2.466a.191.191,0,0,1-.224.224H39.073q-.03,0-.03-.09t.03-.09a2.324,2.324,0,0,0,.695-.075.47.47,0,0,0,.3-.291,2,2,0,0,0,.082-.665v-6.919a1.931,1.931,0,0,0-.082-.657.494.494,0,0,0-.306-.291,2.134,2.134,0,0,0-.687-.082q-.03,0-.03-.09t.03-.09l.762.015q.687.03,1.136.03t1.136-.03l.762-.015q.045,0,.045.09t-.045.09a2.134,2.134,0,0,0-.687.082.47.47,0,0,0-.3.3,2.188,2.188,0,0,0-.075.665Z" transform="translate(-14.734 -65.577)" fill="#fff"/>
      <path id="Path_3863" data-name="Path 3863" d="M58.089,182.568a.448.448,0,0,0,.291.284,2.324,2.324,0,0,0,.695.075q.045,0,.045.09t-.045.09q-.493,0-.777-.015l-1.136-.015-1.106.015q-.3.015-.807.015-.03,0-.03-.09t.03-.09a2.4,2.4,0,0,0,.7-.075.47.47,0,0,0,.306-.291,2,2,0,0,0,.082-.665v-6.919a1.931,1.931,0,0,0-.082-.657.494.494,0,0,0-.306-.291,2.2,2.2,0,0,0-.7-.082q-.03,0-.03-.09t.03-.09l.807.015q.687.03,1.106.03.463,0,1.151-.03l.762-.015q.045,0,.045.09t-.045.09a1.967,1.967,0,0,0-.687.09.492.492,0,0,0-.3.306,2.188,2.188,0,0,0-.075.665V181.9a2.178,2.178,0,0,0,.075.672" transform="translate(-20.839 -65.577)" fill="#fff"/>
      <path id="Path_3864" data-name="Path 3864" d="M66.4,176.164q-.015.045-.09.037c-.05,0-.075-.022-.075-.052q.06-.6.134-1.547t.075-1.427q0-.075.082-.075t.082.075q0,.329.852.329,1.285.045,3,.045.882,0,1.868-.03l1.016-.015a3.307,3.307,0,0,0,.829-.075.459.459,0,0,0,.336-.3q.015-.06.1-.06c.054,0,.082.02.082.06q-.045.448-.1,1.435t-.052,1.584q0,.045-.075.045c-.05,0-.08-.015-.09-.045a3.114,3.114,0,0,0-.837-1.726,2.122,2.122,0,0,0-1.509-.575.7.7,0,0,0-.575.187,1.249,1.249,0,0,0-.142.71v6.889a1.837,1.837,0,0,0,.09.672.5.5,0,0,0,.344.284,3.13,3.13,0,0,0,.807.075q.045,0,.045.09t-.045.09q-.538,0-.852-.015l-1.24-.015-1.21.015q-.314.015-.867.015-.045,0-.045-.09t.045-.09a3.142,3.142,0,0,0,.8-.075.525.525,0,0,0,.359-.291,1.715,1.715,0,0,0,.1-.665v-6.919a1.227,1.227,0,0,0-.134-.687.666.666,0,0,0-.553-.179q-1.778,0-2.555,2.316" transform="translate(-24.996 -65.314)" fill="#fff"/>
      <path id="Path_3865" data-name="Path 3865" d="M87.344,182.568a.448.448,0,0,0,.291.284,2.324,2.324,0,0,0,.695.075q.045,0,.045.09t-.045.09q-.493,0-.777-.015l-1.136-.015-1.106.015q-.3.015-.807.015-.03,0-.03-.09t.03-.09a2.4,2.4,0,0,0,.7-.075.47.47,0,0,0,.306-.291,2,2,0,0,0,.082-.665v-6.919a1.931,1.931,0,0,0-.082-.657.494.494,0,0,0-.306-.291,2.2,2.2,0,0,0-.7-.082q-.03,0-.03-.09t.03-.09l.807.015q.687.03,1.106.03.463,0,1.151-.03l.762-.015q.045,0,.045.09t-.045.09a1.967,1.967,0,0,0-.687.09.492.492,0,0,0-.3.306,2.188,2.188,0,0,0-.075.665V181.9a2.178,2.178,0,0,0,.075.672" transform="translate(-31.88 -65.577)" fill="#fff"/>
      <path id="Path_3866" data-name="Path 3866" d="M98.307,182.551a4.684,4.684,0,0,1-1.928-1.726,4.522,4.522,0,0,1-.672-2.421,4.443,4.443,0,0,1,.755-2.54,4.986,4.986,0,0,1,2.085-1.741,6.989,6.989,0,0,1,2.989-.62,9.278,9.278,0,0,1,1.435.112,5.177,5.177,0,0,1,1.151.291.442.442,0,0,1,.187.1.836.836,0,0,1,.037.247l.194,2.077q0,.045-.082.06t-.1-.045a4.8,4.8,0,0,0-.628-1.076,4.026,4.026,0,0,0-1.136-1.016,3.038,3.038,0,0,0-1.629-.433,3.106,3.106,0,0,0-1.748.523,3.539,3.539,0,0,0-1.248,1.494,5.259,5.259,0,0,0-.456,2.256,5.733,5.733,0,0,0,.53,2.51,4.117,4.117,0,0,0,1.472,1.718,3.805,3.805,0,0,0,2.122.613,2.582,2.582,0,0,0,.941-.134.863.863,0,0,0,.478-.523,3.376,3.376,0,0,0,.149-1.151,4.42,4.42,0,0,0-.09-1.083.586.586,0,0,0-.381-.411,3.422,3.422,0,0,0-1.024-.1q-.09,0-.09-.12a.157.157,0,0,1,.022-.082.063.063,0,0,1,.052-.037q1.27.075,2.062.075.762,0,1.584-.045.06,0,.067.1t-.067.1a.488.488,0,0,0-.381.1.76.76,0,0,0-.142.456q-.03.344-.03,1.2a6,6,0,0,0,.052.956,2.782,2.782,0,0,1,.052.359.173.173,0,0,1-.03.12.342.342,0,0,1-.134.06,16.512,16.512,0,0,1-3.467.418,6.477,6.477,0,0,1-2.959-.635" transform="translate(-36.118 -65.477)" fill="#fff"/>
      <path id="Path_3867" data-name="Path 3867" d="M125.6,182.953q0,.09-.075.09-.3,0-.926-.03-.657-.03-.941-.03-.374,0-.912.03-.508.03-.807.03-.06,0-.06-.09t.06-.09a1.392,1.392,0,0,0,.56-.082.3.3,0,0,0,.172-.291,2.312,2.312,0,0,0-.3-.852l-1.016-2.017H117.68l-.583,1.3a1.984,1.984,0,0,0-.194.807,1,1,0,0,0,.381.837,1.614,1.614,0,0,0,1.024.3q.075,0,.075.09t-.075.09q-.269,0-.777-.03-.568-.03-.986-.03t-.971.03q-.508.03-.822.03-.06,0-.06-.09t.06-.09a1.334,1.334,0,0,0,.7-.172,1.905,1.905,0,0,0,.568-.613,10.414,10.414,0,0,0,.672-1.307l3.243-7.128q.03-.045.134-.045t.134.045L123.941,181a7.743,7.743,0,0,0,.867,1.464.961.961,0,0,0,.717.4q.075,0,.075.09m-7.725-3.751h3.258l-1.718-3.407Z" transform="translate(-43.283 -65.514)" fill="#fff"/>
      <path id="Path_3868" data-name="Path 3868" d="M134.319,176.164q-.015.045-.09.037c-.05,0-.075-.022-.075-.052q.06-.6.134-1.547t.075-1.427q0-.075.082-.075t.082.075q0,.329.852.329,1.285.045,3,.045.882,0,1.868-.03l1.016-.015a3.307,3.307,0,0,0,.829-.075.459.459,0,0,0,.336-.3q.015-.06.1-.06c.054,0,.082.02.082.06q-.045.448-.1,1.435t-.052,1.584q0,.045-.075.045c-.05,0-.08-.015-.09-.045a3.114,3.114,0,0,0-.837-1.726,2.123,2.123,0,0,0-1.509-.575.7.7,0,0,0-.575.187,1.249,1.249,0,0,0-.142.71v6.889a1.837,1.837,0,0,0,.09.672.5.5,0,0,0,.344.284,3.13,3.13,0,0,0,.807.075q.045,0,.045.09t-.045.09q-.538,0-.852-.015l-1.24-.015-1.21.015q-.314.015-.867.015-.045,0-.045-.09t.045-.09a3.142,3.142,0,0,0,.8-.075.525.525,0,0,0,.359-.291,1.715,1.715,0,0,0,.1-.665v-6.919a1.227,1.227,0,0,0-.134-.687.666.666,0,0,0-.553-.179q-1.778,0-2.555,2.316" transform="translate(-50.628 -65.314)" fill="#fff"/>
      <path id="Path_3869" data-name="Path 3869" d="M155.263,182.568a.448.448,0,0,0,.291.284,2.324,2.324,0,0,0,.695.075q.045,0,.045.09t-.045.09q-.493,0-.777-.015l-1.136-.015-1.106.015q-.3.015-.807.015-.03,0-.03-.09t.03-.09a2.4,2.4,0,0,0,.7-.075.47.47,0,0,0,.306-.291,2,2,0,0,0,.082-.665v-6.919a1.931,1.931,0,0,0-.082-.657.494.494,0,0,0-.306-.291,2.2,2.2,0,0,0-.7-.082q-.03,0-.03-.09t.03-.09l.807.015q.687.03,1.106.03.463,0,1.151-.03l.762-.015q.045,0,.045.09t-.045.09a1.967,1.967,0,0,0-.687.09.492.492,0,0,0-.3.306,2.188,2.188,0,0,0-.075.665V181.9a2.177,2.177,0,0,0,.075.672" transform="translate(-57.511 -65.577)" fill="#fff"/>
      <path id="Path_3870" data-name="Path 3870" d="M165.89,182.536a4.452,4.452,0,0,1-1.674-1.763,5.1,5.1,0,0,1-.59-2.428,4.448,4.448,0,0,1,.777-2.637,4.869,4.869,0,0,1,1.995-1.651,5.962,5.962,0,0,1,2.488-.553,4.649,4.649,0,0,1,2.5.665,4.507,4.507,0,0,1,1.651,1.756,4.894,4.894,0,0,1,.575,2.316,4.581,4.581,0,0,1-.717,2.5,5.153,5.153,0,0,1-1.92,1.793,5.35,5.35,0,0,1-2.608.657,4.713,4.713,0,0,1-2.473-.65m4.468-.209a3.149,3.149,0,0,0,1.039-1.42,6.009,6.009,0,0,0,.374-2.234,6.783,6.783,0,0,0-.418-2.458,3.825,3.825,0,0,0-1.21-1.7,2.941,2.941,0,0,0-1.853-.613,2.417,2.417,0,0,0-2.092,1.024,4.853,4.853,0,0,0-.732,2.862,7.164,7.164,0,0,0,.441,2.593,4.265,4.265,0,0,0,1.21,1.786,2.643,2.643,0,0,0,1.741.643,2.483,2.483,0,0,0,1.5-.486" transform="translate(-61.75 -65.477)" fill="#fff"/>
      <path id="Path_3871" data-name="Path 3871" d="M194.657,173.857q0,.09-.03.09a1.1,1.1,0,0,0-.941.471,2.1,2.1,0,0,0-.344,1.263v7.651q0,.045-.067.06a.1.1,0,0,1-.1-.015l-7.008-7.979v5.813a2.132,2.132,0,0,0,.329,1.255,1.056,1.056,0,0,0,.912.463q.03,0,.03.09t-.03.09q-.418,0-.643-.015l-.807-.015-.926.015q-.254.015-.732.015-.045,0-.045-.09t.045-.09a1.273,1.273,0,0,0,1.039-.463,1.917,1.917,0,0,0,.381-1.255v-6.321a3.89,3.89,0,0,0-.844-.74,1.437,1.437,0,0,0-.725-.2q-.03,0-.03-.09t.03-.09l.628.015q.194.015.568.015l1.136-.015q.209-.015.508-.015a.243.243,0,0,1,.179.06,3.12,3.12,0,0,1,.209.254q.254.344.359.463l5.17,5.962V175.68a2.161,2.161,0,0,0-.329-1.27,1.056,1.056,0,0,0-.911-.463q-.03,0-.03-.09t.03-.09l.643.015q.478.03.807.03.3,0,.837-.03l.672-.015q.03,0,.03.09" transform="translate(-69.485 -65.577)" fill="#fff"/>
      <path id="Path_3872" data-name="Path 3872" d="M220.765,173.615a5.182,5.182,0,0,1,1.158.291.294.294,0,0,1,.172.112.635.635,0,0,1,.052.232l.194,2.077q0,.045-.075.06a.086.086,0,0,1-.1-.045,4.1,4.1,0,0,0-1.2-1.875,2.816,2.816,0,0,0-1.868-.65,3.146,3.146,0,0,0-1.816.545,3.632,3.632,0,0,0-1.255,1.562,6.421,6.421,0,0,0,.015,4.789,3.729,3.729,0,0,0,1.3,1.6,3.322,3.322,0,0,0,1.905.56,2.691,2.691,0,0,0,1.733-.56,5.327,5.327,0,0,0,1.33-1.845q.015-.045.09-.03t.075.06l-.224,1.853a.87.87,0,0,1-.06.232.363.363,0,0,1-.164.112,8.179,8.179,0,0,1-2.779.493,6.54,6.54,0,0,1-2.862-.605,4.785,4.785,0,0,1-1.98-1.7,4.413,4.413,0,0,1-.717-2.48,4.472,4.472,0,0,1,.74-2.533,5,5,0,0,1,2.032-1.741,6.5,6.5,0,0,1,2.876-.628,9.328,9.328,0,0,1,1.427.112" transform="translate(-80.643 -65.477)" fill="#fff"/>
      <path id="Path_3873" data-name="Path 3873" d="M235.106,182.536a4.452,4.452,0,0,1-1.674-1.763,5.1,5.1,0,0,1-.59-2.428,4.448,4.448,0,0,1,.777-2.637,4.869,4.869,0,0,1,1.995-1.651,5.962,5.962,0,0,1,2.488-.553,4.649,4.649,0,0,1,2.5.665,4.507,4.507,0,0,1,1.651,1.756,4.894,4.894,0,0,1,.575,2.316,4.581,4.581,0,0,1-.717,2.5,5.153,5.153,0,0,1-1.92,1.793,5.35,5.35,0,0,1-2.608.657,4.713,4.713,0,0,1-2.473-.65m4.468-.209a3.148,3.148,0,0,0,1.039-1.42,6.009,6.009,0,0,0,.374-2.234,6.783,6.783,0,0,0-.418-2.458,3.825,3.825,0,0,0-1.21-1.7,2.942,2.942,0,0,0-1.853-.613,2.417,2.417,0,0,0-2.092,1.024,4.853,4.853,0,0,0-.732,2.862,7.164,7.164,0,0,0,.441,2.593,4.265,4.265,0,0,0,1.21,1.786,2.643,2.643,0,0,0,1.741.643,2.483,2.483,0,0,0,1.5-.486" transform="translate(-87.871 -65.477)" fill="#fff"/>
      <path id="Path_3874" data-name="Path 3874" d="M261.287,174.41a1.232,1.232,0,0,0-1.024-.463q-.03,0-.03-.09t.03-.09l.717.015q.568.03.912.03c.189,0,.463-.01.822-.03l.687-.015q.03,0,.03.09t-.03.09a1.056,1.056,0,0,0-.911.463,2.16,2.16,0,0,0-.329,1.27v4.154a3.573,3.573,0,0,1-.463,1.838,3.1,3.1,0,0,1-1.307,1.218,4.274,4.274,0,0,1-1.95.426,4.385,4.385,0,0,1-1.958-.418,3.163,3.163,0,0,1-1.337-1.218,3.541,3.541,0,0,1-.486-1.875v-4.827a1.931,1.931,0,0,0-.082-.657.494.494,0,0,0-.3-.291,2.064,2.064,0,0,0-.68-.082q-.045,0-.045-.09t.045-.09l.792.015q.687.03,1.091.03.448,0,1.136-.03l.762-.015q.045,0,.045.09t-.045.09a1.9,1.9,0,0,0-.68.09.518.518,0,0,0-.3.306,1.984,1.984,0,0,0-.082.665v4.274a4.087,4.087,0,0,0,.7,2.63,2.43,2.43,0,0,0,1.987.852,2.524,2.524,0,0,0,1.943-.755,3.057,3.057,0,0,0,.7-2.159V175.68a2,2,0,0,0-.366-1.27" transform="translate(-95.687 -65.577)" fill="#fff"/>
      <path id="Path_3875" data-name="Path 3875" d="M283.552,173.857q0,.09-.03.09a1.1,1.1,0,0,0-.941.471,2.1,2.1,0,0,0-.344,1.263v7.651q0,.045-.067.06a.1.1,0,0,1-.1-.015l-7.008-7.979v5.813a2.131,2.131,0,0,0,.329,1.255,1.056,1.056,0,0,0,.911.463q.03,0,.03.09t-.03.09q-.418,0-.643-.015l-.807-.015-.926.015q-.254.015-.732.015-.045,0-.045-.09t.045-.09a1.273,1.273,0,0,0,1.039-.463,1.917,1.917,0,0,0,.381-1.255v-6.321a3.89,3.89,0,0,0-.844-.74,1.437,1.437,0,0,0-.725-.2q-.03,0-.03-.09t.03-.09l.628.015q.194.015.568.015l1.136-.015q.209-.015.508-.015a.243.243,0,0,1,.179.06,3.12,3.12,0,0,1,.209.254q.254.344.359.463l5.17,5.962V175.68a2.16,2.16,0,0,0-.329-1.27,1.056,1.056,0,0,0-.911-.463q-.03,0-.03-.09t.03-.09l.643.015q.478.03.807.03.3,0,.837-.03l.672-.015q.03,0,.03.09" transform="translate(-103.032 -65.577)" fill="#fff"/>
      <path id="Path_3876" data-name="Path 3876" d="M296.532,176.133a3.059,3.059,0,0,0,.68.732q.4.314,1.091.762a14.34,14.34,0,0,1,1.2.837,3.314,3.314,0,0,1,.762.874,2.239,2.239,0,0,1,.314,1.188,2.372,2.372,0,0,1-.418,1.382,2.757,2.757,0,0,1-1.158.941,3.945,3.945,0,0,1-1.651.336,5.677,5.677,0,0,1-1.4-.187,2.539,2.539,0,0,1-.986-.411.591.591,0,0,1-.112-.112.3.3,0,0,1-.037-.172l-.045-2.376v-.015q0-.06.075-.067t.09.052q.448.912.785,1.479a3.889,3.889,0,0,0,.852,1,1.773,1.773,0,0,0,1.173.433,1.5,1.5,0,0,0,.986-.321,1.355,1.355,0,0,0,.389-1.1,2.22,2.22,0,0,0-.291-1.151,3.155,3.155,0,0,0-.71-.837,13.522,13.522,0,0,0-1.151-.822,12,12,0,0,1-1.113-.792,3.152,3.152,0,0,1-.68-.792,2.046,2.046,0,0,1-.284-1.091,2.016,2.016,0,0,1,.456-1.337,2.7,2.7,0,0,1,1.173-.807,4.386,4.386,0,0,1,1.509-.261,5.962,5.962,0,0,1,1.061.1,4.424,4.424,0,0,1,.867.232.414.414,0,0,1,.179.127.3.3,0,0,1,.045.172v2.2q0,.045-.075.067t-.09-.022l-.12-.284a6.717,6.717,0,0,0-.874-1.6,1.656,1.656,0,0,0-1.4-.657,1.406,1.406,0,0,0-.979.344,1.279,1.279,0,0,0-.381,1,1.7,1.7,0,0,0,.276.956" transform="translate(-111.238 -65.477)" fill="#fff"/>
      <path id="Path_3877" data-name="Path 3877" d="M315.969,180.7a.157.157,0,0,1,.082.022q.037.022.037.037a16.811,16.811,0,0,0-.149,2.122.263.263,0,0,1-.045.172.233.233,0,0,1-.179.052h-6.6q-.045,0-.045-.09t.045-.09a2.324,2.324,0,0,0,.695-.075.448.448,0,0,0,.291-.291,2.189,2.189,0,0,0,.075-.665v-6.919a2.112,2.112,0,0,0-.075-.657.47.47,0,0,0-.3-.291,2.133,2.133,0,0,0-.687-.082q-.045,0-.045-.09t.045-.09h6.336q.149,0,.149.134l.03,1.987q0,.03-.082.045t-.1-.03a2.283,2.283,0,0,0-.807-1.285,2.459,2.459,0,0,0-1.494-.418H312.7a.943.943,0,0,0-.658.194.778.778,0,0,0-.209.6v3.048h1.24a2.458,2.458,0,0,0,1.33-.3.943.943,0,0,0,.463-.837q0-.045.082-.045t.082.045l-.015,1.345.015.717q.03.508.03.807,0,.03-.09.03t-.09-.03a1.137,1.137,0,0,0-.471-.964,2.232,2.232,0,0,0-1.352-.351h-1.225v3.377a1.033,1.033,0,0,0,.164.643.624.624,0,0,0,.523.209h.493a3.265,3.265,0,0,0,1.868-.478,2.751,2.751,0,0,0,1.031-1.479q0-.03.06-.03" transform="translate(-116.636 -65.577)" fill="#fff"/>
      <path id="Path_3878" data-name="Path 3878" d="M327.644,181.836a1.868,1.868,0,0,0,.06.56.358.358,0,0,0,.232.232,1.871,1.871,0,0,0,.56.06H329a3.334,3.334,0,0,0,2.017-.62,2.958,2.958,0,0,0,1.136-1.681q0-.03.06-.03a.134.134,0,0,1,.067.022q.037.022.037.037-.134,1.479-.134,2.466a.191.191,0,0,1-.224.224H324.91q-.03,0-.03-.09t.03-.09a2.324,2.324,0,0,0,.695-.075.47.47,0,0,0,.3-.291,2,2,0,0,0,.082-.665v-6.919a1.93,1.93,0,0,0-.082-.657.494.494,0,0,0-.306-.291,2.134,2.134,0,0,0-.687-.082q-.03,0-.03-.09t.03-.09l.762.015q.687.03,1.136.03t1.136-.03l.762-.015q.045,0,.045.09t-.045.09a2.133,2.133,0,0,0-.687.082.47.47,0,0,0-.3.3,2.187,2.187,0,0,0-.075.665Z" transform="translate(-122.605 -65.577)" fill="#fff"/>
      <path id="Path_3879" data-name="Path 3879" d="M345.03,141h-2.162v-1.136h5.579V141h-2.162v5.917H345.03Z" transform="translate(-129.393 -52.783)" fill="#fff"/>
      <path id="Path_3880" data-name="Path 3880" d="M354.052,139.865h1.913l1.883,4.941,1.9-4.941h1.893v7.053h-1.2V141.06h-.02l-2.142,5.858h-.877l-2.142-5.858h-.02v5.858h-1.2Z" transform="translate(-133.614 -52.783)" fill="#fff"/>
      <path id="Path_3881" data-name="Path 3881" d="M49.589,240.957a.681.681,0,0,0-.249-.623,1.624,1.624,0,0,0-.965-.248H41.744v6.351a.869.869,0,0,0,.156.545.71.71,0,0,0,.591.2v.374H38.382v-.374a.712.712,0,0,0,.591-.2.876.876,0,0,0,.156-.545V232.3a.873.873,0,0,0-.156-.545.714.714,0,0,0-.591-.2v-.374H51.768a2.3,2.3,0,0,0,1.027-.141.529.529,0,0,0,.218-.483h.374v3.549h-.374a.833.833,0,0,0-.249-.638,1.451,1.451,0,0,0-.965-.233H41.744v4.794h6.6a2.3,2.3,0,0,0,1.027-.141.528.528,0,0,0,.218-.482h.374v3.548Z" transform="translate(-14.485 -87.009)" fill="#fff"/>
      <path id="Path_3882" data-name="Path 3882" d="M89.878,232.3a.871.871,0,0,0-.156-.545.714.714,0,0,0-.591-.2v-.374h13.044a2.306,2.306,0,0,0,1.027-.14.529.529,0,0,0,.218-.483h.374v3.549h-.374a.834.834,0,0,0-.249-.638,1.451,1.451,0,0,0-.965-.233H92.493v4.919h6.32a1.981,1.981,0,0,0,.918-.187.7.7,0,0,0,.358-.685h.374v3.767h-.374a.727.727,0,0,0-.28-.654,1.749,1.749,0,0,0-.934-.187H92.493V245.5h10.4a1.612,1.612,0,0,0,.965-.233.969.969,0,0,0,.311-.825h.374v3.7h-.374q0-.592-1.09-.591H89.131v-.374a.712.712,0,0,0,.591-.2.87.87,0,0,0,.156-.545Z" transform="translate(-33.637 -87.01)" fill="#fff"/>
      <path id="Path_3883" data-name="Path 3883" d="M146.39,231.933a.685.685,0,0,0-.591.218,1.126,1.126,0,0,0-.156.654v13.075H156.1q1.09,0,1.09-.934h.374v3.58h-.374q0-.591-1.09-.591H142.281v-.374a.711.711,0,0,0,.591-.2.868.868,0,0,0,.156-.545V232.68a.871.871,0,0,0-.156-.545.713.713,0,0,0-.591-.2v-.374h4.109Z" transform="translate(-53.695 -87.387)" fill="#fff"/>
      <path id="Path_3884" data-name="Path 3884" d="M196.94,231.933a.685.685,0,0,0-.591.218,1.125,1.125,0,0,0-.156.654v13.075h10.46q1.09,0,1.09-.934h.374v3.58h-.374q0-.591-1.09-.591H192.831v-.374a.711.711,0,0,0,.591-.2.868.868,0,0,0,.156-.545V232.68a.871.871,0,0,0-.156-.545.713.713,0,0,0-.591-.2v-.374h4.109Z" transform="translate(-72.771 -87.387)" fill="#fff"/>
      <path id="Path_3885" data-name="Path 3885" d="M251.05,231.259a12.288,12.288,0,0,1,3.736.545,8.507,8.507,0,0,1,2.973,1.619,7.393,7.393,0,0,1,1.961,2.631,9.5,9.5,0,0,1,0,7.16,7.239,7.239,0,0,1-1.961,2.615,8.242,8.242,0,0,1-2.973,1.572,13.841,13.841,0,0,1-7.471,0,8.242,8.242,0,0,1-2.973-1.572,7.24,7.24,0,0,1-1.961-2.615,9.5,9.5,0,0,1,0-7.16,7.393,7.393,0,0,1,1.961-2.631,8.507,8.507,0,0,1,2.973-1.619,12.288,12.288,0,0,1,3.736-.545m0,2.117a6.79,6.79,0,0,0-4.9,1.662,6.935,6.935,0,0,0,0,9.161,8.067,8.067,0,0,0,9.806,0,6.935,6.935,0,0,0,0-9.161,6.79,6.79,0,0,0-4.9-1.662" transform="translate(-91.206 -87.273)" fill="#fff"/>
      <path id="Path_3886" data-name="Path 3886" d="M301.946,247.56a1.045,1.045,0,0,0,.529-.078.326.326,0,0,0,.093-.265,1.459,1.459,0,0,0-.093-.482q-.093-.264-.156-.483l-4.981-13.262a2.674,2.674,0,0,0-.4-.794.8.8,0,0,0-.654-.264v-.374h4.078v.374a.85.85,0,0,0-.545.125.434.434,0,0,0-.14.342,1,1,0,0,0,.109.42q.108.234.233.545l4.2,11.27h.062l4.172-11.861a1.537,1.537,0,0,0,.093-.467q0-.373-.467-.373v-.374h4.327v.374q-.56,0-.56.4a1.094,1.094,0,0,0,.093.389c.062.156.125.318.187.483l4.047,11.051h.062l4.14-11.207a2.833,2.833,0,0,1,.125-.358.8.8,0,0,0,.062-.326q0-.435-.685-.436v-.374H323.8v.374a.741.741,0,0,0-.591.217,3.305,3.305,0,0,0-.436.841l-4.888,13.2q-.156.4-.249.623a1.172,1.172,0,0,0-.093.467q0,.28.623.28v.374h-4.109v-.374a1.053,1.053,0,0,0,.514-.078.267.267,0,0,0,.109-.233,1.363,1.363,0,0,0-.125-.513c-.083-.2-.156-.379-.218-.545l-4.172-11.332H310.1L305.931,246.5c-.042.124-.083.243-.125.357a1.136,1.136,0,0,0-.062.389q0,.311.623.311v.374h-4.421Z" transform="translate(-111.811 -87.387)" fill="#fff"/>
      <path id="Path_3887" data-name="Path 3887" d="M119.328,207.444a3.7,3.7,0,0,1-1.395-1.469,4.249,4.249,0,0,1-.492-2.023,3.7,3.7,0,0,1,.648-2.2,4.058,4.058,0,0,1,1.662-1.376,4.968,4.968,0,0,1,2.073-.461,3.877,3.877,0,0,1,2.08.554,3.763,3.763,0,0,1,1.376,1.463,4.083,4.083,0,0,1,.479,1.93,3.816,3.816,0,0,1-.6,2.08,4.289,4.289,0,0,1-1.6,1.494,4.458,4.458,0,0,1-2.173.548,3.926,3.926,0,0,1-2.061-.542m3.723-.174a2.625,2.625,0,0,0,.865-1.183,5.012,5.012,0,0,0,.311-1.862,5.659,5.659,0,0,0-.349-2.048,3.188,3.188,0,0,0-1.009-1.413,2.451,2.451,0,0,0-1.544-.511,2.014,2.014,0,0,0-1.743.853,4.042,4.042,0,0,0-.61,2.385,5.959,5.959,0,0,0,.367,2.16,3.549,3.549,0,0,0,1.009,1.488,2.2,2.2,0,0,0,1.451.535,2.068,2.068,0,0,0,1.251-.4" transform="translate(-44.32 -75.446)" fill="#fff"/>
      <path id="Path_3888" data-name="Path 3888" d="M140.295,201.905c0,.017-.023.029-.068.037s-.073,0-.081-.025a1.906,1.906,0,0,0-.672-1.071,2.052,2.052,0,0,0-1.245-.349h-.374a.787.787,0,0,0-.548.162.649.649,0,0,0-.174.5v2.69h.9a1.978,1.978,0,0,0,1.1-.255.8.8,0,0,0,.38-.7c0-.016.025-.025.075-.025s.075.009.075.025l-.012,1.133c0,.266,0,.465.012.6l.012.66q0,.037-.075.037t-.075-.037a.935.935,0,0,0-.392-.791,1.838,1.838,0,0,0-1.114-.293h-.884v2.665a1.261,1.261,0,0,0,.1.573.563.563,0,0,0,.374.262,3.565,3.565,0,0,0,.859.075c.016,0,.025.025.025.075s-.009.075-.025.075q-.511,0-.8-.012l-1.27-.012-.934.012c-.166.009-.395.012-.685.012q-.037,0-.037-.075t.037-.075a2.324,2.324,0,0,0,.635-.062.394.394,0,0,0,.268-.243,1.672,1.672,0,0,0,.068-.554v-5.765a1.754,1.754,0,0,0-.062-.548.391.391,0,0,0-.249-.243,1.785,1.785,0,0,0-.573-.068q-.037,0-.037-.075t.037-.075h5.28c.083,0,.125.037.125.112Z" transform="translate(-50.849 -75.529)" fill="#fff"/>
      <path id="Path_3889" data-name="Path 3889" d="M162.85,207.792c0,.05-.021.075-.062.075q-.249,0-.772-.025-.548-.024-.785-.025-.312,0-.76.025c-.283.017-.506.025-.672.025-.034,0-.05-.025-.05-.075s.016-.075.05-.075a1.151,1.151,0,0,0,.467-.068.246.246,0,0,0,.143-.243,1.921,1.921,0,0,0-.249-.71l-.847-1.681H156.25l-.486,1.083a1.658,1.658,0,0,0-.162.672.836.836,0,0,0,.318.7,1.343,1.343,0,0,0,.853.249c.041,0,.062.025.062.075s-.021.075-.062.075q-.224,0-.648-.025-.474-.024-.822-.025t-.809.025c-.283.017-.511.025-.685.025-.033,0-.05-.025-.05-.075s.017-.075.05-.075a1.109,1.109,0,0,0,.585-.143,1.581,1.581,0,0,0,.473-.511,8.691,8.691,0,0,0,.56-1.09l2.7-5.94q.025-.037.112-.037t.112.037l3.113,6.127a6.413,6.413,0,0,0,.722,1.22.8.8,0,0,0,.6.336c.042,0,.062.025.062.075m-6.438-3.126h2.715l-1.432-2.839Z" transform="translate(-58.027 -75.476)" fill="#fff"/>
      <path id="Path_3890" data-name="Path 3890" d="M181.159,207.845c0,.05-.009.075-.025.075-.283,0-.507,0-.672-.012l-.921-.012-.934.012c-.158.009-.374.012-.648.012q-.037,0-.037-.075t.037-.075a1.4,1.4,0,0,0,.71-.125.593.593,0,0,0,.187-.523l-.012-.212-.261-5.093-2.565,6.014a.125.125,0,0,1-.2,0l-3.15-5.99-.1,4.5a1.687,1.687,0,0,0,.268,1.052.924.924,0,0,0,.791.38q.037,0,.037.075t-.037.075c-.224,0-.4,0-.523-.012l-.685-.012-.784.012c-.133.009-.311.012-.535.012q-.037,0-.037-.075t.037-.075a.971.971,0,0,0,.809-.386,1.724,1.724,0,0,0,.311-1.046l.112-5.155-.012-.012a2.169,2.169,0,0,0-.517-.672.969.969,0,0,0-.616-.212q-.037,0-.037-.075t.037-.075l.585.012q.174.012.448.012l.66-.012a2.739,2.739,0,0,1,.286-.012.3.3,0,0,1,.249.112,5.617,5.617,0,0,1,.324.535l2.715,5.093,2.366-5.429a.665.665,0,0,1,.156-.243.326.326,0,0,1,.218-.068c.075,0,.159,0,.255.012s.205.012.33.012l.735-.012q.174-.012.5-.012.037,0,.037.075t-.037.075a1.244,1.244,0,0,0-.847.237.88.88,0,0,0-.237.735l.3,5.653a1.986,1.986,0,0,0,.093.56.391.391,0,0,0,.249.237,1.87,1.87,0,0,0,.567.062c.016,0,.025.025.025.075" transform="translate(-64.555 -75.529)" fill="#fff"/>
      <path id="Path_3891" data-name="Path 3891" d="M196.573,205.915a.13.13,0,0,1,.068.019c.021.012.031.023.031.031a13.935,13.935,0,0,0-.125,1.768.218.218,0,0,1-.037.143.194.194,0,0,1-.149.044h-5.5q-.037,0-.037-.075t.037-.075a1.928,1.928,0,0,0,.579-.062.374.374,0,0,0,.243-.243,1.815,1.815,0,0,0,.062-.554v-5.765a1.754,1.754,0,0,0-.062-.548.393.393,0,0,0-.249-.243,1.785,1.785,0,0,0-.573-.068q-.037,0-.037-.075t.037-.075h5.28c.083,0,.125.037.125.112l.025,1.656c0,.017-.023.029-.068.037s-.073,0-.081-.025a1.906,1.906,0,0,0-.672-1.071,2.052,2.052,0,0,0-1.245-.349h-.374a.787.787,0,0,0-.548.162.649.649,0,0,0-.174.5v2.54h1.034a2.048,2.048,0,0,0,1.108-.249.786.786,0,0,0,.386-.7c0-.025.023-.037.068-.037s.068.012.068.037l-.012,1.121.012.6q.025.424.025.672c0,.017-.025.025-.075.025s-.075-.008-.075-.025a.948.948,0,0,0-.392-.8,1.861,1.861,0,0,0-1.127-.293h-1.021v2.814a.859.859,0,0,0,.137.535.52.52,0,0,0,.436.174h.411a2.72,2.72,0,0,0,1.557-.4,2.291,2.291,0,0,0,.859-1.233c0-.016.017-.025.05-.025" transform="translate(-72.012 -75.529)" fill="#fff"/>
      <path id="Path_3892" data-name="Path 3892" d="M212.567,207.822c0,.05-.009.075-.024.075h-2.217q-.275,0-1.021-.99a31.575,31.575,0,0,1-1.806-2.771,2.371,2.371,0,0,1-.286.012c-.323,0-.552,0-.685-.012v2.752a1.81,1.81,0,0,0,.062.56.371.371,0,0,0,.243.237,1.928,1.928,0,0,0,.579.062c.017,0,.025.025.025.075s-.008.075-.025.075c-.274,0-.49,0-.648-.012l-.946-.012-.909.012c-.166.009-.39.012-.672.012q-.037,0-.037-.075t.037-.075a1.931,1.931,0,0,0,.579-.062.393.393,0,0,0,.249-.243,1.671,1.671,0,0,0,.068-.554v-5.765a1.8,1.8,0,0,0-.062-.548.392.392,0,0,0-.25-.243,1.785,1.785,0,0,0-.573-.068q-.024,0-.024-.075t.024-.075l.66.012q.573.025.909.025c.283,0,.577-.012.884-.037.108-.008.243-.016.4-.025s.342-.012.542-.012a3.139,3.139,0,0,1,1.755.417,1.326,1.326,0,0,1,.623,1.164,2.167,2.167,0,0,1-.374,1.239,2.763,2.763,0,0,1-1,.89q1,1.494,1.669,2.341a6.809,6.809,0,0,0,1.2,1.233,1.729,1.729,0,0,0,1.022.386c.016,0,.024.025.024.075m-5.317-3.985a1.243,1.243,0,0,0,1.04-.4,2.122,2.122,0,0,0,.317-1.3,2.4,2.4,0,0,0-.3-1.407,1.021,1.021,0,0,0-.859-.386,1.069,1.069,0,0,0-.71.187.793.793,0,0,0-.212.623v2.64a4.425,4.425,0,0,0,.723.05" transform="translate(-77.061 -75.506)" fill="#fff"/>
      <path id="Path_3893" data-name="Path 3893" d="M222.93,207.471a.372.372,0,0,0,.243.237,1.928,1.928,0,0,0,.579.062q.037,0,.037.075t-.037.075c-.274,0-.49,0-.648-.012l-.946-.012-.921.012c-.166.009-.39.012-.672.012-.017,0-.025-.025-.025-.075s.008-.075.025-.075a2,2,0,0,0,.585-.062.391.391,0,0,0,.255-.243,1.671,1.671,0,0,0,.068-.554v-5.765a1.615,1.615,0,0,0-.068-.548.412.412,0,0,0-.255-.243,1.839,1.839,0,0,0-.585-.068c-.017,0-.025-.025-.025-.075s.008-.075.025-.075l.672.012q.573.025.921.025.386,0,.959-.025l.635-.012q.037,0,.037.075t-.037.075a1.638,1.638,0,0,0-.573.075.41.41,0,0,0-.249.255,1.819,1.819,0,0,0-.062.554v5.741a1.808,1.808,0,0,0,.062.56" transform="translate(-83.228 -75.529)" fill="#fff"/>
      <path id="Path_3894" data-name="Path 3894" d="M235.8,200.011a4.329,4.329,0,0,1,.965.243.244.244,0,0,1,.143.093.541.541,0,0,1,.044.193l.162,1.731c0,.025-.021.042-.062.05a.071.071,0,0,1-.087-.037,3.42,3.42,0,0,0-1-1.563,2.348,2.348,0,0,0-1.557-.542,2.619,2.619,0,0,0-1.513.454,3.02,3.02,0,0,0-1.046,1.3,5.351,5.351,0,0,0,.012,3.991,3.107,3.107,0,0,0,1.083,1.332,2.769,2.769,0,0,0,1.588.467,2.243,2.243,0,0,0,1.444-.467,4.435,4.435,0,0,0,1.108-1.538c.008-.025.033-.033.075-.025s.062.025.062.05l-.187,1.544a.707.707,0,0,1-.05.193.3.3,0,0,1-.137.093,6.817,6.817,0,0,1-2.316.411,5.45,5.45,0,0,1-2.385-.5,3.988,3.988,0,0,1-1.65-1.413,3.677,3.677,0,0,1-.6-2.067,3.726,3.726,0,0,1,.616-2.111,4.169,4.169,0,0,1,1.694-1.451,5.413,5.413,0,0,1,2.4-.523,7.78,7.78,0,0,1,1.189.093" transform="translate(-86.761 -75.446)" fill="#fff"/>
      <path id="Path_3895" data-name="Path 3895" d="M253.809,207.792c0,.05-.021.075-.062.075q-.249,0-.772-.025-.548-.024-.784-.025-.312,0-.76.025c-.283.017-.506.025-.672.025-.034,0-.05-.025-.05-.075s.016-.075.05-.075a1.151,1.151,0,0,0,.467-.068.246.246,0,0,0,.143-.243,1.92,1.92,0,0,0-.249-.71l-.847-1.681h-3.063l-.486,1.083a1.658,1.658,0,0,0-.162.672.836.836,0,0,0,.318.7,1.343,1.343,0,0,0,.853.249c.041,0,.062.025.062.075s-.021.075-.062.075q-.224,0-.648-.025-.474-.024-.822-.025t-.809.025c-.283.017-.511.025-.685.025-.033,0-.05-.025-.05-.075s.017-.075.05-.075a1.11,1.11,0,0,0,.585-.143,1.581,1.581,0,0,0,.473-.511,8.685,8.685,0,0,0,.56-1.09l2.7-5.94q.025-.037.112-.037t.112.037l3.113,6.127a6.413,6.413,0,0,0,.722,1.22.8.8,0,0,0,.6.336c.042,0,.062.025.062.075m-6.438-3.126h2.715l-1.432-2.839Z" transform="translate(-92.353 -75.476)" fill="#fff"/>
    </g>
  </g>
</svg>
