<svg xmlns="http://www.w3.org/2000/svg" xmlns:xlink="http://www.w3.org/1999/xlink" width="226" height="226" viewBox="0 0 226 226">
  <defs>
    <clipPath id="clip-path">
      <rect id="Rectangle_882" data-name="Rectangle 882" width="226" height="226" transform="translate(-0.254 -0.254)" fill="none"/>
    </clipPath>
  </defs>
  <g id="Group_856" data-name="Group 856" transform="translate(0.254 0.254)">
    <g id="Group_855" data-name="Group 855" clip-path="url(#clip-path)">
      <path id="Path_6589" data-name="Path 6589" d="M224.846,112.923A111.923,111.923,0,1,0,112.923,224.846,111.923,111.923,0,0,0,224.846,112.923" transform="translate(-0.177 -0.177)" fill="#fff"/>
      <path id="Ellipse_298" data-name="Ellipse 298" d="M112-1a113.832,113.832,0,0,1,22.772,2.3,112.386,112.386,0,0,1,40.408,17A113.327,113.327,0,0,1,216.12,68.015,112.44,112.44,0,0,1,222.7,89.228a114.093,114.093,0,0,1,0,45.545,112.386,112.386,0,0,1-17,40.408,113.327,113.327,0,0,1-49.716,40.939,112.439,112.439,0,0,1-21.213,6.585,114.093,114.093,0,0,1-45.545,0,112.386,112.386,0,0,1-40.408-17A113.327,113.327,0,0,1,7.88,155.985,112.439,112.439,0,0,1,1.3,134.772a114.093,114.093,0,0,1,0-45.545,112.386,112.386,0,0,1,17-40.408A113.327,113.327,0,0,1,68.015,7.88,112.44,112.44,0,0,1,89.228,1.3,113.832,113.832,0,0,1,112-1Zm0,224a111.825,111.825,0,0,0,22.371-2.255,110.387,110.387,0,0,0,39.689-16.7,111.327,111.327,0,0,0,40.217-48.838,110.434,110.434,0,0,0,6.467-20.834,112.092,112.092,0,0,0,0-44.743,110.387,110.387,0,0,0-16.7-39.689A111.327,111.327,0,0,0,155.206,9.723a110.434,110.434,0,0,0-20.834-6.467,112.092,112.092,0,0,0-44.743,0,110.387,110.387,0,0,0-39.689,16.7A111.327,111.327,0,0,0,9.723,68.794,110.435,110.435,0,0,0,3.255,89.629a112.092,112.092,0,0,0,0,44.743,110.387,110.387,0,0,0,16.7,39.689,111.327,111.327,0,0,0,48.838,40.217,110.435,110.435,0,0,0,20.834,6.467A111.825,111.825,0,0,0,112,223Z" transform="translate(0.746 0.746)" fill="#10365b"/>
      <path id="Path_6590" data-name="Path 6590" d="M219.679,114.339A105.339,105.339,0,1,0,114.339,219.679,105.34,105.34,0,0,0,219.679,114.339" transform="translate(-1.593 -1.593)" fill="#fff"/>
      <path id="Ellipse_299" data-name="Ellipse 299" d="M105-1a106.777,106.777,0,0,1,21.362,2.154,105.425,105.425,0,0,1,37.9,15.95,106.306,106.306,0,0,1,38.4,46.636,105.474,105.474,0,0,1,6.177,19.9,107.023,107.023,0,0,1,0,42.723,105.425,105.425,0,0,1-15.95,37.9,106.307,106.307,0,0,1-46.636,38.4,105.474,105.474,0,0,1-19.9,6.177,107.023,107.023,0,0,1-42.723,0,105.425,105.425,0,0,1-37.9-15.95A106.307,106.307,0,0,1,7.33,146.26a105.474,105.474,0,0,1-6.177-19.9,107.023,107.023,0,0,1,0-42.723,105.425,105.425,0,0,1,15.95-37.9A106.306,106.306,0,0,1,63.74,7.33a105.474,105.474,0,0,1,19.9-6.177A106.777,106.777,0,0,1,105-1Zm0,210a104.775,104.775,0,0,0,20.961-2.113,103.425,103.425,0,0,0,37.186-15.648,104.307,104.307,0,0,0,37.681-45.758,103.471,103.471,0,0,0,6.06-19.521,105.024,105.024,0,0,0,0-41.921,103.425,103.425,0,0,0-15.648-37.186A104.307,104.307,0,0,0,145.481,9.172a103.472,103.472,0,0,0-19.521-6.059,105.024,105.024,0,0,0-41.921,0A103.424,103.424,0,0,0,46.853,18.761,104.307,104.307,0,0,0,9.172,64.519,103.473,103.473,0,0,0,3.113,84.039a105.024,105.024,0,0,0,0,41.921,103.424,103.424,0,0,0,15.648,37.186,104.307,104.307,0,0,0,45.758,37.681,103.472,103.472,0,0,0,19.521,6.06A104.775,104.775,0,0,0,105,209Z" transform="translate(7.746 7.746)" fill="#10365b"/>
      <path id="Path_6591" data-name="Path 6591" d="M197.071,120.536a76.536,76.536,0,1,0-76.536,76.536,76.536,76.536,0,0,0,76.536-76.536" transform="translate(-7.79 -7.79)" fill="#fff"/>
      <path id="Ellipse_300" data-name="Ellipse 300" d="M77-1A78.57,78.57,0,0,1,92.719.585a77.579,77.579,0,0,1,27.893,11.737A78.225,78.225,0,0,1,148.87,46.639a77.615,77.615,0,0,1,4.545,14.643,78.751,78.751,0,0,1,0,31.437,77.579,77.579,0,0,1-11.737,27.893,78.224,78.224,0,0,1-34.317,28.259,77.614,77.614,0,0,1-14.643,4.545,78.751,78.751,0,0,1-31.437,0,77.579,77.579,0,0,1-27.893-11.737A78.224,78.224,0,0,1,5.13,107.361,77.614,77.614,0,0,1,.585,92.719a78.751,78.751,0,0,1,0-31.437A77.579,77.579,0,0,1,12.322,33.389,78.225,78.225,0,0,1,46.639,5.13,77.615,77.615,0,0,1,61.281.585,78.571,78.571,0,0,1,77-1Zm0,154a75.64,75.64,0,0,0,42.492-12.979,76.225,76.225,0,0,0,27.536-33.439,75.9,75.9,0,0,0-7.007-72.074A76.225,76.225,0,0,0,106.582,6.972a75.9,75.9,0,0,0-72.074,7.007A76.225,76.225,0,0,0,6.972,47.418a75.9,75.9,0,0,0,7.007,72.074,76.225,76.225,0,0,0,33.439,27.536A75.523,75.523,0,0,0,77,153Z" transform="translate(35.746 35.746)" fill="#10365b"/>
      <path id="Path_6592" data-name="Path 6592" d="M192.314,121.84a70.473,70.473,0,1,0-70.474,70.474,70.474,70.474,0,0,0,70.474-70.474" transform="translate(-9.094 -9.094)" fill="#fff"/>
      <path id="Ellipse_301" data-name="Ellipse 301" d="M70.473-1a71.144,71.144,0,0,1,39.962,12.207A71.679,71.679,0,0,1,136.33,42.652a71.381,71.381,0,0,1-6.59,67.783A71.679,71.679,0,0,1,98.294,136.33a71.381,71.381,0,0,1-67.783-6.59A71.679,71.679,0,0,1,4.617,98.294a71.381,71.381,0,0,1,6.59-67.783A71.679,71.679,0,0,1,42.652,4.617,71.027,71.027,0,0,1,70.473-1Zm0,140.947a69.144,69.144,0,0,0,38.843-11.864,69.679,69.679,0,0,0,25.172-30.567,69.381,69.381,0,0,0-6.405-65.884A69.679,69.679,0,0,0,97.515,6.459a69.381,69.381,0,0,0-65.884,6.405A69.679,69.679,0,0,0,6.459,43.432a69.381,69.381,0,0,0,6.405,65.884,69.679,69.679,0,0,0,30.567,25.172A69.037,69.037,0,0,0,70.473,139.947Z" transform="translate(42.273 42.273)" fill="#10365b"/>
      <path id="Path_6593" data-name="Path 6593" d="M92.382,232.018l8.327,3.077-.748,2.024-6.09-2.251-1.141,3.089,5.77,2.133-.749,2.024-5.769-2.133-1.261,3.409,6.41,2.368-.749,2.024-8.646-3.2Z" transform="translate(-15.532 -41.076)" fill="#10365b"/>
      <path id="Path_6594" data-name="Path 6594" d="M110.441,240.82a2.2,2.2,0,0,0-.791-1.023,3.547,3.547,0,0,0-1.235-.568,3.375,3.375,0,0,0-.8-.1,2.189,2.189,0,0,0-.753.127,1.58,1.58,0,0,0-.616.4,1.559,1.559,0,0,0-.371.718,1.225,1.225,0,0,0,.211,1.123,4.645,4.645,0,0,0,.991.887q.616.425,1.366.862a6.3,6.3,0,0,1,1.327,1.028,3.819,3.819,0,0,1,.864,1.4,3.44,3.44,0,0,1,0,1.97,4.2,4.2,0,0,1-.835,1.733,3.838,3.838,0,0,1-1.358,1.041,4.632,4.632,0,0,1-1.706.4,6.549,6.549,0,0,1-1.883-.19,7.032,7.032,0,0,1-2.235-.979,4.626,4.626,0,0,1-1.595-1.834l2.163-1.262a3.006,3.006,0,0,0,.864,1.275,3.235,3.235,0,0,0,1.374.719,3.168,3.168,0,0,0,.836.088,2.547,2.547,0,0,0,.816-.151,1.782,1.782,0,0,0,.672-.429,1.546,1.546,0,0,0,.394-.732,1.4,1.4,0,0,0-.188-1.216,4.176,4.176,0,0,0-.98-.933q-.614-.433-1.364-.872a6.4,6.4,0,0,1-1.328-1.019,3.718,3.718,0,0,1-.868-1.383,3.381,3.381,0,0,1,0-1.96,3.6,3.6,0,0,1,.844-1.644,3.891,3.891,0,0,1,1.385-.955,4.9,4.9,0,0,1,1.713-.349,6.844,6.844,0,0,1,1.823.2,6.659,6.659,0,0,1,1.918.8,4.77,4.77,0,0,1,1.484,1.457Z" transform="translate(-17.884 -41.957)" fill="#10365b"/>
      <path id="Path_6595" data-name="Path 6595" d="M119.394,241.555l-4.071-.543.285-2.139,10.507,1.4-.286,2.14-4.071-.544-1.489,11.145-2.364-.316Z" transform="translate(-20.416 -42.289)" fill="#10365b"/>
      <path id="Path_6596" data-name="Path 6596" d="M125.739,254.615a1.409,1.409,0,0,1,.52-1.006,1.474,1.474,0,0,1,1.1-.355,1.52,1.52,0,0,1,1.026.493,1.335,1.335,0,0,1,.378,1.053,1.4,1.4,0,0,1-.52,1,1.526,1.526,0,0,1-1.666.2,1.607,1.607,0,0,1-.459-.337,1.4,1.4,0,0,1-.3-.477,1.31,1.31,0,0,1-.081-.574" transform="translate(-22.26 -44.834)" fill="#10365b"/>
      <path id="Path_6597" data-name="Path 6597" d="M142.659,243.122l-2.372,2.477-1.417-1.488,3.837-3.61,2.06-.125.816,13.376-2.267.138Z" transform="translate(-24.585 -42.555)" fill="#10365b"/>
      <path id="Path_6598" data-name="Path 6598" d="M155.1,252.649l2.32-5.436-.044-.031a1.8,1.8,0,0,1-.521.263,4.268,4.268,0,0,1-.672.174,3.834,3.834,0,0,1-1.662-.056,4.011,4.011,0,0,1-1.418-.7,4.176,4.176,0,0,1-1.054-1.2,4.6,4.6,0,0,1-.57-1.572,4.81,4.81,0,0,1,.03-1.927,4.193,4.193,0,0,1,.73-1.6,4.362,4.362,0,0,1,1.336-1.164,5.51,5.51,0,0,1,1.819-.643,5.72,5.72,0,0,1,1.946-.021,4.353,4.353,0,0,1,1.646.625,4,4,0,0,1,1.216,1.248,5,5,0,0,1,.673,1.823,5.079,5.079,0,0,1-.016,1.954,11.8,11.8,0,0,1-.586,1.879l-2.451,5.9Zm3.432-9.761a2.425,2.425,0,0,0-1.85-1.964,2.452,2.452,0,0,0-2.611,3.711,2.414,2.414,0,0,0,1.5,1.055,2.46,2.46,0,0,0,2.559-.974,2.433,2.433,0,0,0,.4-1.829" transform="translate(-26.803 -42.253)" fill="#10365b"/>
      <path id="Path_6599" data-name="Path 6599" d="M162.812,237.332l8.738-2.555.584,2-1.964,12.368-2.561.749,2.094-12.327-6.286,1.839Z" transform="translate(-28.824 -41.564)" fill="#10365b"/>
      <path id="Path_6600" data-name="Path 6600" d="M174.779,233.576l8.4-3.521.806,1.92-.563,12.51-2.461,1.032.7-12.484-6.04,2.532Z" transform="translate(-30.942 -40.728)" fill="#10365b"/>
      <path id="Path_6601" data-name="Path 6601" d="M34.383,191.728l-1.425-2.822,5.962-10.282-.017-.035-8.888,4.488-1.074-2.129L40.9,174.909l1.364,2.7-6.189,10.546.016.034,9.175-4.632,1.075,2.129Z" transform="translate(-5.124 -30.965)" fill="#10365b"/>
      <path id="Path_6602" data-name="Path 6602" d="M25.335,169.915l-.619-1.968,11.052-9.528.818,2.6-2.55,2.112,1.744,5.543,3.289.236.8,2.545Zm7-5.376-4.581,3.6,5.831.369Z" transform="translate(-4.376 -28.046)" fill="#10365b"/>
      <path id="Path_6603" data-name="Path 6603" d="M23.887,157.452l.763,4.036-2.12.4-1.969-10.416,2.12-.4.763,4.036,11.048-2.087.443,2.344Z" transform="translate(-3.64 -26.745)" fill="#10365b"/>
      <rect id="Rectangle_880" data-name="Rectangle 880" width="13.401" height="2.385" transform="translate(16.573 120.242) rotate(-5.585)" fill="#10365b"/>
      <path id="Path_6604" data-name="Path 6604" d="M26.289,139.554a7.744,7.744,0,0,1-2.914-.583,6.551,6.551,0,0,1-2.215-1.507A6.427,6.427,0,0,1,19.77,135.2a7.836,7.836,0,0,1-.449-2.858,7.971,7.971,0,0,1,.516-2.868,6.293,6.293,0,0,1,1.451-2.226,6.506,6.506,0,0,1,2.26-1.435,7.673,7.673,0,0,1,2.925-.476,7.417,7.417,0,0,1,2.848.582,6.562,6.562,0,0,1,2.187,1.516,6.769,6.769,0,0,1,1.407,2.279A8,8,0,0,1,33.4,132.6a7.857,7.857,0,0,1-.553,2.839,6.389,6.389,0,0,1-3.692,3.633,7.415,7.415,0,0,1-2.867.478m-.106-2.5a5.756,5.756,0,0,0,1.993-.295,4.659,4.659,0,0,0,1.588-.909,4.353,4.353,0,0,0,1.067-1.429,4.514,4.514,0,0,0,.412-1.876,4.593,4.593,0,0,0-.344-1.9,4.327,4.327,0,0,0-1.014-1.476,4.652,4.652,0,0,0-1.554-.966,5.775,5.775,0,0,0-1.981-.367,5.232,5.232,0,0,0-1.88.3,4.652,4.652,0,0,0-1.541.909,4.3,4.3,0,0,0-1.048,1.439,4.712,4.712,0,0,0-.4,1.886,4.659,4.659,0,0,0,.334,1.89,4.351,4.351,0,0,0,1,1.467,4.667,4.667,0,0,0,1.506.965,5.243,5.243,0,0,0,1.868.365" transform="translate(-3.42 -22.189)" fill="#10365b"/>
      <path id="Path_6605" data-name="Path 6605" d="M20.469,118.2l.6-3.1,11.01-4.477.007-.037-9.774-1.9.454-2.341L35.924,108.9l-.576,2.974L24,116.415l-.007.037,10.09,1.958-.454,2.341Z" transform="translate(-3.624 -18.827)" fill="#10365b"/>
      <path id="Path_6606" data-name="Path 6606" d="M26.553,95.857l.717-1.934,14.571-.763-.946,2.555-3.309.108-2.017,5.45,2.456,2.2-.927,2.5Zm8.826.038-5.828.043L33.934,99.8Z" transform="translate(-4.701 -16.493)" fill="#10365b"/>
      <path id="Path_6607" data-name="Path 6607" d="M31.332,84.434l1.115-2.108,9.938,5.259,2.665-5.036,1.907,1.009L43.178,90.7Z" transform="translate(-5.547 -14.575)" fill="#10365b"/>
      <path id="Path_6608" data-name="Path 6608" d="M41.551,66.321,44.8,62.228a6.269,6.269,0,0,1,1.07-1.06,3.835,3.835,0,0,1,1.277-.667,3.025,3.025,0,0,1,2.845.6,2.754,2.754,0,0,1,1.068,1.669,3.582,3.582,0,0,1-.216,1.978l.03.023a3.485,3.485,0,0,1,1-.695,3.082,3.082,0,0,1,1.118-.284,3.234,3.234,0,0,1,1.142.144,3.3,3.3,0,0,1,1.077.576,3.514,3.514,0,0,1,1.161,1.476,3.465,3.465,0,0,1,.208,1.625,4.922,4.922,0,0,1-.515,1.671,9.237,9.237,0,0,1-1.01,1.578l-3,3.782ZM47.3,67.839l1.353-1.705a2.887,2.887,0,0,0,.747-1.69,1.61,1.61,0,0,0-1.984-1.549,3.548,3.548,0,0,0-1.563,1.285l-1.223,1.542Zm4.628,3.669,1.364-1.72a8.941,8.941,0,0,0,.562-.8,2.939,2.939,0,0,0,.386-.913,1.88,1.88,0,0,0-.021-.934,1.742,1.742,0,0,0-.647-.875,1.58,1.58,0,0,0-1.587-.375,4.278,4.278,0,0,0-1.66,1.424l-1.424,1.795Z" transform="translate(-7.356 -10.689)" fill="#10365b"/>
      <path id="Path_6609" data-name="Path 6609" d="M56.4,58.932a7.753,7.753,0,0,1-1.589-2.511,6.569,6.569,0,0,1-.439-2.644,6.428,6.428,0,0,1,.677-2.564,7.81,7.81,0,0,1,1.757-2.3,7.968,7.968,0,0,1,2.432-1.607,6.293,6.293,0,0,1,2.613-.486,6.5,6.5,0,0,1,2.6.644,7.7,7.7,0,0,1,2.364,1.787,7.44,7.44,0,0,1,1.544,2.462,6.549,6.549,0,0,1,.412,2.629,6.755,6.755,0,0,1-.677,2.591,7.98,7.98,0,0,1-1.753,2.344,7.83,7.83,0,0,1-2.437,1.56,6.391,6.391,0,0,1-5.177-.163A7.428,7.428,0,0,1,56.4,58.932m1.736-1.8a5.754,5.754,0,0,0,1.589,1.239,4.673,4.673,0,0,0,1.754.522,4.373,4.373,0,0,0,1.77-.213,4.543,4.543,0,0,0,1.643-1,4.612,4.612,0,0,0,1.137-1.56,4.334,4.334,0,0,0,.368-1.752,4.662,4.662,0,0,0-.374-1.791,5.774,5.774,0,0,0-1.1-1.687,5.219,5.219,0,0,0-1.512-1.155,4.646,4.646,0,0,0-1.722-.487,4.271,4.271,0,0,0-1.764.234,4.7,4.7,0,0,0-1.643,1.01,4.644,4.644,0,0,0-1.137,1.546,4.3,4.3,0,0,0-.374,1.732,4.656,4.656,0,0,0,.342,1.756,5.223,5.223,0,0,0,1.025,1.6" transform="translate(-9.624 -8.289)" fill="#10365b"/>
      <path id="Path_6610" data-name="Path 6610" d="M71.956,38.14l1.727-1.127,12.158,8.068L83.56,46.57l-2.722-1.885-4.866,3.176.662,3.23L74.4,52.55Zm7.067,5.288L74.315,39.99l1.22,5.714Z" transform="translate(-12.739 -6.553)" fill="#10365b"/>
      <path id="Path_6611" data-name="Path 6611" d="M82.789,31.245l4.224-1.959a9.378,9.378,0,0,1,1.767-.621,4.8,4.8,0,0,1,1.709-.115A3.235,3.235,0,0,1,92,29.144a4.24,4.24,0,0,1,1.464,4.079,3.456,3.456,0,0,1-1.585,2.05l5.72,3.878-2.61,1.209-5.2-3.845-1.58.732L90.589,42.4l-2.164,1Zm6.235,3.368c.309-.143.611-.3.908-.472a3.141,3.141,0,0,0,.755-.6,1.606,1.606,0,0,0,.4-.789,1.743,1.743,0,0,0-.193-1.047,1.653,1.653,0,0,0-.621-.755,1.532,1.532,0,0,0-.811-.218,3,3,0,0,0-.9.156,8.044,8.044,0,0,0-.874.342l-1.871.867,1.528,3.3Z" transform="translate(-14.657 -5.049)" fill="#10365b"/>
      <path id="Path_6612" data-name="Path 6612" d="M97.271,25.012l5.067-1.488a8.075,8.075,0,0,1,2.566-.33,6.222,6.222,0,0,1,2.438.577,6.064,6.064,0,0,1,2.043,1.58,7.145,7.145,0,0,1,1.378,2.681,6.22,6.22,0,0,1-.816,5.517,7.191,7.191,0,0,1-1.851,1.826,8,8,0,0,1-2.256,1.086l-4.795,1.408Zm7.163,9.615a8.465,8.465,0,0,0,1.953-.84,5,5,0,0,0,1.438-1.251,3.779,3.779,0,0,0,.723-1.671,4.666,4.666,0,0,0-.181-2.127,5.2,5.2,0,0,0-.95-1.891,3.625,3.625,0,0,0-1.4-1.057,4.371,4.371,0,0,0-1.75-.314,7.522,7.522,0,0,0-2.006.323l-2.089.614,2.56,8.716Z" transform="translate(-17.22 -4.105)" fill="#10365b"/>
      <path id="Path_6613" data-name="Path 6613" d="M122.333,25.952A7.767,7.767,0,0,1,122.7,23a6.571,6.571,0,0,1,1.343-2.321,6.417,6.417,0,0,1,2.152-1.549,7.852,7.852,0,0,1,2.817-.656,7.987,7.987,0,0,1,2.9.306,6.289,6.289,0,0,1,2.326,1.285,6.52,6.52,0,0,1,1.6,2.15,7.7,7.7,0,0,1,.688,2.882,7.427,7.427,0,0,1-.373,2.883,6.552,6.552,0,0,1-1.354,2.293,6.744,6.744,0,0,1-2.17,1.568,7.949,7.949,0,0,1-2.843.7,7.827,7.827,0,0,1-2.871-.345,6.384,6.384,0,0,1-3.893-3.418,7.439,7.439,0,0,1-.686-2.824m2.486-.288a5.774,5.774,0,0,0,.439,1.967,4.668,4.668,0,0,0,1.021,1.517,4.328,4.328,0,0,0,1.5.96,4.53,4.53,0,0,0,1.9.276,4.609,4.609,0,0,0,1.87-.481,4.332,4.332,0,0,0,1.4-1.118,4.646,4.646,0,0,0,.849-1.62,5.767,5.767,0,0,0,.223-2,5.207,5.207,0,0,0-.434-1.852,4.649,4.649,0,0,0-1.018-1.471,4.3,4.3,0,0,0-1.511-.941,4.714,4.714,0,0,0-1.91-.265,4.64,4.64,0,0,0-1.861.472,4.291,4.291,0,0,0-1.391,1.1,4.654,4.654,0,0,0-.852,1.572,5.243,5.243,0,0,0-.229,1.89" transform="translate(-21.655 -3.267)" fill="#10365b"/>
      <path id="Path_6614" data-name="Path 6614" d="M142.97,18.782l8.613.8-.2,2.148-6.238-.581-.327,3.505,5.88.548-.2,2.149-5.879-.548-.517,5.54-2.375-.221Z" transform="translate(-25.09 -3.325)" fill="#10365b"/>
      <path id="Path_6615" data-name="Path 6615" d="M166.01,24.571l-3.953-1.117.587-2.077,10.2,2.884-.588,2.076L168.3,25.221l-3.059,10.82-2.3-.65Z" transform="translate(-28.69 -3.785)" fill="#10365b"/>
      <path id="Path_6616" data-name="Path 6616" d="M176.945,25.981l4.281,1.829a9.5,9.5,0,0,1,1.644.9A4.8,4.8,0,0,1,184.1,29.9a3.217,3.217,0,0,1,.565,1.518,4.233,4.233,0,0,1-2.052,3.815,3.447,3.447,0,0,1-2.583.193l.943,6.847-2.646-1.131L177.7,34.7l-1.6-.685-2.233,5.222-2.192-.937Zm1.667,6.887c.313.134.633.254.958.359a3.134,3.134,0,0,0,.951.159,1.6,1.6,0,0,0,.852-.233,1.748,1.748,0,0,0,.649-.844,1.649,1.649,0,0,0,.145-.967,1.527,1.527,0,0,0-.379-.75,3,3,0,0,0-.716-.563,8.073,8.073,0,0,0-.839-.421l-1.9-.811-1.429,3.341Z" transform="translate(-30.393 -4.6)" fill="#10365b"/>
      <rect id="Rectangle_881" data-name="Rectangle 881" width="13.401" height="2.385" transform="matrix(0.479, -0.878, 0.878, 0.479, 151.442, 38.332)" fill="#10365b"/>
      <path id="Path_6617" data-name="Path 6617" d="M199.9,38.735l1.7,1.172L198.73,54.216l-2.242-1.549.714-3.233-4.782-3.3-2.739,1.836-2.2-1.517Zm-2.218,8.543,1.4-5.659-4.826,3.293Z" transform="translate(-33.191 -6.857)" fill="#10365b"/>
      <path id="Path_6618" data-name="Path 6618" d="M210.655,46.225l1.768,1.6-7.543,8.337,4.225,3.823-1.448,1.6-5.993-5.423Z" transform="translate(-35.702 -8.184)" fill="#10365b"/>
      <path id="Path_6619" data-name="Path 6619" d="M227.027,64.632l1.239,1.649L221.02,78.947l-1.637-2.179,1.7-2.84-3.49-4.646-3.179.874-1.6-2.134Zm-4.809,7.4,3.119-4.924-5.62,1.595Z" transform="translate(-37.675 -11.442)" fill="#10365b"/>
      <path id="Path_6620" data-name="Path 6620" d="M234.946,75.109l2.47,4.668a8.081,8.081,0,0,1,.835,2.448,6.214,6.214,0,0,1-.078,2.5,6.046,6.046,0,0,1-1.141,2.317,7.159,7.159,0,0,1-2.353,1.887,6.22,6.22,0,0,1-5.569.3,7.189,7.189,0,0,1-2.158-1.449,7.99,7.99,0,0,1-1.515-1.992L223.1,81.376Zm-7.991,8.938a8.432,8.432,0,0,0,1.213,1.746,5,5,0,0,0,1.513,1.16,3.765,3.765,0,0,0,1.782.374,4.673,4.673,0,0,0,2.048-.6,5.179,5.179,0,0,0,1.662-1.309,3.615,3.615,0,0,0,.755-1.588,4.36,4.36,0,0,0-.041-1.777,7.5,7.5,0,0,0-.717-1.9l-1.018-1.924-8.031,4.249Z" transform="translate(-39.497 -13.297)" fill="#10365b"/>
      <path id="Path_6621" data-name="Path 6621" d="M242.936,90.224l.9,2.592-8.37,6.771,10.8.239.844,2.432-14.436-.721L232,99.589Z" transform="translate(-41.073 -15.973)" fill="#10365b"/>
      <path id="Path_6622" data-name="Path 6622" d="M241.7,108.543a7.757,7.757,0,0,1,2.972.018,6.544,6.544,0,0,1,2.461,1.059,6.412,6.412,0,0,1,1.793,1.954,7.81,7.81,0,0,1,.985,2.719,7.944,7.944,0,0,1,.039,2.913,6.274,6.274,0,0,1-1,2.462,6.51,6.51,0,0,1-1.945,1.839,7.7,7.7,0,0,1-2.78,1.025,7.432,7.432,0,0,1-2.907-.03,6.56,6.56,0,0,1-2.436-1.072,6.757,6.757,0,0,1-1.814-1.969,7.966,7.966,0,0,1-1.028-2.74,7.832,7.832,0,0,1,0-2.893,6.386,6.386,0,0,1,2.932-4.27,7.46,7.46,0,0,1,2.725-1.015m.579,2.435a5.782,5.782,0,0,0-1.9.668A4.661,4.661,0,0,0,239,112.841a4.357,4.357,0,0,0-.777,1.606,4.54,4.54,0,0,0-.048,1.92,4.616,4.616,0,0,0,.7,1.8,4.33,4.33,0,0,0,1.277,1.257,4.686,4.686,0,0,0,1.708.653,5.768,5.768,0,0,0,2.015-.017,5.2,5.2,0,0,0,1.788-.649,4.639,4.639,0,0,0,1.34-1.185,4.292,4.292,0,0,0,.755-1.611,4.712,4.712,0,0,0,.037-1.928,4.646,4.646,0,0,0-.688-1.792,4.3,4.3,0,0,0-1.257-1.249,4.617,4.617,0,0,0-1.662-.661,5.226,5.226,0,0,0-1.9,0" transform="translate(-41.764 -19.192)" fill="#10365b"/>
      <path id="Path_6623" data-name="Path 6623" d="M248.249,137.57a3.979,3.979,0,0,0,1.037-1.446,3.874,3.874,0,0,0,.243-1.395,4.643,4.643,0,0,0-.4-1.877,4.313,4.313,0,0,0-1.045-1.432,4.643,4.643,0,0,0-1.539-.912,5.208,5.208,0,0,0-1.879-.3,5.749,5.749,0,0,0-1.983.363,4.663,4.663,0,0,0-1.555.962A4.347,4.347,0,0,0,240.111,133a4.546,4.546,0,0,0-.348,1.89,3.463,3.463,0,0,0,.413,1.574,4.3,4.3,0,0,0,1.264,1.409l-1.369,1.991a5.352,5.352,0,0,1-1.852-2.184,6.915,6.915,0,0,1-.613-2.773,7.846,7.846,0,0,1,.455-2.857,6.392,6.392,0,0,1,3.564-3.758,7.437,7.437,0,0,1,2.85-.577,7.769,7.769,0,0,1,2.933.482,6.568,6.568,0,0,1,2.266,1.431,6.435,6.435,0,0,1,1.466,2.21,7.846,7.846,0,0,1,.547,2.84,6.544,6.544,0,0,1-.441,2.535,5.909,5.909,0,0,1-1.6,2.194Z" transform="translate(-42.064 -22.609)" fill="#10365b"/>
      <path id="Path_6624" data-name="Path 6624" d="M250.274,149.2,250,151.239l-14.06,3.9.37-2.7,3.207-.821.788-5.757-2.873-1.616.362-2.644Zm-8.625,1.876,5.681-1.3-5.116-2.821Z" transform="translate(-41.769 -25.068)" fill="#10365b"/>
      <path id="Path_6625" data-name="Path 6625" d="M242.323,170.707a4,4,0,0,0,1.42-1.071,3.854,3.854,0,0,0,.648-1.259,4.636,4.636,0,0,0,.179-1.911,4.3,4.3,0,0,0-.571-1.677,4.628,4.628,0,0,0-1.2-1.331,5.241,5.241,0,0,0-1.7-.848,5.767,5.767,0,0,0-2-.244,4.66,4.66,0,0,0-1.772.455,4.342,4.342,0,0,0-1.408,1.095,4.522,4.522,0,0,0-.9,1.7,3.451,3.451,0,0,0-.075,1.625,4.3,4.3,0,0,0,.784,1.722l-1.9,1.491a5.357,5.357,0,0,1-1.117-2.638,6.9,6.9,0,0,1,.242-2.829,7.841,7.841,0,0,1,1.287-2.591,6.383,6.383,0,0,1,4.523-2.524,7.433,7.433,0,0,1,2.891.3,7.746,7.746,0,0,1,2.656,1.336,6.562,6.562,0,0,1,1.736,2.042,6.429,6.429,0,0,1,.74,2.546,7.841,7.841,0,0,1-.325,2.875,6.53,6.53,0,0,1-1.177,2.287,5.9,5.9,0,0,1-2.184,1.615Z" transform="translate(-41.19 -28.297)" fill="#10365b"/>
      <path id="Path_6626" data-name="Path 6626" d="M234.582,178.852l9.062-1.406-1.239,2.722-6.223.786,3.479,5.243-1.177,2.584-4.891-7.758-5.22-2.376.988-2.171Z" transform="translate(-40.43 -31.243)" fill="#10365b"/>
      <path id="Path_6627" data-name="Path 6627" d="M96.571,88.225H96.7l19.453,31.73h26.161a28.828,28.828,0,0,0,5.95-.63,17.107,17.107,0,0,0,5.382-2.078,11.882,11.882,0,0,0,3.9-3.809,10.714,10.714,0,0,0,1.511-5.887,11.608,11.608,0,0,0-.693-4.028,9.94,9.94,0,0,0-1.983-3.306,10.681,10.681,0,0,0-3.085-2.33,12.749,12.749,0,0,0-4-1.227v-.126a11.6,11.6,0,0,0,5.571-3.558,9.348,9.348,0,0,0,2.109-6.264,10.52,10.52,0,0,0-1.448-5.855,10.082,10.082,0,0,0-3.777-3.431,15.944,15.944,0,0,0-5.257-1.637,42.075,42.075,0,0,0-5.823-.409h-21.5v30.974h-.125L100.1,75.382H86.75v44.573h9.821Zm37.3-4.533h6.673a12.822,12.822,0,0,1,2.33.221,7.357,7.357,0,0,1,2.14.724,3.951,3.951,0,0,1,2.141,3.714,4.528,4.528,0,0,1-.536,2.266,4.257,4.257,0,0,1-1.416,1.511,6.157,6.157,0,0,1-1.983.819,10,10,0,0,1-2.235.252h-7.114Zm0,17.816H141.3a19.2,19.2,0,0,1,2.582.188,10.2,10.2,0,0,1,2.581.693,5.017,5.017,0,0,1,1.983,1.48,3.942,3.942,0,0,1,.787,2.55,4.726,4.726,0,0,1-.6,2.456,5.008,5.008,0,0,1-1.542,1.637,6.084,6.084,0,0,1-2.109.881,10.852,10.852,0,0,1-2.3.252h-8.814Z" transform="translate(-15.358 -13.345)" fill="#10365b"/>
      <path id="Path_6628" data-name="Path 6628" d="M139.831,133.642H86.8v8.688H108.4v37.921h9.821V142.33h21.605Z" transform="translate(-15.367 -23.659)" fill="#10365b"/>
      <path id="Path_6629" data-name="Path 6629" d="M184.327,181.225l-35-42.085.058,6.408-6.008.049,9.377,11.275H127.678v8.7h32.316l13.014,15.649Z" transform="translate(-22.604 -24.633)" fill="#10365b"/>
    </g>
  </g>
</svg>
