<svg id="Group_609" data-name="Group 609" xmlns="http://www.w3.org/2000/svg" xmlns:xlink="http://www.w3.org/1999/xlink" width="214.105" height="214.105" viewBox="0 0 214.105 214.105">
  <defs>
    <clipPath id="clip-path">
      <rect id="Rectangle_709" data-name="Rectangle 709" width="214.105" height="214.105" fill="none"/>
    </clipPath>
  </defs>
  <g id="Group_608" data-name="Group 608" clip-path="url(#clip-path)">
    <path id="Path_4166" data-name="Path 4166" d="M214.105,107.053A107.053,107.053,0,1,1,107.053,0,107.052,107.052,0,0,1,214.105,107.053" fill="#fcf205"/>
    <path id="Path_4167" data-name="Path 4167" d="M5.064,183.095S6.242,94.076,102.5,57.56c0,0-88.177,43.5-48.716,149.766Z" transform="translate(-1.194 -13.569)" fill="#836f4d"/>
    <path id="Path_4168" data-name="Path 4168" d="M170.728,2.514l1.641,32.309s10.349,2.272,20.951,12.621l-21.2.883s.631,20.7.252,34.707c0,0-6.437-18.048-17.922-29.785,0,0-18.426,4.67-27.513,11.737a224.055,224.055,0,0,1,16.533-24.105s-3.618-5.217-19.394-14.808a52.591,52.591,0,0,1,27.6,2.187Z" transform="translate(-29.249 -0.593)" fill="#836f4d"/>
    <path id="Path_4169" data-name="Path 4169" d="M85.668,128.476a.422.422,0,0,1-.131-.307V116.743a.416.416,0,0,1,.131-.316.438.438,0,0,1,.308-.122H90.9a5.511,5.511,0,0,1,3.542,1.036,3.649,3.649,0,0,1,1.292,3.023,3.516,3.516,0,0,1-1.282,2.962,5.677,5.677,0,0,1-3.551.993H88.806v3.85a.415.415,0,0,1-.131.316.46.46,0,0,1-.326.123H85.976a.42.42,0,0,1-.308-.132m5.142-6.583a1.747,1.747,0,0,0,1.213-.4,1.488,1.488,0,0,0,.439-1.169,1.6,1.6,0,0,0-.413-1.152,1.643,1.643,0,0,0-1.24-.43H88.754v3.146Z" transform="translate(-20.165 -27.418)"/>
    <path id="Path_4170" data-name="Path 4170" d="M100.5,129.345a2.94,2.94,0,0,1-1.2-.984,2.376,2.376,0,0,1-.431-1.38,2.316,2.316,0,0,1,.994-1.951,6.206,6.206,0,0,1,2.733-1.02l2.2-.334v-.246a1.454,1.454,0,0,0-.28-.984,1.22,1.22,0,0,0-.949-.316,1.412,1.412,0,0,0-.668.141,2.935,2.935,0,0,0-.545.387,2.79,2.79,0,0,1-.369.281.193.193,0,0,1-.193.141H99.879a.391.391,0,0,1-.29-.115.314.314,0,0,1-.1-.272,1.908,1.908,0,0,1,.465-1.055,3.568,3.568,0,0,1,1.371-1,5.466,5.466,0,0,1,2.277-.422,4.586,4.586,0,0,1,3.2.958,3.331,3.331,0,0,1,1.038,2.575v5.344a.436.436,0,0,1-.123.307.414.414,0,0,1-.316.132h-2.039a.451.451,0,0,1-.439-.439v-.615a2.816,2.816,0,0,1-1.081.887,3.674,3.674,0,0,1-1.643.344,3.945,3.945,0,0,1-1.7-.361m3.832-2.171a2.165,2.165,0,0,0,.5-1.547v-.246l-1.493.264q-1.583.281-1.582,1.107a.8.8,0,0,0,.368.694,1.54,1.54,0,0,0,.9.255,1.723,1.723,0,0,0,1.309-.527" transform="translate(-23.309 -28.339)"/>
    <path id="Path_4171" data-name="Path 4171" d="M112.409,129.46a.428.428,0,0,1-.122-.316v-8.262a.42.42,0,0,1,.439-.439h2.022a.442.442,0,0,1,.325.132.42.42,0,0,1,.131.307v.7a3.234,3.234,0,0,1,2.6-1.143h.773a.421.421,0,0,1,.439.439v1.811a.434.434,0,0,1-.123.307.412.412,0,0,1-.316.131h-1.7a1.376,1.376,0,0,0-1.512,1.512v4.5a.412.412,0,0,1-.131.316.46.46,0,0,1-.325.123h-2.18a.428.428,0,0,1-.316-.123" transform="translate(-26.471 -28.394)"/>
    <path id="Path_4172" data-name="Path 4172" d="M122.475,128.563a4.507,4.507,0,0,1-1.266-3.323v-.615a4.232,4.232,0,0,1,4.57-4.412,4.881,4.881,0,0,1,2.523.607,3.885,3.885,0,0,1,1.547,1.661,5.428,5.428,0,0,1,.519,2.425v.422a.441.441,0,0,1-.123.307.413.413,0,0,1-.316.132H124.3v.123a2.408,2.408,0,0,0,.405,1.337,1.242,1.242,0,0,0,1.071.51,1.288,1.288,0,0,0,.721-.186,2.433,2.433,0,0,0,.51-.448.852.852,0,0,1,.255-.237.8.8,0,0,1,.308-.044h2.179a.406.406,0,0,1,.273.1.318.318,0,0,1,.114.254,1.722,1.722,0,0,1-.518,1.055,4.24,4.24,0,0,1-1.5,1.037,5.659,5.659,0,0,1-2.32.44,4.651,4.651,0,0,1-3.321-1.143m4.8-4.536v-.035a2.135,2.135,0,0,0-.4-1.362,1.318,1.318,0,0,0-1.1-.5,1.3,1.3,0,0,0-1.081.5,2.139,2.139,0,0,0-.4,1.362v.035Z" transform="translate(-28.574 -28.339)"/>
    <path id="Path_4173" data-name="Path 4173" d="M134.558,129.406a.428.428,0,0,1-.122-.316v-8.262a.42.42,0,0,1,.439-.439H136.9a.46.46,0,0,1,.325.123.413.413,0,0,1,.131.316v.668a3.454,3.454,0,0,1,1.222-.932,3.943,3.943,0,0,1,1.7-.352,3.269,3.269,0,0,1,2.514,1.046,4.152,4.152,0,0,1,.966,2.926v4.9a.433.433,0,0,1-.123.307.41.41,0,0,1-.316.132H141.1a.452.452,0,0,1-.44-.439v-4.8a1.836,1.836,0,0,0-.4-1.275,1.48,1.48,0,0,0-1.159-.449,1.517,1.517,0,0,0-1.161.449,1.792,1.792,0,0,0-.422,1.275v4.8a.433.433,0,0,1-.123.307.41.41,0,0,1-.316.132h-2.2a.429.429,0,0,1-.316-.123" transform="translate(-31.692 -28.339)"/>
    <path id="Path_4174" data-name="Path 4174" d="M148.959,125.09v-3.375h-1.371a.462.462,0,0,1-.326-.123.415.415,0,0,1-.131-.316v-1.424a.417.417,0,0,1,.131-.316.462.462,0,0,1,.326-.123h1.371v-2.9a.414.414,0,0,1,.132-.316.437.437,0,0,1,.307-.123h2.039a.421.421,0,0,1,.439.439v2.9h2.2a.458.458,0,0,1,.325.123.415.415,0,0,1,.132.316v1.424a.413.413,0,0,1-.132.316.458.458,0,0,1-.325.123h-2.2v3.13q0,1.3,1,1.3h1.354a.423.423,0,0,1,.44.439v1.529a.437.437,0,0,1-.124.307.411.411,0,0,1-.316.132H152.6q-3.639,0-3.639-3.463" transform="translate(-34.685 -27.363)"/>
    <path id="Path_4175" data-name="Path 4175" d="M159.216,129.3a3.575,3.575,0,0,1-1.415-.968,1.676,1.676,0,0,1-.456-1,.368.368,0,0,1,.132-.29.431.431,0,0,1,.29-.114h2a.273.273,0,0,1,.193.088c.141.094.246.17.316.229a4.053,4.053,0,0,0,.676.413,1.731,1.731,0,0,0,.712.131,1.565,1.565,0,0,0,.835-.2.639.639,0,0,0,.325-.572.662.662,0,0,0-.167-.475,1.7,1.7,0,0,0-.642-.343,11.63,11.63,0,0,0-1.441-.36,4.868,4.868,0,0,1-2.241-.976,2.28,2.28,0,0,1-.783-1.819,2.345,2.345,0,0,1,.457-1.371,3.215,3.215,0,0,1,1.362-1.055,5.246,5.246,0,0,1,2.153-.405,5.651,5.651,0,0,1,2.18.387,3.748,3.748,0,0,1,1.415.941,1.615,1.615,0,0,1,.483,1.01.4.4,0,0,1-.115.281.358.358,0,0,1-.273.123h-1.827a.442.442,0,0,1-.264-.088,2.66,2.66,0,0,1-.4-.264,3.207,3.207,0,0,0-.562-.352,1.551,1.551,0,0,0-.65-.122,1.158,1.158,0,0,0-.729.211.695.695,0,0,0-.123.984,1.515,1.515,0,0,0,.633.342,10.5,10.5,0,0,0,1.432.343,4.709,4.709,0,0,1,2.488,1.055,2.43,2.43,0,0,1-.378,3.858,5.741,5.741,0,0,1-3.234.783,6.142,6.142,0,0,1-2.382-.4" transform="translate(-37.093 -28.339)"/>
    <path id="Path_4176" data-name="Path 4176" d="M169.1,120.4a.377.377,0,0,1-.079-.3l.528-3.427a.778.778,0,0,1,.193-.422.561.561,0,0,1,.439-.176h2.056a.31.31,0,0,1,.238.1.358.358,0,0,1,.1.247.525.525,0,0,1-.035.193l-1.319,3.393a1.133,1.133,0,0,1-.246.361.571.571,0,0,1-.4.131H169.36a.329.329,0,0,1-.255-.105" transform="translate(-39.846 -27.364)"/>
    <path id="Path_4177" data-name="Path 4177" d="M178.934,128.476a.422.422,0,0,1-.131-.307V116.743a.416.416,0,0,1,.131-.316.438.438,0,0,1,.308-.122h4.922a5.511,5.511,0,0,1,3.542,1.036A3.649,3.649,0,0,1,189,120.364a3.516,3.516,0,0,1-1.282,2.962,5.677,5.677,0,0,1-3.552.993h-2.092v3.85a.415.415,0,0,1-.131.316.46.46,0,0,1-.326.123h-2.373a.42.42,0,0,1-.308-.132m5.142-6.583a1.747,1.747,0,0,0,1.213-.4,1.488,1.488,0,0,0,.439-1.169,1.6,1.6,0,0,0-.413-1.152,1.643,1.643,0,0,0-1.24-.43H182.02v3.146Z" transform="translate(-42.152 -27.418)"/>
    <path id="Path_4178" data-name="Path 4178" d="M193.3,129.46a.428.428,0,0,1-.122-.316v-8.262a.42.42,0,0,1,.439-.439h2.022a.442.442,0,0,1,.325.132.42.42,0,0,1,.131.307v.7a3.234,3.234,0,0,1,2.6-1.143h.773a.421.421,0,0,1,.439.439v1.811a.434.434,0,0,1-.123.307.412.412,0,0,1-.316.131h-1.7a1.376,1.376,0,0,0-1.512,1.512v4.5a.412.412,0,0,1-.131.316.46.46,0,0,1-.325.123h-2.18a.428.428,0,0,1-.316-.123" transform="translate(-45.54 -28.394)"/>
    <path id="Path_4179" data-name="Path 4179" d="M203.367,128.563a4.507,4.507,0,0,1-1.266-3.323v-.615a4.232,4.232,0,0,1,4.57-4.412,4.881,4.881,0,0,1,2.523.607,3.885,3.885,0,0,1,1.547,1.661,5.428,5.428,0,0,1,.519,2.425v.422a.441.441,0,0,1-.123.307.413.413,0,0,1-.316.132h-5.626v.123a2.408,2.408,0,0,0,.405,1.337,1.242,1.242,0,0,0,1.071.51,1.288,1.288,0,0,0,.721-.186,2.432,2.432,0,0,0,.51-.448.852.852,0,0,1,.255-.237.8.8,0,0,1,.308-.044h2.179a.406.406,0,0,1,.273.1.318.318,0,0,1,.114.254,1.722,1.722,0,0,1-.518,1.055,4.24,4.24,0,0,1-1.5,1.037,5.659,5.659,0,0,1-2.32.44,4.651,4.651,0,0,1-3.321-1.143m4.8-4.536v-.035a2.135,2.135,0,0,0-.4-1.362,1.318,1.318,0,0,0-1.1-.5,1.3,1.3,0,0,0-1.081.5,2.139,2.139,0,0,0-.4,1.362v.035Z" transform="translate(-47.644 -28.339)"/>
    <path id="Path_4180" data-name="Path 4180" d="M216.555,129.3a3.575,3.575,0,0,1-1.415-.968,1.676,1.676,0,0,1-.456-1,.368.368,0,0,1,.132-.29.43.43,0,0,1,.29-.114h2a.273.273,0,0,1,.193.088c.141.094.246.17.316.229a4.052,4.052,0,0,0,.676.413,1.731,1.731,0,0,0,.712.131,1.565,1.565,0,0,0,.835-.2.639.639,0,0,0,.325-.572.662.662,0,0,0-.167-.475,1.7,1.7,0,0,0-.642-.343,11.63,11.63,0,0,0-1.441-.36,4.868,4.868,0,0,1-2.241-.976,2.28,2.28,0,0,1-.783-1.819,2.345,2.345,0,0,1,.457-1.371,3.215,3.215,0,0,1,1.362-1.055,5.246,5.246,0,0,1,2.153-.405,5.651,5.651,0,0,1,2.18.387,3.748,3.748,0,0,1,1.415.941,1.615,1.615,0,0,1,.483,1.01.4.4,0,0,1-.115.281.358.358,0,0,1-.273.123H220.73a.442.442,0,0,1-.264-.088,2.66,2.66,0,0,1-.4-.264,3.208,3.208,0,0,0-.562-.352,1.551,1.551,0,0,0-.65-.122,1.158,1.158,0,0,0-.729.211.695.695,0,0,0-.123.984,1.515,1.515,0,0,0,.633.342,10.5,10.5,0,0,0,1.432.343,4.71,4.71,0,0,1,2.488,1.055,2.431,2.431,0,0,1-.378,3.858,5.741,5.741,0,0,1-3.234.783,6.142,6.142,0,0,1-2.382-.4" transform="translate(-50.61 -28.339)"/>
    <path id="Path_4181" data-name="Path 4181" d="M228.353,129.3a3.574,3.574,0,0,1-1.415-.968,1.676,1.676,0,0,1-.456-1,.368.368,0,0,1,.132-.29.43.43,0,0,1,.29-.114h2a.273.273,0,0,1,.193.088c.141.094.246.17.316.229a4.052,4.052,0,0,0,.676.413,1.732,1.732,0,0,0,.712.131,1.565,1.565,0,0,0,.835-.2.639.639,0,0,0,.325-.572.662.662,0,0,0-.167-.475,1.7,1.7,0,0,0-.642-.343,11.631,11.631,0,0,0-1.441-.36,4.868,4.868,0,0,1-2.241-.976,2.28,2.28,0,0,1-.783-1.819,2.345,2.345,0,0,1,.457-1.371,3.215,3.215,0,0,1,1.362-1.055,5.246,5.246,0,0,1,2.153-.405,5.651,5.651,0,0,1,2.18.387,3.748,3.748,0,0,1,1.415.941,1.615,1.615,0,0,1,.483,1.01.4.4,0,0,1-.115.281.358.358,0,0,1-.273.123h-1.827a.442.442,0,0,1-.264-.088,2.66,2.66,0,0,1-.4-.264,3.208,3.208,0,0,0-.562-.352,1.551,1.551,0,0,0-.65-.122,1.158,1.158,0,0,0-.729.211.695.695,0,0,0-.123.984,1.515,1.515,0,0,0,.633.342,10.5,10.5,0,0,0,1.432.343,4.71,4.71,0,0,1,2.488,1.055,2.431,2.431,0,0,1-.378,3.858,5.741,5.741,0,0,1-3.234.783,6.142,6.142,0,0,1-2.382-.4" transform="translate(-53.391 -28.339)"/>
    <path id="Path_4182" data-name="Path 4182" d="M79.437,173.011a1.044,1.044,0,0,1-.327-.762V143.934a1.028,1.028,0,0,1,.327-.785,1.083,1.083,0,0,1,.762-.3H93.486q5.489,0,8.168,2.243a7.863,7.863,0,0,1,2.679,6.382,6.013,6.013,0,0,1-1.111,3.681,7.082,7.082,0,0,1-2.5,2.2,7.294,7.294,0,0,1,3.006,2.657,7.221,7.221,0,0,1,1.22,4.095,8.429,8.429,0,0,1-2.875,6.8q-2.874,2.441-8.189,2.44H80.2a1.04,1.04,0,0,1-.762-.327m13.177-18.056a3.652,3.652,0,0,0,2.657-.893,3.168,3.168,0,0,0,.915-2.375,3.037,3.037,0,0,0-.915-2.308,3.709,3.709,0,0,0-2.657-.872H86.951v6.447Zm.392,12.72a3.68,3.68,0,0,0,2.788-1.046,3.769,3.769,0,0,0,0-5.118,3.724,3.724,0,0,0-2.788-1.024H86.951v7.188Z" transform="translate(-18.65 -33.674)" fill="#e9067d"/>
    <path id="Path_4183" data-name="Path 4183" d="M117.285,173.011a1.044,1.044,0,0,1-.327-.762V143.933a1.025,1.025,0,0,1,.327-.784,1.081,1.081,0,0,1,.762-.306h20.344a1.046,1.046,0,0,1,1.089,1.09v4.095a1.088,1.088,0,0,1-.3.763,1.026,1.026,0,0,1-.784.326h-13.9V155h12.938a1.025,1.025,0,0,1,.784.326,1.142,1.142,0,0,1,.3.806v3.79a1.085,1.085,0,0,1-.3.762,1.026,1.026,0,0,1-.784.327H124.494v6.055h14.245a1.045,1.045,0,0,1,1.089,1.089v4.095a1.084,1.084,0,0,1-.3.762,1.026,1.026,0,0,1-.784.327H118.047a1.043,1.043,0,0,1-.762-.327" transform="translate(-27.572 -33.674)" fill="#e9067d"/>
    <path id="Path_4184" data-name="Path 4184" d="M154.82,172.42a10.4,10.4,0,0,1-4.466-3.2,7.5,7.5,0,0,1-1.59-4.334.879.879,0,0,1,.283-.633.925.925,0,0,1,.676-.283h5.489a1.633,1.633,0,0,1,.849.2,3,3,0,0,1,.676.588,4.519,4.519,0,0,0,1.829,1.872,6.6,6.6,0,0,0,3.355.741,7.452,7.452,0,0,0,3.79-.785,2.393,2.393,0,0,0,1.307-2.135,2.017,2.017,0,0,0-.676-1.568,6.026,6.026,0,0,0-2.112-1.089,43.7,43.7,0,0,0-4.269-1.09,18.316,18.316,0,0,1-7.82-3.2,7.339,7.339,0,0,1-2.592-6.034,8.01,8.01,0,0,1,1.481-4.748,9.693,9.693,0,0,1,4.226-3.266,16.14,16.14,0,0,1,6.4-1.176,15.357,15.357,0,0,1,6.578,1.307,10.837,10.837,0,0,1,4.247,3.289,7.159,7.159,0,0,1,1.547,3.9.893.893,0,0,1-.916.915h-5.749a1.8,1.8,0,0,1-.849-.173,1.67,1.67,0,0,1-.588-.567,2.871,2.871,0,0,0-1.415-1.7,6.5,6.5,0,0,0-5.86,0,2.3,2.3,0,0,0-1.046,2.047,2.113,2.113,0,0,0,.588,1.525,5.243,5.243,0,0,0,1.918,1.11,27.4,27.4,0,0,0,3.811,1.024,27.9,27.9,0,0,1,6.469,1.85,8.195,8.195,0,0,1,3.007,12.373,10.576,10.576,0,0,1-4.662,3.311,20.985,20.985,0,0,1-13.918-.066" transform="translate(-35.07 -33.54)" fill="#e9067d"/>
    <path id="Path_4185" data-name="Path 4185" d="M192.591,173.011a1.044,1.044,0,0,1-.327-.762V149.683H184.51a1.117,1.117,0,0,1-1.089-1.089v-4.661a1.027,1.027,0,0,1,.326-.784,1.084,1.084,0,0,1,.763-.306h23.437a1.046,1.046,0,0,1,1.089,1.09v4.661a1.045,1.045,0,0,1-1.089,1.089h-7.755v22.565a1.084,1.084,0,0,1-.3.762,1.028,1.028,0,0,1-.785.327h-5.749a1.045,1.045,0,0,1-.763-.327" transform="translate(-43.24 -33.674)" fill="#e9067d"/>
    <path id="Path_4186" data-name="Path 4186" d="M129.214,235.807a.63.63,0,0,1-.2-.482v-1.9a1.576,1.576,0,0,1,.669-1.311l2.783-2.728q2.434-1.872,3.691-2.916a11.733,11.733,0,0,0,1.9-1.9,2.75,2.75,0,0,0,.643-1.632,1.856,1.856,0,0,0-2.086-2.112,2.145,2.145,0,0,0-1.685.656,3.325,3.325,0,0,0-.776,1.645.821.821,0,0,1-.909.615H129.9a.55.55,0,0,1-.562-.562,6.173,6.173,0,0,1,.949-3.143,6.305,6.305,0,0,1,2.542-2.273,8.165,8.165,0,0,1,3.785-.844,9.355,9.355,0,0,1,3.852.722,5.413,5.413,0,0,1,2.433,2.034,5.778,5.778,0,0,1-.334,6.46,18.106,18.106,0,0,1-3.544,3.33l-2.462,2.487h6.875a.7.7,0,0,1,.494.188.627.627,0,0,1,.2.481v2.7a.63.63,0,0,1-.2.482.7.7,0,0,1-.494.186H129.708a.7.7,0,0,1-.494-.186" transform="translate(-30.414 -51.138)" fill="#e9067d"/>
    <path id="Path_4187" data-name="Path 4187" d="M152.826,234.32a7.547,7.547,0,0,1-2.059-5.095q-.055-1.447-.053-2.569,0-1.149.053-2.648a8.139,8.139,0,0,1,.976-3.57,6.293,6.293,0,0,1,2.554-2.488,8.477,8.477,0,0,1,4.12-.922,7.676,7.676,0,0,1,5.563,1.952,7.317,7.317,0,0,1,2.114,5.029q.053,1.5.053,2.648,0,1.125-.053,2.569a7.656,7.656,0,0,1-2.087,5.095,8.933,8.933,0,0,1-11.181,0m7.557-2.781a4.25,4.25,0,0,0,.709-2.448q.053-.775.053-2.488t-.053-2.433a4.291,4.291,0,0,0-.7-2.407,2.6,2.6,0,0,0-3.946,0,4.208,4.208,0,0,0-.708,2.407q-.028.721-.027,2.433t.027,2.488q.133,3.315,2.675,3.317a2.307,2.307,0,0,0,1.966-.869" transform="translate(-35.53 -51.163)" fill="#e9067d"/>
    <path id="Path_4188" data-name="Path 4188" d="M178.4,235.9a.643.643,0,0,1-.2-.468V222.7l-3.664,2.809a.606.606,0,0,1-.4.16.673.673,0,0,1-.536-.321l-1.577-2.058a.767.767,0,0,1-.134-.4.612.612,0,0,1,.321-.563l6.152-4.76a1.167,1.167,0,0,1,.642-.188h3.344a.642.642,0,0,1,.669.669v17.387a.667.667,0,0,1-.187.468.632.632,0,0,1-.481.2H178.87a.645.645,0,0,1-.468-.2" transform="translate(-40.522 -51.245)" fill="#e9067d"/>
    <path id="Path_4189" data-name="Path 4189" d="M190.924,235.927a.587.587,0,0,1-.16-.415.532.532,0,0,1,.053-.24L197,221.415h-8a.684.684,0,0,1-.695-.7v-2.675a.626.626,0,0,1,.2-.481.7.7,0,0,1,.494-.188H201.49a.687.687,0,0,1,.508.188.653.653,0,0,1,.186.481v2.381a2.913,2.913,0,0,1-.293,1.2l-6.179,13.828a.978.978,0,0,1-.936.642h-3.451a.521.521,0,0,1-.4-.173" transform="translate(-44.391 -51.245)" fill="#e9067d"/>
    <path id="Path_4190" data-name="Path 4190" d="M98.3,199.732v-3.375H96.927a.462.462,0,0,1-.326-.123.415.415,0,0,1-.131-.316v-1.424a.417.417,0,0,1,.131-.316.462.462,0,0,1,.326-.123H98.3v-2.9a.414.414,0,0,1,.132-.316.437.437,0,0,1,.307-.123h2.039a.421.421,0,0,1,.439.439v2.9h2.2a.458.458,0,0,1,.325.123.415.415,0,0,1,.132.316v1.424a.413.413,0,0,1-.132.316.458.458,0,0,1-.325.123h-2.2v3.13q0,1.3,1,1.3h1.354a.423.423,0,0,1,.44.439v1.529a.437.437,0,0,1-.124.307.411.411,0,0,1-.316.132h-1.635q-3.639,0-3.639-3.463" transform="translate(-22.742 -44.96)"/>
    <path id="Path_4191" data-name="Path 4191" d="M107.917,203.063a.42.42,0,0,1-.131-.307v-11.6a.412.412,0,0,1,.131-.316.434.434,0,0,1,.307-.123h2.251a.421.421,0,0,1,.439.439v3.92a3.524,3.524,0,0,1,2.777-1.2,3.613,3.613,0,0,1,1.82.458,3.168,3.168,0,0,1,1.256,1.353,4.72,4.72,0,0,1,.457,2.162v4.9a.436.436,0,0,1-.123.307.415.415,0,0,1-.316.132h-2.268a.451.451,0,0,1-.439-.439v-4.8a1.863,1.863,0,0,0-.4-1.275,1.456,1.456,0,0,0-1.151-.449,1.57,1.57,0,0,0-1.187.449,1.766,1.766,0,0,0-.43,1.275v4.8a.421.421,0,0,1-.439.439h-2.251a.422.422,0,0,1-.307-.132" transform="translate(-25.41 -44.96)"/>
    <path id="Path_4192" data-name="Path 4192" d="M123.059,203.205a4.507,4.507,0,0,1-1.266-3.323v-.615a4.232,4.232,0,0,1,4.57-4.412,4.881,4.881,0,0,1,2.523.607,3.885,3.885,0,0,1,1.547,1.661,5.428,5.428,0,0,1,.519,2.425v.422a.441.441,0,0,1-.123.307.413.413,0,0,1-.316.132h-5.626v.123a2.408,2.408,0,0,0,.405,1.337,1.242,1.242,0,0,0,1.071.51,1.289,1.289,0,0,0,.721-.186,2.432,2.432,0,0,0,.51-.448.852.852,0,0,1,.255-.237.8.8,0,0,1,.308-.044h2.179a.406.406,0,0,1,.273.1.318.318,0,0,1,.114.254,1.722,1.722,0,0,1-.518,1.055,4.24,4.24,0,0,1-1.5,1.037,5.659,5.659,0,0,1-2.32.44,4.651,4.651,0,0,1-3.321-1.143m4.8-4.536v-.035a2.135,2.135,0,0,0-.4-1.362,1.318,1.318,0,0,0-1.1-.5,1.3,1.3,0,0,0-1.081.5,2.139,2.139,0,0,0-.4,1.362v.035Z" transform="translate(-28.712 -45.936)"/>
    <path id="Path_4193" data-name="Path 4193" d="M140.3,203.118a.422.422,0,0,1-.131-.307V191.385a.416.416,0,0,1,.131-.316.436.436,0,0,1,.307-.122h5.362a5.05,5.05,0,0,1,3.3.9,3.169,3.169,0,0,1,1.081,2.575,2.436,2.436,0,0,1-.447,1.486,2.861,2.861,0,0,1-1.012.887,2.947,2.947,0,0,1,1.214,1.072,2.917,2.917,0,0,1,.492,1.652,3.4,3.4,0,0,1-1.16,2.742,4.963,4.963,0,0,1-3.3.984h-5.52a.419.419,0,0,1-.307-.132m5.318-7.286a1.472,1.472,0,0,0,1.072-.36,1.275,1.275,0,0,0,.37-.958,1.227,1.227,0,0,0-.37-.932,1.493,1.493,0,0,0-1.072-.352h-2.285v2.6Zm.158,5.133a1.486,1.486,0,0,0,1.125-.422,1.52,1.52,0,0,0,0-2.065,1.5,1.5,0,0,0-1.125-.413h-2.443v2.9Z" transform="translate(-33.044 -45.014)"/>
    <path id="Path_4194" data-name="Path 4194" d="M156.516,203.987a2.94,2.94,0,0,1-1.2-.984,2.376,2.376,0,0,1-.431-1.38,2.316,2.316,0,0,1,.994-1.951,6.206,6.206,0,0,1,2.733-1.02l2.2-.334v-.246a1.454,1.454,0,0,0-.28-.984,1.22,1.22,0,0,0-.949-.316,1.412,1.412,0,0,0-.668.141,2.935,2.935,0,0,0-.545.387,2.793,2.793,0,0,1-.369.281.194.194,0,0,1-.193.141h-1.916a.391.391,0,0,1-.29-.115.314.314,0,0,1-.1-.272,1.908,1.908,0,0,1,.465-1.055,3.568,3.568,0,0,1,1.371-1,5.466,5.466,0,0,1,2.277-.422,4.586,4.586,0,0,1,3.2.958,3.331,3.331,0,0,1,1.038,2.575v5.344a.436.436,0,0,1-.123.307.414.414,0,0,1-.316.132h-2.039a.451.451,0,0,1-.439-.439v-.615a2.816,2.816,0,0,1-1.081.887,3.674,3.674,0,0,1-1.643.344,3.945,3.945,0,0,1-1.7-.361m3.832-2.171a2.165,2.165,0,0,0,.5-1.547v-.246l-1.493.264q-1.583.281-1.582,1.107a.8.8,0,0,0,.368.694,1.54,1.54,0,0,0,.9.255,1.723,1.723,0,0,0,1.309-.527" transform="translate(-36.514 -45.936)"/>
    <path id="Path_4195" data-name="Path 4195" d="M169.6,207.46a.359.359,0,0,1-.105-.264.5.5,0,0,1,.053-.229l1.371-3.3-3.375-7.98a.676.676,0,0,1-.053-.212.585.585,0,0,1,.141-.272.343.343,0,0,1,.264-.114h2a.512.512,0,0,1,.51.369l2,5.114,2.057-5.114a.563.563,0,0,1,.527-.369h1.969a.37.37,0,0,1,.272.114.353.353,0,0,1,.115.255.844.844,0,0,1-.053.229L172.328,207.2a.521.521,0,0,1-.527.37h-1.934a.358.358,0,0,1-.264-.105" transform="translate(-39.486 -45.99)"/>
    <path id="Path_4196" data-name="Path 4196" d="M216.775,177.717a4.67,4.67,0,0,1-1.512-3.568q-.016-.509-.017-1.511,0-1.02.017-1.529a4.734,4.734,0,0,1,1.538-3.578,6.621,6.621,0,0,1,7.761,0,4.664,4.664,0,0,1,1.529,3.578q.036,1.02.035,1.529,0,.493-.035,1.511a4.669,4.669,0,0,1-1.512,3.568,6.881,6.881,0,0,1-7.8,0m5.44-1.9a2.555,2.555,0,0,0,.607-1.775q.034-1.019.035-1.441,0-.456-.035-1.441a2.528,2.528,0,0,0-.615-1.775,2.07,2.07,0,0,0-1.529-.58,2.038,2.038,0,0,0-1.521.58,2.614,2.614,0,0,0-.624,1.775q-.018.492-.018,1.441,0,.932.018,1.441a2.642,2.642,0,0,0,.614,1.775,2.035,2.035,0,0,0,1.53.58,2.06,2.06,0,0,0,1.538-.58" transform="translate(-50.743 -39.198)" fill="#e9067d"/>
    <path id="Path_4197" data-name="Path 4197" d="M231.822,178.677a.422.422,0,0,1-.131-.307V166.944a.417.417,0,0,1,.131-.316.44.44,0,0,1,.307-.122h8.086a.421.421,0,0,1,.44.439v1.776a.433.433,0,0,1-.124.307.413.413,0,0,1-.316.132h-5.431v2.584h5.079a.413.413,0,0,1,.317.132.456.456,0,0,1,.123.324v1.759a.439.439,0,0,1-.123.308.415.415,0,0,1-.317.131h-5.079v3.973a.421.421,0,0,1-.439.439H232.13a.422.422,0,0,1-.307-.132" transform="translate(-54.62 -39.252)" fill="#e9067d"/>
  </g>
</svg>
