<svg id="Group_918" data-name="Group 918" xmlns="http://www.w3.org/2000/svg" xmlns:xlink="http://www.w3.org/1999/xlink" width="194" height="190.584" viewBox="0 0 194 190.584">
  <defs>
    <clipPath id="clip-path">
      <rect id="Rectangle_930" data-name="Rectangle 930" width="194" height="190.584" fill="none"/>
    </clipPath>
  </defs>
  <rect id="Rectangle_920" data-name="Rectangle 920" width="9.649" height="106.322" transform="translate(2.085 0)" fill="#ef4c89"/>
  <rect id="Rectangle_921" data-name="Rectangle 921" width="19.426" height="106.322" transform="translate(21.939 0)" fill="#812890"/>
  <rect id="Rectangle_922" data-name="Rectangle 922" width="28.575" height="106.322" transform="translate(51.814 0)" fill="#046cb8"/>
  <rect id="Rectangle_923" data-name="Rectangle 923" width="9.516" height="106.322" transform="translate(90.593 0)" fill="#07ac5e"/>
  <rect id="Rectangle_924" data-name="Rectangle 924" width="31.915" height="106.322" transform="translate(110.449 0)" fill="#ffcb09"/>
  <rect id="Rectangle_925" data-name="Rectangle 925" width="19.854" height="106.322" transform="translate(152.383 0)" fill="#f7943d"/>
  <rect id="Rectangle_926" data-name="Rectangle 926" width="9.926" height="106.322" transform="translate(182.628 0)" fill="#eb3e43"/>
  <g id="Group_917" data-name="Group 917">
    <g id="Group_916" data-name="Group 916" clip-path="url(#clip-path)">
      <path id="Path_10883" data-name="Path 10883" d="M3.17,134.848H20.9a35.114,35.114,0,0,1,7.011.674,15.952,15.952,0,0,1,5.764,2.326,11.776,11.776,0,0,1,3.91,4.45,15.242,15.242,0,0,1,1.449,7.044,16.266,16.266,0,0,1-1.348,7.012,11.514,11.514,0,0,1-3.708,4.517,15.044,15.044,0,0,1-5.6,2.393,32.854,32.854,0,0,1-7.011.708H13.687V182.58H3.17Zm10.517,20.225H20.7a13.516,13.516,0,0,0,2.73-.27,7.268,7.268,0,0,0,2.36-.91,4.872,4.872,0,0,0,1.685-1.753,5.55,5.55,0,0,0,.64-2.8,4.735,4.735,0,0,0-.843-2.932,5.6,5.6,0,0,0-2.157-1.719,9.227,9.227,0,0,0-2.933-.775,30.061,30.061,0,0,0-3.1-.169H13.687Z" transform="translate(-0.499 -21.209)"/>
      <path id="Path_10884" data-name="Path 10884" d="M53.569,134.849H72.041a32.6,32.6,0,0,1,6.91.707,16.419,16.419,0,0,1,5.73,2.36,11.789,11.789,0,0,1,3.91,4.45,15.078,15.078,0,0,1,1.449,6.978,14.009,14.009,0,0,1-2.629,8.6,11.834,11.834,0,0,1-7.686,4.483L91.862,182.58H79.255L69.277,163.5H64.086V182.58H53.569ZM64.086,154.6h6.2q1.416,0,3-.1a9.384,9.384,0,0,0,2.865-.607,4.965,4.965,0,0,0,2.124-1.584,4.822,4.822,0,0,0,.843-3.033,5.044,5.044,0,0,0-.742-2.9,4.97,4.97,0,0,0-1.888-1.652,8.438,8.438,0,0,0-2.629-.775,21.454,21.454,0,0,0-2.9-.2H64.086Z" transform="translate(-8.425 -21.209)"/>
      <rect id="Rectangle_927" data-name="Rectangle 927" width="10.517" height="47.732" transform="translate(88.695 113.639)"/>
      <path id="Path_10885" data-name="Path 10885" d="M129.088,134.849h15.776a45.09,45.09,0,0,1,10.888,1.28,24.948,24.948,0,0,1,9,4.146,20.335,20.335,0,0,1,6.1,7.45,25,25,0,0,1,2.258,11.124,22.694,22.694,0,0,1-2.191,10.214,21.958,21.958,0,0,1-5.9,7.416,26.082,26.082,0,0,1-8.562,4.552,33.247,33.247,0,0,1-10.18,1.551H129.088Zm10.517,38.023h5.46a29.337,29.337,0,0,0,6.776-.742,14.461,14.461,0,0,0,5.427-2.461,11.8,11.8,0,0,0,3.607-4.516,16.032,16.032,0,0,0,1.315-6.843,13.359,13.359,0,0,0-1.315-6.1,12.213,12.213,0,0,0-3.539-4.281,15.551,15.551,0,0,0-5.225-2.528,23.231,23.231,0,0,0-6.3-.843h-6.2Z" transform="translate(-20.303 -21.209)"/>
      <path id="Path_10886" data-name="Path 10886" d="M190.287,134.848h32.427v9.708H200.8v8.9h20.7v9.708H200.8v9.708h23.125v9.708H190.287Z" transform="translate(-29.928 -21.209)"/>
      <rect id="Rectangle_928" data-name="Rectangle 928" width="4.864" height="22.076" transform="translate(0 167.947)"/>
      <path id="Path_10887" data-name="Path 10887" d="M11.026,199.292h6.61l9.385,15.341h.062V199.292h4.864v22.076H25.587l-9.635-15.715H15.89v15.715H11.026Z" transform="translate(-1.734 -31.345)"/>
      <path id="Path_10888" data-name="Path 10888" d="M52.132,199.292h8.232a20.855,20.855,0,0,1,2.884.2,7.857,7.857,0,0,1,2.6.811,4.988,4.988,0,0,1,1.871,1.7,5.214,5.214,0,0,1,.717,2.9,4.626,4.626,0,0,1-1.045,3.1,5.744,5.744,0,0,1-2.759,1.762v.062a6.34,6.34,0,0,1,1.98.608,5.3,5.3,0,0,1,1.528,1.154,4.925,4.925,0,0,1,.982,1.637,5.76,5.76,0,0,1,.343,2,5.309,5.309,0,0,1-.748,2.916,5.89,5.89,0,0,1-1.933,1.886,8.479,8.479,0,0,1-2.666,1.029,14.258,14.258,0,0,1-2.947.312H52.132ZM57,208.116H60.52a5,5,0,0,0,1.107-.125,3.075,3.075,0,0,0,.982-.405,2.116,2.116,0,0,0,.7-.748,2.25,2.25,0,0,0,.265-1.122,1.954,1.954,0,0,0-1.06-1.84,3.672,3.672,0,0,0-1.06-.359,6.39,6.39,0,0,0-1.154-.109H57Zm0,9.136h4.365a5.406,5.406,0,0,0,1.138-.125,2.993,2.993,0,0,0,1.045-.437,2.47,2.47,0,0,0,.764-.811,2.337,2.337,0,0,0,.3-1.216,1.944,1.944,0,0,0-.39-1.262,2.473,2.473,0,0,0-.982-.733,5.053,5.053,0,0,0-1.278-.344,9.641,9.641,0,0,0-1.278-.093H57Z" transform="translate(-8.199 -31.345)"/>
      <path id="Path_10889" data-name="Path 10889" d="M94.722,212.855a10.663,10.663,0,0,1-.592,3.617,7.965,7.965,0,0,1-1.761,2.868,8.067,8.067,0,0,1-2.916,1.9,12.213,12.213,0,0,1-8.076,0,8.049,8.049,0,0,1-2.915-1.9,7.956,7.956,0,0,1-1.762-2.868,10.643,10.643,0,0,1-.592-3.617V199.291h4.864v13.376a5.367,5.367,0,0,0,.328,1.9,4.524,4.524,0,0,0,.919,1.513,4.17,4.17,0,0,0,1.419,1,4.445,4.445,0,0,0,1.792.358,4.344,4.344,0,0,0,1.777-.358,4.223,4.223,0,0,0,1.4-1,4.524,4.524,0,0,0,.919-1.513,5.348,5.348,0,0,0,.328-1.9V199.291h4.864Z" transform="translate(-11.97 -31.345)"/>
      <path id="Path_10890" data-name="Path 10890" d="M114.129,204.581a3.47,3.47,0,0,0-1.6-1.106,5.762,5.762,0,0,0-1.919-.359,5.055,5.055,0,0,0-1.091.125,4.217,4.217,0,0,0-1.06.389,2.309,2.309,0,0,0-.811.7,1.776,1.776,0,0,0-.312,1.06,1.757,1.757,0,0,0,.748,1.528,7.09,7.09,0,0,0,1.887.9q1.138.374,2.447.748a10.053,10.053,0,0,1,2.447,1.06,5.788,5.788,0,0,1,1.886,1.84,5.594,5.594,0,0,1,.749,3.087,7.093,7.093,0,0,1-.686,3.212,6.512,6.512,0,0,1-1.856,2.276,7.883,7.883,0,0,1-2.712,1.341,12.442,12.442,0,0,1-7.25-.218,10,10,0,0,1-3.43-2.12l3.461-3.8a5.045,5.045,0,0,0,1.887,1.543,5.3,5.3,0,0,0,3.555.406,3.971,3.971,0,0,0,1.091-.421,2.348,2.348,0,0,0,.78-.717,1.789,1.789,0,0,0,.3-1.029,1.869,1.869,0,0,0-.764-1.575,7.063,7.063,0,0,0-1.918-.982q-1.154-.4-2.494-.812a11.161,11.161,0,0,1-2.494-1.09,6,6,0,0,1-1.917-1.808,5.171,5.171,0,0,1-.764-2.962,6.632,6.632,0,0,1,.7-3.118,6.776,6.776,0,0,1,1.871-2.245,8.122,8.122,0,0,1,2.7-1.356,11.026,11.026,0,0,1,3.149-.453,12.4,12.4,0,0,1,3.618.53,8.339,8.339,0,0,1,3.148,1.777Z" transform="translate(-15.974 -31.24)"/>
      <rect id="Rectangle_929" data-name="Rectangle 929" width="4.864" height="22.076" transform="translate(105.077 167.947)"/>
      <path id="Path_10891" data-name="Path 10891" d="M135.713,199.292h6.61l9.385,15.341h.063V199.292h4.864v22.076h-6.361l-9.635-15.715h-.063v15.715h-4.863Z" transform="translate(-21.345 -31.345)"/>
      <path id="Path_10892" data-name="Path 10892" d="M166.089,199.292h15v4.49H170.954V207.9h9.572v4.49h-9.572v4.49h10.695v4.49H166.089Z" transform="translate(-26.123 -31.345)"/>
      <path id="Path_10893" data-name="Path 10893" d="M199.782,204.581a3.468,3.468,0,0,0-1.605-1.106,5.758,5.758,0,0,0-1.919-.359,5.067,5.067,0,0,0-1.091.125,4.211,4.211,0,0,0-1.059.389,2.3,2.3,0,0,0-.811.7,1.776,1.776,0,0,0-.312,1.06,1.757,1.757,0,0,0,.747,1.528,7.1,7.1,0,0,0,1.888.9q1.136.374,2.447.748a10.067,10.067,0,0,1,2.447,1.06,5.788,5.788,0,0,1,1.886,1.84,5.6,5.6,0,0,1,.749,3.087,7.1,7.1,0,0,1-.686,3.212,6.521,6.521,0,0,1-1.856,2.276,7.891,7.891,0,0,1-2.712,1.341,11.94,11.94,0,0,1-3.259.437,11.816,11.816,0,0,1-3.991-.655,9.987,9.987,0,0,1-3.43-2.12l3.46-3.8a5.048,5.048,0,0,0,1.888,1.543,5.3,5.3,0,0,0,3.554.406,3.971,3.971,0,0,0,1.091-.421,2.348,2.348,0,0,0,.78-.717,1.789,1.789,0,0,0,.3-1.029,1.869,1.869,0,0,0-.764-1.575,7.057,7.057,0,0,0-1.917-.982q-1.154-.4-2.494-.812a11.144,11.144,0,0,1-2.494-1.09,5.989,5.989,0,0,1-1.917-1.808,5.164,5.164,0,0,1-.765-2.962,6.632,6.632,0,0,1,.7-3.118,6.776,6.776,0,0,1,1.871-2.245,8.122,8.122,0,0,1,2.7-1.356,11.032,11.032,0,0,1,3.15-.453,12.4,12.4,0,0,1,3.617.53,8.348,8.348,0,0,1,3.149,1.777Z" transform="translate(-29.445 -31.24)"/>
      <path id="Path_10894" data-name="Path 10894" d="M221.02,204.581a3.469,3.469,0,0,0-1.605-1.106,5.759,5.759,0,0,0-1.919-.359,5.067,5.067,0,0,0-1.091.125,4.211,4.211,0,0,0-1.059.389,2.3,2.3,0,0,0-.811.7,1.776,1.776,0,0,0-.312,1.06,1.757,1.757,0,0,0,.747,1.528,7.1,7.1,0,0,0,1.888.9q1.136.374,2.447.748a10.067,10.067,0,0,1,2.447,1.06,5.788,5.788,0,0,1,1.886,1.84,5.6,5.6,0,0,1,.749,3.087,7.1,7.1,0,0,1-.686,3.212,6.521,6.521,0,0,1-1.856,2.276,7.891,7.891,0,0,1-2.712,1.341,11.94,11.94,0,0,1-3.259.437,11.815,11.815,0,0,1-3.991-.655,9.987,9.987,0,0,1-3.43-2.12l3.46-3.8a5.048,5.048,0,0,0,1.888,1.543,5.3,5.3,0,0,0,3.554.406,3.971,3.971,0,0,0,1.091-.421,2.347,2.347,0,0,0,.78-.717,1.789,1.789,0,0,0,.3-1.029,1.869,1.869,0,0,0-.764-1.575,7.058,7.058,0,0,0-1.917-.982q-1.154-.4-2.494-.812a11.144,11.144,0,0,1-2.494-1.09,5.989,5.989,0,0,1-1.917-1.808,5.164,5.164,0,0,1-.765-2.962,6.633,6.633,0,0,1,.7-3.118,6.776,6.776,0,0,1,1.871-2.245,8.122,8.122,0,0,1,2.7-1.356,11.032,11.032,0,0,1,3.15-.453,12.4,12.4,0,0,1,3.617.53,8.348,8.348,0,0,1,3.149,1.777Z" transform="translate(-32.786 -31.24)"/>
    </g>
  </g>
</svg>
