<svg id="Group_604" data-name="Group 604" xmlns="http://www.w3.org/2000/svg" xmlns:xlink="http://www.w3.org/1999/xlink" width="272.601" height="98" viewBox="0 0 272.601 98">
  <defs>
    <clipPath id="clip-path">
      <rect id="Rectangle_704" data-name="Rectangle 704" width="272.601" height="98" fill="none"/>
    </clipPath>
  </defs>
  <rect id="Rectangle_700" data-name="Rectangle 700" width="272.601" height="98" fill="#bf0017"/>
  <path id="Path_4077" data-name="Path 4077" d="M4.727,5.2,4.5,5.473v.682L5.454,5.2Z" transform="translate(-2.455 -2.837)" fill="#f3d4c6"/>
  <path id="Path_4078" data-name="Path 4078" d="M22.764,5.2,4.5,23.464v.727L23.446,5.2Z" transform="translate(-2.455 -2.837)" fill="#f3d4c6"/>
  <path id="Path_4079" data-name="Path 4079" d="M40.8,5.2,4.5,41.5v.682L41.483,5.2Z" transform="translate(-2.455 -2.837)" fill="#f3d4c6"/>
  <path id="Path_4080" data-name="Path 4080" d="M58.838,5.2,4.5,59.538v.682L59.52,5.2Z" transform="translate(-2.455 -2.837)" fill="#f3d4c6"/>
  <path id="Path_4081" data-name="Path 4081" d="M76.83,5.2,4.5,77.53v.727L77.512,5.2Z" transform="translate(-2.455 -2.837)" fill="#f3d4c6"/>
  <path id="Path_4082" data-name="Path 4082" d="M94.867,5.2,4.5,95.567v.682L95.549,5.2Z" transform="translate(-2.455 -2.837)" fill="#f3d4c6"/>
  <path id="Path_4083" data-name="Path 4083" d="M131.184,5.2,38,98.384h.682L131.866,5.2Z" transform="translate(-20.735 -2.837)" fill="#f3d4c6"/>
  <path id="Path_4084" data-name="Path 4084" d="M170.884,5.2,77.7,98.384h.682L171.566,5.2Z" transform="translate(-42.398 -2.837)" fill="#f3d4c6"/>
  <path id="Path_4085" data-name="Path 4085" d="M210.484,5.2,117.3,98.384h.682L211.166,5.2Z" transform="translate(-64.007 -2.837)" fill="#f3d4c6"/>
  <path id="Path_4086" data-name="Path 4086" d="M250.184,5.2,157,98.384h.682L250.866,5.2Z" transform="translate(-85.669 -2.837)" fill="#f3d4c6"/>
  <path id="Path_4087" data-name="Path 4087" d="M289.884,5.2,196.7,98.384h.682L290.566,5.2Z" transform="translate(-107.332 -2.837)" fill="#f3d4c6"/>
  <path id="Path_4088" data-name="Path 4088" d="M329.484,5.2,236.3,98.384h.727L330.211,5.2Z" transform="translate(-128.941 -2.837)" fill="#f3d4c6"/>
  <path id="Path_4089" data-name="Path 4089" d="M369.184,5.2,276,98.384h.681L369.866,5.2Z" transform="translate(-150.604 -2.837)" fill="#f3d4c6"/>
  <path id="Path_4090" data-name="Path 4090" d="M408.884,5.2,315.7,98.384h.681L409.566,5.2Z" transform="translate(-172.267 -2.837)" fill="#f3d4c6"/>
  <path id="Path_4091" data-name="Path 4091" d="M448.584,5.2,355.4,98.384h.681L449.266,5.2Z" transform="translate(-193.929 -2.837)" fill="#f3d4c6"/>
  <path id="Path_4092" data-name="Path 4092" d="M395,100.894h.682l90.413-90.413V9.8Z" transform="translate(-215.538 -5.348)" fill="#f3d4c6"/>
  <path id="Path_4093" data-name="Path 4093" d="M434.7,122.557h.682l72.375-72.376V49.5Z" transform="translate(-237.201 -27.01)" fill="#f3d4c6"/>
  <path id="Path_4094" data-name="Path 4094" d="M474.4,144.165h.682L529.42,89.827V89.1Z" transform="translate(-258.864 -48.619)" fill="#f3d4c6"/>
  <path id="Path_4095" data-name="Path 4095" d="M514.1,165.828h.682l36.347-36.347V128.8Z" transform="translate(-280.526 -70.282)" fill="#f3d4c6"/>
  <path id="Path_4096" data-name="Path 4096" d="M553.7,187.491h.682l18.31-18.31V168.5Z" transform="translate(-302.135 -91.945)" fill="#f3d4c6"/>
  <path id="Path_4097" data-name="Path 4097" d="M593.4,209.154h.682l.273-.273V208.2Z" transform="translate(-323.798 -113.608)" fill="#f3d4c6"/>
  <g id="Group_603" data-name="Group 603">
    <g id="Group_602" data-name="Group 602" clip-path="url(#clip-path)">
      <path id="Path_4098" data-name="Path 4098" d="M68.1,57.38v-1h2.953v1c0,3.317,1.136,4.771,3.862,4.771,2.181,0,3.453-1.5,3.453-4.407v-.591c0-3.408-1.408-4.725-4.589-7.178-3.362-2.544-5.27-4.589-5.27-8.678v-.091c0-4.089,2.408-6.406,6.179-6.406,3.907,0,6.224,2.135,6.224,6.5v1H78.05v-1c0-2.953-1.318-3.953-3.362-3.953-2.09,0-3.271,1.227-3.271,3.68v.182c0,2.908,1.09,4.18,4.225,6.5,3.816,2.817,5.725,4.634,5.725,9.4v.636c0,4.816-2.59,7.088-6.406,7.088-4.452-.136-6.86-2.726-6.86-7.451" transform="translate(-37.16 -18.989)" fill="#fff"/>
      <path id="Path_4099" data-name="Path 4099" d="M108.743,55.046h5.77l-2.862-17.083Zm6.134,2.363h-6.542l-1.227,7.36H104.2L109.379,35.6h4.634l5.134,29.168H116.1Z" transform="translate(-56.858 -19.426)" fill="#fff"/>
      <path id="Path_4100" data-name="Path 4100" d="M146.3,35.6h3.726l7.406,21.672V35.6h2.726V64.768h-3.18l-7.905-23.444V64.768H146.3Z" transform="translate(-79.831 -19.426)" fill="#fff"/>
      <path id="Path_4101" data-name="Path 4101" d="M203.2,35.6h11.222v2.408h-8.178V48.821h6.588v2.453h-6.588L206.2,64.768h-3Z" transform="translate(-110.879 -19.426)" fill="#fff"/>
      <path id="Path_4102" data-name="Path 4102" d="M243.743,48.776c2.771,0,3.862-1.272,3.862-4.271V42.1c0-3-1.272-4.089-3.907-4.089h-2.953V48.776ZM237.7,35.6h5.952c4.543,0,7.042,2,7.042,6.5V44.5c0,3.862-1.59,5.543-4.316,6.27l5,13.994h-3.362l-4.68-13.675h-2.59V64.768H237.7Z" transform="translate(-129.705 -19.426)" fill="#fff"/>
      <path id="Path_4103" data-name="Path 4103" d="M279.1,55.046h5.77l-2.862-17.083Zm6.179,2.363h-6.542l-1.227,7.36H274.6L279.779,35.6h4.634l5.134,29.168H286.5Z" transform="translate(-149.84 -19.426)" fill="#fff"/>
      <path id="Path_4104" data-name="Path 4104" d="M316.7,35.6h3.726l7.36,21.672V35.6h2.726V64.768h-3.18l-7.86-23.444V64.768H316.7Z" transform="translate(-172.812 -19.426)" fill="#fff"/>
      <path id="Path_4105" data-name="Path 4105" d="M358.3,56.145v-12.9c0-5.5,3.044-8.541,7.451-8.541,3.953,0,7,2,7,7.088v.454h-3v-.409c0-3.271-1.408-4.634-3.953-4.634-2.862,0-4.362,2.045-4.362,6V56.054c0,3.862,1.318,5.952,4.407,5.952,2.5,0,4.225-1.454,4.225-4.952v-.772h2.817V57.1c0,5.316-3,7.451-7.042,7.451-4.725.091-7.542-2.953-7.542-8.405" transform="translate(-195.512 -18.935)" fill="#fff"/>
      <rect id="Rectangle_701" data-name="Rectangle 701" width="3.044" height="29.168" transform="translate(182.143 16.174)" fill="#fff"/>
      <path id="Path_4106" data-name="Path 4106" d="M418.1,57.38v-1h2.953v1c0,3.317,1.136,4.771,3.862,4.771,2.181,0,3.453-1.5,3.453-4.407v-.591c0-3.408-1.408-4.725-4.634-7.178-3.362-2.544-5.27-4.589-5.27-8.678v-.091c0-4.089,2.408-6.406,6.179-6.406,3.907,0,6.224,2.135,6.224,6.5v1H428v-1c0-2.953-1.318-3.953-3.362-3.953-2.09,0-3.271,1.227-3.271,3.68v.182c0,2.908,1.09,4.18,4.225,6.5,3.816,2.817,5.725,4.634,5.725,9.4v.636c0,4.816-2.59,7.088-6.406,7.088-4.407-.136-6.815-2.726-6.815-7.451" transform="translate(-228.143 -18.989)" fill="#fff"/>
      <path id="Path_4107" data-name="Path 4107" d="M456.8,56.145v-12.9c0-5.5,3.044-8.541,7.451-8.541,3.953,0,7,2,7,7.088v.454h-3v-.409c0-3.271-1.408-4.634-3.953-4.634-2.862,0-4.362,2.045-4.362,6V56.054c0,3.862,1.318,5.952,4.407,5.952,2.5,0,4.225-1.454,4.225-4.952v-.772h2.817V57.1c0,5.316-3,7.451-7.042,7.451-4.725.091-7.542-2.953-7.542-8.405" transform="translate(-249.26 -18.935)" fill="#fff"/>
      <path id="Path_4108" data-name="Path 4108" d="M510.531,56.2V43.16c0-3.589-1.454-5.861-4.5-5.861s-4.543,2.09-4.543,5.861V56.245c0,3.816,1.408,5.861,4.543,5.861,3,.045,4.5-2.226,4.5-5.906M498.4,56.29V43.205c0-5.407,3-8.405,7.633-8.405s7.633,3.044,7.633,8.36V56.2c0,5.452-3,8.5-7.633,8.5-4.68,0-7.633-3.044-7.633-8.405" transform="translate(-271.96 -18.989)" fill="#fff"/>
      <path id="Path_4109" data-name="Path 4109" d="M42.033,140.361c1.863,0,2.681-.954,2.681-3.408v-2.09c0-2.635-.818-3.271-2.817-3.271H40.534v8.723h1.5ZM41.9,127.413c1.817,0,2.5-.682,2.5-2.862v-1.817c0-2.226-.863-2.635-2.5-2.635H40.579v7.36H41.9ZM34.4,115.6h8.042c5.316,0,7.86,2.09,7.86,6.542v2.045c0,3.044-1.726,4.634-4.362,5.27,3.089.636,5.043,2.408,5.043,6.134v1.863c0,5.407-2.908,7.36-8.36,7.36H34.4Z" transform="translate(-18.771 -63.079)" fill="#fff"/>
      <path id="Path_4110" data-name="Path 4110" d="M95.783,115.6v21.445c0,5.679-3.18,8.223-8.587,8.223s-8.5-2.59-8.5-8.269V115.6h6.27v21.263c0,2.408.591,3.271,2.226,3.271,1.545,0,2.226-.863,2.226-3.317V115.6Z" transform="translate(-42.944 -63.079)" fill="#fff"/>
      <path id="Path_4111" data-name="Path 4111" d="M123.5,136.644v-.954h6.088v1.136c0,2.363.636,3.135,2.135,3.135,1.318,0,1.908-.818,1.908-2.681v-.318c0-2.59-1.408-3.453-4.044-5.134-3.816-2.408-5.815-4.589-5.815-9.4v-.182c0-4.861,2.862-7.542,7.86-7.542,4.952,0,7.769,2.408,7.815,7.542v.863h-5.906v-.954c0-2.09-.772-2.59-1.863-2.59-1.181,0-1.772.636-1.772,2.272v.182c0,2.09.909,2.817,3.408,4.543,3.453,2.226,6.452,3.953,6.452,9.677v.591c0,5.316-2.908,7.951-8.087,7.951-4.952,0-8.133-2.317-8.178-8.133" transform="translate(-67.39 -62.588)" fill="#fff"/>
      <rect id="Rectangle_702" data-name="Rectangle 702" width="6.315" height="29.214" transform="translate(76.237 52.521)" fill="#fff"/>
      <path id="Path_4112" data-name="Path 4112" d="M191.2,115.6h6.77l4.952,15.584V115.6h5.452v29.214h-5.952l-5.77-18.128v18.128H191.2Z" transform="translate(-104.331 -63.079)" fill="#fff"/>
      <path id="Path_4113" data-name="Path 4113" d="M238.3,115.6h13.221v4.952H244.57v6.542h5.5v4.68h-5.5v8.087h7.36v4.952H238.3Z" transform="translate(-130.032 -63.079)" fill="#fff"/>
      <path id="Path_4114" data-name="Path 4114" d="M274.7,136.644v-.954h6.088v1.136c0,2.363.636,3.135,2.135,3.135,1.318,0,1.908-.818,1.908-2.681v-.318c0-2.59-1.408-3.453-4.044-5.134-3.816-2.408-5.815-4.589-5.815-9.4v-.182c0-4.861,2.862-7.542,7.86-7.542,4.952,0,7.769,2.408,7.815,7.542v.863h-5.906v-.954c0-2.09-.772-2.59-1.863-2.59-1.181,0-1.772.636-1.772,2.272v.182c0,2.09.909,2.817,3.407,4.543,3.453,2.226,6.452,3.953,6.452,9.677v.591c0,5.316-2.908,7.951-8.087,7.951-4.952,0-8.133-2.317-8.178-8.133" transform="translate(-149.894 -62.588)" fill="#fff"/>
      <path id="Path_4115" data-name="Path 4115" d="M316.9,136.644v-.954h6.088v1.136c0,2.363.636,3.135,2.135,3.135,1.318,0,1.908-.818,1.908-2.681v-.318c0-2.59-1.408-3.453-4.044-5.134-3.816-2.408-5.815-4.589-5.815-9.4v-.182c0-4.861,2.862-7.542,7.86-7.542,4.952,0,7.769,2.408,7.815,7.542v.863h-5.906v-.954c0-2.09-.772-2.59-1.863-2.59-1.181,0-1.772.636-1.772,2.272v.182c0,2.09.909,2.817,3.408,4.543,3.453,2.226,6.452,3.953,6.452,9.677v.591c0,5.316-2.908,7.951-8.087,7.951-4.952,0-8.133-2.317-8.178-8.133" transform="translate(-172.921 -62.588)" fill="#fff"/>
      <path id="Path_4116" data-name="Path 4116" d="M376.68,120.552H372V115.6h15.629v4.952h-4.634l-.045,24.261h-6.27Z" transform="translate(-202.987 -63.079)" fill="#fff"/>
      <rect id="Rectangle_703" data-name="Rectangle 703" width="6.315" height="29.214" transform="translate(188.095 52.521)" fill="#fff"/>
      <path id="Path_4117" data-name="Path 4117" d="M437.5,115.6h7.633l2.908,14.72,2.817-14.72h7.769v29.214h-6.043V126.459l-3.953,18.355h-1.908l-4-18.355v18.355H437.5Z" transform="translate(-238.729 -63.079)" fill="#fff"/>
      <path id="Path_4118" data-name="Path 4118" d="M493.4,115.6h13.221v4.952H499.67v6.542h5.5v4.68h-5.5v8.087h7.36v4.952H493.4Z" transform="translate(-269.231 -63.079)" fill="#fff"/>
      <path id="Path_4119" data-name="Path 4119" d="M529.8,136.644v-.954h6.088v1.136c0,2.363.636,3.135,2.135,3.135,1.318,0,1.908-.818,1.908-2.681v-.318c0-2.59-1.408-3.453-4.044-5.134-3.816-2.408-5.815-4.589-5.815-9.4v-.182c0-4.861,2.862-7.542,7.86-7.542,4.952,0,7.769,2.408,7.815,7.542v.863h-5.906v-.954c0-2.09-.772-2.59-1.863-2.59-1.181,0-1.772.636-1.772,2.272v.182c0,2.09.909,2.817,3.408,4.543,3.453,2.226,6.452,3.953,6.452,9.677v.591c0,5.316-2.908,7.951-8.087,7.951-4.952,0-8.133-2.317-8.178-8.133" transform="translate(-289.093 -62.588)" fill="#fff"/>
    </g>
  </g>
</svg>
