<svg xmlns="http://www.w3.org/2000/svg" xmlns:xlink="http://www.w3.org/1999/xlink" width="210" height="176" viewBox="0 0 210 176">
  <defs>
    <clipPath id="clip-path">
      <rect id="Rectangle_825" data-name="Rectangle 825" width="210" height="176" transform="translate(0.284 -0.142)" fill="none"/>
    </clipPath>
  </defs>
  <g id="Group_805" data-name="Group 805" transform="translate(-0.284 0.142)">
    <g id="Group_804" data-name="Group 804" clip-path="url(#clip-path)">
      <path id="Path_5995" data-name="Path 5995" d="M106.912,113.29a5.427,5.427,0,0,1,3.873,1.28,5.131,5.131,0,0,1,1.357,3.9,8.81,8.81,0,0,1-.3,2.432,4.541,4.541,0,0,1-.945,1.784,4.084,4.084,0,0,1-1.632,1.105,6.516,6.516,0,0,1-2.348.382h-3.736V113.29Zm.123,9.667a6.078,6.078,0,0,0,.609-.038,3.421,3.421,0,0,0,.778-.183,3.522,3.522,0,0,0,.815-.419,2.753,2.753,0,0,0,.725-.747,4.181,4.181,0,0,0,.526-1.182,6.185,6.185,0,0,0,.206-1.715,7.29,7.29,0,0,0-.191-1.746,3.363,3.363,0,0,0-.624-1.311,2.758,2.758,0,0,0-1.122-.824,4.462,4.462,0,0,0-1.692-.282h-2.44v8.448Z" transform="translate(-28.26 -31.03)" fill="#ff8a2d"/>
      <path id="Path_5996" data-name="Path 5996" d="M123.715,124.737a3.578,3.578,0,0,1-2.226.671,4.048,4.048,0,0,1-1.639-.3,3.233,3.233,0,0,1-1.167-.854,3.627,3.627,0,0,1-.709-1.311,6.319,6.319,0,0,1-.267-1.662,4.737,4.737,0,0,1,.274-1.646,3.945,3.945,0,0,1,.77-1.3,3.494,3.494,0,0,1,1.174-.854,3.581,3.581,0,0,1,1.486-.3,3.24,3.24,0,0,1,1.746.434,3.468,3.468,0,0,1,1.113,1.106,4.37,4.37,0,0,1,.579,1.464,6.275,6.275,0,0,1,.129,1.51h-5.9a3.134,3.134,0,0,0,.122.984,2.228,2.228,0,0,0,.442.823,2.175,2.175,0,0,0,.778.571,2.679,2.679,0,0,0,1.112.213,2.243,2.243,0,0,0,1.35-.381,1.843,1.843,0,0,0,.693-1.159h1.281a3.15,3.15,0,0,1-1.144,2m-.312-5.062a2.231,2.231,0,0,0-.473-.709,2.257,2.257,0,0,0-.7-.473,2.231,2.231,0,0,0-.892-.175,2.267,2.267,0,0,0-.907.175,2.1,2.1,0,0,0-.694.481,2.3,2.3,0,0,0-.457.709,2.7,2.7,0,0,0-.2.861h4.529a2.652,2.652,0,0,0-.205-.869" transform="translate(-32.24 -32.094)" fill="#ff8a2d"/>
      <path id="Path_5997" data-name="Path 5997" d="M131.561,113.289v4.071h.03a1.939,1.939,0,0,1,1.007-.953,3.742,3.742,0,0,1,1.51-.3,3.564,3.564,0,0,1,1.593.335,3.25,3.25,0,0,1,1.128.908,4.016,4.016,0,0,1,.678,1.319,5.388,5.388,0,0,1,.229,1.585,5.563,5.563,0,0,1-.221,1.587,3.732,3.732,0,0,1-.671,1.3,3.156,3.156,0,0,1-1.128.877,3.661,3.661,0,0,1-1.578.32,3.9,3.9,0,0,1-.648-.061,3.583,3.583,0,0,1-.709-.2,2.736,2.736,0,0,1-.664-.374,2.087,2.087,0,0,1-.526-.587h-.03v1.052h-1.3V113.289Zm4.659,5.8a2.907,2.907,0,0,0-.442-.937,2.167,2.167,0,0,0-.762-.656,2.315,2.315,0,0,0-1.091-.244,2.141,2.141,0,0,0-1.86.938,2.829,2.829,0,0,0-.419.953,4.608,4.608,0,0,0,.007,2.2,2.776,2.776,0,0,0,.435.953,2.212,2.212,0,0,0,.77.663,2.4,2.4,0,0,0,1.143.252,2.216,2.216,0,0,0,1.121-.259,2.083,2.083,0,0,0,.724-.686,2.986,2.986,0,0,0,.4-.976,5.187,5.187,0,0,0,.122-1.129,4.033,4.033,0,0,0-.145-1.075" transform="translate(-35.68 -31.03)" fill="#ff8a2d"/>
      <path id="Path_5998" data-name="Path 5998" d="M144.443,117.356v1.662h.031a3.516,3.516,0,0,1,1.159-1.418,2.918,2.918,0,0,1,1.738-.427v1.373a3.65,3.65,0,0,0-1.327.213,2.09,2.09,0,0,0-.884.624,2.593,2.593,0,0,0-.488,1,5.387,5.387,0,0,0-.152,1.349v3.507h-1.3v-7.883Z" transform="translate(-39.229 -32.093)" fill="#ff8a2d"/>
      <path id="Path_5999" data-name="Path 5999" d="M157.731,125.207a1.809,1.809,0,0,1-.93.2,1.117,1.117,0,0,1-.8-.282,1.227,1.227,0,0,1-.3-.923,3.106,3.106,0,0,1-1.242.923,4.3,4.3,0,0,1-2.546.16,2.354,2.354,0,0,1-.831-.381,1.83,1.83,0,0,1-.556-.679,2.279,2.279,0,0,1-.206-1.014,2.316,2.316,0,0,1,.229-1.1,2,2,0,0,1,.6-.694,2.78,2.78,0,0,1,.855-.4q.48-.137.983-.229.534-.107,1.014-.16a5.553,5.553,0,0,0,.846-.152,1.393,1.393,0,0,0,.579-.29.706.706,0,0,0,.213-.556,1.287,1.287,0,0,0-.16-.686,1.1,1.1,0,0,0-.412-.4,1.675,1.675,0,0,0-.563-.183,4.275,4.275,0,0,0-.618-.046,2.741,2.741,0,0,0-1.372.312,1.328,1.328,0,0,0-.595,1.182h-1.3a2.8,2.8,0,0,1,.3-1.235,2.313,2.313,0,0,1,.732-.816,3.08,3.08,0,0,1,1.045-.449,5.508,5.508,0,0,1,1.258-.137,7.367,7.367,0,0,1,1.059.076,2.756,2.756,0,0,1,.953.312,1.822,1.822,0,0,1,.686.661,2.113,2.113,0,0,1,.259,1.11v4.047a3.018,3.018,0,0,0,.053.669c.036.143.155.213.359.213a1.284,1.284,0,0,0,.4-.076Zm-2.1-4.053a1.6,1.6,0,0,1-.64.266q-.4.084-.831.138t-.877.122a3.193,3.193,0,0,0-.793.221,1.435,1.435,0,0,0-.571.434,1.22,1.22,0,0,0-.221.77,1.059,1.059,0,0,0,.13.542,1.072,1.072,0,0,0,.335.358,1.391,1.391,0,0,0,.48.2,2.665,2.665,0,0,0,.579.061,3.07,3.07,0,0,0,1.1-.176,2.3,2.3,0,0,0,.747-.441,1.751,1.751,0,0,0,.427-.579,1.467,1.467,0,0,0,.137-.587Z" transform="translate(-41.173 -32.094)" fill="#ff8a2d"/>
      <path id="Path_6000" data-name="Path 6000" d="M174.7,113.289a3.587,3.587,0,0,1,2.432.762,2.624,2.624,0,0,1,.876,2.089,3.3,3.3,0,0,1-.449,1.739,2.321,2.321,0,0,1-1.441,1.022v.03a1.922,1.922,0,0,1,.77.3,1.691,1.691,0,0,1,.473.51,2.35,2.35,0,0,1,.258.664,7.156,7.156,0,0,1,.13.762c.02.264.036.533.045.807a7.168,7.168,0,0,0,.077.808,4.944,4.944,0,0,0,.175.755,1.884,1.884,0,0,0,.343.632h-1.616a.909.909,0,0,1-.2-.457,4.488,4.488,0,0,1-.069-.648c-.011-.239-.02-.5-.031-.77a5.312,5.312,0,0,0-.091-.808q-.061-.4-.153-.754a1.757,1.757,0,0,0-.29-.625,1.431,1.431,0,0,0-.518-.427,1.918,1.918,0,0,0-.854-.16h-3.537v4.651h-1.449V113.289Zm.306,4.94a2.09,2.09,0,0,0,.8-.3,1.617,1.617,0,0,0,.548-.6,1.993,1.993,0,0,0,.206-.968,1.952,1.952,0,0,0-.458-1.341,1.876,1.876,0,0,0-1.479-.519h-3.6v3.8h3.018a5.854,5.854,0,0,0,.961-.076" transform="translate(-46.447 -31.03)" fill="#ff8a2d"/>
      <rect id="Rectangle_822" data-name="Rectangle 822" width="1.693" height="1.693" transform="translate(134.108 91.454)" fill="#ff8a2d"/>
      <path id="Path_6001" data-name="Path 6001" d="M92.306,137.679a3.074,3.074,0,0,0-1.852-.526,4.431,4.431,0,0,0-.9.091,2.387,2.387,0,0,0-.785.3,1.612,1.612,0,0,0-.549.571,1.771,1.771,0,0,0-.206.892,1.136,1.136,0,0,0,.3.816,2.2,2.2,0,0,0,.793.51,6.6,6.6,0,0,0,1.12.328q.626.13,1.274.282t1.274.359a4.187,4.187,0,0,1,1.12.557,2.646,2.646,0,0,1,.793.884,3.1,3.1,0,0,1-.091,2.829,3.209,3.209,0,0,1-1,1.006,4.344,4.344,0,0,1-1.364.564,6.661,6.661,0,0,1-1.5.175A6.382,6.382,0,0,1,89,147.095a4.288,4.288,0,0,1-1.433-.694,3.289,3.289,0,0,1-.976-1.189,3.827,3.827,0,0,1-.359-1.715H87.6a2.458,2.458,0,0,0,.267,1.181,2.428,2.428,0,0,0,.7.816,2.957,2.957,0,0,0,1.014.472,4.627,4.627,0,0,0,1.19.152,5.409,5.409,0,0,0,.983-.091,2.888,2.888,0,0,0,.892-.313,1.673,1.673,0,0,0,.884-1.577,1.368,1.368,0,0,0-.3-.916,2.193,2.193,0,0,0-.793-.571,5.818,5.818,0,0,0-1.12-.358q-.626-.137-1.274-.282t-1.273-.335a4.6,4.6,0,0,1-1.121-.5,2.406,2.406,0,0,1-.793-.809,2.378,2.378,0,0,1-.3-1.242,2.885,2.885,0,0,1,.336-1.425,2.924,2.924,0,0,1,.892-.991,4.021,4.021,0,0,1,1.266-.58,5.614,5.614,0,0,1,1.457-.19,5.846,5.846,0,0,1,1.555.2,3.542,3.542,0,0,1,1.258.625,3.017,3.017,0,0,1,.854,1.075,3.851,3.851,0,0,1,.343,1.547H93.152a2.27,2.27,0,0,0-.847-1.7" transform="translate(-23.618 -37.232)" fill="#ff8a2d"/>
      <path id="Path_6002" data-name="Path 6002" d="M105.586,141.729a1.967,1.967,0,0,0-1.311-.412,2.417,2.417,0,0,0-1.174.259,2.091,2.091,0,0,0-.754.685,2.881,2.881,0,0,0-.4.984,5.37,5.37,0,0,0-.122,1.152,4.384,4.384,0,0,0,.13,1.067,2.836,2.836,0,0,0,.4.922,2.048,2.048,0,0,0,.717.648,2.146,2.146,0,0,0,1.052.244,2.123,2.123,0,0,0,1.5-.5,2.276,2.276,0,0,0,.663-1.418h1.327a3.63,3.63,0,0,1-1.09,2.256,3.424,3.424,0,0,1-2.387.794,4.115,4.115,0,0,1-1.593-.29,3.093,3.093,0,0,1-1.16-.823,3.544,3.544,0,0,1-.7-1.274,5.287,5.287,0,0,1-.237-1.624,5.791,5.791,0,0,1,.229-1.655,3.826,3.826,0,0,1,.693-1.342,3.254,3.254,0,0,1,1.167-.9,3.816,3.816,0,0,1,1.632-.329,4.792,4.792,0,0,1,1.258.16,3.088,3.088,0,0,1,1.038.5,2.707,2.707,0,0,1,.739.847,3.114,3.114,0,0,1,.366,1.212h-1.342a1.975,1.975,0,0,0-.64-1.159" transform="translate(-27.513 -38.394)" fill="#ff8a2d"/>
      <path id="Path_6003" data-name="Path 6003" d="M114.237,136.289v4.163h.03a1.717,1.717,0,0,1,.427-.617,2.439,2.439,0,0,1,.617-.412,3.285,3.285,0,0,1,.717-.236,3.617,3.617,0,0,1,.724-.076,3.421,3.421,0,0,1,1.3.213,2.131,2.131,0,0,1,.839.595,2.214,2.214,0,0,1,.449.908,4.838,4.838,0,0,1,.13,1.166v5.184h-1.3V141.84a1.566,1.566,0,0,0-.427-1.16,1.587,1.587,0,0,0-1.174-.427,2.646,2.646,0,0,0-1.03.183,1.929,1.929,0,0,0-.724.518,2.235,2.235,0,0,0-.434.786,3.169,3.169,0,0,0-.145.983v4.452h-1.3V136.289Z" transform="translate(-30.935 -37.33)" fill="#ff8a2d"/>
      <path id="Path_6004" data-name="Path 6004" d="M124.9,142.683a3.682,3.682,0,0,1,.732-1.312,3.447,3.447,0,0,1,1.2-.876,4.415,4.415,0,0,1,3.3,0,3.462,3.462,0,0,1,1.2.876,3.682,3.682,0,0,1,.732,1.312,5.245,5.245,0,0,1,.244,1.624,5.178,5.178,0,0,1-.244,1.616,3.691,3.691,0,0,1-.732,1.3,3.39,3.39,0,0,1-1.2.869,4.51,4.51,0,0,1-3.3,0,3.376,3.376,0,0,1-1.2-.869,3.691,3.691,0,0,1-.732-1.3,5.178,5.178,0,0,1-.244-1.616,5.245,5.245,0,0,1,.244-1.624m1.319,2.9a2.66,2.66,0,0,0,.526.929,2.266,2.266,0,0,0,.786.572,2.39,2.39,0,0,0,1.906,0,2.264,2.264,0,0,0,.785-.572,2.661,2.661,0,0,0,.526-.929,4.342,4.342,0,0,0,0-2.547,2.747,2.747,0,0,0-.526-.937,2.248,2.248,0,0,0-.785-.579,2.39,2.39,0,0,0-1.906,0,2.25,2.25,0,0,0-.786.579,2.746,2.746,0,0,0-.526.937,4.343,4.343,0,0,0,0,2.547" transform="translate(-34.144 -38.394)" fill="#ff8a2d"/>
      <path id="Path_6005" data-name="Path 6005" d="M143.351,147.737a3.578,3.578,0,0,1-2.226.671,4.047,4.047,0,0,1-1.639-.3,3.233,3.233,0,0,1-1.167-.854,3.627,3.627,0,0,1-.709-1.311,6.319,6.319,0,0,1-.267-1.662,4.736,4.736,0,0,1,.274-1.646,3.945,3.945,0,0,1,.77-1.3,3.494,3.494,0,0,1,1.174-.854,3.581,3.581,0,0,1,1.486-.3,3.24,3.24,0,0,1,1.746.434,3.468,3.468,0,0,1,1.113,1.106,4.37,4.37,0,0,1,.579,1.464,6.276,6.276,0,0,1,.129,1.51h-5.9a3.133,3.133,0,0,0,.122.984,2.227,2.227,0,0,0,.442.823,2.176,2.176,0,0,0,.778.571,2.679,2.679,0,0,0,1.112.213,2.243,2.243,0,0,0,1.35-.381,1.843,1.843,0,0,0,.693-1.159h1.281a3.15,3.15,0,0,1-1.144,2m-.312-5.062a2.231,2.231,0,0,0-.473-.709,2.257,2.257,0,0,0-.7-.473,2.231,2.231,0,0,0-.892-.175,2.267,2.267,0,0,0-.907.175,2.1,2.1,0,0,0-.694.481,2.3,2.3,0,0,0-.457.709,2.7,2.7,0,0,0-.2.861h4.529a2.651,2.651,0,0,0-.205-.869" transform="translate(-37.618 -38.394)" fill="#ff8a2d"/>
      <path id="Path_6006" data-name="Path 6006" d="M151.058,140.357v1.251h.031a2.728,2.728,0,0,1,2.562-1.434,3.435,3.435,0,0,1,1.3.213,2.138,2.138,0,0,1,.839.595,2.214,2.214,0,0,1,.449.908,4.844,4.844,0,0,1,.13,1.167v5.184h-1.3V142.9a1.568,1.568,0,0,0-.427-1.16,1.59,1.59,0,0,0-1.174-.427,2.646,2.646,0,0,0-1.03.183,1.928,1.928,0,0,0-.724.518,2.23,2.23,0,0,0-.434.786,3.171,3.171,0,0,0-.145.984v4.452h-1.3v-7.883Z" transform="translate(-41.041 -38.394)" fill="#ff8a2d"/>
      <path id="Path_6007" data-name="Path 6007" d="M163.5,136.289v4.071h.031a1.939,1.939,0,0,1,1.007-.953,3.742,3.742,0,0,1,1.51-.3,3.564,3.564,0,0,1,1.593.335,3.25,3.25,0,0,1,1.128.908,4.015,4.015,0,0,1,.678,1.319,5.387,5.387,0,0,1,.229,1.585,5.563,5.563,0,0,1-.221,1.587,3.732,3.732,0,0,1-.671,1.3,3.156,3.156,0,0,1-1.128.877,3.661,3.661,0,0,1-1.578.32,3.9,3.9,0,0,1-.648-.061,3.583,3.583,0,0,1-.709-.2,2.736,2.736,0,0,1-.664-.374,2.087,2.087,0,0,1-.526-.587H163.5v1.052h-1.3V136.289Zm4.659,5.8a2.906,2.906,0,0,0-.442-.937,2.167,2.167,0,0,0-.762-.656,2.314,2.314,0,0,0-1.091-.244,2.141,2.141,0,0,0-1.86.938,2.829,2.829,0,0,0-.419.953,4.608,4.608,0,0,0,.007,2.2,2.775,2.775,0,0,0,.435.953,2.212,2.212,0,0,0,.77.663,2.4,2.4,0,0,0,1.143.252,2.215,2.215,0,0,0,1.121-.259,2.082,2.082,0,0,0,.724-.686,2.986,2.986,0,0,0,.4-.976,5.187,5.187,0,0,0,.122-1.129,4.033,4.033,0,0,0-.145-1.075" transform="translate(-44.429 -37.33)" fill="#ff8a2d"/>
      <path id="Path_6008" data-name="Path 6008" d="M180.646,147.737a3.578,3.578,0,0,1-2.226.671,4.047,4.047,0,0,1-1.639-.3,3.232,3.232,0,0,1-1.167-.854,3.627,3.627,0,0,1-.709-1.311,6.319,6.319,0,0,1-.267-1.662,4.737,4.737,0,0,1,.274-1.646,3.945,3.945,0,0,1,.77-1.3,3.494,3.494,0,0,1,1.174-.854,3.581,3.581,0,0,1,1.486-.3,3.24,3.24,0,0,1,1.746.434,3.468,3.468,0,0,1,1.113,1.106,4.37,4.37,0,0,1,.579,1.464,6.275,6.275,0,0,1,.129,1.51h-5.9a3.134,3.134,0,0,0,.122.984,2.228,2.228,0,0,0,.442.823,2.175,2.175,0,0,0,.778.571,2.679,2.679,0,0,0,1.112.213,2.243,2.243,0,0,0,1.35-.381,1.843,1.843,0,0,0,.693-1.159h1.281a3.15,3.15,0,0,1-1.144,2m-.312-5.062a2.231,2.231,0,0,0-.473-.709,2.256,2.256,0,0,0-.7-.473,2.231,2.231,0,0,0-.892-.175,2.267,2.267,0,0,0-.907.175,2.1,2.1,0,0,0-.694.481,2.3,2.3,0,0,0-.457.709,2.7,2.7,0,0,0-.2.861h4.529a2.652,2.652,0,0,0-.205-.869" transform="translate(-47.834 -38.394)" fill="#ff8a2d"/>
      <path id="Path_6009" data-name="Path 6009" d="M188.29,140.356v1.662h.031a3.516,3.516,0,0,1,1.159-1.418,2.918,2.918,0,0,1,1.738-.427v1.373a3.65,3.65,0,0,0-1.327.213,2.09,2.09,0,0,0-.884.624,2.593,2.593,0,0,0-.488,1,5.387,5.387,0,0,0-.152,1.349v3.507h-1.3v-7.883Z" transform="translate(-51.239 -38.393)" fill="#ff8a2d"/>
      <path id="Path_6010" data-name="Path 6010" d="M199.923,150.467a3.605,3.605,0,0,1-2.775.96,5.366,5.366,0,0,1-1.121-.122,3.433,3.433,0,0,1-1.037-.4,2.42,2.42,0,0,1-.77-.716,2.045,2.045,0,0,1-.336-1.083h1.3a.954.954,0,0,0,.221.594,1.6,1.6,0,0,0,.5.4,2.407,2.407,0,0,0,.648.221,3.488,3.488,0,0,0,.671.068,2.408,2.408,0,0,0,1.083-.221,2.045,2.045,0,0,0,.732-.61,2.527,2.527,0,0,0,.419-.937,5.247,5.247,0,0,0,.129-1.2V146.9h-.03a2.177,2.177,0,0,1-1.014,1.075,3.149,3.149,0,0,1-1.441.343,3.478,3.478,0,0,1-1.541-.321,3.21,3.21,0,0,1-1.1-.861,3.658,3.658,0,0,1-.664-1.266,5.22,5.22,0,0,1-.221-1.533,5.991,5.991,0,0,1,.183-1.441,3.941,3.941,0,0,1,.611-1.343,3.34,3.34,0,0,1,1.128-.99,3.516,3.516,0,0,1,1.724-.389,2.912,2.912,0,0,1,1.372.328,2.306,2.306,0,0,1,.975.984h.015v-1.129h1.221v7.213a4.158,4.158,0,0,1-.884,2.9m-1.655-3.546a2.127,2.127,0,0,0,.725-.7,3.2,3.2,0,0,0,.4-.983,4.764,4.764,0,0,0,.129-1.1,4.315,4.315,0,0,0-.122-1.021,2.835,2.835,0,0,0-.388-.908,2.033,2.033,0,0,0-.693-.648,2.066,2.066,0,0,0-1.037-.244,2.244,2.244,0,0,0-1.067.236,2.085,2.085,0,0,0-.725.633,2.7,2.7,0,0,0-.412.915,4.457,4.457,0,0,0-.129,1.083,5.365,5.365,0,0,0,.107,1.067,3.021,3.021,0,0,0,.365.969,2.061,2.061,0,0,0,.687.7,1.977,1.977,0,0,0,1.067.266,2.1,2.1,0,0,0,1.09-.266" transform="translate(-53.022 -38.394)" fill="#ff8a2d"/>
      <path id="Path_6011" data-name="Path 6011" d="M49.57,24.191a3.079,3.079,0,0,1,2.085.653,2.253,2.253,0,0,1,.752,1.791,2.842,2.842,0,0,1-.386,1.491A1.987,1.987,0,0,1,50.785,29v.025a1.677,1.677,0,0,1,.661.261,1.423,1.423,0,0,1,.4.439,1.951,1.951,0,0,1,.223.568,6.022,6.022,0,0,1,.11.654c.018.227.03.457.04.693a6.033,6.033,0,0,0,.065.693,4.262,4.262,0,0,0,.15.646,1.58,1.58,0,0,0,.294.543H51.348a.779.779,0,0,1-.176-.393,3.9,3.9,0,0,1-.059-.555c-.009-.2-.018-.425-.026-.66a4.545,4.545,0,0,0-.078-.693c-.036-.227-.078-.443-.131-.647a1.5,1.5,0,0,0-.248-.536,1.234,1.234,0,0,0-.445-.366,1.646,1.646,0,0,0-.731-.138H46.421v3.987H45.179V24.191Zm.261,4.235a1.806,1.806,0,0,0,.685-.256,1.386,1.386,0,0,0,.471-.51,1.711,1.711,0,0,0,.176-.829,1.676,1.676,0,0,0-.392-1.15,1.611,1.611,0,0,0-1.268-.445H46.421v3.255h2.588a5,5,0,0,0,.823-.065" transform="translate(-12.375 -6.626)" fill="#898989"/>
      <path id="Path_6012" data-name="Path 6012" d="M63.1,34.407a1.555,1.555,0,0,1-.8.172.956.956,0,0,1-.686-.242,1.049,1.049,0,0,1-.255-.79,2.656,2.656,0,0,1-1.065.79,3.521,3.521,0,0,1-1.314.242,3.485,3.485,0,0,1-.869-.1,2.008,2.008,0,0,1-.712-.327,1.569,1.569,0,0,1-.477-.582,1.956,1.956,0,0,1-.176-.868,1.988,1.988,0,0,1,.2-.942,1.724,1.724,0,0,1,.516-.595,2.362,2.362,0,0,1,.733-.346c.274-.078.555-.143.842-.2.3-.061.595-.106.869-.137a4.842,4.842,0,0,0,.725-.131,1.208,1.208,0,0,0,.5-.248.609.609,0,0,0,.183-.477,1.106,1.106,0,0,0-.138-.587.943.943,0,0,0-.353-.341,1.43,1.43,0,0,0-.484-.157,3.652,3.652,0,0,0-.529-.039,2.349,2.349,0,0,0-1.176.268,1.138,1.138,0,0,0-.51,1.013H57.014a2.4,2.4,0,0,1,.261-1.059,1.982,1.982,0,0,1,.627-.7,2.632,2.632,0,0,1,.9-.386,4.728,4.728,0,0,1,1.078-.118,6.223,6.223,0,0,1,.908.066,2.358,2.358,0,0,1,.817.267,1.564,1.564,0,0,1,.589.567,1.818,1.818,0,0,1,.221.952v3.469a2.589,2.589,0,0,0,.046.574c.03.122.133.182.308.182a1.079,1.079,0,0,0,.339-.065Zm-1.8-3.474a1.372,1.372,0,0,1-.549.229c-.227.048-.464.088-.712.118s-.5.065-.751.1a2.792,2.792,0,0,0-.68.19,1.231,1.231,0,0,0-.49.373,1.04,1.04,0,0,0-.19.66.9.9,0,0,0,.111.463.926.926,0,0,0,.288.307,1.193,1.193,0,0,0,.412.171,2.331,2.331,0,0,0,.5.052,2.616,2.616,0,0,0,.941-.15,1.972,1.972,0,0,0,.64-.379,1.5,1.5,0,0,0,.366-.5,1.253,1.253,0,0,0,.118-.5Z" transform="translate(-15.545 -7.538)" fill="#898989"/>
      <path id="Path_6013" data-name="Path 6013" d="M69.54,26.973v.98H68.194v4.2a1.212,1.212,0,0,0,.033.314.323.323,0,0,0,.124.183.549.549,0,0,0,.255.085,3.9,3.9,0,0,0,.425.02h.509v.98h-.85a4.059,4.059,0,0,1-.738-.059,1.092,1.092,0,0,1-.5-.216.924.924,0,0,1-.281-.445,2.561,2.561,0,0,1-.091-.758v-4.3h-1.15v-.98h1.15V24.947h1.111v2.026Z" transform="translate(-18.059 -6.833)" fill="#898989"/>
      <path id="Path_6014" data-name="Path 6014" d="M77.238,34a3.067,3.067,0,0,1-1.908.575,3.473,3.473,0,0,1-1.405-.262,2.77,2.77,0,0,1-1-.732,3.106,3.106,0,0,1-.608-1.123,5.421,5.421,0,0,1-.229-1.425,4.053,4.053,0,0,1,.236-1.412,3.367,3.367,0,0,1,.659-1.111,3,3,0,0,1,1.006-.732,3.073,3.073,0,0,1,1.274-.261,2.772,2.772,0,0,1,1.5.373,2.957,2.957,0,0,1,.954.947,3.755,3.755,0,0,1,.5,1.255,5.374,5.374,0,0,1,.111,1.293H73.265a2.7,2.7,0,0,0,.1.843,1.913,1.913,0,0,0,.379.706,1.879,1.879,0,0,0,.667.49,2.3,2.3,0,0,0,.954.183,1.922,1.922,0,0,0,1.157-.327,1.578,1.578,0,0,0,.595-.993h1.1A2.7,2.7,0,0,1,77.238,34m-.268-4.34a1.912,1.912,0,0,0-.405-.608,1.936,1.936,0,0,0-.6-.405,1.912,1.912,0,0,0-.764-.15,1.948,1.948,0,0,0-.778.15,1.807,1.807,0,0,0-.595.412,1.965,1.965,0,0,0-.392.608,2.305,2.305,0,0,0-.17.738h3.882a2.273,2.273,0,0,0-.176-.745" transform="translate(-19.745 -7.538)" fill="#898989"/>
      <path id="Path_6015" data-name="Path 6015" d="M87.048,33.523v-.915h-.026a1.636,1.636,0,0,1-.863.81,3.29,3.29,0,0,1-1.293.248,3.051,3.051,0,0,1-1.367-.288,2.8,2.8,0,0,1-.966-.77,3.36,3.36,0,0,1-.582-1.124,4.619,4.619,0,0,1-.2-1.359,4.767,4.767,0,0,1,.19-1.359,3.188,3.188,0,0,1,.575-1.117,2.762,2.762,0,0,1,.967-.758,3.076,3.076,0,0,1,1.353-.282,3.287,3.287,0,0,1,.561.053,2.776,2.776,0,0,1,.6.176,2.533,2.533,0,0,1,.569.327,1.787,1.787,0,0,1,.451.5h.026V24.191h1.11v9.332Zm-3.993-2.4a2.474,2.474,0,0,0,.378.8,1.868,1.868,0,0,0,.654.563,1.984,1.984,0,0,0,.934.209,1.841,1.841,0,0,0,1.595-.8,2.429,2.429,0,0,0,.359-.817,3.944,3.944,0,0,0-.006-1.889,2.391,2.391,0,0,0-.372-.817,1.9,1.9,0,0,0-.66-.569,2.056,2.056,0,0,0-.98-.216,1.9,1.9,0,0,0-.954.222,1.771,1.771,0,0,0-.628.588,2.56,2.56,0,0,0-.339.836,4.45,4.45,0,0,0-.1.967,3.457,3.457,0,0,0,.124.922" transform="translate(-22.393 -6.626)" fill="#898989"/>
      <path id="Path_6016" data-name="Path 6016" d="M99.1,24.191v3.49h.026a1.663,1.663,0,0,1,.863-.817,3.22,3.22,0,0,1,1.294-.256,3.048,3.048,0,0,1,1.366.288,2.778,2.778,0,0,1,.967.778A3.441,3.441,0,0,1,104.2,28.8a4.619,4.619,0,0,1,.2,1.359,4.767,4.767,0,0,1-.19,1.359,3.213,3.213,0,0,1-.575,1.117,2.709,2.709,0,0,1-.967.752,3.138,3.138,0,0,1-1.353.274,3.332,3.332,0,0,1-.555-.052,3.106,3.106,0,0,1-.608-.17,2.37,2.37,0,0,1-.568-.32,1.79,1.79,0,0,1-.451-.5H99.1v.9H97.991V24.191Zm3.993,4.973a2.487,2.487,0,0,0-.379-.8,1.864,1.864,0,0,0-.653-.562,1.984,1.984,0,0,0-.934-.209,1.834,1.834,0,0,0-1.595.8,2.441,2.441,0,0,0-.359.816A3.96,3.96,0,0,0,99.18,31.1a2.377,2.377,0,0,0,.372.817,1.9,1.9,0,0,0,.66.569,2.06,2.06,0,0,0,.98.216,1.885,1.885,0,0,0,.961-.223,1.778,1.778,0,0,0,.621-.587,2.575,2.575,0,0,0,.34-.836,4.44,4.44,0,0,0,.1-.967,3.455,3.455,0,0,0-.124-.921" transform="translate(-26.84 -6.626)" fill="#898989"/>
      <path id="Path_6017" data-name="Path 6017" d="M110.988,35.4a7.113,7.113,0,0,1-.386.836,2.278,2.278,0,0,1-.418.556,1.422,1.422,0,0,1-.51.314,1.973,1.973,0,0,1-.646.1,2.947,2.947,0,0,1-.392-.025,1.858,1.858,0,0,1-.38-.091V36.062a1.925,1.925,0,0,0,.333.111,1.453,1.453,0,0,0,.321.046.955.955,0,0,0,.569-.163.993.993,0,0,0,.346-.464l.457-1.137L107.6,27.737h1.254l1.974,5.528h.026l1.9-5.528h1.176Z" transform="translate(-29.473 -7.597)" fill="#898989"/>
      <path id="Path_6018" data-name="Path 6018" d="M191.532,63.722c-.015-.382-.309-.378-.579-.38-.818-.005-1.637-.012-2.456,0-.289.005-.688-.1-.738.349-.041.375-.144.815.43.96a.553.553,0,0,1,.391.622,6.042,6.042,0,0,1-.1,1.186c-.468,2.041-.885,4.094-1.395,6.124-.133.53-.073,1.181-.641,1.678-.564-2.934-1.114-5.764-1.65-8.6a.809.809,0,0,1,.717-1.061c.486-.089.461-.453.46-.818,0-.416-.281-.446-.587-.446l-7.967,0c-.314,0-.59.065-.64.429-.047.338-.062.7.363.815.535.149.6.518.517.981-.408,2.257-.825,4.513-1.218,6.773-.2,1.178-.392,2.358-.7,3.546a.747.747,0,0,1-.248-.576c-.306-1.671-.62-3.342-.919-5.014q-.407-2.279-.787-4.562c-.087-.516-.076-1,.6-1.1.489-.068.586-.375.565-.807-.024-.5-.381-.479-.709-.481q-2.39-.012-4.78,0c-.3,0-.654-.047-.687.417-.028.39-.048.765.469.869a.694.694,0,0,1,.537.455,6.86,6.86,0,0,1,.549,3.236c-.441,2.562-.969,5.109-1.462,7.663l-.129.023c-.256-1.494-.5-2.991-.771-4.483-.347-1.933-.738-3.857-1-5.8-.081-.586-.009-.974.629-1.157.385-.11.3-.5.288-.8s-.19-.422-.484-.422c-1.727,0-3.453,0-5.179,0-.285,0-.476.119-.455.435s-.12.772.342.813c.8.071.95.65,1.073,1.229.273,1.294.5,2.6.773,3.893.684,3.283,1.32,6.576,1.942,9.871a.836.836,0,0,0,.916.81c.73.005,1.461.007,2.191.012.394,0,.628-.16.64-.584a4.268,4.268,0,0,1,.074-.59c.261-1.544.638-3.064.935-4.6a4.105,4.105,0,0,1,.712-2.149c.412,2.052.774,3.97,1.185,5.877.47,2.185-.037,2.03,2.427,2.04,1.39.005,1.39,0,1.657-1.327.561-2.788,1.115-5.579,1.684-8.365.354-1.73.73-3.456,1.1-5.182.08-.372.15-.769.649-.789.538-.022.656.42.747.789.571,2.334,1.109,4.678,1.666,7.016.614,2.578,1.226,5.155,1.863,7.726a2.232,2.232,0,0,1-.048,1.424c-.8,2.011-1.517,4.055-2.483,6-.249.5-.146.675.423.69.685.017,1.372-.011,2.058.015.405.015.581-.136.677-.536.49-2.039,1.019-4.068,1.519-6.1q1.165-4.754,2.311-9.515.8-3.314,1.616-6.627a1.2,1.2,0,0,1,.81-1.035c.426-.126.327-.524.314-.847" transform="translate(-44.305 -17.348)" fill="#898989"/>
      <path id="Path_6019" data-name="Path 6019" d="M87.765,65.121a3.5,3.5,0,0,0-5.771-1.3c-.313.28-.42,1-.849.834-.311-.119-.094-.806-.11-1.239s-.21-.553-.595-.368c-1.273.614-2.544,1.233-3.818,1.844-.255.123-.4.3-.28.577s.176.606.591.622c.966.038.968.046.969,1.022q0,4.843,0,9.687h.007c0,3.251-.009,6.5.008,9.753,0,.569-.161.953-.749,1.059-.531.1-.293.512-.337.8-.052.333.2.388.462.412,1.521.143,3.045-.037,4.567.036.222.011.531-.028.517-.377-.013-.329.168-.777-.311-.905-.59-.158-.654-.563-.653-1.064.005-1.924-.007-3.848-.005-5.772,0-.789.054-.812.783-.573a3.988,3.988,0,0,0,3.732-.435,7,7,0,0,0,2.556-4.487A22.5,22.5,0,0,0,88.72,69.7a12.028,12.028,0,0,0-.955-4.576M84.641,76.726a7.166,7.166,0,0,1-.364,1.065,1.161,1.161,0,0,1-1.027.819,1.409,1.409,0,0,1-1.4-.707,3.465,3.465,0,0,1-.515-1.759c0-2.324-.036-4.648.01-6.972a6.681,6.681,0,0,1,.754-3c.27-.513.641-1.017,1.31-.966.735.057,1,.661,1.2,1.262a11.61,11.61,0,0,1,.4,2.614c.085.9.1,1.807.16,2.854a30.055,30.055,0,0,1-.534,4.786" transform="translate(-20.898 -17.202)" fill="#898989"/>
      <path id="Path_6020" data-name="Path 6020" d="M70.926,78.724c-.776-.039-.773-.569-.771-1.128q.007-3.418,0-6.835,0-3.484,0-6.968c0-.861-.1-.931-.917-.578-1.237.537-2.468,1.083-3.7,1.623-.291.127-.6.221-.438.658.132.354.2.757.739.637s.8.131.8.662c0,2.787.028,5.574-.026,8.36a3.388,3.388,0,0,1-1.094,2.68,1.091,1.091,0,0,1-1.883-.559,6.03,6.03,0,0,1-.156-1.644q0-5.973,0-11.946c0-.746-.059-.791-.753-.5-1.279.545-2.552,1.105-3.824,1.667-.274.121-.63.216-.433.657.163.368.3.787.847.573.452-.176.614.06.653.457.02.2.014.4.014.6,0,2.9-.036,5.8,0,8.693a6.034,6.034,0,0,0,.593,3.018,3.57,3.57,0,0,0,5.675.46c.184-.2.352-.595.627-.5.306.1.107.507.15.776a.5.5,0,0,1,0,.132c-.061.5.16.7.651.627.589-.089,1.176-.2,1.767-.262a7.406,7.406,0,0,0,1.433-.237c.314-.1.376-.321.357-.621-.016-.237-.031-.487-.311-.5" transform="translate(-15.999 -17.26)" fill="#898989"/>
      <path id="Path_6021" data-name="Path 6021" d="M141.513,72.346c-.352.008-.816-.283-.852.428a3.355,3.355,0,0,1-.288,1.08,1.989,1.989,0,0,1-1.446,1.328,9.413,9.413,0,0,1-1.97.215c-.5,0-.714-.15-.714-.685q.017-10.655,0-21.31c0-.547.225-.876.764-.854.627.025.573-.363.6-.775.029-.532-.315-.533-.688-.572-.993-.1-1.988-.068-2.982-.073-.775,0-1.549-.017-2.324.007-.354.012-.65.149-.612.606.03.362-.094.778.51.8.666.023.816.488.816,1.06q0,10.422.006,20.846c0,.592-.151,1.04-.852,1.092-.634.047-.418.56-.46.918-.044.377.176.465.516.518.884.139,1.766-.023,2.64.03,1.306.077,2.61.075,3.91.025a5.214,5.214,0,0,1,2.2.25c1.052.412,1.339.186,1.428-.935.012-.154.04-.306.058-.46.112-.964.217-1.93.338-2.894.058-.467-.149-.651-.6-.641" transform="translate(-35.88 -14.002)" fill="#898989"/>
      <path id="Path_6022" data-name="Path 6022" d="M158.033,78.624c-.715,0-.755-.479-.757-.987-.007-1.747,0-3.494,0-5.671-.145-1.749.216-3.941-.228-6.117a3.588,3.588,0,0,0-3.619-3.042A6.868,6.868,0,0,0,149,64.484c-.314.252-.622.457-.268.9.319.4.6.788,1.162.3a4.063,4.063,0,0,1,1.693-.879,1.545,1.545,0,0,1,1.932,1.215,10.434,10.434,0,0,1,.245,2.362c.029.583-.216.782-.763.932a7.855,7.855,0,0,0-3.907,2.362,6.426,6.426,0,0,0-1.438,5.137c.134,1.4.556,2.67,1.98,3.278A3.561,3.561,0,0,0,153.5,79.6c.184-.147.33-.45.587-.365.293.1.156.42.163.647.01.341.2.518.5.476q1.671-.231,3.333-.524c.311-.054.4-.323.357-.62-.036-.265-.059-.593-.4-.594m-4.208-4.866a16.735,16.735,0,0,1-.131,3.007c-.161.638-.334,1.3-1.109,1.516a.991.991,0,0,1-1.242-.481c-1.121-1.921-.211-5.723,1.657-6.889.192-.12.383-.367.65-.229s.17.43.172.661c.009.773,0,1.547,0,2.414" transform="translate(-40.43 -17.203)" fill="#898989"/>
      <path id="Path_6023" data-name="Path 6023" d="M100.047,72.508c1.691-.813,3.337-1.72,5.024-2.544a1.037,1.037,0,0,0,.685-1.253c-.093-.5-.142-1.006-.259-1.5a5.931,5.931,0,0,0-1.881-3.351,4.395,4.395,0,0,0-6.637,1.2c-1.323,2.088-1.534,4.426-1.645,6.782.089,2.356.309,4.643,1.777,6.615a4.775,4.775,0,0,0,8.322-1.107c.243-.524-.087-.717-.488-.882s-.688-.22-.889.3a3.316,3.316,0,0,1-1.33,1.608,1.937,1.937,0,0,1-2.97-.966,12.773,12.773,0,0,1-.537-3.515,1.278,1.278,0,0,1,.829-1.386m-.905-2.062c.008-.4,0-.794,0-1.192a11.819,11.819,0,0,1,.635-4.156c.168-.423.391-.822.911-.836s.709.416.86.8a10.392,10.392,0,0,1,.386,4.181.631.631,0,0,1-.345.464,12.816,12.816,0,0,1-1.967,1.075c-.354.159-.49.03-.483-.335" transform="translate(-26.112 -17.21)" fill="#898989"/>
      <path id="Path_6024" data-name="Path 6024" d="M212.012,66.539c-.717-2.372-2.463-3.811-4.641-3.71a4.72,4.72,0,0,0-4.047,2.9,13.347,13.347,0,0,0-1.232,6.406,11.726,11.726,0,0,0,.3,3,7.1,7.1,0,0,0,1.939,3.923A4.775,4.775,0,0,0,212.1,77.5c.208-.471.163-.754-.283-.964-.41-.194-.791-.282-1.041.267a4.169,4.169,0,0,1-.566.894,2.5,2.5,0,0,1-2.188,1.012,1.657,1.657,0,0,1-1.525-1.189,11.212,11.212,0,0,1-.578-4.175.713.713,0,0,1,.479-.648c.592-.3,1.18-.6,1.77-.9,1.2-.608,2.4-1.222,3.612-1.82a1.076,1.076,0,0,0,.691-1.375c-.163-.683-.254-1.382-.46-2.061m-4.622,3.705a8.76,8.76,0,0,0-.993.528c-.344.174-.574.081-.569-.33a15.892,15.892,0,0,1,.626-5.236c.17-.476.42-.939.984-.936.595,0,.771.53.915,1a8.921,8.921,0,0,1,.361,2.954c.264,1.011-.277,1.657-1.324,2.022" transform="translate(-55.347 -17.208)" fill="#898989"/>
      <path id="Path_6025" data-name="Path 6025" d="M240.1,72.562a23.892,23.892,0,0,0-2.184-2.659,15.878,15.878,0,0,1-2.412-3.058,1.656,1.656,0,0,1-.015-1.763,1.714,1.714,0,0,1,1.842-.613A1.341,1.341,0,0,1,238.48,65.6a2.316,2.316,0,0,1,.119.912c-.093.592.2.774.734.813.569.04.7-.278.8-.744.188-.894.089-1.807.245-2.7.146-.837-.182-1.211-.968-.915a3.344,3.344,0,0,1-2.045-.07,4.283,4.283,0,0,0-1.12-.067,4.041,4.041,0,0,0-3.737,2.093,4.232,4.232,0,0,0,.6,4.776c1.029,1.266,2.051,2.539,3.169,3.734a5.442,5.442,0,0,1,1.436,2.353,2.091,2.091,0,0,1-.355,2.174,1.925,1.925,0,0,1-2.123.473,2.733,2.733,0,0,1-1.77-1.913c-.168-.491-.37-.587-.869-.46-.552.139-.728.388-.6.926.232.964.437,1.935.661,2.9.162.7.667.973,1.258.537a1.893,1.893,0,0,1,1.732-.218,4.4,4.4,0,0,0,5.428-4.393,5.3,5.3,0,0,0-.969-3.243" transform="translate(-63.532 -17.205)" fill="#898989"/>
      <path id="Path_6026" data-name="Path 6026" d="M119.963,62.914a3.4,3.4,0,0,0-3.129.846,14.09,14.09,0,0,1-1.285,1.312c0-.527-.01-1.054,0-1.581s-.2-.628-.653-.415c-1.257.595-2.521,1.177-3.777,1.772-.241.114-.51.241-.329.6.164.32.238.793.768.621.635-.207.746.155.747.64q.01,5.709.01,11.417c0,.378-.121.681-.507.744-.575.094-.443.51-.447.866-.007.444.366.5.651.5,1.459.026,2.92.018,4.381.012.295,0,.536-.126.514-.471-.021-.32.192-.77-.337-.872-.624-.12-.741-.545-.741-1.075,0-2.833-.033-5.665.015-8.5a4.669,4.669,0,0,1,1.274-3.259.938.938,0,0,1,1.141-.272.867.867,0,0,1,.472,1c-.086.5.126.687.59.738s.83-.055.84-.577c.023-1.13.176-2.244.306-3.362.046-.395-.081-.593-.506-.685" transform="translate(-30.329 -17.207)" fill="#898989"/>
      <path id="Path_6027" data-name="Path 6027" d="M226.608,62.94a3.254,3.254,0,0,0-3.076.761,19.489,19.489,0,0,0-1.3,1.568l-.168-.054c0-.59,0-1.181,0-1.772,0-.362-.126-.587-.521-.4-1.28.6-2.55,1.221-3.83,1.821-.37.174-.382.4-.246.75.129.33.283.583.664.463.685-.215.819.146.818.708-.005,3.739-.013,7.48,0,11.219,0,.466-.131.772-.59.893-.394.1-.5.362-.47.749a.566.566,0,0,0,.6.582q2.288.031,4.577,0a.544.544,0,0,0,.567-.6c.009-.343-.04-.629-.432-.7-.563-.108-.731-.461-.728-1,.015-2.9,0-5.8.015-8.7a5.064,5.064,0,0,1,.883-2.742,1.282,1.282,0,0,1,1.376-.725c.624.146.6.683.588,1.181-.015.473.26.606.673.617.389.012.659-.03.735-.529.179-1.158.119-2.337.35-3.49.068-.342-.158-.521-.485-.59" transform="translate(-59.544 -17.212)" fill="#898989"/>
      <path id="Path_6028" data-name="Path 6028" d="M51.812,63c-1-2.117-2.135-4.172-3.129-6.292a3.5,3.5,0,0,1-.066-3.079,1.542,1.542,0,0,1,1.633-.866,1.274,1.274,0,0,1,1.2.948,3.714,3.714,0,0,1,.237,1.756.61.61,0,0,0,.442.714,1.622,1.622,0,0,0,1.272.064c.117-.055.109-.187.114-.4,0-.08.012-.082.017-.163s.014-.127.019-.156a30.426,30.426,0,0,0,.512-4.306.338.338,0,0,0-.227-.37c-.463-.108-.934-.356-1.4-.053a1.013,1.013,0,0,1-.892.1,6.464,6.464,0,0,0-3.049-.24,4.128,4.128,0,0,0-3.652,2.727,7.036,7.036,0,0,0-.325,3.812c.023.147.075.361.1.489.053.248.052.225.107.422a13.656,13.656,0,0,0,1.211,2.98c1,1.817,1.911,3.681,2.845,5.533a17.086,17.086,0,0,1,1.759,4.408,4.417,4.417,0,0,1-.328,3.029,2.01,2.01,0,0,1-3.489.041,4.475,4.475,0,0,1-.627-1.859c-.034-.331-.178-.59-.518-.563a6.942,6.942,0,0,0-1.157.253c-.2.052-.244.183-.224.4.124,1.4.355,2.793.6,4.177.189,1.056.233,1.046,1.292.83a.719.719,0,0,0,.521-.254.654.654,0,0,1,.881-.224,5.081,5.081,0,0,0,3.181.184,4.519,4.519,0,0,0,3.077-2.193,7.493,7.493,0,0,0,.758-2.631,9.605,9.605,0,0,0-.521-4.417A37.857,37.857,0,0,0,51.812,63" transform="translate(-12.102 -13.855)" fill="#898989"/>
      <path id="Path_6029" data-name="Path 6029" d="M194.265,2.178A14.124,14.124,0,0,1,208.39,16.3v143.11a14.124,14.124,0,0,1-14.125,14.125H16.3A14.124,14.124,0,0,1,2.178,159.413V16.3A14.124,14.124,0,0,1,16.3,2.178Zm0-2.178H16.3A16.321,16.321,0,0,0,0,16.3v143.11a16.321,16.321,0,0,0,16.3,16.3H194.265a16.321,16.321,0,0,0,16.3-16.3V16.3A16.321,16.321,0,0,0,194.265,0" fill="#898989"/>
      <path id="Path_6030" data-name="Path 6030" d="M3,189.314v19.673a14.124,14.124,0,0,0,14.125,14.125H195.087a14.124,14.124,0,0,0,14.125-14.125V189.314s-28.125-8.323-103.905-8.323S3,189.314,3,189.314" transform="translate(-0.822 -49.574)" fill="#ff8a2d"/>
      <path id="Path_6031" data-name="Path 6031" d="M50.593,217.434l-2.509-6.757h1.242l1.9,5.633h.026l1.843-5.633h1.163l-2.47,6.757Z" transform="translate(-13.17 -57.705)" fill="#fff"/>
      <path id="Path_6032" data-name="Path 6032" d="M58.614,207.132h1.111v1.359H58.614Zm1.111,9.331H58.614v-6.757h1.111Z" transform="translate(-16.054 -56.734)" fill="#fff"/>
      <path id="Path_6033" data-name="Path 6033" d="M63.746,215.865a1.182,1.182,0,0,0,.412.405,1.852,1.852,0,0,0,.575.216,3.293,3.293,0,0,0,.66.065,4.068,4.068,0,0,0,.549-.039,2.013,2.013,0,0,0,.529-.144.992.992,0,0,0,.4-.306.821.821,0,0,0,.157-.516.74.74,0,0,0-.327-.654,2.78,2.78,0,0,0-.817-.359q-.49-.137-1.065-.248a5.476,5.476,0,0,1-1.065-.314,2.205,2.205,0,0,1-.817-.569,1.476,1.476,0,0,1-.327-1.019,1.619,1.619,0,0,1,.229-.876,1.878,1.878,0,0,1,.588-.595,2.738,2.738,0,0,1,.81-.34,3.731,3.731,0,0,1,.9-.111,5.39,5.39,0,0,1,1.059.1,2.449,2.449,0,0,1,.856.34,1.755,1.755,0,0,1,.595.654,2.475,2.475,0,0,1,.261,1.025H66.791a1.119,1.119,0,0,0-.17-.542,1.107,1.107,0,0,0-.366-.347,1.663,1.663,0,0,0-.49-.19,2.569,2.569,0,0,0-.542-.059,3.306,3.306,0,0,0-.5.039,1.72,1.72,0,0,0-.464.137.934.934,0,0,0-.34.261.659.659,0,0,0-.131.425.626.626,0,0,0,.2.477,1.632,1.632,0,0,0,.516.314,4.529,4.529,0,0,0,.706.208q.392.085.784.176a8.338,8.338,0,0,1,.817.222,2.686,2.686,0,0,1,.706.346,1.692,1.692,0,0,1,.5.542,1.593,1.593,0,0,1,.19.81,1.88,1.88,0,0,1-.255,1.019,1.992,1.992,0,0,1-.667.653,2.787,2.787,0,0,1-.928.347,5.549,5.549,0,0,1-1.026.1,4.754,4.754,0,0,1-1.072-.118,2.629,2.629,0,0,1-.9-.386,1.96,1.96,0,0,1-.627-.706,2.444,2.444,0,0,1-.261-1.064h1.111a1.25,1.25,0,0,0,.17.62" transform="translate(-17.109 -57.646)" fill="#fff"/>
      <path id="Path_6034" data-name="Path 6034" d="M72.69,207.132H73.8v1.359H72.69Zm1.111,9.331H72.69v-6.757H73.8Z" transform="translate(-19.91 -56.734)" fill="#fff"/>
      <path id="Path_6035" data-name="Path 6035" d="M79.752,209.914v.98H78.406v4.2a1.212,1.212,0,0,0,.033.314.323.323,0,0,0,.124.183.548.548,0,0,0,.255.085,3.884,3.884,0,0,0,.425.02h.51v.98H78.9a4.053,4.053,0,0,1-.738-.059,1.093,1.093,0,0,1-.5-.216.924.924,0,0,1-.281-.445,2.561,2.561,0,0,1-.091-.758v-4.3h-1.15v-.98H77.3v-2.026h1.111v2.026Z" transform="translate(-20.856 -56.941)" fill="#fff"/>
      <path id="Path_6036" data-name="Path 6036" d="M89.576,215.865a1.182,1.182,0,0,0,.412.405,1.852,1.852,0,0,0,.575.216,3.293,3.293,0,0,0,.66.065,4.068,4.068,0,0,0,.549-.039,2.013,2.013,0,0,0,.529-.144.992.992,0,0,0,.4-.306.821.821,0,0,0,.157-.516.74.74,0,0,0-.327-.654,2.78,2.78,0,0,0-.817-.359q-.49-.137-1.065-.248a5.476,5.476,0,0,1-1.065-.314,2.205,2.205,0,0,1-.817-.569,1.476,1.476,0,0,1-.327-1.019,1.619,1.619,0,0,1,.229-.876,1.878,1.878,0,0,1,.588-.595,2.738,2.738,0,0,1,.81-.34,3.731,3.731,0,0,1,.9-.111,5.39,5.39,0,0,1,1.059.1,2.449,2.449,0,0,1,.856.34,1.755,1.755,0,0,1,.595.654,2.475,2.475,0,0,1,.261,1.025H92.621a1.119,1.119,0,0,0-.17-.542,1.107,1.107,0,0,0-.366-.347,1.663,1.663,0,0,0-.49-.19,2.569,2.569,0,0,0-.542-.059,3.306,3.306,0,0,0-.5.039,1.72,1.72,0,0,0-.464.137.934.934,0,0,0-.34.261.659.659,0,0,0-.131.425.626.626,0,0,0,.2.477,1.632,1.632,0,0,0,.516.314,4.53,4.53,0,0,0,.706.208q.392.085.784.176a8.337,8.337,0,0,1,.817.222,2.686,2.686,0,0,1,.706.346,1.692,1.692,0,0,1,.5.542,1.593,1.593,0,0,1,.19.81,1.88,1.88,0,0,1-.255,1.019,1.992,1.992,0,0,1-.667.653,2.787,2.787,0,0,1-.928.347,5.549,5.549,0,0,1-1.026.1,4.754,4.754,0,0,1-1.072-.118,2.629,2.629,0,0,1-.9-.386,1.96,1.96,0,0,1-.627-.706,2.444,2.444,0,0,1-.261-1.064h1.111a1.25,1.25,0,0,0,.17.62" transform="translate(-24.184 -57.646)" fill="#fff"/>
      <path id="Path_6037" data-name="Path 6037" d="M102.977,217.434v-1.072h-.026a2.27,2.27,0,0,1-.9.921,2.7,2.7,0,0,1-1.294.294,3.03,3.03,0,0,1-1.111-.176,1.765,1.765,0,0,1-.719-.5,1.894,1.894,0,0,1-.386-.778,4.181,4.181,0,0,1-.111-1v-4.444H99.54v4.574a1.342,1.342,0,0,0,.366.993,1.36,1.36,0,0,0,1.006.366,2.264,2.264,0,0,0,.882-.157,1.654,1.654,0,0,0,.621-.444,1.915,1.915,0,0,0,.372-.673,2.737,2.737,0,0,0,.124-.843v-3.816h1.111v6.757Z" transform="translate(-26.96 -57.705)" fill="#fff"/>
      <path id="Path_6038" data-name="Path 6038" d="M110.141,210.618v.916h.026a1.658,1.658,0,0,1,.863-.817,3.22,3.22,0,0,1,1.294-.256,3.048,3.048,0,0,1,1.366.288,2.784,2.784,0,0,1,.967.777,3.438,3.438,0,0,1,.582,1.131,4.616,4.616,0,0,1,.2,1.359,4.762,4.762,0,0,1-.19,1.359,3.2,3.2,0,0,1-.575,1.117,2.687,2.687,0,0,1-.967.751,3.127,3.127,0,0,1-1.353.274,3.411,3.411,0,0,1-.555-.052,3.088,3.088,0,0,1-.608-.171,2.351,2.351,0,0,1-.569-.32,1.787,1.787,0,0,1-.451-.5h-.026v3.476H109.03v-9.332Zm3.993,2.4a2.483,2.483,0,0,0-.379-.8,1.85,1.85,0,0,0-.653-.562,1.976,1.976,0,0,0-.934-.209,1.834,1.834,0,0,0-1.595.8,2.444,2.444,0,0,0-.359.815,3.935,3.935,0,0,0-.111.929,3.894,3.894,0,0,0,.118.961,2.39,2.39,0,0,0,.372.817,1.9,1.9,0,0,0,.66.568,2.062,2.062,0,0,0,.98.216,1.877,1.877,0,0,0,.961-.224,1.771,1.771,0,0,0,.621-.587,2.548,2.548,0,0,0,.34-.836,4.445,4.445,0,0,0,.1-.967,3.465,3.465,0,0,0-.124-.922" transform="translate(-29.863 -57.646)" fill="#fff"/>
      <path id="Path_6039" data-name="Path 6039" d="M124.835,216.944a3.067,3.067,0,0,1-1.908.575,3.47,3.47,0,0,1-1.405-.262,2.77,2.77,0,0,1-1-.732,3.117,3.117,0,0,1-.608-1.123,5.421,5.421,0,0,1-.229-1.425,4.07,4.07,0,0,1,.235-1.412,3.381,3.381,0,0,1,.66-1.111,3,3,0,0,1,1.006-.732,3.073,3.073,0,0,1,1.274-.261,2.772,2.772,0,0,1,1.5.373,2.957,2.957,0,0,1,.954.947,3.755,3.755,0,0,1,.5,1.255,5.374,5.374,0,0,1,.111,1.293h-5.058a2.68,2.68,0,0,0,.1.843,1.912,1.912,0,0,0,.379.706,1.879,1.879,0,0,0,.667.49,2.3,2.3,0,0,0,.954.183,1.923,1.923,0,0,0,1.157-.327,1.578,1.578,0,0,0,.595-.993h1.1a2.7,2.7,0,0,1-.98,1.713m-.267-4.34a1.893,1.893,0,0,0-1.772-1.163,1.947,1.947,0,0,0-.778.15,1.807,1.807,0,0,0-.595.412,1.964,1.964,0,0,0-.392.608,2.3,2.3,0,0,0-.17.738h3.882a2.291,2.291,0,0,0-.176-.745" transform="translate(-32.782 -57.646)" fill="#fff"/>
      <path id="Path_6040" data-name="Path 6040" d="M131.388,210.618v1.425h.026a3,3,0,0,1,.993-1.215,2.5,2.5,0,0,1,1.49-.367v1.176a3.142,3.142,0,0,0-1.137.183,1.794,1.794,0,0,0-.758.537,2.219,2.219,0,0,0-.418.855,4.626,4.626,0,0,0-.131,1.157v3.006h-1.111v-6.757Z" transform="translate(-35.701 -57.645)" fill="#fff"/>
      <rect id="Rectangle_823" data-name="Rectangle 823" width="1.111" height="9.332" transform="translate(99.49 150.397)" fill="#fff"/>
      <path id="Path_6041" data-name="Path 6041" d="M147.313,217.347a1.555,1.555,0,0,1-.8.172.956.956,0,0,1-.686-.242,1.049,1.049,0,0,1-.255-.79,2.656,2.656,0,0,1-1.065.79,3.521,3.521,0,0,1-1.314.242,3.485,3.485,0,0,1-.869-.1,2.008,2.008,0,0,1-.712-.327,1.563,1.563,0,0,1-.477-.582,1.956,1.956,0,0,1-.176-.868,1.988,1.988,0,0,1,.2-.942,1.717,1.717,0,0,1,.516-.595,2.366,2.366,0,0,1,.732-.346c.274-.078.555-.143.843-.2.3-.061.595-.106.869-.137a4.841,4.841,0,0,0,.725-.131,1.2,1.2,0,0,0,.5-.248.606.606,0,0,0,.183-.477,1.106,1.106,0,0,0-.137-.587.943.943,0,0,0-.353-.341,1.435,1.435,0,0,0-.484-.157,3.652,3.652,0,0,0-.529-.039,2.35,2.35,0,0,0-1.176.268,1.138,1.138,0,0,0-.51,1.013h-1.111a2.4,2.4,0,0,1,.261-1.059,1.982,1.982,0,0,1,.627-.7,2.632,2.632,0,0,1,.9-.386,4.728,4.728,0,0,1,1.078-.118,6.222,6.222,0,0,1,.908.066,2.358,2.358,0,0,1,.817.267,1.557,1.557,0,0,1,.588.567,1.811,1.811,0,0,1,.222.952v3.469a2.589,2.589,0,0,0,.046.574c.031.122.133.182.307.182a1.079,1.079,0,0,0,.34-.065Zm-1.8-3.474a1.372,1.372,0,0,1-.549.229c-.227.048-.464.088-.712.118s-.5.065-.752.1a2.8,2.8,0,0,0-.68.19,1.231,1.231,0,0,0-.49.373,1.04,1.04,0,0,0-.19.66.9.9,0,0,0,.111.463.926.926,0,0,0,.288.307,1.193,1.193,0,0,0,.412.171,2.33,2.33,0,0,0,.5.052,2.616,2.616,0,0,0,.941-.15,1.98,1.98,0,0,0,.64-.379,1.5,1.5,0,0,0,.366-.5,1.253,1.253,0,0,0,.118-.5Z" transform="translate(-38.609 -57.646)" fill="#fff"/>
      <path id="Path_6042" data-name="Path 6042" d="M156.955,217.434l-1.372-5.372h-.026l-1.359,5.372h-1.2l-2.17-6.757h1.229l1.529,5.529h.026l1.359-5.529h1.215l1.412,5.529h.026l1.516-5.529h1.15l-2.157,6.757Z" transform="translate(-41.311 -57.705)" fill="#fff"/>
      <path id="Path_6043" data-name="Path 6043" d="M168.233,218.337a7,7,0,0,1-.386.836,2.278,2.278,0,0,1-.418.556,1.419,1.419,0,0,1-.51.314,1.98,1.98,0,0,1-.647.1,2.963,2.963,0,0,1-.392-.025,1.851,1.851,0,0,1-.379-.091V219a1.925,1.925,0,0,0,.333.111,1.448,1.448,0,0,0,.32.046.953.953,0,0,0,.569-.163,1,1,0,0,0,.346-.464l.457-1.137-2.679-6.718H166.1l1.974,5.528h.026l1.9-5.528h1.176Z" transform="translate(-45.152 -57.705)" fill="#fff"/>
      <path id="Path_6044" data-name="Path 6044" d="M180.04,216.944a3.067,3.067,0,0,1-1.908.575,3.464,3.464,0,0,1-1.4-.262,2.766,2.766,0,0,1-1-.732,3.117,3.117,0,0,1-.608-1.123,5.421,5.421,0,0,1-.229-1.425,4.07,4.07,0,0,1,.235-1.412,3.381,3.381,0,0,1,.66-1.111,3,3,0,0,1,1.006-.732,3.075,3.075,0,0,1,1.274-.261,2.772,2.772,0,0,1,1.5.373,2.95,2.95,0,0,1,.954.947,3.74,3.74,0,0,1,.5,1.255,5.337,5.337,0,0,1,.111,1.293h-5.058a2.7,2.7,0,0,0,.1.843,1.923,1.923,0,0,0,.379.706,1.879,1.879,0,0,0,.667.49,2.3,2.3,0,0,0,.955.183,1.921,1.921,0,0,0,1.156-.327,1.578,1.578,0,0,0,.595-.993h1.1a2.7,2.7,0,0,1-.98,1.713m-.267-4.34a1.914,1.914,0,0,0-.406-.608,1.941,1.941,0,0,0-.6-.405,1.919,1.919,0,0,0-.765-.15,1.949,1.949,0,0,0-.778.15,1.807,1.807,0,0,0-.595.412,1.964,1.964,0,0,0-.392.608,2.305,2.305,0,0,0-.17.738h3.882a2.291,2.291,0,0,0-.176-.745" transform="translate(-47.903 -57.646)" fill="#fff"/>
      <path id="Path_6045" data-name="Path 6045" d="M186.593,210.618v1.425h.026a3,3,0,0,1,.993-1.215,2.5,2.5,0,0,1,1.49-.367v1.176a3.142,3.142,0,0,0-1.137.183,1.794,1.794,0,0,0-.758.537,2.219,2.219,0,0,0-.418.855,4.625,4.625,0,0,0-.131,1.157v3.006h-1.111v-6.757Z" transform="translate(-50.822 -57.645)" fill="#fff"/>
      <path id="Path_6046" data-name="Path 6046" d="M192.822,215.865a1.18,1.18,0,0,0,.411.405,1.852,1.852,0,0,0,.575.216,3.3,3.3,0,0,0,.66.065,4.059,4.059,0,0,0,.549-.039,2.013,2.013,0,0,0,.529-.144.992.992,0,0,0,.4-.306.817.817,0,0,0,.157-.516.738.738,0,0,0-.327-.654,2.78,2.78,0,0,0-.817-.359q-.489-.137-1.064-.248a5.5,5.5,0,0,1-1.066-.314,2.205,2.205,0,0,1-.817-.569,1.48,1.48,0,0,1-.327-1.019,1.619,1.619,0,0,1,.229-.876,1.885,1.885,0,0,1,.588-.595,2.737,2.737,0,0,1,.81-.34,3.736,3.736,0,0,1,.9-.111,5.4,5.4,0,0,1,1.059.1,2.455,2.455,0,0,1,.856.34,1.768,1.768,0,0,1,.595.654,2.5,2.5,0,0,1,.261,1.025h-1.112a1.067,1.067,0,0,0-.536-.889,1.655,1.655,0,0,0-.49-.19,2.568,2.568,0,0,0-.542-.059,3.322,3.322,0,0,0-.5.039,1.715,1.715,0,0,0-.463.137.931.931,0,0,0-.341.261.663.663,0,0,0-.131.425.626.626,0,0,0,.2.477,1.648,1.648,0,0,0,.516.314,4.529,4.529,0,0,0,.706.208q.392.085.784.176a8.228,8.228,0,0,1,.817.222,2.686,2.686,0,0,1,.706.346,1.7,1.7,0,0,1,.5.542,1.6,1.6,0,0,1,.189.81,1.874,1.874,0,0,1-.255,1.019,1.992,1.992,0,0,1-.667.653,2.781,2.781,0,0,1-.928.347,5.543,5.543,0,0,1-1.026.1,4.747,4.747,0,0,1-1.071-.118,2.627,2.627,0,0,1-.9-.386,1.967,1.967,0,0,1-.627-.706,2.444,2.444,0,0,1-.261-1.064h1.111a1.25,1.25,0,0,0,.171.62" transform="translate(-52.463 -57.646)" fill="#fff"/>
      <rect id="Rectangle_824" data-name="Rectangle 824" width="1.451" height="1.451" transform="translate(146.684 158.279)" fill="#fff"/>
      <path id="Path_6047" data-name="Path 6047" d="M211.119,211.795a1.686,1.686,0,0,0-1.124-.353,2.071,2.071,0,0,0-1.006.221,1.8,1.8,0,0,0-.647.589,2.475,2.475,0,0,0-.346.843,4.594,4.594,0,0,0-.1.986A3.749,3.749,0,0,0,208,215a2.456,2.456,0,0,0,.346.791,1.769,1.769,0,0,0,.614.555,1.839,1.839,0,0,0,.9.209,1.818,1.818,0,0,0,1.287-.431,1.948,1.948,0,0,0,.569-1.216h1.137a3.108,3.108,0,0,1-.934,1.934,2.936,2.936,0,0,1-2.045.68,3.52,3.52,0,0,1-1.366-.248,2.658,2.658,0,0,1-.993-.706,3.053,3.053,0,0,1-.6-1.091,4.55,4.55,0,0,1-.2-1.392,4.966,4.966,0,0,1,.2-1.418,3.286,3.286,0,0,1,.595-1.15,2.789,2.789,0,0,1,1-.77,3.271,3.271,0,0,1,1.4-.282,4.083,4.083,0,0,1,1.078.138,2.626,2.626,0,0,1,.889.425,2.3,2.3,0,0,1,.634.725,2.667,2.667,0,0,1,.314,1.038h-1.15a1.689,1.689,0,0,0-.549-.993" transform="translate(-56.619 -57.646)" fill="#fff"/>
      <path id="Path_6048" data-name="Path 6048" d="M217.129,212.612a3.157,3.157,0,0,1,.627-1.125,2.962,2.962,0,0,1,1.033-.751,3.774,3.774,0,0,1,2.83,0,2.978,2.978,0,0,1,1.026.751,3.158,3.158,0,0,1,.627,1.125,4.5,4.5,0,0,1,.209,1.392,4.434,4.434,0,0,1-.209,1.385,3.15,3.15,0,0,1-.627,1.117,2.893,2.893,0,0,1-1.026.746,3.869,3.869,0,0,1-2.83,0,2.879,2.879,0,0,1-1.033-.746,3.149,3.149,0,0,1-.627-1.117A4.434,4.434,0,0,1,216.92,214a4.5,4.5,0,0,1,.209-1.392m1.131,2.483a2.29,2.29,0,0,0,.451.8,1.946,1.946,0,0,0,.673.489,2.041,2.041,0,0,0,1.634,0,1.945,1.945,0,0,0,.673-.489,2.29,2.29,0,0,0,.451-.8,3.729,3.729,0,0,0,0-2.183,2.359,2.359,0,0,0-.451-.8,1.922,1.922,0,0,0-.673-.5,2.057,2.057,0,0,0-1.634,0,1.923,1.923,0,0,0-.673.5,2.359,2.359,0,0,0-.451.8,3.729,3.729,0,0,0,0,2.183" transform="translate(-59.415 -57.646)" fill="#fff"/>
      <path id="Path_6049" data-name="Path 6049" d="M229.342,210.619v.993h.026a2.631,2.631,0,0,1,3.32-.888,1.465,1.465,0,0,1,.719.888,2.365,2.365,0,0,1,.9-.85,2.534,2.534,0,0,1,1.222-.3,3.536,3.536,0,0,1,.921.112,1.9,1.9,0,0,1,.706.346,1.565,1.565,0,0,1,.457.608,2.219,2.219,0,0,1,.163.895v4.954h-1.111v-4.431a3.143,3.143,0,0,0-.052-.588,1.209,1.209,0,0,0-.2-.478.977.977,0,0,0-.4-.319,1.573,1.573,0,0,0-.66-.118,1.751,1.751,0,0,0-1.294.47,1.7,1.7,0,0,0-.471,1.255v4.208h-1.111v-4.431a2.872,2.872,0,0,0-.059-.6,1.275,1.275,0,0,0-.2-.477.946.946,0,0,0-.386-.314,1.494,1.494,0,0,0-.621-.111,1.666,1.666,0,0,0-.83.2,1.885,1.885,0,0,0-.876,1.04,1.609,1.609,0,0,0-.1.49v4.208H228.3v-6.757Z" transform="translate(-62.531 -57.646)" fill="#fff"/>
    </g>
  </g>
</svg>
