<svg id="Group_733" data-name="Group 733" xmlns="http://www.w3.org/2000/svg" xmlns:xlink="http://www.w3.org/1999/xlink" width="236.763" height="214.604" viewBox="0 0 236.763 214.604">
  <defs>
    <clipPath id="clip-path">
      <path id="Path_5834" data-name="Path 5834" d="M139.721,0l-7.674,9.563L124.373,0l-6.238,10.559L109.18,2.185l-4.67,11.339L94.453,6.509,91.445,18.4,80.491,12.885,79.2,25.08l-11.626-3.9.461,12.254-12.061-2.2,2.2,12.065-12.251-.464,3.895,11.628L37.63,55.747,43.14,66.7,31.253,69.708l7.014,10.058L26.93,84.435,35.3,93.393,24.745,99.628l9.563,7.674-9.563,7.675L35.3,121.212l-8.374,8.957,11.339,4.67L31.254,144.9l11.887,3.009L37.63,158.858l12.2,1.288-3.9,11.625,12.255-.459-2.2,12.059,12.066-2.2-.465,12.251,11.627-3.9,1.285,12.194,10.955-5.51L94.453,208.1l10.061-7.012,4.666,11.337,8.96-8.373,6.233,10.558,7.677-9.563,7.672,9.563,6.236-10.559,8.957,8.374,4.671-11.339,10.055,7.014,3.011-11.888,10.951,5.513,1.287-12.2,11.626,3.9-.463-12.253,12.063,2.2-2.2-12.065,12.251.465-3.894-11.629,12.193-1.283L220.953,147.9,232.84,144.9l-7.014-10.056,11.339-4.672-8.374-8.958,10.558-6.234-9.563-7.677,9.563-7.672-10.558-6.235,8.374-8.958-11.338-4.669,7.014-10.058-11.89-3.015,5.514-10.947-12.2-1.289,3.9-11.623-12.251.464,2.2-12.064-12.065,2.2.465-12.251-11.628,3.9L183.6,12.885l-10.961,5.507-3-11.883-10.057,7.014L154.914,2.185l-8.967,8.373Z" transform="translate(-24.745)" fill="none"/>
    </clipPath>
    <radialGradient id="radial-gradient" cx="0.5" cy="0.5" r="0.5" gradientTransform="matrix(1, 0, 0, -1, 0, 2)" gradientUnits="objectBoundingBox">
      <stop offset="0" stop-color="#fff"/>
      <stop offset="0.23" stop-color="#fbfbfb"/>
      <stop offset="0.449" stop-color="#efefef"/>
      <stop offset="0.664" stop-color="#dcdcdc"/>
      <stop offset="0.875" stop-color="#c2c1c1"/>
      <stop offset="1" stop-color="#afaeae"/>
    </radialGradient>
    <clipPath id="clip-path-2">
      <rect id="Rectangle_750" data-name="Rectangle 750" width="236.763" height="214.604" fill="none"/>
    </clipPath>
    <clipPath id="clip-path-3">
      <path id="Path_5868" data-name="Path 5868" d="M395.39,382.15v28.822c1.871,3.4,10.212,4.785,14.591,4.738,40.2-.439,41.077-.957,44.8,2.1,0,0-3.193-6.582-3.364-17.374-.162-10.187,2.756-15.754,2.756-15.754-2.078-2.227-7.351-2.707-25.539-2.707-8.177,0-18.961.1-33.242.175" transform="translate(-395.39 -381.975)" fill="none"/>
    </clipPath>
    <linearGradient id="linear-gradient" x1="-2.981" y1="1.216" x2="-2.973" y2="1.216" gradientUnits="objectBoundingBox">
      <stop offset="0" stop-color="#db2024"/>
      <stop offset="0.103" stop-color="#b11e22"/>
      <stop offset="0.364" stop-color="#d11f24"/>
      <stop offset="0.582" stop-color="#a81d21"/>
      <stop offset="0.752" stop-color="#9b1c20"/>
      <stop offset="0.778" stop-color="#94191c"/>
      <stop offset="0.92" stop-color="#770b0c"/>
      <stop offset="1" stop-color="#6c0607"/>
    </linearGradient>
    <clipPath id="clip-path-5">
      <path id="Path_5872" data-name="Path 5872" d="M395.386,395.56v-.106a.4.4,0,0,0,0,.106m0-38.718v38.612c.043-.424.617-2.058,6.6-3.828,4.054-1.2,7.464-.4,11.122.4a29.443,29.443,0,0,0,9.576.907,16.363,16.363,0,0,0,8.377-3.917,6.6,6.6,0,0,1-.216-.938,93.215,93.215,0,0,1-1.931-17.65,63.826,63.826,0,0,1,1.539-16.362Z" transform="translate(-395.383 -354.064)" fill="none"/>
    </clipPath>
    <linearGradient id="linear-gradient-2" x1="-4.961" y1="1.351" x2="-4.949" y2="1.351" gradientUnits="objectBoundingBox">
      <stop offset="0" stop-color="#670404"/>
      <stop offset="0.213" stop-color="#6a0505"/>
      <stop offset="0.378" stop-color="#730809"/>
      <stop offset="0.528" stop-color="#840f11"/>
      <stop offset="0.668" stop-color="#9b181b"/>
      <stop offset="0.727" stop-color="#a81d21"/>
      <stop offset="0.903" stop-color="#c11f23"/>
      <stop offset="1" stop-color="#6c0607"/>
    </linearGradient>
    <clipPath id="clip-path-7">
      <path id="Path_5875" data-name="Path 5875" d="M1.372,384.677s2.917,5.566,2.755,15.754C3.957,411.222.764,417.8.764,417.8c3.721-3.058,4.6-2.539,44.8-2.1,4.379.048,12.721-1.341,14.592-4.738V382.146c-14.286-.079-25.072-.176-33.249-.176-18.181,0-23.454.48-25.532,2.707" transform="translate(-0.764 -381.97)" fill="none"/>
    </clipPath>
    <linearGradient id="linear-gradient-3" x1="-0.006" y1="1.216" x2="0.002" y2="1.216" xlink:href="#linear-gradient"/>
    <clipPath id="clip-path-9">
      <path id="Path_5879" data-name="Path 5879" d="M89.407,395.554a.4.4,0,0,0,0-.106Zm-33.3-25.214A88.3,88.3,0,0,1,53.95,388.07a6.582,6.582,0,0,1-.216.938,16.359,16.359,0,0,0,8.377,3.917,29.431,29.431,0,0,0,9.575-.907c3.658-.8,7.068-1.6,11.122-.4,5.982,1.769,6.555,3.4,6.6,3.827V356.837l-34.913-2.779s1.773,6.1,1.611,16.283" transform="translate(-53.734 -354.058)" fill="none"/>
    </clipPath>
    <linearGradient id="linear-gradient-4" x1="-0.674" y1="1.351" x2="-0.662" y2="1.351" xlink:href="#linear-gradient-2"/>
    <clipPath id="clip-path-11">
      <path id="Path_5883" data-name="Path 5883" d="M148.132,332.327h-.013c-75.588,0-93.625,9.73-93.625,9.73a63.818,63.818,0,0,1,1.539,16.363,82.883,82.883,0,0,1-2.3,18.591s5.017-11,94.4-10.947c89.382-.056,94.247,10.947,94.247,10.947a89.314,89.314,0,0,1-2.147-18.591,63.833,63.833,0,0,1,1.539-16.363s-18.037-9.728-93.625-9.73Z" transform="translate(-53.734 -332.327)" fill="none"/>
    </clipPath>
    <linearGradient id="linear-gradient-5" x1="-0.128" y1="1.473" x2="-0.125" y2="1.473" gradientUnits="objectBoundingBox">
      <stop offset="0" stop-color="#db2024"/>
      <stop offset="0.036" stop-color="#760d0e"/>
      <stop offset="0.127" stop-color="#c91f23"/>
      <stop offset="0.29" stop-color="#a81d21"/>
      <stop offset="0.5" stop-color="#ed2024"/>
      <stop offset="0.593" stop-color="#cb1e22"/>
      <stop offset="0.71" stop-color="#9b1c20"/>
      <stop offset="0.728" stop-color="#a11c20"/>
      <stop offset="0.82" stop-color="#be1e22"/>
      <stop offset="0.873" stop-color="#c91f23"/>
      <stop offset="0.964" stop-color="#760d0e"/>
      <stop offset="1" stop-color="#db2024"/>
    </linearGradient>
    <clipPath id="clip-path-13">
      <path id="Path_5886" data-name="Path 5886" d="M118.711,196.493l-5.2.755,3.763,3.668-.889,5.18,4.652-2.446,4.652,2.446-.888-5.18,3.763-3.668-5.2-.755-2.326-4.713Z" transform="translate(-113.511 -191.78)" fill="none"/>
    </clipPath>
    <radialGradient id="radial-gradient-2" cx="0.69" cy="0.256" r="0.763" gradientTransform="matrix(0.951, 0, 0, -1, -0.165, 17.985)" gradientUnits="objectBoundingBox">
      <stop offset="0" stop-color="#fff"/>
      <stop offset="0.006" stop-color="#fff"/>
      <stop offset="0.449" stop-color="#fff59e"/>
      <stop offset="1" stop-color="#e0a800"/>
    </radialGradient>
    <clipPath id="clip-path-15">
      <path id="Path_5888" data-name="Path 5888" d="M119.806,208.756l.1.1-.769,4.485,4.013-2.111.014-.007,4.027,2.118-.667-3.89a7.555,7.555,0,0,1-3.548-1.351,10.731,10.731,0,0,0-5.611-1.72Z" transform="translate(-117.369 -206.38)" fill="none"/>
    </clipPath>
    <linearGradient id="linear-gradient-6" x1="-5.63" y1="10.959" x2="-5.582" y2="10.959" gradientUnits="objectBoundingBox">
      <stop offset="0" stop-color="#fff59e"/>
      <stop offset="0.528" stop-color="#ffbf00"/>
      <stop offset="1" stop-color="#c49300"/>
    </linearGradient>
    <clipPath id="clip-path-16">
      <path id="Path_5889" data-name="Path 5889" d="M122.268,194.271l-.166.337-1.813,3.673-.021.042-1.2.176-3.3.479.271.265,0,0,.442.431a10.731,10.731,0,0,1,5.611,1.72,7.555,7.555,0,0,0,3.548,1.351l-.1-.595,3.175-3.095.07-.037-.028,0,.017-.017.023-.023-3.648-.53-.84-.122H124.3l-1.989-4.031,0,.007-.029-.058Z" transform="translate(-115.766 -194.243)" fill="none"/>
    </clipPath>
    <linearGradient id="linear-gradient-7" x1="-3.374" y1="8.531" x2="-3.345" y2="8.531" xlink:href="#linear-gradient-6"/>
    <clipPath id="clip-path-17">
      <path id="Path_5890" data-name="Path 5890" d="M150.016,199.764l-3.692.537L149,202.9l-.631,3.676,3.3-1.736,3.3,1.736-.631-3.676,2.671-2.6-3.692-.537-1.651-3.345Z" transform="translate(-146.324 -196.419)" fill="none"/>
    </clipPath>
    <radialGradient id="radial-gradient-3" cx="0.69" cy="0.256" r="0.763" gradientTransform="matrix(0.951, 0, 0, -1, -0.3, 24.928)" xlink:href="#radial-gradient-2"/>
    <clipPath id="clip-path-19">
      <path id="Path_5892" data-name="Path 5892" d="M150.792,208.469l.073.071-.546,3.183,2.849-1.5.01-.005,2.859,1.5-.474-2.761a5.37,5.37,0,0,1-2.519-.959,7.614,7.614,0,0,0-3.983-1.221Z" transform="translate(-149.062 -206.782)" fill="none"/>
    </clipPath>
    <linearGradient id="linear-gradient-8" x1="-10.053" y1="15.337" x2="-9.986" y2="15.337" xlink:href="#linear-gradient-6"/>
    <clipPath id="clip-path-20">
      <path id="Path_5893" data-name="Path 5893" d="M152.54,198.187l-.118.239-1.287,2.607-.014.03-.854.124-2.342.34.192.188,0,0,.314.306a7.614,7.614,0,0,1,3.983,1.221,5.37,5.37,0,0,0,2.519.959l-.073-.423,2.254-2.2.05-.026-.02,0,.013-.012.017-.017-2.59-.377-.6-.086h-.005l-1.412-2.861,0,0-.02-.041Z" transform="translate(-147.925 -198.167)" fill="none"/>
    </clipPath>
    <linearGradient id="linear-gradient-9" x1="-6.128" y1="11.766" x2="-6.086" y2="11.766" xlink:href="#linear-gradient-6"/>
    <clipPath id="clip-path-21">
      <path id="Path_5894" data-name="Path 5894" d="M172.925,201.32l-2.974.432,2.152,2.1-.508,2.962,2.66-1.4,2.66,1.4-.508-2.962,2.152-2.1-2.974-.432-1.33-2.694Z" transform="translate(-169.951 -198.626)" fill="none"/>
    </clipPath>
    <radialGradient id="radial-gradient-4" cx="0.69" cy="0.256" r="0.763" gradientTransform="matrix(0.951, 0, 0, -1, -0.433, 30.706)" xlink:href="#radial-gradient-2"/>
    <clipPath id="clip-path-23">
      <path id="Path_5896" data-name="Path 5896" d="M173.551,208.332l.059.058-.44,2.564,2.3-1.207.008,0,2.3,1.211-.381-2.224a4.322,4.322,0,0,1-2.03-.773,6.132,6.132,0,0,0-3.208-.983Z" transform="translate(-172.157 -206.974)" fill="none"/>
    </clipPath>
    <linearGradient id="linear-gradient-10" x1="-14.403" y1="18.98" x2="-14.319" y2="18.98" xlink:href="#linear-gradient-6"/>
    <clipPath id="clip-path-24">
      <path id="Path_5897" data-name="Path 5897" d="M174.959,200.049l-.1.193-1.037,2.1-.012.024-.688.1-1.887.274.155.151,0,0,.253.247a6.132,6.132,0,0,1,3.208.983,4.322,4.322,0,0,0,2.03.773l-.059-.34,1.816-1.77.04-.021-.016,0,.01-.01.013-.013-2.086-.3-.481-.07h0l-1.137-2.3,0,0-.017-.033Z" transform="translate(-171.24 -200.033)" fill="none"/>
    </clipPath>
    <linearGradient id="linear-gradient-11" x1="-8.835" y1="14.456" x2="-8.783" y2="14.456" xlink:href="#linear-gradient-6"/>
    <clipPath id="clip-path-25">
      <path id="Path_5898" data-name="Path 5898" d="M74.675,201.32l-2.974.432,2.152,2.1-.508,2.962,2.66-1.4,2.66,1.4-.508-2.962,2.152-2.1-2.974-.432L76,198.626Z" transform="translate(-71.701 -198.626)" fill="none"/>
    </clipPath>
    <radialGradient id="radial-gradient-5" cx="0.69" cy="0.256" r="0.763" gradientTransform="matrix(0.951, 0, 0, -1, -0.183, 30.706)" xlink:href="#radial-gradient-2"/>
    <clipPath id="clip-path-27">
      <path id="Path_5900" data-name="Path 5900" d="M75.3,208.332l.06.058-.44,2.564,2.295-1.207.008,0,2.3,1.211-.382-2.224a4.319,4.319,0,0,1-2.029-.773,6.133,6.133,0,0,0-3.208-.983Z" transform="translate(-73.907 -206.974)" fill="none"/>
    </clipPath>
    <linearGradient id="linear-gradient-12" x1="-6.197" y1="18.978" x2="-6.113" y2="18.978" xlink:href="#linear-gradient-6"/>
    <clipPath id="clip-path-28">
      <path id="Path_5901" data-name="Path 5901" d="M76.709,200.049l-.095.193-1.037,2.1-.012.024-.688.1-1.887.274.155.151,0,0,.253.247a6.133,6.133,0,0,1,3.208.983,4.319,4.319,0,0,0,2.029.773l-.058-.34,1.816-1.77.04-.021-.016,0,.01-.01.013-.013-2.086-.3-.48-.07h0l-1.137-2.3,0,0-.016-.033Z" transform="translate(-72.991 -200.033)" fill="none"/>
    </clipPath>
    <linearGradient id="linear-gradient-13" x1="-3.728" y1="14.457" x2="-3.676" y2="14.457" xlink:href="#linear-gradient-6"/>
    <clipPath id="clip-path-29">
      <path id="Path_5902" data-name="Path 5902" d="M94.427,199.764l-3.692.537,2.671,2.6-.63,3.676,3.3-1.736,3.3,1.736-.63-3.676,2.671-2.6-3.692-.537-1.651-3.345Z" transform="translate(-90.735 -196.419)" fill="none"/>
    </clipPath>
    <radialGradient id="radial-gradient-6" cx="0.69" cy="0.256" r="0.763" gradientTransform="matrix(0.951, 0, 0, -1, -0.186, 24.928)" xlink:href="#radial-gradient-2"/>
    <clipPath id="clip-path-31">
      <path id="Path_5904" data-name="Path 5904" d="M95.2,208.469l.073.071-.545,3.183,2.849-1.5.009-.005,2.859,1.5-.473-2.761A5.367,5.367,0,0,1,97.458,208a7.618,7.618,0,0,0-3.983-1.221Z" transform="translate(-93.475 -206.782)" fill="none"/>
    </clipPath>
    <linearGradient id="linear-gradient-14" x1="-6.313" y1="15.338" x2="-6.246" y2="15.338" xlink:href="#linear-gradient-6"/>
    <clipPath id="clip-path-32">
      <path id="Path_5905" data-name="Path 5905" d="M96.952,198.187l-.118.239-1.287,2.607-.015.03-.854.124-2.342.34.193.188,0,0,.314.306a7.618,7.618,0,0,1,3.983,1.221,5.367,5.367,0,0,0,2.519.959l-.073-.423,2.253-2.2.05-.026-.02,0,.012-.012.017-.017L99,201.151l-.6-.086h0L96.984,198.2l0,0-.021-.041Z" transform="translate(-92.336 -198.167)" fill="none"/>
    </clipPath>
    <linearGradient id="linear-gradient-15" x1="-3.8" y1="11.765" x2="-3.758" y2="11.765" xlink:href="#linear-gradient-6"/>
    <clipPath id="clip-path-34">
      <path id="Path_5910" data-name="Path 5910" d="M168.357,354.286l3.16,1.116-2.949,3.512Zm-4,10.475a8.99,8.99,0,0,0,1.831-2.174,4.978,4.978,0,0,0,.625-2.762l-.229-5.029,1.107-.989.593,13.026a7.4,7.4,0,0,1-3.927-2.073m-.395-8.666.29,6.366a4.384,4.384,0,0,1-.282,2.05,7.308,7.308,0,0,1-1.865-4.472,7.9,7.9,0,0,1,.732-3.651,9.117,9.117,0,0,1,2.232-3.077,7.242,7.242,0,0,0-3.838,3.419,9.5,9.5,0,0,0-1.135,5.091,8.641,8.641,0,0,0,1.293,4.256,6.914,6.914,0,0,0,3.039,2.569,8.879,8.879,0,0,0,3.917.679q.481-.022.921-.082t.838-.133q3.451-.719,5.276-4.8l-.135-.021q-2.939,2.547-5.32,2.655l-.995-.062-.306-7.3,4.2-.191,1.185-2.815-2.835.129,3.484-4.125-.32.041a9.2,9.2,0,0,1-2.93-.189,7.261,7.261,0,0,1-2.536-.956Z" transform="translate(-160.085 -351.476)" fill="none"/>
    </clipPath>
    <radialGradient id="radial-gradient-7" cx="0.502" cy="0.499" r="0.464" gradientTransform="matrix(1.165, 0, 0, -1, 0.771, 6.391)" gradientUnits="objectBoundingBox">
      <stop offset="0" stop-color="#ffed9f"/>
      <stop offset="0.005" stop-color="#ffed9f"/>
      <stop offset="0.406" stop-color="#ffe05b"/>
      <stop offset="0.461" stop-color="#fddd53"/>
      <stop offset="0.819" stop-color="#f5cc26"/>
      <stop offset="1" stop-color="#f3c615"/>
    </radialGradient>
    <clipPath id="clip-path-35">
      <path id="Path_5911" data-name="Path 5911" d="M199.038,366.052q-.478-.735-.857-1.341t-.688-1.051a4.547,4.547,0,0,0-.928-1.044,6.92,6.92,0,0,0-1.161-.769L193,363.822l.222.235.867-.562a3.922,3.922,0,0,1,1.653,1.531l2,3.368-1.452,3.392-2.137-.686-.771,2.005,2.532,1.345L198.056,369q1.013,1.657,1.576,2.565t.675,1.064a6.7,6.7,0,0,0,1.738,1.662l2.134-2.073-.249-.26-.71.45a6.336,6.336,0,0,1-1.775-2.037l-2.172-3.658,1.178-2.687,2.089.875.772-1.952-2.5-1.264Z" transform="translate(-192.998 -361.686)" fill="none"/>
    </clipPath>
    <radialGradient id="radial-gradient-8" cx="0.5" cy="0.5" r="0.47" gradientTransform="matrix(1.142, 0, 0, -1, 1.094, 8.252)" xlink:href="#radial-gradient-7"/>
    <clipPath id="clip-path-36">
      <path id="Path_5912" data-name="Path 5912" d="M220.71,362.482a10.219,10.219,0,0,1-1.709.943l.131,6.827a2.408,2.408,0,0,1-.687,1.915,10.348,10.348,0,0,1,3.727,1.643l1.584-1.208q.792-.6,1.61-1.236l-.274-.289-1.135.878-2.378-1.133-.145-7.6,2.435,1.319,1.12-1.655-2.736-1.635a13.261,13.261,0,0,1-1.543,1.234" transform="translate(-218.444 -361.248)" fill="none"/>
    </clipPath>
    <radialGradient id="radial-gradient-9" cx="0.5" cy="0.5" r="0.404" gradientTransform="matrix(1.815, 0, 0, -1, 11.516, 8.416)" xlink:href="#radial-gradient-7"/>
    <clipPath id="clip-path-37">
      <path id="Path_5913" data-name="Path 5913" d="M237.676,362.751l2.57,2.571-2.523,2.034Zm-.582-.583a18.83,18.83,0,0,1-1.824.982l.073,7.149a2.705,2.705,0,0,1-.73,1.962,12.141,12.141,0,0,1,3.708,1.3l2.313-1.657q.4-.3.758-.544t.7-.463l-.3-.318-1.756,1.143-2.259-.968-.028-2.784q1.672-1.463,4.6-3.555L238.863,361q-.878.626-1.769,1.17" transform="translate(-234.613 -360.998)" fill="none"/>
    </clipPath>
    <radialGradient id="radial-gradient-10" cx="0.5" cy="0.5" r="0.415" gradientTransform="matrix(1.624, 0, 0, -1, 8.464, 8.432)" xlink:href="#radial-gradient-7"/>
    <clipPath id="clip-path-38">
      <path id="Path_5914" data-name="Path 5914" d="M253.821,352.642l-.294.028a4.533,4.533,0,0,0-1.771-.848,2.65,2.65,0,0,1,.891,1.709l.049,10.683a2.782,2.782,0,0,1-.687,1.931,12.349,12.349,0,0,1,3.811,2.017l2.427-2.1-.323-.347-.64.485-1.96-1.223-.052-11.272a2.917,2.917,0,0,1,1.3-2.443,5,5,0,0,0-2.752,1.378" transform="translate(-251.756 -351.264)" fill="none"/>
    </clipPath>
    <radialGradient id="radial-gradient-11" cx="0.5" cy="0.5" r="0.379" gradientTransform="matrix(2.603, 0, 0, -1, 27.842, 6.785)" xlink:href="#radial-gradient-7"/>
    <clipPath id="clip-path-39">
      <path id="Path_5915" data-name="Path 5915" d="M268.251,352.666l-.295.026a4.529,4.529,0,0,0-1.762-.866,2.652,2.652,0,0,1,.874,1.718l-.058,10.684a2.78,2.78,0,0,1-.706,1.924,12.347,12.347,0,0,1,3.791,2.056l2.448-2.075-.319-.35-.645.479-1.948-1.242.061-11.273a2.915,2.915,0,0,1,1.325-2.429,5,5,0,0,0-2.765,1.35" transform="translate(-266.194 -351.316)" fill="none"/>
    </clipPath>
    <radialGradient id="radial-gradient-12" cx="0.5" cy="0.5" r="0.378" gradientTransform="matrix(2.661, 0, 0, -1, 31.176, 6.785)" xlink:href="#radial-gradient-7"/>
    <clipPath id="clip-path-40">
      <path id="Path_5916" data-name="Path 5916" d="M283.774,362.81l2.507,2.632-2.571,1.973Zm-.568-.6a18.8,18.8,0,0,1-1.847.939l-.1,7.148a2.7,2.7,0,0,1-.776,1.945,12.141,12.141,0,0,1,3.676,1.389l2.352-1.6q.406-.289.77-.525c.244-.157.481-.306.715-.445l-.29-.325-1.782,1.1-2.236-1.022.039-2.784q1.707-1.422,4.68-3.444l-3.406-3.5q-.893.6-1.8,1.126" transform="translate(-280.484 -361.086)" fill="none"/>
    </clipPath>
    <radialGradient id="radial-gradient-13" cx="0.5" cy="0.5" r="0.418" gradientTransform="matrix(1.583, 0, 0, -1, 9.245, 8.437)" xlink:href="#radial-gradient-7"/>
    <clipPath id="clip-path-41">
      <path id="Path_5917" data-name="Path 5917" d="M298.382,363.24l.261.3.436-.284a1.576,1.576,0,0,1,.612,1.247l-.171,6.879-.77.811,1.992,1.764,1.97-1.665-.7-.928.165-6.638,1.935-1.345,1.178,1.074-.159,6.4a4.449,4.449,0,0,0,.287,1.909,3.4,3.4,0,0,0,1.265,1.344l2.458-1.921-.261-.274-.57.307a1.866,1.866,0,0,1-.728-.875l.175-7.04q.306-.447.611-.869t.609-.788l-.26-.3-1.174.882-1.8-1.76q-.6.521-1.477,1.2t-2.018,1.476a3.139,3.139,0,0,0-1.616-2.853Z" transform="translate(-298.382 -361.287)" fill="none"/>
    </clipPath>
    <radialGradient id="radial-gradient-14" cx="0.5" cy="0.5" r="0.462" gradientTransform="matrix(1.192, 0, 0, -1, 2.379, 8.244)" xlink:href="#radial-gradient-7"/>
    <clipPath id="clip-path-42">
      <path id="Path_5918" data-name="Path 5918" d="M325.672,363.281a10.229,10.229,0,0,1-1.758.848l-.245,6.823a2.41,2.41,0,0,1-.791,1.874,10.346,10.346,0,0,1,3.631,1.845l1.648-1.119q.824-.56,1.676-1.146l-.257-.3-1.181.815-2.313-1.262.272-7.6,2.359,1.451,1.209-1.591-2.642-1.782a13.266,13.266,0,0,1-1.609,1.148" transform="translate(-322.879 -362.133)" fill="none"/>
    </clipPath>
    <radialGradient id="radial-gradient-15" cx="0.5" cy="0.5" r="0.406" gradientTransform="matrix(1.78, 0, 0, -1, 16.005, 8.369)" xlink:href="#radial-gradient-7"/>
    <clipPath id="clip-path-43">
      <path id="Path_5919" data-name="Path 5919" d="M342.554,364.512l2.424,2.709-2.632,1.891Zm-.548-.614a18.9,18.9,0,0,1-1.876.88l-.322,7.142a2.7,2.7,0,0,1-.837,1.919,12.136,12.136,0,0,1,3.631,1.5l2.4-1.526q.414-.276.786-.5t.729-.423l-.279-.334-1.816,1.044-2.2-1.091.125-2.782q1.75-1.368,4.785-3.3l-3.295-3.606q-.911.576-1.831,1.07" transform="translate(-338.971 -362.828)" fill="none"/>
    </clipPath>
    <radialGradient id="radial-gradient-16" cx="0.5" cy="0.5" r="0.422" gradientTransform="matrix(1.534, 0, 0, -1, 9.924, 8.335)" xlink:href="#radial-gradient-7"/>
  </defs>
  <g id="Group_648" data-name="Group 648" transform="translate(11.079)">
    <g id="Group_647" data-name="Group 647" clip-path="url(#clip-path)">
      <rect id="Rectangle_749" data-name="Rectangle 749" width="214.604" height="214.604" transform="translate(0)" fill="url(#radial-gradient)"/>
    </g>
  </g>
  <g id="Group_650" data-name="Group 650">
    <g id="Group_649" data-name="Group 649" clip-path="url(#clip-path-2)">
      <path id="Ellipse_273" data-name="Ellipse 273" d="M93.28-3.418a96.7,96.7,0,1,1-96.7,96.7A96.807,96.807,0,0,1,93.28-3.418Zm0,186.561A89.863,89.863,0,1,0,3.417,93.28,89.965,89.965,0,0,0,93.28,183.143Z" transform="translate(25.091 14.025)" fill="#8fcc05"/>
      <path id="Path_5835" data-name="Path 5835" d="M89.106,160.314v-.63c.3,0,1.276-.067,1.426-.1a11.608,11.608,0,0,0,.182-2.934v-4.276a11.608,11.608,0,0,0-.182-2.934c-.15-.033-1.127-.1-1.426-.1v-.63c1.376,0,4.276-.1,5.851-.1,3.216,0,4.592,1.16,4.592,2.751,0,1.508-1.326,2.453-3.116,2.686,2.453.182,3.713,1.326,3.713,2.951,0,1.906-1.508,3.315-4.526,3.315Zm4.426-6.464h.945a2.148,2.148,0,0,0,2.254-2.354,2.174,2.174,0,0,0-2.453-2.288,4.648,4.648,0,0,0-.746.05Zm3.713,3.216a2.368,2.368,0,0,0-2.3-2.569l-1.409-.083v5.055a2.683,2.683,0,0,0,1.193.216,2.346,2.346,0,0,0,2.52-2.619" transform="translate(-49.21 -82.072)" fill="#3e5640"/>
      <path id="Path_5836" data-name="Path 5836" d="M115.465,160.6a4.119,4.119,0,0,1,4.044-4.293,3.034,3.034,0,0,1,3.3,3.183h-5.371v.149c0,2.2,1.393,3.381,3,3.381a2.645,2.645,0,0,0,2.154-1.011l.332.248a3.641,3.641,0,0,1-3.465,2.553,3.942,3.942,0,0,1-3.995-4.21M117.471,159l2.353-.033c.9-.033,1.045-.166,1.045-.613a1.4,1.4,0,0,0-1.443-1.459c-.977,0-1.773.7-1.955,2.105" transform="translate(-63.767 -86.325)" fill="#3e5640"/>
      <path id="Path_5837" data-name="Path 5837" d="M133.157,164.3l-.033-1.773h.563l.149.447a1.735,1.735,0,0,0,1.757,1.277,1.352,1.352,0,0,0,1.492-1.359c0-1.923-3.912-1.193-3.912-4.044,0-1.343,1.144-2.536,3.348-2.536a5.291,5.291,0,0,1,2.189.447l.049,1.575H138.2l-.15-.464a1.366,1.366,0,0,0-1.475-1.011,1.113,1.113,0,0,0-1.26,1.094c0,1.889,3.912,1.177,3.912,4.011,0,1.624-1.243,2.851-3.713,2.851a5.3,5.3,0,0,1-2.354-.514" transform="translate(-73.519 -86.325)" fill="#3e5640"/>
      <path id="Path_5838" data-name="Path 5838" d="M147.974,161.845v-5.818l-1.227-.149V155.5a4.541,4.541,0,0,0,2.553-1.707l.282-.364h.746v1.542h2.47l-.15,1.061h-2.321v4.641c0,1.111.464,1.475,1.492,1.475a5.432,5.432,0,0,0,1.144-.133l.116.481a6.474,6.474,0,0,1-3.033.729c-1.161,0-2.072-.348-2.072-1.375" transform="translate(-81.043 -84.73)" fill="#3e5640"/>
      <path id="Path_5839" data-name="Path 5839" d="M170.106,160.314v-.63c.3,0,1.277-.067,1.426-.1a11.63,11.63,0,0,0,.182-2.934v-4.276a11.63,11.63,0,0,0-.182-2.934c-.15-.033-1.127-.1-1.426-.1v-.63c1.376,0,4.277-.1,5.852-.1,3.216,0,4.592,1.16,4.592,2.751,0,1.508-1.326,2.453-3.116,2.686,2.453.182,3.713,1.326,3.713,2.951,0,1.906-1.509,3.315-4.526,3.315Zm4.426-6.464h.945a2.148,2.148,0,0,0,2.255-2.354,2.174,2.174,0,0,0-2.454-2.288,4.656,4.656,0,0,0-.746.05Zm3.713,3.216a2.368,2.368,0,0,0-2.3-2.569l-1.409-.083v5.055a2.688,2.688,0,0,0,1.194.216,2.345,2.345,0,0,0,2.519-2.619" transform="translate(-93.943 -82.072)" fill="#3e5640"/>
      <path id="Path_5840" data-name="Path 5840" d="M202.042,164.873V163.6a3.77,3.77,0,0,1-2.917,1.525,2.2,2.2,0,0,1-2.288-2.437V159.7a10.128,10.128,0,0,0-.132-2.221c-.017-.017-1.045-.083-1.127-.083v-.531h3.614v5.106c0,1.094.364,1.774,1.359,1.774a1.869,1.869,0,0,0,1.492-.647v-3.4a9.1,9.1,0,0,0-.133-2.221c-.017-.017-1.045-.083-1.127-.083v-.531h3.63v5.172a9,9,0,0,0,.133,2.221c.1.033.978.083,1.127.083v.531Z" transform="translate(-108.01 -86.632)" fill="#3e5640"/>
      <path id="Path_5841" data-name="Path 5841" d="M218.9,164.3l-.034-1.773h.564l.149.447a1.735,1.735,0,0,0,1.757,1.277,1.352,1.352,0,0,0,1.491-1.359c0-1.923-3.911-1.193-3.911-4.044,0-1.343,1.144-2.536,3.348-2.536a5.289,5.289,0,0,1,2.188.447l.05,1.575h-.564l-.149-.464a1.367,1.367,0,0,0-1.475-1.011,1.113,1.113,0,0,0-1.26,1.094c0,1.889,3.912,1.177,3.912,4.011,0,1.624-1.243,2.851-3.713,2.851a5.3,5.3,0,0,1-2.354-.514" transform="translate(-120.869 -86.325)" fill="#3e5640"/>
      <path id="Path_5842" data-name="Path 5842" d="M233.264,159.353v-.531c.133,0,1.028-.05,1.127-.083a9.013,9.013,0,0,0,.133-2.221v-3.68l-1.26-.331v-.448a7.593,7.593,0,0,0,2.868-.928l.746.116v5.271a9.986,9.986,0,0,0,.133,2.221c.1.033.994.083,1.127.083v.531Zm2.4-12.482a1.277,1.277,0,1,1-1.326,1.293,1.245,1.245,0,0,1,1.326-1.293" transform="translate(-128.823 -81.111)" fill="#3e5640"/>
      <path id="Path_5843" data-name="Path 5843" d="M250.288,164.567v-.531a6.094,6.094,0,0,0,.846-.083,9.01,9.01,0,0,0,.133-2.221v-2.271c0-1.11-.431-1.773-1.426-1.773a1.875,1.875,0,0,0-1.525.663v3.381a9.954,9.954,0,0,0,.133,2.221,6.645,6.645,0,0,0,.845.083v.531H244.7v-.531c.133,0,1.028-.05,1.128-.083a9.011,9.011,0,0,0,.133-2.221v-3.68l-1.26-.331v-.447a7.593,7.593,0,0,0,2.868-.929l.746.116v1.392a3.783,3.783,0,0,1,2.967-1.542,2.25,2.25,0,0,1,2.354,2.437v2.983a8.986,8.986,0,0,0,.133,2.221c.1.033.978.083,1.127.083v.531Z" transform="translate(-135.14 -86.325)" fill="#3e5640"/>
      <path id="Path_5844" data-name="Path 5844" d="M267.544,160.6a4.119,4.119,0,0,1,4.045-4.293,3.034,3.034,0,0,1,3.3,3.183h-5.371v.149c0,2.2,1.393,3.381,3,3.381a2.645,2.645,0,0,0,2.155-1.011l.332.248a3.64,3.64,0,0,1-3.465,2.553,3.943,3.943,0,0,1-4-4.21M269.55,159l2.353-.033c.9-.033,1.045-.166,1.045-.613a1.4,1.4,0,0,0-1.442-1.459c-.978,0-1.773.7-1.956,2.105" transform="translate(-147.754 -86.325)" fill="#3e5640"/>
      <path id="Path_5845" data-name="Path 5845" d="M285.237,164.3l-.034-1.773h.564l.149.447a1.735,1.735,0,0,0,1.757,1.277,1.352,1.352,0,0,0,1.491-1.359c0-1.923-3.911-1.193-3.911-4.044,0-1.343,1.144-2.536,3.348-2.536a5.289,5.289,0,0,1,2.188.447l.05,1.575h-.564l-.149-.464a1.367,1.367,0,0,0-1.475-1.011,1.113,1.113,0,0,0-1.26,1.094c0,1.889,3.912,1.177,3.912,4.011,0,1.624-1.243,2.851-3.713,2.851a5.3,5.3,0,0,1-2.354-.514" transform="translate(-157.507 -86.325)" fill="#3e5640"/>
      <path id="Path_5846" data-name="Path 5846" d="M300.268,164.3l-.033-1.773h.563l.149.447a1.735,1.735,0,0,0,1.757,1.277,1.352,1.352,0,0,0,1.492-1.359c0-1.923-3.912-1.193-3.912-4.044,0-1.343,1.144-2.536,3.348-2.536a5.29,5.29,0,0,1,2.189.447l.049,1.575h-.563l-.149-.464a1.367,1.367,0,0,0-1.475-1.011,1.113,1.113,0,0,0-1.26,1.094c0,1.889,3.912,1.177,3.912,4.011,0,1.624-1.243,2.851-3.713,2.851a5.3,5.3,0,0,1-2.354-.514" transform="translate(-165.808 -86.325)" fill="#3e5640"/>
      <path id="Path_5847" data-name="Path 5847" d="M327.686,164.814a4.173,4.173,0,0,1-4.277-4.144,4.458,4.458,0,0,1,4.608-4.36,4.173,4.173,0,0,1,4.277,4.144,4.468,4.468,0,0,1-4.608,4.359m.083-7.94c-1.028,0-1.84,1.061-1.84,3.332,0,2.752.812,4.045,2.005,4.045,1.011,0,1.84-1.061,1.84-3.332,0-2.751-.813-4.044-2.006-4.044" transform="translate(-178.606 -86.325)" fill="#3e5640"/>
      <path id="Path_5848" data-name="Path 5848" d="M343.992,159.047v-.531c.133,0,1.028-.05,1.127-.083a8.977,8.977,0,0,0,.133-2.221V152.1l-1.21-.166v-.365a3.616,3.616,0,0,0,1.227-.58c.464-3,2.3-4.675,4.592-4.675,1.061,0,1.84.381,1.84,1.011,0,.464-.381.829-1.144.9-.215-.1-.431-.332-.829-.878-.232-.332-.381-.415-.613-.415-.663,0-1.492.862-1.492,3.63v.48h2.072l-.133,1.061h-1.94v4.111a10.415,10.415,0,0,0,.116,2.221c.1.033,1.243.083,1.459.083v.531Z" transform="translate(-189.974 -80.805)" fill="#3e5640"/>
      <path id="Path_5849" data-name="Path 5849" d="M365.2,160.13v-.447l1.889-2.039c1.791-1.923,3.133-3.6,3.133-5.47a1.986,1.986,0,0,0-1.988-2.2,2.269,2.269,0,0,0-2.205,2.072l-.447-.083a3.655,3.655,0,0,1,3.862-3.68c2.105,0,3.381,1.31,3.381,2.917,0,1.79-1.26,3.448-5.6,7.078a4.987,4.987,0,0,1,1.923-.266h1.177c1.84,0,2.056-.083,2.138-.53l.133-.647h.58l-.281,3.3Z" transform="translate(-201.688 -81.888)" fill="#3e5640"/>
      <path id="Path_5850" data-name="Path 5850" d="M387.767,160.378c-1.84,0-4.128-1.773-4.128-5.934,0-3.812,2.105-6.166,4.376-6.166,1.84,0,4.161,1.773,4.161,5.934,0,3.813-2.106,6.166-4.409,6.166m.1-11.52c-.979,0-1.575,1.26-1.575,5.155,0,4.243.481,5.785,1.658,5.785.994,0,1.575-1.26,1.575-5.155,0-4.244-.48-5.785-1.658-5.785" transform="translate(-211.869 -81.888)" fill="#3e5640"/>
      <path id="Path_5851" data-name="Path 5851" d="M403.26,160.13v-.447l1.889-2.039c1.79-1.923,3.133-3.6,3.133-5.47a1.987,1.987,0,0,0-1.989-2.2,2.269,2.269,0,0,0-2.2,2.072l-.448-.083a3.655,3.655,0,0,1,3.863-3.68c2.1,0,3.381,1.31,3.381,2.917,0,1.79-1.26,3.448-5.6,7.078a4.986,4.986,0,0,1,1.923-.266h1.177c1.84,0,2.055-.083,2.138-.53l.133-.647h.58l-.282,3.3Z" transform="translate(-222.705 -81.888)" fill="#3e5640"/>
      <path id="Path_5852" data-name="Path 5852" d="M424.286,160.212v-.58c.315,0,1.823-.05,1.923-.083a8.7,8.7,0,0,0,.133-2.105V150.73l-1.707-.447v-.464a6.165,6.165,0,0,0,3.464-1.177l.265-.216h.564v9.017a9.811,9.811,0,0,0,.133,2.105c.1.033,1.608.083,1.923.083v.58Z" transform="translate(-234.317 -81.97)" fill="#3e5640"/>
      <path id="Path_5853" data-name="Path 5853" d="M205.963,223.833V208.667h-5.416v-3.088h14.506v3.088h-5.4v15.166Z" transform="translate(-110.754 -113.533)" fill="#036db6"/>
      <path id="Path_5854" data-name="Path 5854" d="M239.963,205.579v6.712a5.243,5.243,0,0,1,6.226-1.532,3.562,3.562,0,0,1,1.463,1.145,4.159,4.159,0,0,1,.673,1.544,13.791,13.791,0,0,1,.181,2.627v7.757h-3.5v-6.985a10.36,10.36,0,0,0-.2-2.64,1.733,1.733,0,0,0-.7-.89,2.264,2.264,0,0,0-1.264-.33,2.9,2.9,0,0,0-1.556.423,2.442,2.442,0,0,0-1,1.276,7.619,7.619,0,0,0-.317,2.521v6.624h-3.5V205.579Z" transform="translate(-130.59 -113.533)" fill="#036db6"/>
      <path id="Path_5855" data-name="Path 5855" d="M272.738,229.669h-3.5V216.446h3.25v1.88a5.651,5.651,0,0,1,1.5-1.756,2.763,2.763,0,0,1,1.513-.423,4.444,4.444,0,0,1,2.3.66l-1.084,3.051a3.071,3.071,0,0,0-1.644-.573,1.943,1.943,0,0,0-1.245.4,2.766,2.766,0,0,0-.8,1.463,20.779,20.779,0,0,0-.292,4.433Z" transform="translate(-148.69 -119.37)" fill="#036db6"/>
      <path id="Path_5856" data-name="Path 5856" d="M296.427,225.46l3.487.585a5.715,5.715,0,0,1-2.123,2.92,6.237,6.237,0,0,1-3.629,1,5.915,5.915,0,0,1-5.105-2.253,7.571,7.571,0,0,1-1.307-4.558,7.3,7.3,0,0,1,1.718-5.149,5.659,5.659,0,0,1,4.346-1.862,5.871,5.871,0,0,1,4.657,1.949q1.705,1.949,1.631,5.971h-8.766a3.536,3.536,0,0,0,.847,2.422,2.647,2.647,0,0,0,2.017.865,2.143,2.143,0,0,0,1.382-.448,2.772,2.772,0,0,0,.847-1.444m.2-3.536a3.371,3.371,0,0,0-.784-2.31,2.524,2.524,0,0,0-3.71.044,3.225,3.225,0,0,0-.735,2.266Z" transform="translate(-158.913 -119.369)" fill="#036db6"/>
      <path id="Path_5857" data-name="Path 5857" d="M326.395,225.46l3.487.585a5.715,5.715,0,0,1-2.123,2.92,6.237,6.237,0,0,1-3.629,1,5.915,5.915,0,0,1-5.105-2.253,7.571,7.571,0,0,1-1.307-4.558,7.3,7.3,0,0,1,1.718-5.149,5.659,5.659,0,0,1,4.346-1.862,5.871,5.871,0,0,1,4.657,1.949q1.705,1.949,1.631,5.971H321.3a3.536,3.536,0,0,0,.847,2.422,2.647,2.647,0,0,0,2.017.865,2.143,2.143,0,0,0,1.382-.448,2.772,2.772,0,0,0,.847-1.444m.2-3.536a3.371,3.371,0,0,0-.784-2.31,2.524,2.524,0,0,0-3.71.044,3.225,3.225,0,0,0-.735,2.266Z" transform="translate(-175.462 -119.369)" fill="#036db6"/>
      <path id="Path_5858" data-name="Path 5858" d="M350.046,205.578h7.3a21.125,21.125,0,0,1,3.231.18,4.756,4.756,0,0,1,1.905.754,4.684,4.684,0,0,1,1.4,1.525,4.133,4.133,0,0,1,.56,2.135,4.329,4.329,0,0,1-2.565,3.96,4.8,4.8,0,0,1,2.565,1.656,4.4,4.4,0,0,1,.9,2.752,5.425,5.425,0,0,1-.579,2.422,4.879,4.879,0,0,1-1.581,1.88,5.222,5.222,0,0,1-2.471.865q-.922.1-4.446.124h-6.213Zm3.686,3.038v4.221h2.416q2.154,0,2.677-.062a2.436,2.436,0,0,0,1.488-.654,1.928,1.928,0,0,0,.542-1.426,2,2,0,0,0-.467-1.376,2.116,2.116,0,0,0-1.388-.641q-.549-.062-3.15-.062Zm0,7.259v4.881h3.412a16.666,16.666,0,0,0,2.527-.112,2.282,2.282,0,0,0,1.338-.728,2.241,2.241,0,0,0,.517-1.55,2.382,2.382,0,0,0-.4-1.395,2.256,2.256,0,0,0-1.152-.834,12.524,12.524,0,0,0-3.268-.261Z" transform="translate(-193.317 -113.533)" fill="#036db6"/>
      <path id="Path_5859" data-name="Path 5859" d="M395.784,225.46l3.487.585a5.715,5.715,0,0,1-2.123,2.92,6.236,6.236,0,0,1-3.629,1,5.915,5.915,0,0,1-5.105-2.253,7.571,7.571,0,0,1-1.307-4.558,7.3,7.3,0,0,1,1.718-5.149,5.659,5.659,0,0,1,4.346-1.862,5.871,5.871,0,0,1,4.657,1.949q1.705,1.949,1.631,5.971h-8.766a3.536,3.536,0,0,0,.847,2.422,2.647,2.647,0,0,0,2.017.865,2.143,2.143,0,0,0,1.382-.448,2.772,2.772,0,0,0,.847-1.444m.2-3.536a3.371,3.371,0,0,0-.784-2.31,2.524,2.524,0,0,0-3.71.044,3.225,3.225,0,0,0-.735,2.266Z" transform="translate(-213.783 -119.369)" fill="#036db6"/>
      <path id="Path_5860" data-name="Path 5860" d="M416.6,225.9l3.511-.535a2.573,2.573,0,0,0,.909,1.551,3.071,3.071,0,0,0,1.918.529,3.462,3.462,0,0,0,2.042-.5,1.113,1.113,0,0,0,.461-.934.921.921,0,0,0-.249-.66,2.8,2.8,0,0,0-1.17-.461,18.851,18.851,0,0,1-5.367-1.706,3.406,3.406,0,0,1-1.569-2.976,3.667,3.667,0,0,1,1.357-2.889,6.337,6.337,0,0,1,4.209-1.17,7.345,7.345,0,0,1,4.034.884,4.524,4.524,0,0,1,1.818,2.615l-3.3.61a2.043,2.043,0,0,0-.8-1.183,2.936,2.936,0,0,0-1.687-.411,3.8,3.8,0,0,0-1.98.386.828.828,0,0,0-.4.71.772.772,0,0,0,.349.635,13.108,13.108,0,0,0,3.268.984,9.741,9.741,0,0,1,3.9,1.556,3.237,3.237,0,0,1,1.1,2.6,4,4,0,0,1-1.519,3.125,6.728,6.728,0,0,1-4.5,1.307,7.378,7.378,0,0,1-4.277-1.1,5.049,5.049,0,0,1-2.06-2.976" transform="translate(-230.072 -119.369)" fill="#036db6"/>
      <path id="Path_5861" data-name="Path 5861" d="M453.6,211.054v2.789H451.21v5.329a13.247,13.247,0,0,0,.068,1.886.768.768,0,0,0,.311.442.987.987,0,0,0,.592.175,4.524,4.524,0,0,0,1.407-.336l.3,2.714a6.956,6.956,0,0,1-2.764.523,4.38,4.38,0,0,1-1.706-.318,2.489,2.489,0,0,1-1.115-.822,3.246,3.246,0,0,1-.492-1.363,17.027,17.027,0,0,1-.112-2.466v-5.765h-1.606v-2.789H447.7v-2.627l3.511-2.042v4.669Z" transform="translate(-246.36 -113.979)" fill="#036db6"/>
      <path id="Path_5862" data-name="Path 5862" d="M204.158,275.106V255.392H212.9a11.634,11.634,0,0,1,4.007.531A4.385,4.385,0,0,1,219.1,257.8a5.6,5.6,0,0,1,.82,2.972,4.958,4.958,0,0,1-1.358,3.537,6.872,6.872,0,0,1-4.2,1.829,6.772,6.772,0,0,1,1.573.982,13.59,13.59,0,0,1,2.165,2.622l3.429,5.365h-3.281l-2.609-4.1q-1.143-1.775-1.883-2.716a5.929,5.929,0,0,0-1.325-1.318,3.928,3.928,0,0,0-1.19-.524,7.848,7.848,0,0,0-1.452-.094h-3.026v8.754Zm2.609-11.013h5.607a8.41,8.41,0,0,0,2.8-.37,2.978,2.978,0,0,0,1.533-1.183,3.2,3.2,0,0,0,.524-1.769,2.936,2.936,0,0,0-1.015-2.3,4.752,4.752,0,0,0-3.207-.9h-6.24Z" transform="translate(-112.749 -141.043)" fill="#7bbe33"/>
      <path id="Path_5863" data-name="Path 5863" d="M254.26,279.647a9.022,9.022,0,0,1-2.589,1.614,7.479,7.479,0,0,1-2.669.471,5.191,5.191,0,0,1-3.617-1.15,3.794,3.794,0,0,1-1.264-2.938,3.906,3.906,0,0,1,.477-1.916,3.953,3.953,0,0,1,1.251-1.392,5.893,5.893,0,0,1,1.742-.793,17.374,17.374,0,0,1,2.152-.363,22.093,22.093,0,0,0,4.317-.834c.009-.331.013-.542.013-.632a2.673,2.673,0,0,0-.686-2.084,4.052,4.052,0,0,0-2.757-.82,4.276,4.276,0,0,0-2.522.6,3.654,3.654,0,0,0-1.2,2.118l-2.367-.323a5.871,5.871,0,0,1,1.062-2.454,4.65,4.65,0,0,1,2.138-1.439,9.533,9.533,0,0,1,3.241-.5,8.579,8.579,0,0,1,2.972.43,3.92,3.92,0,0,1,1.681,1.083,3.809,3.809,0,0,1,.753,1.647,13.645,13.645,0,0,1,.121,2.232v3.227a34.293,34.293,0,0,0,.154,4.27,5.373,5.373,0,0,0,.612,1.714h-2.528a5.124,5.124,0,0,1-.484-1.761m-.2-5.406a17.755,17.755,0,0,1-3.954.914,9.137,9.137,0,0,0-2.112.484,2.1,2.1,0,0,0-.955.787,2.14,2.14,0,0,0,.4,2.763,3.155,3.155,0,0,0,2.145.645,4.992,4.992,0,0,0,2.488-.612,3.771,3.771,0,0,0,1.6-1.674,5.844,5.844,0,0,0,.39-2.421Z" transform="translate(-134.818 -147.346)" fill="#7bbe33"/>
      <path id="Path_5864" data-name="Path 5864" d="M281.96,273.487l.35,2.138a9.02,9.02,0,0,1-1.829.215,4.142,4.142,0,0,1-2.044-.417,2.333,2.333,0,0,1-1.022-1.1,8.672,8.672,0,0,1-.3-2.857v-8.216h-1.775v-1.883h1.775v-3.537l2.407-1.452v4.989h2.434v1.883h-2.434V271.6a4.21,4.21,0,0,0,.128,1.332,1.007,1.007,0,0,0,.417.471,1.611,1.611,0,0,0,.827.175,7.881,7.881,0,0,0,1.062-.094" transform="translate(-152.062 -141.59)" fill="#7bbe33"/>
      <path id="Path_5865" data-name="Path 5865" d="M302.342,276.809l2.5.309a6.1,6.1,0,0,1-2.192,3.4,7.425,7.425,0,0,1-9.056-.72,7.539,7.539,0,0,1-1.836-5.413,7.893,7.893,0,0,1,1.856-5.594,6.283,6.283,0,0,1,4.814-1.99,6.107,6.107,0,0,1,4.68,1.95,7.746,7.746,0,0,1,1.816,5.487q0,.216-.013.646H294.26a5.487,5.487,0,0,0,1.331,3.6,3.962,3.962,0,0,0,2.986,1.251,3.705,3.705,0,0,0,2.273-.7,4.639,4.639,0,0,0,1.492-2.232m-7.947-3.913h7.975a4.842,4.842,0,0,0-.915-2.7,3.71,3.71,0,0,0-3-1.4,3.845,3.845,0,0,0-2.8,1.116,4.417,4.417,0,0,0-1.258,2.986" transform="translate(-161.127 -147.346)" fill="#7bbe33"/>
      <path id="Path_5866" data-name="Path 5866" d="M334.112,275.106v-1.8a4.442,4.442,0,0,1-3.994,2.125,5.6,5.6,0,0,1-3.14-.941,6.189,6.189,0,0,1-2.219-2.629,9.087,9.087,0,0,1-.787-3.88,10.157,10.157,0,0,1,.712-3.88,5.623,5.623,0,0,1,2.138-2.669,5.718,5.718,0,0,1,3.187-.928,4.761,4.761,0,0,1,3.94,1.963v-7.073h2.407v19.714Zm-7.652-7.127a6.2,6.2,0,0,0,1.156,4.1,3.487,3.487,0,0,0,2.73,1.358,3.423,3.423,0,0,0,2.7-1.3,5.986,5.986,0,0,0,1.109-3.96,6.717,6.717,0,0,0-1.13-4.3,3.474,3.474,0,0,0-2.784-1.371,3.353,3.353,0,0,0-2.7,1.318,6.506,6.506,0,0,0-1.083,4.155" transform="translate(-178.918 -141.043)" fill="#7bbe33"/>
      <path id="Path_5867" data-name="Path 5867" d="M395.39,412.269c1.871,3.4,10.213,4.8,14.591,4.738,23.477-.316,34.451-.621,39.832.028,3.617.437,4.739,1.675,5.308,2.243,0,0-3.535-6.753-3.706-17.545-.162-10.187,2.56-15.947,2.56-15.947-3.012-3.229-12.537-2.591-58.586-2.338Z" transform="translate(-218.359 -211.639)" fill="#8a0c0d"/>
    </g>
  </g>
  <g id="Group_652" data-name="Group 652" transform="translate(177.031 171.025)">
    <g id="Group_651" data-name="Group 651" clip-path="url(#clip-path-3)">
      <rect id="Rectangle_751" data-name="Rectangle 751" width="59.39" height="35.834" fill="url(#linear-gradient)"/>
    </g>
  </g>
  <g id="Group_654" data-name="Group 654">
    <g id="Group_653" data-name="Group 653" clip-path="url(#clip-path-2)">
      <path id="Path_5869" data-name="Path 5869" d="M453.719,387.58c-3.306-2.387-12.021-2.332-44.988-2.118-4.07.026-8.507.055-13.345.082l0,.608c4.838-.027,9.275-.056,13.345-.082,32.655-.212,41.7-.27,44.763,2.108Z" transform="translate(-218.357 -212.824)" fill="#ffe51e"/>
      <path id="Path_5870" data-name="Path 5870" d="M453.629,447.493c-2.735-1.695-6.651-1.644-28.926-1.354-4.211.055-9.081.118-14.726.18-4.1.056-13.845-1.974-14.589-5.065v1.2c2.484,3.43,10.957,4.507,14.6,4.476,5.645-.062,10.516-.125,14.727-.18,23.941-.311,26.5-.344,29.238,1.707Z" transform="translate(-218.358 -243.687)" fill="#ffe51e"/>
      <path id="Path_5871" data-name="Path 5871" d="M430.2,355.422a73.8,73.8,0,0,0-1.286,16.362,93.232,93.232,0,0,0,1.932,17.649,6.515,6.515,0,0,0,.3.94,16.685,16.685,0,0,1-8.463,3.916c-8.246.8-13.439-3.451-20.7-1.3-6.957,2.058-6.6,3.933-6.6,3.933V358.2Z" transform="translate(-218.354 -196.286)" fill="#8a0c0d"/>
    </g>
  </g>
  <g id="Group_656" data-name="Group 656" transform="translate(177.028 158.528)">
    <g id="Group_655" data-name="Group 655" clip-path="url(#clip-path-5)">
      <rect id="Rectangle_753" data-name="Rectangle 753" width="35.68" height="41.496" transform="translate(-0.004 0)" fill="url(#linear-gradient-2)"/>
    </g>
  </g>
  <g id="Group_658" data-name="Group 658">
    <g id="Group_657" data-name="Group 657" clip-path="url(#clip-path-2)">
      <path id="Path_5873" data-name="Path 5873" d="M395.389,434.567a15.452,15.452,0,0,1,6.684-3.65c3.88-1.147,7.192-.423,10.7.344a30.359,30.359,0,0,0,9.94.972,17.033,17.033,0,0,0,8.083-3.565l-.143-.684a16.174,16.174,0,0,1-8,3.644,29.809,29.809,0,0,1-9.752-.961c-3.586-.784-6.975-1.525-11-.333-4.356,1.288-5.946,2.541-6.514,3.359Z" transform="translate(-218.357 -236.359)" fill="#ffe51e"/>
      <path id="Path_5874" data-name="Path 5874" d="M59.732,412.264c-1.871,3.4-10.213,4.8-14.592,4.737-23.477-.316-34.451-.621-39.831.028C1.691,417.466.569,418.7,0,419.272c0,0,3.534-6.753,3.705-17.545.162-10.187-2.56-15.947-2.56-15.947,3.012-3.229,12.537-2.591,58.586-2.338Z" transform="translate(0 -211.636)" fill="#8a0c0d"/>
    </g>
  </g>
  <g id="Group_660" data-name="Group 660" transform="translate(0.342 171.023)">
    <g id="Group_659" data-name="Group 659" clip-path="url(#clip-path-7)">
      <rect id="Rectangle_755" data-name="Rectangle 755" width="59.39" height="35.835" transform="translate(0 0)" fill="url(#linear-gradient-3)"/>
    </g>
  </g>
  <g id="Group_662" data-name="Group 662">
    <g id="Group_661" data-name="Group 661" clip-path="url(#clip-path-2)">
      <path id="Path_5876" data-name="Path 5876" d="M3.127,387.574c3.306-2.387,12.021-2.332,44.989-2.118,4.07.026,8.507.055,13.345.082l0,.608c-4.838-.027-9.275-.056-13.346-.082-32.655-.212-41.7-.27-44.763,2.108Z" transform="translate(-1.727 -212.82)" fill="#ffe51e"/>
      <path id="Path_5877" data-name="Path 5877" d="M2.936,447.487c2.736-1.695,6.651-1.644,28.926-1.354,4.211.055,9.081.118,14.726.18,4.1.056,13.845-1.974,14.589-5.065v1.2c-2.484,3.43-10.957,4.507-14.6,4.477-5.646-.062-10.516-.125-14.727-.18-23.941-.311-26.5-.344-29.239,1.707Z" transform="translate(-1.444 -243.684)" fill="#ffe51e"/>
      <path id="Path_5878" data-name="Path 5878" d="M54.53,355.417A70.189,70.189,0,0,1,55.91,371.81a87,87,0,0,1-2.146,17.618,6.557,6.557,0,0,1-.368.94,16.934,16.934,0,0,0,8.529,3.916c8.246.8,13.439-3.451,20.7-1.3,6.957,2.058,6.6,3.933,6.6,3.933V358.2Z" transform="translate(-29.488 -196.283)" fill="#8a0c0d"/>
    </g>
  </g>
  <g id="Group_664" data-name="Group 664" transform="translate(24.059 158.525)">
    <g id="Group_663" data-name="Group 663" clip-path="url(#clip-path-9)">
      <rect id="Rectangle_757" data-name="Rectangle 757" width="35.68" height="41.496" fill="url(#linear-gradient-4)"/>
    </g>
  </g>
  <g id="Group_666" data-name="Group 666">
    <g id="Group_665" data-name="Group 665" clip-path="url(#clip-path-2)">
      <path id="Path_5880" data-name="Path 5880" d="M89.733,434.787a15.451,15.451,0,0,0-6.684-3.65c-3.88-1.147-7.192-.423-10.7.344a30.354,30.354,0,0,1-9.94.972,17.031,17.031,0,0,1-8.082-3.565l.2-.684a15.943,15.943,0,0,0,7.937,3.644,29.808,29.808,0,0,0,9.752-.96c3.586-.784,6.975-1.525,11-.333,4.356,1.289,5.946,2.541,6.514,3.36Z" transform="translate(-30.002 -236.48)" fill="#ffe51e"/>
      <path id="Path_5881" data-name="Path 5881" d="M242.281,378.439l-.089-.64a84.69,84.69,0,0,1-2.21-17.951,73.769,73.769,0,0,1,1.286-16.362s-17.765-9.716-93.246-9.73h-.152c-75.481.013-93.246,9.73-93.246,9.73a73.769,73.769,0,0,1,1.286,16.362A74.884,74.884,0,0,1,53.4,378.406s5.23-10.964,94.551-10.914c89.32-.05,94.335,10.948,94.335,10.948" transform="translate(-29.488 -184.321)" fill="#8a0c0d"/>
      <path id="Path_5882" data-name="Path 5882" d="M241.16,374.6s-.557-5.228-1.083-10.908c-.185-1.995-.058-4.252-.1-6.561a87.726,87.726,0,0,1,.4-9.029,36.409,36.409,0,0,1,1.33-7.158s-18.209-9.891-93.69-9.9h-.152c-75.48.013-93.787,9.472-93.787,9.472l.224.837a61.265,61.265,0,0,1,1.6,15.783A74.884,74.884,0,0,1,53.4,375.688s5.23-10.964,94.551-10.914c89.32-.05,93.214,9.825,93.214,9.825" transform="translate(-29.488 -182.82)" fill="#8a0c0d"/>
    </g>
  </g>
  <g id="Group_668" data-name="Group 668" transform="translate(24.059 148.795)">
    <g id="Group_667" data-name="Group 667" clip-path="url(#clip-path-11)">
      <rect id="Rectangle_759" data-name="Rectangle 759" width="188.645" height="44.683" transform="translate(0 0)" fill="url(#linear-gradient-5)"/>
    </g>
  </g>
  <g id="Group_670" data-name="Group 670">
    <g id="Group_669" data-name="Group 669" clip-path="url(#clip-path-2)">
      <path id="Path_5884" data-name="Path 5884" d="M242.511,412.582c-2.359-2.059-16.871-10.362-93.821-10.411H148c-78.4,0-91.164,8.55-93.007,10.411l.174-.951c3.683-2.793,20.248-10.068,92.829-10.068h.693c72.225.046,89.671,7.265,93.656,10.118Z" transform="translate(-30.372 -221.767)" fill="#ffe51e"/>
      <path id="Path_5885" data-name="Path 5885" d="M56.346,346.527c4-1.687,26.068-9.446,93.09-9.446,73.412,0,90.2,7.395,93.376,9.406l-.133.712c-2.368-1.54-18.292-9.51-93.243-9.51-67.848,0-89.484,7.941-92.976,9.449Z" transform="translate(-31.118 -186.157)" fill="#ffe51e"/>
    </g>
  </g>
  <g id="Group_672" data-name="Group 672" transform="translate(50.823 85.867)">
    <g id="Group_671" data-name="Group 671" clip-path="url(#clip-path-13)">
      <rect id="Rectangle_761" data-name="Rectangle 761" width="15.052" height="14.316" transform="translate(0 0)" fill="url(#radial-gradient-2)"/>
    </g>
  </g>
  <g id="Group_674" data-name="Group 674">
    <g id="Group_673" data-name="Group 673" clip-path="url(#clip-path-2)">
      <path id="Path_5887" data-name="Path 5887" d="M121.036,191.427l2.429,4.923,5.433.79-3.931,3.832.928,5.411-4.859-2.555-4.859,2.555.928-5.411-3.931-3.832,5.433-.79Zm7.19,5.931-4.968-.722-2.222-4.5-2.222,4.5-4.968.722,3.6,3.5-.849,4.948,4.444-2.336,4.444,2.336-.849-4.948Z" transform="translate(-62.687 -105.913)" fill="#e0a800"/>
    </g>
  </g>
  <g id="Group_676" data-name="Group 676" transform="translate(52.551 92.404)">
    <g id="Group_675" data-name="Group 675" clip-path="url(#clip-path-15)">
      <rect id="Rectangle_763" data-name="Rectangle 763" width="9.375" height="11.351" transform="matrix(0.272, -0.962, 0.962, 0.272, -1.825, 6.444)" fill="url(#linear-gradient-6)"/>
    </g>
  </g>
  <g id="Group_678" data-name="Group 678" transform="translate(51.833 86.97)">
    <g id="Group_677" data-name="Group 677" clip-path="url(#clip-path-16)">
      <rect id="Rectangle_764" data-name="Rectangle 764" width="15.06" height="15.364" transform="matrix(0.673, -0.74, 0.74, 0.673, -4.233, 4.657)" fill="url(#linear-gradient-7)"/>
    </g>
  </g>
  <g id="Group_680" data-name="Group 680" transform="translate(65.515 87.944)">
    <g id="Group_679" data-name="Group 679" clip-path="url(#clip-path-17)">
      <rect id="Rectangle_765" data-name="Rectangle 765" width="10.684" height="10.162" fill="url(#radial-gradient-3)"/>
    </g>
  </g>
  <g id="Group_682" data-name="Group 682">
    <g id="Group_681" data-name="Group 681" clip-path="url(#clip-path-2)">
      <path id="Path_5891" data-name="Path 5891" d="M151.666,196.168l1.725,3.494,3.856.56-2.79,2.72.659,3.841-3.449-1.813-3.449,1.813.659-3.841-2.79-2.72,3.856-.56Zm5.1,4.21-3.527-.512-1.577-3.2-1.577,3.2-3.527.512,2.552,2.488-.6,3.512,3.154-1.658,3.154,1.658-.6-3.512Z" transform="translate(-80.809 -108.475)" fill="#e0a800"/>
    </g>
  </g>
  <g id="Group_684" data-name="Group 684" transform="translate(66.741 92.584)">
    <g id="Group_683" data-name="Group 683" clip-path="url(#clip-path-19)">
      <rect id="Rectangle_767" data-name="Rectangle 767" width="6.655" height="8.058" transform="translate(-1.295 4.574) rotate(-74.189)" fill="url(#linear-gradient-8)"/>
    </g>
  </g>
  <g id="Group_686" data-name="Group 686" transform="translate(66.232 88.727)">
    <g id="Group_685" data-name="Group 685" clip-path="url(#clip-path-20)">
      <rect id="Rectangle_768" data-name="Rectangle 768" width="10.691" height="10.907" transform="translate(-3.005 3.306) rotate(-47.726)" fill="url(#linear-gradient-9)"/>
    </g>
  </g>
  <g id="Group_688" data-name="Group 688" transform="translate(76.094 88.932)">
    <g id="Group_687" data-name="Group 687" clip-path="url(#clip-path-21)">
      <rect id="Rectangle_769" data-name="Rectangle 769" width="8.607" height="8.186" transform="translate(0 0)" fill="url(#radial-gradient-4)"/>
    </g>
  </g>
  <g id="Group_690" data-name="Group 690">
    <g id="Group_689" data-name="Group 689" clip-path="url(#clip-path-2)">
      <path id="Path_5895" data-name="Path 5895" d="M174.254,198.423l1.389,2.815,3.107.452-2.248,2.191.531,3.094-2.779-1.461-2.779,1.461.531-3.094-2.248-2.191,3.107-.452Zm4.111,3.392-2.841-.413-1.27-2.574-1.27,2.574-2.841.413,2.056,2-.485,2.829,2.541-1.336,2.541,1.336-.485-2.829Z" transform="translate(-93.857 -109.693)" fill="#e0a800"/>
    </g>
  </g>
  <g id="Group_692" data-name="Group 692" transform="translate(77.081 92.67)">
    <g id="Group_691" data-name="Group 691" clip-path="url(#clip-path-23)">
      <rect id="Rectangle_771" data-name="Rectangle 771" width="5.361" height="6.491" transform="matrix(0.272, -0.962, 0.962, 0.272, -1.044, 3.685)" fill="url(#linear-gradient-10)"/>
    </g>
  </g>
  <g id="Group_694" data-name="Group 694" transform="translate(76.671 89.562)">
    <g id="Group_693" data-name="Group 693" clip-path="url(#clip-path-24)">
      <rect id="Rectangle_772" data-name="Rectangle 772" width="8.612" height="8.786" transform="matrix(0.673, -0.74, 0.74, 0.673, -2.421, 2.663)" fill="url(#linear-gradient-11)"/>
    </g>
  </g>
  <g id="Group_696" data-name="Group 696" transform="translate(32.103 88.932)">
    <g id="Group_695" data-name="Group 695" clip-path="url(#clip-path-25)">
      <rect id="Rectangle_773" data-name="Rectangle 773" width="8.607" height="8.186" transform="translate(0 0)" fill="url(#radial-gradient-5)"/>
    </g>
  </g>
  <g id="Group_698" data-name="Group 698">
    <g id="Group_697" data-name="Group 697" clip-path="url(#clip-path-2)">
      <path id="Path_5899" data-name="Path 5899" d="M76,198.423l1.389,2.815,3.107.452-2.248,2.191.531,3.094L76,205.514l-2.779,1.461.531-3.094-2.248-2.191,3.107-.452Zm4.111,3.392-2.841-.413L76,198.828l-1.27,2.574-2.841.413,2.056,2-.485,2.829L76,205.312l2.541,1.336-.485-2.829Z" transform="translate(-39.598 -109.693)" fill="#e0a800"/>
    </g>
  </g>
  <g id="Group_700" data-name="Group 700" transform="translate(33.091 92.67)">
    <g id="Group_699" data-name="Group 699" clip-path="url(#clip-path-27)">
      <rect id="Rectangle_775" data-name="Rectangle 775" width="5.361" height="6.491" transform="translate(-1.044 3.685) rotate(-74.189)" fill="url(#linear-gradient-12)"/>
    </g>
  </g>
  <g id="Group_702" data-name="Group 702" transform="translate(32.681 89.562)">
    <g id="Group_701" data-name="Group 701" clip-path="url(#clip-path-28)">
      <rect id="Rectangle_776" data-name="Rectangle 776" width="8.612" height="8.786" transform="matrix(0.673, -0.74, 0.74, 0.673, -2.421, 2.663)" fill="url(#linear-gradient-13)"/>
    </g>
  </g>
  <g id="Group_704" data-name="Group 704" transform="translate(40.626 87.944)">
    <g id="Group_703" data-name="Group 703" clip-path="url(#clip-path-29)">
      <rect id="Rectangle_777" data-name="Rectangle 777" width="10.685" height="10.162" fill="url(#radial-gradient-6)"/>
    </g>
  </g>
  <g id="Group_706" data-name="Group 706">
    <g id="Group_705" data-name="Group 705" clip-path="url(#clip-path-2)">
      <path id="Path_5903" data-name="Path 5903" d="M96.078,196.168l1.725,3.494,3.856.56-2.79,2.72.659,3.841-3.449-1.813-3.449,1.813.659-3.841-2.79-2.72,3.856-.56Zm5.1,4.21-3.527-.512-1.577-3.2-1.577,3.2-3.527.512,2.552,2.488-.6,3.512,3.154-1.658,3.154,1.658-.6-3.512Z" transform="translate(-50.11 -108.475)" fill="#e0a800"/>
    </g>
  </g>
  <g id="Group_708" data-name="Group 708" transform="translate(41.852 92.584)">
    <g id="Group_707" data-name="Group 707" clip-path="url(#clip-path-31)">
      <rect id="Rectangle_779" data-name="Rectangle 779" width="6.655" height="8.057" transform="translate(-1.295 4.574) rotate(-74.188)" fill="url(#linear-gradient-14)"/>
    </g>
  </g>
  <g id="Group_710" data-name="Group 710" transform="translate(41.342 88.727)">
    <g id="Group_709" data-name="Group 709" clip-path="url(#clip-path-32)">
      <rect id="Rectangle_780" data-name="Rectangle 780" width="10.691" height="10.907" transform="matrix(0.673, -0.74, 0.74, 0.673, -3.005, 3.306)" fill="url(#linear-gradient-15)"/>
    </g>
  </g>
  <g id="Group_712" data-name="Group 712">
    <g id="Group_711" data-name="Group 711" clip-path="url(#clip-path-2)">
      <path id="Path_5906" data-name="Path 5906" d="M83.428,258.614a18.745,18.745,0,0,1-3.762-.534c-1.585-.476-2.253-1.369-1.885-2.943a1.244,1.244,0,0,0-.373-1.246c-.866-.964-1.628-1.943-.906-3.389.312-.624-.27-1.11-.671-1.532-.867-.914-1.2-1.835-.231-2.892.608-.664.222-1.245-.206-1.8a1.956,1.956,0,0,1-.41-2.325c.5-.891,1.319-.947,2.2-.941,1.06.007,2.12-.021,3.181-.034,1.732.017,3.464.016,5.195.062.743.02,1-.234.827-.977a16.056,16.056,0,0,1-.137-6.408,5.915,5.915,0,0,1,2.388-4.294c.963-.626,1.613-.256,1.652.9.032.929-.023,1.86.016,2.789a2.875,2.875,0,0,0,.77,2.313l-.016-.019a11.429,11.429,0,0,0,2.052,3.586l-.013-.017a.456.456,0,0,0,.23.566c.8,1.5,1.3,3.221,3.028,4.023.281.176.576.522.84.5,1.509-.128,1.464.9,1.47,1.883a30.771,30.771,0,0,1-.047,4.3c-.392,2.89-.186,6.092-3.343,7.82l-3.693.57-5.179-.028-.453.03-.976.046-1.542,0" transform="translate(-41.281 -126.498)" fill="#7bbe33"/>
      <path id="Path_5907" data-name="Path 5907" d="M105.441,237.529l.636-.594a14.668,14.668,0,0,1,1.993-1.442,11.254,11.254,0,0,1,1.936-.972,21.14,21.14,0,0,1,9.892-1.252A21.869,21.869,0,0,1,128,236.35a18.8,18.8,0,0,1,.432,31.554c-.137.1-.261.21-.392.316a20.863,20.863,0,0,1-7.862,2.86,27.329,27.329,0,0,1-7.168-.1,20.585,20.585,0,0,1-10.666-6.384,12.491,12.491,0,0,1-2.146-3.02,3.983,3.983,0,0,0,.531.092c.281.037.562.055,1.039.082.461-.011.65-.028,1.463-.021,1.118-.029,1.142-.162,2.382-.268,2.384,3.158,5.3,4.535,9.174,5.146a13.78,13.78,0,0,0,10.2-1.935,8.657,8.657,0,0,0,1.1-.615c4.595-3.513,6.77-8.064,6.024-13.91a14.585,14.585,0,0,0-13.232-12.315,5.787,5.787,0,0,0-.849-.159c-3.98-.152-7.052,1.3-10.148,3.817a24.171,24.171,0,0,0-1.237-2.544Z" transform="translate(-55.338 -128.768)" fill="#036db6"/>
      <path id="Path_5908" data-name="Path 5908" d="M122.021,274.991a1.154,1.154,0,0,1-1.439-.761c3.157-1.728,2.951-4.93,3.343-7.82a30.7,30.7,0,0,0,.047-4.3c-.006-.985.039-2.011-1.47-1.883-.264.022-.559-.324-.84-.5.441-.695.8-1.512,1.885-1.209,1.147,1.419,1.053,3.173,1.216,4.825.29,2.939-.491,5.772-1.092,8.615a4.718,4.718,0,0,1-1.649,3.032" transform="translate(-66.593 -142.735)" fill="#3e5640"/>
      <path id="Path_5909" data-name="Path 5909" d="M128.852,275.033l-3.579.016-1.478-.1a4.713,4.713,0,0,0,1.65-3.032c.6-2.842,1.382-5.675,1.092-8.614-.163-1.652-.069-3.406-1.216-4.825l6.837-.1a22.154,22.154,0,0,0,2.413.027c.969-.088,1.372.384,1.6,1.228a22.506,22.506,0,0,1-.05,10.435c-.149.745-.323,1.486-.485,2.229-.5.948-.64,2.121-1.71,2.709l-5.075.022" transform="translate(-68.367 -142.695)" fill="#036db6"/>
    </g>
  </g>
  <g id="Group_714" data-name="Group 714" transform="translate(71.676 157.369)">
    <g id="Group_713" data-name="Group 713" clip-path="url(#clip-path-34)">
      <rect id="Rectangle_782" data-name="Rectangle 782" width="15.369" height="17.911" transform="translate(-0.073)" fill="url(#radial-gradient-7)"/>
    </g>
  </g>
  <g id="Group_716" data-name="Group 716" transform="translate(86.413 161.941)">
    <g id="Group_715" data-name="Group 715" clip-path="url(#clip-path-35)">
      <rect id="Rectangle_783" data-name="Rectangle 783" width="11.181" height="12.764" transform="translate(0)" fill="url(#radial-gradient-8)"/>
    </g>
  </g>
  <g id="Group_718" data-name="Group 718" transform="translate(97.806 161.744)">
    <g id="Group_717" data-name="Group 717" clip-path="url(#clip-path-36)">
      <rect id="Rectangle_784" data-name="Rectangle 784" width="6.921" height="12.561" transform="translate(0 0)" fill="url(#radial-gradient-9)"/>
    </g>
  </g>
  <g id="Group_720" data-name="Group 720" transform="translate(105.045 161.633)">
    <g id="Group_719" data-name="Group 719" clip-path="url(#clip-path-37)">
      <rect id="Rectangle_785" data-name="Rectangle 785" width="7.739" height="12.564" transform="translate(0 0)" fill="url(#radial-gradient-10)"/>
    </g>
  </g>
  <g id="Group_722" data-name="Group 722" transform="translate(112.721 157.274)">
    <g id="Group_721" data-name="Group 721" clip-path="url(#clip-path-38)">
      <rect id="Rectangle_786" data-name="Rectangle 786" width="6.491" height="16.899" transform="translate(0 0)" fill="url(#radial-gradient-11)"/>
    </g>
  </g>
  <g id="Group_724" data-name="Group 724" transform="translate(119.185 157.298)">
    <g id="Group_723" data-name="Group 723" clip-path="url(#clip-path-39)">
      <rect id="Rectangle_787" data-name="Rectangle 787" width="6.348" height="16.891" transform="translate(0)" fill="url(#radial-gradient-12)"/>
    </g>
  </g>
  <g id="Group_726" data-name="Group 726" transform="translate(125.583 161.672)">
    <g id="Group_725" data-name="Group 725" clip-path="url(#clip-path-40)">
      <rect id="Rectangle_788" data-name="Rectangle 788" width="7.925" height="12.547" fill="url(#radial-gradient-13)"/>
    </g>
  </g>
  <g id="Group_728" data-name="Group 728" transform="translate(133.597 161.762)">
    <g id="Group_727" data-name="Group 727" clip-path="url(#clip-path-41)">
      <rect id="Rectangle_789" data-name="Rectangle 789" width="10.759" height="12.82" transform="translate(0 0)" fill="url(#radial-gradient-14)"/>
    </g>
  </g>
  <g id="Group_730" data-name="Group 730" transform="translate(144.565 162.141)">
    <g id="Group_729" data-name="Group 729" clip-path="url(#clip-path-42)">
      <rect id="Rectangle_790" data-name="Rectangle 790" width="7.044" height="12.538" fill="url(#radial-gradient-15)"/>
    </g>
  </g>
  <g id="Group_732" data-name="Group 732" transform="translate(151.77 162.452)">
    <g id="Group_731" data-name="Group 731" clip-path="url(#clip-path-43)">
      <rect id="Rectangle_791" data-name="Rectangle 791" width="8.16" height="12.515" transform="translate(0)" fill="url(#radial-gradient-16)"/>
    </g>
  </g>
</svg>
