<svg id="Group_800" data-name="Group 800" xmlns="http://www.w3.org/2000/svg" xmlns:xlink="http://www.w3.org/1999/xlink" width="295.86" height="110.869" viewBox="0 0 295.86 110.869">
  <defs>
    <clipPath id="clip-path">
      <rect id="Rectangle_821" data-name="Rectangle 821" width="295.86" height="110.869" fill="none"/>
    </clipPath>
    <clipPath id="clip-path-3">
      <rect id="Rectangle_799" data-name="Rectangle 799" width="36.797" height="33.023" fill="none"/>
    </clipPath>
    <clipPath id="clip-path-4">
      <rect id="Rectangle_800" data-name="Rectangle 800" width="43.307" height="46.326" fill="none"/>
    </clipPath>
    <clipPath id="clip-path-5">
      <rect id="Rectangle_801" data-name="Rectangle 801" width="18.493" height="35.046" fill="none"/>
    </clipPath>
    <clipPath id="clip-path-6">
      <rect id="Rectangle_802" data-name="Rectangle 802" width="23.902" height="27.236" fill="none"/>
    </clipPath>
    <clipPath id="clip-path-7">
      <rect id="Rectangle_803" data-name="Rectangle 803" width="12.329" height="16.228" fill="none"/>
    </clipPath>
    <clipPath id="clip-path-8">
      <rect id="Rectangle_804" data-name="Rectangle 804" width="35.099" height="24.783" fill="none"/>
    </clipPath>
    <clipPath id="clip-path-9">
      <rect id="Rectangle_805" data-name="Rectangle 805" width="40.288" height="23.597" fill="none"/>
    </clipPath>
    <clipPath id="clip-path-10">
      <rect id="Rectangle_806" data-name="Rectangle 806" width="15.914" height="9.875" fill="none"/>
    </clipPath>
    <clipPath id="clip-path-11">
      <rect id="Rectangle_807" data-name="Rectangle 807" width="14.75" height="12.203" fill="none"/>
    </clipPath>
    <clipPath id="clip-path-12">
      <rect id="Rectangle_808" data-name="Rectangle 808" width="12.594" height="2.493" fill="none"/>
    </clipPath>
    <clipPath id="clip-path-13">
      <rect id="Rectangle_809" data-name="Rectangle 809" width="22.854" height="11.992" fill="none"/>
    </clipPath>
    <clipPath id="clip-path-14">
      <rect id="Rectangle_810" data-name="Rectangle 810" width="19.751" height="18.273" fill="none"/>
    </clipPath>
    <clipPath id="clip-path-15">
      <rect id="Rectangle_811" data-name="Rectangle 811" width="10.855" height="10.787" fill="none"/>
    </clipPath>
    <clipPath id="clip-path-16">
      <rect id="Rectangle_812" data-name="Rectangle 812" width="23.153" height="7.445" fill="none"/>
    </clipPath>
    <clipPath id="clip-path-17">
      <rect id="Rectangle_813" data-name="Rectangle 813" width="17.36" height="16.244" fill="none"/>
    </clipPath>
    <clipPath id="clip-path-18">
      <rect id="Rectangle_814" data-name="Rectangle 814" width="23.65" height="25.663" fill="none"/>
    </clipPath>
    <clipPath id="clip-path-19">
      <rect id="Rectangle_815" data-name="Rectangle 815" width="16.81" height="6.982" fill="none"/>
    </clipPath>
    <clipPath id="clip-path-20">
      <rect id="Rectangle_816" data-name="Rectangle 816" width="8.287" height="15.096" fill="none"/>
    </clipPath>
    <clipPath id="clip-path-21">
      <rect id="Rectangle_817" data-name="Rectangle 817" width="14.203" height="4.905" fill="none"/>
    </clipPath>
    <clipPath id="clip-path-22">
      <rect id="Rectangle_818" data-name="Rectangle 818" width="6.463" height="9.954" fill="none"/>
    </clipPath>
    <clipPath id="clip-path-23">
      <rect id="Rectangle_819" data-name="Rectangle 819" width="40.382" height="20.246" fill="none"/>
    </clipPath>
  </defs>
  <g id="Group_799" data-name="Group 799" clip-path="url(#clip-path)">
    <rect id="Rectangle_793" data-name="Rectangle 793" width="218" height="24" fill="#bb1223"/>
    <g id="Group_798" data-name="Group 798">
      <g id="Group_797" data-name="Group 797" clip-path="url(#clip-path)">
        <path id="Path_5920" data-name="Path 5920" d="M13.192,13.565v.315c0,.613.221.936.664.936s.664-.281.664-1.081a1.53,1.53,0,0,0-.749-1.464,1.687,1.687,0,0,1-.9-1.575c0-.7.213-1.345,1.013-1.336.706,0,.97.443.97,1.234v.238h-.417V10.6c0-.519-.111-.877-.562-.877-.468,0-.587.409-.587.9a1.256,1.256,0,0,0,.664,1.234,1.881,1.881,0,0,1,.987,1.822c0,.8-.187,1.5-1.081,1.5-.817,0-1.081-.553-1.081-1.3v-.315Z" transform="translate(-5.526 -4.049)" fill="#fff"/>
        <path id="Path_5921" data-name="Path 5921" d="M18.945,13.149l-.323,2.017H18.2l.945-5.685h.6l.987,5.685H20.3l-.34-2.017Zm.953-.383c-.247-1.447-.4-2.451-.451-2.92H19.43c-.017.417-.247,1.745-.426,2.92Z" transform="translate(-7.874 -4.101)" fill="#fff"/>
        <path id="Path_5922" data-name="Path 5922" d="M24.49,15.165V9.479h.519l1.115,3.89a9.047,9.047,0,0,1,.23,1.013h.017c-.026-.809-.043-1.609-.043-2.528V9.479h.409v5.686h-.5l-1.243-4.426a5.373,5.373,0,0,1-.145-.646h-.009c.034.681.06,1.685.06,2.715v2.357Z" transform="translate(-10.593 -4.1)" fill="#fff"/>
        <path id="Path_5923" data-name="Path 5923" d="M33.88,9.48H35.7v.383H34.3v2.1h1.311v.383H34.3v2.817H33.88Z" transform="translate(-14.655 -4.1)" fill="#fff"/>
        <path id="Path_5924" data-name="Path 5924" d="M38.89,9.479h.843c.851,0,1.209.383,1.209,1.269v.289c0,.7-.213,1.081-.579,1.2.375.119.528.417.528,1.166a14.284,14.284,0,0,0,.06,1.762h-.409a14.38,14.38,0,0,1-.06-1.719c0-.767-.119-1.013-.715-1.013h-.46v2.732H38.89Zm.417,2.588H39.8c.6,0,.715-.409.715-1.012v-.29c0-.578-.179-.919-.8-.919h-.409Z" transform="translate(-16.822 -4.1)" fill="#fff"/>
        <path id="Path_5925" data-name="Path 5925" d="M44.985,13.149l-.323,2.017h-.417l.945-5.685h.6l.987,5.685h-.443L46,13.149Zm.953-.383c-.247-1.447-.4-2.451-.451-2.92H45.47c-.017.417-.247,1.745-.426,2.92Z" transform="translate(-19.138 -4.101)" fill="#fff"/>
        <path id="Path_5926" data-name="Path 5926" d="M50.529,15.165V9.479h.519l1.115,3.89a9.047,9.047,0,0,1,.23,1.013h.017c-.026-.809-.043-1.609-.043-2.528V9.479h.409v5.686h-.5l-1.243-4.426a5.373,5.373,0,0,1-.145-.646h-.009c.034.681.06,1.685.06,2.715v2.357Z" transform="translate(-21.856 -4.1)" fill="#fff"/>
        <path id="Path_5927" data-name="Path 5927" d="M58.844,13.53V13.7c0,.774-.145,1.48-1.055,1.48-.936,0-1.064-.723-1.064-1.532v-2.91c0-.936.383-1.379,1.064-1.379.877,0,1.03.656,1.03,1.37v.2h-.434v-.2c0-.494-.06-.979-.6-.979-.519,0-.63.426-.63,1v2.911c0,.706.162,1.149.647,1.149.536,0,.613-.477.613-1.1V13.53Z" transform="translate(-24.536 -4.048)" fill="#fff"/>
        <rect id="Rectangle_794" data-name="Rectangle 794" width="0.417" height="5.686" transform="translate(35.449 5.379)" fill="#fff"/>
        <path id="Path_5928" data-name="Path 5928" d="M65.647,13.565v.315c0,.613.221.936.664.936s.664-.281.664-1.081a1.53,1.53,0,0,0-.749-1.464,1.687,1.687,0,0,1-.9-1.575c0-.7.213-1.345,1.013-1.336.706,0,.97.443.97,1.234v.238H66.89V10.6c0-.519-.111-.877-.562-.877-.468,0-.587.409-.587.9a1.256,1.256,0,0,0,.664,1.234,1.881,1.881,0,0,1,.987,1.822c0,.8-.187,1.5-1.081,1.5-.817,0-1.081-.553-1.081-1.3v-.315Z" transform="translate(-28.215 -4.049)" fill="#fff"/>
        <path id="Path_5929" data-name="Path 5929" d="M73.138,13.53V13.7c0,.774-.145,1.48-1.055,1.48-.936,0-1.064-.723-1.064-1.532v-2.91c0-.936.383-1.379,1.064-1.379.877,0,1.03.656,1.03,1.37v.2h-.434v-.2c0-.494-.06-.979-.6-.979-.519,0-.63.426-.63,1v2.911c0,.706.162,1.149.647,1.149.536,0,.613-.477.613-1.1V13.53Z" transform="translate(-30.719 -4.048)" fill="#fff"/>
        <path id="Path_5930" data-name="Path 5930" d="M78.906,10.747v3.013c0,.936-.374,1.421-1.14,1.421-.851,0-1.107-.579-1.107-1.421v-3c0-.885.366-1.4,1.132-1.4.826,0,1.114.622,1.114,1.387m-1.821.009v3.013c0,.758.272,1.038.7,1.038.452,0,.7-.281.7-1.072v-2.97c0-.706-.255-1.022-.706-1.022-.468,0-.689.3-.689,1.013" transform="translate(-33.159 -4.049)" fill="#fff"/>
        <path id="Path_5931" data-name="Path 5931" d="M8.088,21.48h1.09c.945,0,1.3.46,1.3,1.268v.229c0,.8-.264,1.039-.528,1.15.281.094.638.332.638,1.141v.426c0,.97-.375,1.472-1.353,1.472H8.088Zm1.021,2.349c.5,0,.647-.17.647-.774v-.238c0-.485-.17-.7-.621-.7H8.829v1.71Zm-.281,2.707h.323c.545,0,.689-.255.689-.86v-.391c0-.579-.179-.826-.732-.826H8.829Z" transform="translate(-3.498 -9.291)" fill="#fff"/>
        <path id="Path_5932" data-name="Path 5932" d="M15.184,21.48v4.367c0,.434.145.706.519.706.391,0,.519-.28.519-.706V21.48h.758v4.35c0,.885-.4,1.412-1.285,1.412-.86,0-1.277-.468-1.277-1.4V21.48Z" transform="translate(-6.236 -9.291)" fill="#fff"/>
        <path id="Path_5933" data-name="Path 5933" d="M21.5,25.459v.34c0,.468.153.732.511.732.375,0,.494-.315.494-.792,0-.63-.136-.851-.749-1.328a1.782,1.782,0,0,1-.928-1.617c0-.741.221-1.463,1.192-1.463s1.158.672,1.158,1.336v.281h-.758v-.264c0-.426-.077-.7-.409-.7s-.417.289-.417.7c0,.451.085.655.6,1.03a1.99,1.99,0,0,1,1.081,1.915c0,.8-.264,1.549-1.277,1.549-1,0-1.251-.638-1.251-1.387v-.332Z" transform="translate(-8.974 -9.227)" fill="#fff"/>
        <rect id="Rectangle_795" data-name="Rectangle 795" width="0.766" height="5.686" transform="translate(15.391 12.188)" fill="#fff"/>
        <path id="Path_5934" data-name="Path 5934" d="M30.782,27.165V21.479h.894l.834,3.149a9.588,9.588,0,0,1,.221,1.013h.017c-.043-.732-.043-1.532-.043-2.46v-1.7h.706v5.686h-.86l-.936-3.591c-.077-.3-.119-.536-.153-.706h-.009c.034.689.043,1.515.043,2.544v1.753Z" transform="translate(-13.315 -9.291)" fill="#fff"/>
        <path id="Path_5935" data-name="Path 5935" d="M39.738,24.5h-1.26v1.966h1.438l-.094.7H37.712V21.48h2.094v.706H38.478V23.8h1.26Z" transform="translate(-16.312 -9.291)" fill="#fff"/>
        <path id="Path_5936" data-name="Path 5936" d="M43.84,25.459v.34c0,.468.153.732.511.732.375,0,.494-.315.494-.792,0-.63-.136-.851-.749-1.328a1.782,1.782,0,0,1-.928-1.617c0-.741.221-1.463,1.192-1.463s1.158.672,1.158,1.336v.281h-.758v-.264c0-.426-.077-.7-.409-.7s-.417.289-.417.7c0,.451.085.655.6,1.03a1.99,1.99,0,0,1,1.081,1.915c0,.8-.264,1.549-1.277,1.549-1,0-1.251-.638-1.251-1.387v-.332Z" transform="translate(-18.635 -9.227)" fill="#fff"/>
        <path id="Path_5937" data-name="Path 5937" d="M49.974,25.459v.34c0,.468.153.732.511.732.375,0,.494-.315.494-.792,0-.63-.136-.851-.749-1.328a1.782,1.782,0,0,1-.928-1.617c0-.741.221-1.463,1.192-1.463S51.65,22,51.65,22.667v.281h-.758v-.264c0-.426-.077-.7-.409-.7s-.417.289-.417.7c0,.451.085.655.6,1.03a1.99,1.99,0,0,1,1.081,1.915c0,.8-.264,1.549-1.277,1.549-1,0-1.251-.638-1.251-1.387v-.332Z" transform="translate(-21.288 -9.227)" fill="#fff"/>
        <path id="Path_5938" data-name="Path 5938" d="M58.686,22.186h-.919V21.48h2.6v.706h-.919v4.979h-.758Z" transform="translate(-24.987 -9.291)" fill="#fff"/>
        <rect id="Rectangle_796" data-name="Rectangle 796" width="0.766" height="5.686" transform="translate(36.278 12.188)" fill="#fff"/>
        <path id="Path_5939" data-name="Path 5939" d="M70.442,24.944c0-1,.017-2.17.034-2.8h-.009c-.136.97-.5,3.354-.775,5.022H68.97c-.2-1.473-.579-4-.706-5.03h-.017c.017.664.043,1.949.043,2.927v2.1h-.7V21.48h1.132c.264,1.54.553,3.362.63,4.128h.009c.085-.766.451-2.672.715-4.128h1.1v5.685h-.732Z" transform="translate(-29.236 -9.291)" fill="#fff"/>
        <path id="Path_5940" data-name="Path 5940" d="M78.227,24.5h-1.26v1.966h1.438l-.094.7H76.2V21.48H78.3v.706H76.967V23.8h1.26Z" transform="translate(-32.96 -9.291)" fill="#fff"/>
        <path id="Path_5941" data-name="Path 5941" d="M82.33,25.459v.34c0,.468.153.732.511.732.375,0,.494-.315.494-.792,0-.63-.136-.851-.749-1.328a1.782,1.782,0,0,1-.928-1.617c0-.741.221-1.463,1.192-1.463s1.158.672,1.158,1.336v.281h-.758v-.264c0-.426-.077-.7-.409-.7s-.417.289-.417.7c0,.451.085.655.6,1.03A1.99,1.99,0,0,1,84.1,25.629c0,.8-.264,1.549-1.277,1.549-1,0-1.251-.638-1.251-1.387v-.332Z" transform="translate(-35.284 -9.227)" fill="#fff"/>
        <path id="Path_5942" data-name="Path 5942" d="M17.794,77.423v.79c0,2.632-.461,5.957-4.838,5.957-3.949,0-4.739-2.6-4.739-5.891V67.155c0-3.456,1.547-5.562,4.8-5.562,3.917,0,4.674,2.666,4.674,5.66v.922H14.733v-1.25c0-1.58-.329-2.666-1.744-2.666-1.349,0-1.744,1.02-1.744,2.7V78.509c0,1.744.362,3,1.81,3,1.415,0,1.744-1.185,1.744-3V77.423Z" transform="translate(-3.554 -26.642)" fill="#bb84b3"/>
        <path id="Path_5943" data-name="Path 5943" d="M41.619,67.55v10.6c0,4.081-1.711,6.022-5.233,6.022-3.489,0-4.97-2.073-4.97-5.99V67.517c0-4.015,1.942-5.924,5.167-5.924,3.291,0,5.036,2.041,5.036,5.957m-7.175-.263V78.509c0,2.106.757,3,2.073,3,1.415,0,2.106-.856,2.106-3.061V67.287c0-2.008-.658-3.028-2.106-3.028-1.382,0-2.073.954-2.073,3.028" transform="translate(-13.589 -26.642)" fill="#bb84b3"/>
        <path id="Path_5944" data-name="Path 5944" d="M56.935,62.115h4.344c3.324,0,5.134,1.382,5.134,5.2V68.2c0,3.225-1.218,4.245-2.238,4.608,1.349.592,2.041,1.546,2.041,4.508a62.268,62.268,0,0,0,.2,6.78h-2.83a47.573,47.573,0,0,1-.23-6.582c0-2.732-.395-3.423-2.436-3.423H59.9v10H56.935ZM59.9,71.627H60.95c1.909,0,2.534-.889,2.534-3.258v-.856c0-1.843-.461-2.929-2.5-2.929H59.9Z" transform="translate(-24.627 -26.868)" fill="#bb84b3"/>
        <path id="Path_5945" data-name="Path 5945" d="M81.179,62.116h4.509c3.423,0,5.1,1.679,5.1,5.43v1.317c0,3.488-1.185,5.924-5.266,5.924H84.141V84.1H81.179Zm2.962,10.235h1.086C87.5,72.351,87.86,71,87.86,68.8V67.678c0-1.679-.329-3.094-2.37-3.094H84.141Z" transform="translate(-35.114 -26.868)" fill="#bb84b3"/>
        <path id="Path_5946" data-name="Path 5946" d="M114.7,67.55v10.6c0,4.081-1.711,6.022-5.233,6.022-3.489,0-4.97-2.073-4.97-5.99V67.517c0-4.015,1.942-5.924,5.167-5.924,3.291,0,5.036,2.041,5.036,5.957m-7.175-.263V78.509c0,2.106.757,3,2.073,3,1.415,0,2.106-.856,2.106-3.061V67.287c0-2.008-.658-3.028-2.106-3.028-1.382,0-2.073.954-2.073,3.028" transform="translate(-45.198 -26.642)" fill="#bb84b3"/>
        <path id="Path_5947" data-name="Path 5947" d="M130.013,62.115h4.344c3.324,0,5.134,1.382,5.134,5.2V68.2c0,3.225-1.218,4.245-2.238,4.608,1.349.592,2.041,1.546,2.041,4.508a62.27,62.27,0,0,0,.2,6.78h-2.83a47.572,47.572,0,0,1-.23-6.582c0-2.732-.395-3.423-2.436-3.423h-1.02v10h-2.962Zm2.962,9.512h1.053c1.909,0,2.534-.889,2.534-3.258v-.856c0-1.843-.461-2.929-2.5-2.929h-1.086Z" transform="translate(-56.237 -26.868)" fill="#bb84b3"/>
        <path id="Path_5948" data-name="Path 5948" d="M156.226,77.748l-.889,6.353h-3l3.587-21.985h4.18L163.828,84.1h-3.094l-.987-6.353Zm3.16-2.731c-.592-4.18-1.119-7.833-1.349-10.136h-.1c-.1,1.777-.822,6.582-1.316,10.136Z" transform="translate(-65.895 -26.868)" fill="#bb84b3"/>
        <path id="Path_5949" data-name="Path 5949" d="M177.242,64.847h-3.555V62.116h10.038v2.731h-3.555V84.1h-2.929Z" transform="translate(-75.128 -26.868)" fill="#bb84b3"/>
        <path id="Path_5950" data-name="Path 5950" d="M204.72,73.8h-4.871v7.6h5.562l-.362,2.7h-8.162V62.115h8.1v2.732h-5.134V71.1h4.871Z" transform="translate(-85.162 -26.868)" fill="#bb84b3"/>
        <path id="Path_5951" data-name="Path 5951" d="M9.086,109.116h4.509c3.423,0,5.1,1.679,5.1,5.43v1.317c0,3.488-1.185,5.924-5.266,5.924H12.048V131.1H9.086Zm2.962,10.235h1.086c2.271,0,2.633-1.349,2.633-3.555v-1.118c0-1.679-.329-3.094-2.37-3.094H12.048Z" transform="translate(-3.93 -47.198)" fill="#bb84b3"/>
        <path id="Path_5952" data-name="Path 5952" d="M32.75,109.115h2.962v8.853h4.015v-8.853h2.963V131.1H39.727V120.7H35.712v10.4H32.75Z" transform="translate(-14.166 -47.197)" fill="#bb84b3"/>
        <rect id="Rectangle_797" data-name="Rectangle 797" width="2.962" height="21.985" transform="translate(33.262 61.918)" fill="#bb84b3"/>
        <path id="Path_5953" data-name="Path 5953" d="M72.189,109.115h2.962v19.352H80.68l-.3,2.632H72.189Z" transform="translate(-31.225 -47.197)" fill="#bb84b3"/>
        <path id="Path_5954" data-name="Path 5954" d="M95.56,124.748l-.889,6.353h-3l3.587-21.985h4.18l3.719,21.985h-3.094l-.987-6.353Zm3.16-2.731c-.592-4.18-1.119-7.833-1.349-10.136h-.1c-.1,1.777-.822,6.582-1.316,10.136Z" transform="translate(-39.654 -47.198)" fill="#bb84b3"/>
        <path id="Path_5955" data-name="Path 5955" d="M117.834,131.1V109.116h3.456l3.225,12.177a37.131,37.131,0,0,1,.856,3.917h.065c-.165-2.83-.165-5.924-.165-9.512v-6.582H128V131.1h-3.324l-3.62-13.889c-.3-1.152-.461-2.073-.592-2.732h-.033c.132,2.666.165,5.858.165,9.841v6.78Z" transform="translate(-50.969 -47.198)" fill="#bb84b3"/>
        <path id="Path_5956" data-name="Path 5956" d="M145.052,111.847H141.5v-2.731h10.038v2.731h-3.554V131.1h-2.929Z" transform="translate(-61.204 -47.198)" fill="#bb84b3"/>
        <path id="Path_5957" data-name="Path 5957" d="M164.755,109.115h2.962v8.853h4.015v-8.853h2.963V131.1h-2.963V120.7h-4.015v10.4h-2.962Z" transform="translate(-71.264 -47.197)" fill="#bb84b3"/>
        <path id="Path_5958" data-name="Path 5958" d="M190.623,109.115h4.344c3.324,0,5.134,1.382,5.134,5.2v.889c0,3.225-1.218,4.245-2.238,4.608,1.349.592,2.041,1.546,2.041,4.508a62.266,62.266,0,0,0,.2,6.78h-2.83a47.574,47.574,0,0,1-.23-6.582c0-2.732-.395-3.423-2.436-3.423h-1.02v10h-2.962Zm2.962,9.512h1.053c1.909,0,2.534-.889,2.534-3.258v-.856c0-1.843-.461-2.929-2.5-2.929h-1.086Z" transform="translate(-82.453 -47.197)" fill="#bb84b3"/>
        <path id="Path_5959" data-name="Path 5959" d="M224.258,114.55v10.6c0,4.081-1.711,6.022-5.233,6.022-3.489,0-4.97-2.073-4.97-5.99V114.517c0-4.015,1.942-5.924,5.167-5.924,3.291,0,5.036,2.041,5.036,5.957m-7.175-.263v11.223c0,2.106.757,3,2.073,3,1.415,0,2.106-.856,2.106-3.061V114.287c0-2.008-.658-3.028-2.106-3.028-1.382,0-2.073.954-2.073,3.028" transform="translate(-92.589 -46.971)" fill="#bb84b3"/>
        <path id="Path_5960" data-name="Path 5960" d="M239.575,109.116h4.509c3.423,0,5.1,1.679,5.1,5.43v1.317c0,3.488-1.185,5.924-5.266,5.924h-1.382V131.1h-2.962Zm2.962,10.235h1.086c2.271,0,2.633-1.349,2.633-3.555v-1.118c0-1.679-.329-3.094-2.37-3.094h-1.349Z" transform="translate(-103.627 -47.198)" fill="#bb84b3"/>
        <path id="Path_5961" data-name="Path 5961" d="M264.865,131.1v-7.965a2.505,2.505,0,0,0-.1-.691l-4.081-13.329h3.258c.954,3.751,2.106,8.1,2.436,10.334h.033c.461-2.37,1.58-6.714,2.468-10.334h3.127l-4.147,13.559a3.478,3.478,0,0,0-.066.757V131.1Z" transform="translate(-112.758 -47.198)" fill="#bb84b3"/>
        <path id="Path_5962" data-name="Path 5962" d="M10.708,171.748,9.819,178.1h-3l3.587-21.985h4.18L18.31,178.1H15.217l-.987-6.353Zm3.16-2.731c-.592-4.18-1.119-7.833-1.349-10.136h-.1c-.1,1.777-.822,6.582-1.316,10.136Z" transform="translate(-2.952 -67.527)" fill="#77cdb5"/>
        <path id="Path_5963" data-name="Path 5963" d="M32.879,178.1l-3.028-21.985h3.127c.592,5,1.448,13.131,1.613,16.982h.066c.395-4.18,1.58-12.012,2.238-16.982h2.929c.691,5.1,1.843,12.374,2.205,16.851h.066c.263-4.081,1.152-11.716,1.711-16.851h3L43.51,178.1H40.449c-.658-5.036-1.744-12.079-2.172-16.226h-.066c-.461,4.345-1.58,11.322-2.3,16.226Z" transform="translate(-12.912 -67.527)" fill="#77cdb5"/>
        <path id="Path_5964" data-name="Path 5964" d="M66.272,171.748l-.889,6.353h-3l3.587-21.985h4.18L73.874,178.1H70.781l-.987-6.353Zm3.16-2.731c-.592-4.18-1.119-7.833-1.349-10.136h-.1c-.1,1.777-.822,6.582-1.316,10.136Z" transform="translate(-26.986 -67.527)" fill="#77cdb5"/>
        <path id="Path_5965" data-name="Path 5965" d="M88.547,156.115h4.344c3.324,0,5.134,1.382,5.134,5.2v.889c0,3.225-1.218,4.245-2.238,4.608,1.349.592,2.041,1.546,2.041,4.508a62.269,62.269,0,0,0,.2,6.78H95.2a47.573,47.573,0,0,1-.23-6.582c0-2.732-.395-3.423-2.436-3.423h-1.02v10H88.547Zm2.962,9.512h1.053c1.909,0,2.534-.889,2.534-3.258v-.856c0-1.843-.461-2.929-2.5-2.929H91.509Z" transform="translate(-38.301 -67.527)" fill="#77cdb5"/>
        <path id="Path_5966" data-name="Path 5966" d="M112.79,156.116h4.41c4.706,0,5.6,2.632,5.6,6.45v8.557c0,3.357-.56,6.977-5.661,6.977H112.79Zm2.962,19.451h1.185c2.4,0,2.863-1.449,2.863-3.983V162.3c0-2.237-.395-3.653-2.863-3.653h-1.185Z" transform="translate(-48.787 -67.527)" fill="#77cdb5"/>
        <path id="Path_5967" data-name="Path 5967" d="M139.382,171.5v1.316c0,1.81.592,2.831,1.974,2.831,1.448,0,1.909-1.218,1.909-3.061,0-2.436-.527-3.291-2.9-5.134-2.337-1.843-3.587-3.028-3.587-6.253,0-2.863.855-5.661,4.607-5.661,3.719,0,4.476,2.6,4.476,5.167v1.086h-2.929v-1.02c0-1.646-.3-2.7-1.58-2.7s-1.613,1.119-1.613,2.7c0,1.744.329,2.534,2.3,3.982,3.192,2.37,4.179,3.753,4.179,7.405,0,3.094-1.02,5.99-4.936,5.99-3.851,0-4.839-2.468-4.839-5.364V171.5Z" transform="translate(-59.022 -67.276)" fill="#77cdb5"/>
        <path id="Path_5968" data-name="Path 5968" d="M179.415,164.5l-3.094,8.721,2.633,4.674h-1.81l-1.58-2.765c-.954,2.008-2.139,2.962-3.884,2.962-2.962,0-3.851-2.5-3.851-5.595a7.4,7.4,0,0,1,2.732-6.254,10.616,10.616,0,0,1-1.547-6.055c0-2.567.954-4.542,3.324-4.542,2.337,0,3.193,1.646,3.193,4.246,0,3.094-.79,4.443-3.094,6.484l2.929,5.167,2.468-7.043Zm-4.739,9.05-3.423-6.056c-1.415,1.482-1.777,2.666-1.777,4.937,0,2.633.724,4.081,2.37,4.081,1.284,0,2.041-.79,2.83-2.962m-2.9-8.392a5.877,5.877,0,0,0,2.205-5.1c0-1.744-.263-3-1.679-3-1.251,0-1.744,1.284-1.744,3.094a8.171,8.171,0,0,0,1.218,5" transform="translate(-72.594 -67.326)" fill="#77cdb5"/>
        <path id="Path_5969" data-name="Path 5969" d="M200.761,171.91v1.218c0,2.369.856,3.62,2.567,3.62,1.744,0,2.567-1.086,2.567-4.18,0-2.7-.592-3.884-2.9-5.66-2.337-1.81-3.489-2.863-3.489-6.089,0-2.7.823-5.2,3.917-5.167,2.732,0,3.752,1.711,3.752,4.772v.922h-1.613v-.889c0-2.008-.428-3.39-2.172-3.39-1.81,0-2.271,1.58-2.271,3.489,0,2.4.494,3.16,2.567,4.772,2.9,2.238,3.818,3.423,3.818,7.043,0,3.094-.724,5.793-4.18,5.793-3.16,0-4.18-2.14-4.18-5.036V171.91Z" transform="translate(-86.141 -67.326)" fill="#77cdb5"/>
        <path id="Path_5970" data-name="Path 5970" d="M220.308,156.115v17.344c0,1.942.724,3.423,2.6,3.423,1.909,0,2.6-1.284,2.6-3.39V156.115h1.645v17.278c0,3.357-1.513,4.97-4.278,4.97-2.732,0-4.18-1.58-4.18-4.9V156.115Z" transform="translate(-94.596 -67.527)" fill="#77cdb5"/>
        <path id="Path_5971" data-name="Path 5971" d="M250.57,168.227c0-4.213.1-8.36.165-10.6H250.7c-.592,3.62-2.6,13.823-3.917,20.471h-1.646c-1.02-5.628-3.127-16.621-3.653-20.471h-.066c.066,2.534.2,7.536.2,11.289V178.1h-1.58V156.115h2.37c1.448,7.142,3.291,16.423,3.587,19.023h.033c.329-2.469,2.37-12.342,3.785-19.023h2.37V178.1H250.57Z" transform="translate(-103.827 -67.527)" fill="#77cdb5"/>
        <path id="Path_5972" data-name="Path 5972" d="M278.584,168.227c0-4.213.1-8.36.164-10.6h-.033c-.592,3.62-2.6,13.823-3.916,20.471h-1.645c-1.021-5.628-3.127-16.621-3.654-20.471h-.066c.066,2.534.2,7.536.2,11.289V178.1h-1.58V156.115h2.37c1.448,7.142,3.291,16.423,3.587,19.023h.033c.33-2.469,2.37-12.342,3.785-19.023h2.37V178.1h-1.612Z" transform="translate(-115.944 -67.527)" fill="#77cdb5"/>
        <rect id="Rectangle_798" data-name="Rectangle 798" width="1.613" height="21.985" transform="translate(168.003 88.589)" fill="#77cdb5"/>
        <path id="Path_5973" data-name="Path 5973" d="M306.322,157.6h-3.587v-1.48h8.722v1.48h-3.522v20.5h-1.613Z" transform="translate(-130.947 -67.527)" fill="#77cdb5"/>
        <g id="Group_736" data-name="Group 736" transform="translate(211.326 27.578)" style="mix-blend-mode: hard-light;isolation: isolate">
          <g id="Group_735" data-name="Group 735">
            <g id="Group_734" data-name="Group 734" clip-path="url(#clip-path-3)">
              <path id="Path_5974" data-name="Path 5974" d="M381.091,48.6l28.117,10.253-25.16,22.77L372.411,64.827Z" transform="translate(-372.411 -48.599)" fill="#e7724f"/>
            </g>
          </g>
        </g>
        <g id="Group_739" data-name="Group 739" transform="translate(219.409 25.942)" style="mix-blend-mode: hard-light;isolation: isolate">
          <g id="Group_738" data-name="Group 738">
            <g id="Group_737" data-name="Group 737" clip-path="url(#clip-path-4)">
              <path id="Path_5975" data-name="Path 5975" d="M386.655,61.851,401.94,92.043l28.022-26.7-8.869-19.625Z" transform="translate(-386.655 -45.717)" fill="#e27773"/>
            </g>
          </g>
        </g>
        <g id="Group_742" data-name="Group 742" transform="translate(217.144 38.396)" style="mix-blend-mode: hard-light;isolation: isolate">
          <g id="Group_741" data-name="Group 741">
            <g id="Group_740" data-name="Group 740" clip-path="url(#clip-path-5)">
              <path id="Path_5976" data-name="Path 5976" d="M398.9,102.711,382.665,76.25l14.058-8.586,4.435,33.023Z" transform="translate(-382.664 -67.664)" fill="#e577a0"/>
            </g>
          </g>
        </g>
        <g id="Group_745" data-name="Group 745" transform="translate(271.585 69.155)" style="mix-blend-mode: hard-light;isolation: isolate">
          <g id="Group_744" data-name="Group 744">
            <g id="Group_743" data-name="Group 743" clip-path="url(#clip-path-6)">
              <path id="Path_5977" data-name="Path 5977" d="M502.5,149.1v-13.4L483.32,121.868l-4.718,6.1Z" transform="translate(-478.603 -121.868)" fill="#e86949"/>
            </g>
          </g>
        </g>
        <g id="Group_748" data-name="Group 748" transform="translate(261.458 59.468)" style="mix-blend-mode: hard-light;isolation: isolate">
          <g id="Group_747" data-name="Group 747">
            <g id="Group_746" data-name="Group 746" clip-path="url(#clip-path-7)">
              <path id="Path_5978" data-name="Path 5978" d="M470,104.8h-9.246v2.956l8.554,13.272,3.774-3.429Z" transform="translate(-460.756 -104.798)" fill="#eda39d"/>
            </g>
          </g>
        </g>
        <g id="Group_751" data-name="Group 751" transform="translate(235.637 60.6)" style="mix-blend-mode: hard-light;isolation: isolate">
          <g id="Group_750" data-name="Group 750">
            <g id="Group_749" data-name="Group 749" clip-path="url(#clip-path-8)">
              <path id="Path_5979" data-name="Path 5979" d="M440.351,106.793l10,14.687-27.456,10.1-7.642-6.51Z" transform="translate(-415.253 -106.793)" fill="#de4e40"/>
            </g>
          </g>
        </g>
        <g id="Group_754" data-name="Group 754" transform="translate(225.731 58.673)" style="mix-blend-mode: hard-light;isolation: isolate">
          <g id="Group_753" data-name="Group 753">
            <g id="Group_752" data-name="Group 752" clip-path="url(#clip-path-9)">
              <path id="Path_5980" data-name="Path 5980" d="M431.667,103.4l6.416,11.991-33.117,11.606-7.17-10Z" transform="translate(-397.795 -103.397)" fill="#d6bad0"/>
            </g>
          </g>
        </g>
        <g id="Group_757" data-name="Group 757" transform="translate(226.045 76.137)" style="mix-blend-mode: hard-light;isolation: isolate">
          <g id="Group_756" data-name="Group 756">
            <g id="Group_755" data-name="Group 755" clip-path="url(#clip-path-10)">
              <path id="Path_5981" data-name="Path 5981" d="M414.263,134.173v9.875l-15.914-5.221,3.082-4.655Z" transform="translate(-398.349 -134.173)" fill="#a44e98"/>
            </g>
          </g>
        </g>
        <g id="Group_760" data-name="Group 760" transform="translate(214.974 68.715)" style="mix-blend-mode: hard-light;isolation: isolate">
          <g id="Group_759" data-name="Group 759">
            <g id="Group_758" data-name="Group 758" clip-path="url(#clip-path-11)">
              <path id="Path_5982" data-name="Path 5982" d="M381.01,121.093l-2.17,3.554,11.07,8.649,3.679-4.466Z" transform="translate(-378.84 -121.093)" fill="#3a438c"/>
            </g>
          </g>
        </g>
        <g id="Group_763" data-name="Group 763" transform="translate(223.456 90.667)" style="mix-blend-mode: hard-light;isolation: isolate">
          <g id="Group_762" data-name="Group 762">
            <g id="Group_761" data-name="Group 761" clip-path="url(#clip-path-12)">
              <path id="Path_5983" data-name="Path 5983" d="M406.379,159.847l-12.593-.069,7.37,2.493Z" transform="translate(-393.786 -159.779)" fill="#e26d9d"/>
            </g>
          </g>
        </g>
        <g id="Group_766" data-name="Group 766" transform="translate(211.83 81.169)" style="mix-blend-mode: hard-light;isolation: isolate">
          <g id="Group_765" data-name="Group 765">
            <g id="Group_764" data-name="Group 764" clip-path="url(#clip-path-13)">
              <path id="Path_5984" data-name="Path 5984" d="M396.152,145.972l-3.8,9.06L373.3,148.638l3.837-5.6Z" transform="translate(-373.298 -143.04)" fill="#e64a57"/>
            </g>
          </g>
        </g>
        <g id="Group_769" data-name="Group 769" transform="translate(195.916 68.494)" style="mix-blend-mode: hard-light;isolation: isolate">
          <g id="Group_768" data-name="Group 768">
            <g id="Group_767" data-name="Group 767" clip-path="url(#clip-path-14)">
              <path id="Path_5985" data-name="Path 5985" d="M365,133.379l-3.837,5.6-15.914-14.5,4.057-3.774Z" transform="translate(-345.254 -120.705)" fill="#d27934"/>
            </g>
          </g>
        </g>
        <g id="Group_772" data-name="Group 772" transform="translate(190.249 63.683)" style="mix-blend-mode: hard-light;isolation: isolate">
          <g id="Group_771" data-name="Group 771">
            <g id="Group_770" data-name="Group 770" clip-path="url(#clip-path-15)">
              <path id="Path_5986" data-name="Path 5986" d="M346.124,118.169l-2.765,4.843-8.09-7.314,3.025-3.473Z" transform="translate(-335.268 -112.225)" fill="#beb43e"/>
            </g>
          </g>
        </g>
        <g id="Group_775" data-name="Group 775" transform="translate(211.531 76.656)" style="mix-blend-mode: hard-light;isolation: isolate">
          <g id="Group_774" data-name="Group 774">
            <g id="Group_773" data-name="Group 773" clip-path="url(#clip-path-16)">
              <path id="Path_5987" data-name="Path 5987" d="M395.924,142.532l-6.358-6.076-15.049-1.368-1.745,1.7,3.444,2.972Z" transform="translate(-372.771 -135.087)" fill="#6aa4c5"/>
            </g>
          </g>
        </g>
        <g id="Group_778" data-name="Group 778" transform="translate(195.916 62.11)" style="mix-blend-mode: hard-light;isolation: isolate">
          <g id="Group_777" data-name="Group 777">
            <g id="Group_776" data-name="Group 776" clip-path="url(#clip-path-17)">
              <path id="Path_5988" data-name="Path 5988" d="M348.839,109.454,362.615,124l-1.746,1.7-15.615-12.155Z" transform="translate(-345.254 -109.454)" fill="#80cacc"/>
            </g>
          </g>
        </g>
        <g id="Group_781" data-name="Group 781" transform="translate(272.21 60.6)" style="mix-blend-mode: hard-light;isolation: isolate">
          <g id="Group_780" data-name="Group 780">
            <g id="Group_779" data-name="Group 779" clip-path="url(#clip-path-18)">
              <path id="Path_5989" data-name="Path 5989" d="M503.354,114.09v18.367L482.282,117.8,479.7,106.794Z" transform="translate(-479.703 -106.793)" fill="#753823"/>
            </g>
          </g>
        </g>
        <g id="Group_784" data-name="Group 784" transform="translate(211.326 72.268)" style="mix-blend-mode: hard-light;isolation: isolate">
          <g id="Group_783" data-name="Group 783">
            <g id="Group_782" data-name="Group 782" clip-path="url(#clip-path-19)">
              <path id="Path_5990" data-name="Path 5990" d="M372.411,127.356l11.023.724,5.787,4.041-2.092,2.217-14.719-2.264Z" transform="translate(-372.411 -127.356)" fill="#7ea1d0"/>
            </g>
          </g>
        </g>
        <g id="Group_787" data-name="Group 787" transform="translate(203.039 61.89)" style="mix-blend-mode: hard-light;isolation: isolate">
          <g id="Group_786" data-name="Group 786">
            <g id="Group_785" data-name="Group 785" clip-path="url(#clip-path-20)">
              <path id="Path_5991" data-name="Path 5991" d="M362.053,110.292l-4.246-1.227,3.114,8.115,5.173,6.982v-5.473Z" transform="translate(-357.807 -109.066)" fill="#81c7b4"/>
            </g>
          </g>
        </g>
        <g id="Group_790" data-name="Group 790" transform="translate(210.918 68.715)" style="mix-blend-mode: hard-light;isolation: isolate">
          <g id="Group_789" data-name="Group 789">
            <g id="Group_788" data-name="Group 788" clip-path="url(#clip-path-21)">
              <path id="Path_5992" data-name="Path 5992" d="M385.894,126l-.522-3.946-11.6-.959-2.076,3.13Z" transform="translate(-371.691 -121.093)" fill="#aed3b6"/>
            </g>
          </g>
        </g>
        <g id="Group_793" data-name="Group 793" transform="translate(206.53 61.89)" style="mix-blend-mode: hard-light;isolation: isolate">
          <g id="Group_792" data-name="Group 792">
            <g id="Group_791" data-name="Group 791" clip-path="url(#clip-path-22)">
              <path id="Path_5993" data-name="Path 5993" d="M367.356,109.066h-3.4l2.689,8.775,1.7,1.18,2.076-3.13Z" transform="translate(-363.959 -109.066)" fill="#a4d6dc"/>
            </g>
          </g>
        </g>
        <g id="Group_796" data-name="Group 796" transform="translate(230.897 72.222)" style="mix-blend-mode: hard-light;isolation: isolate">
          <g id="Group_795" data-name="Group 795">
            <g id="Group_794" data-name="Group 794" clip-path="url(#clip-path-23)">
              <path id="Path_5994" data-name="Path 5994" d="M408.015,147.519,406.9,136.96l37.615-9.687,2.767,3.4Z" transform="translate(-406.9 -127.273)" fill="#e68697"/>
            </g>
          </g>
        </g>
      </g>
    </g>
  </g>
</svg>
