<svg xmlns="http://www.w3.org/2000/svg" xmlns:xlink="http://www.w3.org/1999/xlink" width="237.844" height="212.84" viewBox="0 0 237.844 212.84">
  <defs>
    <linearGradient id="linear-gradient" x1="0.876" y1="0.851" x2="0.16" y2="0.146" gradientUnits="objectBoundingBox">
      <stop offset="0" stop-color="#dba73e"/>
      <stop offset="0.213" stop-color="#d89d3a"/>
      <stop offset="0.459" stop-color="#f4f3b8"/>
      <stop offset="0.518" stop-color="#f7ed9a"/>
      <stop offset="0.699" stop-color="#d5b767"/>
      <stop offset="0.796" stop-color="#d0ab5b"/>
      <stop offset="1" stop-color="#e0c77d"/>
    </linearGradient>
    <clipPath id="clip-path">
      <path id="Path_6692" data-name="Path 6692" d="M127.863,1.359a12.668,12.668,0,0,1-5.421,1.346,15.028,15.028,0,0,1-5.8-1.333c-2.066-.761-4.134-1.522-6.107-1.31-3.847.413-6.581,4.417-10.334,5a15.005,15.005,0,0,1-5.951-.055c-2.182-.3-4.364-.6-6.245.034-3.667,1.231-5.477,5.727-9.015,7.11-3.4,1.824-8.6.609-11.915,2.6s-4.118,6.773-7.277,8.885c-2.935,2.514-8.269,2.441-11.08,5.1s-2.564,7.5-5.2,10.239C41.2,42.064,35.973,43.142,33.8,46.34s-.892,7.875-2.872,11.119c-1.607,3.511-6.48,5.686-7.913,9.28s.82,7.882-.418,11.474c-.813,3.777-5.105,6.95-5.732,10.767s2.5,7.52,2.06,11.3c.016,3.864-3.492,7.882-3.287,11.746s4.055,6.809,4.442,10.588c.847,3.772-1.717,8.45-.684,12.178s5.423,5.778,6.613,9.385c1.637,3.5.141,8.622,1.951,12.041s6.539,4.478,8.475,7.747c2.353,3.065,1.991,8.388,4.493,11.338s7.35,2.967,9.944,5.742c2.955,2.488,3.748,7.764,6.828,10.108s7.811,1.318,10.942,3.471c3.42,1.8,5.329,6.778,8.84,8.405,1.8.836,3.844.709,5.879.582a12.662,12.662,0,0,1,5.556.453c3.724,1.018,6.662,5.475,10.44,6.307,1.938.43,3.9-.132,5.861-.692a12.681,12.681,0,0,1,5.528-.752c3.86.191,7.684,3.913,11.554,3.917s7.017-3.678,10.81-3.862a15.042,15.042,0,0,1,5.908.7c2.138.534,4.276,1.068,6.216.643,3.779-.829,6.063-5.1,9.73-6.1a15.06,15.06,0,0,1,5.918-.586c2.2.061,4.407.122,6.211-.711,3.513-1.622,4.824-6.285,8.192-8.044,3.19-2.182,8.485-1.535,11.566-3.871s3.361-7.178,6.27-9.618c2.647-2.817,7.959-3.323,10.465-6.269s1.738-7.73,4.057-10.738c1.981-3.322,7.059-4.954,8.873-8.372s.037-7.925,1.655-11.363c1.217-3.664,5.825-6.355,6.862-10.082s-1.666-7.748-.825-11.454c.4-3.842,4.322-7.458,4.537-11.321s-3.3-7.206-3.271-11.006c-.431-3.838,2.621-8.215,2-12.033s-4.766-6.33-5.559-10.048c-1.247-3.657.793-8.585-.637-12.18s-6.016-5.156-7.588-8.615c-2.006-3.3-1.072-8.555-3.241-11.759s-6.985-3.745-9.264-6.784c-2.667-2.8-2.886-8.125-5.691-10.789s-7.625-2.153-10.5-4.632c-3.208-2.155-4.569-7.314-7.881-9.312s-7.911-.463-11.255-2.267c-3.6-1.413-6.032-6.16-9.695-7.4-1.882-.633-3.9-.287-5.9.059a12.634,12.634,0,0,1-5.576.15C140.857,4.571,137.456.458,133.61.037A6.271,6.271,0,0,0,132.924,0a13.744,13.744,0,0,0-5.061,1.359" transform="translate(-15.628)" fill="url(#linear-gradient)"/>
    </clipPath>
    <clipPath id="clip-path-2">
      <rect id="Rectangle_890" data-name="Rectangle 890" width="237.844" height="212.84" fill="none"/>
    </clipPath>
    <clipPath id="clip-path-3">
      <path id="Path_6694" data-name="Path 6694" d="M65.354,171.527a86.079,86.079,0,1,1,60.99,25.335,86.058,86.058,0,0,1-60.99-25.335M63.9,48.1a88.141,88.141,0,1,0,62.444-25.935A88.105,88.105,0,0,0,63.9,48.1" transform="translate(-37.968 -22.163)" fill="none"/>
    </clipPath>
    <linearGradient id="linear-gradient-3" x1="0.023" y1="0.926" x2="0.026" y2="0.926" gradientUnits="objectBoundingBox">
      <stop offset="0" stop-color="#482a0f"/>
      <stop offset="0.1" stop-color="#a77129"/>
      <stop offset="0.15" stop-color="#fff"/>
      <stop offset="0.22" stop-color="#da9e41"/>
      <stop offset="0.34" stop-color="#8e5923"/>
      <stop offset="0.5" stop-color="#d8a64d"/>
      <stop offset="0.66" stop-color="#f5e380"/>
      <stop offset="0.72" stop-color="#dac164"/>
      <stop offset="0.77" stop-color="#fff"/>
      <stop offset="0.83" stop-color="#a0752b"/>
      <stop offset="1" stop-color="#664219"/>
    </linearGradient>
    <clipPath id="clip-path-4">
      <path id="Path_6695" data-name="Path 6695" d="M56.059,176.2a95.936,95.936,0,1,1,67.974,28.236A95.913,95.913,0,0,1,56.059,176.2M54.439,38.635a98.237,98.237,0,1,0,69.594-28.9,98.2,98.2,0,0,0-69.594,28.9" transform="translate(-25.536 -9.732)" fill="none"/>
    </clipPath>
    <linearGradient id="linear-gradient-4" x1="0.068" y1="0.886" x2="0.071" y2="0.886" xlink:href="#linear-gradient-3"/>
    <clipPath id="clip-path-6">
      <path id="Path_6721" data-name="Path 6721" d="M25.294,178.531l21.891,33.991s30.923-11.558,76.969-11.558c46,0,76.969,11.558,76.969,11.558l21.891-33.991S179.257,161.3,124.154,161.3c-54.716,0-98.86,17.232-98.86,17.232" transform="translate(-25.294 -161.299)" fill="none"/>
    </clipPath>
    <linearGradient id="linear-gradient-5" x1="-0.104" y1="1.592" x2="-0.1" y2="1.592" gradientUnits="objectBoundingBox">
      <stop offset="0" stop-color="#125775"/>
      <stop offset="0.495" stop-color="#259fc9"/>
      <stop offset="1" stop-color="#125775"/>
    </linearGradient>
  </defs>
  <g id="Group_882" data-name="Group 882" transform="translate(-5448.418 -13896.005)">
    <g id="Group_881" data-name="Group 881" transform="translate(5448.418 13896.005)">
      <g id="Group_868" data-name="Group 868" transform="translate(12.723)">
        <g id="Group_867" data-name="Group 867" clip-path="url(#clip-path)">
          <rect id="Rectangle_889" data-name="Rectangle 889" width="213.522" height="212.994" transform="translate(-0.197 -0.151)" fill="url(#linear-gradient)"/>
        </g>
      </g>
      <g id="Group_870" data-name="Group 870">
        <g id="Group_869" data-name="Group 869" clip-path="url(#clip-path-2)">
          <path id="Path_6693" data-name="Path 6693" d="M131.809,202.606a.648.648,0,1,1-1.294.081l-.247-3.693c.434-.022.865-.048,1.3-.081Zm-6.173-3.461h0v3.7a.65.65,0,0,1-1.3,0v-3.7c.219,0,.433.007.652.007s.431-.007.648-.007m-5.744-.138h0l-.235,3.691a.648.648,0,0,1-1.293-.079l.235-3.694c.431.033.861.058,1.293.082m-6.1-.545h0l-.484,3.656a.649.649,0,0,1-1.286-.169l.488-3.66c.428.059.855.12,1.281.173m-5.672-.9h0l-.717,3.618a.649.649,0,0,1-1.275-.247l.72-3.612c.422.085.848.161,1.272.242m-5.793-1.291h0l-.952,3.55a.648.648,0,1,1-1.251-.335l.952-3.556c.417.113.834.23,1.251.341m-5.511-1.626h0l-1.176,3.485a.648.648,0,0,1-1.228-.413l1.176-3.487q.612.211,1.228.414m-5.751-2.117h0l-1.411,3.4a.649.649,0,0,1-1.2-.5l1.411-3.392c.4.167.8.327,1.2.493M85.812,190.2h0l-1.627,3.3a.648.648,0,0,1-1.162-.574l1.627-3.3c.387.191.77.388,1.162.576m-5.253-2.769h0l-1.841,3.2a.648.648,0,0,1-1.123-.646l1.846-3.2c.369.217.742.433,1.118.647m-4.9-3h0L73.613,187.5a.647.647,0,1,1-1.079-.715l2.047-3.074c.357.242.72.477,1.081.715M70.656,180.9h0L68.4,183.83a.648.648,0,0,1-1.026-.794l2.252-2.927c.341.265.682.527,1.028.787m-4.465-3.615h0l-2.436,2.783a.648.648,0,0,1-.975-.854l2.441-2.788c.32.289.643.579.97.859m-4.359-4.026h0l-2.618,2.618a.648.648,0,1,1-.915-.918l2.616-2.619c.307.309.611.618.917.919m-3.96-4.16h0l-2.78,2.445a.648.648,0,1,1-.856-.973l2.776-2.445c.283.329.574.651.86.973m-3.925-4.705h0L51.01,166.64a.648.648,0,0,1-.786-1.03l2.934-2.247c.261.344.523.687.789,1.027m-3.384-4.643h0L47.495,161.8a.647.647,0,0,1-.719-1.076l3.07-2.052c.238.36.475.719.717,1.075m-3.172-5.016h0l-3.2,1.846a.646.646,0,1,1-.643-1.121l3.192-1.841c.212.373.431.747.65,1.116m-2.755-5.041h0l-3.3,1.635a.647.647,0,0,1-.574-1.16l3.3-1.633q.286.581.578,1.158m-2.577-5.559h0l-3.4,1.4a.647.647,0,0,1-.491-1.2l3.4-1.4c.161.4.322.8.491,1.2M40,138.768h0l-3.48,1.186a.65.65,0,0,1-.418-1.23l3.481-1.184q.208.615.417,1.228M38.238,133.1h0l-3.557.953a.649.649,0,0,1-.335-1.254l3.553-.953c.108.422.223.837.339,1.254m-1.348-5.584h0l-3.612.725a.65.65,0,0,1-.252-1.276l3.612-.726c.083.426.164.854.252,1.277m-1.033-6.044h0l-3.66.479a.648.648,0,1,1-.171-1.285l3.665-.478c.05.43.108.856.166,1.283m-.6-5.712h0l-3.693.243a.648.648,0,1,1-.081-1.294l3.69-.243c.025.431.05.863.083,1.294m-.235-5.93h-3.7a.649.649,0,0,1,0-1.3h3.7c0,.218-.007.431-.007.65s0,.43.007.647m.141-5.742h0l-3.693-.235a.649.649,0,1,1,.084-1.294l3.69.237c-.03.427-.058.86-.081,1.293m.546-6.1h0L32.053,97.5a.647.647,0,1,1,.169-1.284l3.66.487c-.058.427-.12.852-.17,1.285m.892-5.674h0L32.989,91.6a.649.649,0,1,1,.249-1.275l3.612.717c-.088.423-.166.851-.247,1.276m1.3-5.794h0l-3.553-.954a.648.648,0,0,1,.335-1.251l3.557.951c-.116.42-.23.837-.339,1.254m1.625-5.511h0l-3.483-1.177a.647.647,0,1,1,.41-1.227l3.485,1.177c-.138.409-.277.815-.413,1.227m2.116-5.752h0l-3.4-1.411a.648.648,0,0,1,.5-1.2l3.393,1.408q-.249.6-.493,1.2m2.333-5.248h0l-3.3-1.626a.648.648,0,0,1,.571-1.164l3.306,1.627c-.194.388-.388.773-.579,1.163m2.768-5.255h0l-3.192-1.843a.646.646,0,1,1,.643-1.12l3.2,1.846c-.219.372-.438.743-.65,1.117m3-4.9h0l-3.075-2.045a.649.649,0,0,1,.719-1.081l3.071,2.046c-.242.357-.477.719-.715,1.08m3.536-5.007h0L50.344,52.6a.647.647,0,0,1,.79-1.026l2.93,2.251c-.267.344-.528.685-.788,1.027m3.612-4.462h0l-2.78-2.439a.646.646,0,1,1,.851-.974l2.787,2.441c-.286.323-.576.643-.857.972m4.026-4.357h0L58.3,43.413a.649.649,0,0,1,.915-.92l2.618,2.619c-.306.306-.611.612-.917.922m4.163-3.964h0l-2.445-2.775a.649.649,0,1,1,.973-.86l2.443,2.775c-.327.285-.65.573-.97.86m4.7-3.926h0L67.533,35.21a.648.648,0,1,1,1.03-.787l2.245,2.933c-.344.262-.687.523-1.026.787m4.643-3.382h0l-2.054-3.069a.648.648,0,0,1,1.076-.72L75.5,34.045c-.36.236-.721.474-1.076.716m5.016-3.172h0l-1.846-3.2a.647.647,0,1,1,1.123-.644l1.841,3.191c-.375.213-.749.431-1.118.65m5.039-2.757h0l-1.632-3.3a.647.647,0,1,1,1.159-.574l1.635,3.3c-.39.192-.775.383-1.162.577m5.562-2.577h0l-1.4-3.4a.647.647,0,0,1,1.2-.492l1.406,3.4c-.4.164-.8.324-1.2.49M95.4,24.2h0l-1.184-3.485a.648.648,0,0,1,1.228-.416l1.184,3.482c-.41.136-.821.278-1.228.419m5.668-1.763h0l-.952-3.557a.644.644,0,0,1,.456-.794.652.652,0,0,1,.8.46l.949,3.549c-.417.11-.834.225-1.251.341m5.583-1.35h0l-.724-3.61a.648.648,0,1,1,1.272-.252l.726,3.615c-.423.083-.85.161-1.274.248m6.041-1.033h0l-.477-3.659a.648.648,0,0,1,1.284-.171l.477,3.665c-.427.053-.855.111-1.284.165m5.714-.6h0l-.244-3.69a.648.648,0,1,1,1.294-.08l.244,3.689q-.647.034-1.294.081m5.926-.231h0v-3.7a.65.65,0,1,1,1.3,0v3.7c-.217,0-.433-.007-.648-.007s-.433,0-.652.007m5.744.137h0l.235-3.692a.649.649,0,0,1,1.3.082l-.237,3.693c-.431-.031-.86-.058-1.294-.084m6.1.546h0l.486-3.656a.647.647,0,1,1,1.284.168l-.486,3.661c-.427-.059-.855-.117-1.284-.173m5.672.9h0l.717-3.615a.649.649,0,1,1,1.275.247l-.715,3.612c-.427-.088-.851-.164-1.277-.243M147.65,22.1h0l.952-3.551a.649.649,0,1,1,1.254.335l-.952,3.557c-.417-.116-.834-.231-1.254-.341m5.511,1.627h0l1.178-3.484a.648.648,0,0,1,1.228.411l-1.178,3.486c-.408-.138-.818-.279-1.228-.413m5.751,2.116h0l1.41-3.4a.645.645,0,0,1,.848-.35.652.652,0,0,1,.353.847l-1.413,3.395c-.4-.171-.8-.329-1.2-.494m5.251,2.336h0l1.625-3.3a.65.65,0,0,1,1.164.576l-1.63,3.3c-.385-.2-.773-.387-1.159-.575m5.253,2.765h0l1.841-3.191a.646.646,0,1,1,1.123.641l-1.846,3.2c-.371-.219-.745-.437-1.118-.65m4.9,3h0l2.047-3.074a.649.649,0,0,1,1.081.717l-2.047,3.072c-.357-.242-.72-.478-1.081-.716m5.007,3.536h0l2.254-2.931a.648.648,0,0,1,1.026.791l-2.254,2.927c-.339-.264-.682-.527-1.026-.787m4.464,3.611h0l2.434-2.781a.649.649,0,0,1,.978.852l-2.441,2.787c-.322-.287-.643-.576-.97-.859m4.357,4.027h0l2.618-2.619a.649.649,0,1,1,.917.919l-2.618,2.621c-.3-.309-.611-.615-.917-.922m3.96,4.162h0l2.78-2.447a.65.65,0,0,1,.857.976l-2.775,2.439c-.283-.324-.574-.646-.862-.968m3.928,4.7h0l2.937-2.246a.647.647,0,1,1,.786,1.028l-2.936,2.248c-.258-.344-.521-.686-.786-1.031m3.384,4.646h0l3.066-2.053a.648.648,0,0,1,.721,1.077L200.127,59.7c-.238-.358-.473-.719-.715-1.075m3.172,5.016h0l3.2-1.846a.646.646,0,0,1,.646,1.12l-3.192,1.843c-.215-.374-.431-.745-.65-1.117m2.755,5.039h0l3.3-1.634a.648.648,0,0,1,.574,1.161l-3.3,1.635c-.189-.392-.383-.777-.576-1.162m2.577,5.562h0l3.4-1.405a.647.647,0,1,1,.488,1.2l-3.4,1.405c-.162-.4-.323-.8-.489-1.2m2.056,5.362h0l3.485-1.185a.649.649,0,1,1,.415,1.23l-3.481,1.182c-.136-.409-.274-.819-.419-1.227m1.766,5.665h0l3.554-.951a.648.648,0,1,1,.337,1.251l-3.555.954c-.108-.418-.221-.834-.336-1.254m1.348,5.585h0l3.61-.724a.65.65,0,1,1,.254,1.274l-3.615.726c-.083-.426-.161-.852-.249-1.276m1.031,6.042h0l3.663-.476a.647.647,0,1,1,.169,1.283l-3.663.479c-.05-.43-.108-.858-.169-1.286m.6,5.714h0l3.693-.244a.648.648,0,0,1,.081,1.294l-3.693.243c-.023-.431-.048-.861-.081-1.293m.233,5.927h3.7a.649.649,0,0,1,0,1.3h-3.7c0-.217.01-.431.01-.647s-.01-.432-.01-.65m-.141,5.744h0l3.693.235a.648.648,0,1,1-.081,1.294l-3.69-.236c.028-.429.055-.86.078-1.293m-.545,6.1h0l3.66.488a.647.647,0,1,1-.169,1.282l-3.663-.484c.06-.427.12-.853.171-1.285m-.892,5.677h0l3.616.713a.649.649,0,1,1-.249,1.275l-3.612-.716c.088-.422.164-.85.245-1.272m-1.3,5.791h0l3.555.953a.649.649,0,0,1-.337,1.254l-3.554-.953c.116-.417.228-.832.336-1.254m-1.622,5.512h0l3.485,1.178a.647.647,0,0,1-.413,1.226l-3.488-1.177c.143-.409.279-.817.415-1.227m-2.118,5.751h0l3.4,1.411a.649.649,0,0,1-.5,1.2l-3.4-1.411c.169-.4.33-.8.493-1.2M206,148.359h0l3.3,1.628a.647.647,0,0,1-.571,1.162l-3.306-1.626c.192-.389.388-.773.576-1.164m-2.765,5.256h0l3.192,1.841a.647.647,0,0,1-.646,1.121l-3.2-1.846c.219-.37.436-.743.65-1.116m-3,4.9h0l3.075,2.047a.649.649,0,0,1-.717,1.081l-3.072-2.047c.242-.357.477-.718.715-1.081m-3.534,5h0l2.932,2.256a.648.648,0,0,1-.79,1.027l-2.93-2.254c.263-.341.525-.685.788-1.028m-3.612,4.464h0l2.78,2.439a.648.648,0,1,1-.855.974l-2.783-2.442c.283-.323.574-.641.857-.97m-4.029,4.358h0l2.618,2.619a.649.649,0,1,1-.917.918l-2.618-2.618c.307-.3.613-.61.917-.919M184.9,176.3h0l2.448,2.783a.648.648,0,0,1-.975.855l-2.441-2.775c.325-.285.646-.575.968-.862m-4.7,3.928h0l2.247,2.936a.648.648,0,1,1-1.03.786l-2.248-2.936c.346-.259.69-.523,1.031-.787m-4.645,3.382h0l2.051,3.07a.646.646,0,1,1-1.074.719l-2.056-3.072c.362-.239.721-.475,1.079-.716m-5.016,3.173h0l1.846,3.2a.648.648,0,0,1-1.123.646l-1.841-3.2c.373-.214.747-.43,1.118-.647m-5.042,2.753h0l1.637,3.3a.649.649,0,1,1-1.164.575l-1.634-3.3c.389-.188.777-.383,1.161-.576m-5.559,2.577h0l1.4,3.4a.648.648,0,0,1-1.2.494l-1.4-3.4c.4-.165.8-.324,1.2-.493m-5.364,2.055h0l1.184,3.488a.648.648,0,1,1-1.226.418l-1.184-3.484c.41-.136.821-.276,1.226-.421m-5.666,1.767h0l.952,3.556a.649.649,0,1,1-1.254.335l-.949-3.55c.417-.111.834-.228,1.251-.341m-5.583,1.349h0l.724,3.61a.651.651,0,0,1-1.276.254l-.722-3.617c.424-.081.848-.161,1.275-.247m-6.044,1.031h0l.48,3.663a.647.647,0,1,1-1.284.169l-.479-3.662c.429-.053.857-.108,1.284-.169" transform="translate(-5.703 -2.764)" fill="#6c4e31" fill-rule="evenodd"/>
        </g>
      </g>
      <g id="Group_872" data-name="Group 872" transform="translate(30.909 18.042)">
        <g id="Group_871" data-name="Group 871" clip-path="url(#clip-path-3)">
          <rect id="Rectangle_891" data-name="Rectangle 891" width="249.815" height="249.815" transform="matrix(0.731, -0.682, 0.682, 0.731, -88.162, 82.213)" fill="url(#linear-gradient-3)"/>
        </g>
      </g>
      <g id="Group_874" data-name="Group 874" transform="translate(20.788 7.923)">
        <g id="Group_873" data-name="Group 873" clip-path="url(#clip-path-4)">
          <rect id="Rectangle_892" data-name="Rectangle 892" width="275.879" height="275.88" transform="matrix(0.799, -0.602, 0.602, 0.799, -94.682, 71.348)" fill="url(#linear-gradient-4)"/>
        </g>
      </g>
      <g id="Group_876" data-name="Group 876">
        <g id="Group_875" data-name="Group 875" clip-path="url(#clip-path-2)">
          <path id="Path_6696" data-name="Path 6696" d="M88.414,75.226H82.4V69.865h17.832v5.361H94.189v32.083H88.414Z" transform="translate(-15.321 -12.989)" fill="#4d350b"/>
          <path id="Path_6697" data-name="Path 6697" d="M124.634,79.676V97.163c0,7.175-3.045,10.568-9.388,10.568-6.085,0-8.826-3.48-8.826-10.469V79.635c0-7.171,3.61-10.443,9.191-10.443,5.678,0,9.023,3.281,9.023,10.484M112.3,79.112V97.946c0,3.11,1.123,4.573,3.206,4.573,2.244,0,3.248-1.364,3.248-4.657V79.069c0-2.972-.913-4.616-3.255-4.616-2.08,0-3.2,1.49-3.2,4.658" transform="translate(-19.786 -12.864)" fill="#4d350b"/>
          <path id="Path_6698" data-name="Path 6698" d="M134.047,69.865h8.328c5.946,0,8.978,2.936,8.978,9.559V81.63c0,6.18-2.207,10.285-9.3,10.285h-2.231v15.393h-5.774ZM139.821,87.2H141.4c3.6,0,4.218-2.1,4.218-5.756V79.6c0-2.721-.5-4.966-3.7-4.966h-2.1Z" transform="translate(-24.922 -12.989)" fill="#4d350b"/>
          <path id="Path_6699" data-name="Path 6699" d="M169.471,107.5v-29.8a29.022,29.022,0,0,1-3.679.156V73.484a7.843,7.843,0,0,0,5.232-2.6h4.221V107.5Z" transform="translate(-30.825 -13.178)" fill="#4d350b"/>
          <path id="Path_6700" data-name="Path 6700" d="M200.717,80.242V97.724c0,5.519-1.658,10.161-8.755,10.161-6.564,0-8.349-4.579-8.349-10.1V80.643c0-6.32,2.72-10.09,8.664-10.09,5.834,0,8.44,3.671,8.44,9.689M189.3,79.953v18.5c0,2.722.816,4.2,2.877,4.2s2.812-1.529,2.812-4.358V79.812c0-2.519-.79-4.026-2.819-4.026-1.937,0-2.87,1.333-2.87,4.168" transform="translate(-34.138 -13.117)" fill="#4d350b"/>
          <path id="Path_6701" data-name="Path 6701" d="M84.486,135.829l-.763,5.821H80.309l3.506-21.765h4.742L92.2,141.65H88.69l-.857-5.821Zm2.951-3.087c-.5-3.7-.973-7.205-1.222-9.666h-.122c-.094,1.794-.749,6.455-1.183,9.666Z" transform="translate(-14.931 -22.289)" fill="#4d350b"/>
          <path id="Path_6702" data-name="Path 6702" d="M97.1,123H93.609v-3.116h10.366V123h-3.514V141.65H97.1Z" transform="translate(-17.404 -22.289)" fill="#4d350b"/>
          <path id="Path_6703" data-name="Path 6703" d="M110.955,123h-3.495v-3.116h10.366V123h-3.514V141.65h-3.357Z" transform="translate(-19.979 -22.289)" fill="#4d350b"/>
          <path id="Path_6704" data-name="Path 6704" d="M132.012,125.589v10.165c0,4.171-1.769,6.142-5.458,6.142-3.536,0-5.13-2.023-5.13-6.085V125.564c0-4.168,2.1-6.068,5.343-6.068,3.3,0,5.245,1.906,5.245,6.093m-7.17-.328v10.947c0,1.809.653,2.658,1.863,2.658,1.3,0,1.888-.792,1.888-2.707V125.236c0-1.727-.529-2.682-1.891-2.682-1.21,0-1.86.865-1.86,2.708" transform="translate(-22.575 -22.217)" fill="#4d350b"/>
          <path id="Path_6705" data-name="Path 6705" d="M140.844,131.918v9.732h-3.357V119.886h4.649c3.312,0,5.267,1.326,5.267,5.244v.829c0,3.344-1.373,4.2-2.215,4.541,1.269.6,1.994,1.51,1.994,4.464a60.169,60.169,0,0,0,.2,6.687H144.14a46.871,46.871,0,0,1-.228-6.47c0-2.653-.341-3.262-2.291-3.262Zm0-2.771h.769c1.775,0,2.428-.67,2.428-3.037v-.747c0-1.681-.348-2.706-2.249-2.706h-.948Z" transform="translate(-25.562 -22.29)" fill="#4d350b"/>
          <path id="Path_6706" data-name="Path 6706" d="M152.738,141.65V119.885h3.886c.869,3.072,3.466,13.815,3.7,14.968h.037c-.155-2.678-.163-5.74-.163-9.316v-5.652h3.1V141.65h-3.74c-.686-2.6-3.584-14.537-3.8-15.451h-.032c.16,2.636.146,5.585.146,9.5v5.952Z" transform="translate(-28.397 -22.289)" fill="#4d350b"/>
          <path id="Path_6707" data-name="Path 6707" d="M177.417,131.708h-4.784v6.855h5.514l-.424,3.087h-8.446V119.885h8.405V123h-5.049v5.62h4.784Z" transform="translate(-31.472 -22.289)" fill="#4d350b"/>
          <path id="Path_6708" data-name="Path 6708" d="M185.134,141.65v-7.709a2.184,2.184,0,0,0-.122-.739l-4.057-13.317h3.714c.872,3.536,1.87,7.591,2.2,9.963h.033c.449-2.572,1.426-6.492,2.229-9.963H192.7l-4.144,13.6a3.936,3.936,0,0,0-.064.829v7.332Z" transform="translate(-33.644 -22.289)" fill="#4d350b"/>
          <path id="Path_6709" data-name="Path 6709" d="M199.251,135.165v1.346c0,1.619.485,2.52,1.761,2.52,1.308,0,1.647-1.238,1.647-2.653,0-2.338-.5-3.064-2.839-4.906s-3.592-3.032-3.592-6.254c0-2.868.869-5.763,4.8-5.759,4.017,0,4.637,2.868,4.637,5.23v1.162h-3.328v-1.073c0-1.515-.255-2.432-1.37-2.432-1.091,0-1.378.948-1.378,2.391,0,1.538.291,2.291,2.2,3.69,3.256,2.409,4.254,3.807,4.254,7.449,0,3.087-1.08,6.014-5.143,6.014-4.026,0-5.007-2.565-5.007-5.432v-1.292Z" transform="translate(-36.421 -22.21)" fill="#4d350b"/>
          <rect id="Rectangle_893" data-name="Rectangle 893" width="2.251" height="2.391" transform="translate(99.771 179.548)" fill="#4d350b"/>
          <path id="Path_6710" data-name="Path 6710" d="M133.537,225.928V225.8c.024-1.9.61-2.8,1.7-4.389a3.981,3.981,0,0,0,1.041-2.642c0-.807-.073-1.265-.631-1.265-.492,0-.679.349-.679,1.052v.486h-1.4v-.527c0-1.106.35-2.284,2.146-2.284,1.657,0,2.086,1.122,2.086,2.448a4.867,4.867,0,0,1-1.26,3.357,6.435,6.435,0,0,0-1.291,2.581h2.77l-.212,1.31Z" transform="translate(-24.828 -40.202)" fill="#4d350b"/>
          <path id="Path_6711" data-name="Path 6711" d="M145.23,218.725V223.4c0,1.4-.436,2.641-2.308,2.641-1.73,0-2.192-1.219-2.192-2.625V218.74c0-1.447.709-2.508,2.275-2.508,1.635,0,2.225,1.2,2.225,2.493m-3.008-.1v5.015c0,.624.212,1.066.754,1.066s.751-.418.751-1.109v-5c0-.664-.208-1.048-.752-1.048s-.752.425-.752,1.071" transform="translate(-26.165 -40.202)" fill="#4d350b"/>
          <path id="Path_6712" data-name="Path 6712" d="M148.763,225.943v-7.881a5.287,5.287,0,0,1-.926.02v-1.117a1.846,1.846,0,0,0,1.294-.649h1.11v9.626Z" transform="translate(-27.486 -40.218)" fill="#4d350b"/>
          <path id="Path_6713" data-name="Path 6713" d="M153.076,223.6v-.763a1.976,1.976,0,0,1,.914-1.955,2.034,2.034,0,0,1-.783-1.933v-.414a2.022,2.022,0,0,1,2.2-2.285c1.19,0,2.1.643,2.1,2.305v.408c0,1.273-.374,1.629-.763,1.92.48.278.9.74.9,1.963v.717c0,1.824-.887,2.485-2.323,2.485-1.184,0-2.245-.517-2.245-2.446m3.053.076v-1.145c0-.737-.306-.994-.793-.994s-.755.284-.755,1.017v1.131c0,.646.212,1.078.767,1.078.531,0,.782-.35.782-1.086m-1.492-5.169v.755c0,.638.26.977.725.977s.7-.306.7-.977v-.782c0-.556-.159-.96-.712-.96s-.713.386-.713.987" transform="translate(-28.46 -40.205)" fill="#4d350b"/>
          <rect id="Rectangle_894" data-name="Rectangle 894" width="2.251" height="2.391" transform="translate(136.01 179.548)" fill="#4d350b"/>
          <path id="Path_6714" data-name="Path 6714" d="M144.984,45.915l1.155,2.341,2.584.375-1.87,1.822.442,2.573-2.311-1.215-2.311,1.215.442-2.573-1.87-1.822,2.584-.375Z" transform="translate(-26.261 -8.537)" fill="#4d350b"/>
          <path id="Path_6715" data-name="Path 6715" d="M130.156,48.405l.954,1.934,2.135.31L131.7,52.155l.365,2.126-1.909-1-1.909,1,.365-2.126-1.544-1.505,2.135-.31Z" transform="translate(-23.625 -9)" fill="#4d350b"/>
          <path id="Path_6716" data-name="Path 6716" d="M116.9,50.916l.787,1.595,1.759.256-1.273,1.241.3,1.753-1.574-.828-1.574.828.3-1.753-1.273-1.241,1.759-.256Z" transform="translate(-21.261 -9.466)" fill="#4d350b"/>
          <path id="Path_6717" data-name="Path 6717" d="M158.98,48.405l.954,1.934,2.135.31-1.544,1.505.365,2.126-1.909-1-1.909,1,.365-2.126-1.544-1.505,2.135-.31Z" transform="translate(-28.984 -9)" fill="#4d350b"/>
          <path id="Path_6718" data-name="Path 6718" d="M172.947,50.916l.787,1.595,1.759.256-1.273,1.241.3,1.753-1.574-.828-1.574.828.3-1.753L170.4,52.767l1.759-.256Z" transform="translate(-31.681 -9.466)" fill="#4d350b"/>
          <path id="Path_6719" data-name="Path 6719" d="M25.5,170.218,0,176.5l22.542,10.62-7.152,19.941,23.7-7.658Z" transform="translate(0 -31.647)" fill="#125775"/>
          <path id="Path_6720" data-name="Path 6720" d="M257.734,170.218l25.5,6.285L260.7,187.124l7.152,19.941-23.7-7.658Z" transform="translate(-45.393 -31.647)" fill="#125775"/>
        </g>
      </g>
      <g id="Group_878" data-name="Group 878" transform="translate(20.591 131.31)">
        <g id="Group_877" data-name="Group 877" clip-path="url(#clip-path-6)">
          <rect id="Rectangle_896" data-name="Rectangle 896" width="197.72" height="51.223" transform="translate(0 0)" fill="url(#linear-gradient-5)"/>
        </g>
      </g>
      <g id="Group_880" data-name="Group 880">
        <g id="Group_879" data-name="Group 879" clip-path="url(#clip-path-2)">
          <path id="Path_6722" data-name="Path 6722" d="M54.578,197.205l.409,4.559-2.079.484L51.839,186.4l2.9-.675L60.865,200.4l-2.141.5-1.7-4.258Zm1.755-2.392c-1.1-2.818-2.044-5.254-2.58-6.824l-.077.018c.222,1.24.5,4.694.729,7.253Z" transform="translate(-9.638 -34.531)" fill="#fff"/>
          <path id="Path_6723" data-name="Path 6723" d="M61.842,191.958c-.438-2.27-.553-2.873-.682-3.419l1.968-.379a7.9,7.9,0,0,1,.285,1.057,2.18,2.18,0,0,1,1.816-1.652,1.793,1.793,0,0,1,2.126.954,2.427,2.427,0,0,1,1.982-1.745c1.233-.239,2.407.152,2.85,2.454l1.758,9.127-2.064.4L70.2,190.016c-.166-.868-.477-1.386-1.248-1.237-.946.182-1.014,1.011-.779,2.224l1.571,8.162-2.079.4L66,190.9c-.223-1.162-.611-1.438-1.275-1.309-.943.181-1,1.022-.763,2.243l1.568,8.14-2.064.4Z" transform="translate(-11.371 -34.714)" fill="#fff"/>
          <path id="Path_6724" data-name="Path 6724" d="M79.305,192.113l.291,1.832c.164,1.031.545,2,1.561,1.84s1.037-1.063.882-2.038l-.011-.074,2.028-.322.01.068c.208,1.3.286,3.666-2.594,4.123-2.805.445-3.58-1.251-3.964-3.664l-.655-4.126c-.27-1.7-.067-4.057,2.673-4.493,2.441-.387,3.475,1.2,3.832,3.45l.428,2.693Zm2.223-2.043-.212-1.333c-.175-1.106-.525-1.873-1.519-1.715-.915.146-1.141.9-.949,2.115l.211,1.325Z" transform="translate(-14.272 -34.433)" fill="#fff"/>
          <path id="Path_6725" data-name="Path 6725" d="M86.488,188.5c-.27-1.96-.383-2.906-.582-4.055l1.978-.272c.06.262.228,1.19.326,1.9a2.608,2.608,0,0,1,2.3-2.435l.354,2.57c-1.411.2-2.443.91-2.123,3.238l.918,6.663-2.083.288Z" transform="translate(-15.972 -34.142)" fill="#fff"/>
          <path id="Path_6726" data-name="Path 6726" d="M92.14,178.407l2.086-.256.308,2.5-2.086.256Zm.509,4.271,2.086-.256L96.208,194.4l-2.086.256Z" transform="translate(-17.131 -33.122)" fill="#fff"/>
          <path id="Path_6727" data-name="Path 6727" d="M104.452,190.455l.017.164c.226,2.126-.12,3.982-2.772,4.264-2.589.277-3.308-1.423-3.57-3.88l-.462-4.341c-.212-1.988.279-3.886,2.824-4.157,2.733-.291,3.293,1.66,3.456,3.193l.05.465-2.064.218-.05-.466c-.106-.992-.347-1.727-1.242-1.632-.8.085-1.028.727-.9,1.91l.551,5.175c.1.938.372,1.83,1.277,1.734.841-.09,1-.735.875-1.938l-.052-.49Z" transform="translate(-18.15 -33.927)" fill="#fff"/>
          <path id="Path_6728" data-name="Path 6728" d="M113.586,191.27c.066.783.168,1.885.243,2.3l-1.923.164c-.076-.247-.19-.725-.221-.908A2.012,2.012,0,0,1,109.8,194.1c-1.776.151-2.628-1.406-2.783-3.237l-.019-.21c-.243-2.859,1.55-3.877,3.7-4.061l.379-.033-.143-1.685c-.085-1-.279-1.587-1.1-1.517s-.952.7-.882,1.531l.021.248-2.061.176-.018-.216c-.146-1.713.392-3.261,2.865-3.471,2.226-.19,3.082,1.039,3.241,2.909Zm-2.323-3.1c-.121.011-.374.032-.477.039-1.2.1-1.919.647-1.783,2.242l.016.194c.08.942.459,1.627,1.285,1.557.927-.078,1.233-.8,1.088-2.5Z" transform="translate(-19.872 -33.764)" fill="#fff"/>
          <path id="Path_6729" data-name="Path 6729" d="M116.74,184.951c-.153-2.432-.2-3.127-.256-3.692l2-.126a8.758,8.758,0,0,1,.151,1.136,2.222,2.222,0,0,1,2.129-1.466c1.4-.088,2.483.678,2.624,2.927l.575,9.141-2.1.133-.55-8.742c-.07-1.119-.481-1.561-1.229-1.514-.918.057-1.346.558-1.227,2.46l.5,7.954-2.1.131Z" transform="translate(-21.657 -33.614)" fill="#fff"/>
          <path id="Path_6730" data-name="Path 6730" d="M133.7,188.266c.073,1.957-.1,3.606-2.714,3.7a7.807,7.807,0,0,1-1.146-.054l-.067-1.8a5.448,5.448,0,0,0,.736.02c.843-.032,1.147-.289,1.1-1.521l-.467-12.526,2.1-.079Z" transform="translate(-24.127 -32.724)" fill="#fff"/>
          <path id="Path_6731" data-name="Path 6731" d="M143.254,188.845c.034,1.684.057,2.8.093,3.41l-2,.041a9.51,9.51,0,0,1-.1-1.188,2.078,2.078,0,0,1-2.187,1.422c-1.067.022-2.386-.427-2.439-3.064l-.186-9.13,2.1-.042.176,8.583c.025,1.242.383,1.762,1.175,1.747.809-.017,1.3-.528,1.262-2.4l-.163-7.979,2.1-.042Z" transform="translate(-25.365 -33.503)" fill="#fff"/>
          <path id="Path_6732" data-name="Path 6732" d="M146.913,184.24c-.013-1.978,0-2.931-.048-4.1l2-.011c.025.268.071,1.208.075,1.924a2.606,2.606,0,0,1,2.6-2.113l.015,2.594c-1.425.015-2.541.584-2.527,2.934l.04,6.726-2.1.012Z" transform="translate(-27.306 -33.456)" fill="#fff"/>
          <path id="Path_6733" data-name="Path 6733" d="M153.731,179.2l2.1.02-.112,12.065-2.1-.02Zm.057-4.3,2.1.02-.023,2.517-2.1-.02Z" transform="translate(-28.561 -32.518)" fill="#fff"/>
          <path id="Path_6734" data-name="Path 6734" d="M159.8,188.61l-.013.541c-.021.922.279,1.564,1.086,1.583.761.018,1.086-.445,1.109-1.377s-.237-1.491-1.638-2.451c-1.614-1.1-2.373-1.986-2.332-3.689.046-1.93,1.073-3.177,3.119-3.129,2.219.054,2.99,1.371,2.942,3.414l-.013.512-2.034-.049.017-.712c.021-.917-.256-1.366-.952-1.382-.678-.015-.965.461-.983,1.219-.02.786.226,1.143,1.351,1.913,1.937,1.314,2.7,2.178,2.655,4.158-.054,2.257-1.167,3.405-3.352,3.354-2.564-.061-3.137-1.723-3.1-3.418l.013-.54Z" transform="translate(-29.313 -33.482)" fill="#fff"/>
          <path id="Path_6735" data-name="Path 6735" d="M166.322,179.77l1.321.052.117-2.922,2.094.084-.116,2.922,1.59.064-.074,1.85-1.59-.064-.3,7.53c-.023.591.048,1.108.789,1.138a3.074,3.074,0,0,0,.7-.043l-.063,1.6a3.73,3.73,0,0,1-1.407.16c-1.366-.055-2.205-.574-2.126-2.56l.316-7.908-1.323-.052Z" transform="translate(-30.909 -32.89)" fill="#fff"/>
          <rect id="Rectangle_897" data-name="Rectangle 897" width="15.679" height="2.103" transform="matrix(0.058, -0.998, 0.998, 0.058, 143.518, 159.322)" fill="#fff"/>
          <path id="Path_6736" data-name="Path 6736" d="M181.479,184.886c.183-2.43.235-3.123.256-3.69l2,.15a8.591,8.591,0,0,1-.006,1.146,2.222,2.222,0,0,1,2.31-1.159c1.4.106,2.367,1.015,2.2,3.26l-.691,9.134-2.1-.158.661-8.734c.085-1.119-.261-1.613-1.009-1.671-.917-.068-1.409.37-1.553,2.269l-.6,7.947-2.1-.159Z" transform="translate(-33.624 -33.688)" fill="#fff"/>
          <path id="Path_6737" data-name="Path 6737" d="M192.912,190.511l-.052.538c-.09.917.164,1.582.967,1.659.759.074,1.117-.366,1.207-1.291s-.128-1.506-1.456-2.566c-1.53-1.219-2.221-2.154-2.057-3.85.187-1.922,1.3-3.091,3.339-2.893,2.21.215,2.883,1.586,2.686,3.62l-.05.509-2.027-.2.069-.707c.089-.913-.155-1.382-.848-1.449-.677-.065-1,.39-1.07,1.145-.075.782.142,1.157,1.208,2.008,1.837,1.451,2.535,2.371,2.344,4.341-.217,2.247-1.413,3.312-3.588,3.1-2.553-.248-3-1.946-2.84-3.636l.053-.537Z" transform="translate(-35.458 -33.854)" fill="#fff"/>
          <path id="Path_6738" data-name="Path 6738" d="M200.158,182.154l1.314.151.335-2.9,2.082.239-.335,2.9,1.581.182-.212,1.838-1.58-.182-.862,7.485c-.068.589-.035,1.109.7,1.193a2.958,2.958,0,0,0,.7.011l-.182,1.589a3.718,3.718,0,0,1-1.416.055c-1.357-.157-2.156-.738-1.928-2.711l.905-7.861-1.315-.151Z" transform="translate(-37.175 -33.355)" fill="#fff"/>
          <path id="Path_6739" data-name="Path 6739" d="M207.2,182.672l2.084.267L207.75,194.9l-2.086-.267Zm.563-4.263,2.085.267-.321,2.5-2.084-.267Z" transform="translate(-38.238 -33.17)" fill="#fff"/>
          <path id="Path_6740" data-name="Path 6740" d="M211.143,183.488l1.31.187.411-2.895,2.075.294-.412,2.895,1.574.224-.26,1.833-1.574-.223-1.061,7.46c-.083.585-.065,1.106.669,1.211a3,3,0,0,0,.7.028l-.226,1.584a3.725,3.725,0,0,1-1.416.017c-1.351-.192-2.135-.794-1.854-2.761l1.113-7.835-1.311-.186Z" transform="translate(-39.208 -33.611)" fill="#fff"/>
          <path id="Path_6741" data-name="Path 6741" d="M223.2,194.737c-.271,1.662-.452,2.768-.526,3.371l-1.979-.323a9.425,9.425,0,0,1,.113-1.187,2.08,2.08,0,0,1-2.409,1c-1.054-.172-2.269-.851-1.843-3.455l1.47-9.014,2.075.339-1.384,8.473c-.2,1.228.057,1.8.84,1.931.8.132,1.373-.281,1.675-2.132l1.285-7.877,2.074.338Z" transform="translate(-40.246 -34.42)" fill="#fff"/>
          <path id="Path_6742" data-name="Path 6742" d="M227.462,186.045l1.3.241.532-2.875,2.061.382-.534,2.874,1.565.29-.337,1.819-1.565-.291-1.373,7.411c-.107.58-.111,1.1.617,1.237a3.08,3.08,0,0,0,.7.059l-.292,1.572a3.707,3.707,0,0,1-1.415-.043c-1.343-.248-2.1-.882-1.738-2.835l1.443-7.781-1.3-.242Z" transform="translate(-42.185 -34.1)" fill="#fff"/>
          <path id="Path_6743" data-name="Path 6743" d="M234.735,194.843l-.377,1.818c-.212,1.021-.2,2.064.808,2.273s1.346-.627,1.547-1.593l.015-.073,2.011.418-.015.067c-.269,1.293-1.032,3.529-3.887,2.936-2.781-.578-2.9-2.441-2.408-4.832l.851-4.092c.35-1.688,1.375-3.818,4.093-3.252,2.419.5,2.823,2.355,2.36,4.584-.14.671-.415,1.995-.555,2.669Zm2.8-1.123.274-1.32c.228-1.1.173-1.938-.812-2.142-.907-.189-1.388.439-1.637,1.64l-.273,1.314Z" transform="translate(-43.172 -35.032)" fill="#fff"/>
        </g>
      </g>
    </g>
  </g>
</svg>
