<svg xmlns="http://www.w3.org/2000/svg" xmlns:xlink="http://www.w3.org/1999/xlink" width="286.775" height="82.715" viewBox="0 0 286.775 82.715">
  <defs>
    <clipPath id="clip-path">
      <rect id="Rectangle_859" data-name="Rectangle 859" width="286.775" height="82.714" fill="none"/>
    </clipPath>
  </defs>
  <g id="Group_838" data-name="Group 838" transform="translate(0 0.001)">
    <rect id="Rectangle_855" data-name="Rectangle 855" width="110.783" height="13.937" transform="translate(6.375 -0.001)" fill="#aa2b32"/>
    <g id="Group_837" data-name="Group 837" transform="translate(0 0)">
      <g id="Group_836" data-name="Group 836" clip-path="url(#clip-path)">
        <path id="Path_6329" data-name="Path 6329" d="M13.91,9.44v.424c0,.823.3,1.258.892,1.258s.893-.377.893-1.453A2.055,2.055,0,0,0,14.688,7.7a2.268,2.268,0,0,1-1.212-2.115c0-.938.286-1.807,1.36-1.8.949,0,1.3.594,1.3,1.658v.32h-.559V5.461c0-.7-.15-1.178-.755-1.178-.63,0-.789.549-.789,1.212a1.686,1.686,0,0,0,.893,1.659A2.528,2.528,0,0,1,16.254,9.6c0,1.075-.251,2.012-1.452,2.012-1.1,0-1.451-.743-1.451-1.749V9.44Z" transform="translate(-3.565 -1.012)" fill="#fff"/>
        <path id="Path_6330" data-name="Path 6330" d="M19.366,8.844l-.434,2.71h-.561L19.64,3.916h.812l1.327,7.638h-.6l-.457-2.71Zm1.281-.515c-.331-1.944-.537-3.293-.605-3.922h-.023c-.023.56-.331,2.344-.571,3.922Z" transform="translate(-4.906 -1.046)" fill="#fff"/>
        <path id="Path_6331" data-name="Path 6331" d="M24.283,11.554V3.915h.7l1.5,5.227a11.848,11.848,0,0,1,.309,1.36h.023c-.034-1.086-.057-2.161-.057-3.4V3.915h.55v7.639h-.675l-1.67-5.946a7.1,7.1,0,0,1-.194-.869h-.011c.045.915.08,2.264.08,3.648v3.167Z" transform="translate(-6.485 -1.046)" fill="#fff"/>
        <path id="Path_6332" data-name="Path 6332" d="M32.8,3.916h2.447V4.43H33.357V7.254h1.761V7.77H33.357v3.785H32.8Z" transform="translate(-8.758 -1.046)" fill="#fff"/>
        <path id="Path_6333" data-name="Path 6333" d="M37.383,3.916h1.132c1.143,0,1.623.515,1.623,1.7v.388c0,.938-.286,1.452-.778,1.612.5.16.709.561.709,1.566a19.023,19.023,0,0,0,.081,2.367H39.6a19.453,19.453,0,0,1-.08-2.31c0-1.029-.16-1.36-.96-1.36h-.618v3.671h-.559Zm.559,3.476h.663c.8,0,.961-.549.961-1.361V5.643c0-.778-.24-1.235-1.075-1.235h-.549Z" transform="translate(-9.983 -1.046)" fill="#fff"/>
        <path id="Path_6334" data-name="Path 6334" d="M43.319,8.844l-.434,2.71h-.561l1.269-7.638h.812l1.327,7.638h-.6l-.457-2.71ZM44.6,8.33c-.331-1.944-.537-3.293-.605-3.922h-.023c-.023.56-.331,2.344-.571,3.922Z" transform="translate(-11.303 -1.046)" fill="#fff"/>
        <path id="Path_6335" data-name="Path 6335" d="M48.236,11.554V3.915h.7l1.5,5.227a11.848,11.848,0,0,1,.309,1.36h.023c-.034-1.086-.057-2.161-.057-3.4V3.915h.55v7.639H50.58L48.91,5.608a7.1,7.1,0,0,1-.194-.869h-.011c.045.915.08,2.264.08,3.648v3.167Z" transform="translate(-12.881 -1.046)" fill="#fff"/>
        <path id="Path_6336" data-name="Path 6336" d="M56.9,9.394v.228c0,1.041-.194,1.99-1.418,1.99-1.257,0-1.429-.972-1.429-2.058V5.643c0-1.258.514-1.852,1.429-1.852,1.178,0,1.384.88,1.384,1.841V5.9h-.583V5.62c0-.663-.081-1.315-.812-1.315-.7,0-.847.572-.847,1.349v3.91c0,.95.217,1.544.869,1.544.721,0,.824-.641.824-1.475v-.24Z" transform="translate(-14.435 -1.012)" fill="#fff"/>
        <rect id="Rectangle_856" data-name="Rectangle 856" width="0.56" height="7.639" transform="translate(43.538 2.869)" fill="#fff"/>
        <path id="Path_6337" data-name="Path 6337" d="M62.208,9.44v.424c0,.823.3,1.258.891,1.258s.892-.377.892-1.453A2.053,2.053,0,0,0,62.985,7.7a2.267,2.267,0,0,1-1.212-2.115c0-.938.286-1.807,1.361-1.8.95,0,1.3.594,1.3,1.658v.32h-.561V5.461c0-.7-.148-1.178-.755-1.178-.628,0-.789.549-.789,1.212a1.688,1.688,0,0,0,.892,1.659A2.529,2.529,0,0,1,64.552,9.6c0,1.075-.251,2.012-1.453,2.012-1.1,0-1.452-.743-1.452-1.749V9.44Z" transform="translate(-16.463 -1.012)" fill="#fff"/>
        <path id="Path_6338" data-name="Path 6338" d="M69.89,9.394v.228c0,1.041-.195,1.99-1.418,1.99-1.258,0-1.43-.972-1.43-2.058V5.643c0-1.258.515-1.852,1.43-1.852,1.178,0,1.382.88,1.382,1.841V5.9h-.583V5.62c0-.663-.08-1.315-.811-1.315-.7,0-.847.572-.847,1.349v3.91c0,.95.218,1.544.869,1.544.72,0,.823-.641.823-1.475v-.24Z" transform="translate(-17.904 -1.012)" fill="#fff"/>
        <path id="Path_6339" data-name="Path 6339" d="M75.3,5.655V9.7c0,1.258-.5,1.909-1.533,1.909-1.143,0-1.486-.777-1.486-1.909V5.667c0-1.189.492-1.876,1.521-1.876,1.11,0,1.5.835,1.5,1.864m-2.446.012V9.715c0,1.017.365,1.395.937,1.395.605,0,.938-.377.938-1.44V5.678c0-.949-.344-1.373-.95-1.373-.629,0-.925.4-.925,1.361" transform="translate(-19.303 -1.012)" fill="#fff"/>
        <path id="Path_6340" data-name="Path 6340" d="M80.485,3.916h1.464c1.269,0,1.75.617,1.75,1.7v.309c0,1.075-.355,1.4-.709,1.544.377.126.858.446.858,1.533v.572c0,1.3-.5,1.978-1.818,1.978H80.485Zm1.372,3.156c.674,0,.869-.229.869-1.041v-.32c0-.652-.229-.938-.835-.938H81.48v2.3Zm-.377,3.636h.435c.731,0,.926-.342.926-1.154V9.028c0-.778-.24-1.109-.984-1.109H81.48Z" transform="translate(-21.494 -1.046)" fill="#fff"/>
        <path id="Path_6341" data-name="Path 6341" d="M87.471,3.916V9.783c0,.583.194.948.7.948.526,0,.7-.377.7-.948V3.916h1.017V9.759c0,1.19-.537,1.9-1.725,1.9-1.156,0-1.716-.629-1.716-1.887V3.916Z" transform="translate(-23.084 -1.046)" fill="#fff"/>
        <path id="Path_6342" data-name="Path 6342" d="M93.416,9.306v.457c0,.63.207.984.687.984.5,0,.663-.423.663-1.064,0-.847-.183-1.143-1.006-1.784a2.393,2.393,0,0,1-1.246-2.172c0-1,.3-1.967,1.6-1.967s1.555.9,1.555,1.8v.377H94.651V5.578c0-.572-.1-.938-.548-.938s-.561.389-.561.938c0,.606.114.88.8,1.384A2.674,2.674,0,0,1,95.8,9.535c0,1.075-.355,2.081-1.716,2.081-1.338,0-1.681-.858-1.681-1.864V9.306Z" transform="translate(-24.675 -1.004)" fill="#fff"/>
        <rect id="Rectangle_857" data-name="Rectangle 857" width="1.029" height="7.639" transform="translate(72.124 2.869)" fill="#fff"/>
        <path id="Path_6343" data-name="Path 6343" d="M101.584,11.554V3.915h1.2l1.121,4.231a12.759,12.759,0,0,1,.3,1.36h.023c-.057-.983-.057-2.058-.057-3.3V3.915h.949v7.639h-1.155L102.7,6.728c-.1-.4-.16-.72-.206-.949h-.011c.045.926.057,2.036.057,3.42v2.355Z" transform="translate(-27.128 -1.046)" fill="#fff"/>
        <path id="Path_6344" data-name="Path 6344" d="M110.886,7.975h-1.692v2.642h1.932l-.125.937h-2.836V3.916h2.813v.949h-1.784V7.038h1.692Z" transform="translate(-28.885 -1.046)" fill="#fff"/>
        <path id="Path_6345" data-name="Path 6345" d="M114.141,9.306v.457c0,.63.206.984.686.984.5,0,.664-.423.664-1.064,0-.847-.184-1.143-1.007-1.784a2.394,2.394,0,0,1-1.247-2.172c0-1,.3-1.967,1.6-1.967s1.555.9,1.555,1.8v.377h-1.017V5.578c0-.572-.1-.938-.55-.938s-.56.389-.56.938c0,.606.114.88.8,1.384a2.673,2.673,0,0,1,1.452,2.573c0,1.075-.355,2.081-1.715,2.081-1.338,0-1.681-.858-1.681-1.864V9.306Z" transform="translate(-30.21 -1.004)" fill="#fff"/>
        <path id="Path_6346" data-name="Path 6346" d="M119.9,9.306v.457c0,.63.206.984.686.984.5,0,.664-.423.664-1.064,0-.847-.184-1.143-1.007-1.784a2.394,2.394,0,0,1-1.247-2.172c0-1,.3-1.967,1.6-1.967s1.555.9,1.555,1.8v.377h-1.017V5.578c0-.572-.1-.938-.55-.938s-.56.389-.56.938c0,.606.114.88.8,1.384a2.673,2.673,0,0,1,1.452,2.573c0,1.075-.355,2.081-1.715,2.081-1.338,0-1.681-.858-1.681-1.864V9.306Z" transform="translate(-31.746 -1.004)" fill="#fff"/>
        <path id="Path_6347" data-name="Path 6347" d="M127.754,4.865h-1.235V3.916h3.487v.949h-1.234v6.69h-1.017Z" transform="translate(-33.787 -1.046)" fill="#fff"/>
        <rect id="Rectangle_858" data-name="Rectangle 858" width="1.03" height="7.639" transform="translate(96.972 2.869)" fill="#fff"/>
        <path id="Path_6348" data-name="Path 6348" d="M139.316,8.569c0-1.349.022-2.916.045-3.762h-.012c-.183,1.3-.674,4.507-1.04,6.748h-.972c-.275-1.979-.778-5.374-.95-6.758h-.023c.023.891.057,2.618.057,3.933v2.825h-.937V3.915h1.522c.353,2.071.742,4.517.845,5.546h.012c.114-1.029.605-3.591.96-5.546H140.3v7.64h-.983Z" transform="translate(-36.181 -1.046)" fill="#fff"/>
        <path id="Path_6349" data-name="Path 6349" d="M146.534,7.975h-1.692v2.642h1.932l-.125.937h-2.836V3.916h2.813v.949h-1.784V7.038h1.692Z" transform="translate(-38.405 -1.046)" fill="#fff"/>
        <path id="Path_6350" data-name="Path 6350" d="M149.789,9.306v.457c0,.63.206.984.686.984.5,0,.663-.423.663-1.064,0-.847-.183-1.143-1.006-1.784a2.394,2.394,0,0,1-1.247-2.172c0-1,.3-1.967,1.6-1.967s1.554.9,1.554,1.8v.377h-1.017V5.578c0-.572-.1-.938-.549-.938s-.561.389-.561.938c0,.606.114.88.8,1.384a2.673,2.673,0,0,1,1.452,2.573c0,1.075-.355,2.081-1.716,2.081-1.338,0-1.681-.858-1.681-1.864V9.306Z" transform="translate(-39.729 -1.004)" fill="#fff"/>
        <path id="Path_6351" data-name="Path 6351" d="M68.734,34.227l-.563,2.434h-.436a4.615,4.615,0,0,0-.06-.562,3.179,3.179,0,0,0-.154-.613,1.689,1.689,0,0,0-.281-.5.66.66,0,0,0-.413-.246q-.189-.025-.482-.038c-.2-.008-.377-.012-.545-.012h-.4L63.73,41.93a.887.887,0,0,0-.019.109,1.1,1.1,0,0,0-.006.118.486.486,0,0,0,.056.249.477.477,0,0,0,.215.174,3.394,3.394,0,0,0,.459.123,3.111,3.111,0,0,0,.541.079l-.1.417h-4.24l.1-.417q.189-.013.55-.051a2.58,2.58,0,0,0,.525-.1.829.829,0,0,0,.38-.259.978.978,0,0,0,.177-.391l1.687-7.3h-.336q-.19,0-.475.01t-.583.041a1.03,1.03,0,0,0-.487.25,5.128,5.128,0,0,0-.558.528,6.74,6.74,0,0,0-.481.6,4.809,4.809,0,0,0-.336.541h-.443l.563-2.434Z" transform="translate(-16.118 -9.14)" fill="#adadad"/>
        <path id="Path_6352" data-name="Path 6352" d="M76.5,40.243a4.633,4.633,0,0,1-.253,1.494,3.947,3.947,0,0,1-.734,1.311,3.715,3.715,0,0,1-1.173.933,3.44,3.44,0,0,1-1.59.352,2.263,2.263,0,0,1-1.7-.677,2.513,2.513,0,0,1-.655-1.823,4.38,4.38,0,0,1,1.025-2.848,3.586,3.586,0,0,1,1.173-.89,3.437,3.437,0,0,1,1.514-.339,2.282,2.282,0,0,1,1.761.687,2.547,2.547,0,0,1,.635,1.8M75.208,40a2.328,2.328,0,0,0-.32-1.349,1.059,1.059,0,0,0-.92-.449,1.7,1.7,0,0,0-.989.323,2.514,2.514,0,0,0-.8,1.05A4.853,4.853,0,0,0,71.8,40.8a7.131,7.131,0,0,0-.12,1.243,2.465,2.465,0,0,0,.313,1.371,1.065,1.065,0,0,0,.945.465,1.538,1.538,0,0,0,1-.355,2.669,2.669,0,0,0,.708-.9,4.934,4.934,0,0,0,.418-1.218A6.8,6.8,0,0,0,75.208,40" transform="translate(-18.798 -10.082)" fill="#adadad"/>
        <path id="Path_6353" data-name="Path 6353" d="M85.638,40.173A4.456,4.456,0,0,1,84.552,43.1a3.691,3.691,0,0,1-1.191.912,3.1,3.1,0,0,1-1.316.3,2.521,2.521,0,0,1-.891-.133,2.714,2.714,0,0,1-.619-.329L80.166,45.5c-.026.106-.045.2-.061.3a1.508,1.508,0,0,0-.022.221.333.333,0,0,0,.123.272.768.768,0,0,0,.282.146,1.986,1.986,0,0,0,.354.075c.13.017.248.03.354.038l-.089.4H77.62l.089-.4c.135-.008.261-.019.379-.032a2.063,2.063,0,0,0,.336-.063.589.589,0,0,0,.313-.213.983.983,0,0,0,.167-.383l1.32-5.822q.051-.241.095-.484a2.374,2.374,0,0,0,.045-.421.732.732,0,0,0-.111-.475.669.669,0,0,0-.477-.12,1.548,1.548,0,0,0-.353.054l-.335.086.1-.4a7.439,7.439,0,0,1,.866-.331,2.318,2.318,0,0,1,.657-.117.917.917,0,0,1,.671.224,1.057,1.057,0,0,1,.285.624h.051a4.344,4.344,0,0,1,.919-.659,2.081,2.081,0,0,1,.977-.259,1.823,1.823,0,0,1,1.5.655,2.707,2.707,0,0,1,.534,1.763m-1.972,2.614a4.292,4.292,0,0,0,.5-1.18,5.507,5.507,0,0,0,.174-1.4,3.837,3.837,0,0,0-.06-.674,1.645,1.645,0,0,0-.193-.56.987.987,0,0,0-.38-.383,1.274,1.274,0,0,0-.632-.136,1.445,1.445,0,0,0-.642.177,3.877,3.877,0,0,0-.857.665l-.807,3.589a1.1,1.1,0,0,0,.389.675,1.193,1.193,0,0,0,.83.313,1.651,1.651,0,0,0,.935-.291,2.532,2.532,0,0,0,.745-.792" transform="translate(-20.728 -10.083)" fill="#adadad"/>
        <path id="Path_6354" data-name="Path 6354" d="M97.272,36.936q-.133.474-.292,1.084t-.216.863l-.874,3.781a.687.687,0,0,0-.019.108.943.943,0,0,0-.007.108.47.47,0,0,0,.076.274.453.453,0,0,0,.183.162,1.929,1.929,0,0,0,.48.12c.236.038.426.061.57.07l-.1.417H92.813l.1-.417q.2-.013.6-.054a4.2,4.2,0,0,0,.572-.086.775.775,0,0,0,.335-.225.839.839,0,0,0,.215-.408l1.041-4.5H94.1l.114-.5h.348a3.367,3.367,0,0,0,1.234-.224,2.942,2.942,0,0,0,.948-.572Z" transform="translate(-24.786 -9.864)" fill="#adadad"/>
        <path id="Path_6355" data-name="Path 6355" d="M107.8,39.516a4.794,4.794,0,0,1-.326,1.745,4.63,4.63,0,0,1-.888,1.461,4.557,4.557,0,0,1-1.353,1.028,3.851,3.851,0,0,1-1.733.376,2.646,2.646,0,0,1-1.979-.727,2.492,2.492,0,0,1-.715-1.821,4.822,4.822,0,0,1,1.252-3.276,4.22,4.22,0,0,1,1.369-1,3.95,3.95,0,0,1,1.678-.367,2.491,2.491,0,0,1,2.694,2.58m-1.347-.284a2.087,2.087,0,0,0-.383-1.36,1.293,1.293,0,0,0-1.053-.462,2,2,0,0,0-1.253.427,3.323,3.323,0,0,0-.935,1.192,6.4,6.4,0,0,0-.5,1.429,6.335,6.335,0,0,0-.174,1.391,2.13,2.13,0,0,0,.367,1.325,1.278,1.278,0,0,0,1.081.476,2.05,2.05,0,0,0,1.208-.388,3.225,3.225,0,0,0,.967-1.224,6.017,6.017,0,0,0,.515-1.454,6.506,6.506,0,0,0,.161-1.353" transform="translate(-26.922 -9.864)" fill="#adadad"/>
        <path id="Path_6356" data-name="Path 6356" d="M118.3,39.516a4.794,4.794,0,0,1-.326,1.745,4.63,4.63,0,0,1-.888,1.461,4.557,4.557,0,0,1-1.353,1.028,3.851,3.851,0,0,1-1.733.376,2.646,2.646,0,0,1-1.979-.727,2.492,2.492,0,0,1-.715-1.821,4.822,4.822,0,0,1,1.252-3.276,4.219,4.219,0,0,1,1.369-1,3.95,3.95,0,0,1,1.678-.367,2.491,2.491,0,0,1,2.694,2.58m-1.347-.284a2.087,2.087,0,0,0-.383-1.36,1.293,1.293,0,0,0-1.053-.462,2,2,0,0,0-1.253.427,3.323,3.323,0,0,0-.935,1.192,6.4,6.4,0,0,0-.5,1.429,6.335,6.335,0,0,0-.174,1.391,2.13,2.13,0,0,0,.367,1.325,1.278,1.278,0,0,0,1.081.476,2.05,2.05,0,0,0,1.208-.388,3.225,3.225,0,0,0,.967-1.224,6.017,6.017,0,0,0,.515-1.454,6.507,6.507,0,0,0,.161-1.353" transform="translate(-29.723 -9.864)" fill="#adadad"/>
        <path id="Path_6357" data-name="Path 6357" d="M41.086,47.661l-.3,1.323a5.256,5.256,0,0,0-1.223.23,6.728,6.728,0,0,0-1.343.551,5.656,5.656,0,0,0-1.383,1.062,7.92,7.92,0,0,0-1.122,1.643q-2.065,3.829-5.6,10.482T22.848,76.461H21.064L18.737,54.516,6.293,76.461H4.53q-.461-9.119-.781-15.342t-.482-9.429a3.078,3.078,0,0,0-.24-1.082,2.6,2.6,0,0,0-.781-.9,2.815,2.815,0,0,0-1.072-.511A6.772,6.772,0,0,0,0,48.984l.3-1.323H11.743l-.3,1.323a10.486,10.486,0,0,0-3.2.511q-.811.372-.812.892,0,.4.021,1.182t.06,1.6q.06,1.383.292,5.584t.574,10.576L20.33,48.062h1.835l2.383,21.71q2.5-4.787,4.366-8.5t3.325-6.678q.881-1.822,1.232-2.765a4.552,4.552,0,0,0,.352-1.322q0-.641-.913-1.032a8.163,8.163,0,0,0-2.636-.491l.3-1.323Z" transform="translate(0 -12.728)" fill="#7a3075"/>
        <path id="Path_6358" data-name="Path 6358" d="M66.318,66.728a14.684,14.684,0,0,1-.8,4.735,12.487,12.487,0,0,1-2.325,4.152,11.79,11.79,0,0,1-3.718,2.96,10.919,10.919,0,0,1-5.04,1.113,7.173,7.173,0,0,1-5.4-2.147,7.96,7.96,0,0,1-2.074-5.777A13.875,13.875,0,0,1,50.2,62.736a11.385,11.385,0,0,1,3.718-2.818,10.851,10.851,0,0,1,4.8-1.074A7.228,7.228,0,0,1,64.3,61.021a8.067,8.067,0,0,1,2.014,5.707m-4.088-.762a7.385,7.385,0,0,0-1.012-4.274A3.359,3.359,0,0,0,58.3,60.267a5.4,5.4,0,0,0-3.137,1.023,8,8,0,0,0-2.535,3.331,15.446,15.446,0,0,0-1.2,3.882,22.538,22.538,0,0,0-.381,3.943,7.805,7.805,0,0,0,.992,4.344,3.366,3.366,0,0,0,3,1.474A4.877,4.877,0,0,0,58.2,77.141a8.5,8.5,0,0,0,2.244-2.849,15.5,15.5,0,0,0,1.323-3.862,21.514,21.514,0,0,0,.461-4.464" transform="translate(-12.54 -15.714)" fill="#7a3075"/>
        <path id="Path_6359" data-name="Path 6359" d="M109.7,76.821l-.3,1.283a26.41,26.41,0,0,1-2.956,1.032,7.66,7.66,0,0,1-1.891.291,3.21,3.21,0,0,1-2.413-.833,2.845,2.845,0,0,1-.8-2.057,6.575,6.575,0,0,1,.081-.973q.079-.531.262-1.254l1.98-7.483q.222-.863.353-1.566a6.528,6.528,0,0,0,.13-1.124,3.5,3.5,0,0,0-.579-2.126,2.128,2.128,0,0,0-1.834-.783,5.879,5.879,0,0,0-2.621.633,10.768,10.768,0,0,0-2.9,2.359L92.685,79.086H88.961l3.16-13.4q.1-.442.19-.932a4.5,4.5,0,0,0,.09-.733,3.009,3.009,0,0,0-.647-2.046,2.384,2.384,0,0,0-1.9-.742,6.588,6.588,0,0,0-2.51.572,9.961,9.961,0,0,0-3.185,2.559L80.733,79.086H76.99l3.006-13q.161-.7.31-1.5a7.582,7.582,0,0,0,.15-1.364,1.512,1.512,0,0,0-1.871-1.906,5.049,5.049,0,0,0-1.138.168q-.695.168-1.078.273l.3-1.293a20.8,20.8,0,0,1,2.781-1.05,7.8,7.8,0,0,1,2.075-.343,2.721,2.721,0,0,1,2.287.872,3.973,3.973,0,0,1,.715,2.378h.12a27.312,27.312,0,0,1,3.883-2.669,7.673,7.673,0,0,1,3.623-.8,4.077,4.077,0,0,1,2.892,1.033,3.906,3.906,0,0,1,1.251,2.6h.08a25.089,25.089,0,0,1,3.8-2.709,7.89,7.89,0,0,1,3.883-.923,3.807,3.807,0,0,1,2.944,1.113,4.134,4.134,0,0,1,1.028,2.92,12.818,12.818,0,0,1-.11,1.283,13.335,13.335,0,0,1-.35,1.827l-1.689,6.44q-.18.642-.342,1.475a7.326,7.326,0,0,0-.161,1.293,1.992,1.992,0,0,0,.482,1.555,2.514,2.514,0,0,0,1.626.411,8.584,8.584,0,0,0,1.1-.1,5.581,5.581,0,0,0,1.1-.24" transform="translate(-20.394 -15.714)" fill="#7a3075"/>
        <path id="Path_6360" data-name="Path 6360" d="M142.263,63.021a5.366,5.366,0,0,1-1.332,3.653,9.042,9.042,0,0,1-3.878,2.43,29.515,29.515,0,0,1-3.768,1.1q-1.9.421-4.209.7a8.386,8.386,0,0,0,1.173,4.84,3.929,3.929,0,0,0,3.437,1.673,6.314,6.314,0,0,0,3.537-1,12.3,12.3,0,0,0,3.017-2.986l1.142.841a12.547,12.547,0,0,1-4.008,3.908,9.476,9.476,0,0,1-4.99,1.463,7.1,7.1,0,0,1-5.422-1.986,7.9,7.9,0,0,1-1.873-5.636,14.708,14.708,0,0,1,.792-4.825,13.949,13.949,0,0,1,2.315-4.2,11.43,11.43,0,0,1,3.638-3.009,9.992,9.992,0,0,1,4.76-1.143,6.538,6.538,0,0,1,4.279,1.174,3.753,3.753,0,0,1,1.393,3m-3.687-.493a2.84,2.84,0,0,0-.221-1.23,1.619,1.619,0,0,0-.561-.67,1.874,1.874,0,0,0-.762-.3,5.513,5.513,0,0,0-.822-.06q-2.4,0-4.439,2.64a13.587,13.587,0,0,0-2.576,6.579q1.4-.2,3.166-.57a11.685,11.685,0,0,0,2.927-.97,6.019,6.019,0,0,0,2.475-2.211,6.113,6.113,0,0,0,.811-3.21" transform="translate(-33.405 -15.715)" fill="#7a3075"/>
        <path id="Path_6361" data-name="Path 6361" d="M173.22,76.761l-.3,1.283q-1.81.721-2.816,1.053a6.478,6.478,0,0,1-2.031.331,3.21,3.21,0,0,1-2.413-.833,2.845,2.845,0,0,1-.8-2.057,6.575,6.575,0,0,1,.081-.973q.079-.531.262-1.254l1.98-7.483q.223-.863.353-1.565a6.477,6.477,0,0,0,.13-1.125,3.271,3.271,0,0,0-.638-2.126,2.291,2.291,0,0,0-1.889-.782,5.916,5.916,0,0,0-2.724.8,10.1,10.1,0,0,0-2.843,2.329L156.14,79.086H152.4l3.005-13q.1-.48.291-1.395a7.591,7.591,0,0,0,.191-1.474,2.168,2.168,0,0,0-.382-1.5,2.216,2.216,0,0,0-1.53-.382,5.511,5.511,0,0,0-1.129.15q-.685.151-1.068.251l.3-1.283a20.927,20.927,0,0,1,2.781-1.042,7.868,7.868,0,0,1,2.075-.341,2.74,2.74,0,0,1,2.277.863,3.92,3.92,0,0,1,.726,2.387h.12a25.556,25.556,0,0,1,3.794-2.617,7.589,7.589,0,0,1,3.634-.852,3.977,3.977,0,0,1,2.995,1.113,4.018,4.018,0,0,1,1.078,2.919,12.818,12.818,0,0,1-.11,1.284,13.314,13.314,0,0,1-.35,1.827l-1.686,6.44q-.181.642-.352,1.475a6.906,6.906,0,0,0-.17,1.293,1.941,1.941,0,0,0,.5,1.555,2.6,2.6,0,0,0,1.645.411,6.521,6.521,0,0,0,1.092-.13,6.912,6.912,0,0,0,1.094-.27" transform="translate(-40.532 -15.714)" fill="#7a3075"/>
        <path id="Path_6362" data-name="Path 6362" d="M199.7,69.508l-.721,3.046H187.036l.721-3.046Z" transform="translate(-49.948 -18.562)" fill="#7a3075"/>
        <path id="Path_6363" data-name="Path 6363" d="M239.207,58.355a18.393,18.393,0,0,1-1.4,7.165,18.71,18.71,0,0,1-3.668,5.742,17.789,17.789,0,0,1-5.3,3.858,14.2,14.2,0,0,1-6.163,1.413,10.514,10.514,0,0,1-8.017-3.226,11.57,11.57,0,0,1-3.046-8.277,18.458,18.458,0,0,1,1.4-7.225,19.531,19.531,0,0,1,3.648-5.762,16.9,16.9,0,0,1,5.281-3.888,14.4,14.4,0,0,1,6.2-1.423,10.665,10.665,0,0,1,7.976,3.157,11.587,11.587,0,0,1,3.086,8.467m-7.656,10.7a21.424,21.424,0,0,0,2.184-5.611,26.33,26.33,0,0,0,.762-6.253,10.788,10.788,0,0,0-1.7-6.394,5.765,5.765,0,0,0-5.01-2.385,8.225,8.225,0,0,0-4.769,1.523,12.961,12.961,0,0,0-3.848,4.47,21.831,21.831,0,0,0-2.135,5.691,26.281,26.281,0,0,0-.711,5.853,10.84,10.84,0,0,0,1.733,6.553,5.8,5.8,0,0,0,4.961,2.345,7.992,7.992,0,0,0,4.93-1.643,13.382,13.382,0,0,0,3.608-4.148" transform="translate(-56.51 -12.48)" fill="#7a3075"/>
        <path id="Path_6364" data-name="Path 6364" d="M284.044,62.556a22.175,22.175,0,0,1-.9,6.24,19.717,19.717,0,0,1-2.466,5.436,13.878,13.878,0,0,1-3.948,4.032,8.662,8.662,0,0,1-4.791,1.424,6.227,6.227,0,0,1-3.477-1.043,5.042,5.042,0,0,1-2.134-2.868q-.721.7-1.332,1.3a10.3,10.3,0,0,1-1.593,1.245,11.468,11.468,0,0,1-1.794.983,5.4,5.4,0,0,1-2.074.341,5.883,5.883,0,0,1-2.515-.471,4.384,4.384,0,0,1-1.593-1.235,4.49,4.49,0,0,1-.8-1.634,7.513,7.513,0,0,1-.24-1.917,6.519,6.519,0,0,1,.09-.963q.09-.581.191-1l1.7-6.341a15.078,15.078,0,0,0,.351-1.645,8.648,8.648,0,0,0,.11-1.224,2.171,2.171,0,0,0-.371-1.494,2.2,2.2,0,0,0-1.513-.372,4.876,4.876,0,0,0-1.122.169q-.682.168-1.063.273l.3-1.292a23.441,23.441,0,0,1,2.749-1.07,6.909,6.909,0,0,1,1.909-.364,3.2,3.2,0,0,1,2.349.753,2.9,2.9,0,0,1,.751,2.137,8.308,8.308,0,0,1-.081.984,10.366,10.366,0,0,1-.24,1.244l-1.851,7.4c-.119.495-.219,1-.3,1.525a8.528,8.528,0,0,0-.12,1.164,3.659,3.659,0,0,0,.6,2.278,2.416,2.416,0,0,0,2.025.772,5.91,5.91,0,0,0,2.648-.693,8.184,8.184,0,0,0,2.526-2.018l3.547-15.226,3.49-.24.24.3-2.829,12.219q-.141.6-.291,1.474a9.166,9.166,0,0,0-.15,1.094,3.657,3.657,0,0,0,.35,1.745,2.306,2.306,0,0,0,.892.943,2.843,2.843,0,0,0,1.083.371,8.564,8.564,0,0,0,1.083.07,5.408,5.408,0,0,0,2.8-.863,8.945,8.945,0,0,0,2.5-2.247,12.748,12.748,0,0,0,1.864-3.421,11.749,11.749,0,0,0,.682-4.043,4.19,4.19,0,0,0-.331-1.856,6,6,0,0,0-.731-1.134,9.6,9.6,0,0,1-.731-1.053,3.045,3.045,0,0,1-.331-1.555,2.093,2.093,0,0,1,.762-1.746,2.547,2.547,0,0,1,1.6-.6,2.145,2.145,0,0,1,1.854.952,4.771,4.771,0,0,1,.671,2.759" transform="translate(-67.499 -15.715)" fill="#7a3075"/>
        <path id="Path_6365" data-name="Path 6365" d="M320.672,76.761l-.3,1.283q-1.81.721-2.816,1.053a6.478,6.478,0,0,1-2.031.331,3.21,3.21,0,0,1-2.413-.833,2.845,2.845,0,0,1-.8-2.057,6.577,6.577,0,0,1,.081-.973q.079-.531.262-1.254l1.98-7.483q.223-.863.353-1.565a6.474,6.474,0,0,0,.13-1.125,3.271,3.271,0,0,0-.638-2.126,2.291,2.291,0,0,0-1.889-.782,5.916,5.916,0,0,0-2.724.8,10.1,10.1,0,0,0-2.843,2.329l-3.424,14.726h-3.744l3.005-13q.1-.48.291-1.395a7.592,7.592,0,0,0,.191-1.474,2.168,2.168,0,0,0-.382-1.5,2.216,2.216,0,0,0-1.53-.382,5.511,5.511,0,0,0-1.129.15q-.685.151-1.068.251l.3-1.283A20.925,20.925,0,0,1,302.31,59.4a7.868,7.868,0,0,1,2.075-.341,2.74,2.74,0,0,1,2.277.863,3.92,3.92,0,0,1,.726,2.387h.12A25.556,25.556,0,0,1,311.3,59.7a7.589,7.589,0,0,1,3.634-.852,3.977,3.977,0,0,1,2.995,1.113,4.018,4.018,0,0,1,1.078,2.919,12.809,12.809,0,0,1-.11,1.284,13.318,13.318,0,0,1-.35,1.827l-1.686,6.44q-.181.642-.352,1.475a6.908,6.908,0,0,0-.17,1.293,1.941,1.941,0,0,0,.5,1.555,2.6,2.6,0,0,0,1.645.411,6.52,6.52,0,0,0,1.092-.13,6.91,6.91,0,0,0,1.094-.27" transform="translate(-79.909 -15.714)" fill="#7a3075"/>
        <path id="Path_6366" data-name="Path 6366" d="M349.161,63.021a5.366,5.366,0,0,1-1.333,3.653,9.042,9.042,0,0,1-3.878,2.43,29.516,29.516,0,0,1-3.768,1.1q-1.9.421-4.209.7a8.386,8.386,0,0,0,1.173,4.84,3.929,3.929,0,0,0,3.437,1.673,6.314,6.314,0,0,0,3.537-1,12.3,12.3,0,0,0,3.017-2.986l1.142.841a12.547,12.547,0,0,1-4.008,3.908,9.476,9.476,0,0,1-4.99,1.463,7.1,7.1,0,0,1-5.422-1.986,7.9,7.9,0,0,1-1.873-5.636,14.708,14.708,0,0,1,.792-4.825,13.949,13.949,0,0,1,2.315-4.2,11.43,11.43,0,0,1,3.638-3.009,9.992,9.992,0,0,1,4.76-1.143,6.538,6.538,0,0,1,4.279,1.174,3.753,3.753,0,0,1,1.393,3m-3.687-.493a2.84,2.84,0,0,0-.221-1.23,1.619,1.619,0,0,0-.561-.67,1.874,1.874,0,0,0-.762-.3,5.512,5.512,0,0,0-.822-.06q-2.4,0-4.439,2.64a13.586,13.586,0,0,0-2.576,6.579q1.4-.2,3.166-.57a11.685,11.685,0,0,0,2.927-.97,6.019,6.019,0,0,0,2.475-2.211,6.113,6.113,0,0,0,.811-3.21" transform="translate(-88.657 -15.715)" fill="#7a3075"/>
        <path id="Path_6367" data-name="Path 6367" d="M371.128,72.409h-.14q-.441.38-1.142.992a10.41,10.41,0,0,1-1.461,1.073,11.124,11.124,0,0,1-1.772.924,6.088,6.088,0,0,1-6.546-1.776,8.984,8.984,0,0,1-1.651-5.707,13.6,13.6,0,0,1,.892-4.876,14.231,14.231,0,0,1,2.436-4.173,11.826,11.826,0,0,1,3.619-2.858,9.488,9.488,0,0,1,4.42-1.094,10.662,10.662,0,0,1,2.746.361,8.925,8.925,0,0,1,2.246.883l1.566-6.816q.12-.541.17-.842a4,4,0,0,0,.05-.661,1.794,1.794,0,0,0-.29-1.1,1.692,1.692,0,0,0-.811-.561,4.91,4.91,0,0,0-1.323-.24q-.842-.059-1.523-.14l.281-1.223,8.117-.441.2.3-5.559,24.03q-.16.661-.331,1.513a7.2,7.2,0,0,0-.17,1.293,1.986,1.986,0,0,0,.481,1.553,2.508,2.508,0,0,0,1.623.411,6.857,6.857,0,0,0,1.082-.121,6.408,6.408,0,0,0,1.083-.26l-.3,1.283a19.59,19.59,0,0,1-2.791,1.062,7.807,7.807,0,0,1-2.047.3,3.348,3.348,0,0,1-2.3-.752,2.959,2.959,0,0,1-.853-2.337m2.852-12.78a3.154,3.154,0,0,0-.3-1.133,4.008,4.008,0,0,0-.662-.993,3.614,3.614,0,0,0-1.194-.833,4.185,4.185,0,0,0-1.735-.331,5,5,0,0,0-2.919.963,9.207,9.207,0,0,0-2.417,2.568,13.315,13.315,0,0,0-1.6,3.722,16.3,16.3,0,0,0-.6,4.364,14.828,14.828,0,0,0,.141,2.167,5.753,5.753,0,0,0,.541,1.745,2.91,2.91,0,0,0,1.082,1.175,3.538,3.538,0,0,0,1.864.431,5.293,5.293,0,0,0,2.394-.663,11.527,11.527,0,0,0,2.876-2.307Z" transform="translate(-95.715 -11.786)" fill="#7a3075"/>
        <path id="Path_6368" data-name="Path 6368" d="M245.917,93.6a2.29,2.29,0,0,1,.862.8,2.138,2.138,0,0,1,.311,1.157,3.416,3.416,0,0,1-.361,1.6,3.659,3.659,0,0,1-.943,1.162,5.541,5.541,0,0,1-1.339.8,7.669,7.669,0,0,1-1.51.465v.089a6.215,6.215,0,0,1,1.2.276,4.494,4.494,0,0,1,1.124.547,2.811,2.811,0,0,1,.867.907,2.5,2.5,0,0,1,.336,1.319,3.776,3.776,0,0,1-.527,2,4.467,4.467,0,0,1-1.329,1.409,6.345,6.345,0,0,1-1.851.858,7.514,7.514,0,0,1-2.031.276h-6.949l.161-.661c.161-.014.4-.042.721-.086a2.915,2.915,0,0,0,.692-.155,1.218,1.218,0,0,0,.536-.386,1.542,1.542,0,0,0,.265-.6l2.386-10.321c.013-.067.026-.132.035-.2a1.229,1.229,0,0,0,.015-.2.755.755,0,0,0-.085-.366.689.689,0,0,0-.3-.265,2.377,2.377,0,0,0-.616-.235,4.057,4.057,0,0,0-.606-.1l.161-.661h6.273a6.6,6.6,0,0,1,1.327.125,3.963,3.963,0,0,1,1.168.435m-2.778,11.492a4.44,4.44,0,0,0,.653-1.3,4.59,4.59,0,0,0,.221-1.385,2.093,2.093,0,0,0-.723-1.687,3.049,3.049,0,0,0-2.029-.612q-.633,0-1.085.015c-.3.01-.528.019-.683.026l-1.133,4.9c-.02.1-.035.183-.045.263a1.983,1.983,0,0,0-.015.232.78.78,0,0,0,.532.753,3.428,3.428,0,0,0,1.356.231,3.558,3.558,0,0,0,2.952-1.445m.652-6.872a3.491,3.491,0,0,0,.677-1.168,4.4,4.4,0,0,0,.206-1.4,1.944,1.944,0,0,0-.191-.9,1.537,1.537,0,0,0-.523-.591,2.19,2.19,0,0,0-.734-.3,4.035,4.035,0,0,0-.844-.086q-.332,0-.739.015l-.688.025-1.269,5.532h1.254a4.268,4.268,0,0,0,1.7-.311,3.064,3.064,0,0,0,1.149-.822" transform="translate(-62.431 -24.847)" fill="#adadad"/>
        <path id="Path_6369" data-name="Path 6369" d="M259.244,107.395h-.06q-.462.371-.882.682a6.13,6.13,0,0,1-.831.521,4.762,4.762,0,0,1-.872.345,4.044,4.044,0,0,1-1.022.106,1.967,1.967,0,0,1-1.494-.556,2.024,2.024,0,0,1-.531-1.458,4.747,4.747,0,0,1,.04-.571q.04-.331.19-.982l.778-3.177c.067-.295.121-.555.165-.782a3.482,3.482,0,0,0,.065-.651,1.086,1.086,0,0,0-.185-.747,1.1,1.1,0,0,0-.755-.185,2.448,2.448,0,0,0-.56.084c-.227.057-.4.1-.53.137l.15-.646a11.714,11.714,0,0,1,1.378-.534,3.486,3.486,0,0,1,.957-.182,1.605,1.605,0,0,1,1.177.375,1.443,1.443,0,0,1,.376,1.067,3.985,3.985,0,0,1-.04.491,5.014,5.014,0,0,1-.12.622l-.884,3.707q-.1.421-.165.787a3.484,3.484,0,0,0-.065.556,1.747,1.747,0,0,0,.29,1.063,1.073,1.073,0,0,0,.921.391,2.943,2.943,0,0,0,1.316-.336,5.283,5.283,0,0,0,1.357-1.017l1.744-7.546,1.748-.12.12.15-1.489,6.454q-.1.411-.18.827a3.592,3.592,0,0,0-.08.586.978.978,0,0,0,.246.776,1.27,1.27,0,0,0,.815.206,3.511,3.511,0,0,0,.54-.06,3.3,3.3,0,0,0,.54-.13l-.151.641q-.831.34-1.387.511a3.516,3.516,0,0,1-1.026.17,1.485,1.485,0,0,1-1.207-.471,1.662,1.662,0,0,1-.4-1.1" transform="translate(-67.499 -26.384)" fill="#adadad"/>
        <path id="Path_6370" data-name="Path 6370" d="M271.174,109.054a5.2,5.2,0,0,1-2.47-.526,1.561,1.561,0,0,1-.987-1.378,1.156,1.156,0,0,1,.291-.751.891.891,0,0,1,.711-.351,1.043,1.043,0,0,1,.646.185,1.423,1.423,0,0,1,.386.436,3.234,3.234,0,0,1,.265.622c.076.24.141.437.2.591a1.492,1.492,0,0,0,.416.316,1.628,1.628,0,0,0,.767.145,2.257,2.257,0,0,0,1.638-.542,1.953,1.953,0,0,0,.556-1.467,1.311,1.311,0,0,0-.521-1.089,5.263,5.263,0,0,0-1.553-.748,6.7,6.7,0,0,1-.872-.366,3.283,3.283,0,0,1-.8-.527,2.507,2.507,0,0,1-.581-.763,2.307,2.307,0,0,1-.221-1.044,2.8,2.8,0,0,1,1.147-2.225,4.309,4.309,0,0,1,2.821-.939q.39,0,.841.04a4.377,4.377,0,0,1,.992.221,2.14,2.14,0,0,1,.8.476,1.08,1.08,0,0,1,.331.817,1.152,1.152,0,0,1-.276.747.893.893,0,0,1-.726.336,1.077,1.077,0,0,1-.611-.161,1.3,1.3,0,0,1-.4-.431,2.836,2.836,0,0,1-.261-.581q-.1-.31-.22-.611a1.811,1.811,0,0,0-.341-.11,2.158,2.158,0,0,0-.4-.03,1.965,1.965,0,0,0-1.488.528,1.744,1.744,0,0,0-.506,1.251,1.261,1.261,0,0,0,.456,1.059,5.8,5.8,0,0,0,1.508.738,5.258,5.258,0,0,1,1.979,1.124,2.154,2.154,0,0,1,.616,1.566,3.061,3.061,0,0,1-1.173,2.485,4.516,4.516,0,0,1-2.956.959" transform="translate(-71.494 -26.34)" fill="#adadad"/>
        <path id="Path_6371" data-name="Path 6371" d="M284.785,105.813l-.15.641a13.163,13.163,0,0,1-1.473.516,3.8,3.8,0,0,1-.942.146,1.594,1.594,0,0,1-1.2-.417,1.421,1.421,0,0,1-.4-1.028,3.088,3.088,0,0,1,.04-.482q.041-.251.13-.633l1.059-4.263q.079-.351.155-.753a3.766,3.766,0,0,0,.076-.682,1.085,1.085,0,0,0-.185-.748,1.106,1.106,0,0,0-.755-.185,3.317,3.317,0,0,0-.586.07c-.243.047-.428.086-.555.12l.15-.641a9.947,9.947,0,0,1,1.4-.521,3.957,3.957,0,0,1,.982-.17,1.578,1.578,0,0,1,1.192.391,1.469,1.469,0,0,1,.37,1.053,4.14,4.14,0,0,1-.04.492,5.306,5.306,0,0,1-.12.622l-1.065,4.264q-.1.391-.174.767a3.285,3.285,0,0,0-.074.616.979.979,0,0,0,.254.784,1.292,1.292,0,0,0,.824.21,4.162,4.162,0,0,0,.545-.051,2.789,2.789,0,0,0,.544-.12M285.5,93a1.47,1.47,0,0,1-.371,1,1.172,1.172,0,0,1-.922.426,1.155,1.155,0,0,1-.882-.405,1.337,1.337,0,0,1-.371-.927,1.391,1.391,0,0,1,.371-.962,1.149,1.149,0,0,1,.882-.411,1.221,1.221,0,0,1,.932.386,1.273,1.273,0,0,1,.361.9" transform="translate(-74.773 -24.492)" fill="#adadad"/>
        <path id="Path_6372" data-name="Path 6372" d="M298.565,107.591l-.151.641q-.9.361-1.408.526a3.238,3.238,0,0,1-1.015.165,1.605,1.605,0,0,1-1.207-.416,1.424,1.424,0,0,1-.4-1.028,3.325,3.325,0,0,1,.04-.487c.027-.177.07-.387.131-.627l.989-3.742q.112-.431.177-.783a3.254,3.254,0,0,0,.065-.561,1.635,1.635,0,0,0-.319-1.064,1.146,1.146,0,0,0-.945-.391,2.961,2.961,0,0,0-1.362.4,5.053,5.053,0,0,0-1.421,1.165l-1.712,7.362h-1.872l1.5-6.5q.051-.241.145-.7a3.772,3.772,0,0,0,.1-.737,1.089,1.089,0,0,0-.191-.753,1.113,1.113,0,0,0-.764-.19,2.748,2.748,0,0,0-.564.075c-.229.051-.407.092-.534.125l.151-.641a10.429,10.429,0,0,1,1.39-.521,3.917,3.917,0,0,1,1.038-.17,1.367,1.367,0,0,1,1.138.432,1.951,1.951,0,0,1,.363,1.193h.061a12.782,12.782,0,0,1,1.9-1.309,3.8,3.8,0,0,1,1.817-.427,1.985,1.985,0,0,1,1.5.557,2.008,2.008,0,0,1,.539,1.459,6.422,6.422,0,0,1-.055.642,6.576,6.576,0,0,1-.175.913l-.843,3.221c-.061.215-.119.46-.176.738a3.424,3.424,0,0,0-.085.646.971.971,0,0,0,.251.778,1.3,1.3,0,0,0,.822.205,3.287,3.287,0,0,0,.546-.064,3.607,3.607,0,0,0,.547-.136" transform="translate(-76.868 -26.34)" fill="#adadad"/>
        <path id="Path_6373" data-name="Path 6373" d="M312.251,100.72a2.682,2.682,0,0,1-.667,1.827,4.519,4.519,0,0,1-1.939,1.214,14.625,14.625,0,0,1-1.884.552q-.953.212-2.1.352a4.2,4.2,0,0,0,.586,2.42,1.967,1.967,0,0,0,1.719.836,3.158,3.158,0,0,0,1.769-.5,6.176,6.176,0,0,0,1.508-1.494l.571.421a6.283,6.283,0,0,1-2,1.954,4.74,4.74,0,0,1-2.5.731,3.546,3.546,0,0,1-2.71-.993,3.95,3.95,0,0,1-.937-2.819,7.35,7.35,0,0,1,.4-2.412,6.993,6.993,0,0,1,1.157-2.1,5.708,5.708,0,0,1,1.818-1.5,4.989,4.989,0,0,1,2.38-.572,3.267,3.267,0,0,1,2.139.587,1.876,1.876,0,0,1,.7,1.5m-1.844-.247a1.423,1.423,0,0,0-.11-.615.813.813,0,0,0-.281-.334.932.932,0,0,0-.381-.15,2.8,2.8,0,0,0-.41-.03,2.844,2.844,0,0,0-2.22,1.32,6.793,6.793,0,0,0-1.287,3.289q.7-.1,1.583-.285a5.791,5.791,0,0,0,1.463-.485,3,3,0,0,0,1.237-1.1,3.056,3.056,0,0,0,.406-1.605" transform="translate(-81.093 -26.34)" fill="#adadad"/>
        <path id="Path_6374" data-name="Path 6374" d="M319.055,109.054a5.2,5.2,0,0,1-2.47-.526,1.561,1.561,0,0,1-.987-1.378,1.156,1.156,0,0,1,.291-.751.891.891,0,0,1,.711-.351,1.043,1.043,0,0,1,.646.185,1.423,1.423,0,0,1,.386.436,3.23,3.23,0,0,1,.265.622c.076.24.141.437.2.591a1.492,1.492,0,0,0,.416.316,1.628,1.628,0,0,0,.767.145,2.257,2.257,0,0,0,1.638-.542,1.953,1.953,0,0,0,.556-1.467,1.311,1.311,0,0,0-.521-1.089,5.263,5.263,0,0,0-1.553-.748,6.7,6.7,0,0,1-.872-.366,3.282,3.282,0,0,1-.8-.527,2.506,2.506,0,0,1-.581-.763,2.306,2.306,0,0,1-.221-1.044,2.8,2.8,0,0,1,1.147-2.225,4.309,4.309,0,0,1,2.821-.939q.39,0,.841.04a4.377,4.377,0,0,1,.992.221,2.139,2.139,0,0,1,.8.476,1.079,1.079,0,0,1,.331.817,1.152,1.152,0,0,1-.276.747.893.893,0,0,1-.726.336,1.077,1.077,0,0,1-.611-.161,1.3,1.3,0,0,1-.4-.431,2.834,2.834,0,0,1-.261-.581q-.1-.31-.22-.611a1.81,1.81,0,0,0-.341-.11,2.157,2.157,0,0,0-.4-.03,1.965,1.965,0,0,0-1.488.528,1.744,1.744,0,0,0-.506,1.251,1.261,1.261,0,0,0,.456,1.059,5.794,5.794,0,0,0,1.508.738,5.258,5.258,0,0,1,1.979,1.124,2.154,2.154,0,0,1,.616,1.566,3.061,3.061,0,0,1-1.173,2.485,4.516,4.516,0,0,1-2.956.959" transform="translate(-84.28 -26.34)" fill="#adadad"/>
        <path id="Path_6375" data-name="Path 6375" d="M330.568,109.054a5.2,5.2,0,0,1-2.47-.526,1.561,1.561,0,0,1-.987-1.378,1.156,1.156,0,0,1,.291-.751.891.891,0,0,1,.711-.351,1.043,1.043,0,0,1,.646.185,1.423,1.423,0,0,1,.386.436,3.229,3.229,0,0,1,.265.622c.076.24.141.437.2.591a1.492,1.492,0,0,0,.416.316,1.628,1.628,0,0,0,.767.145,2.257,2.257,0,0,0,1.638-.542,1.953,1.953,0,0,0,.556-1.467,1.311,1.311,0,0,0-.521-1.089,5.263,5.263,0,0,0-1.553-.748,6.7,6.7,0,0,1-.872-.366,3.283,3.283,0,0,1-.8-.527,2.506,2.506,0,0,1-.581-.763,2.306,2.306,0,0,1-.221-1.044,2.8,2.8,0,0,1,1.147-2.225,4.309,4.309,0,0,1,2.821-.939q.39,0,.841.04a4.378,4.378,0,0,1,.992.221,2.139,2.139,0,0,1,.8.476,1.08,1.08,0,0,1,.331.817,1.152,1.152,0,0,1-.276.747.893.893,0,0,1-.726.336,1.077,1.077,0,0,1-.611-.161,1.3,1.3,0,0,1-.4-.431,2.832,2.832,0,0,1-.261-.581q-.1-.31-.22-.611a1.809,1.809,0,0,0-.341-.11,2.158,2.158,0,0,0-.4-.03,1.965,1.965,0,0,0-1.488.528,1.744,1.744,0,0,0-.506,1.251,1.261,1.261,0,0,0,.456,1.059,5.794,5.794,0,0,0,1.508.738,5.258,5.258,0,0,1,1.979,1.124,2.154,2.154,0,0,1,.616,1.566,3.061,3.061,0,0,1-1.173,2.485,4.516,4.516,0,0,1-2.956.959" transform="translate(-87.355 -26.34)" fill="#adadad"/>
        <path id="Path_6376" data-name="Path 6376" d="M347.922,100.72a2.682,2.682,0,0,1-.667,1.827,4.519,4.519,0,0,1-1.939,1.214,14.624,14.624,0,0,1-1.884.552q-.953.212-2.1.352a4.2,4.2,0,0,0,.586,2.42,1.967,1.967,0,0,0,1.719.836,3.158,3.158,0,0,0,1.769-.5,6.176,6.176,0,0,0,1.508-1.494l.571.421a6.283,6.283,0,0,1-2,1.954,4.741,4.741,0,0,1-2.5.731,3.546,3.546,0,0,1-2.71-.993,3.95,3.95,0,0,1-.937-2.819,7.35,7.35,0,0,1,.4-2.412,6.994,6.994,0,0,1,1.157-2.1,5.708,5.708,0,0,1,1.818-1.5,4.989,4.989,0,0,1,2.38-.572,3.268,3.268,0,0,1,2.139.587,1.876,1.876,0,0,1,.7,1.5m-1.844-.247a1.423,1.423,0,0,0-.11-.615.813.813,0,0,0-.281-.334.932.932,0,0,0-.381-.15,2.8,2.8,0,0,0-.41-.03,2.844,2.844,0,0,0-2.22,1.32,6.793,6.793,0,0,0-1.287,3.289q.7-.1,1.583-.285a5.79,5.79,0,0,0,1.463-.485,3,3,0,0,0,1.237-1.1,3.056,3.056,0,0,0,.406-1.605" transform="translate(-90.619 -26.34)" fill="#adadad"/>
        <path id="Path_6377" data-name="Path 6377" d="M354.727,109.054a5.2,5.2,0,0,1-2.47-.526,1.561,1.561,0,0,1-.987-1.378,1.156,1.156,0,0,1,.291-.751.891.891,0,0,1,.711-.351,1.043,1.043,0,0,1,.646.185,1.423,1.423,0,0,1,.386.436,3.23,3.23,0,0,1,.265.622c.076.24.141.437.2.591a1.492,1.492,0,0,0,.416.316,1.628,1.628,0,0,0,.767.145,2.257,2.257,0,0,0,1.638-.542,1.953,1.953,0,0,0,.556-1.467,1.311,1.311,0,0,0-.521-1.089,5.263,5.263,0,0,0-1.553-.748,6.7,6.7,0,0,1-.872-.366,3.283,3.283,0,0,1-.8-.527,2.506,2.506,0,0,1-.581-.763,2.306,2.306,0,0,1-.221-1.044,2.8,2.8,0,0,1,1.147-2.225,4.309,4.309,0,0,1,2.821-.939q.39,0,.841.04a4.377,4.377,0,0,1,.992.221,2.14,2.14,0,0,1,.8.476,1.08,1.08,0,0,1,.331.817,1.152,1.152,0,0,1-.276.747.893.893,0,0,1-.726.336,1.077,1.077,0,0,1-.611-.161,1.3,1.3,0,0,1-.4-.431,2.834,2.834,0,0,1-.261-.581q-.1-.31-.22-.611a1.809,1.809,0,0,0-.341-.11,2.157,2.157,0,0,0-.4-.03,1.965,1.965,0,0,0-1.488.528,1.744,1.744,0,0,0-.506,1.251,1.261,1.261,0,0,0,.456,1.059,5.794,5.794,0,0,0,1.508.738,5.258,5.258,0,0,1,1.979,1.124,2.154,2.154,0,0,1,.616,1.566,3.061,3.061,0,0,1-1.173,2.485,4.516,4.516,0,0,1-2.956.959" transform="translate(-93.807 -26.34)" fill="#adadad"/>
        <path id="Path_6378" data-name="Path 6378" d="M364.784,111.4a.643.643,0,0,1-.2.479.689.689,0,0,1-.967,0,.643.643,0,0,1-.2-.479.686.686,0,0,1,1.373,0" transform="translate(-97.049 -29.567)" fill="#adadad"/>
        <path id="Path_6379" data-name="Path 6379" d="M368.395,110.737a1.864,1.864,0,0,1-1.385-.512,1.972,1.972,0,0,1-.509-1.455,3.754,3.754,0,0,1,.193-1.2,3.437,3.437,0,0,1,.539-1.021,2.719,2.719,0,0,1,.874-.729,2.445,2.445,0,0,1,1.175-.284,1.694,1.694,0,0,1,1.09.3.945.945,0,0,1,.373.764,1.124,1.124,0,0,1-.163.607.538.538,0,0,1-.489.26.553.553,0,0,1-.405-.135.415.415,0,0,1-.136-.3,1.289,1.289,0,0,1,.108-.437c.072-.185.13-.334.172-.447a.364.364,0,0,0-.246-.2,1.256,1.256,0,0,0-.4-.062,1.4,1.4,0,0,0-1.175.794,3.619,3.619,0,0,0-.493,1.947,1.822,1.822,0,0,0,.318,1.129,1.025,1.025,0,0,0,.86.419,1.493,1.493,0,0,0,.866-.26,3.108,3.108,0,0,0,.725-.737l.286.21a3.2,3.2,0,0,1-.939.945,2.209,2.209,0,0,1-1.245.4" transform="translate(-97.874 -28.183)" fill="#adadad"/>
        <path id="Path_6380" data-name="Path 6380" d="M377.412,107.508a3.673,3.673,0,0,1-.2,1.183,3.124,3.124,0,0,1-.581,1.039,2.952,2.952,0,0,1-.929.74,2.729,2.729,0,0,1-1.26.279,1.79,1.79,0,0,1-1.35-.537,1.988,1.988,0,0,1-.519-1.444,3.478,3.478,0,0,1,.811-2.257,2.867,2.867,0,0,1,.93-.7,2.713,2.713,0,0,1,1.2-.268,1.807,1.807,0,0,1,1.4.544,2.021,2.021,0,0,1,.5,1.428m-1.022-.191a1.846,1.846,0,0,0-.253-1.068.84.84,0,0,0-.729-.356,1.354,1.354,0,0,0-.784.255,2,2,0,0,0-.633.833,3.857,3.857,0,0,0-.3.97,5.683,5.683,0,0,0-.095.986,1.948,1.948,0,0,0,.248,1.086.843.843,0,0,0,.749.369,1.224,1.224,0,0,0,.792-.28,2.142,2.142,0,0,0,.561-.713,3.9,3.9,0,0,0,.331-.966,5.347,5.347,0,0,0,.115-1.116" transform="translate(-99.495 -28.183)" fill="#adadad"/>
        <path id="Path_6381" data-name="Path 6381" d="M388.226,110.03l-.076.32a6.671,6.671,0,0,1-.739.259,1.951,1.951,0,0,1-.473.073.8.8,0,0,1-.6-.209.712.712,0,0,1-.2-.514,1.576,1.576,0,0,1,.021-.243c.013-.089.035-.193.065-.313l.495-1.871q.056-.215.089-.391a1.676,1.676,0,0,0,.032-.281.881.881,0,0,0-.144-.532.535.535,0,0,0-.459-.195,1.48,1.48,0,0,0-.655.158,2.717,2.717,0,0,0-.725.59l-.88,3.716h-.931l.79-3.35c.017-.073.032-.152.048-.233a1.174,1.174,0,0,0,.023-.183.753.753,0,0,0-.162-.512.6.6,0,0,0-.476-.185,1.652,1.652,0,0,0-.627.143,2.489,2.489,0,0,0-.8.64l-.856,3.681h-.936l.751-3.25c.026-.117.053-.243.078-.377a1.9,1.9,0,0,0,.037-.341.549.549,0,0,0-.1-.383.543.543,0,0,0-.372-.093,1.276,1.276,0,0,0-.284.043c-.117.028-.206.051-.27.067l.076-.323a5.13,5.13,0,0,1,.695-.262,1.926,1.926,0,0,1,.519-.086.68.68,0,0,1,.572.218,1,1,0,0,1,.179.594h.03a6.833,6.833,0,0,1,.97-.667,1.922,1.922,0,0,1,.906-.2,1.018,1.018,0,0,1,.723.259.975.975,0,0,1,.312.649h.021a6.348,6.348,0,0,1,.95-.677,1.98,1.98,0,0,1,.971-.231.952.952,0,0,1,.736.279,1.036,1.036,0,0,1,.257.73c0,.06-.01.167-.028.321a3.246,3.246,0,0,1-.088.457l-.421,1.61c-.031.107-.059.229-.086.369a1.806,1.806,0,0,0-.04.323.5.5,0,0,0,.12.389.633.633,0,0,0,.407.1,2.3,2.3,0,0,0,.276-.025,1.359,1.359,0,0,0,.276-.06" transform="translate(-101.451 -28.183)" fill="#adadad"/>
      </g>
    </g>
  </g>
</svg>
