<svg xmlns="http://www.w3.org/2000/svg" xmlns:xlink="http://www.w3.org/1999/xlink" width="184.639" height="265.146" viewBox="0 0 184.639 265.146">
  <defs>
    <linearGradient id="linear-gradient" y1="1.173" x2="1" gradientUnits="objectBoundingBox">
      <stop offset="0" stop-color="#967738"/>
      <stop offset="0.332" stop-color="#fef0c7"/>
      <stop offset="0.6" stop-color="#967738"/>
      <stop offset="0.797" stop-color="#967738"/>
      <stop offset="1" stop-color="#967738"/>
    </linearGradient>
    <linearGradient id="linear-gradient-2" y1="1" x2="0.932" gradientUnits="objectBoundingBox">
      <stop offset="0" stop-color="#967738"/>
      <stop offset="0.502" stop-color="#fef0c7"/>
      <stop offset="0.757" stop-color="#967738"/>
      <stop offset="0.972" stop-color="#967738"/>
      <stop offset="1" stop-color="#967738"/>
    </linearGradient>
    <clipPath id="clip-path">
      <rect id="Rectangle_849" data-name="Rectangle 849" width="184.639" height="265.145" fill="none"/>
    </clipPath>
    <clipPath id="clip-path-2">
      <path id="Path_6308" data-name="Path 6308" d="M74.917,190.32a8.306,8.306,0,0,0-2.225.806,4.421,4.421,0,0,0-1.385,1.158,2.218,2.218,0,0,0-.488,1.349v5.085h5.05v-5.085a.834.834,0,0,1,.461-.735,3.186,3.186,0,0,1,1.549-.277,3.013,3.013,0,0,1,1.52.277.841.841,0,0,1,.433.735v4.481a5.033,5.033,0,0,1-.19,1.337,3.363,3.363,0,0,1-.733,1.313L70.6,210.306H84.935v-2.6H78.2l4.777-5.374c.4-.449.725-.832.978-1.144a4.067,4.067,0,0,0,.571-.9,3.848,3.848,0,0,0,.271-.94,7.943,7.943,0,0,0,.081-1.23v-4.481a2.4,2.4,0,0,0-.433-1.349,3.806,3.806,0,0,0-1.331-1.158,8.348,8.348,0,0,0-2.2-.806,13.315,13.315,0,0,0-2.987-.3,13.668,13.668,0,0,0-3.014.3m19,17.674a1.681,1.681,0,0,1-.626-.361.789.789,0,0,1-.244-.482,4.94,4.94,0,0,1-.026-.53V194.163a2.654,2.654,0,0,1,.053-.495,1.016,1.016,0,0,1,.272-.505,1.7,1.7,0,0,1,.624-.385,3,3,0,0,1,1.058-.157,3.452,3.452,0,0,1,1.114.144,1.569,1.569,0,0,1,.624.374.854.854,0,0,1,.246.507c.017.184.027.357.027.517V206.62a2.408,2.408,0,0,1-.056.482,1,1,0,0,1-.27.493,1.7,1.7,0,0,1-.6.386,2.779,2.779,0,0,1-1.032.157,3.656,3.656,0,0,1-1.168-.144M91.993,190.32a8.326,8.326,0,0,0-2.2.806,4.094,4.094,0,0,0-1.358,1.158,2.3,2.3,0,0,0-.461,1.349v13.542a2.306,2.306,0,0,0,.461,1.35,4.091,4.091,0,0,0,1.358,1.156,8.239,8.239,0,0,0,2.2.807,15.336,15.336,0,0,0,6.053,0,8.23,8.23,0,0,0,2.227-.807,4.087,4.087,0,0,0,1.357-1.156,2.307,2.307,0,0,0,.462-1.35V193.633a2.273,2.273,0,0,0-.462-1.325,4.089,4.089,0,0,0-1.357-1.157,8.507,8.507,0,0,0-2.227-.819,13.2,13.2,0,0,0-3.014-.314,13.568,13.568,0,0,0-3.039.3m17.347,0a8.3,8.3,0,0,0-2.226.806,4.43,4.43,0,0,0-1.385,1.158,2.223,2.223,0,0,0-.487,1.349v5.085h5.049v-5.085a.833.833,0,0,1,.462-.735,3.181,3.181,0,0,1,1.548-.277,3.018,3.018,0,0,1,1.52.277.841.841,0,0,1,.433.735v4.481a5.031,5.031,0,0,1-.189,1.337,3.374,3.374,0,0,1-.733,1.313l-8.307,9.542h14.335v-2.6h-6.733l4.778-5.374c.4-.449.724-.832.977-1.144a4.1,4.1,0,0,0,.571-.9,3.884,3.884,0,0,0,.27-.94,7.841,7.841,0,0,0,.081-1.23v-4.481a2.409,2.409,0,0,0-.433-1.349,3.821,3.821,0,0,0-1.331-1.158,8.344,8.344,0,0,0-2.2-.806,13.3,13.3,0,0,0-2.986-.3,13.668,13.668,0,0,0-3.014.3m19,17.674a1.661,1.661,0,0,1-.626-.361.782.782,0,0,1-.244-.482,4.941,4.941,0,0,1-.027-.53V194.163a2.654,2.654,0,0,1,.053-.495,1.03,1.03,0,0,1,.272-.505,1.7,1.7,0,0,1,.625-.385,3,3,0,0,1,1.059-.157,3.446,3.446,0,0,1,1.113.144,1.569,1.569,0,0,1,.624.374.854.854,0,0,1,.246.507c.017.184.026.357.026.517V206.62a2.463,2.463,0,0,1-.055.482,1.012,1.012,0,0,1-.27.493,1.706,1.706,0,0,1-.6.386,2.776,2.776,0,0,1-1.032.157,3.641,3.641,0,0,1-1.166-.144m-1.929-17.674a8.326,8.326,0,0,0-2.2.806,4.09,4.09,0,0,0-1.357,1.158,2.3,2.3,0,0,0-.462,1.349v13.542a2.3,2.3,0,0,0,.462,1.35,4.087,4.087,0,0,0,1.357,1.156,8.239,8.239,0,0,0,2.2.807,15.34,15.34,0,0,0,6.054,0,8.223,8.223,0,0,0,2.227-.807,4.1,4.1,0,0,0,1.358-1.156,2.306,2.306,0,0,0,.461-1.35V193.633a2.272,2.272,0,0,0-.461-1.325,4.1,4.1,0,0,0-1.358-1.157,8.5,8.5,0,0,0-2.227-.819,13.2,13.2,0,0,0-3.013-.314,13.579,13.579,0,0,0-3.041.3" transform="translate(-70.601 -190.018)" fill="url(#linear-gradient)"/>
    </clipPath>
    <clipPath id="clip-path-3">
      <path id="Path_6309" data-name="Path 6309" d="M163.748,99.9a12.359,12.359,0,0,0-2.968,3.885,9.847,9.847,0,0,0-.936,4.183,7.846,7.846,0,0,0,.561,2.894,14.348,14.348,0,0,0,1.472,2.774q.854,1.259,1.523,2.354a4.658,4.658,0,0,1,.668,2.473,5.321,5.321,0,0,1-1.1,3.165,15.269,15.269,0,0,1-2.754,2.864h6.31a11.579,11.579,0,0,0,1.871-3.029,8.274,8.274,0,0,0,.642-3.179,5.6,5.6,0,0,0-.668-2.624q-.669-1.274-1.443-2.534t-1.444-2.534a5.581,5.581,0,0,1-.668-2.624,7.068,7.068,0,0,1,1.5-4.333,15.846,15.846,0,0,1,4.224-3.735ZM28.578,104.367a3.336,3.336,0,0,1,.054-.584,1.658,1.658,0,0,1,.239-.615,1.465,1.465,0,0,1,.536-.5,2.607,2.607,0,0,1,1.977,0,1.712,1.712,0,0,1,.563.5,1.474,1.474,0,0,1,.266.615,3.423,3.423,0,0,1,.055.584v12.086h-3.69Zm-1.309-4.678a6.215,6.215,0,0,0-2.14,1.185,4.174,4.174,0,0,0-1.176,1.649,5.156,5.156,0,0,0-.348,1.845v12.086H17.618l2.834,3.058h3.154v4.978h4.973v-4.978h3.69v4.978h4.973V104.367a5.433,5.433,0,0,0-.321-1.814A4.049,4.049,0,0,0,35.8,100.9a6.18,6.18,0,0,0-2.086-1.2,9.525,9.525,0,0,0-3.209-.465,10.044,10.044,0,0,0-3.234.45m26.207-24.4L50.049,87.048,47.128,76.1H41.51L48.8,99.9h-9v3.209h4.278V124.49h4.973V103.107h4.277V99.9H51.246l2.736-9.611L56.991,99.9H55.153v3.209h4.278V124.49H64.4V103.107h4.277V99.9H59.467L66.4,76.1H60.893L58.027,87.018,54.6,75.292ZM77,121.582a1.6,1.6,0,0,1-.617-.451,1.082,1.082,0,0,1-.239-.6c-.019-.22-.027-.439-.027-.66V104.4a4.258,4.258,0,0,1,.052-.614,1.4,1.4,0,0,1,.268-.631,1.676,1.676,0,0,1,.615-.48,2.407,2.407,0,0,1,1.042-.195,2.747,2.747,0,0,1,1.1.18,1.536,1.536,0,0,1,.614.465,1.191,1.191,0,0,1,.242.631c.018.23.027.445.027.644v15.476a3.882,3.882,0,0,1-.054.6,1.388,1.388,0,0,1-.267.615,1.7,1.7,0,0,1-.588.48,2.206,2.206,0,0,1-1.016.2,2.9,2.9,0,0,1-1.148-.18m-1.747-23.8a1.686,1.686,0,0,1-.648-.45,1.056,1.056,0,0,1-.252-.6c-.021-.22-.028-.439-.028-.66V80.6a3.972,3.972,0,0,1,.056-.615,1.354,1.354,0,0,1,.282-.63,1.749,1.749,0,0,1,.645-.481,2.651,2.651,0,0,1,1.1-.195,3.014,3.014,0,0,1,1.152.18,1.6,1.6,0,0,1,.646.465,1.167,1.167,0,0,1,.254.631c.018.23.028.445.028.645V96.075a3.726,3.726,0,0,1-.057.6,1.343,1.343,0,0,1-.28.614,1.764,1.764,0,0,1-.618.481,2.433,2.433,0,0,1-1.068.195,3.182,3.182,0,0,1-1.206-.18m-5.6-45.168v3h4.585V75.569h.263a9.591,9.591,0,0,0-1.24.247,7.7,7.7,0,0,0-2.275,1,4.561,4.561,0,0,0-1.4,1.44,3.258,3.258,0,0,0-.477,1.68V96.765a3.264,3.264,0,0,0,.477,1.679,4.558,4.558,0,0,0,1.4,1.439,7.413,7.413,0,0,0,1.825.846,4.413,4.413,0,0,0-1.208,1.328,3.386,3.386,0,0,0-.455,1.68v16.825a3.386,3.386,0,0,0,.455,1.68,4.472,4.472,0,0,0,1.337,1.439,7.164,7.164,0,0,0,2.164,1.005,12.051,12.051,0,0,0,5.962,0,7.14,7.14,0,0,0,2.193-1.005,4.49,4.49,0,0,0,1.337-1.439,3.393,3.393,0,0,0,.454-1.68V103.737a3.338,3.338,0,0,0-.454-1.649,4.473,4.473,0,0,0-1.337-1.439,6.791,6.791,0,0,0-1.463-.747.256.256,0,0,0,.033-.018,4.552,4.552,0,0,0,1.4-1.439,3.264,3.264,0,0,0,.477-1.679V79.94a3.215,3.215,0,0,0-.477-1.65,4.544,4.544,0,0,0-1.4-1.439,7.907,7.907,0,0,0-2.3-1.02,9.886,9.886,0,0,0-1.316-.262h1.361V55.612h4.586v-3ZM96.858,104.1a9.3,9.3,0,0,1,1.711,1.29,7.294,7.294,0,0,1,1.231,1.529,6.986,6.986,0,0,1,.721,1.65,5.838,5.838,0,0,1,.242,1.62,6.092,6.092,0,0,1-.882,3.164,7.871,7.871,0,0,1-3.022,2.684Zm-4.616-5.268V79.94a1.393,1.393,0,0,1,.31-.855,2.354,2.354,0,0,1,2.641,0,1.4,1.4,0,0,1,.309.855V99.6a29.941,29.941,0,0,0-3.26-.769m.818-25.974a1.7,1.7,0,0,1-.657-.42.931.931,0,0,1-.259-.56q-.03-.307-.03-.616V56.815a3.413,3.413,0,0,1,.057-.573,1.225,1.225,0,0,1,.287-.588,1.76,1.76,0,0,1,.66-.448,2.907,2.907,0,0,1,1.118-.181,3.352,3.352,0,0,1,1.176.167,1.66,1.66,0,0,1,.66.434,1.041,1.041,0,0,1,.258.588c.018.215.028.415.028.6V71.259a3.1,3.1,0,0,1-.058.56,1.229,1.229,0,0,1-.286.574,1.822,1.822,0,0,1-.63.447,2.694,2.694,0,0,1-1.09.181,3.544,3.544,0,0,1-1.234-.167m-2.036-20.5a8.285,8.285,0,0,0-2.32.937,4.48,4.48,0,0,0-1.434,1.344,2.859,2.859,0,0,0-.486,1.567V71.9a2.858,2.858,0,0,0,.486,1.569A4.478,4.478,0,0,0,88.7,74.814a8.255,8.255,0,0,0,2.29.928c-.118.03-.24.056-.351.089a6.51,6.51,0,0,0-2.081,1.02,3.8,3.8,0,0,0-1.179,1.439,3.975,3.975,0,0,0-.365,1.65v20.752h4.867v15.761H85.9l2.836,3.058h3.154v4.978h4.973v-4.978h2.78a1.791,1.791,0,0,1,.936.15.617.617,0,0,1,.188.51v4.319h5.025v-4.079a9.878,9.878,0,0,0-.08-1.26,2.42,2.42,0,0,0-.454-1.139,3.2,3.2,0,0,0-1.1-.9,6.158,6.158,0,0,0-2.058-.569q3.689-2.969,3.688-6.628a7.977,7.977,0,0,0-.908-3.689,10.468,10.468,0,0,0-2.674-3.239,16.759,16.759,0,0,0-3.77-2.294h2.292V79.94a1.369,1.369,0,0,1,.31-.871q.307-.389,1.376-.389c.674,0,1.105.14,1.292.42a1.511,1.511,0,0,1,.281.84v20.752h4.689v23.8h4.973V109.765l3.53,3.929v10.8h4.973v-23.8c.071,0,.135,0,.208,0h6.419v15.761h-5.989l2.834,3.058h3.155a9.826,9.826,0,0,0,.161,1.784,3.449,3.449,0,0,0,.748,1.605,4,4,0,0,0,1.765,1.154,9.508,9.508,0,0,0,3.207.435h6.364v-3.239h-6.364a1.069,1.069,0,0,1-.694-.18.536.536,0,0,1-.215-.419v-1.14h7.272v-3.058H133.75V103.107h7.272V99.9H137.53V85.967l3.708,3.929v10.8h2.512v13.931a4.7,4.7,0,0,0,.215,1.41,4.053,4.053,0,0,0,.694,1.3A4.388,4.388,0,0,0,146,118.432a8.269,8.269,0,0,0,2.14.781v5.278h4.973v-5.278a8.223,8.223,0,0,0,2.14-.781,4.909,4.909,0,0,0,1.362-1.079,3.32,3.32,0,0,0,.7-1.305,5.617,5.617,0,0,0,.186-1.424V99.9H152.52v14.726a1.874,1.874,0,0,1-.349,1.034q-.348.525-1.522.525c-.821,0-1.346-.165-1.578-.495a1.807,1.807,0,0,1-.348-1.065V99.9h-2.259V76.1h-5.226v7.647l-7.866-8.727-1.068.12V99.9h-3.259V97.454h-6.686a1.169,1.169,0,0,1-.73-.181.526.526,0,0,1-.225-.419v-1.14h7.641V92.656H121.4V79.31h7.641V76.1H116.178V92.656h-6.294l2.978,3.058h3.316a9.423,9.423,0,0,0,.168,1.785,3.383,3.383,0,0,0,.786,1.6,3.549,3.549,0,0,0,1.044.795h-1v7.648l-7.487-8.728-.479.057V79.94a3.976,3.976,0,0,0-.366-1.65,3.8,3.8,0,0,0-1.179-1.439,6.5,6.5,0,0,0-2.08-1.02,10.468,10.468,0,0,0-3.062-.389,9.925,9.925,0,0,0-2.386.27,12.524,12.524,0,0,0-2.052.689,12.565,12.565,0,0,0-1.444-.514c.259-.045.533-.075.775-.136a8.188,8.188,0,0,0,2.352-.937A4.492,4.492,0,0,0,101.2,73.47a2.865,2.865,0,0,0,.486-1.569V56.2a2.829,2.829,0,0,0-.486-1.54,4.49,4.49,0,0,0-1.434-1.342,8.48,8.48,0,0,0-2.352-.953A12.783,12.783,0,0,0,94.236,52a13.105,13.105,0,0,0-3.212.35m19.437,4.156a8.993,8.993,0,0,1,1.891,1.217,7.686,7.686,0,0,1,1.318,1.428,5.94,5.94,0,0,1,.774,1.526,4.921,4.921,0,0,1,.258,1.54,4.566,4.566,0,0,1-1.032,2.883,10.141,10.141,0,0,1-3.209,2.491Zm-5.332,19.062h5.332V71.2a18.335,18.335,0,0,0,7.308-3.988,7.3,7.3,0,0,0,2.265-5.249q0-3.75-3.784-6.452t-11.121-3.961Z" transform="translate(-17.618 -51.553)" fill="url(#linear-gradient-2)"/>
    </clipPath>
    <clipPath id="clip-path-5">
      <path id="Path_6319" data-name="Path 6319" d="M76.015,269.852c0,13.757,14.871,23.641,27.4,29.688V230.8h-27.4Zm29.146,29.673c12.468-6.027,27.4-15.866,27.4-29.673V230.8h-27.4ZM74.1,269.852V229.179h60.369v40.674c0,15.355-16.452,25.642-30.2,32.171C90.441,295.466,74.1,285.136,74.1,269.852m-1.912,0c0,16.177,16.587,26.942,31.265,33.9l.82.389.82-.389c14.647-6.956,31.29-17.672,31.29-33.9V227.558H72.19Z" transform="translate(-72.19 -227.557)" fill="none"/>
    </clipPath>
    <linearGradient id="linear-gradient-5" y1="1" x2="1" gradientUnits="objectBoundingBox">
      <stop offset="0" stop-color="#967738"/>
      <stop offset="0.281" stop-color="#967738"/>
      <stop offset="0.502" stop-color="#fef0c7"/>
      <stop offset="0.719" stop-color="#967738"/>
      <stop offset="1" stop-color="#967738"/>
    </linearGradient>
  </defs>
  <g id="Group_835" data-name="Group 835" transform="translate(-4977 -13888.146)">
    <g id="Group_834" data-name="Group 834" transform="translate(4977 13888.146)">
      <rect id="Rectangle_843" data-name="Rectangle 843" width="170.635" height="235.786" transform="translate(7.002 5.244)"/>
      <path id="Rectangle_844" data-name="Rectangle 844" d="M-.936-.936H171.571V236.722H-.936ZM169.7.936H.936V234.85H169.7Z" transform="translate(7.002 5.244)" fill="#967738"/>
      <g id="Group_823" data-name="Group 823">
        <g id="Group_822" data-name="Group 822" clip-path="url(#clip-path)">
          <path id="Path_6256" data-name="Path 6256" d="M14.636,11.008a1.5,1.5,0,1,1-1.5-1.5,1.5,1.5,0,0,1,1.5,1.5" transform="translate(-1.992 -1.628)" fill="#967738"/>
          <path id="Path_6257" data-name="Path 6257" d="M210.574,11.008a1.5,1.5,0,1,1-1.5-1.5,1.5,1.5,0,0,1,1.5,1.5" transform="translate(-35.569 -1.628)" fill="#967738"/>
          <path id="Path_6258" data-name="Path 6258" d="M210.574,285.571a1.5,1.5,0,1,1-1.5-1.5,1.5,1.5,0,0,1,1.5,1.5" transform="translate(-35.569 -48.679)" fill="#967738"/>
          <path id="Path_6259" data-name="Path 6259" d="M14.636,285.571a1.5,1.5,0,1,1-1.5-1.5,1.5,1.5,0,0,1,1.5,1.5" transform="translate(-1.992 -48.679)" fill="#967738"/>
          <path id="Path_6260" data-name="Path 6260" d="M167.379,246.592H17.581v-.936a16.535,16.535,0,0,0-4.875-11.769,16.537,16.537,0,0,0-11.77-4.875H0V17.58H.936a16.537,16.537,0,0,0,11.77-4.875A16.535,16.535,0,0,0,17.581.936V0h149.8V.936a16.535,16.535,0,0,0,4.875,11.769,16.535,16.535,0,0,0,11.769,4.875h.936V229.012h-.936a16.645,16.645,0,0,0-16.644,16.644ZM19.43,244.72h146.1a18.5,18.5,0,0,1,17.557-17.557V19.429A18.357,18.357,0,0,1,176.816,18a18.454,18.454,0,0,1-5.885-3.968,18.454,18.454,0,0,1-3.968-5.885,18.357,18.357,0,0,1-1.432-6.272H19.43A18.357,18.357,0,0,1,18,8.144a18.454,18.454,0,0,1-3.968,5.885A18.455,18.455,0,0,1,8.144,18a18.36,18.36,0,0,1-6.272,1.432V227.163A18.36,18.36,0,0,1,8.144,228.6a18.454,18.454,0,0,1,5.886,3.968A18.454,18.454,0,0,1,18,238.448,18.357,18.357,0,0,1,19.43,244.72Z" transform="translate(-0.16 -0.16)" fill="#967738"/>
          <rect id="Rectangle_845" data-name="Rectangle 845" width="0.826" height="11.849" transform="translate(22.033 126.261)" fill="#fff"/>
          <path id="Path_6261" data-name="Path 6261" d="M30.924,158.47c0-.773-.036-1.353-.07-2.021h.773l.071,1.529h.035a3.167,3.167,0,0,1,2.9-1.723c.808,0,2.934.4,2.934,3.569v5.062h-.826v-4.993c0-1.529-.6-2.918-2.338-2.918a2.7,2.7,0,0,0-2.531,1.934,2.489,2.489,0,0,0-.123.756v5.22h-.826Z" transform="translate(-5.287 -26.777)" fill="#fff"/>
          <path id="Path_6262" data-name="Path 6262" d="M46.129,164.221V152.372h.792l4.622,7a42.9,42.9,0,0,1,2.216,3.726l.034-.017c-.122-1.6-.14-2.954-.14-4.817v-5.89h.826v11.849h-.791l-4.517-6.891c-.88-1.371-1.688-2.619-2.3-3.832l-.035.017c.089,1.46.105,2.743.105,4.712v5.994Z" transform="translate(-7.905 -26.111)" fill="#fff"/>
          <path id="Path_6263" data-name="Path 6263" d="M66.28,160.58c0,3.165-2.161,4.5-4.043,4.5-2.179,0-3.867-1.7-3.867-4.342,0-2.9,1.9-4.482,3.991-4.482,2.338,0,3.919,1.74,3.919,4.325m-7.067.105c0,2.11,1.353,3.692,3.076,3.692,1.758,0,3.147-1.582,3.147-3.744,0-1.548-.878-3.692-3.094-3.692-2.145,0-3.129,1.934-3.129,3.745" transform="translate(-10.003 -26.777)" fill="#fff"/>
          <path id="Path_6264" data-name="Path 6264" d="M70.067,158.98c0-.844-.036-1.723-.07-2.531h.773l.036,1.705h.036a2.623,2.623,0,0,1,2.407-1.9,2.173,2.173,0,0,1,.335.035v.809a1.43,1.43,0,0,0-.4-.036c-1.16,0-1.986,1-2.215,2.356a5.842,5.842,0,0,0-.07.809v4.659h-.826Z" transform="translate(-11.995 -26.777)" fill="#fff"/>
          <path id="Path_6265" data-name="Path 6265" d="M77.4,153.54v2.444h2.408v.668H77.4v5.485c0,1.072.333,1.758,1.23,1.758a3.06,3.06,0,0,0,.967-.14l.106.65a3.342,3.342,0,0,1-1.177.193,1.751,1.751,0,0,1-1.443-.6,3.03,3.03,0,0,1-.527-2v-5.344H75.13v-.668h1.424V153.8Z" transform="translate(-12.875 -26.311)" fill="#fff"/>
          <path id="Path_6266" data-name="Path 6266" d="M82.6,151.609h.826v5.555h.036a3.1,3.1,0,0,1,1.16-1.231,3.171,3.171,0,0,1,1.7-.475c.791,0,2.918.4,2.918,3.533v5.1h-.826V159.1c0-1.529-.6-2.918-2.319-2.918a2.762,2.762,0,0,0-2.549,1.916,2.338,2.338,0,0,0-.123.826v5.168H82.6Z" transform="translate(-14.155 -25.98)" fill="#fff"/>
          <path id="Path_6267" data-name="Path 6267" d="M93.525,160.58c0,2.707,1.477,3.762,3.217,3.762a4.9,4.9,0,0,0,2.338-.475l.211.668a5.634,5.634,0,0,1-2.654.527c-2.426,0-3.938-1.758-3.938-4.236,0-2.812,1.617-4.571,3.8-4.571,2.76,0,3.287,2.6,3.287,3.815a2.165,2.165,0,0,1-.034.51Zm5.379-.669c.017-1.177-.475-2.97-2.514-2.97a3,3,0,0,0-2.812,2.97Z" transform="translate(-15.885 -26.777)" fill="#fff"/>
          <path id="Path_6268" data-name="Path 6268" d="M103.4,158.98c0-.844-.036-1.723-.07-2.531h.773l.036,1.705h.036a2.623,2.623,0,0,1,2.407-1.9,2.173,2.173,0,0,1,.335.035v.809a1.43,1.43,0,0,0-.4-.036c-1.16,0-1.986,1-2.215,2.356a5.843,5.843,0,0,0-.07.809v4.659H103.4Z" transform="translate(-17.707 -26.777)" fill="#fff"/>
          <path id="Path_6269" data-name="Path 6269" d="M109.379,158.47c0-.773-.036-1.353-.07-2.021h.773l.071,1.529h.035a3.167,3.167,0,0,1,2.9-1.723c.808,0,2.934.4,2.934,3.569v5.062H115.2v-4.993c0-1.529-.6-2.918-2.338-2.918a2.7,2.7,0,0,0-2.531,1.934,2.489,2.489,0,0,0-.123.756v5.22h-.826Z" transform="translate(-18.732 -26.777)" fill="#fff"/>
          <path id="Path_6270" data-name="Path 6270" d="M132.442,163.759a7.328,7.328,0,0,1-3.182.6c-2.865,0-5.608-1.827-5.608-6.029,0-3.516,2.268-6.188,5.994-6.188a6.054,6.054,0,0,1,2.76.528l-.282.7a5.629,5.629,0,0,0-2.461-.51c-3.2,0-5.151,2.074-5.151,5.484,0,3.217,1.846,5.291,5.011,5.291a6.266,6.266,0,0,0,2.672-.544Z" transform="translate(-21.19 -26.071)" fill="#fff"/>
          <path id="Path_6271" data-name="Path 6271" d="M140.6,164.886l-.123-1.213h-.053a3.166,3.166,0,0,1-2.69,1.406,2.3,2.3,0,0,1-2.478-2.32c0-1.951,1.724-3.129,5.151-3.093v-.211c0-.844-.158-2.513-2.162-2.5a3.593,3.593,0,0,0-2.11.632l-.264-.615a4.564,4.564,0,0,1,2.461-.721c2.443,0,2.9,1.829,2.9,3.339v3.288a15.155,15.155,0,0,0,.123,2Zm-.193-4.518c-1.846-.052-4.272.229-4.272,2.251a1.613,1.613,0,0,0,1.687,1.758,2.541,2.541,0,0,0,2.5-1.688,1.845,1.845,0,0,0,.088-.51Z" transform="translate(-23.178 -26.777)" fill="#fff"/>
          <rect id="Rectangle_846" data-name="Rectangle 846" width="0.826" height="12.481" transform="translate(120.447 125.628)" fill="#fff"/>
          <path id="Path_6272" data-name="Path 6272" d="M150.465,153.429a.688.688,0,0,1-.7.721.678.678,0,0,1-.65-.721.722.722,0,0,1,.686-.738.686.686,0,0,1,.668.738m-1.09,2.408h.826v8.438h-.826Z" transform="translate(-25.552 -26.166)" fill="#fff"/>
          <path id="Path_6273" data-name="Path 6273" d="M153.25,164.05v-7.77h-1.213v-.668h1.213v-.457a4.161,4.161,0,0,1,.932-3.042,2.648,2.648,0,0,1,1.864-.738,2.762,2.762,0,0,1,1.265.282l-.264.668a2.178,2.178,0,0,0-1.073-.246c-1.564,0-1.9,1.442-1.9,3.059v.475h2.268v.668h-2.268v7.77Z" transform="translate(-26.054 -25.94)" fill="#fff"/>
          <path id="Path_6274" data-name="Path 6274" d="M165.315,160.58c0,3.165-2.161,4.5-4.043,4.5-2.179,0-3.867-1.7-3.867-4.342,0-2.9,1.9-4.482,3.991-4.482,2.338,0,3.919,1.74,3.919,4.325m-7.067.105c0,2.11,1.353,3.692,3.076,3.692,1.758,0,3.147-1.582,3.147-3.744,0-1.548-.878-3.692-3.094-3.692-2.145,0-3.129,1.934-3.129,3.745" transform="translate(-26.974 -26.777)" fill="#fff"/>
          <path id="Path_6275" data-name="Path 6275" d="M169.1,158.98c0-.844-.036-1.723-.07-2.531h.773l.036,1.705h.036a2.623,2.623,0,0,1,2.407-1.9,2.173,2.173,0,0,1,.335.035v.809a1.43,1.43,0,0,0-.4-.036c-1.16,0-1.986,1-2.215,2.356a5.841,5.841,0,0,0-.07.809v4.659H169.1Z" transform="translate(-28.966 -26.777)" fill="#fff"/>
          <path id="Path_6276" data-name="Path 6276" d="M175.084,158.47c0-.773-.036-1.353-.07-2.021h.773l.071,1.529h.035a3.167,3.167,0,0,1,2.9-1.723c.808,0,2.934.4,2.934,3.569v5.062H180.9v-4.993c0-1.529-.6-2.918-2.338-2.918a2.7,2.7,0,0,0-2.531,1.934,2.489,2.489,0,0,0-.123.756v5.22h-.826Z" transform="translate(-29.991 -26.777)" fill="#fff"/>
          <path id="Path_6277" data-name="Path 6277" d="M187.082,153.429a.687.687,0,0,1-.7.721.677.677,0,0,1-.65-.721.722.722,0,0,1,.686-.738.685.685,0,0,1,.667.738m-1.09,2.408h.826v8.438h-.826Z" transform="translate(-31.827 -26.166)" fill="#fff"/>
          <path id="Path_6278" data-name="Path 6278" d="M194.51,164.886l-.123-1.213h-.053a3.166,3.166,0,0,1-2.69,1.406,2.3,2.3,0,0,1-2.478-2.32c0-1.951,1.724-3.129,5.151-3.093v-.211c0-.844-.158-2.513-2.162-2.5a3.593,3.593,0,0,0-2.11.632l-.264-.615a4.564,4.564,0,0,1,2.461-.721c2.443,0,2.9,1.829,2.9,3.339v3.288a15.155,15.155,0,0,0,.123,2Zm-.193-4.518c-1.846-.052-4.272.229-4.272,2.251a1.613,1.613,0,0,0,1.687,1.758,2.541,2.541,0,0,0,2.5-1.688,1.844,1.844,0,0,0,.088-.51Z" transform="translate(-32.416 -26.777)" fill="#fff"/>
          <path id="Path_6279" data-name="Path 6279" d="M59.131,29.16a2.232,2.232,0,0,0,1.13.319c.644,0,1.021-.341,1.021-.834,0-.456-.26-.717-.92-.97-.8-.283-1.289-.7-1.289-1.384a1.4,1.4,0,0,1,1.578-1.325,2.224,2.224,0,0,1,1.08.239l-.173.515a1.949,1.949,0,0,0-.927-.232c-.667,0-.92.4-.92.732,0,.457.3.68.97.941.825.319,1.245.718,1.245,1.434,0,.753-.558,1.4-1.709,1.4a2.524,2.524,0,0,1-1.246-.311Z" transform="translate(-10.106 -4.278)" fill="#fff"/>
          <path id="Path_6280" data-name="Path 6280" d="M64.463,28.408l-.507,1.535H63.3l1.66-4.881h.76l1.666,4.881h-.674l-.521-1.535Zm1.6-.492-.479-1.405c-.108-.318-.181-.608-.254-.891h-.014c-.072.29-.152.587-.246.884l-.478,1.412Z" transform="translate(-10.848 -4.295)" fill="#fff"/>
          <path id="Path_6281" data-name="Path 6281" d="M69.273,29.943V25.061h.688l1.565,2.471a13.753,13.753,0,0,1,.876,1.586l.015-.007c-.059-.652-.073-1.246-.073-2.007V25.061h.594v4.882H72.3l-1.55-2.478a15.548,15.548,0,0,1-.913-1.629l-.021.007c.036.617.051,1.2.051,2.014v2.086Z" transform="translate(-11.871 -4.295)" fill="#fff"/>
          <path id="Path_6282" data-name="Path 6282" d="M77.221,25.062H79.85v.529h-2v1.622H79.7v.521H77.852v2.21h-.631Z" transform="translate(-13.233 -4.295)" fill="#fff"/>
          <path id="Path_6283" data-name="Path 6283" d="M81.651,25.119a6.625,6.625,0,0,1,1.211-.1,1.989,1.989,0,0,1,1.411.4,1.213,1.213,0,0,1,.384.927,1.281,1.281,0,0,1-.92,1.245v.022a1.215,1.215,0,0,1,.718.984,7.619,7.619,0,0,0,.376,1.34h-.652a6.383,6.383,0,0,1-.326-1.166c-.144-.674-.4-.927-.977-.949h-.594v2.115h-.631Zm.631,2.224h.645c.673,0,1.1-.37,1.1-.927,0-.63-.456-.9-1.122-.912a2.65,2.65,0,0,0-.623.057Z" transform="translate(-13.992 -4.287)" fill="#fff"/>
          <path id="Path_6284" data-name="Path 6284" d="M87.282,28.408l-.507,1.535h-.652l1.66-4.881h.76l1.666,4.881h-.674l-.521-1.535Zm1.6-.492L88.4,26.51c-.108-.318-.181-.608-.254-.891h-.014c-.072.29-.152.587-.246.884l-.478,1.412Z" transform="translate(-14.758 -4.295)" fill="#fff"/>
          <path id="Path_6285" data-name="Path 6285" d="M92.091,29.943V25.061h.688l1.565,2.471a13.75,13.75,0,0,1,.876,1.586l.015-.007c-.059-.652-.073-1.246-.073-2.007V25.061h.594v4.882h-.637l-1.55-2.478a15.548,15.548,0,0,1-.913-1.629l-.021.007c.036.617.051,1.2.051,2.014v2.086Z" transform="translate(-15.781 -4.295)" fill="#fff"/>
          <path id="Path_6286" data-name="Path 6286" d="M101.365,29.768a3.13,3.13,0,0,1-1.29.232,2.282,2.282,0,0,1-2.412-2.47,2.43,2.43,0,0,1,2.551-2.564,2.63,2.63,0,0,1,1.158.217l-.152.515a2.3,2.3,0,0,0-.986-.2,1.815,1.815,0,0,0-1.9,2.014,1.775,1.775,0,0,0,1.876,1.963,2.517,2.517,0,0,0,1.028-.2Z" transform="translate(-16.736 -4.278)" fill="#fff"/>
          <rect id="Rectangle_847" data-name="Rectangle 847" width="0.631" height="4.882" transform="translate(85.56 20.766)" fill="#fff"/>
          <path id="Path_6287" data-name="Path 6287" d="M105.38,29.16a2.234,2.234,0,0,0,1.13.319c.644,0,1.021-.341,1.021-.834,0-.456-.26-.717-.92-.97-.8-.283-1.289-.7-1.289-1.384a1.4,1.4,0,0,1,1.578-1.325,2.224,2.224,0,0,1,1.08.239l-.173.515a1.949,1.949,0,0,0-.927-.232c-.667,0-.92.4-.92.732,0,.457.3.68.97.941.825.319,1.245.718,1.245,1.434,0,.753-.558,1.4-1.709,1.4a2.524,2.524,0,0,1-1.246-.311Z" transform="translate(-18.031 -4.278)" fill="#fff"/>
          <path id="Path_6288" data-name="Path 6288" d="M113.351,29.768a3.123,3.123,0,0,1-1.289.232,2.282,2.282,0,0,1-2.412-2.47,2.43,2.43,0,0,1,2.551-2.564,2.633,2.633,0,0,1,1.158.217l-.152.515a2.3,2.3,0,0,0-.986-.2,1.815,1.815,0,0,0-1.9,2.014,1.775,1.775,0,0,0,1.876,1.963,2.517,2.517,0,0,0,1.028-.2Z" transform="translate(-18.79 -4.278)" fill="#fff"/>
          <path id="Path_6289" data-name="Path 6289" d="M119.168,27.436a2.287,2.287,0,0,1-2.268,2.571,2.238,2.238,0,0,1-2.194-2.478,2.319,2.319,0,0,1,2.267-2.564,2.223,2.223,0,0,1,2.2,2.47m-3.789.08c0,1.042.566,1.977,1.557,1.977s1.564-.92,1.564-2.029c0-.97-.507-1.984-1.557-1.984s-1.564.963-1.564,2.035" transform="translate(-19.657 -4.278)" fill="#fff"/>
          <path id="Path_6290" data-name="Path 6290" d="M127.364,27.8c-.036-.68-.08-1.5-.073-2.108h-.022c-.167.573-.368,1.181-.615,1.854l-.863,2.369h-.477l-.79-2.326c-.231-.687-.428-1.318-.564-1.9h-.015c-.015.609-.051,1.428-.094,2.159l-.13,2.092h-.6l.34-4.881h.8l.834,2.361c.2.6.37,1.138.493,1.645h.021c.123-.493.3-1.028.515-1.645l.869-2.361h.8l.3,4.881h-.615Z" transform="translate(-21.098 -4.295)" fill="#fff"/>
          <path id="Path_6291" data-name="Path 6291" d="M131.1,28.408l-.507,1.535h-.652l1.66-4.881h.76l1.666,4.881h-.674l-.521-1.535Zm1.6-.492-.479-1.405c-.108-.318-.181-.608-.254-.891h-.014c-.072.29-.152.587-.246.884l-.478,1.412Z" transform="translate(-22.268 -4.295)" fill="#fff"/>
          <path id="Path_6292" data-name="Path 6292" d="M139.435,29.716a4.553,4.553,0,0,1-1.5.268,2.293,2.293,0,0,1-2.507-2.462A2.448,2.448,0,0,1,138.073,25a3.016,3.016,0,0,1,1.217.225l-.152.514a2.529,2.529,0,0,0-1.079-.21,1.825,1.825,0,0,0-1.963,1.962,1.79,1.79,0,0,0,1.884,1.97,2.051,2.051,0,0,0,.84-.131V27.876h-.993v-.506h1.608Z" transform="translate(-23.208 -4.284)" fill="#fff"/>
          <path id="Path_6293" data-name="Path 6293" d="M142.309,28.408l-.507,1.535h-.652l1.66-4.881h.76l1.666,4.881h-.674l-.521-1.535Zm1.6-.492-.479-1.405c-.108-.318-.181-.608-.254-.891h-.014c-.072.29-.152.587-.246.884l-.478,1.412Z" transform="translate(-24.188 -4.295)" fill="#fff"/>
          <path id="Path_6294" data-name="Path 6294" d="M146.715,29.574l2.709-3.962v-.022h-2.477v-.529h3.3v.384l-2.695,3.948v.022h2.731v.529h-3.564Z" transform="translate(-25.142 -4.295)" fill="#fff"/>
          <rect id="Rectangle_848" data-name="Rectangle 848" width="0.63" height="4.882" transform="translate(126.056 20.766)" fill="#fff"/>
          <path id="Path_6295" data-name="Path 6295" d="M154.386,29.943V25.061h.688l1.565,2.471a13.753,13.753,0,0,1,.876,1.586l.015-.007c-.059-.652-.073-1.246-.073-2.007V25.061h.594v4.882h-.637l-1.55-2.478a15.548,15.548,0,0,1-.913-1.629l-.021.007c.036.617.051,1.2.051,2.014v2.086Z" transform="translate(-26.456 -4.295)" fill="#fff"/>
          <path id="Path_6296" data-name="Path 6296" d="M162.837,27.655h-1.9v1.76h2.115v.529h-2.745V25.062h2.638v.529H160.94v1.543h1.9Z" transform="translate(-27.471 -4.295)" fill="#fff"/>
          <path id="Path_6297" data-name="Path 6297" d="M91.035,17.7a5.6,5.6,0,0,1,.973-.072,1.571,1.571,0,0,1,1.03.285.982.982,0,0,1,.342.77,1.058,1.058,0,0,1-.3.793,1.539,1.539,0,0,1-1.1.373,1.864,1.864,0,0,1-.311-.021V21.14h-.631Zm.631,1.625a1.233,1.233,0,0,0,.311.027c.476,0,.766-.235.766-.642,0-.389-.268-.6-.708-.6a1.692,1.692,0,0,0-.368.031Z" transform="translate(-15.6 -3.02)" fill="#fff"/>
          <path id="Path_6298" data-name="Path 6298" d="M94.647,17.7a6.148,6.148,0,0,1,.963-.072,1.615,1.615,0,0,1,1.076.279.881.881,0,0,1,.3.7.932.932,0,0,1-.631.875v.015a.886.886,0,0,1,.487.672,7,7,0,0,0,.273.974h-.656a4.748,4.748,0,0,1-.234-.824c-.1-.455-.264-.6-.626-.611h-.322V21.14h-.631Zm.631,1.542h.378c.43,0,.7-.228.7-.574,0-.383-.268-.558-.683-.558a1.857,1.857,0,0,0-.394.03Z" transform="translate(-16.219 -3.02)" fill="#fff"/>
          <path id="Path_6299" data-name="Path 6299" d="M100.274,19.6H98.959v1.025h1.471v.523H98.323V17.656h2.029v.523H98.959v.9h1.315Z" transform="translate(-16.849 -3.026)" fill="#fff"/>
          <path id="Path_6300" data-name="Path 6300" d="M101.614,20.439a1.756,1.756,0,0,0,.844.223c.409,0,.636-.191.636-.476,0-.264-.176-.419-.621-.579-.575-.207-.941-.512-.941-1.015,0-.569.476-1,1.231-1a1.856,1.856,0,0,1,.839.176l-.156.512a1.482,1.482,0,0,0-.694-.165c-.4,0-.58.217-.58.418,0,.269.2.394.668.575.606.228.9.533.9,1.035,0,.559-.424,1.045-1.325,1.045a2.065,2.065,0,0,1-.942-.217Z" transform="translate(-17.389 -3.014)" fill="#fff"/>
          <path id="Path_6301" data-name="Path 6301" d="M106.976,19.6h-1.315v1.025h1.471v.523h-2.107V17.656h2.029v.523h-1.393v.9h1.315Z" transform="translate(-17.998 -3.026)" fill="#fff"/>
          <path id="Path_6302" data-name="Path 6302" d="M108.363,21.145V17.656h.724l.9,1.5a9.386,9.386,0,0,1,.595,1.17h.011c-.041-.466-.057-.916-.057-1.449V17.656h.591v3.489h-.658l-.911-1.532a12.007,12.007,0,0,1-.626-1.206l-.016,0c.027.451.031.911.031,1.486v1.247Z" transform="translate(-18.57 -3.026)" fill="#fff"/>
          <path id="Path_6303" data-name="Path 6303" d="M113.306,18.189h-.994v-.533h2.634v.533h-1v2.956h-.636Z" transform="translate(-19.246 -3.026)" fill="#fff"/>
          <path id="Path_6304" data-name="Path 6304" d="M118.058,19.6h-1.315v1.025h1.471v.523h-2.107V17.656h2.029v.523h-1.393v.9h1.315Z" transform="translate(-19.897 -3.026)" fill="#fff"/>
          <path id="Path_6305" data-name="Path 6305" d="M119.445,17.7a6.446,6.446,0,0,1,1.014-.073,2.123,2.123,0,0,1,1.424.4,1.559,1.559,0,0,1,.544,1.284,1.807,1.807,0,0,1-.544,1.387,2.33,2.33,0,0,1-1.579.476,7.008,7.008,0,0,1-.859-.046Zm.636,2.955a2.342,2.342,0,0,0,.352.016,1.194,1.194,0,0,0,1.32-1.335,1.107,1.107,0,0,0-1.237-1.211,2.038,2.038,0,0,0-.435.036Z" transform="translate(-20.469 -3.02)" fill="#fff"/>
          <path id="Path_6306" data-name="Path 6306" d="M125.249,17.7a5.322,5.322,0,0,1,.926-.073,1.648,1.648,0,0,1,1,.223.735.735,0,0,1,.363.652.812.812,0,0,1-.58.756v.011a.879.879,0,0,1,.7.864.9.9,0,0,1-.336.719,1.941,1.941,0,0,1-1.293.326,6.34,6.34,0,0,1-.782-.046Zm.631,1.376h.326c.44,0,.689-.206.689-.5,0-.326-.249-.476-.652-.476a1.787,1.787,0,0,0-.363.026Zm0,1.605a2.936,2.936,0,0,0,.336.015c.409,0,.771-.155.771-.584,0-.4-.352-.569-.792-.569h-.316Z" transform="translate(-21.463 -3.02)" fill="#fff"/>
          <path id="Path_6307" data-name="Path 6307" d="M129.539,21.145V19.69l-1.1-2.034h.725l.419.9c.119.259.207.455.3.693h.01c.089-.222.187-.439.306-.693l.419-.9h.719l-1.159,2.019v1.47Z" transform="translate(-22.009 -3.026)" fill="#fff"/>
        </g>
      </g>
      <g id="Group_825" data-name="Group 825" transform="translate(58.502 157.456)">
        <g id="Group_824" data-name="Group 824" clip-path="url(#clip-path-2)">
          <rect id="Rectangle_850" data-name="Rectangle 850" width="65.914" height="20.771" transform="translate(0 0)" fill="url(#linear-gradient)"/>
        </g>
      </g>
      <g id="Group_827" data-name="Group 827" transform="translate(14.599 42.719)">
        <g id="Group_826" data-name="Group 826" clip-path="url(#clip-path-3)">
          <rect id="Rectangle_851" data-name="Rectangle 851" width="152.92" height="73.507" transform="translate(0 0)" fill="url(#linear-gradient-2)"/>
        </g>
      </g>
      <g id="Group_829" data-name="Group 829">
        <g id="Group_828" data-name="Group 828" clip-path="url(#clip-path)">
          <path id="Path_6310" data-name="Path 6310" d="M49.507,47.933l44.727-.895,1.235.94-1.342.945Z" transform="translate(-8.484 -8.061)" fill="#967738"/>
          <path id="Path_6311" data-name="Path 6311" d="M112.031,47.714a1.479,1.479,0,1,1-1.476-1.381,1.43,1.43,0,0,1,1.476,1.381" transform="translate(-18.692 -7.94)" fill="#967738"/>
          <path id="Path_6312" data-name="Path 6312" d="M162.708,47.933l-44.727-.895-1.235.94,1.342.945Z" transform="translate(-20.006 -8.061)" fill="#967738"/>
          <path id="Path_6313" data-name="Path 6313" d="M49.507,145.869l44.727-.895,1.235.94-1.342.945Z" transform="translate(-8.484 -24.843)" fill="#967738"/>
          <path id="Path_6314" data-name="Path 6314" d="M112.031,145.649a1.479,1.479,0,1,1-1.476-1.38,1.43,1.43,0,0,1,1.476,1.38" transform="translate(-18.692 -24.723)" fill="#967738"/>
          <path id="Path_6315" data-name="Path 6315" d="M162.708,145.869l-44.727-.895-1.235.94,1.342.945Z" transform="translate(-20.006 -24.843)" fill="#967738"/>
          <path id="Path_6316" data-name="Path 6316" d="M49.507,175.245l44.727-.895,1.235.94-1.342.945Z" transform="translate(-8.484 -29.878)" fill="#967738"/>
          <path id="Path_6317" data-name="Path 6317" d="M112.031,175.026a1.479,1.479,0,1,1-1.476-1.38,1.43,1.43,0,0,1,1.476,1.38" transform="translate(-18.692 -29.757)" fill="#967738"/>
          <path id="Path_6318" data-name="Path 6318" d="M162.708,175.245l-44.727-.895-1.235.94,1.342.945Z" transform="translate(-20.006 -29.878)" fill="#967738"/>
        </g>
      </g>
      <g id="Group_831" data-name="Group 831" transform="translate(59.819 188.562)">
        <g id="Group_830" data-name="Group 830" clip-path="url(#clip-path-5)">
          <rect id="Rectangle_853" data-name="Rectangle 853" width="64.194" height="76.583" fill="url(#linear-gradient-5)"/>
        </g>
      </g>
      <g id="Group_833" data-name="Group 833">
        <g id="Group_832" data-name="Group 832" clip-path="url(#clip-path)">
          <path id="Path_6320" data-name="Path 6320" d="M116.338,241.979c0-.149-.172-.27-.382-.27H103.072c-.21,0-.382.121-.382.27v.814h13.648Z" transform="translate(-17.597 -41.42)"/>
          <path id="Path_6321" data-name="Path 6321" d="M128.205,278.024h-6.593v-1.65c0-.733-.39-1.331-.869-1.331H91.413c-.48,0-.87.6-.87,1.331v1.65H83.95a1.324,1.324,0,0,0-1.313,1.331v4h46.881v-4a1.324,1.324,0,0,0-1.313-1.331" transform="translate(-14.161 -47.133)"/>
          <path id="Path_6322" data-name="Path 6322" d="M116.338,261.707V250.27H102.69v11.437Z" transform="translate(-17.597 -42.888)"/>
          <path id="Path_6323" data-name="Path 6323" d="M103.072,272.409h12.884c.21,0,.382-.122.382-.27v-.814H102.69v.814c0,.148.172.27.382.27" transform="translate(-17.597 -46.496)"/>
          <path id="Path_6324" data-name="Path 6324" d="M99.809,269.546h18.2c.356,0,.646-.205.646-.457v-3.745c0-.252-.29-.457-.646-.457h-18.2c-.356,0-.646.206-.646.457v3.745c0,.252.29.457.646.457" transform="translate(-16.993 -45.392)"/>
          <path id="Path_6325" data-name="Path 6325" d="M99.809,248.491h18.2c.356,0,.646-.2.646-.457v-3.746c0-.252-.29-.457-.646-.457h-18.2c-.356,0-.646.2-.646.457v3.746c0,.252.29.457.646.457" transform="translate(-16.993 -41.784)"/>
          <path id="Path_6326" data-name="Path 6326" d="M119.922,254.277v4.8h1.29a.1.1,0,0,0,.1-.1v-4.593a.1.1,0,0,0-.1-.1Z" transform="translate(-20.55 -43.574)"/>
          <path id="Path_6327" data-name="Path 6327" d="M100.287,254.379v4.593a.1.1,0,0,0,.1.1h1.289v-4.8h-1.289a.1.1,0,0,0-.1.1" transform="translate(-17.186 -43.574)"/>
          <path id="Path_6328" data-name="Path 6328" d="M140.019,255.29h-17.6v3.117h17.6a1.012,1.012,0,0,0,1.011-1.012V256.3a1.013,1.013,0,0,0-1.011-1.012" transform="translate(-20.978 -43.748)"/>
        </g>
      </g>
    </g>
  </g>
</svg>
