<svg id="Group_866" data-name="Group 866" xmlns="http://www.w3.org/2000/svg" xmlns:xlink="http://www.w3.org/1999/xlink" width="255.073" height="166.559" viewBox="0 0 255.073 166.559">
  <defs>
    <clipPath id="clip-path">
      <rect id="Rectangle_888" data-name="Rectangle 888" width="255.073" height="166.559" fill="none"/>
    </clipPath>
  </defs>
  <path id="Path_6668" data-name="Path 6668" d="M11,11H244.073V155.559H11ZM0,166.559H255.073V0H0Z" fill="#0d2863"/>
  <rect id="Rectangle_886" data-name="Rectangle 886" width="108" height="8" transform="translate(114.215 26.77)" fill="#0d2863"/>
  <g id="Group_865" data-name="Group 865">
    <g id="Group_864" data-name="Group 864" clip-path="url(#clip-path)">
      <path id="Path_6669" data-name="Path 6669" d="M33.018,27.234a7.25,7.25,0,0,1,1.344-2.52,6.087,6.087,0,0,1,2.254-1.68,7.64,7.64,0,0,1,3.122-.6,7.8,7.8,0,0,1,2.561.42,6.606,6.606,0,0,1,2.143,1.2,5.75,5.75,0,0,1,1.47,1.932,5.925,5.925,0,0,1,.545,2.576,6.23,6.23,0,0,1-.475,2.548A6.7,6.7,0,0,1,44.721,33a10.685,10.685,0,0,1-1.777,1.5q-.995.672-2,1.33t-1.96,1.414A8.887,8.887,0,0,0,37.3,39.008H46.57v3.416H32.177a8.167,8.167,0,0,1,.49-2.968A7.933,7.933,0,0,1,34,37.2a11.662,11.662,0,0,1,1.974-1.834q1.135-.84,2.4-1.708.642-.448,1.372-.91a9.185,9.185,0,0,0,1.33-1.022,5.446,5.446,0,0,0,1.008-1.26,3.128,3.128,0,0,0,.406-1.6,2.953,2.953,0,0,0-.826-2.226,2.919,2.919,0,0,0-2.115-.8,2.569,2.569,0,0,0-1.469.406,3.027,3.027,0,0,0-.966,1.064,4.912,4.912,0,0,0-.519,1.456,8.391,8.391,0,0,0-.153,1.582H32.625a9.4,9.4,0,0,1,.393-3.122" fill="#0d2863"/>
      <path id="Path_6670" data-name="Path 6670" d="M52.52,27.738a8.63,8.63,0,0,1,1.553-3.122,5.571,5.571,0,0,1,2.282-1.68,7.875,7.875,0,0,1,5.544,0,5.677,5.677,0,0,1,2.3,1.68,8.515,8.515,0,0,1,1.567,3.122,17.16,17.16,0,0,1,.574,4.8,17.829,17.829,0,0,1-.574,4.914,8.506,8.506,0,0,1-1.567,3.15,5.677,5.677,0,0,1-2.3,1.68,7.875,7.875,0,0,1-5.544,0,5.571,5.571,0,0,1-2.282-1.68,8.621,8.621,0,0,1-1.553-3.15,17.825,17.825,0,0,1-.575-4.914,17.157,17.157,0,0,1,.575-4.8m3.458,6.832a10.821,10.821,0,0,0,.349,2.3,4.908,4.908,0,0,0,.938,1.89,2.253,2.253,0,0,0,1.848.784A2.326,2.326,0,0,0,61,38.756a4.821,4.821,0,0,0,.953-1.89,10.952,10.952,0,0,0,.351-2.3q.054-1.189.055-2.03,0-.5-.014-1.218a14.007,14.007,0,0,0-.111-1.47,14.158,14.158,0,0,0-.281-1.5,4.625,4.625,0,0,0-.545-1.33,3.035,3.035,0,0,0-.924-.952,2.478,2.478,0,0,0-1.373-.364,2.4,2.4,0,0,0-1.359.364,2.915,2.915,0,0,0-.894.952,5.128,5.128,0,0,0-.547,1.33,10.021,10.021,0,0,0-.279,1.5c-.056.5-.09.994-.1,1.47s-.015.882-.015,1.218q0,.84.058,2.03" fill="#0d2863"/>
      <path id="Path_6671" data-name="Path 6671" d="M78.125,42.424V29.712H73.2v-3a9.355,9.355,0,0,0,2-.154,5.22,5.22,0,0,0,1.736-.644,4.252,4.252,0,0,0,1.3-1.218,4.322,4.322,0,0,0,.7-1.876H82.1v19.6Z" fill="#0d2863"/>
      <path id="Path_6672" data-name="Path 6672" d="M91.341,37.888v-3.64l8.512-11.424h3.556V34.612h2.6v3.276h-2.6v4.536h-3.78V37.888Zm8.2-10.08-5.068,6.8h5.152v-6.8Z" fill="#0d2863"/>
      <path id="Path_6673" data-name="Path 6673" d="M37.448,47.775l4.739,18.547,1.033,5.162,1.035-5.056,4.054-18.653h7.915L60.488,66.32l1.093,5.164,1.107-4.964,4.786-18.745h7.635l-10.1,32.388H57.831L53.5,61.222,52.23,54.961l-1.266,6.261L46.629,80.163H39.662L29.486,47.775Z" fill="#0d2863"/>
      <path id="Path_6674" data-name="Path 6674" d="M107.276,77.285q-4.066,3.778-11.762,3.779T83.753,77.285Q78.3,72.648,78.3,63.925q0-8.9,5.455-13.359,4.066-3.779,11.761-3.779t11.762,3.779q5.432,4.461,5.43,13.359,0,8.724-5.43,13.36m-4.688-4.922q2.619-2.967,2.618-8.438,0-5.448-2.618-8.426a8.941,8.941,0,0,0-7.074-2.978,9.066,9.066,0,0,0-7.11,2.967q-2.655,2.967-2.654,8.437T88.4,72.363a9.065,9.065,0,0,0,7.11,2.966,8.955,8.955,0,0,0,7.074-2.966" fill="#0d2863"/>
      <path id="Path_6675" data-name="Path 6675" d="M142.24,47.775h10.791V80.163h-6.988V58.256q0-.944.024-2.648t.025-2.625l-6.8,27.18H132l-6.753-27.18q0,.922.024,2.625t.025,2.648V80.163h-6.99V47.775H129.22l6.535,25.467Z" fill="#0d2863"/>
      <path id="Path_6676" data-name="Path 6676" d="M186.516,53.51H167.522v6.877h17.436v5.625H167.522V74.34h19.871v5.822h-27.2V47.775h26.324Z" fill="#0d2863"/>
      <path id="Path_6677" data-name="Path 6677" d="M193.116,47.775h7.863l14.248,22.583V47.775h6.988V80.163h-7.5L200.1,57.182V80.163h-6.988Z" fill="#0d2863"/>
      <path id="Path_6678" data-name="Path 6678" d="M31.579,86.606h6.215v21.252H52.646v4.658H31.579Z" fill="#0d2863"/>
      <path id="Path_6679" data-name="Path 6679" d="M78.818,91.194H63.078v5.5H77.527v4.5H63.078v6.662H79.544v4.658H57.005V86.606H78.818Z" fill="#0d2863"/>
      <path id="Path_6680" data-name="Path 6680" d="M92.893,86.606h7.033l10.523,25.91h-6.74l-1.963-5.326H90.792l-2.015,5.326h-6.5Zm-.41,16.119H100.1L96.344,92.53Z" fill="#0d2863"/>
      <path id="Path_6681" data-name="Path 6681" d="M131.66,87.168a9.837,9.837,0,0,1,5.07,3.288,10.841,10.841,0,0,1,2.12,4.183,17.558,17.558,0,0,1,.566,4.289,15.458,15.458,0,0,1-2.384,8.754q-3.229,4.834-9.976,4.834H114.232V86.606h12.824a17.823,17.823,0,0,1,4.6.562m-11.394,3.938v16.91h5.74a6.209,6.209,0,0,0,6.143-3.779,11.773,11.773,0,0,0,.951-4.94,10.861,10.861,0,0,0-1.425-6.073q-1.427-2.118-5.669-2.118Z" fill="#0d2863"/>
      <path id="Path_6682" data-name="Path 6682" d="M166.072,91.194h-15.74v5.5h14.449v4.5H150.332v6.662H166.8v4.658H144.259V86.606h21.813Z" fill="#0d2863"/>
      <path id="Path_6683" data-name="Path 6683" d="M190.7,87.274a7.344,7.344,0,0,1,2.784,1.811,7.88,7.88,0,0,1,1.495,2.179,6.429,6.429,0,0,1,.552,2.725,6.99,6.99,0,0,1-1.07,3.63,5.86,5.86,0,0,1-3.531,2.522,5.463,5.463,0,0,1,2.916,2.048,7.589,7.589,0,0,1,.857,4.052v1.74a11.468,11.468,0,0,0,.164,2.408,2.186,2.186,0,0,0,1.148,1.477v.65h-6.861q-.282-.861-.4-1.389a11.164,11.164,0,0,1-.263-2.232l-.04-2.408q-.039-2.478-.983-3.305a5.549,5.549,0,0,0-3.541-.826h-6.07v10.16h-6.074V86.606H186.01a14.69,14.69,0,0,1,4.693.668m-12.846,3.832v6.961h6.688a8.068,8.068,0,0,0,2.99-.422,2.854,2.854,0,0,0,1.763-2.918,3.154,3.154,0,0,0-1.706-3.164,6.947,6.947,0,0,0-2.874-.457Z" fill="#0d2863"/>
      <path id="Path_6684" data-name="Path 6684" d="M205.966,104.518a4.876,4.876,0,0,0,1.133,2.654q1.547,1.6,5.295,1.6a12.976,12.976,0,0,0,3.647-.422q2.658-.809,2.658-3.006a2.177,2.177,0,0,0-1.3-1.986,15.588,15.588,0,0,0-4.13-1.213l-3.22-.615a22.047,22.047,0,0,1-6.523-1.987,6.061,6.061,0,0,1-3.006-5.607,7.058,7.058,0,0,1,2.941-5.783q2.941-2.3,8.641-2.3a14.648,14.648,0,0,1,8.12,2.171,7.425,7.425,0,0,1,3.524,6.3h-5.973a3.711,3.711,0,0,0-2.4-3.323,9.28,9.28,0,0,0-3.7-.65,7.871,7.871,0,0,0-3.931.844,2.6,2.6,0,0,0-1.468,2.355,2.207,2.207,0,0,0,1.448,2.074,19.876,19.876,0,0,0,3.952,1.073l5.219,1.072a14.371,14.371,0,0,1,5.145,1.881,6.025,6.025,0,0,1,2.659,5.291,7.09,7.09,0,0,1-3.151,5.9q-3.151,2.348-8.9,2.347-5.876,0-9.24-2.312a7.3,7.3,0,0,1-3.366-6.354Z" fill="#0d2863"/>
      <rect id="Rectangle_887" data-name="Rectangle 887" width="5.084" height="20.872" transform="translate(30.774 119.209)" fill="#0d2863"/>
      <path id="Path_6685" data-name="Path 6685" d="M40.561,119.209h5.365l9.72,14.554V119.209h4.768v20.872H55.3l-9.969-14.81v14.81H40.561Z" fill="#0d2863"/>
      <path id="Path_6686" data-name="Path 6686" d="M92.462,119.209v3.7H85.135v17.176h-5.15V122.9h-7.36v-3.7Z" fill="#0d2863"/>
      <path id="Path_6687" data-name="Path 6687" d="M95.419,140.081V119.209H100.5v7.958h9.519v-7.958h5.084v20.872h-5.084v-9.317H100.5v9.317Z" fill="#0d2863"/>
      <path id="Path_6688" data-name="Path 6688" d="M138.132,122.9H125.173v4.432h11.9v3.625h-11.9v5.367H138.73v3.752H120.173V119.209h17.959Z" fill="#0d2863"/>
      <path id="Path_6689" data-name="Path 6689" d="M152.171,119.209h5.117v17.12h12.228v3.752H152.171Z" fill="#0d2863"/>
      <path id="Path_6690" data-name="Path 6690" d="M179.958,119.209h5.789l8.665,20.872h-5.549l-1.617-4.29h-9.017l-1.66,4.29h-5.352Zm-.337,12.985h6.271l-3.094-8.213Z" fill="#0d2863"/>
      <path id="Path_6691" data-name="Path 6691" d="M199,119.209l3.233,11.953.705,3.326.706-3.258,2.766-12.021h5.4l2.909,11.951.746,3.328.755-3.2,3.265-12.08h5.21L217.8,140.081h-4.9l-2.957-12.206-.864-4.035-.864,4.035-2.957,12.206h-4.753l-6.943-20.872Z" fill="#0d2863"/>
    </g>
  </g>
</svg>
